# Blender v2.79 (sub 0) OBJ File: 'Bacon_Cooked.blend'
# www.blender.org
mtllib Bacon_Cooked.mtl
o Bacon_Cooked_Plane.014
v -0.475063 -0.007181 -0.197786
v -0.333983 -0.000000 -0.138735
v 0.517108 -0.007180 -0.178125
v 0.517108 -0.007180 0.022792
v 0.517108 -0.007180 -0.040382
v 0.517108 -0.007180 -0.067737
v 0.517108 -0.007180 -0.114950
v -0.338126 -0.000000 0.023675
v -0.338126 -0.000000 -0.029998
v -0.338126 -0.000000 -0.057353
v -0.338126 -0.000000 -0.104566
v -0.475063 -0.007181 0.003131
v -0.475063 -0.007181 -0.060043
v -0.475063 -0.007181 -0.087398
v -0.475063 -0.007181 -0.134611
v 0.338878 -0.007180 -0.110027
v 0.205068 0.000000 -0.118504
v 0.064702 -0.007180 -0.154095
v -0.066529 0.000000 -0.118504
v -0.202328 -0.007181 -0.119971
v 0.340867 -0.007180 -0.072758
v 0.205068 0.000000 -0.071291
v 0.072315 -0.007180 -0.122941
v -0.066529 0.000000 -0.084690
v -0.202328 -0.007181 -0.072758
v 0.340867 -0.007180 -0.045403
v 0.205068 0.000000 -0.043936
v 0.069270 -0.007180 -0.079527
v -0.066529 -0.000000 -0.043936
v -0.202328 -0.007181 -0.045403
v 0.340176 -0.007180 -0.009162
v 0.205068 0.000000 0.019238
v 0.069270 -0.007180 -0.016353
v -0.066529 -0.000000 0.019238
v -0.202328 -0.007181 -0.013816
v 0.408766 0.000000 -0.135126
v 0.340867 -0.007180 -0.174517
v 0.205068 0.000000 -0.181678
v 0.069270 -0.007180 -0.217270
v -0.066529 0.000000 -0.181678
v -0.201637 -0.007181 -0.172096
v 0.585261 -0.007180 0.028191
v -0.475063 -0.007181 0.022089
v -0.544100 -0.007181 -0.192345
v 0.517108 -0.007180 -0.194557
v -0.338126 -0.000000 0.052134
v -0.475063 -0.007181 -0.214217
v -0.406310 -0.000000 -0.176504
v 0.517108 -0.007180 0.041750
v 0.449019 0.000000 -0.133053
v 0.585261 -0.007180 -0.172725
v 0.596934 -0.007180 -0.109551
v 0.596934 -0.007180 -0.062338
v 0.596934 -0.007180 -0.034983
v -0.544100 -0.007181 0.008571
v -0.560545 -0.007181 -0.057039
v -0.560545 -0.007181 -0.084394
v -0.560545 -0.007181 -0.131607
v -0.406310 -0.000000 0.024412
v -0.406310 -0.000000 -0.038762
v -0.406310 -0.000000 -0.066117
v -0.406310 -0.000000 -0.113330
v 0.449019 0.000000 0.033745
v 0.449019 0.000000 -0.019070
v 0.449019 0.000000 -0.046425
v 0.449019 0.000000 -0.093638
v 0.517108 -0.007180 -0.008795
v -0.475063 -0.007181 -0.028456
v 0.338795 -0.007180 0.031204
v 0.205068 0.000000 0.038196
v 0.069270 -0.007180 0.002605
v -0.066529 -0.000000 0.038196
v -0.202328 -0.007181 0.026497
v -0.338126 -0.000000 -0.184172
v -0.202328 -0.007181 -0.199577
v -0.066529 0.000000 -0.198110
v 0.069270 -0.007180 -0.233702
v 0.205068 0.000000 -0.198110
v 0.340867 -0.007180 -0.199577
v -0.338126 -0.000000 0.001589
v -0.066529 -0.000000 -0.012349
v 0.069270 -0.007180 -0.047940
v 0.205068 0.000000 -0.012349
v 0.340867 -0.007180 -0.022794
v 0.404788 0.000000 -0.085232
v 0.272968 -0.007180 -0.128559
v 0.137169 0.000000 -0.128707
v 0.001370 -0.007180 -0.158003
v -0.134428 -0.000000 -0.106572
v -0.270227 -0.007181 -0.118159
v 0.408766 0.000000 -0.048959
v 0.272968 -0.007180 -0.081346
v 0.137169 0.000000 -0.081494
v -0.000619 -0.007180 -0.124860
v -0.134428 -0.000000 -0.059359
v -0.270227 -0.007181 -0.070946
v 0.408766 0.000000 -0.021603
v 0.272968 -0.007180 -0.053991
v 0.137169 0.000000 -0.054139
v 0.001370 -0.007180 -0.076126
v -0.134428 -0.000000 -0.032004
v -0.270227 -0.007181 -0.043590
v 0.409457 0.000000 0.018781
v 0.275730 -0.007180 -0.002557
v 0.137169 0.000000 0.009035
v 0.001370 -0.007180 -0.012952
v -0.134428 -0.000000 0.020207
v -0.270227 -0.007181 -0.011273
v 0.272968 -0.007180 -0.191733
v 0.137169 0.000000 -0.191881
v 0.001370 -0.007180 -0.213869
v -0.134428 0.000000 -0.169746
v -0.268155 -0.007181 -0.153709
v 0.568223 -0.007180 0.037902
v -0.526841 -0.007181 0.018272
v 0.568223 -0.007180 -0.182610
v -0.526841 -0.007181 -0.202241
v -0.406310 -0.000000 0.043370
v -0.406310 -0.000000 -0.192936
v 0.449019 0.000000 -0.173244
v 0.449019 0.000000 0.063062
v 0.593889 -0.007180 -0.003396
v -0.552627 -0.007181 -0.024843
v -0.406310 -0.000000 -0.007175
v 0.449019 0.000000 0.012517
v 0.408766 0.000000 0.060529
v 0.272968 -0.007180 0.028141
v 0.137169 0.000000 0.027993
v 0.001370 -0.007180 0.006006
v -0.134428 -0.000000 0.042088
v -0.270227 -0.007181 0.034564
v -0.270227 -0.007181 -0.197765
v -0.134428 0.000000 -0.186178
v 0.001370 -0.007180 -0.230300
v 0.137169 0.000000 -0.208313
v 0.272968 -0.007180 -0.208165
v 0.408766 0.000000 -0.175778
v -0.134428 -0.000000 -0.000417
v 0.001370 -0.007180 -0.044539
v 0.137169 0.000000 -0.022552
v 0.272968 -0.007180 -0.022404
v 0.408766 0.000000 0.005840
v -0.474330 -0.021248 -0.197786
v -0.334790 -0.014064 -0.138753
v 0.516369 -0.021248 -0.178125
v 0.516369 -0.021248 0.022792
v 0.516369 -0.021248 -0.040382
v 0.516369 -0.021248 -0.067737
v 0.516369 -0.021248 -0.114950
v -0.338868 -0.014067 0.023675
v -0.338868 -0.014067 -0.029998
v -0.338868 -0.014067 -0.057353
v -0.338850 -0.014068 -0.104593
v -0.474330 -0.021248 0.003131
v -0.474330 -0.021248 -0.060043
v -0.474330 -0.021248 -0.087398
v -0.474330 -0.021248 -0.134611
v 0.339608 -0.021248 -0.110027
v 0.204327 -0.014067 -0.118504
v 0.065360 -0.021252 -0.154104
v -0.067287 -0.014067 -0.118519
v -0.201587 -0.021248 -0.119969
v 0.341642 -0.021246 -0.072797
v 0.204327 -0.014067 -0.071291
v 0.073151 -0.021243 -0.122987
v -0.067280 -0.014067 -0.084687
v -0.201586 -0.021248 -0.072758
v 0.341609 -0.021248 -0.045403
v 0.204327 -0.014067 -0.043936
v 0.069995 -0.021249 -0.079509
v -0.067271 -0.014067 -0.043931
v -0.201586 -0.021248 -0.045403
v 0.340899 -0.021249 -0.009155
v 0.204340 -0.014068 0.019229
v 0.070011 -0.021248 -0.016353
v -0.067271 -0.014067 0.019238
v -0.201586 -0.021248 -0.013816
v 0.409484 -0.014068 -0.135101
v 0.341613 -0.021247 -0.174504
v 0.204327 -0.014067 -0.181678
v 0.070015 -0.021248 -0.217259
v -0.067271 -0.014067 -0.181678
v -0.200882 -0.021247 -0.172100
v 0.585261 -0.021267 0.028191
v -0.474249 -0.021244 0.022089
v -0.544100 -0.021268 -0.192345
v 0.516389 -0.021249 -0.194557
v -0.338834 -0.014069 0.052134
v -0.474351 -0.021250 -0.214217
v -0.405578 -0.014068 -0.176504
v 0.516286 -0.021243 0.041750
v 0.448280 -0.014067 -0.133053
v 0.585261 -0.021267 -0.172725
v 0.596934 -0.021267 -0.109551
v 0.596934 -0.021267 -0.062338
v 0.596934 -0.021267 -0.034983
v -0.544100 -0.021268 0.008571
v -0.560545 -0.021268 -0.057039
v -0.560545 -0.021268 -0.084394
v -0.560545 -0.021268 -0.131607
v -0.405578 -0.014068 0.024412
v -0.405578 -0.014068 -0.038762
v -0.405578 -0.014068 -0.066117
v -0.405578 -0.014068 -0.113330
v 0.448280 -0.014067 0.033745
v 0.448280 -0.014067 -0.019070
v 0.448280 -0.014067 -0.046425
v 0.448280 -0.014067 -0.093638
v 0.516369 -0.021248 -0.008795
v -0.474330 -0.021248 -0.028456
v 0.339588 -0.021245 0.031224
v 0.204331 -0.014067 0.038155
v 0.070075 -0.021244 0.002605
v -0.067136 -0.014074 0.038196
v -0.201564 -0.021247 0.026497
v -0.338844 -0.014069 -0.184122
v -0.201636 -0.021250 -0.199588
v -0.067404 -0.014060 -0.198110
v 0.069928 -0.021252 -0.233702
v 0.204328 -0.014067 -0.198110
v 0.341492 -0.021253 -0.199577
v -0.338868 -0.014067 0.001589
v -0.067271 -0.014067 -0.012349
v 0.070011 -0.021248 -0.047940
v 0.204340 -0.014068 -0.012328
v 0.341618 -0.021247 -0.022794
v 0.405593 -0.014064 -0.085257
v 0.272226 -0.021248 -0.128559
v 0.137914 -0.014067 -0.128743
v 0.000635 -0.021248 -0.158010
v -0.133685 -0.014067 -0.106570
v -0.270997 -0.021246 -0.118198
v 0.409494 -0.014068 -0.048981
v 0.272226 -0.021248 -0.081346
v 0.137920 -0.014067 -0.081497
v -0.001401 -0.021246 -0.124870
v -0.133687 -0.014067 -0.059359
v -0.270969 -0.021248 -0.070946
v 0.409508 -0.014067 -0.021603
v 0.272226 -0.021248 -0.053991
v 0.137911 -0.014067 -0.054127
v 0.000637 -0.021248 -0.076116
v -0.133687 -0.014067 -0.032004
v -0.270969 -0.021248 -0.043590
v 0.410164 -0.014069 0.018792
v 0.275057 -0.021251 -0.002551
v 0.137911 -0.014067 0.009035
v 0.000629 -0.021248 -0.012952
v -0.133687 -0.014067 0.020207
v -0.270969 -0.021248 -0.011273
v 0.272226 -0.021248 -0.191733
v 0.137890 -0.014068 -0.191866
v 0.000629 -0.021248 -0.213869
v -0.133682 -0.014067 -0.169750
v -0.268883 -0.021249 -0.153709
v 0.568223 -0.021267 0.037902
v -0.526841 -0.021267 0.018272
v 0.568223 -0.021267 -0.182610
v -0.526841 -0.021268 -0.202241
v -0.405683 -0.014073 0.043370
v -0.405483 -0.014063 -0.192936
v 0.448230 -0.014065 -0.173244
v 0.448344 -0.014071 0.063062
v 0.593889 -0.021267 -0.003396
v -0.552627 -0.021268 -0.024843
v -0.405578 -0.014068 -0.007175
v 0.448280 -0.014067 0.012517
v 0.409374 -0.014074 0.060544
v 0.272170 -0.021245 0.028097
v 0.137783 -0.014073 0.027993
v 0.000526 -0.021242 0.006006
v -0.133730 -0.014070 0.042088
v -0.271052 -0.021243 0.034564
v -0.270937 -0.021250 -0.197716
v -0.133677 -0.014067 -0.186190
v 0.000761 -0.021254 -0.230300
v 0.138022 -0.014061 -0.208313
v 0.272231 -0.021248 -0.208165
v 0.409594 -0.014062 -0.175778
v -0.133687 -0.014067 -0.000417
v 0.000629 -0.021248 -0.044539
v 0.137911 -0.014067 -0.022552
v 0.272205 -0.021246 -0.022385
v 0.409516 -0.014067 0.005840
vn -0.0000 1.0000 0.0000
vn -0.1039 0.9946 0.0000
vn 0.1052 0.9944 -0.0073
vn 0.1049 0.9945 0.0000
vn 0.1052 0.9945 0.0000
vn -0.1015 0.9948 -0.0026
vn 0.1044 0.9945 0.0058
vn -0.1052 0.9945 0.0000
vn -0.1059 0.9944 0.0017
vn 0.0003 -1.0000 0.0003
vn 0.1038 -0.9946 0.0001
vn -0.0000 -1.0000 -0.0000
vn -0.1052 -0.9944 0.0073
vn -0.1048 -0.9945 0.0000
vn -0.0004 -1.0000 0.0003
vn -0.0004 -1.0000 -0.0001
vn -0.1049 -0.9945 -0.0000
vn 0.0001 -1.0000 -0.0001
vn -0.1052 -0.9944 -0.0000
vn 0.0000 -1.0000 -0.0001
vn 0.1039 -0.9946 0.0000
vn 0.0003 -1.0000 -0.0000
vn 0.1016 -0.9948 0.0026
vn 0.0000 -1.0000 0.0001
vn -0.1044 -0.9945 -0.0060
vn 0.1052 -0.9945 0.0001
vn -0.0000 -1.0000 0.0002
vn -0.1052 -0.9944 0.0001
vn -0.0000 -1.0000 -0.0002
vn 0.1052 -0.9945 0.0000
vn -0.0001 -1.0000 0.0002
vn 0.1051 -0.9945 -0.0000
vn -0.1052 -0.9945 -0.0000
vn 0.1051 -0.9945 0.0001
vn -0.1051 -0.9945 -0.0000
vn 0.1059 -0.9944 -0.0017
vn 0.0000 -1.0000 0.0003
vn 0.4952 0.0000 0.8688
vn -0.2946 -0.0151 0.9555
vn -0.0729 -0.0021 0.9973
vn -0.4974 0.0000 -0.8675
vn -0.2970 0.0159 -0.9547
vn 0.2261 -0.0058 -0.9741
vn 0.2493 -0.0136 0.9683
vn -0.1287 0.0004 0.9917
vn -0.2239 -0.0057 -0.9746
vn 0.2939 0.0161 -0.9557
vn 0.0641 0.0001 -0.9979
vn 0.0745 -0.0022 0.9972
vn 0.2974 -0.0158 0.9546
vn 0.5018 0.0000 -0.8650
vn -0.4900 0.0000 0.8717
vn -0.0636 0.0007 0.9980
vn -0.3853 -0.0180 0.9226
vn -0.0464 -0.0009 0.9989
vn 0.1454 -0.0109 0.9893
vn -0.1498 -0.0008 0.9887
vn -0.3490 -0.0176 0.9370
vn 0.4270 -0.0220 0.9040
vn 0.0578 0.0002 0.9983
vn -0.2227 -0.0116 0.9748
vn 0.1166 -0.0003 0.9932
vn 0.1293 -0.0013 -0.9916
vn -0.1956 0.0065 -0.9807
vn -0.0268 -0.0013 -0.9996
vn 0.1924 0.0106 -0.9813
vn -0.1750 0.0012 -0.9846
vn -0.4257 0.0225 -0.9046
vn 0.3480 0.0187 -0.9373
vn 0.1503 0.0006 -0.9886
vn -0.1457 0.0076 -0.9893
vn 0.1243 -0.0005 -0.9923
vn 0.3287 0.0170 -0.9443
vn 0.0494 -0.0001 0.9988
vn -0.0496 -0.0001 -0.9988
vn -0.1041 0.9945 -0.0054
vn 0.1088 0.9940 0.0097
vn -0.1056 0.9944 -0.0006
vn -0.1005 0.9949 -0.0036
vn -0.1041 0.9946 0.0000
vn 0.1018 0.9948 -0.0055
vn 0.1041 -0.9945 0.0054
vn -0.1088 -0.9940 -0.0097
vn -0.0003 -1.0000 0.0000
vn 0.1056 -0.9944 0.0006
vn 0.1005 -0.9949 0.0037
vn 0.1041 -0.9946 0.0001
vn -0.1018 -0.9948 0.0056
vn 0.9647 0.0000 0.2635
vn 0.9834 0.0000 -0.1817
vn -0.9689 0.0000 0.2473
vn -0.9652 0.0000 -0.2613
vn -0.1091 0.9940 0.0106
vn -0.1099 0.9939 0.0089
vn 0.1086 0.9941 0.0032
vn -0.0002 -1.0000 -0.0000
vn 0.0002 -1.0000 -0.0000
vn 0.1092 -0.9940 -0.0107
vn 0.1099 -0.9939 -0.0089
vn -0.1086 -0.9941 -0.0033
vn 1.0000 0.0000 0.0000
vn 0.9954 0.0000 0.0960
vn -0.9711 0.0000 0.2388
vn -1.0000 0.0000 0.0000
vn -0.1053 0.9944 -0.0045
vn 0.1055 0.9944 -0.0023
vn 0.1053 -0.9944 0.0046
vn -0.1054 -0.9944 0.0024
usemtl Light
s off
f 1//1 47//1 117//1 44//1
f 1//2 48//2 119//2 47//2
f 2//1 74//1 119//1 48//1
f 2//3 113//3 132//3 74//3
f 3//4 45//4 120//4 50//4
f 3//1 51//1 116//1 45//1
f 4//1 49//1 114//1 42//1
f 4//4 63//4 121//4 49//4
f 121//1 63//1 103//1 126//1
f 8//5 46//5 131//5 108//5
f 8//1 59//1 118//1 46//1
f 12//2 43//2 118//2 59//2
f 12//1 55//1 115//1 43//1
f 137//1 36//1 50//1 120//1
f 31//6 69//6 126//6 103//6
f 31//1 104//1 127//1 69//1
f 32//7 70//7 127//7 104//7
f 32//1 105//1 128//1 70//1
f 33//8 71//8 128//8 105//8
f 33//1 106//1 129//1 71//1
f 34//5 72//5 129//5 106//5
f 34//1 107//1 130//1 72//1
f 35//8 73//8 130//8 107//8
f 35//1 108//1 131//1 73//1
f 37//1 79//1 136//1 109//1
f 37//8 36//8 137//8 79//8
f 38//1 78//1 135//1 110//1
f 38//5 109//5 136//5 78//5
f 39//8 110//8 135//8 77//8
f 40//1 76//1 133//1 112//1
f 40//5 111//5 134//5 76//5
f 41//1 75//1 132//1 113//1
f 41//9 112//9 133//9 75//9
f 111//1 39//1 77//1 134//1
f 143//10 186//10 259//10 189//10
f 143//11 189//11 261//11 190//11
f 144//12 190//12 261//12 216//12
f 144//13 216//13 274//13 255//13
f 145//14 192//14 262//14 187//14
f 145//15 187//15 258//15 193//15
f 146//16 184//16 256//16 191//16
f 146//17 191//17 263//17 205//17
f 263//18 268//18 245//18 205//18
f 150//19 250//19 273//19 188//19
f 150//20 188//20 260//20 201//20
f 154//21 201//21 260//21 185//21
f 154//22 185//22 257//22 197//22
f 279//20 262//20 192//20 178//20
f 173//23 245//23 268//23 211//23
f 173//24 211//24 269//24 246//24
f 174//25 246//25 269//25 212//25
f 174//18 212//18 270//18 247//18
f 175//26 247//26 270//26 213//26
f 175//27 213//27 271//27 248//27
f 176//28 248//28 271//28 214//28
f 176//29 214//29 272//29 249//29
f 177//30 249//30 272//30 215//30
f 177//24 215//24 273//24 250//24
f 179//31 251//31 278//31 221//31
f 179//32 221//32 279//32 178//32
f 180//29 252//29 277//29 220//29
f 180//33 220//33 278//33 251//33
f 181//34 219//34 277//34 252//34
f 182//29 254//29 275//29 218//29
f 182//35 218//35 276//35 253//35
f 183//24 255//24 274//24 217//24
f 183//36 217//36 275//36 254//36
f 253//37 276//37 219//37 181//37
f 42//38 114//38 256//38 184//38
f 118//39 43//39 185//39 260//39
f 43//40 115//40 257//40 185//40
f 44//41 117//41 259//41 186//41
f 120//42 45//42 187//42 262//42
f 45//43 116//43 258//43 187//43
f 131//44 46//44 188//44 273//44
f 46//45 118//45 260//45 188//45
f 117//46 47//46 189//46 259//46
f 47//47 119//47 261//47 189//47
f 137//48 120//48 262//48 279//48
f 114//49 49//49 191//49 256//49
f 49//50 121//50 263//50 191//50
f 116//51 51//51 193//51 258//51
f 115//52 55//52 197//52 257//52
f 121//53 126//53 268//53 263//53
f 126//54 69//54 211//54 268//54
f 69//55 127//55 269//55 211//55
f 127//56 70//56 212//56 269//56
f 70//57 128//57 270//57 212//57
f 128//58 71//58 213//58 270//58
f 129//59 72//59 214//59 271//59
f 72//60 130//60 272//60 214//60
f 130//61 73//61 215//61 272//61
f 73//62 131//62 273//62 215//62
f 119//63 74//63 216//63 261//63
f 74//64 132//64 274//64 216//64
f 132//65 75//65 217//65 274//65
f 75//66 133//66 275//66 217//66
f 133//67 76//67 218//67 275//67
f 76//68 134//68 276//68 218//68
f 77//69 135//69 277//69 219//69
f 135//70 78//70 220//70 277//70
f 78//71 136//71 278//71 220//71
f 136//72 79//72 221//72 278//72
f 79//73 137//73 279//73 221//73
f 71//74 129//74 271//74 213//74
f 134//75 77//75 219//75 276//75
usemtl Meat1_Cooked
f 37//76 16//76 85//76 36//76
f 15//2 62//2 48//2 1//2
f 41//1 113//1 90//1 20//1
f 11//77 90//77 113//77 2//77
f 36//1 85//1 66//1 50//1
f 7//1 52//1 51//1 3//1
f 4//4 67//4 125//4 63//4
f 4//1 42//1 122//1 67//1
f 8//1 80//1 124//1 59//1
f 8//5 108//5 80//5
f 12//1 68//1 123//1 55//1
f 12//2 59//2 124//2 68//2
f 11//1 2//1 48//1 62//1
f 38//5 17//5 86//5 109//5
f 37//1 109//1 86//1 16//1
f 7//4 3//4 50//4 66//4
f 38//1 110//1 87//1 17//1
f 40//5 19//5 88//5 111//5
f 88//1 18//1 39//1 111//1
f 41//78 20//78 89//78 112//78
f 40//1 112//1 89//1 19//1
f 33//1 82//1 139//1 106//1
f 39//79 18//79 87//79 110//79
f 142//1 103//1 63//1 125//1
f 31//1 84//1 141//1 104//1
f 31//80 103//80 142//80 84//80
f 32//1 83//1 140//1 105//1
f 32//81 104//81 141//81 83//81
f 33//8 105//8 140//8 82//8
f 34//1 81//1 138//1 107//1
f 34//5 106//5 139//5 81//5
f 35//8 107//8 138//8
f 15//1 1//1 44//1 58//1
f 179//82 178//82 227//82 158//82
f 157//21 143//21 190//21 204//21
f 183//12 162//12 232//12 255//12
f 153//83 144//83 255//83 232//83
f 178//24 192//24 208//24 227//24
f 149//84 145//84 193//84 194//84
f 146//17 205//17 267//17 209//17
f 146//84 209//84 264//84 184//84
f 150//12 201//12 266//12 222//12
f 150//33 222//33 250//33
f 154//22 197//22 265//22 210//22
f 154//21 210//21 266//21 201//21
f 153//12 204//12 190//12 144//12
f 180//33 251//33 228//33 159//33
f 179//12 158//12 228//12 251//12
f 149//17 208//17 192//17 145//17
f 180//12 159//12 229//12 252//12
f 182//33 253//33 230//33 161//33
f 230//12 253//12 181//12 160//12
f 183//85 254//85 231//85 162//85
f 182//12 161//12 231//12 254//12
f 175//12 248//12 281//12 224//12
f 181//86 252//86 229//86 160//86
f 284//20 267//20 205//20 245//20
f 173//29 246//29 283//29 226//29
f 173//87 226//87 284//87 245//87
f 174//12 247//12 282//12 225//12
f 174//88 225//88 283//88 246//88
f 175//30 224//30 282//30 247//30
f 176//12 249//12 280//12 223//12
f 176//33 223//33 281//33 248//33
f 177//30 280//30 249//30
f 157//22 200//22 186//22 143//22
f 122//89 42//89 184//89 264//89
f 51//90 52//90 194//90 193//90
f 55//91 123//91 265//91 197//91
f 58//92 44//92 186//92 200//92
usemtl Meat2_Cooked
f 5//1 67//1 122//1 54//1
f 5//4 64//4 125//4 67//4
f 7//1 6//1 53//1 52//1
f 85//1 91//1 65//1 66//1
f 9//5 80//5 108//5 102//5
f 9//1 60//1 124//1 80//1
f 11//5 10//5 96//5 90//5
f 25//1 20//1 90//1 96//1
f 13//2 68//2 124//2 60//2
f 13//1 56//1 123//1 68//1
f 15//2 14//2 61//2 62//2
f 11//1 62//1 61//1 10//1
f 22//1 17//1 87//1 93//1
f 87//93 18//93 23//93 93//93
f 21//94 91//94 85//94 16//94
f 7//4 66//4 65//4 6//4
f 21//1 16//1 86//1 92//1
f 22//5 92//5 86//5 17//5
f 18//1 88//1 94//1 23//1
f 24//95 94//95 88//95 19//95
f 24//1 19//1 89//1 95//1
f 25//8 95//8 89//8 20//8
f 142//1 125//1 64//1 97//1
f 26//8 84//8 142//8 97//8
f 26//1 98//1 141//1 84//1
f 27//5 83//5 141//5 98//5
f 27//1 99//1 140//1 83//1
f 28//8 82//8 140//8 99//8
f 29//5 81//5 139//5 100//5
f 29//1 101//1 138//1 81//1
f 30//8 35//8 138//8 101//8
f 30//1 102//1 108//1 35//1
f 28//1 100//1 139//1 82//1
f 15//1 58//1 57//1 14//1
f 147//96 196//96 264//96 209//96
f 147//17 209//17 267//17 206//17
f 149//96 194//96 195//96 148//96
f 227//20 208//20 207//20 233//20
f 151//33 244//33 250//33 222//33
f 151//12 222//12 266//12 202//12
f 153//33 232//33 238//33 152//33
f 167//12 238//12 232//12 162//12
f 155//21 202//21 266//21 210//21
f 155//97 210//97 265//97 198//97
f 157//21 204//21 203//21 156//21
f 153//12 152//12 203//12 204//12
f 164//12 235//12 229//12 159//12
f 229//98 235//98 165//98 160//98
f 163//99 158//99 227//99 233//99
f 149//17 148//17 207//17 208//17
f 163//12 234//12 228//12 158//12
f 164//33 159//33 228//33 234//33
f 160//27 165//27 236//27 230//27
f 166//100 161//100 230//100 236//100
f 166//12 237//12 231//12 161//12
f 167//30 162//30 231//30 237//30
f 284//12 239//12 206//12 267//12
f 168//30 239//30 284//30 226//30
f 168//12 226//12 283//12 240//12
f 169//33 240//33 283//33 225//33
f 169//12 225//12 282//12 241//12
f 170//30 241//30 282//30 224//30
f 171//33 242//33 281//33 223//33
f 171//12 223//12 280//12 243//12
f 172//30 243//30 280//30 177//30
f 172//12 177//12 250//12 244//12
f 170//12 224//12 281//12 242//12
f 157//97 156//97 199//97 200//97
f 52//101 53//101 195//101 194//101
f 54//102 122//102 264//102 196//102
f 123//103 56//103 198//103 265//103
f 57//104 58//104 200//104 199//104
usemtl Meat3_Cooked
f 6//1 5//1 54//1 53//1
f 10//5 9//5 102//5 96//5
f 30//1 25//1 96//1 102//1
f 14//2 13//2 60//2 61//2
f 10//1 61//1 60//1 9//1
f 14//1 57//1 56//1 13//1
f 26//8 97//8 91//8 21//8
f 26//1 21//1 92//1 98//1
f 27//5 98//5 92//5 22//5
f 27//1 22//1 93//1 99//1
f 28//105 99//105 93//105 23//105
f 29//106 100//106 94//106 24//106
f 29//1 24//1 95//1 101//1
f 30//8 101//8 95//8 25//8
f 91//1 97//1 64//1 65//1
f 28//1 23//1 94//1 100//1
f 6//4 65//4 64//4 5//4
f 148//96 195//96 196//96 147//96
f 152//33 238//33 244//33 151//33
f 172//12 244//12 238//12 167//12
f 156//21 203//21 202//21 155//21
f 152//12 151//12 202//12 203//12
f 156//97 155//97 198//97 199//97
f 168//30 163//30 233//30 239//30
f 168//12 240//12 234//12 163//12
f 169//33 164//33 234//33 240//33
f 169//12 241//12 235//12 164//12
f 170//107 165//107 235//107 241//107
f 171//108 166//108 236//108 242//108
f 171//12 243//12 237//12 166//12
f 172//30 167//30 237//30 243//30
f 233//12 207//12 206//12 239//12
f 170//20 242//20 236//20 165//20
f 148//17 147//17 206//17 207//17
f 53//101 54//101 196//101 195//101
f 56//104 57//104 199//104 198//104
