# Blender v2.79 (sub 0) OBJ File: 'Banana.blend'
# www.blender.org
mtllib Banana.mtl
o Banana_Cube.038
v -0.216123 -0.189515 0.112519
v 0.007049 0.104383 -0.073693
v 0.442316 0.183918 0.020142
v 0.214112 -0.152183 0.008807
v 0.136528 -0.046317 -0.193161
v 0.078996 0.003951 0.113752
v -0.448623 -0.445746 0.018177
v -0.183271 -0.247602 -0.181395
v -0.245457 -0.070032 -0.061871
v -0.151166 -0.374048 0.006292
v -0.637259 -0.322960 0.070621
v -0.465845 -0.280741 0.112397
v -0.468994 -0.336536 -0.146793
v -0.486430 -0.177168 -0.039668
v -0.706673 -0.352196 0.001848
v -0.648033 -0.360123 -0.087715
v -0.640481 -0.273136 -0.023806
v -0.637138 -0.420631 0.013189
v 0.273726 0.510099 0.098258
v 0.329356 0.237637 -0.173566
v 0.266729 0.254756 0.110943
v 0.168091 0.300836 -0.054024
v 0.169640 0.676764 0.049947
v 0.174805 0.507480 -0.021123
v 0.438497 0.488412 0.031854
v 0.317340 0.533615 -0.100091
v 0.132917 0.850700 0.038344
v 0.308874 0.609452 0.027660
v 0.219818 0.688273 0.002292
v 0.135318 0.671105 0.010346
v 0.179030 0.685233 -0.034867
v 0.217573 0.683127 0.035634
v 0.062619 0.958200 -0.004670
v 0.092862 0.816358 -0.037487
v 0.143315 0.853956 -0.003120
v 0.095238 0.819279 0.056306
v 0.070539 0.796039 0.021251
v -0.013845 0.913923 0.018120
v 0.028084 0.901954 0.048538
v -0.006877 0.874793 0.021133
v 0.055567 0.945893 0.058114
v 0.022080 0.889088 -0.051795
v 0.002856 0.942310 0.028179
v -0.018129 -0.163447 -0.192239
v 0.025049 -0.287920 0.002292
v -0.071279 -0.110452 0.114741
v -0.116362 0.014568 -0.073313
v 0.058510 0.048497 -0.177186
v 0.015243 0.085936 0.058485
v 0.105940 0.202769 -0.066466
v 0.261599 0.090699 -0.188266
v 0.204204 0.132263 0.112982
v 0.365180 0.016452 0.014651
v 0.197884 -0.125742 -0.122672
v 0.155120 -0.088517 0.100721
v -0.338948 -0.303716 -0.162357
v -0.309852 -0.424743 0.013971
v -0.350581 -0.244892 0.116319
v -0.377569 -0.130183 -0.048361
v -0.242673 -0.092952 0.061683
v -0.179001 -0.305583 0.095312
v -0.156525 -0.339029 -0.109621
v -0.221500 -0.129035 -0.165891
v -0.571200 -0.351903 -0.116679
v -0.559901 -0.435326 0.015417
v -0.563257 -0.304374 0.097057
v -0.571921 -0.224318 -0.031194
v -0.451799 -0.380317 0.100695
v -0.454980 -0.420128 -0.086563
v -0.476903 -0.197648 0.062874
v -0.483022 -0.230132 -0.133980
v -0.700415 -0.363604 -0.048966
v -0.685982 -0.397023 0.010607
v -0.688059 -0.339723 0.046908
v -0.692281 -0.309469 -0.010859
v -0.633531 -0.284470 0.038834
v -0.632147 -0.383606 0.057153
v -0.641064 -0.412841 -0.049863
v -0.652753 -0.290830 -0.079898
v 0.180478 0.406750 -0.039310
v 0.345694 0.386923 -0.143915
v 0.285825 0.375941 0.109829
v 0.468722 0.344959 0.031702
v 0.424930 0.194794 -0.106818
v 0.372155 0.210244 0.102470
v 0.221306 0.280696 -0.152096
v 0.181161 0.290355 0.062010
v 0.165147 0.598997 0.000482
v 0.229918 0.610662 -0.052191
v 0.294867 0.576036 0.077616
v 0.376922 0.573741 0.031816
v 0.371872 0.482626 0.095664
v 0.194267 0.504470 0.060072
v 0.224477 0.519515 -0.092975
v 0.417779 0.499449 -0.059047
v 0.210583 0.595953 0.059779
v 0.320572 0.595569 -0.041138
v 0.262963 0.623845 0.043254
v 0.267841 0.635249 0.005957
v 0.103476 0.734231 0.020207
v 0.140668 0.753987 -0.033543
v 0.135113 0.748509 0.052822
v 0.173174 0.762973 0.036035
v 0.177257 0.769852 0.005234
v 0.189805 0.679574 0.050472
v 0.149291 0.674828 0.044843
v 0.201762 0.689591 -0.023469
v 0.224090 0.683684 0.029644
v 0.153577 0.674539 -0.029175
v 0.027501 0.843927 0.020936
v 0.047853 0.867413 -0.040048
v 0.059460 0.868999 0.055309
v 0.084996 0.918632 0.039552
v 0.096749 0.922832 -0.012065
v 0.141737 0.858649 0.025943
v 0.116241 0.836701 0.049949
v 0.072463 0.801000 -0.020292
v 0.119736 0.836030 -0.030889
v 0.079632 0.806026 0.043492
v -0.017136 0.893772 0.017250
v -0.030550 0.916343 -0.015902
v 0.011944 0.910452 0.039508
v 0.021089 0.947318 0.050192
v 0.000781 0.951581 0.003019
v 0.036880 0.908802 -0.051016
v 0.064748 0.958465 0.026345
v 0.042850 0.932128 0.059537
v 0.011807 0.883203 0.041277
v -0.008458 0.869955 -0.023949
v -0.005858 0.930216 0.023695
v 0.018520 -0.254130 -0.122286
v -0.018011 -0.218560 0.096893
v -0.073246 -0.050963 -0.178234
v -0.113054 -0.010555 0.058166
v 0.344709 0.030295 -0.114831
v 0.298230 0.063818 0.102076
v 0.161334 0.161195 -0.169498
v 0.118226 0.192514 0.056907
v -0.365411 -0.187927 -0.149961
v -0.318561 -0.395717 -0.098792
v -0.325231 -0.357565 0.103685
v -0.369485 -0.153775 0.066628
v -0.577979 -0.263089 -0.111980
v -0.562849 -0.420568 -0.067303
v -0.555816 -0.387316 0.079278
v -0.564356 -0.238805 0.050915
v -0.691685 -0.307710 -0.053053
v -0.681218 -0.400264 -0.032384
v -0.673150 -0.377827 0.046093
v -0.675206 -0.308867 0.028129
v 0.198392 0.396872 0.064397
v 0.240469 0.403033 -0.127215
v 0.446479 0.357966 -0.089370
v 0.391885 0.349930 0.107033
v 0.178229 0.599776 0.042918
v 0.190428 0.606614 -0.046591
v 0.380814 0.564983 -0.025991
v 0.352786 0.551018 0.074741
v 0.239753 0.611173 0.056494
v 0.250653 0.631026 -0.032534
v 0.256357 0.645070 0.026526
v 0.120363 0.742770 0.046064
v 0.119812 0.743795 -0.028227
v 0.163032 0.762483 -0.023259
v 0.157836 0.760815 0.048629
v 0.181371 0.770738 0.024373
v 0.037218 0.854390 0.048501
v 0.028356 0.846389 -0.024089
v 0.069800 0.889236 -0.039047
v 0.072039 0.896459 0.049882
v 0.100989 0.925856 0.023074
v 0.002290 0.892834 0.033401
v -0.030408 0.891508 -0.007256
v -0.013306 0.937727 -0.010972
v 0.019988 0.936817 0.047607
v 0.012403 0.946276 0.040234
vn 0.0588 -0.1310 0.9896
vn -0.2329 0.4029 0.8851
vn -0.1637 0.4347 0.8856
vn 0.0837 -0.1064 0.9908
vn -0.4783 0.6469 -0.5939
vn -0.5875 0.7939 0.1568
vn -0.7078 0.6934 0.1346
vn -0.5719 0.5870 -0.5729
vn 0.6592 -0.3299 0.6757
vn 0.8929 -0.4162 -0.1719
vn 0.9771 -0.1294 -0.1686
vn 0.7090 -0.1458 0.6900
vn 0.7257 -0.6572 -0.2035
vn 0.5306 -0.5017 0.6832
vn 0.4277 -0.6088 0.6682
vn 0.5688 -0.7879 -0.2359
vn -0.0728 0.0968 -0.9926
vn -0.0794 0.1223 -0.9893
vn 0.4445 -0.3771 -0.8125
vn 0.3438 -0.4721 -0.8117
vn -0.3360 0.3353 0.8802
vn -0.2837 0.3775 0.8815
vn 0.0717 -0.1064 0.9917
vn 0.0725 -0.0714 0.9948
vn 0.1431 -0.9575 -0.2505
vn 0.1312 -0.7786 0.6136
vn -0.0811 -0.7876 0.6109
vn -0.0601 -0.9764 -0.2073
vn -0.1147 0.0801 -0.9902
vn 0.2181 -0.5510 -0.8055
vn 0.1252 -0.5680 -0.8134
vn -0.1449 0.0774 -0.9864
vn -0.5275 0.8325 0.1694
vn -0.4546 0.6933 -0.5592
vn -0.3866 0.7712 -0.5058
vn -0.4040 0.8942 0.1928
vn 0.4112 -0.8708 -0.2695
vn 0.3527 -0.6779 0.6450
vn 0.2790 -0.7313 0.6224
vn 0.2910 -0.9165 -0.2746
vn -0.2789 -0.2274 0.9330
vn -0.4373 0.5461 0.7145
vn -0.4985 0.5854 0.6394
vn -0.3261 -0.1998 0.9240
vn -0.0008 -0.1140 0.9935
vn -0.1945 0.4600 0.8664
vn -0.2954 0.4998 0.8142
vn -0.1509 -0.1749 0.9729
vn -0.1510 0.0842 -0.9849
vn 0.0371 -0.5709 -0.8201
vn -0.1419 -0.5920 -0.7934
vn -0.2683 0.0577 -0.9616
vn -0.3743 0.9025 0.2131
vn -0.3663 0.7973 -0.4797
vn -0.4268 0.8037 -0.4146
vn -0.4483 0.8698 0.2062
vn -0.8933 -0.4481 -0.0350
vn -0.8354 -0.3155 0.4502
vn -0.8493 0.4395 0.2923
vn -0.9727 0.2121 -0.0937
vn -0.3824 0.0453 -0.9229
vn -0.2304 -0.5869 -0.7762
vn -0.4711 -0.5553 -0.6854
vn -0.5892 0.0429 -0.8069
vn -0.5589 0.8048 0.1996
vn -0.5103 0.8169 -0.2687
vn -0.5285 0.8456 -0.0743
vn -0.5289 0.8219 0.2118
vn -0.1550 -0.9774 -0.1439
vn -0.1894 -0.7632 0.6178
vn -0.3302 -0.7340 0.5935
vn -0.3824 -0.9230 -0.0426
vn -0.4456 0.0289 0.8947
vn 0.0502 0.0915 0.9945
vn 0.1312 0.2912 0.9476
vn -0.1153 0.3460 0.9311
vn -0.4413 0.0816 0.8937
vn 0.5339 -0.1936 -0.8231
vn -0.0992 0.1658 -0.9812
vn -0.1155 0.2100 -0.9709
vn 0.5406 0.0609 -0.8391
vn -0.4148 0.2239 0.8820
vn 0.0779 -0.0334 0.9964
vn 0.0465 -0.0201 0.9987
vn -0.4604 0.0685 0.8851
vn -0.7084 0.4699 -0.5268
vn -0.8406 0.5247 0.1345
vn -0.9808 0.1247 0.1498
vn -0.8240 0.2055 -0.5280
vn -0.3855 -0.1265 0.9140
vn 0.0139 0.1140 0.9934
vn 0.0760 0.0263 0.9968
vn -0.2851 -0.1572 0.9455
vn -0.8246 0.0537 -0.5632
vn -0.9793 -0.0589 0.1938
vn -0.9584 -0.1378 0.2498
vn -0.8457 -0.0038 -0.5336
vn 0.6875 0.1539 0.7097
vn 0.9612 0.2170 -0.1702
vn 0.8256 0.5578 -0.0849
vn 0.6326 0.4206 0.6503
vn 0.4852 0.3067 -0.8188
vn -0.1124 0.2651 -0.9576
vn -0.1429 0.4113 -0.9002
vn 0.1975 0.6464 -0.7370
vn 0.4682 0.5952 -0.6531
vn 0.5076 0.2355 0.8288
vn 0.6792 0.2941 0.6724
vn 0.5853 0.3928 0.7093
vn 0.3590 0.2510 0.8989
vn 0.4916 0.8542 -0.1693
vn 0.5289 0.7898 0.3107
vn 0.2967 0.6799 0.6706
vn 0.3472 0.7326 0.5854
vn 0.4686 0.8778 -0.0993
vn 0.7514 0.6586 0.0412
vn 0.6817 0.6115 -0.4016
vn 0.7624 0.4114 -0.4995
vn 0.8861 0.4464 -0.1243
vn -0.8337 -0.3077 -0.4585
vn -0.8683 -0.3729 0.3272
vn -0.7796 -0.4020 0.4803
vn -0.8385 -0.3840 -0.3866
vn 0.3513 0.4283 -0.8326
vn -0.1958 0.1168 -0.9737
vn -0.1939 -0.0852 -0.9773
vn 0.3734 0.2130 -0.9029
vn 0.3594 0.3604 0.8608
vn 0.6572 0.5453 0.5203
vn 0.6318 0.3500 0.6917
vn 0.4976 0.2434 0.8326
vn 0.6831 0.7232 -0.1017
vn 0.4149 0.4401 -0.7963
vn -0.1407 0.7283 -0.6706
vn -0.1430 0.9845 0.1015
vn 0.2710 0.1001 -0.9574
vn -0.3440 -0.2435 -0.9068
vn -0.3562 -0.3852 -0.8513
vn 0.1357 0.0217 -0.9905
vn 0.9167 0.3884 -0.0932
vn 0.7272 0.2934 -0.6205
vn 0.5338 0.3118 -0.7860
vn 0.8414 0.5313 -0.0988
vn -0.4084 -0.2516 0.8775
vn 0.1874 0.0720 0.9796
vn 0.1671 0.1316 0.9771
vn -0.2837 -0.2639 0.9219
vn -0.8113 -0.5285 -0.2500
vn -0.7219 -0.4185 0.5511
vn -0.6417 -0.5934 0.4860
vn -0.7265 -0.6823 -0.0818
vn -0.8812 0.1397 0.4517
vn -0.6327 0.0745 0.7708
vn -0.6597 0.0070 0.7515
vn -0.8198 0.4505 0.3534
vn -0.2979 -0.0579 0.9528
vn -0.0401 -0.0773 0.9962
vn -0.4953 -0.0920 0.8638
vn -0.5204 0.0579 0.8519
vn -0.6071 -0.7942 0.0258
vn -0.6097 -0.5428 0.5777
vn -0.6643 -0.1591 0.7303
vn -0.7281 -0.6486 0.2216
vn 0.4262 -0.0086 0.9046
vn 0.6542 0.5159 0.5530
vn -0.1008 0.9593 0.2639
vn -0.3116 0.1324 0.9409
vn 0.2542 -0.1842 -0.9494
vn -0.2521 -0.5526 -0.7944
vn -0.6416 -0.1761 -0.7465
vn -0.3836 0.4138 -0.8256
vn -0.8107 0.5173 0.2741
vn -0.7307 0.1064 0.6744
vn -0.7069 0.6092 0.3594
usemtl Yellow
s off
f 1//1 61//1 132//1 46//1
f 1//2 46//2 134//2 60//2
f 1//3 60//3 142//3 58//3
f 1//4 58//4 141//4 61//4
f 2//5 48//5 133//5 47//5
f 2//6 47//6 134//6 49//6
f 2//7 49//7 138//7 50//7
f 2//8 50//8 137//8 48//8
f 3//9 85//9 136//9 53//9
f 3//10 53//10 135//10 84//10
f 3//11 84//11 153//11 83//11
f 3//12 83//12 154//12 85//12
f 4//13 54//13 135//13 53//13
f 4//14 53//14 136//14 55//14
f 4//15 55//15 132//15 45//15
f 4//16 45//16 131//16 54//16
f 5//17 44//17 133//17 48//17
f 5//18 48//18 137//18 51//18
f 5//19 51//19 135//19 54//19
f 5//20 54//20 131//20 44//20
f 6//21 52//21 138//21 49//21
f 6//22 49//22 134//22 46//22
f 6//23 46//23 132//23 55//23
f 6//24 55//24 136//24 52//24
f 7//25 69//25 140//25 57//25
f 7//26 57//26 141//26 68//26
f 7//27 68//27 145//27 65//27
f 7//28 65//28 144//28 69//28
f 8//29 63//29 133//29 44//29
f 8//30 44//30 131//30 62//30
f 8//31 62//31 140//31 56//31
f 8//32 56//32 139//32 63//32
f 9//33 60//33 134//33 47//33
f 9//34 47//34 133//34 63//34
f 9//35 63//35 139//35 59//35
f 9//36 59//36 142//36 60//36
f 10//37 62//37 131//37 45//37
f 10//38 45//38 132//38 61//38
f 10//39 61//39 141//39 57//39
f 10//40 57//40 140//40 62//40
f 11//41 77//41 145//41 66//41
f 11//42 66//42 146//42 76//42
f 11//43 76//43 150//43 74//43
f 11//44 74//44 149//44 77//44
f 12//45 68//45 141//45 58//45
f 12//46 58//46 142//46 70//46
f 12//47 70//47 146//47 66//47
f 12//48 66//48 145//48 68//48
f 13//49 71//49 139//49 56//49
f 13//50 56//50 140//50 69//50
f 13//51 69//51 144//51 64//51
f 13//52 64//52 143//52 71//52
f 14//53 70//53 142//53 59//53
f 14//54 59//54 139//54 71//54
f 14//55 71//55 143//55 67//55
f 14//56 67//56 146//56 70//56
f 15//57 72//57 148//57 73//57
f 15//58 73//58 149//58 74//58
f 15//59 74//59 150//59 75//59
f 15//60 75//60 147//60 72//60
f 16//61 79//61 143//61 64//61
f 16//62 64//62 144//62 78//62
f 16//63 78//63 148//63 72//63
f 16//64 72//64 147//64 79//64
f 17//65 76//65 146//65 67//65
f 17//66 67//66 143//66 79//66
f 17//67 79//67 147//67 75//67
f 17//68 75//68 150//68 76//68
f 18//69 78//69 144//69 65//69
f 18//70 65//70 145//70 77//70
f 18//71 77//71 149//71 73//71
f 18//72 73//72 148//72 78//72
f 19//73 93//73 151//73 82//73
f 19//74 82//74 154//74 92//74
f 19//75 92//75 158//75 90//75
f 19//76 90//76 159//76 96//76
f 19//77 96//77 155//77 93//77
f 20//78 84//78 135//78 51//78
f 20//79 51//79 137//79 86//79
f 20//80 86//80 152//80 81//80
f 20//81 81//81 153//81 84//81
f 21//82 87//82 138//82 52//82
f 21//83 52//83 136//83 85//83
f 21//84 85//84 154//84 82//84
f 21//85 82//85 151//85 87//85
f 22//86 86//86 137//86 50//86
f 22//87 50//87 138//87 87//87
f 22//88 87//88 151//88 80//88
f 22//89 80//89 152//89 86//89
f 23//90 106//90 155//90 96//90
f 23//91 96//91 159//91 105//91
f 23//92 105//92 165//92 102//92
f 23//93 102//93 162//93 106//93
f 24//94 94//94 152//94 80//94
f 24//95 80//95 151//95 93//95
f 24//96 93//96 155//96 88//96
f 24//97 88//97 156//97 94//97
f 25//98 92//98 154//98 83//98
f 25//99 83//99 153//99 95//99
f 25//100 95//100 157//100 91//100
f 25//101 91//101 158//101 92//101
f 26//102 95//102 153//102 81//102
f 26//103 81//103 152//103 94//103
f 26//104 94//104 156//104 89//104
f 26//105 89//105 160//105 97//105
f 26//106 97//106 157//106 95//106
f 27//107 116//107 165//107 103//107
f 27//108 103//108 166//108 115//108
f 27//109 115//109 171//109 113//109
f 27//110 113//110 170//110 116//110
f 28//111 97//111 160//111 99//111
f 28//112 99//112 161//112 98//112
f 28//113 98//113 159//113 90//113
f 28//114 90//114 158//114 91//114
f 28//115 91//115 157//115 97//115
f 29//116 108//116 161//116 99//116
f 29//117 99//117 160//117 107//117
f 29//118 107//118 164//118 104//118
f 29//119 104//119 166//119 108//119
f 30//120 109//120 156//120 88//120
f 30//121 88//121 155//121 106//121
f 30//122 106//122 162//122 100//122
f 30//123 100//123 163//123 109//123
f 31//124 107//124 160//124 89//124
f 31//125 89//125 156//125 109//125
f 31//126 109//126 163//126 101//126
f 31//127 101//127 164//127 107//127
f 32//128 105//128 159//128 98//128
f 32//129 98//129 161//129 108//129
f 32//130 108//130 166//130 103//130
f 32//131 103//131 165//131 105//131
f 33//132 126//132 171//132 114//132
f 33//133 114//133 169//133 125//133
f 33//134 125//134 174//134 124//134
f 33//135 124//135 176//135 126//135
f 34//136 118//136 164//136 101//136
f 34//137 101//137 163//137 117//137
f 34//138 117//138 168//138 111//138
f 34//139 111//139 169//139 118//139
f 35//140 115//140 166//140 104//140
f 35//141 104//141 164//141 118//141
f 35//142 118//142 169//142 114//142
f 35//143 114//143 171//143 115//143
f 36//144 119//144 162//144 102//144
f 36//145 102//145 165//145 116//145
f 36//146 116//146 170//146 112//146
f 36//147 112//147 167//147 119//147
f 37//148 117//148 163//148 100//148
f 37//149 100//149 162//149 119//149
f 37//150 119//150 167//150 110//150
f 37//151 110//151 168//151 117//151
f 38//152 121//152 173//152 120//152
f 38//153 120//153 172//153 122//153
f 38//154 122//154 175//154 130//154
f 38//155 130//155 174//155 121//155
f 39//156 128//156 167//156 112//156
f 39//157 112//157 170//157 127//157
f 39//158 127//158 175//158 122//158
f 39//159 122//159 172//159 128//159
f 40//160 129//160 168//160 110//160
f 40//161 110//161 167//161 128//161
f 40//162 128//162 172//162 120//162
f 40//163 120//163 173//163 129//163
f 41//164 127//164 170//164 113//164
f 41//165 113//165 171//165 126//165
f 41//166 126//166 176//166 123//166
f 41//167 123//167 175//167 127//167
f 42//168 125//168 169//168 111//168
f 42//169 111//169 168//169 129//169
f 42//170 129//170 173//170 121//170
f 42//171 121//171 174//171 125//171
f 43//172 124//172 174//172 130//172
f 43//173 130//173 175//173 123//173
f 43//174 123//174 176//174 124//174
