# Blender v2.79 (sub 0) OBJ File: 'Cheese_Singles.blend'
# www.blender.org
mtllib Cheese_Singles.mtl
o Cheese_Singles_Plane.002
v -0.315795 -0.006940 0.438689
v 0.521893 -0.006940 0.429682
v -0.324802 -0.006940 -0.398998
v 0.512886 -0.006940 -0.408006
v -0.282218 -0.014601 0.473541
v 0.553392 -0.014601 0.533180
v -0.222580 -0.014601 -0.362070
v 0.613031 -0.014601 -0.302431
v -0.417629 0.003735 0.567046
v 0.420107 0.003735 0.567046
v -0.417629 0.003735 -0.270690
v 0.420107 0.003735 -0.270690
v -0.409714 0.003735 0.148178
v 0.412191 0.003735 0.148178
v 0.001239 0.003735 0.559279
v 0.001239 0.003735 -0.262923
v 0.001239 0.003735 0.148178
v 0.102925 -0.006940 0.422658
v 0.094166 -0.006940 -0.391974
v -0.308770 -0.006940 0.019721
v 0.505862 -0.006940 0.010962
v 0.098546 -0.006940 0.015342
v -0.240693 -0.014601 0.056571
v 0.571506 -0.014601 0.114539
v 0.136422 -0.014601 0.491655
v 0.194390 -0.014601 -0.320544
v 0.165406 -0.014601 0.085555
v -0.315795 -0.016993 0.438689
v 0.521893 -0.016993 0.429682
v -0.324802 -0.016993 -0.398998
v 0.512886 -0.016993 -0.408006
v -0.282218 -0.024654 0.473541
v 0.553392 -0.024654 0.533180
v -0.222580 -0.024654 -0.362070
v 0.613031 -0.024654 -0.302431
v -0.417629 -0.006318 0.567046
v 0.420107 -0.006318 0.567046
v -0.417629 -0.006318 -0.270690
v 0.420107 -0.006318 -0.270690
v -0.409714 -0.006318 0.148178
v 0.412191 -0.006318 0.148178
v 0.001239 -0.006318 0.559279
v 0.001239 -0.006318 -0.262923
v 0.001239 -0.006318 0.148178
v 0.102925 -0.016993 0.422658
v 0.094166 -0.016993 -0.391974
v -0.308770 -0.016993 0.019721
v 0.505862 -0.016993 0.010962
v 0.098546 -0.016993 0.015342
v -0.240693 -0.024654 0.056571
v 0.571506 -0.024654 0.114539
v 0.136422 -0.024654 0.491655
v 0.194390 -0.024654 -0.320544
v 0.165406 -0.024654 0.085555
vn 0.0000 1.0000 0.0000
vn 0.0000 -1.0000 -0.0000
vn -0.9999 0.0000 -0.0168
vn -0.0168 0.0000 0.9999
vn 0.9999 0.0000 0.0168
vn 0.0168 0.0000 -0.9999
vn -0.9951 0.0000 -0.0991
vn -0.0991 0.0000 0.9951
vn 0.9951 0.0000 0.0991
vn 0.0991 0.0000 -0.9951
vn -0.9998 0.0000 -0.0189
vn -0.0185 0.0000 0.9998
vn 0.9998 0.0000 0.0189
vn 0.0185 0.0000 -0.9998
vn -0.9998 0.0000 0.0189
vn 0.9998 0.0000 -0.0189
vn 0.0185 0.0000 0.9998
vn -0.0185 0.0000 -0.9998
vn 0.0383 0.0000 0.9993
vn -0.0383 0.0000 -0.9993
vn -0.9993 0.0000 0.0383
vn 0.9993 0.0000 -0.0383
vn -0.9991 0.0000 -0.0432
vn 0.9991 0.0000 0.0432
vn -0.0432 0.0000 0.9991
vn 0.0432 0.0000 -0.9991
usemtl Yellow
s off
f 22//1 21//1 4//1 19//1
f 27//1 24//1 8//1 26//1
f 17//1 14//1 12//1 16//1
f 15//1 10//1 14//1 17//1
f 9//1 15//1 17//1 13//1
f 13//1 17//1 16//1 11//1
f 20//1 22//1 19//1 3//1
f 1//1 18//1 22//1 20//1
f 18//1 2//1 21//1 22//1
f 25//1 6//1 24//1 27//1
f 5//1 25//1 27//1 23//1
f 23//1 27//1 26//1 7//1
f 49//2 46//2 31//2 48//2
f 54//2 53//2 35//2 51//2
f 44//2 43//2 39//2 41//2
f 42//2 44//2 41//2 37//2
f 36//2 40//2 44//2 42//2
f 40//2 38//2 43//2 44//2
f 47//2 30//2 46//2 49//2
f 28//2 47//2 49//2 45//2
f 45//2 49//2 48//2 29//2
f 52//2 54//2 51//2 33//2
f 32//2 50//2 54//2 52//2
f 50//2 34//2 53//2 54//2
f 1//3 20//3 47//3 28//3
f 2//4 18//4 45//4 29//4
f 4//5 21//5 48//5 31//5
f 3//6 19//6 46//6 30//6
f 5//7 23//7 50//7 32//7
f 6//8 25//8 52//8 33//8
f 8//9 24//9 51//9 35//9
f 7//10 26//10 53//10 34//10
f 9//11 13//11 40//11 36//11
f 10//12 15//12 42//12 37//12
f 12//13 14//13 41//13 39//13
f 11//14 16//14 43//14 38//14
f 13//15 11//15 38//15 40//15
f 14//16 10//16 37//16 41//16
f 15//17 9//17 36//17 42//17
f 16//18 12//18 39//18 43//18
f 18//19 1//19 28//19 45//19
f 19//20 4//20 31//20 46//20
f 20//21 3//21 30//21 47//21
f 21//22 2//22 29//22 48//22
f 23//23 7//23 34//23 50//23
f 24//24 6//24 33//24 51//24
f 25//25 5//25 32//25 52//25
f 26//26 8//26 35//26 53//26
