# Blender v2.79 (sub 0) OBJ File: 'CookingPot2_Soup.blend'
# www.blender.org
mtllib CookingPot2_Soup.mtl
o CookingPot2_Soup_Cylinder.016
v 0.452662 0.385761 -0.623036
v 0.000000 0.385761 -0.770114
v 0.732422 0.385761 -0.237978
v 0.732422 0.385761 0.237978
v 0.452662 0.385761 0.623036
v -0.000000 0.385761 0.770114
v -0.452662 0.385761 0.623036
v -0.732422 0.385761 0.237979
v -0.732422 0.385761 -0.237979
v -0.452662 0.385761 -0.623036
v 1.024313 0.629990 0.160489
v 1.024313 0.516821 0.160489
v 1.024313 0.629990 -0.160488
v 1.024313 0.516821 -0.160488
v 1.137482 0.629990 0.160489
v 1.137482 0.516821 0.160489
v 1.137482 0.629990 -0.160488
v 1.137482 0.516821 -0.160488
v 1.013909 0.629990 0.266571
v 1.013909 0.516821 0.266571
v 1.013910 0.516821 -0.266570
v 1.013910 0.629990 -0.266570
v 1.110608 0.623484 -0.235921
v 1.110608 0.523327 -0.235921
v 1.110607 0.523327 0.235922
v 1.110607 0.623484 0.235922
v 0.842260 0.629990 0.160489
v 0.842260 0.516821 0.160489
v 0.842261 0.516821 -0.160488
v 0.842261 0.629990 -0.160488
v 0.831858 0.629990 0.266571
v 0.831858 0.516821 0.266571
v 0.831858 0.516821 -0.266570
v 0.831858 0.629990 -0.266570
v 1.032115 0.629990 0.000000
v 1.032115 0.516821 0.000000
v 1.145284 0.629990 0.000000
v 1.145284 0.516821 0.000000
v -0.000000 0.041482 -0.622995
v 0.000000 0.205533 -0.816478
v -0.000000 0.089532 -0.759808
v 0.479914 0.205533 -0.660545
v 0.366187 0.041482 -0.504013
v 0.446604 0.089532 -0.614698
v 0.776517 0.205533 -0.252306
v 0.592503 0.041482 -0.192516
v 0.722620 0.089532 -0.234794
v 0.776517 0.205533 0.252306
v 0.592503 0.041482 0.192516
v 0.722620 0.089532 0.234794
v 0.479914 0.205533 0.660545
v 0.366187 0.041482 0.504013
v 0.446604 0.089532 0.614698
v -0.000000 0.205533 0.816478
v -0.000000 0.041482 0.622995
v -0.000000 0.089532 0.759808
v -0.479914 0.205533 0.660545
v -0.366187 0.041482 0.504013
v -0.446604 0.089532 0.614698
v -0.776517 0.205533 0.252306
v -0.592503 0.041482 0.192516
v -0.722620 0.089532 0.234794
v -0.776517 0.205533 -0.252306
v -0.592503 0.041482 -0.192516
v -0.722620 0.089532 -0.234794
v -0.479914 0.205533 -0.660545
v -0.366187 0.041482 -0.504013
v -0.446604 0.089532 -0.614698
v 0.000000 0.607100 -0.996081
v 0.000000 0.663902 -0.970168
v 0.570251 0.663902 -0.784883
v 0.585481 0.607100 -0.805846
v 0.922685 0.663902 -0.299798
v 0.947329 0.607100 -0.307806
v 0.922685 0.663902 0.299799
v 0.947329 0.607100 0.307806
v 0.570251 0.663902 0.784883
v 0.585481 0.607100 0.805846
v -0.000000 0.663902 0.970168
v -0.000000 0.607100 0.996081
v -0.570251 0.663902 0.784883
v -0.585482 0.607100 0.805846
v -0.922685 0.663902 0.299799
v -0.947329 0.607100 0.307806
v -0.922685 0.663902 -0.299799
v -0.947329 0.607100 -0.307806
v -0.570250 0.663902 -0.784883
v -0.585481 0.607100 -0.805846
v 0.495208 0.607100 -0.681595
v 0.510237 0.663902 -0.702280
v 0.000000 0.663902 -0.868066
v 0.000000 0.607100 -0.842498
v 0.801263 0.607100 -0.260346
v 0.825580 0.663902 -0.268247
v 0.801263 0.607100 0.260346
v 0.825580 0.663902 0.268247
v 0.495208 0.607100 0.681595
v 0.510236 0.663902 0.702280
v -0.000000 0.607100 0.842498
v -0.000000 0.663902 0.868066
v -0.495208 0.607100 0.681595
v -0.510237 0.663902 0.702280
v -0.801263 0.607100 0.260346
v -0.825580 0.663902 0.268247
v -0.801263 0.607100 -0.260346
v -0.825580 0.663902 -0.268247
v -0.495208 0.607100 -0.681595
v -0.510236 0.663902 -0.702280
v -1.024313 0.629990 -0.160489
v -1.024313 0.516821 -0.160489
v -1.024313 0.629990 0.160487
v -1.024313 0.516821 0.160487
v -1.137482 0.629990 -0.160489
v -1.137482 0.516821 -0.160489
v -1.137482 0.629990 0.160487
v -1.137482 0.516821 0.160487
v -1.013909 0.629990 -0.266571
v -1.013909 0.516821 -0.266571
v -1.013910 0.516821 0.266570
v -1.013910 0.629990 0.266570
v -1.110608 0.623484 0.235921
v -1.110608 0.523327 0.235921
v -1.110607 0.523327 -0.235922
v -1.110607 0.623484 -0.235922
v -0.842260 0.629990 -0.160489
v -0.842260 0.516821 -0.160489
v -0.842261 0.516821 0.160488
v -0.842261 0.629990 0.160488
v -0.831858 0.629990 -0.266571
v -0.831858 0.516821 -0.266571
v -0.831858 0.516821 0.266570
v -0.831858 0.629990 0.266570
v -1.032115 0.629990 -0.000001
v -1.032115 0.516821 -0.000001
v -1.145284 0.629990 -0.000001
v -1.145284 0.516821 -0.000001
vn 0.0000 1.0000 0.0000
vn 0.2835 0.3980 0.8725
vn -0.2951 0.2970 0.9081
vn 0.7445 -0.3914 -0.5409
vn -0.7725 0.2970 -0.5613
vn -0.7445 -0.3914 -0.5409
vn -0.9202 -0.3914 0.0000
vn -0.7445 -0.3914 0.5409
vn -0.2844 -0.3914 0.8752
vn 0.7445 -0.3914 0.5409
vn -0.2844 -0.3914 -0.8752
vn 0.9202 -0.3914 0.0000
vn -0.9549 0.2970 0.0000
vn 0.9549 0.2970 0.0000
vn -0.2841 0.3935 -0.8743
vn -0.7725 0.2970 0.5613
vn 0.7725 0.2970 0.5613
vn 0.2951 0.2970 -0.9081
vn 0.2951 0.2970 0.9081
vn 0.7725 0.2970 -0.5613
vn -0.9988 0.0000 0.0486
vn 0.0373 0.9984 -0.0434
vn 0.9988 0.0000 0.0486
vn 0.9420 0.0000 -0.3356
vn 0.0000 -1.0000 -0.0000
vn 0.3021 0.0000 -0.9533
vn 0.3021 0.0000 0.9533
vn 0.0373 -0.9984 0.0434
vn 0.9420 0.0000 0.3356
vn 0.0373 -0.9984 -0.0434
vn 0.0373 0.9984 0.0434
vn -0.9952 0.0000 0.0976
vn -0.9952 0.0000 -0.0976
vn 0.0000 0.0000 -1.0000
vn -0.0000 0.0000 1.0000
vn 0.9988 0.0000 -0.0486
vn -0.9988 0.0000 -0.0486
vn 0.2844 -0.3914 -0.8752
vn 0.2802 -0.4214 -0.8625
vn 0.1070 -0.9381 -0.3295
vn 0.7337 -0.4214 -0.5331
vn 0.2803 -0.9381 -0.2036
vn 0.9069 -0.4214 0.0000
vn 0.3464 -0.9381 0.0000
vn 0.7337 -0.4214 0.5331
vn 0.2803 -0.9381 0.2036
vn 0.2844 -0.3914 0.8752
vn 0.2802 -0.4214 0.8625
vn -0.2802 -0.4214 0.8625
vn -0.1070 -0.9381 0.3295
vn -0.7337 -0.4214 0.5331
vn -0.2803 -0.9381 0.2036
vn -0.9069 -0.4214 0.0000
vn -0.3464 -0.9381 0.0000
vn -0.7337 -0.4214 -0.5331
vn -0.2803 -0.9381 -0.2036
vn -0.2802 -0.4214 -0.8625
vn -0.1070 -0.9381 -0.3295
vn 0.2835 0.3980 -0.8725
vn 0.7422 0.3980 -0.5392
vn 0.9174 0.3980 0.0000
vn 0.7422 0.3980 0.5392
vn -0.2835 0.3980 0.8725
vn -0.7422 0.3980 0.5392
vn -0.9174 0.3980 0.0000
vn -0.7422 0.3980 -0.5392
vn -0.2835 0.3980 -0.8725
vn -0.2841 0.3935 0.8743
vn -0.7437 0.3935 0.5404
vn -0.9193 0.3935 0.0000
vn -0.7437 0.3935 -0.5404
vn 0.2841 0.3935 -0.8743
vn 0.7437 0.3935 -0.5404
vn 0.9193 0.3935 0.0000
vn 0.7437 0.3935 0.5404
vn 0.2841 0.3935 0.8743
vn 0.1070 -0.9381 0.3295
vn -0.2951 0.2970 -0.9081
vn -0.0373 0.9984 0.0434
vn -0.9420 0.0000 0.3356
vn -0.3021 0.0000 0.9533
vn -0.3021 0.0000 -0.9533
vn -0.0373 -0.9984 -0.0434
vn -0.9420 0.0000 -0.3356
vn -0.0373 -0.9984 0.0434
vn -0.0373 0.9984 -0.0434
vn 0.9952 0.0000 -0.0976
vn 0.9952 0.0000 0.0976
usemtl Grey
s off
f 70//1 87//1 108//1 91//1
f 79//2 80//2 78//2 77//2
f 81//1 79//1 100//1 102//1
f 83//1 81//1 102//1 104//1
f 85//1 83//1 104//1 106//1
f 87//1 85//1 106//1 108//1
f 89//3 92//3 2//3 1//3
f 77//1 75//1 96//1 98//1
f 75//1 73//1 94//1 96//1
f 42//4 72//4 74//4 45//4
f 97//5 95//5 4//5 5//5
f 73//1 71//1 90//1 94//1
f 63//6 86//6 88//6 66//6
f 60//7 84//7 86//7 63//7
f 57//8 82//8 84//8 60//8
f 54//9 80//9 82//9 57//9
f 48//10 76//10 78//10 51//10
f 66//11 88//11 69//11 40//11
f 45//12 74//12 76//12 48//12
f 95//13 93//13 3//13 4//13
f 105//14 103//14 8//14 9//14
f 100//15 98//15 97//15 99//15
f 93//16 89//16 1//16 3//16
f 107//17 105//17 9//17 10//17
f 101//18 99//18 6//18 7//18
f 92//19 107//19 10//19 2//19
f 103//20 101//20 7//20 8//20
f 35//21 13//21 14//21 36//21
f 13//22 17//22 23//22 22//22
f 37//23 15//23 16//23 38//23
f 17//24 18//24 24//24 23//24
f 35//1 11//1 15//1 37//1
f 38//25 16//25 12//25 36//25
f 22//26 23//26 24//26 21//26
f 26//27 19//27 20//27 25//27
f 12//28 16//28 25//28 20//28
f 16//29 15//29 26//29 25//29
f 18//30 14//30 21//30 24//30
f 12//25 20//25 32//25 28//25
f 21//25 14//25 29//25 33//25
f 15//31 11//31 19//31 26//31
f 29//32 30//32 34//32 33//32
f 27//33 28//33 32//33 31//33
f 22//34 21//34 33//34 34//34
f 13//1 22//1 34//1 30//1
f 19//1 11//1 27//1 31//1
f 14//35 13//35 30//35 29//35
f 11//34 12//34 28//34 27//34
f 20//35 19//35 31//35 32//35
f 18//25 38//25 36//25 14//25
f 13//1 35//1 37//1 17//1
f 17//36 37//36 38//36 18//36
f 11//37 35//37 36//37 12//37
f 40//38 69//38 72//38 42//38
f 40//39 42//39 44//39 41//39
f 41//40 44//40 43//40 39//40
f 42//41 45//41 47//41 44//41
f 44//42 47//42 46//42 43//42
f 45//43 48//43 50//43 47//43
f 47//44 50//44 49//44 46//44
f 48//45 51//45 53//45 50//45
f 50//46 53//46 52//46 49//46
f 51//47 78//47 80//47 54//47
f 51//48 54//48 56//48 53//48
f 54//49 57//49 59//49 56//49
f 56//50 59//50 58//50 55//50
f 57//51 60//51 62//51 59//51
f 59//52 62//52 61//52 58//52
f 60//53 63//53 65//53 62//53
f 62//54 65//54 64//54 61//54
f 63//55 66//55 68//55 65//55
f 65//56 68//56 67//56 64//56
f 66//57 40//57 41//57 68//57
f 68//58 41//58 39//58 67//58
f 39//25 43//25 46//25 49//25 52//25 55//25 58//25 61//25 64//25 67//25
f 72//59 69//59 70//59 71//59
f 74//60 72//60 71//60 73//60
f 76//61 74//61 73//61 75//61
f 78//62 76//62 75//62 77//62
f 82//63 80//63 79//63 81//63
f 84//64 82//64 81//64 83//64
f 86//65 84//65 83//65 85//65
f 88//66 86//66 85//66 87//66
f 69//67 88//67 87//67 70//67
f 90//68 91//68 92//68 89//68
f 94//69 90//69 89//69 93//69
f 96//70 94//70 93//70 95//70
f 98//71 96//71 95//71 97//71
f 79//1 77//1 98//1 100//1
f 102//72 100//72 99//72 101//72
f 104//73 102//73 101//73 103//73
f 106//74 104//74 103//74 105//74
f 108//75 106//75 105//75 107//75
f 91//76 108//76 107//76 92//76
f 71//1 70//1 91//1 90//1
f 53//77 56//77 55//77 52//77
f 5//78 6//78 99//78 97//78
f 133//36 111//36 112//36 134//36
f 111//79 115//79 121//79 120//79
f 135//37 113//37 114//37 136//37
f 115//80 116//80 122//80 121//80
f 133//1 109//1 113//1 135//1
f 136//25 114//25 110//25 134//25
f 120//81 121//81 122//81 119//81
f 124//82 117//82 118//82 123//82
f 110//83 114//83 123//83 118//83
f 114//84 113//84 124//84 123//84
f 116//85 112//85 119//85 122//85
f 110//25 118//25 130//25 126//25
f 119//25 112//25 127//25 131//25
f 113//86 109//86 117//86 124//86
f 127//87 128//87 132//87 131//87
f 125//88 126//88 130//88 129//88
f 120//35 119//35 131//35 132//35
f 111//1 120//1 132//1 128//1
f 117//1 109//1 125//1 129//1
f 112//34 111//34 128//34 127//34
f 109//35 110//35 126//35 125//35
f 118//34 117//34 129//34 130//34
f 116//25 136//25 134//25 112//25
f 111//1 133//1 135//1 115//1
f 115//21 135//21 136//21 116//21
f 109//23 133//23 134//23 110//23
usemtl Brown
f 1//1 2//1 10//1 9//1 8//1 7//1 6//1 5//1 4//1 3//1
