# Blender v2.79 (sub 0) OBJ File: 'Donut3.blend'
# www.blender.org
mtllib Donut3.mtl
o Donut3_Torus.002
v 0.000708 -0.033190 0.430584
v -0.000000 -0.078799 0.177409
v -0.000000 -0.128725 0.223570
v -0.000000 -0.130666 0.353639
v -0.000000 -0.083204 0.416337
v 0.127667 -0.033190 0.411448
v 0.052292 -0.078799 0.169528
v 0.065898 -0.128725 0.213637
v 0.104237 -0.130666 0.337928
v 0.122718 -0.083204 0.397841
v 0.243346 -0.033190 0.355740
v 0.099938 -0.078799 0.146583
v 0.125941 -0.128725 0.184722
v 0.199212 -0.130666 0.292191
v 0.234531 -0.083204 0.343994
v 0.337466 -0.033190 0.268410
v 0.138704 -0.078799 0.110613
v 0.174794 -0.128725 0.139393
v 0.276486 -0.130666 0.220490
v 0.325506 -0.083204 0.259582
v 0.401662 -0.033190 0.157218
v 0.165146 -0.078799 0.064815
v 0.208115 -0.128725 0.081679
v 0.329194 -0.130666 0.129199
v 0.387557 -0.083204 0.152105
v 0.430233 -0.033190 0.032043
v 0.176913 -0.078799 0.013258
v 0.222945 -0.128725 0.016707
v 0.352650 -0.130666 0.026427
v 0.415173 -0.083204 0.031113
v 0.420638 -0.033190 -0.095992
v 0.172961 -0.078799 -0.039477
v 0.217964 -0.128725 -0.049749
v 0.344773 -0.130666 -0.078692
v 0.405899 -0.083204 -0.092644
v 0.373730 -0.033190 -0.215510
v 0.153641 -0.078799 -0.088705
v 0.193617 -0.128725 -0.111785
v 0.306261 -0.130666 -0.176820
v 0.360559 -0.083204 -0.208169
v 0.293678 -0.033190 -0.315892
v 0.120669 -0.078799 -0.130050
v 0.152066 -0.128725 -0.163888
v 0.240536 -0.130666 -0.259236
v 0.283181 -0.083204 -0.305197
v 0.187594 -0.033190 -0.388219
v 0.076975 -0.078799 -0.159840
v 0.097003 -0.128725 -0.201429
v 0.153438 -0.130666 -0.318618
v 0.180642 -0.083204 -0.375107
v 0.064905 -0.033190 -0.426064
v 0.026441 -0.078799 -0.175428
v 0.033321 -0.128725 -0.221073
v 0.052707 -0.130666 -0.349689
v 0.062052 -0.083204 -0.411687
v -0.063489 -0.033190 -0.426064
v -0.026441 -0.078799 -0.175428
v -0.033321 -0.128725 -0.221073
v -0.052707 -0.130666 -0.349689
v -0.062052 -0.083204 -0.411687
v -0.186179 -0.033190 -0.388219
v -0.076975 -0.078799 -0.159840
v -0.097003 -0.128725 -0.201429
v -0.153438 -0.130666 -0.318618
v -0.180642 -0.083204 -0.375107
v -0.292263 -0.033190 -0.315892
v -0.120669 -0.078799 -0.130050
v -0.152066 -0.128725 -0.163888
v -0.240536 -0.130666 -0.259236
v -0.283181 -0.083204 -0.305197
v -0.372315 -0.033190 -0.215510
v -0.153641 -0.078799 -0.088705
v -0.193617 -0.128725 -0.111785
v -0.306261 -0.130666 -0.176820
v -0.360559 -0.083204 -0.208169
v -0.419222 -0.033190 -0.095992
v -0.172961 -0.078799 -0.039477
v -0.217964 -0.128725 -0.049749
v -0.344773 -0.130666 -0.078692
v -0.405899 -0.083204 -0.092644
v -0.428817 -0.033190 0.032043
v -0.176913 -0.078799 0.013258
v -0.222945 -0.128725 0.016707
v -0.352650 -0.130666 0.026427
v -0.415173 -0.083204 0.031113
v -0.400247 -0.033190 0.157218
v -0.165146 -0.078799 0.064815
v -0.208115 -0.128725 0.081679
v -0.329194 -0.130666 0.129199
v -0.387558 -0.083204 0.152105
v -0.336050 -0.033190 0.268410
v -0.138704 -0.078799 0.110613
v -0.174794 -0.128725 0.139393
v -0.276487 -0.130666 0.220490
v -0.325506 -0.083204 0.259582
v -0.241931 -0.033190 0.355740
v -0.099938 -0.078799 0.146583
v -0.125941 -0.128725 0.184722
v -0.199212 -0.130666 0.292191
v -0.234531 -0.083204 0.343994
v -0.126252 -0.033190 0.411448
v -0.052292 -0.078799 0.169528
v -0.065898 -0.128725 0.213637
v -0.104237 -0.130666 0.337928
v -0.122718 -0.083204 0.397841
v 0.000708 0.033190 0.430584
v -0.000000 0.078799 0.177409
v -0.000000 0.149428 0.255777
v -0.000000 0.130666 0.353639
v -0.000000 0.083204 0.416337
v 0.127667 0.033190 0.411448
v 0.052292 0.078799 0.169528
v 0.075392 0.149428 0.244413
v 0.104237 0.130666 0.337928
v 0.122718 0.083204 0.397841
v 0.243346 0.033190 0.355740
v 0.099938 0.078799 0.146583
v 0.144084 0.149428 0.211333
v 0.199212 0.130666 0.292191
v 0.234531 0.083204 0.343994
v 0.337466 0.033190 0.268410
v 0.138704 0.078799 0.110613
v 0.199974 0.149428 0.159474
v 0.276486 0.130666 0.220490
v 0.325506 0.083204 0.259582
v 0.401662 0.033190 0.157218
v 0.165146 0.078799 0.064815
v 0.238096 0.149428 0.093446
v 0.329194 0.130666 0.129199
v 0.387557 0.083204 0.152105
v 0.430233 0.033190 0.032043
v 0.176913 0.078799 0.013258
v 0.255062 0.149428 0.019114
v 0.352650 0.130666 0.026427
v 0.415173 0.083204 0.031113
v 0.420638 0.033190 -0.095992
v 0.172961 0.078799 -0.039477
v 0.249364 0.149428 -0.056916
v 0.344773 0.130666 -0.078692
v 0.405899 0.083204 -0.092644
v 0.373730 0.033190 -0.215510
v 0.153641 0.078799 -0.088705
v 0.221509 0.149428 -0.127888
v 0.306261 0.130666 -0.176820
v 0.360559 0.083204 -0.208169
v 0.293678 0.033190 -0.315892
v 0.120669 0.078799 -0.130050
v 0.173972 0.149428 -0.187498
v 0.240536 0.130666 -0.259236
v 0.283181 0.083204 -0.305197
v 0.187594 0.033190 -0.388219
v 0.076975 0.078799 -0.159840
v 0.110977 0.149428 -0.230447
v 0.153438 0.130666 -0.318618
v 0.180642 0.083204 -0.375107
v 0.064905 0.033190 -0.426064
v 0.026441 0.078799 -0.175428
v 0.038122 0.149428 -0.252920
v 0.052707 0.130666 -0.349689
v 0.062052 0.083204 -0.411687
v -0.063489 0.033190 -0.426064
v -0.026441 0.078799 -0.175428
v -0.038122 0.149428 -0.252920
v -0.052707 0.130666 -0.349689
v -0.062052 0.083204 -0.411687
v -0.186179 0.033190 -0.388219
v -0.076975 0.078799 -0.159840
v -0.110977 0.149428 -0.230447
v -0.153438 0.130666 -0.318618
v -0.180642 0.083204 -0.375107
v -0.292263 0.033190 -0.315892
v -0.120669 0.078799 -0.130050
v -0.173972 0.149428 -0.187498
v -0.240536 0.130666 -0.259236
v -0.283181 0.083204 -0.305197
v -0.372315 0.033190 -0.215510
v -0.153641 0.078799 -0.088705
v -0.221509 0.149428 -0.127888
v -0.306261 0.130666 -0.176820
v -0.360559 0.083204 -0.208169
v -0.419222 0.033190 -0.095992
v -0.172961 0.078799 -0.039477
v -0.249364 0.149428 -0.056916
v -0.344773 0.130666 -0.078692
v -0.405899 0.083204 -0.092644
v -0.428817 0.033190 0.032043
v -0.176913 0.078799 0.013258
v -0.255062 0.149428 0.019114
v -0.352650 0.130666 0.026427
v -0.415173 0.083204 0.031113
v -0.400247 0.033190 0.157218
v -0.165146 0.078799 0.064815
v -0.238096 0.149428 0.093446
v -0.329194 0.130666 0.129199
v -0.387558 0.083204 0.152105
v -0.336050 0.033190 0.268410
v -0.138704 0.078799 0.110613
v -0.199975 0.149428 0.159474
v -0.276487 0.130666 0.220490
v -0.325506 0.083204 0.259582
v -0.241931 0.033190 0.355740
v -0.099938 0.078799 0.146583
v -0.144084 0.149428 0.211333
v -0.199212 0.130666 0.292191
v -0.234531 0.083204 0.343994
v -0.126252 0.033190 0.411448
v -0.052292 0.078799 0.169528
v -0.075392 0.149428 0.244413
v -0.104237 0.130666 0.337928
v -0.122718 0.083204 0.397841
v 0.000708 0.000000 0.430584
v -0.000000 -0.000000 0.159750
v 0.127667 0.000000 0.411448
v 0.047087 -0.000000 0.152653
v 0.243346 0.000000 0.355740
v 0.089991 -0.000000 0.131992
v 0.337466 0.000000 0.268410
v 0.124898 -0.000000 0.099603
v 0.401662 0.000000 0.157218
v 0.148707 -0.000000 0.058363
v 0.430233 0.000000 0.032043
v 0.159304 -0.000000 0.011938
v 0.420638 0.000000 -0.095992
v 0.155745 -0.000000 -0.035548
v 0.373730 0.000000 -0.215510
v 0.138348 -0.000000 -0.079875
v 0.293678 0.000000 -0.315892
v 0.108658 -0.000000 -0.117105
v 0.187594 0.000000 -0.388219
v 0.069313 -0.000000 -0.143930
v 0.064905 0.000000 -0.426064
v 0.023810 -0.000000 -0.157966
v -0.063489 0.000000 -0.426064
v -0.023810 -0.000000 -0.157966
v -0.186179 0.000000 -0.388219
v -0.069313 -0.000000 -0.143930
v -0.292263 0.000000 -0.315892
v -0.108658 -0.000000 -0.117105
v -0.372315 0.000000 -0.215510
v -0.138348 -0.000000 -0.079875
v -0.419222 0.000000 -0.095992
v -0.155745 -0.000000 -0.035548
v -0.428817 0.000000 0.032043
v -0.159304 -0.000000 0.011938
v -0.400247 0.000000 0.157218
v -0.148707 -0.000000 0.058363
v -0.336050 0.000000 0.268410
v -0.124898 -0.000000 0.099603
v -0.241931 0.000000 0.355740
v -0.089991 -0.000000 0.131992
v -0.126252 0.000000 0.411448
v -0.047087 -0.000000 0.152653
vn -0.1100 -0.6748 -0.7298
vn -0.0022 -0.9999 -0.0149
vn 0.0906 -0.7940 0.6011
vn 0.1434 -0.2730 0.9513
vn -0.3202 -0.6748 -0.6650
vn -0.0065 -0.9999 -0.0136
vn 0.2637 -0.7940 0.5477
vn 0.4169 -0.2768 0.8658
vn -0.5020 -0.6748 -0.5410
vn -0.0103 -0.9999 -0.0111
vn 0.4135 -0.7940 0.4456
vn 0.6529 -0.2803 0.7037
vn -0.6392 -0.6748 -0.3690
vn -0.0131 -0.9999 -0.0075
vn 0.5264 -0.7940 0.3039
vn 0.8306 -0.2833 0.4795
vn -0.7195 -0.6748 -0.1642
vn -0.0147 -0.9999 -0.0034
vn 0.5926 -0.7940 0.1353
vn 0.9344 -0.2853 0.2133
vn -0.7360 -0.6748 0.0552
vn -0.0151 -0.9999 0.0011
vn 0.6062 -0.7940 -0.0454
vn 0.9554 -0.2864 -0.0716
vn -0.6870 -0.6748 0.2696
vn -0.0141 -0.9999 0.0055
vn 0.5658 -0.7940 -0.2221
vn 0.8919 -0.2863 -0.3501
vn -0.5770 -0.6748 0.4602
vn -0.0118 -0.9999 0.0094
vn 0.4753 -0.7940 -0.3790
vn 0.7494 -0.2851 -0.5976
vn -0.4158 -0.6748 0.6098
vn -0.0085 -0.9999 0.0125
vn 0.3424 -0.7940 -0.5022
vn 0.5403 -0.2829 -0.7925
vn -0.2175 -0.6748 0.7052
vn -0.0044 -0.9999 0.0144
vn 0.1792 -0.7940 -0.5809
vn 0.2830 -0.2798 -0.9174
vn 0.0000 -0.6748 0.7380
vn 0.0000 -0.9999 0.0151
vn 0.0000 -0.7940 -0.6079
vn 0.0000 -0.2763 -0.9611
vn 0.2175 -0.6748 0.7052
vn 0.0044 -0.9999 0.0144
vn -0.1792 -0.7940 -0.5809
vn -0.2836 -0.2724 -0.9194
vn 0.4158 -0.6748 0.6098
vn 0.0085 -0.9999 0.0125
vn -0.3424 -0.7940 -0.5022
vn -0.5426 -0.2687 -0.7959
vn 0.5770 -0.6748 0.4602
vn 0.0118 -0.9999 0.0094
vn -0.4753 -0.7940 -0.3790
vn -0.7538 -0.2654 -0.6011
vn 0.6870 -0.6748 0.2696
vn 0.0141 -0.9999 0.0055
vn -0.5658 -0.7940 -0.2221
vn -0.8981 -0.2629 -0.3525
vn 0.7360 -0.6748 0.0552
vn 0.0151 -0.9999 0.0011
vn -0.6062 -0.7940 -0.0454
vn -0.9626 -0.2612 -0.0721
vn 0.7195 -0.6748 -0.1642
vn 0.0147 -0.9999 -0.0034
vn -0.5926 -0.7940 0.1353
vn -0.9412 -0.2608 0.2148
vn 0.6392 -0.6748 -0.3690
vn 0.0131 -0.9999 -0.0075
vn -0.5264 -0.7940 0.3039
vn -0.8359 -0.2614 0.4826
vn 0.5020 -0.6748 -0.5410
vn 0.0103 -0.9999 -0.0111
vn -0.4135 -0.7940 0.4456
vn -0.6562 -0.2632 0.7072
vn 0.3202 -0.6748 -0.6650
vn 0.0065 -0.9999 -0.0136
vn -0.2637 -0.7940 0.5477
vn -0.4183 -0.2659 0.8685
vn 0.1100 -0.6748 -0.7298
vn 0.0022 -0.9999 -0.0149
vn -0.0906 -0.7940 0.6011
vn -0.1435 -0.2692 0.9523
vn -0.9736 -0.2164 0.0730
vn -0.9309 0.0000 -0.3653
vn 0.7818 0.0000 -0.6235
vn -0.6802 0.0000 0.7331
vn 0.9088 -0.2164 0.3567
vn 0.8660 0.0000 0.5000
vn 0.6641 -0.2164 -0.7157
vn 0.9736 -0.2164 0.0730
vn -0.8455 -0.2164 -0.4882
vn 0.9309 0.0000 -0.3653
vn 0.2948 0.0000 -0.9556
vn -0.1490 0.0000 0.9888
vn -0.9518 -0.2164 -0.2173
vn -0.1455 -0.2164 -0.9654
vn 0.9972 0.0000 -0.0747
vn 0.6802 0.0000 0.7331
vn 0.4339 0.0000 0.9010
vn -0.9088 -0.2164 0.3567
vn 0.9518 -0.2164 -0.2173
vn 0.5633 0.0000 -0.8262
vn 0.2878 -0.2164 0.9329
vn -0.8660 0.0000 0.5000
vn 0.8455 -0.2164 -0.4882
vn 0.0000 -0.2164 0.9763
vn -0.5500 -0.2164 0.8067
vn -0.7818 0.0000 -0.6235
vn 0.9749 0.0000 0.2225
vn 0.0000 0.0000 -1.0000
vn -0.4236 -0.2164 -0.8796
vn 0.4236 -0.2164 -0.8796
vn -0.7633 -0.2164 0.6087
vn -0.5633 0.0000 -0.8262
vn 0.1455 -0.2164 -0.9654
vn -0.2948 0.0000 -0.9556
vn 0.1490 0.0000 0.9888
vn -0.2878 -0.2164 0.9329
vn -0.4339 0.0000 0.9010
vn -0.9972 0.0000 -0.0747
vn -0.6641 -0.2164 -0.7157
vn 0.5500 -0.2164 0.8067
vn -0.9749 0.0000 0.2225
vn 0.7633 -0.2164 0.6087
vn -0.1004 0.7391 -0.6661
vn 0.0284 0.9817 0.1882
vn 0.0906 0.7940 0.6011
vn 0.1434 0.2730 0.9513
vn -0.2923 0.7391 -0.6069
vn 0.0826 0.9817 0.1715
vn 0.2637 0.7940 0.5477
vn 0.4169 0.2768 0.8658
vn -0.4582 0.7391 -0.4938
vn 0.1295 0.9817 0.1395
vn 0.4135 0.7940 0.4456
vn 0.6529 0.2803 0.7037
vn -0.5834 0.7391 -0.3368
vn 0.1648 0.9817 0.0952
vn 0.5264 0.7940 0.3039
vn 0.8306 0.2833 0.4795
vn -0.6567 0.7391 -0.1499
vn 0.1856 0.9817 0.0424
vn 0.5926 0.7940 0.1353
vn 0.9344 0.2853 0.2133
vn -0.6717 0.7391 0.0503
vn 0.1898 0.9817 -0.0142
vn 0.6062 0.7940 -0.0454
vn 0.9554 0.2864 -0.0716
vn -0.6271 0.7391 0.2461
vn 0.1772 0.9817 -0.0695
vn 0.5658 0.7940 -0.2221
vn 0.8919 0.2863 -0.3501
vn -0.5267 0.7391 0.4200
vn 0.1488 0.9817 -0.1187
vn 0.4753 0.7940 -0.3790
vn 0.7494 0.2851 -0.5976
vn -0.3795 0.7391 0.5566
vn 0.1072 0.9817 -0.1573
vn 0.3424 0.7940 -0.5022
vn 0.5403 0.2829 -0.7925
vn -0.1986 0.7391 0.6437
vn 0.0561 0.9817 -0.1819
vn 0.1792 0.7940 -0.5809
vn 0.2830 0.2798 -0.9174
vn 0.0000 0.7391 0.6736
vn 0.0000 0.9817 -0.1903
vn 0.0000 0.7940 -0.6079
vn 0.0000 0.2763 -0.9611
vn 0.1986 0.7391 0.6437
vn -0.0561 0.9817 -0.1819
vn -0.1792 0.7940 -0.5809
vn -0.2836 0.2724 -0.9194
vn 0.3795 0.7391 0.5566
vn -0.1072 0.9817 -0.1573
vn -0.3424 0.7940 -0.5022
vn -0.5426 0.2687 -0.7959
vn 0.5267 0.7391 0.4200
vn -0.1488 0.9817 -0.1187
vn -0.4753 0.7940 -0.3790
vn -0.7538 0.2654 -0.6011
vn 0.6271 0.7391 0.2461
vn -0.1772 0.9817 -0.0695
vn -0.5658 0.7940 -0.2221
vn -0.8981 0.2629 -0.3525
vn 0.6717 0.7391 0.0503
vn -0.1898 0.9817 -0.0142
vn -0.6062 0.7940 -0.0454
vn -0.9626 0.2612 -0.0721
vn 0.6567 0.7391 -0.1499
vn -0.1856 0.9817 0.0424
vn -0.5926 0.7940 0.1353
vn -0.9412 0.2608 0.2148
vn 0.5834 0.7391 -0.3368
vn -0.1648 0.9817 0.0952
vn -0.5264 0.7940 0.3039
vn -0.8359 0.2614 0.4826
vn 0.4582 0.7391 -0.4938
vn -0.1295 0.9817 0.1395
vn -0.4135 0.7940 0.4456
vn -0.6562 0.2632 0.7072
vn 0.2923 0.7391 -0.6069
vn -0.0826 0.9817 0.1715
vn -0.2637 0.7940 0.5477
vn -0.4183 0.2659 0.8685
vn 0.1004 0.7391 -0.6661
vn -0.0284 0.9817 0.1882
vn -0.0906 0.7940 0.6011
vn -0.1435 0.2692 0.9523
vn -0.9736 0.2164 0.0730
vn 0.9088 0.2164 0.3567
vn 0.6641 0.2164 -0.7157
vn 0.9736 0.2164 0.0730
vn -0.8455 0.2164 -0.4882
vn -0.9518 0.2164 -0.2173
vn -0.1455 0.2164 -0.9654
vn -0.9088 0.2164 0.3567
vn 0.9518 0.2164 -0.2173
vn 0.2878 0.2164 0.9329
vn 0.8455 0.2164 -0.4882
vn 0.0000 0.2164 0.9763
vn -0.5500 0.2164 0.8067
vn -0.4236 0.2164 -0.8796
vn 0.4236 0.2164 -0.8796
vn -0.7633 0.2164 0.6087
vn 0.1455 0.2164 -0.9654
vn -0.2878 0.2164 0.9329
vn -0.6641 0.2164 -0.7157
vn 0.5500 0.2164 0.8067
vn 0.7633 0.2164 0.6087
usemtl LightYellow
s off
f 2//1 7//1 8//1 3//1
f 3//2 8//2 9//2 4//2
f 4//3 9//3 10//3 5//3
f 5//4 10//4 6//4 1//4
f 7//5 12//5 13//5 8//5
f 8//6 13//6 14//6 9//6
f 9//7 14//7 15//7 10//7
f 10//8 15//8 11//8 6//8
f 12//9 17//9 18//9 13//9
f 13//10 18//10 19//10 14//10
f 14//11 19//11 20//11 15//11
f 15//12 20//12 16//12 11//12
f 17//13 22//13 23//13 18//13
f 18//14 23//14 24//14 19//14
f 19//15 24//15 25//15 20//15
f 20//16 25//16 21//16 16//16
f 22//17 27//17 28//17 23//17
f 23//18 28//18 29//18 24//18
f 24//19 29//19 30//19 25//19
f 25//20 30//20 26//20 21//20
f 27//21 32//21 33//21 28//21
f 28//22 33//22 34//22 29//22
f 29//23 34//23 35//23 30//23
f 30//24 35//24 31//24 26//24
f 32//25 37//25 38//25 33//25
f 33//26 38//26 39//26 34//26
f 34//27 39//27 40//27 35//27
f 35//28 40//28 36//28 31//28
f 37//29 42//29 43//29 38//29
f 38//30 43//30 44//30 39//30
f 39//31 44//31 45//31 40//31
f 40//32 45//32 41//32 36//32
f 42//33 47//33 48//33 43//33
f 43//34 48//34 49//34 44//34
f 44//35 49//35 50//35 45//35
f 45//36 50//36 46//36 41//36
f 47//37 52//37 53//37 48//37
f 48//38 53//38 54//38 49//38
f 49//39 54//39 55//39 50//39
f 50//40 55//40 51//40 46//40
f 52//41 57//41 58//41 53//41
f 53//42 58//42 59//42 54//42
f 54//43 59//43 60//43 55//43
f 55//44 60//44 56//44 51//44
f 57//45 62//45 63//45 58//45
f 58//46 63//46 64//46 59//46
f 59//47 64//47 65//47 60//47
f 60//48 65//48 61//48 56//48
f 62//49 67//49 68//49 63//49
f 63//50 68//50 69//50 64//50
f 64//51 69//51 70//51 65//51
f 65//52 70//52 66//52 61//52
f 67//53 72//53 73//53 68//53
f 68//54 73//54 74//54 69//54
f 69//55 74//55 75//55 70//55
f 70//56 75//56 71//56 66//56
f 72//57 77//57 78//57 73//57
f 73//58 78//58 79//58 74//58
f 74//59 79//59 80//59 75//59
f 75//60 80//60 76//60 71//60
f 77//61 82//61 83//61 78//61
f 78//62 83//62 84//62 79//62
f 79//63 84//63 85//63 80//63
f 80//64 85//64 81//64 76//64
f 82//65 87//65 88//65 83//65
f 83//66 88//66 89//66 84//66
f 84//67 89//67 90//67 85//67
f 85//68 90//68 86//68 81//68
f 87//69 92//69 93//69 88//69
f 88//70 93//70 94//70 89//70
f 89//71 94//71 95//71 90//71
f 90//72 95//72 91//72 86//72
f 92//73 97//73 98//73 93//73
f 93//74 98//74 99//74 94//74
f 94//75 99//75 100//75 95//75
f 95//76 100//76 96//76 91//76
f 97//77 102//77 103//77 98//77
f 98//78 103//78 104//78 99//78
f 99//79 104//79 105//79 100//79
f 100//80 105//80 101//80 96//80
f 102//81 2//81 3//81 103//81
f 103//82 3//82 4//82 104//82
f 104//83 4//83 5//83 105//83
f 105//84 5//84 1//84 101//84
f 32//85 27//85 222//85 224//85
f 71//86 76//86 241//86 239//86
f 36//87 41//87 227//87 225//87
f 91//88 96//88 249//88 247//88
f 77//89 72//89 240//89 242//89
f 16//90 21//90 219//90 217//90
f 97//91 92//91 248//91 250//91
f 82//92 77//92 242//92 244//92
f 22//93 17//93 218//93 220//93
f 31//94 36//94 225//94 223//94
f 46//95 51//95 231//95 229//95
f 101//96 1//96 211//96 251//96
f 27//97 22//97 220//97 222//97
f 7//98 2//98 212//98 214//98
f 26//99 31//99 223//99 221//99
f 11//100 16//100 217//100 215//100
f 6//101 11//101 215//101 213//101
f 37//102 32//102 224//102 226//102
f 87//103 82//103 244//103 246//103
f 41//104 46//104 229//104 227//104
f 62//105 57//105 234//105 236//105
f 86//106 91//106 247//106 245//106
f 92//107 87//107 246//107 248//107
f 57//108 52//108 232//108 234//108
f 47//109 42//109 228//109 230//109
f 66//110 71//110 239//110 237//110
f 21//111 26//111 221//111 219//111
f 51//112 56//112 233//112 231//112
f 12//113 7//113 214//113 216//113
f 102//114 97//114 250//114 252//114
f 42//115 37//115 226//115 228//115
f 61//116 66//116 237//116 235//116
f 2//117 102//117 252//117 212//117
f 56//118 61//118 235//118 233//118
f 1//119 6//119 213//119 211//119
f 52//120 47//120 230//120 232//120
f 96//121 101//121 251//121 249//121
f 76//122 81//122 243//122 241//122
f 17//123 12//123 216//123 218//123
f 67//124 62//124 236//124 238//124
f 81//125 86//125 245//125 243//125
f 72//126 67//126 238//126 240//126
f 107//127 108//127 113//127 112//127
f 108//128 109//128 114//128 113//128
f 109//129 110//129 115//129 114//129
f 110//130 106//130 111//130 115//130
f 112//131 113//131 118//131 117//131
f 113//132 114//132 119//132 118//132
f 114//133 115//133 120//133 119//133
f 115//134 111//134 116//134 120//134
f 117//135 118//135 123//135 122//135
f 118//136 119//136 124//136 123//136
f 119//137 120//137 125//137 124//137
f 120//138 116//138 121//138 125//138
f 122//139 123//139 128//139 127//139
f 123//140 124//140 129//140 128//140
f 124//141 125//141 130//141 129//141
f 125//142 121//142 126//142 130//142
f 127//143 128//143 133//143 132//143
f 128//144 129//144 134//144 133//144
f 129//145 130//145 135//145 134//145
f 130//146 126//146 131//146 135//146
f 132//147 133//147 138//147 137//147
f 133//148 134//148 139//148 138//148
f 134//149 135//149 140//149 139//149
f 135//150 131//150 136//150 140//150
f 137//151 138//151 143//151 142//151
f 138//152 139//152 144//152 143//152
f 139//153 140//153 145//153 144//153
f 140//154 136//154 141//154 145//154
f 142//155 143//155 148//155 147//155
f 143//156 144//156 149//156 148//156
f 144//157 145//157 150//157 149//157
f 145//158 141//158 146//158 150//158
f 147//159 148//159 153//159 152//159
f 148//160 149//160 154//160 153//160
f 149//161 150//161 155//161 154//161
f 150//162 146//162 151//162 155//162
f 152//163 153//163 158//163 157//163
f 153//164 154//164 159//164 158//164
f 154//165 155//165 160//165 159//165
f 155//166 151//166 156//166 160//166
f 157//167 158//167 163//167 162//167
f 158//168 159//168 164//168 163//168
f 159//169 160//169 165//169 164//169
f 160//170 156//170 161//170 165//170
f 162//171 163//171 168//171 167//171
f 163//172 164//172 169//172 168//172
f 164//173 165//173 170//173 169//173
f 165//174 161//174 166//174 170//174
f 167//175 168//175 173//175 172//175
f 168//176 169//176 174//176 173//176
f 169//177 170//177 175//177 174//177
f 170//178 166//178 171//178 175//178
f 172//179 173//179 178//179 177//179
f 173//180 174//180 179//180 178//180
f 174//181 175//181 180//181 179//181
f 175//182 171//182 176//182 180//182
f 177//183 178//183 183//183 182//183
f 178//184 179//184 184//184 183//184
f 179//185 180//185 185//185 184//185
f 180//186 176//186 181//186 185//186
f 182//187 183//187 188//187 187//187
f 183//188 184//188 189//188 188//188
f 184//189 185//189 190//189 189//189
f 185//190 181//190 186//190 190//190
f 187//191 188//191 193//191 192//191
f 188//192 189//192 194//192 193//192
f 189//193 190//193 195//193 194//193
f 190//194 186//194 191//194 195//194
f 192//195 193//195 198//195 197//195
f 193//196 194//196 199//196 198//196
f 194//197 195//197 200//197 199//197
f 195//198 191//198 196//198 200//198
f 197//199 198//199 203//199 202//199
f 198//200 199//200 204//200 203//200
f 199//201 200//201 205//201 204//201
f 200//202 196//202 201//202 205//202
f 202//203 203//203 208//203 207//203
f 203//204 204//204 209//204 208//204
f 204//205 205//205 210//205 209//205
f 205//206 201//206 206//206 210//206
f 207//207 208//207 108//207 107//207
f 208//208 209//208 109//208 108//208
f 209//209 210//209 110//209 109//209
f 210//210 206//210 106//210 110//210
f 137//211 224//211 222//211 132//211
f 176//86 239//86 241//86 181//86
f 141//87 225//87 227//87 146//87
f 196//88 247//88 249//88 201//88
f 182//212 242//212 240//212 177//212
f 121//90 217//90 219//90 126//90
f 202//213 250//213 248//213 197//213
f 187//214 244//214 242//214 182//214
f 127//215 220//215 218//215 122//215
f 136//94 223//94 225//94 141//94
f 151//95 229//95 231//95 156//95
f 206//96 251//96 211//96 106//96
f 132//216 222//216 220//216 127//216
f 112//217 214//217 212//217 107//217
f 131//99 221//99 223//99 136//99
f 116//100 215//100 217//100 121//100
f 111//101 213//101 215//101 116//101
f 142//218 226//218 224//218 137//218
f 192//219 246//219 244//219 187//219
f 146//104 227//104 229//104 151//104
f 167//220 236//220 234//220 162//220
f 191//106 245//106 247//106 196//106
f 197//221 248//221 246//221 192//221
f 162//222 234//222 232//222 157//222
f 152//223 230//223 228//223 147//223
f 171//110 237//110 239//110 176//110
f 126//111 219//111 221//111 131//111
f 156//112 231//112 233//112 161//112
f 117//224 216//224 214//224 112//224
f 207//225 252//225 250//225 202//225
f 147//226 228//226 226//226 142//226
f 166//116 235//116 237//116 171//116
f 107//227 212//227 252//227 207//227
f 161//118 233//118 235//118 166//118
f 106//119 211//119 213//119 111//119
f 157//228 232//228 230//228 152//228
f 201//121 249//121 251//121 206//121
f 181//122 241//122 243//122 186//122
f 122//229 218//229 216//229 117//229
f 172//230 238//230 236//230 167//230
f 186//125 243//125 245//125 191//125
f 177//231 240//231 238//231 172//231
