# Blender v2.79 (sub 0) OBJ File: 'Egg_Fried.blend'
# www.blender.org
mtllib Egg_Fried.mtl
o Egg_Fried_Plane.003
v -0.468386 0.000000 0.235762
v 0.304176 0.000000 0.519824
v -0.359930 0.000000 -0.280381
v 0.425078 0.000000 -0.211006
v -0.244102 0.000000 0.481891
v 0.002613 0.000000 0.411337
v 0.358663 0.000000 -0.536586
v 0.178810 0.000000 -0.590892
v -0.193162 0.000000 -0.596895
v -0.420042 0.000000 -0.023217
v 0.723747 0.000000 0.397978
v 0.629367 0.000000 0.059383
v -0.256960 0.000000 0.233599
v -0.247899 0.000000 -0.027815
v -0.226032 0.000000 -0.294199
v -0.016873 0.000000 0.228351
v -0.027164 0.000000 0.024093
v 0.023566 0.000000 -0.257437
v 0.368345 0.000000 0.322820
v 0.285009 0.000000 0.050801
v 0.209085 0.000000 -0.202466
v 0.053661 0.033713 0.151978
v -0.120824 0.045992 0.026285
v -0.055203 0.034998 -0.178501
v 0.159840 0.035252 -0.179374
v 0.227122 0.041302 0.024874
v 0.071056 0.094029 -0.086769
v 0.267899 -0.003592 -0.031323
v 0.052662 -0.003592 0.174427
v 0.173419 -0.003592 0.134906
v -0.067581 -0.003592 0.134906
v -0.067581 -0.003592 -0.196801
v -0.161085 -0.003592 -0.030948
v 0.119051 -0.003592 -0.234478
v 0.122397 0.090433 0.019530
v -0.032959 0.090433 -0.030948
v -0.193162 -0.013102 -0.596895
v -0.359930 -0.013102 -0.280381
v -0.468386 -0.013102 0.235762
v -0.244102 -0.013102 0.481891
v 0.002613 -0.013102 0.411337
v 0.425078 -0.013102 -0.211006
v 0.358663 -0.013102 -0.536586
v 0.178810 -0.013102 -0.590892
v -0.226032 -0.013102 -0.294199
v 0.023566 -0.013102 -0.257437
v 0.209085 -0.013102 -0.202466
v 0.304176 -0.013102 0.519824
v 0.723747 -0.013102 0.397978
v 0.629367 -0.013102 0.059383
v 0.368345 -0.013102 0.322820
v -0.256960 -0.013102 0.233599
v -0.247899 -0.013102 -0.027815
v -0.016873 -0.013102 0.228351
v -0.027164 -0.013102 0.024093
v 0.285009 -0.013102 0.050801
v -0.420042 -0.013102 -0.023217
vn 0.3426 0.7861 0.5144
vn -0.2093 0.9015 0.3787
vn -0.5505 0.8055 -0.2196
vn -0.0032 0.8429 -0.5380
vn 0.4257 0.8894 -0.1666
vn 0.4146 0.8940 -0.1700
vn -0.2024 0.9264 -0.3175
vn -0.0130 0.9991 0.0401
vn -0.1111 0.9331 0.3420
vn 0.5756 0.7895 -0.2130
vn 0.8066 -0.0086 -0.5910
vn -0.0033 0.8185 -0.5745
vn -0.1750 0.4671 -0.8667
vn -0.6043 0.7614 -0.2345
vn -0.3173 0.7943 0.5181
vn -0.2701 0.5017 0.8218
vn 0.3222 0.8111 0.4882
vn 0.8569 0.1687 0.4871
vn -0.7753 0.4560 -0.4371
vn -0.8626 0.1391 0.4863
vn 0.2710 0.4910 0.8280
vn 0.0000 1.0000 0.0000
vn 0.0000 -1.0000 -0.0000
vn -0.9830 0.0000 -0.1835
vn -0.8847 0.0000 -0.4661
vn 0.2891 0.0000 -0.9573
vn 0.2789 0.0000 0.9603
vn -0.9738 0.0000 -0.2276
vn -0.7391 0.0000 0.6735
vn 0.0161 0.0000 -0.9999
vn 0.9633 0.0000 -0.2685
vn 0.2750 0.0000 0.9615
vn -0.3385 0.0000 0.9410
vn 0.7979 0.0000 -0.6028
vn 0.9798 0.0000 -0.1999
usemtl Yellow
s off
f 22//1 26//1 35//1
f 23//2 22//2 36//2
f 24//3 23//3 36//3
f 25//4 24//4 27//4
f 26//5 25//5 35//5
f 35//6 25//6 27//6
f 27//7 24//7 36//7
f 36//8 35//8 27//8
f 36//9 22//9 35//9
f 28//10 25//10 26//10
f 28//11 34//11 25//11
f 34//12 24//12 25//12
f 34//13 32//13 24//13
f 33//14 23//14 24//14
f 31//15 22//15 23//15
f 31//16 29//16 22//16
f 30//17 26//17 22//17
f 30//18 28//18 26//18
f 32//19 33//19 24//19
f 33//20 31//20 23//20
f 29//21 30//21 22//21
usemtl White
f 21//22 4//22 7//22
f 3//22 15//22 9//22
f 5//22 6//22 16//22 13//22
f 18//22 21//22 7//22 8//22
f 6//22 2//22 19//22 16//22
f 16//22 19//22 20//22 17//22
f 17//22 20//22 21//22 18//22
f 13//22 16//22 17//22 14//22
f 14//22 17//22 18//22 15//22
f 1//22 5//22 13//22
f 1//22 13//22 14//22 10//22
f 10//22 14//22 15//22 3//22
f 2//22 11//22 19//22
f 19//22 11//22 12//22 20//22
f 20//22 12//22 4//22 21//22
f 18//22 8//22 9//22 15//22
f 47//23 43//23 42//23
f 38//23 37//23 45//23
f 40//23 52//23 54//23 41//23
f 46//23 44//23 43//23 47//23
f 41//23 54//23 51//23 48//23
f 54//23 55//23 56//23 51//23
f 55//23 46//23 47//23 56//23
f 52//23 53//23 55//23 54//23
f 53//23 45//23 46//23 55//23
f 39//23 52//23 40//23
f 39//23 57//23 53//23 52//23
f 57//23 38//23 45//23 53//23
f 48//23 51//23 49//23
f 51//23 56//23 50//23 49//23
f 56//23 47//23 42//23 50//23
f 46//23 45//23 37//23 44//23
f 10//24 57//24 39//24 1//24
f 9//25 37//25 38//25 3//25
f 7//26 43//26 44//26 8//26
f 2//27 48//27 49//27 11//27
f 3//28 38//28 57//28 10//28
f 1//29 39//29 40//29 5//29
f 8//30 44//30 37//30 9//30
f 11//31 49//31 50//31 12//31
f 5//32 40//32 41//32 6//32
f 6//33 41//33 48//33 2//33
f 12//34 50//34 42//34 4//34
f 4//35 42//35 43//35 7//35
