# Blender v2.79 (sub 0) OBJ File: 'Fries.blend'
# www.blender.org
mtllib Fries.mtl
o Fries_Cube.026
v -0.289619 0.029778 0.417449
v -0.289619 0.264939 0.450966
v -0.465786 0.074906 -0.463157
v -0.465786 0.467637 -0.407181
v 0.289619 0.029778 0.417449
v 0.289619 0.264939 0.450966
v 0.465786 0.074906 -0.463157
v 0.465786 0.467637 -0.407181
v 0.290153 0.009997 -0.472409
v 0.095525 0.001370 -0.576074
v -0.095525 0.001370 -0.576074
v -0.290153 0.009997 -0.472409
v -0.290153 0.532546 -0.397929
v -0.095525 0.569792 -0.495056
v 0.095525 0.569792 -0.495056
v 0.290153 0.532546 -0.397929
v -0.184453 -0.005082 0.383802
v -0.057199 -0.011951 0.333677
v 0.057199 -0.011951 0.333677
v 0.184453 -0.005082 0.383802
v 0.184453 0.307812 0.428399
v 0.057199 0.328411 0.382189
v -0.057199 0.328411 0.382189
v -0.184453 0.307812 0.428399
v 0.000000 0.005376 -0.604180
v 0.000000 0.573798 -0.523163
v 0.000000 -0.011378 0.329661
v 0.000000 0.328983 0.378173
v -0.423897 0.093168 -0.464871
v -0.423897 0.450580 -0.413928
v 0.423897 0.093168 -0.464871
v 0.423897 0.450580 -0.413928
v 0.264059 0.034097 -0.473290
v 0.086935 0.026246 -0.567632
v -0.086935 0.026246 -0.567632
v -0.264059 0.034097 -0.473290
v -0.264059 0.509652 -0.405509
v -0.086935 0.543548 -0.493901
v 0.086935 0.543548 -0.493901
v 0.264059 0.509652 -0.405509
v 0.000000 0.029892 -0.593211
v 0.000000 0.547194 -0.519480
v -0.321493 0.079410 -0.055365
v -0.321493 0.350479 -0.016730
v 0.321493 0.079410 -0.055365
v 0.321493 0.350479 -0.016730
v 0.200268 0.034609 -0.061751
v 0.065933 0.028654 -0.133302
v -0.065933 0.028654 -0.133302
v -0.200268 0.034609 -0.061751
v -0.200268 0.395280 -0.010344
v -0.065933 0.420988 -0.077383
v 0.065933 0.420988 -0.077383
v 0.200268 0.395280 -0.010344
v -0.000000 0.031419 -0.152702
v -0.000000 0.423753 -0.096782
v 0.157747 0.065883 0.160390
v 0.157747 0.166912 0.160390
v 0.383058 0.065883 -0.707477
v 0.383058 0.166912 -0.707477
v 0.255308 0.065883 0.186631
v 0.255308 0.166912 0.186631
v 0.480619 0.065883 -0.681236
v 0.480619 0.166912 -0.681236
v 0.131715 0.065883 0.112252
v 0.131715 0.166912 0.112252
v 0.241009 0.065883 -0.777698
v 0.241009 0.166912 -0.777698
v 0.231878 0.065883 0.125444
v 0.231878 0.166912 0.125444
v 0.341173 0.065883 -0.764507
v 0.341173 0.166912 -0.764507
v 0.108670 0.065883 0.100121
v 0.108670 0.166912 0.100121
v -0.013406 0.065883 -0.788167
v -0.013406 0.166912 -0.788167
v 0.208875 0.065883 0.087242
v 0.208875 0.166912 0.087242
v 0.086799 0.065883 -0.801046
v 0.086799 0.166912 -0.801046
v -0.117110 0.065883 0.088774
v -0.117110 0.166912 0.088774
v -0.138862 0.065883 -0.807599
v -0.138862 0.166912 -0.807599
v -0.016093 0.065883 0.087206
v -0.016093 0.166912 0.087206
v -0.037845 0.065883 -0.809167
v -0.037845 0.166912 -0.809167
v -0.282013 0.065883 0.129998
v -0.282013 0.166912 0.129998
v -0.463617 0.065883 -0.748056
v -0.463617 0.166912 -0.748056
v -0.182903 0.065883 0.110402
v -0.182903 0.166912 0.110402
v -0.364508 0.065883 -0.767652
v -0.364508 0.166912 -0.767652
v -0.197101 0.062362 0.211919
v -0.197101 0.170433 0.211919
v -0.289392 0.062362 -0.742775
v -0.289392 0.170433 -0.742775
v -0.089444 0.062362 0.202461
v -0.089444 0.170433 0.202461
v -0.181735 0.062362 -0.752233
v -0.181735 0.170433 -0.752233
v 0.125906 0.177824 0.216632
v 0.125906 0.278853 0.216632
v 0.291665 0.177824 -0.664550
v 0.291665 0.278853 -0.664550
v 0.225026 0.177824 0.236177
v 0.225026 0.278853 0.236177
v 0.390785 0.177824 -0.645005
v 0.390785 0.278853 -0.645005
v 0.146780 0.177824 0.051069
v 0.146780 0.278853 0.051069
v 0.088960 0.177824 -0.843701
v 0.088960 0.278853 -0.843701
v 0.247652 0.177824 0.045436
v 0.247652 0.278853 0.045436
v 0.189831 0.177824 -0.849334
v 0.189831 0.278853 -0.849334
v -0.157673 0.177824 0.033840
v -0.157673 0.278853 0.033840
v -0.043840 0.177824 -0.855541
v -0.043840 0.278853 -0.855541
v -0.057578 0.177824 0.047542
v -0.057578 0.278853 0.047542
v 0.056255 0.177824 -0.841839
v 0.056255 0.278853 -0.841839
v -0.139441 0.177824 0.170551
v -0.139441 0.278853 0.170551
v -0.208777 0.177824 -0.723401
v -0.208777 0.278853 -0.723401
v -0.038651 0.177824 0.163619
v -0.038651 0.278853 0.163619
v -0.107986 0.177824 -0.730333
v -0.107986 0.278853 -0.730333
v -0.288973 0.177824 0.058860
v -0.288973 0.278853 0.058860
v -0.380266 0.177824 -0.833117
v -0.380266 0.278853 -0.833117
v -0.188384 0.177824 0.049453
v -0.188384 0.278853 0.049453
v -0.279676 0.177824 -0.842524
v -0.279676 0.278853 -0.842524
v 0.256179 0.237147 0.156691
v 0.256179 0.290554 0.156691
v 0.385491 0.287331 -0.714777
v 0.385491 0.388360 -0.714777
v 0.307752 0.237147 0.170563
v 0.307752 0.290554 0.170563
v 0.483052 0.287331 -0.688536
v 0.483052 0.388360 -0.688536
v 0.227500 0.237147 0.122963
v 0.227500 0.290554 0.122963
v 0.197373 0.287331 -0.757936
v 0.197373 0.388360 -0.757936
v 0.280906 0.237147 0.122689
v 0.280906 0.290554 0.122689
v 0.298400 0.287331 -0.758455
v 0.298400 0.388360 -0.758455
v 0.053558 0.237147 0.041481
v 0.053558 0.290554 0.041481
v 0.089456 0.287331 -0.840714
v 0.089456 0.388360 -0.840714
v 0.106669 0.237147 0.047097
v 0.106669 0.290554 0.047097
v 0.189925 0.287331 -0.830090
v 0.189925 0.388360 -0.830090
v -0.068117 0.237147 0.077983
v -0.068117 0.290554 0.077983
v -0.032219 0.287331 -0.804212
v -0.032219 0.388360 -0.804212
v -0.015006 0.237147 0.083599
v -0.015006 0.290554 0.083599
v 0.068250 0.287331 -0.793588
v 0.068250 0.388360 -0.793588
v -0.100812 0.237147 0.008740
v -0.100812 0.290554 0.008740
v -0.189350 0.287331 -0.864872
v -0.189350 0.388360 -0.864872
v -0.047692 0.237147 0.003217
v -0.047692 0.290554 0.003217
v -0.088863 0.287331 -0.875321
v -0.088863 0.388360 -0.875321
v -0.234193 0.237147 0.130513
v -0.234193 0.290554 0.130513
v -0.275376 0.287331 -0.749453
v -0.275376 0.388360 -0.749453
v -0.180801 0.237147 0.129248
v -0.180801 0.290554 0.129248
v -0.174376 0.287331 -0.751846
v -0.174376 0.388360 -0.751846
v -0.334107 0.226191 -0.043554
v -0.334107 0.306443 -0.043554
v -0.398025 0.287331 -0.637342
v -0.398025 0.388360 -0.637342
v -0.253998 0.226191 -0.048360
v -0.253998 0.306443 -0.048360
v -0.297178 0.287331 -0.643392
v -0.297178 0.388360 -0.643392
vn -0.9805 -0.0278 0.1947
vn 0.0472 0.2650 -0.9631
vn 0.9805 -0.0278 0.1947
vn 0.2606 -0.1362 0.9558
vn 0.3319 -0.9431 0.0212
vn -0.3319 0.8996 0.2838
vn 0.3319 0.8996 0.2838
vn 0.0264 0.9644 0.2631
vn -0.3319 -0.9431 0.0212
vn -0.0264 -0.9995 -0.0169
vn -0.2606 -0.1362 0.9558
vn 0.0707 -0.1408 0.9875
vn 0.0472 0.0146 -0.9988
vn -0.0472 0.0146 -0.9988
vn 0.2747 -0.1319 -0.9524
vn -0.1015 0.1404 -0.9849
vn -0.0707 -0.1408 0.9875
vn 0.0264 -0.9995 -0.0169
vn -0.0264 0.9644 0.2631
vn 0.1015 0.1404 -0.9849
vn -0.2747 0.3927 -0.8777
vn 0.2747 0.3927 -0.8777
vn -0.2747 -0.1319 -0.9524
vn -0.0472 0.2650 -0.9631
vn -0.3436 0.9375 -0.0544
vn 0.9698 0.0344 -0.2414
vn -0.9698 0.0344 -0.2414
vn 0.3438 -0.8858 -0.3119
vn -0.3438 -0.8858 -0.3119
vn 0.3436 0.9375 -0.0544
vn 0.0422 -0.9591 -0.2801
vn 0.0429 0.9991 -0.0035
vn -0.0422 -0.9591 -0.2801
vn -0.0429 0.9991 -0.0035
vn -0.0000 0.1411 -0.9900
vn 0.2849 0.1353 -0.9490
vn -0.2849 0.1353 -0.9490
vn 0.0536 0.9620 0.2677
vn -0.0536 0.9620 0.2677
vn -0.0536 -0.9985 -0.0117
vn 0.0536 -0.9985 -0.0117
vn -0.3571 -0.1318 0.9247
vn 0.3571 -0.1318 0.9247
vn 0.4127 -0.1745 -0.8940
vn 0.4127 0.4173 -0.8096
vn -0.4127 0.4173 -0.8096
vn -0.4127 -0.1745 -0.8940
vn 0.0403 0.9992 -0.0075
vn 0.0416 -0.9579 -0.2840
vn -0.0416 -0.9579 -0.2840
vn -0.0403 0.9992 -0.0075
vn -0.4621 0.1251 -0.8780
vn 0.4621 0.1251 -0.8780
vn -0.9679 0.0000 -0.2513
vn 0.2597 0.0000 -0.9657
vn 0.9679 0.0000 0.2513
vn -0.2597 0.0000 0.9657
vn 0.0000 -1.0000 0.0000
vn 0.0000 1.0000 0.0000
vn -0.9925 0.0000 -0.1219
vn 0.1306 0.0000 -0.9914
vn 0.9925 0.0000 0.1219
vn -0.1306 0.0000 0.9914
vn -0.9907 0.0000 0.1361
vn -0.1275 0.0000 -0.9918
vn 0.9907 0.0000 -0.1361
vn 0.1275 0.0000 0.9918
vn -0.9997 0.0000 0.0243
vn -0.0155 0.0000 -0.9999
vn 0.9997 0.0000 -0.0243
vn 0.0155 0.0000 0.9999
vn -0.9793 0.0000 0.2025
vn -0.1940 0.0000 -0.9810
vn 0.9793 0.0000 -0.2025
vn 0.1940 0.0000 0.9810
vn -0.9954 0.0000 0.0962
vn -0.0875 0.0000 -0.9962
vn 0.9954 0.0000 -0.0962
vn 0.0875 0.0000 0.9962
vn -0.9828 0.0000 -0.1849
vn 0.1935 0.0000 -0.9811
vn 0.9828 0.0000 0.1849
vn -0.1935 0.0000 0.9811
vn -0.9979 0.0000 0.0645
vn -0.0558 0.0000 -0.9984
vn 0.9979 0.0000 -0.0645
vn 0.0558 0.0000 0.9984
vn -0.9919 0.0000 -0.1270
vn 0.1356 0.0000 -0.9908
vn 0.9919 0.0000 0.1270
vn -0.1356 0.0000 0.9908
vn -0.9970 0.0000 0.0773
vn -0.0686 0.0000 -0.9976
vn 0.9970 0.0000 -0.0773
vn 0.0686 0.0000 0.9976
vn -0.9948 0.0000 0.1018
vn -0.0931 0.0000 -0.9957
vn 0.9948 0.0000 -0.1018
vn 0.0931 0.0000 0.9957
vn -0.9892 0.0000 -0.1468
vn 0.9798 0.0000 0.1999
vn 0.0149 -0.9984 -0.0553
vn -0.0288 0.9938 0.1073
vn -0.9994 0.0000 0.0342
vn -0.0051 0.0000 -1.0000
vn 0.9998 0.0000 0.0198
vn 0.0051 0.0000 1.0000
vn -0.0003 -0.9984 -0.0569
vn 0.0006 0.9939 0.1103
vn -0.9992 0.0000 -0.0407
vn 0.1052 0.0000 -0.9945
vn 0.9955 0.0000 0.0945
vn -0.1052 0.0000 0.9945
vn 0.0060 -0.9984 -0.0566
vn -0.0116 0.9939 0.1097
vn -0.9949 0.0000 0.1008
vn -0.1034 0.0000 -0.9946
vn 0.9989 0.0000 -0.0468
vn 0.1034 0.0000 0.9946
vn -0.0059 -0.9984 -0.0568
vn 0.0114 0.9939 0.1101
vn -0.9989 0.0000 0.0467
vn -0.0237 0.0000 -0.9997
vn 1.0000 0.0000 0.0073
vn 0.0237 0.0000 0.9997
vn -0.0013 -0.9984 -0.0569
vn 0.0026 0.9939 0.1103
vn -0.9943 0.0000 0.1070
vn -0.0599 0.0000 -0.9982
vn 0.9974 0.0000 -0.0724
vn 0.0599 0.0000 0.9982
vn -0.0061 -0.9948 -0.1018
vn 0.0081 0.9907 0.1358
usemtl DarkRed
s off
f 1//1 2//1 4//1 3//1
f 16//2 8//2 32//2 40//2
f 7//3 8//3 6//3 5//3
f 17//4 24//4 2//4 1//4
f 9//5 7//5 5//5 20//5
f 13//6 4//6 2//6 24//6
f 8//7 16//7 21//7 6//7
f 26//8 14//8 23//8 28//8
f 3//9 12//9 17//9 1//9
f 25//10 10//10 19//10 27//10
f 5//11 6//11 21//11 20//11
f 27//12 28//12 23//12 18//12
f 7//13 9//13 33//13 31//13
f 12//14 3//14 29//14 36//14
f 26//15 15//15 39//15 42//15
f 3//16 4//16 30//16 29//16
f 19//17 22//17 28//17 27//17
f 11//18 25//18 27//18 18//18
f 15//19 26//19 28//19 22//19
f 8//20 7//20 31//20 32//20
f 25//21 11//21 35//21 41//21
f 10//22 25//22 41//22 34//22
f 14//23 26//23 42//23 38//23
f 4//24 13//24 37//24 30//24
f 31//25 33//25 47//25 45//25
f 29//26 30//26 44//26 43//26
f 32//27 31//27 45//27 46//27
f 30//28 37//28 51//28 44//28
f 40//29 32//29 46//29 54//29
f 36//30 29//30 43//30 50//30
f 42//31 39//31 53//31 56//31
f 34//32 41//32 55//32 48//32
f 38//33 42//33 56//33 52//33
f 41//34 35//34 49//34 55//34
f 45//35 47//35 54//35 46//35
f 50//35 43//35 44//35 51//35
f 56//36 53//36 48//36 55//36
f 55//37 49//37 52//37 56//37
usemtl White
f 16//38 15//38 22//38 21//38
f 14//39 13//39 24//39 23//39
f 12//40 11//40 18//40 17//40
f 10//41 9//41 20//41 19//41
f 20//42 21//42 22//42 19//42
f 18//43 23//43 24//43 17//43
f 15//44 16//44 40//44 39//44
f 9//45 10//45 34//45 33//45
f 11//46 12//46 36//46 35//46
f 13//47 14//47 38//47 37//47
f 35//48 36//48 50//48 49//48
f 37//49 38//49 52//49 51//49
f 39//50 40//50 54//50 53//50
f 33//51 34//51 48//51 47//51
f 49//52 50//52 51//52 52//52
f 47//53 48//53 53//53 54//53
usemtl Yellow
f 57//54 58//54 60//54 59//54
f 59//55 60//55 64//55 63//55
f 63//56 64//56 62//56 61//56
f 61//57 62//57 58//57 57//57
f 59//58 63//58 61//58 57//58
f 64//59 60//59 58//59 62//59
f 65//60 66//60 68//60 67//60
f 67//61 68//61 72//61 71//61
f 71//62 72//62 70//62 69//62
f 69//63 70//63 66//63 65//63
f 67//58 71//58 69//58 65//58
f 72//59 68//59 66//59 70//59
f 73//64 74//64 76//64 75//64
f 75//65 76//65 80//65 79//65
f 79//66 80//66 78//66 77//66
f 77//67 78//67 74//67 73//67
f 75//58 79//58 77//58 73//58
f 80//59 76//59 74//59 78//59
f 81//68 82//68 84//68 83//68
f 83//69 84//69 88//69 87//69
f 87//70 88//70 86//70 85//70
f 85//71 86//71 82//71 81//71
f 83//58 87//58 85//58 81//58
f 88//59 84//59 82//59 86//59
f 89//72 90//72 92//72 91//72
f 91//73 92//73 96//73 95//73
f 95//74 96//74 94//74 93//74
f 93//75 94//75 90//75 89//75
f 91//58 95//58 93//58 89//58
f 96//59 92//59 90//59 94//59
f 97//76 98//76 100//76 99//76
f 99//77 100//77 104//77 103//77
f 103//78 104//78 102//78 101//78
f 101//79 102//79 98//79 97//79
f 99//58 103//58 101//58 97//58
f 104//59 100//59 98//59 102//59
f 105//80 106//80 108//80 107//80
f 107//81 108//81 112//81 111//81
f 111//82 112//82 110//82 109//82
f 109//83 110//83 106//83 105//83
f 107//58 111//58 109//58 105//58
f 112//59 108//59 106//59 110//59
f 113//84 114//84 116//84 115//84
f 115//85 116//85 120//85 119//85
f 119//86 120//86 118//86 117//86
f 117//87 118//87 114//87 113//87
f 115//58 119//58 117//58 113//58
f 120//59 116//59 114//59 118//59
f 121//88 122//88 124//88 123//88
f 123//89 124//89 128//89 127//89
f 127//90 128//90 126//90 125//90
f 125//91 126//91 122//91 121//91
f 123//58 127//58 125//58 121//58
f 128//59 124//59 122//59 126//59
f 129//92 130//92 132//92 131//92
f 131//93 132//93 136//93 135//93
f 135//94 136//94 134//94 133//94
f 133//95 134//95 130//95 129//95
f 131//58 135//58 133//58 129//58
f 136//59 132//59 130//59 134//59
f 137//96 138//96 140//96 139//96
f 139//97 140//97 144//97 143//97
f 143//98 144//98 142//98 141//98
f 141//99 142//99 138//99 137//99
f 139//58 143//58 141//58 137//58
f 144//59 140//59 138//59 142//59
f 145//100 146//100 148//100 147//100
f 147//55 148//55 152//55 151//55
f 151//101 152//101 150//101 149//101
f 149//57 150//57 146//57 145//57
f 147//102 151//102 149//102 145//102
f 152//103 148//103 146//103 150//103
f 153//104 154//104 156//104 155//104
f 155//105 156//105 160//105 159//105
f 159//106 160//106 158//106 157//106
f 157//107 158//107 154//107 153//107
f 155//108 159//108 157//108 153//108
f 160//109 156//109 154//109 158//109
f 161//110 162//110 164//110 163//110
f 163//111 164//111 168//111 167//111
f 167//112 168//112 166//112 165//112
f 165//113 166//113 162//113 161//113
f 163//114 167//114 165//114 161//114
f 168//115 164//115 162//115 166//115
f 169//110 170//110 172//110 171//110
f 171//111 172//111 176//111 175//111
f 175//112 176//112 174//112 173//112
f 173//113 174//113 170//113 169//113
f 171//114 175//114 173//114 169//114
f 176//115 172//115 170//115 174//115
f 177//116 178//116 180//116 179//116
f 179//117 180//117 184//117 183//117
f 183//118 184//118 182//118 181//118
f 181//119 182//119 178//119 177//119
f 179//120 183//120 181//120 177//120
f 184//121 180//121 178//121 182//121
f 185//122 186//122 188//122 187//122
f 187//123 188//123 192//123 191//123
f 191//124 192//124 190//124 189//124
f 189//125 190//125 186//125 185//125
f 187//126 191//126 189//126 185//126
f 192//127 188//127 186//127 190//127
f 193//128 194//128 196//128 195//128
f 195//129 196//129 200//129 199//129
f 199//130 200//130 198//130 197//130
f 197//131 198//131 194//131 193//131
f 195//132 199//132 197//132 193//132
f 200//133 196//133 194//133 198//133
