# Blender v2.79 (sub 0) OBJ File: 'FryingPan.blend'
# www.blender.org
mtllib FryingPan.mtl
o FryingPan_Cylinder.021
v 0.348946 0.142394 -0.480283
v 0.000000 0.142394 -0.593663
v 0.564607 0.142394 -0.183452
v 0.564607 0.142394 0.183452
v 0.348946 0.142394 0.480283
v -0.000000 0.142394 0.593663
v -0.348946 0.142394 0.480283
v -0.564607 0.142394 0.183452
v -0.564607 0.142394 -0.183452
v -0.348946 0.142394 -0.480283
v -0.000000 0.039239 -0.349679
v -0.000000 0.121189 -0.839678
v 0.205536 0.039239 -0.282896
v 0.493550 0.121189 -0.679313
v 0.332565 0.039239 -0.108057
v 0.798581 0.121189 -0.259475
v 0.332565 0.039239 0.108057
v 0.798581 0.121189 0.259475
v 0.205536 0.039239 0.282897
v 0.493550 0.121189 0.679314
v -0.000000 0.039239 0.349679
v -0.000000 0.121189 0.839678
v -0.205536 0.039239 0.282897
v -0.493550 0.121189 0.679314
v -0.332565 0.039239 0.108057
v -0.798581 0.121189 0.259475
v -0.332565 0.039239 -0.108057
v -0.798581 0.121189 -0.259475
v -0.205536 0.039239 -0.282897
v -0.493550 0.121189 -0.679314
v 0.000000 0.225083 -0.913362
v 0.000000 0.292263 -0.889602
v 0.522895 0.292263 -0.719703
v 0.536861 0.225083 -0.738925
v 0.846062 0.292263 -0.274902
v 0.868659 0.225083 -0.282244
v 0.846062 0.292263 0.274902
v 0.868659 0.225083 0.282244
v 0.522895 0.292263 0.719703
v 0.536861 0.225083 0.738926
v -0.000000 0.292263 0.889602
v -0.000000 0.225083 0.913362
v -0.522895 0.292263 0.719703
v -0.536861 0.225083 0.738925
v -0.846062 0.292263 0.274902
v -0.868659 0.225083 0.282244
v -0.846062 0.292263 -0.274902
v -0.868659 0.225083 -0.282245
v -0.522895 0.292263 -0.719703
v -0.536860 0.225083 -0.738926
v 0.454084 0.225083 -0.624993
v 0.480481 0.283456 -0.661325
v 0.000000 0.283456 -0.817443
v 0.000000 0.225083 -0.772534
v 0.734723 0.225083 -0.238726
v 0.777434 0.283456 -0.252604
v 0.734723 0.225083 0.238726
v 0.777434 0.283456 0.252604
v 0.454084 0.225083 0.624993
v 0.480481 0.283456 0.661325
v -0.000000 0.225083 0.772534
v -0.000000 0.283456 0.817443
v -0.454084 0.225083 0.624993
v -0.480481 0.283456 0.661325
v -0.734723 0.225083 0.238726
v -0.777434 0.283456 0.252604
v -0.734723 0.225083 -0.238726
v -0.777434 0.283456 -0.252604
v -0.454084 0.225083 -0.624993
v -0.480481 0.283456 -0.661325
v 0.196566 0.071296 -0.270550
v 0.000000 0.071296 -0.334418
v 0.318050 0.071296 -0.103341
v 0.318050 0.071296 0.103341
v 0.196566 0.071296 0.270550
v -0.196566 0.071296 0.270550
v 0.000000 0.071296 0.334418
v -0.318050 0.071296 0.103341
v -0.318050 0.071296 -0.103341
v -0.196566 0.071296 -0.270550
v 0.060348 0.067653 0.083062
v -0.060348 0.067653 -0.083062
v 0.034413 0.276558 1.661327
v 0.086513 0.224693 1.661327
v 0.086681 0.150797 1.661327
v 0.034818 0.098160 1.661327
v -0.038695 0.097614 1.661327
v -0.090797 0.149480 1.661327
v -0.090963 0.223374 1.661327
v -0.039101 0.276013 1.661327
v 0.022227 0.246731 0.817781
v 0.056958 0.212156 0.817781
v 0.057071 0.162895 0.817781
v 0.022497 0.127805 0.817781
v -0.026509 0.127441 0.817781
v -0.061241 0.162016 0.817781
v -0.061352 0.211277 0.817781
v -0.026779 0.246367 0.817781
v 0.034413 0.276558 1.772484
v 0.027610 0.259905 1.875017
v 0.070012 0.217693 1.875017
v 0.086513 0.224693 1.772484
v 0.070149 0.157551 1.875017
v 0.086681 0.150797 1.772484
v 0.027939 0.114711 1.875017
v 0.034818 0.098160 1.772484
v -0.031891 0.114266 1.875017
v -0.038695 0.097614 1.772484
v -0.074295 0.156479 1.875017
v -0.090797 0.149480 1.772484
v -0.074432 0.216620 1.875017
v -0.090963 0.223374 1.772484
v -0.032221 0.259461 1.875017
v -0.039101 0.276013 1.772484
vn 0.0393 0.9919 0.1211
vn 0.2929 0.3188 0.9014
vn 0.0393 0.9919 -0.1211
vn 0.1030 0.9919 -0.0748
vn 0.1273 0.9919 0.0000
vn 0.1030 0.9919 0.0748
vn -0.1351 0.8994 0.4158
vn -0.1030 0.9919 -0.0748
vn -0.1273 0.9919 0.0000
vn 0.8290 -0.5592 0.0000
vn -0.3537 0.8994 -0.2570
vn -0.1030 0.9919 0.0748
vn -0.2562 -0.5592 -0.7885
vn -0.6707 -0.5592 -0.4873
vn -0.8290 -0.5592 0.0000
vn -0.6707 -0.5592 0.4873
vn -0.2562 -0.5592 0.7885
vn 0.2562 -0.5592 0.7885
vn 0.6707 -0.5592 0.4873
vn -0.4372 0.8994 0.0000
vn 0.4372 0.8994 0.0000
vn -0.2494 0.5905 -0.7675
vn -0.3537 0.8994 0.2570
vn 0.3537 0.8994 0.2570
vn 0.1351 0.8994 -0.4158
vn 0.1351 0.8994 0.4158
vn 0.3537 0.8994 -0.2570
vn 0.6707 -0.5592 -0.4873
vn 0.0535 -0.9849 -0.1647
vn 0.1401 -0.9849 -0.1018
vn 0.1732 -0.9849 0.0000
vn 0.1401 -0.9849 0.1018
vn -0.0535 -0.9849 0.1647
vn -0.1401 -0.9849 0.1018
vn -0.1732 -0.9849 0.0000
vn -0.1401 -0.9849 -0.1018
vn -0.0535 -0.9849 -0.1647
vn 0.0000 -1.0000 0.0000
vn 0.2929 0.3188 -0.9014
vn 0.7668 0.3188 -0.5571
vn 0.9478 0.3188 0.0000
vn 0.7668 0.3188 0.5571
vn -0.2929 0.3188 0.9014
vn -0.7668 0.3188 0.5571
vn -0.9478 0.3188 0.0000
vn -0.7668 0.3188 -0.5571
vn -0.2929 0.3188 -0.9014
vn -0.2494 0.5905 0.7675
vn -0.6529 0.5905 0.4744
vn -0.8070 0.5905 0.0000
vn -0.6529 0.5905 -0.4744
vn -0.0393 0.9919 -0.1211
vn 0.2494 0.5905 -0.7675
vn 0.6529 0.5905 -0.4744
vn 0.8070 0.5905 0.0000
vn 0.6529 0.5905 0.4744
vn 0.2494 0.5905 0.7675
vn -0.0393 0.9919 0.1211
vn 0.0535 -0.9849 0.1647
vn -0.1351 0.8994 -0.4158
vn 0.0856 0.9608 -0.2635
vn 0.2242 0.9608 0.1629
vn -0.0856 0.9608 0.2635
vn -0.2242 0.9608 -0.1629
vn 0.2771 0.9608 0.0000
vn -0.0856 0.9608 -0.2635
vn 0.0000 0.9999 -0.0145
vn -0.0138 0.9999 -0.0045
vn 0.0093 0.9999 -0.0067
vn -0.0093 0.9999 0.0067
vn 0.0138 0.9999 0.0045
vn -0.0000 0.9999 0.0145
vn -0.2242 0.9608 0.1629
vn 0.0856 0.9608 0.2635
vn 0.2242 0.9608 -0.1629
vn -0.2771 0.9608 0.0000
vn 0.2562 -0.5592 -0.7885
vn -0.7119 0.7014 -0.0350
vn 0.9994 0.0023 -0.0350
vn 0.7119 -0.7014 -0.0350
vn 0.0074 -0.9994 -0.0352
vn -0.7051 -0.7083 -0.0352
vn -0.9994 -0.0023 -0.0350
vn 0.7051 0.7083 -0.0352
vn -0.0074 0.9994 -0.0352
vn -1.0000 -0.0023 0.0000
vn 0.0074 -1.0000 -0.0000
vn 1.0000 0.0023 -0.0000
vn 0.7055 0.7087 0.0000
vn -0.7123 0.7018 0.0000
vn -0.7055 -0.7087 0.0000
vn 0.7123 -0.7019 0.0000
vn -0.0074 1.0000 0.0000
vn 0.6964 0.6996 0.1598
vn 0.9873 0.0022 0.1590
vn 0.7033 -0.6929 0.1590
vn 0.0073 -0.9871 0.1598
vn -0.6964 -0.6996 0.1598
vn -0.9873 -0.0022 0.1590
vn -0.7033 0.6929 0.1590
vn -0.0073 0.9871 0.1598
vn 0.0000 0.0000 1.0000
usemtl Grey
s off
f 32//1 49//1 70//1 53//1
f 41//2 42//2 40//2 39//2
f 43//3 41//3 62//3 64//3
f 45//4 43//4 64//4 66//4
f 47//5 45//5 66//5 68//5
f 49//6 47//6 68//6 70//6
f 51//7 54//7 2//7 1//7
f 39//8 37//8 58//8 60//8
f 37//9 35//9 56//9 58//9
f 18//10 16//10 36//10 38//10
f 59//11 57//11 4//11 5//11
f 35//12 33//12 52//12 56//12
f 12//13 30//13 50//13 31//13
f 30//14 28//14 48//14 50//14
f 28//15 26//15 46//15 48//15
f 26//16 24//16 44//16 46//16
f 24//17 22//17 42//17 44//17
f 22//18 20//18 40//18 42//18
f 20//19 18//19 38//19 40//19
f 57//20 55//20 3//20 4//20
f 67//21 65//21 8//21 9//21
f 62//22 60//22 59//22 61//22
f 55//23 51//23 1//23 3//23
f 69//24 67//24 9//24 10//24
f 63//25 61//25 6//25 7//25
f 54//26 69//26 10//26 2//26
f 65//27 63//27 7//27 8//27
f 16//28 14//28 34//28 36//28
f 12//29 14//29 13//29 11//29
f 14//30 16//30 15//30 13//30
f 16//31 18//31 17//31 15//31
f 18//32 20//32 19//32 17//32
f 22//33 24//33 23//33 21//33
f 24//34 26//34 25//34 23//34
f 26//35 28//35 27//35 25//35
f 28//36 30//36 29//36 27//36
f 30//37 12//37 11//37 29//37
f 11//38 13//38 15//38 17//38 19//38 21//38 23//38 25//38 27//38 29//38
f 34//39 31//39 32//39 33//39
f 36//40 34//40 33//40 35//40
f 38//41 36//41 35//41 37//41
f 40//42 38//42 37//42 39//42
f 44//43 42//43 41//43 43//43
f 46//44 44//44 43//44 45//44
f 48//45 46//45 45//45 47//45
f 50//46 48//46 47//46 49//46
f 31//47 50//47 49//47 32//47
f 52//48 53//48 54//48 51//48
f 56//49 52//49 51//49 55//49
f 58//50 56//50 55//50 57//50
f 60//51 58//51 57//51 59//51
f 41//52 39//52 60//52 62//52
f 64//53 62//53 61//53 63//53
f 66//54 64//54 63//54 65//54
f 68//55 66//55 65//55 67//55
f 70//56 68//56 67//56 69//56
f 53//57 70//57 69//57 54//57
f 33//58 32//58 53//58 52//58
f 20//59 22//59 21//59 19//59
f 5//60 6//60 61//60 59//60
f 7//61 6//61 77//61 76//61
f 10//62 9//62 79//62 80//62
f 1//63 2//63 72//63 71//63
f 5//64 4//64 74//64 75//64
f 9//65 8//65 78//65 79//65
f 6//66 5//66 75//66 77//66
f 81//67 76//67 77//67 75//67
f 73//68 81//68 75//68 74//68
f 82//69 78//69 76//69 81//69
f 71//70 82//70 81//70 73//70
f 80//71 79//71 78//71 82//71
f 72//72 80//72 82//72 71//72
f 3//73 1//73 71//73 73//73
f 2//74 10//74 80//74 72//74
f 8//75 7//75 76//75 78//75
f 4//76 3//76 73//76 74//76
f 14//77 12//77 31//77 34//77
usemtl DarkBrown
f 90//78 98//78 97//78 89//78
f 85//79 93//79 92//79 84//79
f 86//80 94//80 93//80 85//80
f 87//81 95//81 94//81 86//81
f 88//82 96//82 95//82 87//82
f 89//83 97//83 96//83 88//83
f 84//84 92//84 91//84 83//84
f 83//85 91//85 98//85 90//85
f 89//86 88//86 110//86 112//86
f 87//87 86//87 106//87 108//87
f 85//88 84//88 102//88 104//88
f 84//89 83//89 99//89 102//89
f 90//90 89//90 112//90 114//90
f 88//91 87//91 108//91 110//91
f 86//92 85//92 104//92 106//92
f 83//93 90//93 114//93 99//93
f 102//94 99//94 100//94 101//94
f 104//95 102//95 101//95 103//95
f 106//96 104//96 103//96 105//96
f 108//97 106//97 105//97 107//97
f 110//98 108//98 107//98 109//98
f 112//99 110//99 109//99 111//99
f 114//100 112//100 111//100 113//100
f 99//101 114//101 113//101 100//101
f 101//102 100//102 113//102 111//102 109//102 107//102 105//102 103//102
