# Blender v2.79 (sub 0) OBJ File: 'Hotdog_Bun.blend'
# www.blender.org
mtllib Hotdog_Bun.mtl
o Hotdog_Bun_Cube.007
v -0.283732 -0.061437 -0.755334
v -0.149396 -0.055568 -0.809520
v -0.070034 0.010327 0.698641
v -0.115463 -0.055568 0.833655
v -0.328162 -0.206064 0.288025
v -0.152283 0.035451 0.717574
v -0.069104 -0.099556 -0.729633
v -0.086253 -0.097670 0.260542
v -0.036645 -0.170575 0.807790
v -0.053213 -0.170575 -0.794035
v -0.020727 -0.158683 0.682031
v -0.085322 -0.244042 -0.728104
v -0.077701 -0.244042 0.695145
v -0.033024 -0.166560 0.254312
v -0.243421 -0.178357 -0.750507
v -0.132816 -0.126046 -0.807535
v -0.222754 0.088449 0.276050
v -0.106459 0.053744 0.262838
v -0.266397 -0.061437 0.743841
v -0.083664 0.010327 -0.731377
v -0.167465 0.035451 -0.741412
v -0.099190 -0.126046 0.829909
v -0.027272 -0.158683 -0.721153
v -0.112756 -0.297739 -0.355841
v -0.055744 -0.099556 0.695352
v -0.383913 -0.044828 -0.372759
v -0.226833 -0.178357 0.734734
v -0.384104 -0.044828 0.294380
v -0.113583 -0.297739 0.263464
v -0.103682 0.053744 -0.356041
v -0.221060 0.088449 -0.363044
v -0.031447 -0.166560 -0.350990
v -0.083288 -0.097670 -0.354824
v -0.327450 -0.206064 -0.369391
v 0.283732 -0.061437 -0.755334
v 0.149396 -0.055568 -0.809520
v 0.070034 0.010327 0.698641
v 0.115463 -0.055568 0.833655
v 0.328162 -0.206064 0.288025
v 0.152283 0.035451 0.717574
v 0.069104 -0.099556 -0.729633
v 0.086253 -0.097670 0.260542
v 0.036645 -0.170575 0.807790
v 0.053213 -0.170575 -0.794035
v 0.020727 -0.158683 0.682031
v 0.085322 -0.244042 -0.728104
v 0.077701 -0.244042 0.695145
v 0.033024 -0.166560 0.254312
v 0.243421 -0.178357 -0.750507
v 0.132816 -0.126046 -0.807535
v 0.222754 0.088449 0.276050
v 0.106459 0.053744 0.262838
v 0.266397 -0.061437 0.743841
v 0.083664 0.010327 -0.731377
v 0.167465 0.035451 -0.741412
v 0.099190 -0.126046 0.829909
v 0.027272 -0.158683 -0.721153
v 0.112756 -0.297739 -0.355841
v 0.055744 -0.099556 0.695352
v 0.383913 -0.044828 -0.372759
v 0.226833 -0.178357 0.734734
v 0.384104 -0.044828 0.294380
v 0.113583 -0.297739 0.263464
v 0.103682 0.053744 -0.356041
v 0.221060 0.088449 -0.363044
v 0.031447 -0.166560 -0.350990
v 0.083288 -0.097670 -0.354824
v 0.327450 -0.206064 -0.369391
v -0.272439 -0.121027 0.745232
v -0.182862 -0.068274 0.818030
v -0.238432 -0.006855 -0.749910
v -0.213206 -0.068274 -0.799593
v -0.150156 -0.092197 -0.809611
v -0.149008 -0.013803 -0.791905
v -0.102737 -0.027855 -0.786365
v -0.080024 -0.047789 -0.730941
v -0.090597 0.047254 0.703375
v -0.074440 -0.027855 0.793073
v -0.116209 -0.092197 0.833827
v -0.119854 -0.013803 0.803527
v -0.153835 -0.222879 0.716616
v -0.099721 -0.153407 -0.802580
v -0.051366 -0.138633 -0.726641
v -0.070603 -0.153407 0.821399
v -0.186803 -0.151426 -0.796431
v -0.156949 -0.151426 0.812065
v -0.062481 -0.107121 0.790320
v -0.090553 -0.107121 -0.784906
v 0.000000 -0.248784 0.683572
v 0.000000 -0.176611 -0.788865
v 0.000000 -0.163952 -0.717784
v 0.000000 -0.176611 0.799712
v -0.055517 -0.198826 0.781610
v -0.024058 -0.157718 0.774369
v -0.037958 -0.157718 -0.774764
v -0.070010 -0.198826 -0.778602
v -0.392646 -0.126536 0.295351
v -0.221936 -0.006855 0.733607
v -0.066462 -0.047789 0.697819
v -0.135533 0.105013 0.266141
v -0.224019 -0.268202 0.276148
v -0.039844 -0.138633 0.690377
v 0.000000 -0.304358 0.256921
v 0.000000 -0.163952 0.677015
v -0.098592 -0.284315 0.528921
v -0.024450 -0.164591 0.514203
v -0.067496 -0.098141 0.525321
v -0.290139 -0.199138 0.569519
v -0.193125 0.075200 0.550260
v -0.086093 0.042890 0.529012
v -0.341625 -0.048980 0.579740
v -0.320462 0.029890 -0.368974
v -0.098583 -0.026702 -0.355737
v -0.060131 -0.148007 -0.353257
v 0.000000 -0.167890 -0.349682
v -0.289888 -0.121027 -0.756071
v -0.104614 0.047254 -0.733886
v -0.167507 -0.222879 -0.740549
v 0.000000 -0.248784 -0.721260
v -0.086028 0.042890 -0.602091
v -0.194803 0.075200 -0.613353
v -0.067129 -0.098141 -0.600134
v -0.024115 -0.164591 -0.593222
v -0.099464 -0.284315 -0.601023
v -0.293395 -0.199137 -0.623561
v -0.345719 -0.048980 -0.628978
v -0.392535 -0.126536 -0.373274
v -0.133026 0.105013 -0.357792
v -0.222807 -0.268202 -0.362963
v 0.000000 -0.304358 -0.352107
v -0.321239 0.029890 0.287238
v -0.101408 -0.026702 0.262264
v -0.062843 -0.148007 0.257837
v 0.000000 -0.167890 0.252345
v 0.272439 -0.121027 0.745232
v 0.182862 -0.068274 0.818030
v 0.238432 -0.006855 -0.749910
v 0.213206 -0.068274 -0.799593
v 0.150156 -0.092197 -0.809611
v 0.149008 -0.013803 -0.791905
v 0.102737 -0.027855 -0.786365
v 0.080024 -0.047789 -0.730941
v 0.090597 0.047254 0.703375
v 0.074440 -0.027855 0.793073
v 0.116209 -0.092197 0.833827
v 0.119854 -0.013803 0.803527
v 0.153835 -0.222879 0.716616
v 0.099721 -0.153407 -0.802580
v 0.051366 -0.138633 -0.726641
v 0.070603 -0.153407 0.821399
v 0.186803 -0.151426 -0.796431
v 0.156949 -0.151426 0.812065
v 0.062481 -0.107121 0.790320
v 0.090553 -0.107121 -0.784906
v 0.055517 -0.198826 0.781610
v 0.024058 -0.157718 0.774369
v 0.037958 -0.157718 -0.774764
v 0.070010 -0.198826 -0.778602
v 0.392646 -0.126536 0.295351
v 0.221936 -0.006855 0.733607
v 0.066462 -0.047789 0.697819
v 0.135533 0.105013 0.266141
v 0.224019 -0.268202 0.276148
v 0.039844 -0.138633 0.690377
v 0.098592 -0.284315 0.528921
v 0.024450 -0.164591 0.514203
v 0.067496 -0.098141 0.525321
v 0.290139 -0.199138 0.569519
v 0.193125 0.075200 0.550260
v 0.086093 0.042890 0.529012
v 0.341625 -0.048980 0.579740
v 0.320462 0.029890 -0.368974
v 0.098583 -0.026702 -0.355737
v 0.060131 -0.148007 -0.353257
v 0.289888 -0.121027 -0.756071
v 0.104614 0.047254 -0.733886
v 0.167507 -0.222879 -0.740549
v 0.086028 0.042890 -0.602091
v 0.194803 0.075200 -0.613353
v 0.067129 -0.098141 -0.600134
v 0.024115 -0.164591 -0.593222
v 0.099464 -0.284315 -0.601023
v 0.293395 -0.199137 -0.623561
v 0.345719 -0.048980 -0.628978
v 0.392535 -0.126536 -0.373274
v 0.133026 0.105013 -0.357792
v 0.222807 -0.268202 -0.362963
v 0.321239 0.029890 0.287238
v 0.101408 -0.026702 0.262264
v 0.062843 -0.148007 0.257837
v -0.186385 -0.111065 0.818841
v -0.173829 -0.030464 0.791732
v -0.216795 -0.111065 -0.800022
v -0.200221 -0.030464 -0.784374
v -0.072654 -0.069435 0.792662
v -0.089087 0.003575 0.772225
v -0.100917 -0.069435 -0.786147
v -0.113879 0.003575 -0.774035
v -0.134214 -0.182849 -0.789173
v -0.108633 -0.182849 0.799167
v -0.070086 -0.137639 -0.781494
v -0.045692 -0.137639 0.784679
v -0.349487 -0.125159 0.581301
v -0.283766 0.020704 0.568254
v -0.081443 -0.031973 0.528089
v -0.112851 0.090573 0.534324
v -0.195775 -0.256871 0.550143
v -0.047436 -0.145664 0.520695
v -0.286919 0.020704 -0.622890
v -0.081303 -0.031973 -0.601602
v -0.046926 -0.145664 -0.597428
v -0.353710 -0.125159 -0.629805
v -0.113222 0.090573 -0.604906
v -0.197679 -0.256871 -0.613036
v 0.186385 -0.111065 0.818841
v 0.173829 -0.030464 0.791732
v 0.216795 -0.111065 -0.800022
v 0.200221 -0.030464 -0.784374
v 0.072654 -0.069435 0.792662
v 0.089087 0.003575 0.772225
v 0.100917 -0.069435 -0.786147
v 0.113879 0.003575 -0.774035
v 0.134214 -0.182849 -0.789173
v 0.108633 -0.182849 0.799167
v 0.070086 -0.137639 -0.781494
v 0.045692 -0.137639 0.784679
v 0.000000 -0.202953 -0.772489
v 0.000000 -0.202954 0.771667
v -0.000000 -0.165148 -0.770569
v -0.000000 -0.165148 0.768047
v 0.349487 -0.125159 0.581301
v 0.283766 0.020704 0.568254
v 0.081443 -0.031973 0.528089
v 0.112851 0.090573 0.534324
v 0.195775 -0.256871 0.550143
v 0.047436 -0.145664 0.520695
v 0.000000 -0.290464 0.517849
v 0.000000 -0.166905 0.510490
v 0.286919 0.020704 -0.622890
v 0.081303 -0.031973 -0.601602
v 0.046926 -0.145664 -0.597428
v 0.000000 -0.166905 -0.590744
v 0.353710 -0.125159 -0.629805
v 0.113222 0.090573 -0.604906
v 0.197679 -0.256871 -0.613036
v 0.000000 -0.290464 -0.594645
vn -0.8896 0.0978 -0.4462
vn -0.6857 0.6111 -0.3955
vn -0.4376 0.4500 -0.7785
vn -0.5234 0.0595 -0.8500
vn -0.1514 0.0148 -0.9884
vn -0.2373 0.4043 -0.8833
vn 0.2271 0.3971 -0.8892
vn 0.4353 0.0044 -0.9003
vn 0.9947 0.0626 -0.0821
vn 0.8733 0.4872 0.0104
vn 0.8320 0.4899 0.2604
vn 0.9960 0.0526 0.0724
vn 0.6928 0.0070 0.7211
vn 0.3506 0.5949 0.7233
vn -0.3093 0.5620 0.7671
vn -0.2224 0.0240 0.9747
vn 0.7637 0.6455 -0.0006
vn -0.7753 -0.6316 -0.0005
vn -0.5047 -0.8588 0.0884
vn -0.7655 -0.6323 0.1188
vn -0.1279 0.9570 0.2603
vn -0.4433 0.8421 0.3072
vn -0.3383 0.7500 0.5684
vn -0.0156 0.8558 0.5172
vn 0.9780 0.2077 -0.0165
vn 0.9162 0.4005 -0.0140
vn 0.8395 0.4303 -0.3319
vn 0.8955 0.2018 -0.3966
vn 0.9076 0.4198 0.0042
vn 0.9754 0.2093 -0.0689
vn 0.9105 0.4090 -0.0604
vn -0.5115 -0.8593 -0.0008
vn 0.6142 0.5593 0.5566
vn 0.0211 -0.6548 0.7555
vn 0.0578 -0.7135 0.6982
vn 0.2858 0.8782 0.3834
vn 0.0161 -0.4585 -0.8885
vn 0.3854 0.4942 -0.7793
vn 0.1770 0.7918 -0.5845
vn 0.0364 -0.5114 -0.8585
vn 0.6687 0.7418 -0.0509
vn 0.7077 0.7060 0.0274
vn 0.2742 0.9616 0.0062
vn 0.1602 0.9867 -0.0279
vn -0.2085 -0.9285 -0.3072
vn -0.0809 -0.7357 -0.6724
vn 0.0129 -0.7460 -0.6658
vn -0.0339 -0.9505 -0.3089
vn -0.1049 -0.8705 0.4809
vn -0.2039 -0.9466 0.2498
vn -0.0289 -0.9700 0.2413
vn 0.0154 -0.8873 0.4609
vn 0.0412 0.9991 0.0001
vn 0.5743 0.8180 -0.0331
vn 0.0626 0.9980 -0.0067
vn 0.9777 0.2097 0.0046
vn -0.7024 -0.6049 -0.3752
vn -0.4352 -0.4155 -0.7987
vn -0.2804 -0.6372 -0.7179
vn -0.4559 -0.8297 -0.3222
vn 0.4047 0.1147 -0.9072
vn 0.4104 0.2532 -0.8760
vn -0.0740 -0.3051 -0.9494
vn -0.1143 -0.1479 -0.9824
vn 0.5356 0.8445 0.0019
vn -0.1857 0.9826 -0.0006
vn -0.4999 0.8608 0.0952
vn -0.1769 0.9819 0.0672
vn -0.5093 0.8606 -0.0010
vn 0.9980 0.0630 0.0045
vn 0.8682 0.4939 -0.0466
vn 0.9953 0.0629 -0.0735
vn -0.6559 0.0774 0.7509
vn -0.5210 0.5573 0.6465
vn -0.6874 0.6294 0.3624
vn -0.9014 0.1015 0.4210
vn 0.9302 0.0486 -0.3638
vn 0.7101 0.4151 -0.5687
vn 0.8671 0.4867 -0.1062
vn 0.9980 0.0628 0.0023
vn -0.0218 0.6970 -0.7168
vn -0.2935 0.6201 -0.7276
vn -0.4491 0.8219 -0.3504
vn -0.1405 0.9362 -0.3222
vn -0.1627 -0.2398 0.9571
vn -0.1059 -0.4596 0.8818
vn 0.6488 0.3424 0.6796
vn 0.6488 0.1820 0.7388
vn 0.5956 0.7897 -0.1472
vn 0.6365 0.7710 0.0200
vn 0.1423 0.9893 0.0326
vn 0.1934 0.9809 -0.0216
vn -0.0584 -0.9983 -0.0000
vn -0.2575 -0.9639 -0.0682
vn -0.0572 -0.9967 -0.0574
vn 0.8689 0.4950 0.0037
vn 0.9701 0.2212 0.1001
vn 0.9069 0.4146 0.0747
vn 0.9196 0.3884 -0.0588
vn 0.9761 0.2071 -0.0663
vn -0.2588 -0.9659 -0.0004
vn -0.9945 0.1045 -0.0002
vn -0.7533 0.6461 -0.1228
vn -0.9834 0.1047 -0.1483
vn -0.7031 -0.6208 0.3468
vn -0.4530 -0.8453 0.2833
vn -0.3331 -0.7600 0.5581
vn -0.5259 -0.5226 0.6710
vn -0.9835 0.1046 0.1479
vn -0.7537 0.6458 0.1216
vn -0.2543 -0.9650 0.0647
vn -0.0556 -0.9970 0.0533
vn 0.9956 0.0633 0.0686
vn 0.8668 0.4971 0.0403
vn -0.1790 0.9813 -0.0712
vn -0.5001 0.8605 -0.0976
vn 0.5855 0.8100 0.0319
vn 0.0650 0.9979 0.0071
vn 0.9755 0.2107 0.0639
vn 0.9119 0.4065 0.0563
vn -0.7650 -0.6328 -0.1195
vn -0.5057 -0.8580 -0.0904
vn 0.8896 0.0978 -0.4462
vn 0.5234 0.0595 -0.8500
vn 0.4376 0.4500 -0.7785
vn 0.6857 0.6111 -0.3955
vn 0.1514 0.0148 -0.9884
vn -0.4353 0.0044 -0.9003
vn -0.2271 0.3971 -0.8892
vn 0.2373 0.4043 -0.8833
vn -0.9947 0.0626 -0.0821
vn -0.9960 0.0526 0.0724
vn -0.8320 0.4899 0.2604
vn -0.8733 0.4872 0.0104
vn -0.6928 0.0070 0.7211
vn 0.2224 0.0240 0.9747
vn 0.3093 0.5620 0.7671
vn -0.3506 0.5949 0.7233
vn 0.7655 -0.6323 0.1188
vn 0.5047 -0.8588 0.0884
vn 0.7753 -0.6316 -0.0005
vn 0.1279 0.9570 0.2603
vn 0.0156 0.8558 0.5171
vn 0.3383 0.7500 0.5684
vn 0.4433 0.8421 0.3072
vn -0.9780 0.2077 -0.0165
vn -0.8955 0.2018 -0.3966
vn -0.8395 0.4303 -0.3319
vn -0.9162 0.4005 -0.0140
vn -0.9076 0.4198 0.0042
vn 0.5115 -0.8593 -0.0008
vn -0.9105 0.4090 -0.0604
vn -0.9754 0.2093 -0.0689
vn -0.6142 0.5593 0.5566
vn -0.2858 0.8782 0.3834
vn -0.0578 -0.7135 0.6982
vn -0.0211 -0.6548 0.7555
vn -0.0161 -0.4585 -0.8885
vn -0.0364 -0.5114 -0.8585
vn -0.1770 0.7918 -0.5845
vn -0.3854 0.4942 -0.7793
vn -0.6687 0.7418 -0.0509
vn -0.1602 0.9867 -0.0279
vn -0.2742 0.9616 0.0062
vn -0.7077 0.7060 0.0274
vn 0.2085 -0.9285 -0.3072
vn 0.0339 -0.9505 -0.3089
vn -0.0129 -0.7460 -0.6658
vn 0.0809 -0.7357 -0.6724
vn 0.1049 -0.8705 0.4809
vn -0.0154 -0.8873 0.4609
vn 0.0289 -0.9700 0.2413
vn 0.2039 -0.9466 0.2498
vn -0.0412 0.9991 0.0001
vn -0.9777 0.2097 0.0046
vn -0.0626 0.9980 -0.0067
vn -0.5743 0.8180 -0.0331
vn 0.7024 -0.6049 -0.3752
vn 0.4559 -0.8297 -0.3222
vn 0.2804 -0.6372 -0.7179
vn 0.4352 -0.4155 -0.7987
vn -0.4047 0.1147 -0.9072
vn 0.1143 -0.1479 -0.9824
vn 0.0740 -0.3051 -0.9494
vn -0.4104 0.2532 -0.8760
vn -0.5356 0.8445 0.0019
vn 0.1769 0.9819 0.0672
vn 0.4999 0.8608 0.0952
vn 0.1857 0.9826 -0.0006
vn 0.5093 0.8606 -0.0010
vn -0.9953 0.0629 -0.0735
vn -0.8682 0.4939 -0.0466
vn -0.9980 0.0630 0.0045
vn 0.6559 0.0774 0.7509
vn 0.9014 0.1015 0.4210
vn 0.6874 0.6294 0.3624
vn 0.5210 0.5573 0.6465
vn -0.9302 0.0486 -0.3638
vn -0.9980 0.0628 0.0023
vn -0.8671 0.4867 -0.1062
vn -0.7101 0.4151 -0.5687
vn 0.0218 0.6970 -0.7168
vn 0.1405 0.9362 -0.3222
vn 0.4491 0.8219 -0.3504
vn 0.2935 0.6201 -0.7276
vn 0.1627 -0.2398 0.9571
vn -0.6488 0.1820 0.7388
vn -0.6488 0.3424 0.6796
vn 0.1059 -0.4596 0.8818
vn -0.5956 0.7897 -0.1472
vn -0.1934 0.9809 -0.0216
vn -0.1423 0.9893 0.0326
vn -0.6365 0.7710 0.0200
vn 0.0584 -0.9983 -0.0000
vn -0.8689 0.4950 0.0037
vn 0.0572 -0.9967 -0.0574
vn 0.2575 -0.9639 -0.0682
vn -0.9701 0.2212 0.1001
vn -0.9761 0.2071 -0.0663
vn -0.9196 0.3884 -0.0588
vn -0.9069 0.4146 0.0747
vn 0.2588 -0.9659 -0.0004
vn 0.9834 0.1047 -0.1483
vn 0.7533 0.6461 -0.1228
vn 0.9945 0.1045 -0.0002
vn 0.7031 -0.6208 0.3468
vn 0.5259 -0.5226 0.6710
vn 0.3331 -0.7600 0.5581
vn 0.4530 -0.8453 0.2833
vn 0.9835 0.1046 0.1479
vn 0.7537 0.6458 0.1216
vn 0.2543 -0.9650 0.0647
vn 0.0556 -0.9970 0.0533
vn -0.9956 0.0633 0.0686
vn -0.8668 0.4971 0.0403
vn 0.1790 0.9813 -0.0712
vn 0.5001 0.8605 -0.0976
vn -0.5855 0.8100 0.0319
vn -0.0650 0.9979 0.0071
vn -0.9755 0.2107 0.0639
vn -0.9119 0.4065 0.0563
vn 0.7650 -0.6328 -0.1195
vn 0.5057 -0.8580 -0.0904
vn -0.7637 0.6455 -0.0006
usemtl LightYellow
s off
f 1//1 116//1 212//1 126//1
f 1//2 126//2 209//2 71//2
f 1//3 71//3 194//3 72//3
f 1//4 72//4 193//4 116//4
f 2//5 73//5 193//5 72//5
f 2//6 72//6 194//6 74//6
f 2//7 74//7 198//7 75//7
f 2//8 75//8 197//8 73//8
f 3//9 99//9 205//9 110//9
f 3//10 110//10 206//10 77//10
f 3//11 77//11 196//11 78//11
f 3//12 78//12 195//12 99//12
f 4//13 79//13 195//13 78//13
f 4//14 78//14 196//14 80//14
f 4//15 80//15 192//15 70//15
f 4//16 70//16 191//16 79//16
f 62//17 60//17 172//17 188//17
f 34//18 5//18 97//18 127//18
f 5//19 101//19 207//19 108//19
f 5//20 108//20 203//20 97//20
f 6//21 77//21 206//21 109//21
f 6//22 109//22 204//22 98//22
f 6//23 98//23 192//23 80//23
f 6//24 80//24 196//24 77//24
f 7//25 76//25 210//25 122//25
f 7//26 122//26 211//26 83//26
f 7//27 83//27 201//27 88//27
f 7//28 88//28 197//28 76//28
f 33//29 8//29 133//29 114//29
f 8//30 132//30 205//30 107//30
f 8//31 107//31 208//31 133//31
f 34//32 129//32 101//32 5//32
f 9//33 94//33 202//33 84//33
f 9//34 84//34 200//34 93//34
f 9//35 93//35 228//35 92//35
f 9//36 92//36 230//36 94//36
f 10//37 96//37 199//37 82//37
f 10//38 82//38 201//38 95//38
f 10//39 95//39 229//39 90//39
f 10//40 90//40 227//40 96//40
f 11//41 106//41 208//41 102//41
f 11//42 102//42 202//42 94//42
f 11//43 94//43 230//43 104//43
f 11//44 104//44 238//44 106//44
f 12//45 124//45 214//45 118//45
f 12//46 118//46 199//46 96//46
f 12//47 96//47 227//47 119//47
f 12//48 119//48 246//48 124//48
f 13//49 93//49 200//49 81//49
f 13//50 81//50 207//50 105//50
f 13//51 105//51 237//51 89//51
f 13//52 89//52 228//52 93//52
f 32//53 14//53 134//53 115//53
f 14//54 133//54 208//54 106//54
f 14//55 106//55 238//55 134//55
f 33//56 113//56 132//56 8//56
f 15//57 125//57 212//57 116//57
f 15//58 116//58 193//58 85//58
f 15//59 85//59 199//59 118//59
f 15//60 118//60 214//60 125//60
f 16//61 73//61 197//61 88//61
f 16//62 88//62 201//62 82//62
f 16//63 82//63 199//63 85//63
f 16//64 85//64 193//64 73//64
f 32//65 114//65 133//65 14//65
f 31//66 17//66 100//66 128//66
f 17//67 131//67 204//67 109//67
f 17//68 109//68 206//68 100//68
f 31//69 112//69 131//69 17//69
f 30//70 18//70 132//70 113//70
f 18//71 100//71 206//71 110//71
f 18//72 110//72 205//72 132//72
f 19//73 69//73 191//73 70//73
f 19//74 70//74 192//74 98//74
f 19//75 98//75 204//75 111//75
f 19//76 111//76 203//76 69//76
f 20//77 76//77 197//77 75//77
f 20//78 75//78 198//78 117//78
f 20//79 117//79 213//79 120//79
f 20//80 120//80 210//80 76//80
f 21//81 117//81 198//81 74//81
f 21//82 74//82 194//82 71//82
f 21//83 71//83 209//83 121//83
f 21//84 121//84 213//84 117//84
f 22//85 79//85 191//85 86//85
f 22//86 86//86 200//86 84//86
f 22//87 84//87 202//87 87//87
f 22//88 87//88 195//88 79//88
f 23//89 95//89 201//89 83//89
f 23//90 83//90 211//90 123//90
f 23//91 123//91 242//91 91//91
f 23//92 91//92 229//92 95//92
f 29//93 24//93 130//93 103//93
f 24//94 129//94 214//94 124//94
f 24//95 124//95 246//95 130//95
f 30//96 128//96 100//96 18//96
f 25//97 99//97 195//97 87//97
f 25//98 87//98 202//98 102//98
f 25//99 102//99 208//99 107//99
f 25//100 107//100 205//100 99//100
f 29//101 101//101 129//101 24//101
f 28//102 26//102 127//102 97//102
f 26//103 112//103 209//103 126//103
f 26//104 126//104 212//104 127//104
f 27//105 69//105 203//105 108//105
f 27//106 108//106 207//106 81//106
f 27//107 81//107 200//107 86//107
f 27//108 86//108 191//108 69//108
f 28//109 97//109 203//109 111//109
f 28//110 111//110 204//110 131//110
f 29//111 105//111 207//111 101//111
f 29//112 103//112 237//112 105//112
f 30//113 113//113 210//113 120//113
f 30//114 120//114 213//114 128//114
f 31//115 128//115 213//115 121//115
f 31//116 121//116 209//116 112//116
f 32//117 123//117 211//117 114//117
f 32//118 115//118 242//118 123//118
f 33//119 122//119 210//119 113//119
f 33//120 114//120 211//120 122//120
f 34//121 127//121 212//121 125//121
f 34//122 125//122 214//122 129//122
f 35//123 184//123 243//123 175//123
f 35//124 175//124 217//124 138//124
f 35//125 138//125 218//125 137//125
f 35//126 137//126 239//126 184//126
f 36//127 138//127 217//127 139//127
f 36//128 139//128 221//128 141//128
f 36//129 141//129 222//129 140//129
f 36//130 140//130 218//130 138//130
f 37//131 170//131 233//131 161//131
f 37//132 161//132 219//132 144//132
f 37//133 144//133 220//133 143//133
f 37//134 143//134 234//134 170//134
f 38//135 144//135 219//135 145//135
f 38//136 145//136 215//136 136//136
f 38//137 136//137 216//137 146//137
f 38//138 146//138 220//138 144//138
f 39//139 159//139 231//139 168//139
f 39//140 168//140 235//140 163//140
f 68//141 185//141 159//141 39//141
f 40//142 169//142 234//142 143//142
f 40//143 143//143 220//143 146//143
f 40//144 146//144 216//144 160//144
f 40//145 160//145 232//145 169//145
f 41//146 180//146 240//146 142//146
f 41//147 142//147 221//147 154//147
f 41//148 154//148 225//148 149//148
f 41//149 149//149 241//149 180//149
f 67//150 174//150 190//150 42//150
f 68//151 39//151 163//151 187//151
f 42//152 190//152 236//152 167//152
f 42//153 167//153 233//153 189//153
f 43//154 150//154 226//154 156//154
f 43//155 156//155 230//155 92//155
f 43//156 92//156 228//156 155//156
f 43//157 155//157 224//157 150//157
f 44//158 148//158 223//158 158//158
f 44//159 158//159 227//159 90//159
f 44//160 90//160 229//160 157//160
f 44//161 157//161 225//161 148//161
f 45//162 164//162 236//162 166//162
f 45//163 166//163 238//163 104//163
f 45//164 104//164 230//164 156//164
f 45//165 156//165 226//165 164//165
f 46//166 177//166 245//166 182//166
f 46//167 182//167 246//167 119//167
f 46//168 119//168 227//168 158//168
f 46//169 158//169 223//169 177//169
f 47//170 147//170 224//170 155//170
f 47//171 155//171 228//171 89//171
f 47//172 89//172 237//172 165//172
f 47//173 165//173 235//173 147//173
f 66//174 115//174 134//174 48//174
f 67//175 42//175 189//175 173//175
f 48//176 134//176 238//176 166//176
f 48//177 166//177 236//177 190//177
f 49//178 175//178 243//178 183//178
f 49//179 183//179 245//179 177//179
f 49//180 177//180 223//180 151//180
f 49//181 151//181 217//181 175//181
f 50//182 154//182 221//182 139//182
f 50//183 139//183 217//183 151//183
f 50//184 151//184 223//184 148//184
f 50//185 148//185 225//185 154//185
f 66//186 48//186 190//186 174//186
f 51//187 162//187 234//187 169//187
f 51//188 169//188 232//188 188//188
f 65//189 186//189 162//189 51//189
f 65//190 51//190 188//190 172//190
f 52//191 189//191 233//191 170//191
f 52//192 170//192 234//192 162//192
f 64//193 173//193 189//193 52//193
f 53//194 136//194 215//194 135//194
f 53//195 135//195 231//195 171//195
f 53//196 171//196 232//196 160//196
f 53//197 160//197 216//197 136//197
f 54//198 141//198 221//198 142//198
f 54//199 142//199 240//199 178//199
f 54//200 178//200 244//200 176//200
f 54//201 176//201 222//201 141//201
f 55//202 140//202 222//202 176//202
f 55//203 176//203 244//203 179//203
f 55//204 179//204 239//204 137//204
f 55//205 137//205 218//205 140//205
f 56//206 152//206 215//206 145//206
f 56//207 145//207 219//207 153//207
f 56//208 153//208 226//208 150//208
f 56//209 150//209 224//209 152//209
f 57//210 149//210 225//210 157//210
f 57//211 157//211 229//211 91//211
f 57//212 91//212 242//212 181//212
f 57//213 181//213 241//213 149//213
f 63//214 103//214 130//214 58//214
f 64//215 52//215 162//215 186//215
f 58//216 130//216 246//216 182//216
f 58//217 182//217 245//217 187//217
f 59//218 153//218 219//218 161//218
f 59//219 161//219 233//219 167//219
f 59//220 167//220 236//220 164//220
f 59//221 164//221 226//221 153//221
f 63//222 58//222 187//222 163//222
f 60//223 185//223 243//223 184//223
f 60//224 184//224 239//224 172//224
f 62//225 159//225 185//225 60//225
f 61//226 168//226 231//226 135//226
f 61//227 135//227 215//227 152//227
f 61//228 152//228 224//228 147//228
f 61//229 147//229 235//229 168//229
f 62//230 171//230 231//230 159//230
f 62//231 188//231 232//231 171//231
f 63//232 163//232 235//232 165//232
f 63//233 165//233 237//233 103//233
f 64//234 178//234 240//234 173//234
f 64//235 186//235 244//235 178//235
f 65//236 179//236 244//236 186//236
f 65//237 172//237 239//237 179//237
f 66//238 174//238 241//238 181//238
f 66//239 181//239 242//239 115//239
f 67//240 173//240 240//240 180//240
f 67//241 180//241 241//241 174//241
f 68//242 183//242 243//242 185//242
f 68//243 187//243 245//243 183//243
f 28//244 131//244 112//244 26//244
