# Blender v2.79 (sub 0) OBJ File: 'IceCream_Cone.blend'
# www.blender.org
mtllib IceCream_Cone.mtl
o IceCream_Cone_Cylinder.028
v 0.166337 0.540489 0.224297
v -0.040984 0.540489 0.276220
v -0.224297 0.540489 0.166337
v -0.276220 0.540489 -0.040984
v -0.166337 0.540489 -0.224297
v 0.040984 0.540489 -0.276220
v 0.224297 0.540489 -0.166337
v 0.276220 0.540489 0.040984
v 0.025203 -0.260483 0.011466
v 0.057238 -0.227245 0.028487
v 0.009714 -0.260483 0.025929
v 0.020330 -0.227245 0.060617
v -0.011466 -0.260483 0.025203
v -0.028487 -0.227245 0.057238
v -0.025929 -0.260483 0.009714
v -0.060617 -0.227245 0.020330
v -0.025203 -0.260483 -0.011466
v -0.057238 -0.227245 -0.028487
v -0.009714 -0.260483 -0.025929
v -0.020330 -0.227245 -0.060617
v 0.011466 -0.260483 -0.025203
v 0.028487 -0.227245 -0.057238
v 0.025929 -0.260483 -0.009714
v 0.060617 -0.227245 -0.020330
v 0.075368 -0.141941 0.045153
v 0.091244 -0.056637 0.064574
v 0.104818 0.028666 0.086192
v 0.116280 0.113970 0.109362
v 0.126080 0.199274 0.133398
v 0.134929 0.284578 0.157607
v 0.143783 0.369882 0.181305
v 0.153809 0.455186 0.203793
v -0.035344 0.455186 0.252863
v -0.026532 0.369882 0.229872
v -0.016036 0.284578 0.206854
v -0.005174 0.199274 0.183478
v 0.004892 0.113970 0.159553
v 0.013171 0.028666 0.135064
v 0.018859 -0.056637 0.110179
v 0.021365 -0.141941 0.085221
v 0.085221 -0.141941 -0.021365
v 0.110179 -0.056637 -0.018859
v 0.135064 0.028666 -0.013171
v 0.159553 0.113970 -0.004892
v 0.183478 0.199274 0.005174
v 0.206854 0.284578 0.016036
v 0.229872 0.369882 0.026532
v 0.252863 0.455186 0.035344
v -0.203793 0.455186 0.153809
v -0.181305 0.369882 0.143783
v -0.157607 0.284578 0.134929
v -0.133398 0.199274 0.126080
v -0.109362 0.113970 0.116280
v -0.086192 0.028666 0.104818
v -0.064574 -0.056637 0.091244
v -0.045153 -0.141941 0.075368
v -0.252863 0.455186 -0.035344
v -0.229872 0.369882 -0.026532
v -0.206854 0.284578 -0.016036
v -0.183478 0.199274 -0.005174
v -0.159553 0.113970 0.004892
v -0.135064 0.028666 0.013171
v -0.110179 -0.056637 0.018859
v -0.085221 -0.141941 0.021365
v -0.153809 0.455186 -0.203793
v -0.143783 0.369882 -0.181305
v -0.134929 0.284578 -0.157607
v -0.126080 0.199274 -0.133398
v -0.116280 0.113970 -0.109362
v -0.104818 0.028666 -0.086192
v -0.091244 -0.056637 -0.064574
v -0.075368 -0.141941 -0.045153
v 0.035344 0.455186 -0.252863
v 0.026532 0.369882 -0.229872
v 0.016036 0.284578 -0.206854
v 0.005174 0.199274 -0.183478
v -0.004892 0.113970 -0.159553
v -0.013171 0.028666 -0.135064
v -0.018859 -0.056637 -0.110179
v -0.021365 -0.141941 -0.085221
v 0.203793 0.455186 -0.153809
v 0.181305 0.369882 -0.143783
v 0.157607 0.284578 -0.134929
v 0.133398 0.199274 -0.126080
v 0.109362 0.113970 -0.116280
v 0.086192 0.028666 -0.104818
v 0.064574 -0.056637 -0.091244
v 0.045153 -0.141941 -0.075368
v 0.146288 0.549958 0.197128
v -0.035950 0.549958 0.242831
v -0.197128 0.549958 0.146288
v -0.242831 0.549958 -0.035950
v -0.146288 0.549958 -0.197128
v 0.035950 0.549958 -0.242831
v 0.197128 0.549958 -0.146288
v 0.242831 0.549958 0.035950
v 0.011388 -0.228918 0.004936
v 0.030194 -0.209855 0.014485
v 0.004562 -0.228918 0.011543
v 0.011109 -0.209855 0.031593
v -0.004936 -0.228918 0.011388
v -0.014485 -0.209855 0.030194
v -0.011543 -0.228918 0.004562
v -0.031593 -0.209855 0.011109
v -0.011388 -0.228918 -0.004936
v -0.030194 -0.209855 -0.014485
v -0.004562 -0.228918 -0.011543
v -0.011109 -0.209855 -0.031593
v 0.004936 -0.228918 -0.011388
v 0.014485 -0.209855 -0.030194
v 0.011543 -0.228918 -0.004562
v 0.031593 -0.209855 -0.011109
v 0.046448 -0.132465 0.027728
v 0.063706 -0.047163 0.045036
v 0.078747 0.038138 0.064735
v 0.091685 0.123441 0.086228
v 0.102886 0.208744 0.108857
v 0.112975 0.294047 0.131951
v 0.122820 0.379350 0.154834
v 0.133506 0.464654 0.176812
v -0.030622 0.464654 0.219428
v -0.022638 0.379350 0.196330
v -0.013419 0.294047 0.173188
v -0.004223 0.208744 0.149725
v 0.003859 0.123441 0.125803
v 0.009909 0.038138 0.101456
v 0.013202 -0.047163 0.076892
v 0.013237 -0.132465 0.052449
v 0.052449 -0.132465 -0.013237
v 0.076892 -0.047163 -0.013202
v 0.101456 0.038138 -0.009909
v 0.125803 0.123441 -0.003859
v 0.149725 0.208744 0.004223
v 0.173188 0.294047 0.013419
v 0.196330 0.379350 0.022638
v 0.219428 0.464654 0.030622
v -0.176812 0.464654 0.133505
v -0.154834 0.379350 0.122820
v -0.131951 0.294047 0.112975
v -0.108857 0.208744 0.102886
v -0.086228 0.123441 0.091685
v -0.064735 0.038138 0.078747
v -0.045036 -0.047163 0.063706
v -0.027728 -0.132465 0.046448
v -0.219428 0.464654 -0.030622
v -0.196330 0.379350 -0.022638
v -0.173188 0.294047 -0.013419
v -0.149725 0.208744 -0.004223
v -0.125803 0.123441 0.003859
v -0.101456 0.038138 0.009909
v -0.076892 -0.047163 0.013202
v -0.052449 -0.132465 0.013237
v -0.133505 0.464654 -0.176812
v -0.122820 0.379350 -0.154834
v -0.112975 0.294047 -0.131951
v -0.102886 0.208744 -0.108857
v -0.091685 0.123441 -0.086228
v -0.078747 0.038138 -0.064735
v -0.063706 -0.047163 -0.045036
v -0.046448 -0.132465 -0.027728
v 0.030622 0.464654 -0.219428
v 0.022638 0.379350 -0.196330
v 0.013419 0.294047 -0.173188
v 0.004223 0.208744 -0.149725
v -0.003859 0.123441 -0.125803
v -0.009909 0.038138 -0.101457
v -0.013202 -0.047163 -0.076892
v -0.013237 -0.132465 -0.052449
v 0.176812 0.464654 -0.133506
v 0.154834 0.379350 -0.122820
v 0.131951 0.294047 -0.112975
v 0.108857 0.208744 -0.102886
v 0.086228 0.123441 -0.091685
v 0.064735 0.038138 -0.078747
v 0.045036 -0.047163 -0.063706
v 0.027728 -0.132465 -0.046448
vn 0.8323 -0.2508 0.4944
vn -0.9381 -0.2508 0.2390
vn -0.8323 -0.2508 -0.4944
vn -0.2390 -0.2508 -0.9381
vn 0.4944 -0.2508 -0.8323
vn 0.9381 -0.2508 -0.2390
vn -0.4944 -0.2508 0.8323
vn 0.2390 -0.2508 0.9381
vn 0.4681 -0.7098 0.5264
vn -0.0412 -0.7098 0.7032
vn -0.5264 -0.7098 0.4681
vn -0.7032 -0.7098 -0.0412
vn -0.4681 -0.7098 -0.5264
vn 0.0412 -0.7098 -0.7032
vn 0.5264 -0.7098 -0.4681
vn 0.7032 -0.7098 0.0412
vn 0.0000 -1.0000 0.0000
vn 0.6020 -0.2510 0.7580
vn 0.5431 -0.2510 0.8013
vn 0.4831 -0.2510 0.8388
vn 0.4245 -0.2509 0.8700
vn 0.3697 -0.2509 0.8946
vn 0.3214 -0.2509 0.9131
vn 0.2819 -0.2509 0.9261
vn 0.2537 -0.2508 0.9342
vn -0.1103 -0.2510 0.9617
vn -0.1825 -0.2510 0.9506
vn -0.2515 -0.2510 0.9348
vn -0.3150 -0.2509 0.9153
vn -0.3712 -0.2509 0.8940
vn -0.4184 -0.2509 0.8729
vn -0.4555 -0.2509 0.8542
vn -0.4811 -0.2508 0.8400
vn 0.7580 -0.2510 -0.6020
vn 0.8013 -0.2510 -0.5431
vn 0.8388 -0.2510 -0.4831
vn 0.8700 -0.2509 -0.4245
vn 0.8946 -0.2509 -0.3697
vn 0.9131 -0.2509 -0.3214
vn 0.9261 -0.2509 -0.2819
vn 0.9342 -0.2508 -0.2537
vn 0.1103 -0.2510 -0.9617
vn 0.1825 -0.2510 -0.9506
vn 0.2515 -0.2510 -0.9348
vn 0.3150 -0.2509 -0.9153
vn 0.3712 -0.2509 -0.8940
vn 0.4184 -0.2509 -0.8729
vn 0.4555 -0.2509 -0.8542
vn 0.4811 -0.2508 -0.8400
vn -0.6020 -0.2510 -0.7580
vn -0.5431 -0.2510 -0.8013
vn -0.4831 -0.2510 -0.8388
vn -0.4245 -0.2509 -0.8700
vn -0.3697 -0.2509 -0.8946
vn -0.3214 -0.2509 -0.9131
vn -0.2819 -0.2509 -0.9261
vn -0.2537 -0.2508 -0.9342
vn -0.9617 -0.2510 -0.1103
vn -0.9506 -0.2510 -0.1825
vn -0.9348 -0.2510 -0.2515
vn -0.9153 -0.2509 -0.3150
vn -0.8940 -0.2509 -0.3712
vn -0.8729 -0.2509 -0.4184
vn -0.8542 -0.2509 -0.4555
vn -0.8400 -0.2508 -0.4811
vn -0.7580 -0.2510 0.6020
vn -0.8013 -0.2510 0.5431
vn -0.8388 -0.2510 0.4831
vn -0.8700 -0.2509 0.4245
vn -0.8946 -0.2509 0.3697
vn -0.9131 -0.2509 0.3214
vn -0.9261 -0.2509 0.2819
vn -0.9342 -0.2508 0.2537
vn 0.9617 -0.2510 0.1103
vn 0.9506 -0.2510 0.1825
vn 0.9348 -0.2510 0.2515
vn 0.9153 -0.2509 0.3150
vn 0.8940 -0.2509 0.3712
vn 0.8729 -0.2509 0.4184
vn 0.8542 -0.2509 0.4555
vn 0.8400 -0.2508 0.4811
vn -0.8324 0.2508 -0.4942
vn 0.9380 0.2508 -0.2392
vn 0.8324 0.2508 0.4942
vn 0.2392 0.2508 0.9380
vn -0.4942 0.2508 0.8324
vn -0.9380 0.2508 0.2392
vn 0.4942 0.2508 -0.8324
vn -0.2392 0.2508 -0.9380
vn -0.4723 0.7146 -0.5160
vn 0.0310 0.7146 -0.6988
vn 0.5160 0.7146 -0.4723
vn 0.6988 0.7146 0.0310
vn 0.4723 0.7146 0.5160
vn -0.0310 0.7146 0.6988
vn -0.5160 0.7146 0.4723
vn -0.6988 0.7146 -0.0310
vn 0.0000 1.0000 -0.0000
vn -0.6065 0.2391 -0.7583
vn -0.5420 0.2510 -0.8020
vn -0.4823 0.2510 -0.8393
vn -0.4238 0.2509 -0.8703
vn -0.3693 0.2509 -0.8948
vn -0.3211 0.2509 -0.9132
vn -0.2818 0.2509 -0.9261
vn -0.2538 0.2508 -0.9342
vn 0.1073 0.2391 -0.9651
vn 0.1838 0.2510 -0.9504
vn 0.2524 0.2510 -0.9345
vn 0.3157 0.2509 -0.9151
vn 0.3716 0.2509 -0.8938
vn 0.4187 0.2509 -0.8728
vn 0.4555 0.2509 -0.8541
vn 0.4811 0.2508 -0.8400
vn -0.7583 0.2391 0.6065
vn -0.8020 0.2510 0.5420
vn -0.8393 0.2510 0.4823
vn -0.8703 0.2509 0.4238
vn -0.8948 0.2509 0.3693
vn -0.9132 0.2509 0.3211
vn -0.9261 0.2509 0.2818
vn -0.9342 0.2508 0.2538
vn -0.1073 0.2391 0.9651
vn -0.1838 0.2510 0.9504
vn -0.2524 0.2510 0.9345
vn -0.3157 0.2509 0.9151
vn -0.3716 0.2509 0.8938
vn -0.4187 0.2509 0.8728
vn -0.4555 0.2509 0.8541
vn -0.4811 0.2508 0.8400
vn 0.6065 0.2391 0.7583
vn 0.5420 0.2510 0.8020
vn 0.4823 0.2510 0.8393
vn 0.4238 0.2509 0.8703
vn 0.3693 0.2509 0.8948
vn 0.3211 0.2509 0.9132
vn 0.2818 0.2509 0.9261
vn 0.2538 0.2508 0.9342
vn 0.9651 0.2391 0.1073
vn 0.9504 0.2510 0.1838
vn 0.9345 0.2510 0.2524
vn 0.9151 0.2509 0.3157
vn 0.8938 0.2509 0.3716
vn 0.8728 0.2509 0.4187
vn 0.8541 0.2509 0.4555
vn 0.8400 0.2508 0.4811
vn 0.7583 0.2391 -0.6065
vn 0.8020 0.2510 -0.5420
vn 0.8393 0.2510 -0.4823
vn 0.8703 0.2509 -0.4238
vn 0.8948 0.2509 -0.3693
vn 0.9132 0.2509 -0.3211
vn 0.9261 0.2509 -0.2818
vn 0.9342 0.2508 -0.2538
vn -0.9651 0.2391 -0.1073
vn -0.9504 0.2510 -0.1838
vn -0.9345 0.2510 -0.2524
vn -0.9151 0.2509 -0.3157
vn -0.8938 0.2509 -0.3716
vn -0.8728 0.2509 -0.4187
vn -0.8541 0.2509 -0.4555
vn -0.8400 0.2508 -0.4811
vn 0.0706 0.9569 0.2817
vn -0.1493 0.9569 0.2491
vn -0.2817 0.9569 0.0706
vn -0.2491 0.9569 -0.1493
vn -0.0706 0.9569 -0.2817
vn 0.1493 0.9569 -0.2491
vn 0.2817 0.9569 -0.0706
vn 0.2491 0.9569 0.1493
usemtl LightYellow
s off
f 48//1 8//1 1//1 32//1
f 49//2 3//2 4//2 57//2
f 57//3 4//3 5//3 65//3
f 65//4 5//4 6//4 73//4
f 73//5 6//5 7//5 81//5
f 81//6 7//6 8//6 48//6
f 33//7 2//7 3//7 49//7
f 32//8 1//8 2//8 33//8
f 10//9 12//9 11//9 9//9
f 12//10 14//10 13//10 11//10
f 14//11 16//11 15//11 13//11
f 16//12 18//12 17//12 15//12
f 18//13 20//13 19//13 17//13
f 20//14 22//14 21//14 19//14
f 22//15 24//15 23//15 21//15
f 24//16 10//16 9//16 23//16
f 9//17 11//17 13//17 15//17 17//17 19//17 21//17 23//17
f 10//18 25//18 40//18 12//18
f 25//19 26//19 39//19 40//19
f 26//20 27//20 38//20 39//20
f 27//21 28//21 37//21 38//21
f 28//22 29//22 36//22 37//22
f 29//23 30//23 35//23 36//23
f 30//24 31//24 34//24 35//24
f 31//25 32//25 33//25 34//25
f 12//26 40//26 56//26 14//26
f 40//27 39//27 55//27 56//27
f 39//28 38//28 54//28 55//28
f 38//29 37//29 53//29 54//29
f 37//30 36//30 52//30 53//30
f 36//31 35//31 51//31 52//31
f 35//32 34//32 50//32 51//32
f 34//33 33//33 49//33 50//33
f 22//34 88//34 41//34 24//34
f 88//35 87//35 42//35 41//35
f 87//36 86//36 43//36 42//36
f 86//37 85//37 44//37 43//37
f 85//38 84//38 45//38 44//38
f 84//39 83//39 46//39 45//39
f 83//40 82//40 47//40 46//40
f 82//41 81//41 48//41 47//41
f 20//42 80//42 88//42 22//42
f 80//43 79//43 87//43 88//43
f 79//44 78//44 86//44 87//44
f 78//45 77//45 85//45 86//45
f 77//46 76//46 84//46 85//46
f 76//47 75//47 83//47 84//47
f 75//48 74//48 82//48 83//48
f 74//49 73//49 81//49 82//49
f 18//50 72//50 80//50 20//50
f 72//51 71//51 79//51 80//51
f 71//52 70//52 78//52 79//52
f 70//53 69//53 77//53 78//53
f 69//54 68//54 76//54 77//54
f 68//55 67//55 75//55 76//55
f 67//56 66//56 74//56 75//56
f 66//57 65//57 73//57 74//57
f 16//58 64//58 72//58 18//58
f 64//59 63//59 71//59 72//59
f 63//60 62//60 70//60 71//60
f 62//61 61//61 69//61 70//61
f 61//62 60//62 68//62 69//62
f 60//63 59//63 67//63 68//63
f 59//64 58//64 66//64 67//64
f 58//65 57//65 65//65 66//65
f 14//66 56//66 64//66 16//66
f 56//67 55//67 63//67 64//67
f 55//68 54//68 62//68 63//68
f 54//69 53//69 61//69 62//69
f 53//70 52//70 60//70 61//70
f 52//71 51//71 59//71 60//71
f 51//72 50//72 58//72 59//72
f 50//73 49//73 57//73 58//73
f 24//74 41//74 25//74 10//74
f 41//75 42//75 26//75 25//75
f 42//76 43//76 27//76 26//76
f 43//77 44//77 28//77 27//77
f 44//78 45//78 29//78 28//78
f 45//79 46//79 30//79 29//79
f 46//80 47//80 31//80 30//80
f 47//81 48//81 32//81 31//81
f 136//82 120//82 89//82 96//82
f 137//83 145//83 92//83 91//83
f 145//84 153//84 93//84 92//84
f 153//85 161//85 94//85 93//85
f 161//86 169//86 95//86 94//86
f 169//87 136//87 96//87 95//87
f 121//88 137//88 91//88 90//88
f 120//89 121//89 90//89 89//89
f 98//90 97//90 99//90 100//90
f 100//91 99//91 101//91 102//91
f 102//92 101//92 103//92 104//92
f 104//93 103//93 105//93 106//93
f 106//94 105//94 107//94 108//94
f 108//95 107//95 109//95 110//95
f 110//96 109//96 111//96 112//96
f 112//97 111//97 97//97 98//97
f 97//98 111//98 109//98 107//98 105//98 103//98 101//98 99//98
f 98//99 100//99 128//99 113//99
f 113//100 128//100 127//100 114//100
f 114//101 127//101 126//101 115//101
f 115//102 126//102 125//102 116//102
f 116//103 125//103 124//103 117//103
f 117//104 124//104 123//104 118//104
f 118//105 123//105 122//105 119//105
f 119//106 122//106 121//106 120//106
f 100//107 102//107 144//107 128//107
f 128//108 144//108 143//108 127//108
f 127//109 143//109 142//109 126//109
f 126//110 142//110 141//110 125//110
f 125//111 141//111 140//111 124//111
f 124//112 140//112 139//112 123//112
f 123//113 139//113 138//113 122//113
f 122//114 138//114 137//114 121//114
f 110//115 112//115 129//115 176//115
f 176//116 129//116 130//116 175//116
f 175//117 130//117 131//117 174//117
f 174//118 131//118 132//118 173//118
f 173//119 132//119 133//119 172//119
f 172//120 133//120 134//120 171//120
f 171//121 134//121 135//121 170//121
f 170//122 135//122 136//122 169//122
f 108//123 110//123 176//123 168//123
f 168//124 176//124 175//124 167//124
f 167//125 175//125 174//125 166//125
f 166//126 174//126 173//126 165//126
f 165//127 173//127 172//127 164//127
f 164//128 172//128 171//128 163//128
f 163//129 171//129 170//129 162//129
f 162//130 170//130 169//130 161//130
f 106//131 108//131 168//131 160//131
f 160//132 168//132 167//132 159//132
f 159//133 167//133 166//133 158//133
f 158//134 166//134 165//134 157//134
f 157//135 165//135 164//135 156//135
f 156//136 164//136 163//136 155//136
f 155//137 163//137 162//137 154//137
f 154//138 162//138 161//138 153//138
f 104//139 106//139 160//139 152//139
f 152//140 160//140 159//140 151//140
f 151//141 159//141 158//141 150//141
f 150//142 158//142 157//142 149//142
f 149//143 157//143 156//143 148//143
f 148//144 156//144 155//144 147//144
f 147//145 155//145 154//145 146//145
f 146//146 154//146 153//146 145//146
f 102//147 104//147 152//147 144//147
f 144//148 152//148 151//148 143//148
f 143//149 151//149 150//149 142//149
f 142//150 150//150 149//150 141//150
f 141//151 149//151 148//151 140//151
f 140//152 148//152 147//152 139//152
f 139//153 147//153 146//153 138//153
f 138//154 146//154 145//154 137//154
f 112//155 98//155 113//155 129//155
f 129//156 113//156 114//156 130//156
f 130//157 114//157 115//157 131//157
f 131//158 115//158 116//158 132//158
f 132//159 116//159 117//159 133//159
f 133//160 117//160 118//160 134//160
f 134//161 118//161 119//161 135//161
f 135//162 119//162 120//162 136//162
f 2//163 1//163 89//163 90//163
f 3//164 2//164 90//164 91//164
f 4//165 3//165 91//165 92//165
f 5//166 4//166 92//166 93//166
f 6//167 5//167 93//167 94//167
f 7//168 6//168 94//168 95//168
f 8//169 7//169 95//169 96//169
f 1//170 8//170 96//170 89//170
