# Blender v2.79 (sub 0) OBJ File: 'Knife.blend'
# www.blender.org
mtllib Knife.mtl
o Knife_Plane.011
v -0.057714 0.000000 1.200527
v 0.057714 0.000000 1.200527
v -0.097642 0.013116 -0.135013
v 0.026804 0.013116 -0.130515
v -0.042883 0.000000 1.272153
v 0.042883 0.000000 1.272153
v 0.001799 0.000000 1.291942
v 0.000000 0.013116 -0.130515
v 0.000000 0.000000 1.200527
v -0.097642 -0.006798 -0.135280
v -0.057714 -0.019914 1.200259
v 0.057714 -0.019914 1.200259
v 0.026804 -0.006798 -0.130782
v 0.042883 -0.019914 1.271885
v -0.042883 -0.019914 1.271885
v 0.000000 -0.019914 1.200259
v 0.000000 -0.006798 -0.130782
v 0.001799 -0.019914 1.291675
v -0.104219 -0.007998 -0.011961
v -0.104219 0.011916 -0.011694
v 0.000000 -0.007998 -0.008963
v 0.029633 -0.007998 -0.008963
v 0.000000 0.011916 -0.008695
v 0.029633 0.011916 -0.008695
v 0.000000 -0.006798 -0.715891
v 0.026804 -0.006798 -0.715891
v -0.050125 -0.006798 -0.664127
v 0.000000 0.013116 -0.715624
v 0.026804 0.013116 -0.715624
v -0.050125 0.013116 -0.663859
v -0.091306 0.010715 0.113125
v -0.091306 -0.009199 0.112857
v 0.000000 -0.009199 0.112857
v 0.032462 -0.009199 0.112857
v 0.000000 0.010715 0.113125
v 0.032462 0.010715 0.113125
v 0.000000 -0.009889 0.182881
v 0.034088 -0.009889 0.182881
v -0.034088 -0.009889 0.182881
v 0.000000 0.010025 0.183148
v 0.034088 0.010025 0.183148
v -0.034088 0.010025 0.183148
v 0.000000 -0.006798 -0.569614
v 0.000000 -0.006798 -0.423337
v 0.000000 -0.006798 -0.277060
v -0.060880 -0.006798 -0.545408
v -0.070136 -0.006798 -0.410198
v -0.083889 -0.006798 -0.265993
v 0.000000 0.013116 -0.276792
v 0.000000 0.013116 -0.423069
v 0.000000 0.013116 -0.569347
v -0.060880 0.013116 -0.545141
v -0.070136 0.013116 -0.409930
v -0.083889 0.013116 -0.265725
v 0.026804 -0.006798 -0.277060
v 0.026804 -0.006798 -0.423337
v 0.026804 -0.006798 -0.569614
v 0.026804 0.013116 -0.569347
v 0.026804 0.013116 -0.423069
v 0.026804 0.013116 -0.276792
vn 0.0000 1.0000 0.0000
vn 0.0000 1.0000 0.0099
vn -0.0004 1.0000 0.0098
vn 0.0000 -1.0000 0.0000
vn 0.0000 -1.0000 -0.0099
vn 0.0004 -1.0000 -0.0098
vn -0.9792 -0.0027 0.2028
vn 0.4339 -0.0121 0.9009
vn -0.0001 1.0000 0.0097
vn 0.0001 -1.0000 -0.0097
vn -0.9986 0.0007 -0.0533
vn 0.9997 0.0003 -0.0232
vn -0.9959 0.0012 -0.0902
vn 1.0000 0.0000 0.0000
vn -0.9997 0.0003 -0.0232
vn -0.4049 -0.0123 0.9143
vn -0.9947 -0.0014 0.1029
vn 0.9792 -0.0027 0.2028
vn -0.7744 -0.0085 0.6327
vn -0.9945 0.0014 -0.1046
vn -0.9955 0.0013 -0.0949
vn -0.9977 0.0009 -0.0683
usemtl Metal
s off
f 9//1 1//1 5//1 7//1
f 23//2 24//2 4//2 8//2
f 2//1 9//1 7//1 6//1
f 20//3 23//3 8//3 3//3
f 16//4 18//4 15//4 11//4
f 21//5 17//5 13//5 22//5
f 12//4 14//4 18//4 16//4
f 19//6 10//6 17//6 21//6
f 1//7 11//7 15//7 5//7
f 7//8 18//8 14//8 6//8
f 35//2 36//2 24//2 23//2
f 31//9 35//9 23//9 20//9
f 33//5 21//5 22//5 34//5
f 32//10 19//10 21//10 33//10
f 3//11 10//11 19//11 20//11
f 36//12 34//12 22//12 24//12
f 57//4 43//4 25//4 26//4
f 43//4 46//4 27//4 25//4
f 46//13 52//13 30//13 27//13
f 51//1 58//1 29//1 28//1
f 52//1 51//1 28//1 30//1
f 58//14 57//14 26//14 29//14
f 40//2 41//2 36//2 35//2
f 42//2 40//2 35//2 31//2
f 37//5 33//5 34//5 38//5
f 39//5 32//5 33//5 37//5
f 41//12 38//12 34//12 36//12
f 42//15 39//15 11//15 1//15
f 5//16 15//16 18//16 7//16
f 20//17 19//17 32//17 31//17
f 9//2 2//2 41//2 40//2
f 1//2 9//2 40//2 42//2
f 24//12 22//12 13//12 4//12
f 16//5 37//5 38//5 12//5
f 11//5 39//5 37//5 16//5
f 6//18 14//18 12//18 2//18
f 31//19 32//19 39//19 42//19
f 2//12 12//12 38//12 41//12
f 4//14 13//14 55//14 60//14
f 60//14 55//14 56//14 59//14
f 59//14 56//14 57//14 58//14
f 3//1 8//1 49//1 54//1
f 54//1 49//1 50//1 53//1
f 53//1 50//1 51//1 52//1
f 8//1 4//1 60//1 49//1
f 49//1 60//1 59//1 50//1
f 50//1 59//1 58//1 51//1
f 10//20 3//20 54//20 48//20
f 48//21 54//21 53//21 47//21
f 47//22 53//22 52//22 46//22
f 17//4 10//4 48//4 45//4
f 45//4 48//4 47//4 44//4
f 44//4 47//4 46//4 43//4
f 13//4 17//4 45//4 55//4
f 55//4 45//4 44//4 56//4
f 56//4 44//4 43//4 57//4
