# Blender v2.79 (sub 0) OBJ File: 'Mushroom_Sliced.blend'
# www.blender.org
mtllib Mushroom_Sliced.mtl
o Mushroom_Slice_Cylinder.045
v 0.087599 0.066090 0.090723
v 0.063836 0.112391 -0.080170
v -0.087599 0.066091 0.090722
v -0.063836 0.112391 -0.080170
v -0.043800 -0.007133 0.070884
v -0.031918 0.059031 -0.094627
v 0.043800 -0.007133 0.070884
v 0.031918 0.059031 -0.094627
v 0.074324 0.059387 0.115464
v -0.074324 0.059387 0.115464
v -0.037162 -0.002740 0.098632
v 0.037162 -0.002740 0.098632
v 0.089283 0.117613 -0.099445
v -0.089283 0.117613 -0.099445
v -0.044642 0.042982 -0.119664
v 0.044642 0.042982 -0.119664
v 0.206725 0.121411 -0.113462
v -0.206725 0.121411 -0.113462
v -0.103362 -0.009980 -0.160279
v 0.103362 -0.009980 -0.160279
v 0.198110 0.147046 -0.208081
v -0.198110 0.147046 -0.208081
v -0.099055 -0.000985 -0.252947
v 0.099055 -0.000985 -0.252947
v 0.157143 0.158598 -0.250718
v -0.157143 0.158598 -0.250718
v -0.078572 0.027243 -0.286306
v 0.078572 0.027243 -0.286306
v 0.093839 0.166510 -0.279921
v -0.093839 0.166510 -0.279921
v -0.046919 0.088071 -0.301173
v 0.046919 0.088071 -0.301173
v 0.072779 0.068426 0.081161
v 0.053036 0.114795 -0.090854
v -0.053036 0.114795 -0.090854
v -0.072779 0.068426 0.081161
v -0.061750 0.062527 0.102937
v 0.061750 0.062527 0.102937
v 0.074178 0.119391 -0.107817
v -0.074178 0.119391 -0.107817
v -0.171751 0.122733 -0.120154
v 0.171751 0.122733 -0.120154
v -0.164593 0.145295 -0.203429
v 0.164593 0.145295 -0.203429
v -0.130558 0.155462 -0.240954
v 0.130558 0.155462 -0.240954
v -0.077963 0.162425 -0.266657
v 0.077963 0.162425 -0.266657
vn -0.8602 -0.4492 -0.2413
vn -0.0000 -0.9286 -0.3712
vn 0.8602 -0.4492 -0.2413
vn -0.7902 -0.5474 0.2757
vn -0.0000 -0.2615 0.9652
vn -0.0000 -0.9877 0.1564
vn 0.7902 -0.5474 0.2757
vn -0.0000 -0.6085 0.7935
vn 0.5815 -0.5178 0.6275
vn -0.5815 -0.5178 0.6275
vn -0.0000 -0.8419 0.5397
vn -0.8236 -0.5449 -0.1576
vn 0.1639 -0.4098 0.8973
vn -0.1639 -0.4098 0.8973
vn -0.0000 -0.9953 -0.0966
vn 0.8236 -0.5449 -0.1576
vn 0.6890 -0.2413 -0.6834
vn -0.6890 -0.2413 -0.6834
vn -0.0000 -0.7634 -0.6460
vn -0.0000 -0.2374 -0.9714
vn 0.4185 -0.0042 -0.9082
vn -0.4185 -0.0042 -0.9082
vn 0.0000 0.2615 -0.9652
vn 0.0306 0.9639 0.2644
vn 0.0000 0.9700 0.2431
vn -0.0126 0.9668 0.2553
vn 0.0128 0.9620 0.2727
vn 0.0139 0.9648 0.2626
vn -0.0128 0.9620 0.2727
vn -0.0189 0.9709 0.2387
vn 0.0103 0.9594 0.2818
vn 0.0189 0.9709 0.2387
vn -0.0103 0.9594 0.2818
vn 0.0126 0.9668 0.2553
vn 0.0055 0.9757 0.2192
vn -0.0306 0.9639 0.2644
vn -0.0139 0.9648 0.2626
vn 0.0000 0.9557 0.2943
vn -0.0055 0.9757 0.2192
vn 0.0000 0.9653 0.2611
usemtl LightBrown
s off
f 3//1 4//1 6//1 5//1
f 5//2 6//2 8//2 7//2
f 7//3 8//3 2//3 1//3
f 3//4 5//4 11//4 10//4
f 9//5 10//5 11//5 12//5
f 5//6 7//6 12//6 11//6
f 7//7 1//7 9//7 12//7
f 16//8 15//8 19//8 20//8
f 2//9 8//9 16//9 13//9
f 6//10 4//10 14//10 15//10
f 8//11 6//11 15//11 16//11
f 19//12 18//12 22//12 23//12
f 13//13 16//13 20//13 17//13
f 15//14 14//14 18//14 19//14
f 20//15 19//15 23//15 24//15
f 17//16 20//16 24//16 21//16
f 21//17 24//17 28//17 25//17
f 23//18 22//18 26//18 27//18
f 24//19 23//19 27//19 28//19
f 28//20 27//20 31//20 32//20
f 25//21 28//21 32//21 29//21
f 27//22 26//22 30//22 31//22
f 30//23 29//23 32//23 31//23
f 4//24 3//24 36//24 35//24
f 10//25 9//25 38//25 37//25
f 9//26 1//26 33//26 38//26
f 26//27 22//27 43//27 45//27
f 22//28 18//28 41//28 43//28
f 21//29 25//29 46//29 44//29
f 2//30 13//30 39//30 34//30
f 30//31 26//31 45//31 47//31
f 14//32 4//32 35//32 40//32
f 25//33 29//33 48//33 46//33
f 3//34 10//34 37//34 36//34
f 18//35 14//35 40//35 41//35
f 1//36 2//36 34//36 33//36
f 17//37 21//37 44//37 42//37
f 29//38 30//38 47//38 48//38
f 13//39 17//39 42//39 39//39
usemtl Beige
f 33//40 34//40 39//40 42//40 44//40 46//40 48//40 47//40 45//40 43//40 41//40 40//40 35//40 36//40 37//40 38//40
