# Blender v2.79 (sub 0) OBJ File: 'Pancake.blend'
# www.blender.org
mtllib Pancake.mtl
o Pancake_Cylinder.034
v 0.395001 -0.137659 -0.585858
v 0.395001 0.048775 -0.585858
v -0.142673 -0.137659 -0.681776
v -0.142673 0.048775 -0.681776
v -0.590690 -0.137659 -0.369408
v -0.590690 0.048775 -0.369408
v -0.686608 -0.137659 0.168266
v -0.686608 0.048775 0.168266
v -0.374240 -0.137659 0.616283
v -0.374240 0.048775 0.616283
v 0.163434 -0.137659 0.712201
v 0.163434 0.048775 0.712201
v 0.611451 -0.137659 0.399833
v 0.611451 0.048775 0.399833
v 0.707369 -0.137659 -0.137841
v 0.707369 0.048775 -0.137841
v 0.408322 -0.044442 -0.606677
v -0.147974 -0.044442 -0.705917
v -0.611509 -0.044442 -0.382730
v -0.710750 -0.044442 0.173567
v -0.387562 -0.044442 0.637101
v 0.168735 -0.044442 0.736342
v 0.632269 -0.044442 0.413155
v 0.731510 -0.044442 -0.143142
v -0.127033 0.048775 -0.610555
v 0.355698 0.048775 -0.524438
v -0.529270 0.048775 -0.330106
v -0.615387 0.048775 0.152626
v -0.334938 0.048775 0.554862
v 0.147794 0.048775 0.640979
v 0.550030 0.048775 0.360530
v 0.636147 0.048775 -0.122201
v -0.121611 0.021539 -0.585862
v 0.342072 0.021539 -0.503143
v -0.507975 0.021539 -0.316479
v -0.590694 0.021539 0.147203
v -0.321312 0.021539 0.533568
v 0.142372 0.021539 0.616287
v 0.528736 0.021539 0.346904
v 0.611455 0.021539 -0.116779
v 0.035721 -0.027830 0.214810
v 0.029481 -0.020870 0.217894
v 0.038805 -0.020870 0.221049
v 0.029481 0.110694 0.217894
v 0.035721 0.117655 0.214810
v 0.038805 0.110694 0.221049
v 0.188150 -0.027830 0.139462
v 0.191234 -0.020870 0.145702
v 0.194390 -0.020870 0.136378
v 0.188150 0.117655 0.139462
v 0.194390 0.110694 0.136378
v 0.191234 0.110694 0.145702
v -0.078697 -0.027830 -0.016658
v -0.081781 -0.020870 -0.022898
v -0.084936 -0.020870 -0.013574
v -0.078697 0.117655 -0.016658
v -0.084936 0.110694 -0.013574
v -0.081781 0.110694 -0.022898
v 0.073732 -0.027830 -0.092006
v 0.079972 -0.020870 -0.095090
v 0.070648 -0.020870 -0.098245
v 0.073732 0.117655 -0.092006
v 0.070648 0.110694 -0.098245
v 0.079972 0.110694 -0.095090
v -0.028921 0.030427 -0.037533
v 0.097822 0.030426 -0.278078
v 0.137572 0.030426 -0.333861
v -0.260631 0.030427 -0.140085
v -0.333964 0.030427 -0.187235
v -0.139962 0.030427 0.280046
v 0.308280 0.030427 0.059677
v 0.202173 0.030427 0.335784
v 0.078012 0.030427 0.383282
v -0.028921 -0.011107 -0.037533
v 0.097822 -0.011107 -0.278078
v 0.137572 -0.011107 -0.333861
v -0.260631 -0.011107 -0.140085
v -0.333964 -0.011107 -0.187235
v -0.139962 -0.011107 0.280046
v 0.308280 -0.011107 0.059677
v 0.202173 -0.011107 0.335784
v 0.078012 -0.011107 0.383282
v 0.237821 0.009660 -0.213783
v -0.042178 0.009659 -0.342372
v 0.146439 0.009660 -0.354736
v 0.207057 0.009660 -0.300548
v 0.068088 0.009660 -0.367173
v -0.181990 0.009660 -0.318668
v -0.339272 0.009660 0.038498
v -0.361049 0.009660 -0.209356
v -0.294690 0.009660 -0.285400
v -0.373239 0.009660 -0.089069
v -0.155145 0.009660 0.391987
v -0.282536 0.009660 0.270382
v 0.460019 0.009660 0.079364
v 0.420486 0.009660 -0.102875
v 0.304812 0.009660 0.265789
v 0.009735 0.009660 0.386881
v 0.050694 0.030427 -0.200488
v 0.148111 0.030427 0.025531
v -0.104610 0.030427 0.144680
v -0.179579 0.030427 -0.101933
v 0.123202 0.030426 -0.309477
v 0.202821 0.025235 -0.229857
v -0.007178 0.025234 -0.326299
v 0.144222 0.025235 -0.349518
v 0.189686 0.025235 -0.308877
v 0.085459 0.025235 -0.358845
v -0.302089 0.030427 -0.164386
v -0.201650 0.025235 -0.274023
v -0.319612 0.025235 -0.006148
v -0.354278 0.025235 -0.203826
v -0.304509 0.025235 -0.260859
v -0.363420 0.025235 -0.113610
v -0.151349 0.025235 0.364002
v -0.246892 0.025235 0.272798
v -0.020705 0.030427 0.301444
v 0.422085 0.025235 0.074442
v 0.223204 0.030427 0.196660
v 0.392435 0.025235 -0.062237
v 0.136395 0.030427 0.372054
v 0.254144 0.025235 0.300957
v 0.032241 0.025235 0.387613
v 0.050694 -0.011107 -0.200488
v 0.148111 -0.011107 0.025531
v -0.104610 -0.011107 0.144680
v -0.179579 -0.011107 -0.101933
v 0.123202 -0.011107 -0.309477
v 0.202821 -0.005915 -0.229857
v -0.007178 -0.005916 -0.326299
v 0.144222 -0.005915 -0.349518
v 0.189686 -0.005915 -0.308877
v 0.085459 -0.005915 -0.358845
v -0.302089 -0.011107 -0.164386
v -0.201650 -0.005915 -0.274023
v -0.319612 -0.005915 -0.006148
v -0.354278 -0.005915 -0.203826
v -0.304509 -0.005915 -0.260859
v -0.363420 -0.005915 -0.113610
v -0.151349 -0.005915 0.364002
v -0.246892 -0.005915 0.272798
v -0.020705 -0.011107 0.301444
v 0.422085 -0.005915 0.074442
v 0.223204 -0.011107 0.196660
v 0.392435 -0.005915 -0.062237
v 0.136395 -0.011107 0.372054
v 0.254144 -0.005915 0.300957
v 0.032241 -0.005915 0.387613
v 0.289476 0.009660 -0.159740
v -0.114004 0.009659 -0.327856
v -0.311872 0.009660 0.124758
v 0.224141 0.009660 -0.261791
v 0.022262 0.009659 -0.357163
v 0.182510 0.009659 -0.331162
v 0.105935 0.009660 -0.367873
v -0.243197 0.009660 -0.307090
v -0.360981 0.009660 -0.021683
v -0.334597 0.009660 -0.253016
v -0.373958 0.009660 -0.154635
v -0.065381 0.009660 0.363861
v -0.235537 0.009660 0.388436
v 0.515713 0.009660 -0.028177
v 0.352107 0.009660 0.186320
v 0.231866 0.027104 -0.141843
v 0.066625 0.030427 0.215755
v -0.102009 0.027103 -0.282303
v -0.269093 0.027104 0.091043
v 0.198906 0.025235 -0.273712
v 0.047497 0.025234 -0.345242
v 0.174956 0.021197 -0.329898
v 0.110040 0.021197 -0.361019
v -0.257920 0.025235 -0.271414
v -0.346258 0.025235 -0.057359
v -0.331537 0.021197 -0.243202
v -0.366486 0.021197 -0.155847
v -0.054212 0.025235 0.348257
v -0.217497 0.021197 0.350947
v 0.459127 0.021197 -0.011117
v 0.319881 0.025235 0.188905
v 0.231866 -0.007784 -0.141843
v 0.066625 -0.011107 0.215755
v -0.102009 -0.007785 -0.282303
v -0.269093 -0.007784 0.091043
v 0.198906 -0.005915 -0.273712
v 0.047497 -0.005916 -0.345242
v 0.174956 -0.001878 -0.329898
v 0.110040 -0.001877 -0.361019
v -0.257920 -0.005915 -0.271414
v -0.346258 -0.005915 -0.057359
v -0.331537 -0.001877 -0.243202
v -0.366486 -0.001877 -0.155847
v -0.054212 -0.005915 0.348257
v -0.217497 -0.001877 0.350947
v 0.459127 -0.001877 -0.011117
v 0.319881 -0.005915 0.188905
vn 0.1706 0.2379 -0.9562
vn -0.5555 0.2379 -0.7967
vn -0.9562 0.2379 -0.1706
vn -0.7967 0.2379 0.5555
vn -0.1706 0.2379 0.9562
vn 0.5555 0.2379 0.7967
vn 0.0000 1.0000 0.0000
vn 0.9562 0.2379 0.1706
vn 0.7967 0.2379 -0.5555
vn 0.0000 -1.0000 0.0000
vn 0.7967 -0.2379 -0.5555
vn 0.9562 -0.2379 0.1706
vn 0.5555 -0.2379 0.7967
vn -0.1706 -0.2379 0.9562
vn -0.7967 -0.2379 0.5555
vn -0.9562 -0.2379 -0.1706
vn -0.5555 -0.2379 -0.7967
vn 0.1706 -0.2379 -0.9562
vn -0.4342 0.6510 -0.6227
vn 0.6227 0.6510 -0.4341
vn 0.4341 0.6510 0.6227
vn -0.7473 0.6510 -0.1333
vn 0.1333 0.6510 -0.7473
vn 0.7473 0.6510 0.1333
vn -0.1333 0.6510 0.7473
vn -0.6227 0.6510 0.4341
vn -0.8965 0.0000 0.4431
vn -0.4431 0.0000 -0.8965
vn 0.4431 0.0000 0.8965
vn 0.8965 0.0000 -0.4431
vn -0.2617 -0.5773 0.7734
vn -0.2617 0.5773 0.7734
vn 0.7734 -0.5773 0.2617
vn 0.7734 0.5773 0.2617
vn -0.7734 -0.5773 -0.2617
vn -0.7734 0.5773 -0.2617
vn 0.2617 -0.5773 -0.7734
vn 0.2617 0.5773 -0.7734
vn 0.3133 -0.7071 0.6339
vn -0.3205 0.0000 0.9472
vn 0.3133 0.7071 0.6339
vn 0.9472 0.0000 0.3206
vn 0.6339 -0.7071 -0.3133
vn 0.6339 0.7071 -0.3133
vn 0.3205 0.0000 -0.9472
vn -0.3133 -0.7071 -0.6339
vn -0.3133 0.7071 -0.6339
vn -0.9472 0.0000 -0.3206
vn -0.6339 -0.7071 0.3133
vn -0.6339 0.7071 0.3133
vn 0.0109 0.9999 -0.0047
vn -0.0119 0.9999 0.0036
vn -0.0052 0.9999 -0.0120
vn 0.0326 0.9994 -0.0077
vn -0.0159 0.9993 -0.0339
vn -0.0330 0.9981 -0.0524
vn 0.0507 0.9986 0.0144
vn 0.0778 0.9969 0.0067
vn -0.0489 0.9965 -0.0674
vn 0.0595 0.9252 -0.3747
vn 0.2582 0.9219 -0.2889
vn -0.0055 0.9996 -0.0295
vn -0.0279 0.9995 0.0133
vn -0.0324 0.9990 0.0292
vn 0.0087 0.9992 -0.0393
vn 0.0085 0.9985 -0.0539
vn -0.0558 0.9978 0.0346
vn -0.2999 0.9535 -0.0304
vn -0.1923 0.9669 -0.1678
vn -0.0324 0.9995 0.0045
vn -0.0020 0.9969 0.0785
vn -0.0606 0.9961 0.0634
vn 0.0135 0.9997 -0.0216
vn 0.0554 0.9984 -0.0120
vn 0.0481 0.9982 0.0358
vn 0.0773 0.9967 0.0267
vn -0.0655 0.9928 0.1001
vn 0.0109 -0.9999 -0.0047
vn -0.0052 -0.9999 -0.0120
vn -0.0119 -0.9999 0.0036
vn 0.0326 -0.9994 -0.0077
vn 0.0507 -0.9986 0.0145
vn -0.0330 -0.9981 -0.0524
vn -0.0159 -0.9993 -0.0339
vn 0.0778 -0.9969 0.0067
vn 0.2582 -0.9219 -0.2889
vn 0.0595 -0.9252 -0.3747
vn -0.0489 -0.9965 -0.0674
vn -0.0055 -0.9996 -0.0295
vn 0.0087 -0.9992 -0.0393
vn -0.0324 -0.9990 0.0292
vn -0.0279 -0.9995 0.0133
vn 0.0085 -0.9985 -0.0539
vn -0.1923 -0.9669 -0.1678
vn -0.2999 -0.9535 -0.0304
vn -0.0558 -0.9978 0.0346
vn -0.0324 -0.9995 0.0045
vn -0.0606 -0.9961 0.0634
vn -0.0020 -0.9969 0.0785
vn 0.0481 -0.9982 0.0358
vn 0.0554 -0.9984 -0.0120
vn 0.0135 -0.9997 -0.0216
vn 0.0773 -0.9967 0.0267
vn -0.0655 -0.9928 0.1001
vn 0.3258 0.9246 -0.1972
vn 0.4915 0.8658 -0.0941
vn 0.4915 -0.8658 -0.0941
vn 0.3258 -0.9246 -0.1972
vn -0.1590 0.8121 -0.5615
vn -0.1272 0.9114 -0.3913
vn -0.1272 -0.9114 -0.3913
vn -0.1590 -0.8121 -0.5615
vn 0.5199 0.3713 -0.7693
vn 0.2720 0.3756 -0.8860
vn 0.2720 -0.3756 -0.8860
vn 0.5199 -0.3713 -0.7693
vn 0.6431 0.7308 -0.2288
vn 0.6796 0.4803 -0.5545
vn 0.6796 -0.4803 -0.5545
vn 0.6431 -0.7308 -0.2288
vn -0.0081 0.4935 -0.8697
vn -0.1921 0.7059 -0.6817
vn -0.1921 -0.7059 -0.6817
vn -0.0081 -0.4935 -0.8697
vn -0.0466 0.9368 -0.3469
vn -0.0457 0.9246 -0.3781
vn -0.0457 -0.9246 -0.3781
vn -0.0466 -0.9368 -0.3469
vn -0.4039 0.8979 0.1753
vn -0.3303 0.9348 0.1307
vn -0.3303 -0.9348 0.1308
vn -0.4039 -0.8979 0.1753
vn -0.7238 0.5195 -0.4541
vn -0.8562 0.4802 -0.1905
vn -0.8562 -0.4802 -0.1905
vn -0.7238 -0.5195 -0.4541
vn -0.1662 0.8466 -0.5057
vn -0.4858 0.6371 -0.5984
vn -0.4858 -0.6371 -0.5984
vn -0.1662 -0.8466 -0.5057
vn -0.8392 0.5438 0.0091
vn -0.6185 0.7718 0.1472
vn -0.6185 -0.7718 0.1472
vn -0.8392 -0.5438 0.0091
vn -0.0667 0.9295 0.3627
vn 0.1426 0.7815 0.6074
vn 0.1426 -0.7815 0.6074
vn -0.0667 -0.9295 0.3627
vn -0.3659 0.9285 0.0629
vn -0.3602 0.9192 0.1592
vn -0.3602 -0.9192 0.1592
vn -0.3659 -0.9285 0.0629
vn 0.3701 0.8600 0.3512
vn 0.2878 0.9504 0.1183
vn 0.2878 -0.9504 0.1183
vn 0.3701 -0.8600 0.3512
vn 0.1759 0.9648 -0.1954
vn 0.1507 0.9390 -0.3091
vn 0.1507 -0.9390 -0.3091
vn 0.1759 -0.9648 -0.1954
vn 0.4413 0.8587 0.2605
vn 0.4413 -0.8587 0.2605
vn -0.2765 0.6408 0.7162
vn -0.2765 -0.6408 0.7162
vn -0.0325 0.0000 0.9995
vn 0.0942 0.0000 0.9956
vn 0.1889 0.0000 0.9820
vn 0.4829 0.0000 0.8757
vn 0.5567 0.0000 0.8307
vn 0.5702 0.0000 0.8215
usemtl LightBeige
s off
f 17//1 18//1 4//1 2//1
f 18//2 19//2 6//2 4//2
f 19//3 20//3 8//3 6//3
f 20//4 21//4 10//4 8//4
f 21//5 22//5 12//5 10//5
f 22//6 23//6 14//6 12//6
f 2//7 26//7 32//7 16//7
f 23//8 24//8 16//8 14//8
f 24//9 17//9 2//9 16//9
f 1//10 15//10 13//10 11//10 9//10 7//10 5//10 3//10
f 15//11 1//11 17//11 24//11
f 13//12 15//12 24//12 23//12
f 11//13 13//13 23//13 22//13
f 9//14 11//14 22//14 21//14
f 7//15 9//15 21//15 20//15
f 5//16 7//16 20//16 19//16
f 3//17 5//17 19//17 18//17
f 1//18 3//18 18//18 17//18
f 31//19 39//19 38//19 30//19
f 4//7 25//7 26//7 2//7
f 8//7 28//7 27//7 6//7
f 14//7 31//7 30//7 12//7
f 10//7 29//7 28//7 8//7
f 16//7 32//7 31//7 14//7
f 6//7 27//7 25//7 4//7
f 12//7 30//7 29//7 10//7
f 29//20 37//20 36//20 28//20
f 27//21 35//21 33//21 25//21
f 32//22 40//22 39//22 31//22
f 30//23 38//23 37//23 29//23
f 28//24 36//24 35//24 27//24
f 25//25 33//25 34//25 26//25
f 26//26 34//26 40//26 32//26
usemtl Light
f 33//7 35//7 36//7 37//7 38//7 39//7 40//7 34//7
usemtl Yellow
f 55//27 42//27 44//27 57//27
f 61//28 54//28 58//28 63//28
f 62//7 56//7 45//7 50//7
f 43//29 48//29 52//29 46//29
f 49//30 60//30 64//30 51//30
f 41//31 43//31 42//31
f 44//32 46//32 45//32
f 47//33 49//33 48//33
f 50//34 52//34 51//34
f 53//35 55//35 54//35
f 56//36 58//36 57//36
f 59//37 61//37 60//37
f 62//38 64//38 63//38
f 47//39 48//39 43//39 41//39
f 42//40 43//40 46//40 44//40
f 45//41 46//41 52//41 50//41
f 51//42 52//42 48//42 49//42
f 59//43 60//43 49//43 47//43
f 50//44 51//44 64//44 62//44
f 63//45 64//45 60//45 61//45
f 53//46 54//46 61//46 59//46
f 62//47 63//47 58//47 56//47
f 57//48 58//48 54//48 55//48
f 41//49 42//49 55//49 53//49
f 56//50 57//50 44//50 45//50
f 47//10 41//10 53//10 59//10
usemtl Syrup
f 65//51 100//51 164//51 99//51
f 65//7 101//7 165//7 100//7
f 65//52 102//52 167//52 101//52
f 65//53 99//53 166//53 102//53
f 66//54 99//54 164//54 104//54
f 66//55 105//55 166//55 99//55
f 66//56 103//56 169//56 105//56
f 66//57 104//57 168//57 103//57
f 67//58 103//58 168//58 107//58
f 67//59 108//59 169//59 103//59
f 67//60 106//60 171//60 108//60
f 67//61 107//61 170//61 106//61
f 68//62 102//62 166//62 110//62
f 68//63 111//63 167//63 102//63
f 68//64 109//64 173//64 111//64
f 68//65 110//65 172//65 109//65
f 69//66 109//66 172//66 113//66
f 69//67 114//67 173//67 109//67
f 69//68 112//68 175//68 114//68
f 69//69 113//69 174//69 112//69
f 70//70 101//70 167//70 116//70
f 70//7 117//7 165//7 101//7
f 70//71 115//71 176//71 117//71
f 70//72 116//72 177//72 115//72
f 71//7 100//7 165//7 119//7
f 71//73 120//73 164//73 100//73
f 71//74 118//74 178//74 120//74
f 71//75 119//75 179//75 118//75
f 72//7 119//7 165//7 121//7
f 72//76 122//76 179//76 119//76
f 73//77 117//77 176//77 123//77
f 73//7 121//7 165//7 117//7
f 74//78 124//78 180//78 125//78
f 74//79 127//79 182//79 124//79
f 74//80 126//80 183//80 127//80
f 74//10 125//10 181//10 126//10
f 75//81 129//81 180//81 124//81
f 75//82 128//82 184//82 129//82
f 75//83 130//83 185//83 128//83
f 75//84 124//84 182//84 130//84
f 76//85 132//85 184//85 128//85
f 76//86 131//86 186//86 132//86
f 76//87 133//87 187//87 131//87
f 76//88 128//88 185//88 133//88
f 77//89 135//89 182//89 127//89
f 77//90 134//90 188//90 135//90
f 77//91 136//91 189//91 134//91
f 77//92 127//92 183//92 136//92
f 78//93 138//93 188//93 134//93
f 78//94 137//94 190//94 138//94
f 78//95 139//95 191//95 137//95
f 78//96 134//96 189//96 139//96
f 79//97 141//97 183//97 126//97
f 79//98 140//98 193//98 141//98
f 79//99 142//99 192//99 140//99
f 79//10 126//10 181//10 142//10
f 80//10 144//10 181//10 125//10
f 80//100 143//100 195//100 144//100
f 80//101 145//101 194//101 143//101
f 80//102 125//102 180//102 145//102
f 81//10 146//10 181//10 144//10
f 81//103 144//103 195//103 147//103
f 82//104 148//104 192//104 142//104
f 82//10 142//10 181//10 146//10
f 83//105 104//105 164//105 149//105
f 83//106 152//106 168//106 104//106
f 83//107 129//107 184//107 152//107
f 83//108 149//108 180//108 129//108
f 84//109 105//109 169//109 153//109
f 84//110 150//110 166//110 105//110
f 84//111 130//111 182//111 150//111
f 84//112 153//112 185//112 130//112
f 85//113 106//113 170//113 154//113
f 85//114 155//114 171//114 106//114
f 85//115 131//115 187//115 155//115
f 85//116 154//116 186//116 131//116
f 86//117 107//117 168//117 152//117
f 86//118 154//118 170//118 107//118
f 86//119 132//119 186//119 154//119
f 86//120 152//120 184//120 132//120
f 87//121 108//121 171//121 155//121
f 87//122 153//122 169//122 108//122
f 87//123 133//123 185//123 153//123
f 87//124 155//124 187//124 133//124
f 88//125 110//125 166//125 150//125
f 88//126 156//126 172//126 110//126
f 88//127 135//127 188//127 156//127
f 88//128 150//128 182//128 135//128
f 89//129 111//129 173//129 157//129
f 89//130 151//130 167//130 111//130
f 89//131 136//131 183//131 151//131
f 89//132 157//132 189//132 136//132
f 90//133 112//133 174//133 158//133
f 90//134 159//134 175//134 112//134
f 90//135 137//135 191//135 159//135
f 90//136 158//136 190//136 137//136
f 91//137 113//137 172//137 156//137
f 91//138 158//138 174//138 113//138
f 91//139 138//139 190//139 158//139
f 91//140 156//140 188//140 138//140
f 92//141 114//141 175//141 159//141
f 92//142 157//142 173//142 114//142
f 92//143 139//143 189//143 157//143
f 92//144 159//144 191//144 139//144
f 93//145 115//145 177//145 161//145
f 93//146 160//146 176//146 115//146
f 93//147 140//147 192//147 160//147
f 93//148 161//148 193//148 140//148
f 94//149 116//149 167//149 151//149
f 94//150 161//150 177//150 116//150
f 94//151 141//151 193//151 161//151
f 94//152 151//152 183//152 141//152
f 95//153 118//153 179//153 163//153
f 95//154 162//154 178//154 118//154
f 95//155 143//155 194//155 162//155
f 95//156 163//156 195//156 143//156
f 96//157 120//157 178//157 162//157
f 96//158 149//158 164//158 120//158
f 96//159 145//159 180//159 149//159
f 96//160 162//160 194//160 145//160
f 97//161 163//161 179//161 122//161
f 97//162 147//162 195//162 163//162
f 98//163 123//163 176//163 160//163
f 98//164 160//164 192//164 148//164
f 123//165 98//165 148//165
f 123//166 148//166 82//166 73//166
f 121//167 73//167 82//167 146//167
f 121//168 146//168 81//168 72//168
f 122//169 72//169 81//169 147//169
f 122//170 147//170 97//170
