# Blender v2.79 (sub 0) OBJ File: 'Pizza_Slice.blend'
# www.blender.org
mtllib Pizza_Slice.mtl
o Pizza_Slice_Cube.003
v -0.535929 0.001998 -0.990107
v -0.535929 0.091640 -0.990107
v -0.535929 0.038333 -0.990107
v 0.535929 0.001998 -0.990107
v 0.535929 0.091640 -0.990107
v 0.535929 0.038333 -0.990107
v -0.000000 0.091640 -1.131534
v -0.000000 0.001998 -1.131534
v 0.000001 0.038333 -1.131534
v 0.031221 0.001998 -0.014337
v -0.031221 0.001998 -0.014337
v 0.000000 0.001998 0.032181
v -0.031221 0.054225 -0.014337
v 0.031221 0.054225 -0.014337
v 0.000000 0.054225 0.032181
v -0.031221 0.031318 -0.014337
v 0.031221 0.031318 -0.014337
v 0.000000 0.031318 0.032181
v -0.487891 0.001998 -0.897234
v -0.487891 0.038333 -0.897234
v 0.487891 0.001998 -0.897234
v -0.000000 0.001998 -1.022651
v 0.487891 0.038333 -0.897234
v 0.487891 0.091640 -0.897234
v -0.487891 0.091640 -0.897234
v -0.000000 0.091640 -1.022651
v -0.000000 0.114791 -1.106279
v 0.505020 0.114791 -0.964852
v -0.505020 0.114791 -0.964852
v -0.487891 0.114791 -0.922489
v 0.487891 0.114791 -0.922489
v -0.000000 0.114791 -1.047906
v -0.293219 0.001998 -1.093090
v -0.293219 0.091640 -1.093090
v -0.293219 0.038333 -1.093090
v -0.015611 0.001998 0.010332
v -0.015611 0.054225 0.010332
v -0.015611 0.031318 0.010332
v -0.269201 0.001998 -0.992213
v -0.269200 0.091640 -0.992212
v -0.277765 0.114791 -1.067836
v -0.269200 0.114791 -1.017467
v 0.300234 0.091640 -1.084672
v 0.300235 0.038333 -1.084672
v 0.300234 0.001998 -1.084672
v 0.015611 0.001998 0.010332
v 0.015611 0.054225 0.010332
v 0.015611 0.031318 0.010332
v 0.276216 0.001998 -0.983794
v 0.276216 0.091640 -0.983794
v 0.284780 0.114791 -1.059417
v 0.276216 0.114791 -1.009049
v -0.528826 0.038333 -0.931454
v -0.000000 0.001998 -1.077092
v -0.528826 0.091640 -0.931454
v -0.528826 0.001998 -0.931454
v 0.526525 0.001998 -0.929055
v 0.526525 0.038333 -0.929055
v 0.526525 0.091640 -0.929055
v -0.496456 0.114791 -0.943671
v 0.496456 0.114791 -0.943671
v -0.000000 0.114791 -1.077092
v -0.273483 0.114791 -1.042651
v -0.281210 0.001998 -1.042651
v 0.280498 0.114791 -1.034233
v 0.288225 0.001998 -1.034233
v -0.396557 0.001998 -0.720655
v -0.305223 0.001998 -0.544075
v -0.213889 0.001998 -0.367496
v -0.122555 0.001998 -0.190916
v 0.396557 0.001998 -0.720655
v 0.305223 0.001998 -0.544075
v 0.213889 0.001998 -0.367496
v 0.122555 0.001998 -0.190916
v 0.396557 0.035113 -0.720655
v 0.305223 0.029804 -0.544075
v 0.213889 0.036662 -0.367496
v 0.122555 0.031318 -0.190916
v 0.392969 0.083738 -0.723303
v 0.297955 0.073175 -0.544075
v 0.213889 0.072772 -0.367496
v 0.120226 0.063579 -0.190710
v -0.000000 0.091075 -0.827315
v -0.002079 0.076238 -0.575816
v -0.000000 0.069004 -0.389752
v 0.000971 0.063579 -0.207344
v -0.122555 0.031318 -0.190916
v -0.213889 0.044974 -0.367496
v -0.305223 0.031591 -0.544075
v -0.396557 0.034987 -0.720655
v -0.000000 0.001998 -0.178786
v -0.000000 0.001998 -0.389752
v -0.000000 0.001998 -0.600718
v -0.000000 0.001998 -0.811685
v -0.120779 0.063579 -0.190916
v -0.213889 0.073175 -0.359307
v -0.305223 0.072436 -0.544075
v -0.396557 0.088309 -0.728972
v -0.066328 0.063579 -0.190177
v -0.117046 0.068461 -0.390686
v -0.167764 0.073813 -0.573583
v -0.218482 0.090049 -0.785235
v -0.218483 0.001998 -0.791704
v -0.167765 0.001998 -0.591195
v -0.117047 0.001998 -0.390686
v -0.066329 0.001998 -0.190177
v 0.067732 0.001998 -0.188494
v 0.119853 0.001998 -0.387319
v 0.171974 0.001998 -0.586144
v 0.224095 0.001998 -0.784969
v 0.224095 0.088283 -0.784969
v 0.171974 0.072916 -0.586144
v 0.119853 0.073154 -0.387319
v 0.067732 0.063579 -0.205625
v -0.175720 0.090931 -0.495159
v -0.226080 0.091896 -0.517574
v 0.114406 0.059572 -0.272916
v 0.029821 0.062675 -0.344623
v -0.151563 0.088998 -0.445640
v -0.209522 0.085873 -0.359810
v -0.164913 0.087000 -0.392186
v 0.085175 0.061642 -0.324155
v -0.018178 0.081941 -0.315524
v 0.058402 0.089777 -0.579292
v 0.067676 0.087686 -0.524987
v 0.086229 0.091440 -0.626856
v -0.035317 0.078473 -0.221413
v -0.043886 0.080405 -0.271582
v -0.279079 0.091440 -0.502396
v -0.166837 0.069467 -0.504498
v -0.225199 0.070585 -0.530475
v 0.003518 0.077048 -0.188490
v 0.093645 0.077840 -0.220727
v -0.138841 0.067227 -0.447110
v -0.206010 0.063605 -0.347641
v -0.154312 0.064912 -0.385162
v 0.054450 0.076798 -0.188220
v 0.102765 0.079685 -0.270803
v 0.198102 0.069467 -0.636198
v 0.138184 0.070585 -0.658354
v 0.229743 0.067227 -0.580736
v 0.029778 0.082362 -0.332677
v 0.077542 0.081471 -0.315015
v -0.286620 0.070057 -0.512885
v 0.058413 0.056227 -0.177210
v 0.103837 0.057433 -0.214884
v -0.000612 0.056516 -0.177524
v -0.055549 0.060407 -0.273820
v -0.045619 0.058167 -0.215678
v -0.025755 0.062187 -0.324744
v 0.109714 0.086144 -0.489350
v 0.207270 0.087000 -0.524245
v 0.164844 0.085873 -0.489057
v 0.217142 0.088998 -0.578448
v 0.138138 0.091896 -0.645423
v 0.189839 0.090931 -0.626305
v 0.169134 0.063605 -0.477140
v 0.218303 0.064912 -0.517919
v 0.105243 0.063919 -0.477479
v 0.045777 0.068130 -0.581714
v 0.056526 0.065706 -0.518779
v 0.078027 0.070057 -0.636837
v -0.310799 0.095818 -0.797637
v -0.301525 0.093727 -0.743331
v -0.282972 0.097481 -0.845201
v -0.171099 0.075509 -0.854543
v -0.231017 0.076626 -0.876699
v -0.139458 0.073268 -0.799081
v -0.259487 0.092185 -0.707695
v -0.161931 0.093041 -0.742589
v -0.204358 0.091914 -0.707402
v -0.152059 0.095039 -0.796793
v -0.231063 0.097937 -0.863768
v -0.179362 0.096973 -0.844650
v -0.200067 0.069646 -0.695484
v -0.150898 0.070953 -0.736264
v -0.263958 0.069960 -0.695824
v -0.323424 0.074171 -0.800059
v -0.312675 0.071747 -0.737124
v -0.291174 0.076098 -0.855181
v 0.025287 0.099267 -0.873578
v 0.035636 0.098624 -0.819430
v 0.052165 0.100094 -0.921706
v 0.164103 0.079247 -0.932707
v 0.103758 0.079097 -0.953701
v 0.196837 0.078752 -0.877839
v 0.078371 0.098465 -0.784600
v 0.175216 0.099638 -0.821416
v 0.133495 0.098866 -0.785384
v 0.184011 0.100420 -0.875835
v 0.103695 0.100718 -0.941295
v 0.155765 0.100846 -0.923180
v 0.138294 0.076951 -0.773014
v 0.186644 0.077846 -0.814772
v 0.074410 0.076487 -0.772106
v 0.012890 0.077416 -0.875223
v 0.024884 0.076671 -0.812471
v 0.044040 0.078375 -0.930999
v 0.323780 0.094696 -0.797119
v 0.333775 0.092542 -0.742944
v 0.350974 0.096464 -0.845044
v 0.454583 0.096100 -0.845864
v 0.402632 0.097019 -0.864295
v 0.376282 0.091010 -0.707868
v 0.311619 0.073076 -0.800511
v 0.323202 0.070580 -0.737727
v 0.343134 0.075125 -0.856052
v 0.463208 0.074703 -0.857002
v 0.403001 0.075768 -0.878362
v 0.372463 0.068804 -0.697077
vn -0.1300 -0.0000 -0.9915
vn -0.9927 0.0000 0.1202
vn 0.8882 0.0000 0.4594
vn -0.5116 0.7276 0.4571
vn 0.0000 -1.0000 0.0000
vn 0.3724 0.0000 -0.9281
vn 0.8137 -0.0000 0.5813
vn -0.8450 -0.0000 0.5347
vn -0.8882 0.0000 0.4594
vn 0.6358 0.0000 0.7719
vn -0.2332 0.8139 -0.5321
vn 0.0000 1.0000 0.0000
vn -0.2663 0.7105 0.6513
vn 0.0762 0.7350 0.6738
vn 0.6140 0.7778 0.1342
vn 0.1048 0.7488 -0.6544
vn 0.2816 0.7073 0.6484
vn -0.0886 0.7476 -0.6582
vn -0.8137 -0.0000 0.5813
vn -0.3906 0.0000 -0.9206
vn 0.2236 0.8120 -0.5391
vn -0.0946 0.7338 0.6727
vn 0.8450 -0.0000 0.5347
vn 0.1542 -0.0000 -0.9880
vn 0.5131 0.7266 0.4569
vn 0.9883 0.0000 0.1522
vn -0.6414 0.0000 0.7672
vn -0.6021 0.7896 0.1182
vn 0.0103 0.9991 0.0422
vn 0.8895 0.0359 0.4555
vn -0.0013 1.0000 0.0055
vn -0.8828 0.0365 0.4683
vn 0.0005 0.9999 0.0129
vn 0.0072 0.9987 0.0502
vn 0.0002 0.9995 0.0303
vn -0.0084 0.9978 0.0652
vn 0.0004 1.0000 0.0006
vn -0.0089 0.9988 0.0487
vn -0.0208 0.9981 0.0572
vn 0.0362 0.9990 0.0251
vn 0.0159 0.9999 0.0064
vn 0.0110 0.9970 0.0768
vn -0.8894 0.0286 0.4563
vn -0.8823 -0.0376 0.4692
vn -0.8903 -0.0536 0.4522
vn -0.8909 0.0400 0.4524
vn -0.0024 0.9991 0.0427
vn -0.0006 0.9996 0.0270
vn -0.0103 0.9993 0.0356
vn -0.0012 0.9977 0.0671
vn 0.8817 0.0432 0.4699
vn 0.8776 0.1170 0.4649
vn 0.8932 0.0817 0.4421
vn 0.8851 0.0288 0.4645
vn 0.0039 0.9999 0.0105
vn 0.0098 0.9976 0.0681
vn -0.0023 0.9998 0.0179
vn -0.0231 0.9990 0.0379
vn 0.0023 0.9993 0.0379
vn -0.8928 0.0993 0.4394
vn 0.5096 0.4731 0.7186
vn -0.0024 0.4715 0.8819
vn 0.8470 0.4795 0.2295
vn 0.7667 0.4876 -0.4177
vn -0.8599 0.4830 0.1655
vn 0.7920 0.4876 -0.3673
vn 0.0047 0.9993 0.0377
vn -0.2432 0.4950 -0.8342
vn 0.3615 0.4937 -0.7909
vn -0.0047 -0.9993 -0.0377
vn 0.8601 0.4795 0.1743
vn 0.5549 0.4731 0.6843
vn -0.7594 0.4907 -0.4272
vn -0.2965 0.4950 -0.8168
vn 0.3097 0.4937 -0.8126
vn -0.5587 0.4754 0.6796
vn -0.0023 -0.9993 -0.0379
vn 0.0088 0.4930 0.8700
vn -0.0071 0.9999 0.0132
vn -0.8625 0.4765 0.1705
vn 0.7523 0.4864 -0.4444
vn 0.0071 -0.9999 -0.0132
vn 0.8572 0.4939 0.1456
vn 0.5621 0.4965 0.6615
vn -0.7737 0.4709 -0.4240
vn -0.3184 0.4711 -0.8226
vn 0.2877 0.4773 -0.8303
vn -0.5513 0.4852 0.6787
vn 0.0038 0.9992 0.0390
vn 0.8647 0.0914 0.4940
vn 0.2916 0.5315 -0.7953
vn -0.3027 0.5224 -0.7972
vn -0.7636 0.4946 -0.4150
vn -0.5629 0.4375 0.7012
vn -0.8693 0.4609 0.1787
vn -0.0038 -0.9992 -0.0390
usemtl LightYellow
s off
f 35//1 34//1 7//1 9//1
f 53//2 55//2 2//2 3//2
f 74//3 78//3 17//3 10//3
f 55//4 25//4 30//4 60//4
f 33//1 35//1 9//1 8//1
f 66//5 54//5 8//5 45//5
f 106//5 91//5 12//5 36//5
f 44//6 43//6 5//6 6//6
f 45//6 44//6 6//6 4//6
f 46//7 48//7 18//7 12//7
f 56//2 53//2 3//2 1//2
f 36//8 38//8 16//8 11//8
f 67//9 90//9 20//9 19//9
f 64//5 54//5 22//5 39//5
f 110//5 94//5 22//5 49//5
f 57//10 58//10 23//10 21//10
f 58//10 59//10 24//10 23//10
f 34//11 2//11 29//11 41//11
f 63//12 62//12 27//12 41//12
f 65//12 62//12 32//12 52//12
f 50//13 24//13 31//13 52//13
f 40//14 26//14 32//14 42//14
f 59//15 5//15 28//15 61//15
f 43//16 7//16 27//16 51//16
f 25//17 40//17 42//17 30//17
f 60//12 63//12 41//12 29//12
f 7//18 34//18 41//18 27//18
f 56//5 64//5 39//5 19//5
f 12//19 18//19 38//19 36//19
f 70//5 106//5 36//5 11//5
f 1//20 3//20 35//20 33//20
f 3//20 2//20 34//20 35//20
f 5//21 43//21 51//21 28//21
f 26//22 50//22 52//22 32//22
f 61//12 65//12 52//12 31//12
f 71//5 110//5 49//5 21//5
f 10//23 17//23 48//23 46//23
f 8//24 9//24 44//24 45//24
f 9//24 7//24 43//24 44//24
f 57//5 66//5 45//5 4//5
f 21//5 49//5 66//5 57//5
f 28//12 51//12 65//12 61//12
f 1//5 33//5 64//5 56//5
f 30//12 42//12 63//12 60//12
f 24//25 59//25 61//25 31//25
f 51//12 27//12 62//12 65//12
f 42//12 32//12 62//12 63//12
f 6//26 5//26 59//26 58//26
f 4//26 6//26 58//26 57//26
f 33//5 8//5 54//5 64//5
f 19//27 20//27 53//27 56//27
f 49//5 22//5 54//5 66//5
f 2//28 55//28 60//28 29//28
f 20//27 25//27 55//27 53//27
f 10//5 46//5 107//5 74//5
f 74//5 107//5 108//5 73//5
f 73//5 108//5 109//5 72//5
f 72//5 109//5 110//5 71//5
f 19//5 39//5 103//5 67//5
f 67//5 103//5 104//5 68//5
f 68//5 104//5 105//5 69//5
f 69//5 105//5 106//5 70//5
f 46//5 12//5 91//5 107//5
f 107//5 91//5 92//5 108//5
f 108//5 92//5 93//5 109//5
f 109//5 93//5 94//5 110//5
f 11//9 16//9 87//9 70//9
f 70//9 87//9 88//9 69//9
f 69//9 88//9 89//9 68//9
f 68//9 89//9 90//9 67//9
f 39//5 22//5 94//5 103//5
f 103//5 94//5 93//5 104//5
f 104//5 93//5 92//5 105//5
f 105//5 92//5 91//5 106//5
f 21//3 23//3 75//3 71//3
f 71//3 75//3 76//3 72//3
f 72//3 76//3 77//3 73//3
f 73//3 77//3 78//3 74//3
usemtl Yellow
f 114//29 86//29 15//29 47//29
f 78//30 82//30 14//30 17//30
f 48//7 47//7 15//7 18//7
f 38//8 37//8 13//8 16//8
f 102//31 83//31 26//31 40//31
f 90//32 98//32 25//32 20//32
f 98//33 102//33 40//33 25//33
f 18//19 15//19 37//19 38//19
f 17//23 14//23 47//23 48//23
f 82//34 114//34 47//34 14//34
f 24//35 50//35 111//35 79//35
f 79//36 111//36 112//36 80//36
f 80//37 112//37 113//37 81//37
f 81//38 113//38 114//38 82//38
f 13//39 37//39 99//39 95//39
f 95//40 99//40 100//40 96//40
f 96//41 100//41 101//41 97//41
f 97//42 101//42 102//42 98//42
f 16//43 13//43 95//43 87//43
f 87//44 95//44 96//44 88//44
f 88//45 96//45 97//45 89//45
f 89//46 97//46 98//46 90//46
f 37//47 15//47 86//47 99//47
f 99//48 86//48 85//48 100//48
f 100//49 85//49 84//49 101//49
f 101//50 84//50 83//50 102//50
f 23//51 24//51 79//51 75//51
f 75//52 79//52 80//52 76//52
f 76//53 80//53 81//53 77//53
f 77//54 81//54 82//54 78//54
f 50//55 26//55 83//55 111//55
f 111//56 83//56 84//56 112//56
f 112//57 84//57 85//57 113//57
f 113//58 85//58 86//58 114//58
usemtl Red
f 115//59 116//59 129//59 120//59 121//59 119//59
f 144//60 135//60 120//60 129//60
f 120//61 135//61 136//61 121//61
f 151//62 159//62 157//62 153//62
f 134//63 119//63 121//63 136//63
f 122//64 143//64 138//64 117//64
f 128//65 148//65 149//65 127//65
f 130//66 115//66 119//66 134//66
f 156//67 155//67 126//67 124//67 125//67 151//67 153//67 152//67 154//67
f 124//65 160//65 161//65 125//65
f 116//68 131//68 144//68 129//68
f 115//69 130//69 131//69 116//69
f 143//67 142//67 123//67 128//67 127//67 132//67 137//67 133//67 138//67
f 132//62 147//62 145//62 137//62
f 122//70 117//70 146//70 145//70 147//70 149//70 148//70 150//70 118//70
f 117//71 138//71 133//71 146//71
f 137//72 145//72 146//72 133//72
f 139//64 156//64 154//64 141//64
f 123//73 150//73 148//73 128//73
f 142//74 118//74 150//74 123//74
f 143//75 122//75 118//75 142//75
f 147//76 132//76 127//76 149//76
f 139//70 141//70 158//70 157//70 159//70 161//70 160//70 162//70 140//70
f 130//77 134//77 136//77 135//77 144//77 131//77
f 141//71 154//71 152//71 158//71
f 153//72 157//72 158//72 152//72
f 126//73 162//73 160//73 124//73
f 155//74 140//74 162//74 126//74
f 156//75 139//75 140//75 155//75
f 159//76 151//76 125//76 161//76
f 169//62 177//62 175//62 171//62
f 174//67 173//67 165//67 163//67 164//67 169//67 171//67 170//67 172//67
f 163//65 178//65 179//65 164//65
f 166//64 174//64 172//64 168//64
f 166//70 168//70 176//70 175//70 177//70 179//70 178//70 180//70 167//70
f 168//71 172//71 170//71 176//71
f 171//72 175//72 176//72 170//72
f 165//73 180//73 178//73 163//73
f 173//74 167//74 180//74 165//74
f 174//75 166//75 167//75 173//75
f 177//76 169//76 164//76 179//76
f 187//78 195//78 193//78 189//78
f 192//79 191//79 183//79 181//79 182//79 187//79 189//79 188//79 190//79
f 181//80 196//80 197//80 182//80
f 184//81 192//81 190//81 186//81
f 184//82 186//82 194//82 193//82 195//82 197//82 196//82 198//82 185//82
f 186//83 190//83 188//83 194//83
f 189//84 193//84 194//84 188//84
f 183//85 198//85 196//85 181//85
f 191//86 185//86 198//86 183//86
f 192//87 184//87 185//87 191//87
f 195//88 187//88 182//88 197//88
f 199//89 200//89 204//89 202//89 203//89 201//89
f 210//90 208//90 202//90 204//90
f 202//91 208//91 209//91 203//91
f 207//92 201//92 203//92 209//92
f 205//93 199//93 201//93 207//93
f 200//94 206//94 210//94 204//94
f 199//95 205//95 206//95 200//95
f 205//96 207//96 209//96 208//96 210//96 206//96
