# Blender v2.79 (sub 0) OBJ File: 'Popsicle_Multiple.blend'
# www.blender.org
mtllib Popsicle_Multiple.mtl
o Popsicle_Multiple_Cube.031
v -0.035528 0.263277 -0.008705
v 0.035528 0.263277 -0.008705
v -0.035528 0.263277 0.008705
v 0.035528 0.263277 0.008705
v -0.019923 -0.263277 -0.008536
v -0.035528 -0.227771 -0.008705
v 0.035528 -0.227771 -0.008705
v 0.019923 -0.263277 -0.008536
v -0.035528 -0.227771 0.008705
v -0.019923 -0.263277 0.008536
v 0.019923 -0.263277 0.008536
v 0.035528 -0.227771 0.008705
v -0.145551 0.559883 -0.038968
v 0.145551 0.559883 -0.038967
v 0.145551 0.559883 0.038968
v -0.145551 0.559883 0.038967
v -0.133091 0.632895 -0.038968
v 0.133091 0.632895 -0.038967
v 0.133091 0.632895 0.038968
v -0.133091 0.632895 0.038967
v -0.096384 0.685925 -0.038968
v 0.096384 0.685925 -0.038967
v 0.096384 0.685925 0.038968
v -0.096384 0.685925 0.038967
v -0.042326 0.716588 -0.038968
v 0.042326 0.716588 -0.038968
v 0.042326 0.716588 0.038968
v -0.042326 0.716588 0.038968
v 0.000000 0.040664 -0.039922
v -0.000000 0.040664 0.039922
v 0.000000 0.559883 -0.038968
v -0.000000 0.559883 0.038968
v 0.000000 0.632895 -0.038968
v -0.000000 0.632895 0.038968
v 0.000000 0.685925 -0.038968
v -0.000000 0.685925 0.038968
v 0.000000 0.726727 -0.038968
v -0.000000 0.726727 0.038968
v -0.120088 0.040664 -0.039922
v -0.145551 0.077011 -0.038968
v 0.145551 0.077011 -0.038967
v 0.120088 0.040664 -0.039922
v -0.145551 0.077011 0.038967
v -0.120088 0.040664 0.039922
v 0.120088 0.040664 0.039922
v 0.145551 0.077011 0.038968
v 0.145551 0.181197 0.038968
v 0.145551 0.181197 -0.038967
v -0.145551 0.181197 -0.038968
v -0.145551 0.181197 0.038967
v 0.000000 0.181248 -0.039411
v -0.000000 0.181298 0.039411
v 0.000000 0.309407 -0.039263
v 0.000000 0.434645 -0.039115
v -0.000000 0.309440 0.039263
v -0.000000 0.434661 0.039115
v -0.145551 0.309372 0.038967
v -0.145551 0.434628 0.038967
v 0.145551 0.309372 -0.038967
v 0.145551 0.434628 -0.038967
v 0.145551 0.434628 0.038968
v 0.145551 0.309372 0.038968
v -0.145551 0.434628 -0.038968
v -0.145551 0.309372 -0.038968
vn -1.0000 0.0000 0.0000
vn -0.0000 -0.0003 1.0000
vn 1.0000 0.0000 0.0000
vn 0.0000 -0.0003 -1.0000
vn 0.0000 1.0000 0.0000
vn 0.9155 -0.4024 0.0000
vn -0.9155 -0.4024 0.0000
vn 0.0000 -1.0000 0.0000
vn 0.9857 0.1682 0.0000
vn -0.0040 0.0047 -1.0000
vn 0.0040 0.0047 -1.0000
vn -0.0000 0.0000 1.0000
vn 0.0000 -0.0000 -1.0000
vn -0.9857 0.1682 0.0000
vn -0.4934 0.8698 0.0000
vn -0.8222 0.5691 0.0000
vn 0.8222 0.5691 0.0000
vn -0.2330 0.9725 -0.0000
vn 0.4934 0.8698 0.0000
vn 0.2330 0.9725 0.0000
vn -0.0040 0.0047 1.0000
vn 0.0040 0.0047 1.0000
vn 0.8190 -0.5738 0.0000
vn -0.8190 -0.5738 0.0000
vn -0.0025 0.0006 1.0000
vn -0.0005 0.0006 -1.0000
vn 0.0005 0.0006 -1.0000
vn 0.0005 0.0006 1.0000
vn -0.0005 0.0006 1.0000
vn 0.0025 0.0006 1.0000
vn 0.0025 0.0006 -1.0000
vn -0.0025 0.0006 -1.0000
vn -0.0015 0.0006 1.0000
vn 0.0015 0.0006 1.0000
vn 0.0015 0.0006 -1.0000
vn -0.0015 0.0006 -1.0000
usemtl Light
s off
f 9//1 3//1 1//1 6//1
f 11//2 12//2 4//2 3//2 9//2 10//2
f 7//3 2//3 4//3 12//3
f 5//4 6//4 1//4 2//4 7//4 8//4
f 4//5 2//5 1//5 3//5
f 11//6 8//6 7//6 12//6
f 5//7 10//7 9//7 6//7
f 8//8 11//8 10//8 5//8
usemtl PalePink
f 45//8 30//8 29//8 42//8
f 15//9 14//9 18//9 19//9
f 29//10 39//10 40//10 49//10 51//10
f 41//11 42//11 29//11 51//11 48//11
f 30//8 44//8 39//8 29//8
f 34//12 19//12 23//12 36//12
f 32//12 15//12 19//12 34//12
f 31//13 13//13 17//13 33//13
f 13//14 16//14 20//14 17//14
f 21//15 24//15 28//15 25//15
f 33//13 17//13 21//13 35//13
f 17//16 20//16 24//16 21//16
f 19//17 18//17 22//17 23//17
f 38//18 37//18 25//18 28//18
f 23//19 22//19 26//19 27//19
f 36//12 23//12 27//12 38//12
f 35//13 21//13 25//13 37//13
f 22//13 35//13 37//13 26//13
f 24//12 36//12 38//12 28//12
f 27//20 26//20 37//20 38//20
f 18//13 33//13 35//13 22//13
f 14//13 31//13 33//13 18//13
f 16//12 32//12 34//12 20//12
f 20//12 34//12 36//12 24//12
f 43//21 44//21 30//21 52//21 50//21
f 30//22 45//22 46//22 47//22 52//22
f 41//23 46//23 45//23 42//23
f 43//24 40//24 39//24 44//24
f 46//3 41//3 48//3 47//3
f 40//1 43//1 50//1 49//1
usemtl PalePink2
f 61//3 60//3 14//3 15//3
f 63//1 58//1 16//1 13//1
f 50//25 52//25 55//25 57//25
f 54//26 63//26 13//26 31//26
f 60//27 54//27 31//27 14//27
f 56//28 61//28 15//28 32//28
f 58//29 56//29 32//29 16//29
f 52//30 47//30 62//30 55//30
f 48//31 51//31 53//31 59//31
f 51//32 49//32 64//32 53//32
f 49//1 50//1 57//1 64//1
f 47//3 48//3 59//3 62//3
usemtl White
f 57//33 55//33 56//33 58//33
f 55//34 62//34 61//34 56//34
f 59//35 53//35 54//35 60//35
f 53//36 64//36 63//36 54//36
f 64//1 57//1 58//1 63//1
f 62//3 59//3 60//3 61//3
