# Blender v2.79 (sub 0) OBJ File: 'SoySauce.blend'
# www.blender.org
mtllib SoySauce.mtl
o SoySauce_Cylinder.023
v -0.000000 0.022986 -0.220794
v 0.000000 0.297964 -0.297964
v 0.156125 0.022986 -0.156125
v 0.210692 0.297964 -0.210692
v 0.220794 0.022986 0.000000
v 0.297964 0.297964 0.000000
v 0.156125 0.022986 0.156125
v 0.210692 0.297964 0.210692
v -0.000000 0.022986 0.220794
v -0.000000 0.297964 0.297964
v -0.156125 0.022986 0.156125
v -0.210692 0.297964 0.210692
v -0.220794 0.022986 -0.000000
v -0.297964 0.297964 -0.000000
v -0.156125 0.022986 -0.156125
v -0.210692 0.297964 -0.210692
v 0.178830 0.297964 -0.178830
v -0.000000 0.297964 -0.252904
v 0.252904 0.297964 0.000000
v 0.178830 0.297964 0.178830
v -0.000000 0.297964 0.252904
v -0.178830 0.297964 0.178830
v -0.252904 0.297964 -0.000000
v -0.178830 0.297964 -0.178830
v 0.167022 0.208811 -0.167022
v -0.000000 0.208811 -0.236205
v 0.236205 0.208811 0.000000
v 0.167022 0.208811 0.167022
v -0.000000 0.208811 0.236205
v -0.167022 0.208811 0.167022
v -0.236205 0.208811 -0.000000
v -0.167022 0.208811 -0.167022
vn 0.3704 -0.2510 -0.8943
vn 0.8943 -0.2510 -0.3704
vn 0.8943 -0.2510 0.3704
vn 0.3704 -0.2510 0.8943
vn -0.3704 -0.2510 0.8943
vn -0.8943 -0.2510 0.3704
vn 0.0000 1.0000 0.0000
vn -0.8943 -0.2510 -0.3704
vn -0.3704 -0.2510 -0.8943
vn 0.0000 -1.0000 0.0000
vn 0.3771 0.1705 -0.9103
vn -0.9103 0.1705 -0.3771
vn -0.3771 0.1705 0.9103
vn 0.3771 0.1705 0.9103
vn 0.9103 0.1705 -0.3771
vn -0.3771 0.1705 -0.9103
vn -0.9103 0.1705 0.3771
vn 0.9103 0.1705 0.3771
usemtl White
s off
f 1//1 2//1 4//1 3//1
f 3//2 4//2 6//2 5//2
f 5//3 6//3 8//3 7//3
f 7//4 8//4 10//4 9//4
f 9//5 10//5 12//5 11//5
f 11//6 12//6 14//6 13//6
f 14//7 12//7 22//7 23//7
f 13//8 14//8 16//8 15//8
f 15//9 16//9 2//9 1//9
f 1//10 3//10 5//10 7//10 9//10 11//10 13//10 15//10
f 22//11 21//11 29//11 30//11
f 10//7 8//7 20//7 21//7
f 16//7 14//7 23//7 24//7
f 6//7 4//7 17//7 19//7
f 12//7 10//7 21//7 22//7
f 2//7 16//7 24//7 18//7
f 4//7 2//7 18//7 17//7
f 8//7 6//7 19//7 20//7
f 20//12 19//12 27//12 28//12
f 17//13 18//13 26//13 25//13
f 18//14 24//14 32//14 26//14
f 23//15 22//15 30//15 31//15
f 21//16 20//16 28//16 29//16
f 19//17 17//17 25//17 27//17
f 24//18 23//18 31//18 32//18
usemtl Black
f 25//7 26//7 32//7 31//7 30//7 29//7 28//7 27//7
