# Blender v2.79 (sub 0) OBJ File: 'Can_Closed.blend'
# www.blender.org
mtllib Can_Closed.mtl
o Can_Closed_Cylinder.015
v 0.000000 0.000000 -0.229157
v 0.000000 0.613570 -0.227176
v 0.114579 0.000000 -0.198456
v 0.113588 0.613570 -0.196740
v 0.198456 0.000000 -0.114579
v 0.196740 0.613570 -0.113588
v 0.229157 0.000000 0.000000
v 0.227176 0.613570 0.000000
v 0.198456 0.000000 0.114579
v 0.196740 0.613570 0.113588
v 0.114579 0.000000 0.198456
v 0.113588 0.613570 0.196740
v 0.000000 0.000000 0.229158
v 0.000000 0.613570 0.227176
v -0.114579 0.000000 0.198456
v -0.113588 0.613570 0.196740
v -0.198456 0.000000 0.114579
v -0.196740 0.613570 0.113588
v -0.229157 0.000000 0.000000
v -0.227176 0.613570 0.000000
v -0.198456 0.000000 -0.114579
v -0.196740 0.613570 -0.113588
v -0.114579 0.000000 -0.198456
v -0.113588 0.613570 -0.196740
v 0.118337 0.621545 -0.204965
v 0.000000 0.621545 -0.236673
v 0.204965 0.621545 -0.118336
v 0.236673 0.621545 0.000000
v 0.204965 0.621545 0.118337
v 0.118337 0.621545 0.204965
v 0.000000 0.621545 0.236673
v -0.118336 0.621545 0.204965
v -0.204965 0.621545 0.118337
v -0.236673 0.621545 0.000000
v -0.204965 0.621545 -0.118336
v -0.118337 0.621545 -0.204965
v 0.118337 0.637496 -0.204965
v 0.000000 0.637496 -0.236673
v 0.204965 0.637496 -0.118336
v 0.236673 0.637496 0.000000
v 0.204965 0.637496 0.118337
v 0.118337 0.637496 0.204965
v 0.000000 0.637496 0.236673
v -0.118336 0.637496 0.204965
v -0.204965 0.637496 0.118337
v -0.236673 0.637496 0.000000
v -0.204965 0.637496 -0.118336
v -0.118337 0.637496 -0.204965
v 0.105635 0.631826 -0.182965
v -0.000000 0.631826 -0.211270
v 0.182965 0.631826 -0.105635
v 0.211270 0.631826 0.000000
v 0.182965 0.631826 0.105635
v 0.105635 0.631826 0.182965
v 0.000000 0.631826 0.211270
v -0.105635 0.631826 0.182965
v -0.182965 0.631826 0.105635
v -0.211270 0.631826 0.000000
v -0.182965 0.631826 -0.105635
v -0.105635 0.631826 -0.182965
v 0.105635 0.621297 -0.182965
v -0.000000 0.621297 -0.211270
v 0.182965 0.621297 -0.105635
v 0.211270 0.621297 0.000000
v 0.182965 0.621297 0.105635
v 0.105635 0.621297 0.182965
v 0.000000 0.621297 0.211270
v -0.105635 0.621297 0.182965
v -0.182965 0.621297 0.105635
v -0.211270 0.621297 0.000000
v -0.182965 0.621297 -0.105635
v -0.105635 0.621297 -0.182965
v 0.109365 0.612515 -0.189425
v -0.000000 0.612515 -0.218730
v 0.189425 0.612515 -0.109365
v 0.218730 0.612515 0.000000
v 0.189425 0.612515 0.109365
v 0.109365 0.612515 0.189426
v 0.000000 0.612515 0.218730
v -0.109365 0.612515 0.189426
v -0.189425 0.612515 0.109365
v -0.218730 0.612515 0.000000
v -0.189426 0.612515 -0.109365
v -0.109365 0.612515 -0.189425
v 0.000000 0.080939 -0.227176
v 0.113588 0.080939 -0.196740
v 0.196740 0.080939 -0.113588
v 0.227176 0.080939 0.000000
v 0.196740 0.080939 0.113588
v 0.113588 0.080939 0.196740
v 0.000000 0.080939 0.227176
v -0.113588 0.080939 0.196740
v -0.196740 0.080939 0.113588
v -0.227176 0.080939 0.000000
v -0.196740 0.080939 -0.113588
v -0.113588 0.080939 -0.196740
v 0.114579 0.074616 -0.198456
v 0.198456 0.074616 -0.114579
v 0.229157 0.074616 0.000000
v 0.198456 0.074616 0.114579
v 0.114579 0.074616 0.198456
v 0.000000 0.074616 0.229158
v -0.114579 0.074616 0.198456
v -0.198456 0.074616 0.114579
v -0.229157 0.074616 0.000000
v -0.198456 0.074616 -0.114579
v -0.114579 0.074616 -0.198456
v 0.000000 0.074616 -0.229157
v 0.000000 0.451561 -0.227176
v 0.113588 0.451561 -0.196740
v 0.196740 0.451561 -0.113588
v 0.227176 0.451561 0.000000
v 0.196740 0.451561 0.113588
v 0.113588 0.451561 0.196740
v 0.000000 0.451561 0.227176
v -0.113588 0.451561 0.196740
v -0.196740 0.451561 0.113588
v -0.227176 0.451561 0.000000
v -0.196740 0.451561 -0.113588
v -0.113588 0.451561 -0.196740
v 0.113588 0.214097 -0.196740
v 0.196740 0.214097 -0.113588
v 0.227176 0.214097 0.000000
v 0.196740 0.214097 0.113588
v 0.113588 0.214097 0.196740
v 0.000000 0.214097 0.227176
v -0.113588 0.214097 0.196740
v -0.196740 0.214097 0.113588
v -0.227176 0.214097 0.000000
v -0.196740 0.214097 -0.113588
v -0.113588 0.214097 -0.196740
v 0.000000 0.214097 -0.227176
v -0.000000 0.243780 -0.223361
v 0.000000 0.273463 -0.227176
v -0.000000 0.303146 -0.223361
v 0.000000 0.332829 -0.227176
v -0.000000 0.362512 -0.223361
v 0.000000 0.392195 -0.227176
v -0.000000 0.421878 -0.223361
v 0.111681 0.421878 -0.193437
v 0.113588 0.392195 -0.196740
v 0.111681 0.362512 -0.193437
v 0.113588 0.332829 -0.196740
v 0.111681 0.303146 -0.193437
v 0.113588 0.273463 -0.196740
v 0.111681 0.243780 -0.193437
v 0.193437 0.421878 -0.111681
v 0.196740 0.392195 -0.113588
v 0.193437 0.362512 -0.111681
v 0.196740 0.332829 -0.113588
v 0.193437 0.303146 -0.111681
v 0.196740 0.273463 -0.113588
v 0.193437 0.243780 -0.111681
v 0.223361 0.421878 0.000000
v 0.227176 0.392195 0.000000
v 0.223361 0.362512 0.000000
v 0.227176 0.332829 0.000000
v 0.223361 0.303146 0.000000
v 0.227176 0.273463 0.000000
v 0.223361 0.243780 0.000000
v 0.193437 0.421878 0.111681
v 0.196740 0.392195 0.113588
v 0.193437 0.362512 0.111681
v 0.196740 0.332829 0.113588
v 0.193437 0.303146 0.111681
v 0.196740 0.273463 0.113588
v 0.193437 0.243780 0.111681
v 0.111681 0.421878 0.193437
v 0.113588 0.392195 0.196740
v 0.111681 0.362512 0.193437
v 0.113588 0.332829 0.196740
v 0.111681 0.303146 0.193437
v 0.113588 0.273463 0.196740
v 0.111681 0.243780 0.193437
v 0.000000 0.421878 0.223361
v 0.000000 0.392195 0.227176
v 0.000000 0.362512 0.223361
v 0.000000 0.332829 0.227176
v 0.000000 0.303146 0.223361
v 0.000000 0.273463 0.227176
v 0.000000 0.243780 0.223361
v -0.111681 0.421878 0.193437
v -0.113588 0.392195 0.196740
v -0.111681 0.362512 0.193437
v -0.113588 0.332829 0.196740
v -0.111681 0.303146 0.193437
v -0.113588 0.273463 0.196740
v -0.111681 0.243780 0.193437
v -0.193437 0.421878 0.111681
v -0.196740 0.392195 0.113588
v -0.193437 0.362512 0.111681
v -0.196740 0.332829 0.113588
v -0.193437 0.303146 0.111681
v -0.196740 0.273463 0.113588
v -0.193437 0.243780 0.111681
v -0.223361 0.421878 0.000000
v -0.227176 0.392195 0.000000
v -0.223361 0.362512 0.000000
v -0.227176 0.332829 0.000000
v -0.223361 0.303146 0.000000
v -0.227176 0.273463 0.000000
v -0.223361 0.243780 0.000000
v -0.193437 0.421878 -0.111680
v -0.196740 0.392195 -0.113588
v -0.193437 0.362512 -0.111680
v -0.196740 0.332829 -0.113588
v -0.193437 0.303146 -0.111680
v -0.196740 0.273463 -0.113588
v -0.193437 0.243780 -0.111680
v -0.111681 0.421878 -0.193436
v -0.113588 0.392195 -0.196740
v -0.111681 0.362512 -0.193436
v -0.113588 0.332829 -0.196740
v -0.111681 0.303146 -0.193436
v -0.113588 0.273463 -0.196740
v -0.111681 0.243780 -0.193436
vn 0.2588 0.0000 -0.9659
vn 0.7071 0.0000 -0.7071
vn 0.9659 0.0000 -0.2588
vn 0.9659 0.0000 0.2588
vn 0.7071 0.0000 0.7071
vn 0.2588 0.0000 0.9659
vn -0.2588 0.0000 0.9659
vn -0.7071 0.0000 0.7071
vn -0.9659 0.0000 0.2588
vn -0.9659 0.0000 -0.2588
vn -0.7071 0.0000 -0.7071
vn -0.2588 0.0000 -0.9659
vn -0.2568 -0.1232 -0.9586
vn -0.7017 -0.1232 -0.7017
vn -0.9586 -0.1232 -0.2568
vn -0.9586 -0.1232 0.2568
vn -0.7017 -0.1232 0.7017
vn -0.2568 -0.1232 0.9586
vn 0.2568 -0.1232 0.9586
vn 0.7017 -0.1232 0.7017
vn 0.9586 -0.1232 0.2568
vn 0.9586 -0.1232 -0.2568
vn 0.7017 -0.1232 -0.7017
vn 0.2568 -0.1232 -0.9586
vn 0.2568 0.1232 -0.9586
vn 0.7017 0.1232 -0.7017
vn 0.9586 0.1232 -0.2568
vn 0.9586 0.1232 0.2568
vn 0.7017 0.1232 0.7017
vn 0.2568 0.1232 0.9586
vn -0.2568 0.1232 0.9586
vn -0.7017 0.1232 0.7017
vn -0.9586 0.1232 0.2568
vn -0.9586 0.1232 -0.2568
vn -0.7017 0.1232 -0.7017
vn -0.2568 0.1232 -0.9586
vn 0.4639 -0.7547 0.4639
vn 0.0000 -1.0000 0.0000
vn 0.6337 -0.7547 0.1698
vn -0.1698 -0.7547 -0.6337
vn 0.1698 -0.7547 -0.6337
vn 0.6337 -0.7547 -0.1698
vn -0.4639 -0.7547 -0.4639
vn 0.4639 -0.7547 -0.4639
vn -0.6337 -0.7547 -0.1698
vn -0.6337 -0.7547 0.1698
vn -0.4639 -0.7547 0.4639
vn -0.1698 -0.7547 0.6337
vn 0.1698 -0.7547 0.6337
vn -0.0583 0.9743 -0.2175
vn -0.2175 0.9743 0.0583
vn 0.2175 0.9743 0.0583
vn 0.0583 0.9743 -0.2175
vn -0.2175 0.9743 -0.0583
vn 0.1592 0.9743 0.1592
vn -0.0583 0.9743 0.2175
vn 0.1592 0.9743 -0.1592
vn -0.1592 0.9743 -0.1592
vn 0.0583 0.9743 0.2175
vn -0.1592 0.9743 0.1592
vn 0.2175 0.9743 -0.0583
vn -0.5467 -0.6343 0.5467
vn 0.7468 -0.6343 -0.2001
vn -0.2001 -0.6343 -0.7468
vn -0.7468 -0.6343 0.2001
vn 0.7468 -0.6343 0.2001
vn 0.2001 -0.6343 -0.7468
vn -0.7468 -0.6343 -0.2001
vn 0.5467 -0.6343 0.5467
vn -0.2001 -0.6343 0.7468
vn 0.5467 -0.6343 -0.5467
vn -0.5467 -0.6343 -0.5467
vn 0.2001 -0.6343 0.7468
vn 0.0000 1.0000 -0.0000
vn -0.2477 0.2897 -0.9245
vn -0.6768 0.2897 -0.6768
vn -0.9245 0.2897 -0.2477
vn -0.9245 0.2897 0.2477
vn -0.6768 0.2897 0.6768
vn -0.2477 0.2897 0.9245
vn 0.2477 0.2897 0.9245
vn 0.6768 0.2897 0.6768
vn 0.9245 0.2897 0.2477
vn 0.9245 0.2897 -0.2477
vn 0.6768 0.2897 -0.6768
vn 0.2477 0.2897 -0.9245
usemtl LightGrey
s off
f 109//1 2//1 4//1 110//1
f 110//2 4//2 6//2 111//2
f 111//3 6//3 8//3 112//3
f 112//4 8//4 10//4 113//4
f 113//5 10//5 12//5 114//5
f 114//6 12//6 14//6 115//6
f 115//7 14//7 16//7 116//7
f 116//8 16//8 18//8 117//8
f 117//9 18//9 20//9 118//9
f 118//10 20//10 22//10 119//10
f 119//11 22//11 24//11 120//11
f 120//12 24//12 2//12 109//12
f 210//13 120//13 109//13 139//13
f 203//14 119//14 120//14 210//14
f 196//15 118//15 119//15 203//15
f 189//16 117//16 118//16 196//16
f 182//17 116//17 117//17 189//17
f 175//18 115//18 116//18 182//18
f 168//19 114//19 115//19 175//19
f 161//20 113//20 114//20 168//20
f 154//21 112//21 113//21 161//21
f 147//22 111//22 112//22 154//22
f 140//23 110//23 111//23 147//23
f 139//24 109//24 110//24 140//24
f 85//1 132//1 121//1 86//1
f 86//2 121//2 122//2 87//2
f 87//3 122//3 123//3 88//3
f 88//4 123//4 124//4 89//4
f 89//5 124//5 125//5 90//5
f 90//6 125//6 126//6 91//6
f 91//7 126//7 127//7 92//7
f 92//8 127//8 128//8 93//8
f 93//9 128//9 129//9 94//9
f 94//10 129//10 130//10 95//10
f 95//11 130//11 131//11 96//11
f 96//12 131//12 132//12 85//12
f 132//25 133//25 146//25 121//25
f 133//24 134//24 145//24 146//24
f 134//25 135//25 144//25 145//25
f 135//24 136//24 143//24 144//24
f 136//25 137//25 142//25 143//25
f 137//24 138//24 141//24 142//24
f 138//25 139//25 140//25 141//25
f 121//26 146//26 153//26 122//26
f 146//23 145//23 152//23 153//23
f 145//26 144//26 151//26 152//26
f 144//23 143//23 150//23 151//23
f 143//26 142//26 149//26 150//26
f 142//23 141//23 148//23 149//23
f 141//26 140//26 147//26 148//26
f 122//27 153//27 160//27 123//27
f 153//22 152//22 159//22 160//22
f 152//27 151//27 158//27 159//27
f 151//22 150//22 157//22 158//22
f 150//27 149//27 156//27 157//27
f 149//22 148//22 155//22 156//22
f 148//27 147//27 154//27 155//27
f 123//28 160//28 167//28 124//28
f 160//21 159//21 166//21 167//21
f 159//28 158//28 165//28 166//28
f 158//21 157//21 164//21 165//21
f 157//28 156//28 163//28 164//28
f 156//21 155//21 162//21 163//21
f 155//28 154//28 161//28 162//28
f 124//29 167//29 174//29 125//29
f 167//20 166//20 173//20 174//20
f 166//29 165//29 172//29 173//29
f 165//20 164//20 171//20 172//20
f 164//29 163//29 170//29 171//29
f 163//20 162//20 169//20 170//20
f 162//29 161//29 168//29 169//29
f 125//30 174//30 181//30 126//30
f 174//19 173//19 180//19 181//19
f 173//30 172//30 179//30 180//30
f 172//19 171//19 178//19 179//19
f 171//30 170//30 177//30 178//30
f 170//19 169//19 176//19 177//19
f 169//30 168//30 175//30 176//30
f 126//31 181//31 188//31 127//31
f 181//18 180//18 187//18 188//18
f 180//31 179//31 186//31 187//31
f 179//18 178//18 185//18 186//18
f 178//31 177//31 184//31 185//31
f 177//18 176//18 183//18 184//18
f 176//31 175//31 182//31 183//31
f 127//32 188//32 195//32 128//32
f 188//17 187//17 194//17 195//17
f 187//32 186//32 193//32 194//32
f 186//17 185//17 192//17 193//17
f 185//32 184//32 191//32 192//32
f 184//17 183//17 190//17 191//17
f 183//32 182//32 189//32 190//32
f 128//33 195//33 202//33 129//33
f 195//16 194//16 201//16 202//16
f 194//33 193//33 200//33 201//33
f 193//16 192//16 199//16 200//16
f 192//33 191//33 198//33 199//33
f 191//16 190//16 197//16 198//16
f 190//33 189//33 196//33 197//33
f 129//34 202//34 209//34 130//34
f 202//15 201//15 208//15 209//15
f 201//34 200//34 207//34 208//34
f 200//15 199//15 206//15 207//15
f 199//34 198//34 205//34 206//34
f 198//15 197//15 204//15 205//15
f 197//34 196//34 203//34 204//34
f 130//35 209//35 216//35 131//35
f 209//14 208//14 215//14 216//14
f 208//35 207//35 214//35 215//35
f 207//14 206//14 213//14 214//14
f 206//35 205//35 212//35 213//35
f 205//14 204//14 211//14 212//14
f 204//35 203//35 210//35 211//35
f 131//36 216//36 133//36 132//36
f 216//13 215//13 134//13 133//13
f 215//36 214//36 135//36 134//36
f 214//13 213//13 136//13 135//13
f 213//36 212//36 137//36 136//36
f 212//13 211//13 138//13 137//13
f 211//36 210//36 139//36 138//36
usemtl Grey
f 12//37 10//37 29//37 30//37
f 1//38 3//38 5//38 7//38 9//38 11//38 13//38 15//38 17//38 19//38 21//38 23//38
f 31//6 30//6 42//6 43//6
f 10//39 8//39 28//39 29//39
f 2//40 24//40 36//40 26//40
f 4//41 2//41 26//41 25//41
f 8//42 6//42 27//42 28//42
f 24//43 22//43 35//43 36//43
f 6//44 4//44 25//44 27//44
f 22//45 20//45 34//45 35//45
f 20//46 18//46 33//46 34//46
f 18//47 16//47 32//47 33//47
f 16//48 14//48 31//48 32//48
f 14//49 12//49 30//49 31//49
f 43//50 42//50 54//50 55//50
f 28//3 27//3 39//3 40//3
f 35//10 34//10 46//10 47//10
f 32//7 31//7 43//7 44//7
f 29//4 28//4 40//4 41//4
f 36//11 35//11 47//11 48//11
f 25//1 26//1 38//1 37//1
f 33//8 32//8 44//8 45//8
f 30//5 29//5 41//5 42//5
f 26//12 36//12 48//12 38//12
f 27//2 25//2 37//2 39//2
f 34//9 33//9 45//9 46//9
f 58//3 57//3 69//3 70//3
f 40//51 39//51 51//51 52//51
f 47//52 46//52 58//52 59//52
f 44//53 43//53 55//53 56//53
f 41//54 40//54 52//54 53//54
f 48//55 47//55 59//55 60//55
f 37//56 38//56 50//56 49//56
f 45//57 44//57 56//57 57//57
f 42//58 41//58 53//58 54//58
f 38//59 48//59 60//59 50//59
f 39//60 37//60 49//60 51//60
f 46//61 45//61 57//61 58//61
f 63//62 61//62 73//62 75//62
f 55//12 54//12 66//12 67//12
f 52//9 51//9 63//9 64//9
f 59//4 58//4 70//4 71//4
f 56//1 55//1 67//1 68//1
f 53//10 52//10 64//10 65//10
f 60//5 59//5 71//5 72//5
f 49//7 50//7 62//7 61//7
f 57//2 56//2 68//2 69//2
f 54//11 53//11 65//11 66//11
f 50//6 60//6 72//6 62//6
f 51//8 49//8 61//8 63//8
f 70//63 69//63 81//63 82//63
f 67//64 66//64 78//64 79//64
f 64//65 63//65 75//65 76//65
f 71//66 70//66 82//66 83//66
f 68//67 67//67 79//67 80//67
f 65//68 64//68 76//68 77//68
f 72//69 71//69 83//69 84//69
f 61//70 62//70 74//70 73//70
f 69//71 68//71 80//71 81//71
f 66//72 65//72 77//72 78//72
f 62//73 72//73 84//73 74//73
f 73//74 74//74 84//74 83//74 82//74 81//74 80//74 79//74 78//74 77//74 76//74 75//74
f 107//75 96//75 85//75 108//75
f 106//76 95//76 96//76 107//76
f 105//77 94//77 95//77 106//77
f 104//78 93//78 94//78 105//78
f 103//79 92//79 93//79 104//79
f 102//80 91//80 92//80 103//80
f 101//81 90//81 91//81 102//81
f 100//82 89//82 90//82 101//82
f 99//83 88//83 89//83 100//83
f 98//84 87//84 88//84 99//84
f 97//85 86//85 87//85 98//85
f 108//86 85//86 86//86 97//86
f 1//1 108//1 97//1 3//1
f 3//2 97//2 98//2 5//2
f 5//3 98//3 99//3 7//3
f 7//4 99//4 100//4 9//4
f 9//5 100//5 101//5 11//5
f 11//6 101//6 102//6 13//6
f 13//7 102//7 103//7 15//7
f 15//8 103//8 104//8 17//8
f 17//9 104//9 105//9 19//9
f 19//10 105//10 106//10 21//10
f 21//11 106//11 107//11 23//11
f 23//12 107//12 108//12 1//12
