# Blender v2.79 (sub 0) OBJ File: 'FirstAidKit_Hard.blend'
# www.blender.org
mtllib FirstAidKit_Hard.mtl
o FirstAidKit_Hard_Cube.003
v -0.861773 -0.617714 -0.299342
v -0.941077 -0.538410 -0.299342
v -0.941077 0.538410 -0.299342
v -0.861773 0.617714 -0.299342
v 0.941077 -0.538410 -0.299342
v 0.861773 -0.617714 -0.299342
v 0.861773 0.617714 -0.299342
v 0.941077 0.538410 -0.299342
v -0.861773 0.617714 0.104268
v -0.941077 0.538410 0.104268
v 0.861773 -0.617714 0.104268
v 0.941077 -0.538410 0.104268
v -0.941077 -0.538410 0.104268
v -0.861773 -0.617714 0.104268
v 0.941077 0.538410 0.104268
v 0.861773 0.617714 0.104268
v -0.211441 0.050883 0.377154
v -0.211441 -0.050883 0.377154
v -0.042663 0.201658 0.377657
v -0.042663 0.050883 0.377657
v -0.042663 -0.050883 0.377657
v -0.042663 -0.201658 0.377657
v 0.054661 -0.050883 0.377657
v 0.054661 0.050883 0.377657
v 0.054661 0.201658 0.377657
v 0.054661 -0.201658 0.377657
v 0.223055 0.050883 0.377154
v 0.223055 -0.050883 0.377154
v -0.237434 0.066270 0.364463
v -0.237434 -0.066270 0.364463
v -0.064118 0.223578 0.364966
v -0.064118 0.066270 0.364966
v -0.064118 -0.066270 0.364966
v -0.064118 -0.223578 0.364966
v 0.076116 -0.066270 0.364966
v 0.076116 0.066270 0.364966
v 0.076116 0.223578 0.364966
v 0.076116 -0.223578 0.364966
v 0.249048 0.066270 0.364463
v 0.249048 -0.066270 0.364463
v -0.324871 -0.260573 0.371507
v -0.276812 -0.297322 0.371507
v -0.276812 0.297323 0.371507
v -0.324871 0.260573 0.371507
v -0.288929 -0.308412 0.324826
v -0.336988 -0.271663 0.324826
v -0.336988 0.271663 0.324826
v -0.288929 0.308412 0.324826
v 0.276812 -0.297323 0.371507
v 0.324871 -0.260573 0.371507
v 0.324871 0.260573 0.371507
v 0.276812 0.297322 0.371507
v 0.336988 -0.271663 0.324826
v 0.288929 -0.308412 0.324826
v 0.288929 0.308412 0.324826
v 0.336988 0.271663 0.324826
v -0.941077 0.617714 0.130633
v 0.941077 0.617714 0.130633
v -0.907841 0.584477 0.342473
v -0.941077 0.617714 0.261952
v 0.907841 0.584477 0.342473
v 0.941077 0.617714 0.261952
v -0.727154 -0.617714 0.130633
v -0.941077 -0.423487 0.130633
v 0.941077 -0.423487 0.130633
v 0.727153 -0.617714 0.130633
v -0.907841 -0.390250 0.342473
v -0.693917 -0.584477 0.342473
v -0.941077 -0.423487 0.261952
v -0.727154 -0.617714 0.261952
v 0.693917 -0.584477 0.342473
v 0.907841 -0.390250 0.342473
v 0.727153 -0.617714 0.261952
v 0.941077 -0.423487 0.261952
v -0.917832 0.583926 0.130633
v 0.917832 0.583926 0.130633
v -0.709193 -0.596496 0.130633
v -0.917832 -0.410917 0.130633
v 0.917832 -0.410917 0.130633
v 0.709193 -0.596496 0.130633
v -0.893022 0.575067 0.063783
v 0.942643 0.575067 0.063783
v -0.684382 -0.605356 0.063783
v -0.893022 -0.419776 0.063783
v 0.942643 -0.419776 0.063783
v 0.734003 -0.605356 0.063783
v -0.805122 0.599663 0.214344
v -0.805122 0.635765 0.214344
v -0.805122 0.599663 -0.055770
v -0.805122 0.635765 -0.055770
v -0.614140 0.599663 0.214344
v -0.614140 0.635765 0.214344
v -0.614140 0.599663 -0.055770
v -0.614140 0.635765 -0.055770
v -0.782741 0.635765 0.124365
v -0.782741 0.635765 -0.024114
v -0.636522 0.635765 -0.024114
v -0.636522 0.635765 0.124365
v -0.782741 0.656384 0.124365
v -0.782741 0.656384 -0.024114
v -0.636522 0.656384 -0.024114
v -0.636522 0.656384 0.124365
v -0.431489 0.609666 0.032242
v -0.431489 0.609666 -0.109854
v -0.291556 0.609666 -0.109854
v -0.291556 0.609666 0.032242
v -0.423709 0.659362 0.024343
v -0.423709 0.659362 -0.101955
v -0.299336 0.659362 -0.101955
v -0.299336 0.659362 0.024343
v -0.400995 0.620041 -0.009754
v -0.322050 0.620041 -0.009754
v -0.400995 0.645089 -0.009754
v -0.322050 0.645089 -0.009754
v -0.379922 0.620041 -0.206408
v -0.339848 0.620041 -0.233526
v -0.260903 0.620041 -0.162530
v -0.300977 0.620041 -0.135413
v -0.339848 0.645089 -0.233526
v -0.379922 0.645089 -0.206408
v -0.300977 0.645089 -0.135413
v -0.260903 0.645089 -0.162530
v 0.805122 0.599663 0.214344
v 0.805122 0.635765 0.214344
v 0.805122 0.599663 -0.055770
v 0.805122 0.635765 -0.055770
v 0.614140 0.599663 0.214344
v 0.614140 0.635765 0.214344
v 0.614140 0.599663 -0.055770
v 0.614140 0.635765 -0.055770
v 0.782741 0.635765 0.124365
v 0.782741 0.635765 -0.024114
v 0.636522 0.635765 -0.024114
v 0.636522 0.635765 0.124365
v 0.782741 0.656384 0.124365
v 0.782741 0.656384 -0.024114
v 0.636522 0.656384 -0.024114
v 0.636522 0.656384 0.124365
v 0.431489 0.609666 0.032242
v 0.431489 0.609666 -0.109854
v 0.291556 0.609666 -0.109854
v 0.291556 0.609666 0.032242
v 0.423709 0.659362 0.024343
v 0.423709 0.659362 -0.101955
v 0.299336 0.659362 -0.101955
v 0.299336 0.659362 0.024343
v 0.400995 0.620041 -0.009754
v 0.322050 0.620041 -0.009754
v 0.400995 0.645089 -0.009754
v 0.322050 0.645089 -0.009754
v 0.000000 0.620041 -0.233526
v 0.000000 0.620041 -0.162530
v 0.000000 0.645089 -0.233526
v 0.000000 0.645089 -0.162530
v 0.379922 0.620041 -0.206408
v 0.339848 0.620041 -0.233526
v 0.260903 0.620041 -0.162530
v 0.300977 0.620041 -0.135413
v 0.339848 0.645089 -0.233526
v 0.379922 0.645089 -0.206408
v 0.300977 0.645089 -0.135413
v 0.260903 0.645089 -0.162530
vn 0.0000 1.0000 0.0000
vn 0.0000 -1.0000 0.0000
vn 0.0000 0.0000 1.0000
vn -1.0000 0.0000 0.0000
vn 1.0000 -0.0000 0.0000
vn -0.7071 0.7071 0.0000
vn 0.7071 -0.7071 0.0000
vn -0.7071 -0.7071 0.0000
vn 0.7071 0.7071 0.0000
vn 0.0000 0.0000 -1.0000
vn -0.0030 0.0000 1.0000
vn 0.0030 0.0000 1.0000
vn -0.4387 0.0000 0.8986
vn -0.0023 -0.6342 0.7732
vn 0.5091 0.0000 0.8607
vn 0.0023 -0.6342 0.7732
vn -0.5091 0.0000 0.8607
vn 0.0000 0.5011 0.8654
vn 0.4387 0.0000 0.8986
vn 0.0000 -0.5011 0.8654
vn -0.0023 0.6342 0.7732
vn 0.0023 0.6342 0.7732
vn 0.9244 0.0000 0.3815
vn 0.0000 -0.9244 0.3815
vn -0.9244 0.0000 0.3815
vn 0.0000 0.9244 0.3815
vn -0.5807 -0.6396 0.5037
vn 0.5807 -0.6396 0.5037
vn -0.6722 -0.7404 0.0000
vn 0.6722 -0.7404 0.0000
vn -0.9375 0.0000 -0.3479
vn -0.6575 -0.7392 -0.1461
vn 0.0000 0.9913 -0.1314
vn 0.9375 0.0000 0.3479
vn 0.0000 -0.9913 0.1314
vn 0.6281 -0.7062 0.3267
vn 0.0000 0.9729 0.2311
vn -0.9679 0.0000 0.2512
vn 0.9679 0.0000 0.2512
vn -0.5740 -0.7506 0.3273
vn -0.5740 0.7506 0.3273
vn 0.5740 -0.7506 0.3273
vn 0.5740 0.7506 0.3273
vn -0.0000 -0.9729 0.2311
vn 0.0000 0.1570 -0.9876
vn 0.9880 0.1547 0.0000
vn -0.9880 0.1547 0.0000
vn 0.0000 0.1570 0.9876
vn 0.9862 0.0000 0.1654
vn -0.5604 0.0000 -0.8282
vn 0.5604 0.0000 0.8282
vn -0.9943 0.0000 -0.1065
vn -0.9862 0.0000 0.1654
vn 0.5604 0.0000 -0.8282
vn -0.5604 0.0000 0.8282
vn 0.9943 0.0000 -0.1065
usemtl White
s off
f 7//1 4//1 9//1 16//1
f 1//2 6//2 11//2 14//2
f 13//3 14//3 11//3 12//3 15//3 16//3 9//3 10//3
f 13//4 10//4 3//4 2//4
f 5//5 8//5 15//5 12//5
f 9//6 4//6 3//6 10//6
f 11//7 6//7 5//7 12//7
f 1//8 14//8 13//8 2//8
f 7//9 16//9 15//9 8//9
f 1//10 2//10 3//10 4//10 7//10 8//10 5//10 6//10
f 21//11 20//11 17//11 18//11
f 24//3 20//3 21//3 23//3
f 19//3 20//3 24//3 25//3
f 22//3 26//3 23//3 21//3
f 23//12 28//12 27//12 24//12
f 17//13 29//13 30//13 18//13
f 18//14 30//14 33//14 21//14
f 24//15 36//15 37//15 25//15
f 23//16 35//16 40//16 28//16
f 19//17 31//17 32//17 20//17
f 25//18 37//18 31//18 19//18
f 28//19 40//19 39//19 27//19
f 21//17 33//17 34//17 22//17
f 22//20 34//20 38//20 26//20
f 20//21 32//21 29//21 17//21
f 26//15 38//15 35//15 23//15
f 27//22 39//22 36//22 24//22
f 58//1 57//1 60//1 62//1
f 65//5 58//5 62//5 74//5
f 61//23 72//23 74//23 62//23
f 70//24 73//24 71//24 68//24
f 69//4 60//4 57//4 64//4
f 71//3 72//3 61//3 59//3 67//3 68//3
f 67//25 59//25 60//25 69//25
f 62//26 60//26 59//26 61//26
f 63//2 66//2 73//2 70//2
f 70//27 68//27 67//27 69//27
f 71//28 73//28 74//28 72//28
f 63//29 70//29 69//29 64//29
f 65//30 74//30 73//30 66//30
f 65//10 66//10 80//10 79//10
f 58//10 65//10 79//10 76//10
f 64//10 57//10 75//10 78//10
f 66//10 63//10 77//10 80//10
f 63//10 64//10 78//10 77//10
f 57//10 58//10 76//10 75//10
f 78//31 75//31 81//31 84//31
f 77//32 78//32 84//32 83//32
f 75//33 76//33 82//33 81//33
f 76//34 79//34 85//34 82//34
f 80//35 77//35 83//35 86//35
f 79//36 80//36 86//36 85//36
usemtl Red
f 49//3 50//3 51//3 52//3 43//3 44//3 41//3 42//3
f 55//37 48//37 43//37 52//37
f 41//38 44//38 47//38 46//38
f 53//39 56//39 51//39 50//39
f 45//40 42//40 41//40 46//40
f 43//41 48//41 47//41 44//41
f 49//42 54//42 53//42 50//42
f 55//43 52//43 51//43 56//43
f 45//44 54//44 49//44 42//44
usemtl LightGrey
f 87//4 88//4 90//4 89//4
f 89//10 90//10 94//10 93//10
f 93//5 94//5 92//5 91//5
f 91//3 92//3 88//3 87//3
f 89//2 93//2 91//2 87//2
f 92//1 94//1 97//1 98//1
f 95//3 98//3 102//3 99//3
f 90//1 88//1 95//1 96//1
f 88//1 92//1 98//1 95//1
f 94//1 90//1 96//1 97//1
f 101//1 100//1 99//1 102//1
f 97//10 96//10 100//10 101//10
f 98//5 97//5 101//5 102//5
f 96//4 95//4 99//4 100//4
f 105//2 106//2 103//2 104//2
f 109//1 108//1 107//1 110//1
f 105//45 104//45 108//45 109//45
f 106//46 105//46 109//46 110//46
f 104//47 103//47 107//47 108//47
f 103//48 106//48 110//48 107//48
f 123//5 125//5 126//5 124//5
f 125//10 129//10 130//10 126//10
f 129//4 127//4 128//4 130//4
f 127//3 123//3 124//3 128//3
f 125//2 123//2 127//2 129//2
f 128//1 134//1 133//1 130//1
f 131//3 135//3 138//3 134//3
f 126//1 132//1 131//1 124//1
f 124//1 131//1 134//1 128//1
f 130//1 133//1 132//1 126//1
f 137//1 138//1 135//1 136//1
f 133//10 137//10 136//10 132//10
f 134//4 138//4 137//4 133//4
f 132//5 136//5 135//5 131//5
f 141//2 140//2 139//2 142//2
f 145//1 146//1 143//1 144//1
f 141//45 145//45 144//45 140//45
f 142//47 146//47 145//47 141//47
f 140//46 144//46 143//46 139//46
f 139//48 143//48 146//48 142//48
usemtl Grey
f 116//10 119//10 153//10 151//10
f 119//1 122//1 154//1 153//1
f 118//2 112//2 111//2 115//2
f 111//3 112//3 114//3 113//3
f 121//1 120//1 113//1 114//1
f 122//3 117//3 152//3 154//3
f 117//2 116//2 151//2 152//2
f 112//49 118//49 121//49 114//49
f 116//2 117//2 118//2 115//2
f 120//1 121//1 122//1 119//1
f 119//50 116//50 115//50 120//50
f 121//51 118//51 117//51 122//51
f 115//52 111//52 113//52 120//52
f 156//10 151//10 153//10 159//10
f 159//1 153//1 154//1 162//1
f 158//2 155//2 147//2 148//2
f 147//3 149//3 150//3 148//3
f 161//1 150//1 149//1 160//1
f 162//3 154//3 152//3 157//3
f 157//2 152//2 151//2 156//2
f 148//53 150//53 161//53 158//53
f 156//2 155//2 158//2 157//2
f 160//1 159//1 162//1 161//1
f 159//54 160//54 155//54 156//54
f 161//55 162//55 157//55 158//55
f 155//56 160//56 149//56 147//56
