# Blender v2.79 (sub 0) OBJ File: 'Knife.blend'
# www.blender.org
mtllib Knife.mtl
o Knife_Cube
v -0.055400 -0.184885 0.024509
v -0.055400 -0.184885 -0.024509
v -0.059422 -0.363614 0.024509
v -0.059422 -0.363614 -0.024509
v -0.037546 0.246582 -0.024509
v -0.037546 0.246582 0.024509
v -0.107421 -0.320936 -0.024509
v -0.107421 -0.320936 0.024509
v -0.052951 -0.244719 -0.024509
v -0.052951 -0.244719 0.024509
v -0.027672 0.176167 -0.024509
v -0.027672 0.176167 0.024509
v -0.045353 0.057908 0.024509
v -0.045353 0.057908 -0.024509
v -0.049883 -0.051544 0.024509
v -0.049883 -0.051544 -0.024509
v -0.055180 0.139558 0.024509
v -0.061162 0.114120 0.024509
v -0.061162 0.114120 -0.024509
v -0.055180 0.139558 -0.024509
v -0.069587 0.015582 0.024509
v -0.070850 -0.009940 0.024509
v -0.070850 -0.009940 -0.024509
v -0.069587 0.015582 -0.024509
v -0.075799 -0.105572 0.024509
v -0.077110 -0.131132 0.024509
v -0.077110 -0.131132 -0.024509
v -0.075799 -0.105572 -0.024509
v 0.089926 -0.170543 0.010515
v 0.042795 -0.173143 0.033505
v 0.042795 -0.173143 -0.033505
v 0.089926 -0.170543 -0.010515
v 0.043518 -0.345621 0.010515
v -0.003686 -0.349222 0.033505
v -0.003686 -0.349222 -0.033505
v 0.043518 -0.345621 -0.010515
v 0.045790 0.249064 0.033505
v 0.092913 0.250468 0.010515
v 0.092913 0.250468 -0.010515
v 0.045790 0.249064 -0.033505
v 0.026978 -0.294049 -0.033505
v 0.074259 -0.290309 -0.010515
v 0.074259 -0.290309 0.010515
v 0.026978 -0.294049 0.033505
v 0.034948 -0.233125 0.033505
v 0.082092 -0.230426 0.010515
v 0.034948 -0.233125 -0.033505
v 0.082092 -0.230426 -0.010515
v 0.092501 0.192344 -0.010515
v 0.045364 0.189042 -0.033505
v 0.045364 0.189042 0.033505
v 0.092501 0.192344 0.010515
v 0.091607 0.066366 -0.010515
v 0.044480 0.064395 -0.033505
v 0.044480 0.064395 0.033505
v 0.091607 0.066366 0.010515
v 0.090849 -0.040434 -0.010515
v 0.043720 -0.042701 -0.033505
v 0.043720 -0.042701 0.033505
v 0.090849 -0.040434 0.010515
v 0.045008 0.138915 -0.033505
v 0.092128 0.139820 -0.010515
v 0.091947 0.114376 -0.010515
v 0.044828 0.113471 -0.033505
v 0.044828 0.113471 0.033505
v 0.091947 0.114376 0.010515
v 0.092128 0.139820 0.010515
v 0.045008 0.138915 0.033505
v 0.044180 0.022104 -0.033505
v 0.091306 0.023892 -0.010515
v 0.091125 -0.001567 -0.010515
v 0.043999 -0.003355 -0.033505
v 0.043999 -0.003355 0.033505
v 0.091125 -0.001567 0.010515
v 0.091306 0.023892 0.010515
v 0.044180 0.022104 0.033505
v 0.043339 -0.096423 -0.033505
v 0.090467 -0.094365 -0.010515
v 0.090286 -0.119835 -0.010515
v 0.043158 -0.121894 -0.033505
v 0.043158 -0.121894 0.033505
v 0.090286 -0.119835 0.010515
v 0.090467 -0.094365 0.010515
v 0.043339 -0.096423 0.033505
v -0.089064 0.258986 -0.038906
v -0.109576 0.258375 -0.017447
v -0.109576 0.258375 0.017447
v -0.089064 0.258986 0.038906
v 0.134895 0.265657 0.038906
v 0.155407 0.266268 0.017447
v -0.088600 0.243401 0.038906
v -0.109112 0.242790 0.017447
v 0.155407 0.266268 -0.017447
v 0.134895 0.265657 -0.038906
v -0.109112 0.242790 -0.017447
v -0.088600 0.243401 -0.038906
v 0.155871 0.250683 0.017447
v 0.135359 0.250073 0.038906
v 0.135359 0.250073 -0.038906
v 0.155871 0.250683 -0.017447
v -0.064836 0.248543 -0.008934
v 0.123683 0.255363 -0.008683
v -0.064836 0.248543 0.008861
v 0.123683 0.255363 0.008609
v 0.122280 0.817425 -0.008683
v 0.122280 0.817425 0.008609
v -0.066468 0.814616 0.001090
v -0.066468 0.814616 -0.001163
v 0.082033 0.919482 -0.008683
v 0.082033 0.919482 0.008609
v -0.063145 0.926793 0.001090
v -0.063145 0.926793 -0.001163
v 0.061989 1.015722 -0.008683
v 0.061989 1.015722 0.008609
v -0.051677 1.030137 0.001090
v -0.051677 1.030137 -0.001163
v 0.053515 1.087290 -0.008683
v 0.053515 1.087290 0.008609
v -0.021515 1.113600 0.001090
v -0.021515 1.113600 -0.001163
v 0.055984 1.199250 -0.006937
v 0.055984 1.199250 0.006863
v 0.039812 1.186110 0.001090
v 0.039812 1.186110 -0.001163
v 0.019368 0.251590 -0.008683
v 0.019368 0.251590 0.008609
v 0.017838 0.815871 -0.008683
v 0.017838 0.815871 0.008609
v 0.019019 0.922655 -0.008683
v 0.019019 0.922655 0.008609
v 0.029325 1.019864 -0.008683
v 0.029325 1.019864 0.008609
v 0.123310 0.373921 0.008609
v -0.065058 0.362443 0.001090
v -0.065058 0.362443 -0.001163
v 0.123310 0.373921 -0.008683
v 0.019079 0.367570 -0.008683
v 0.019079 0.367570 0.008609
v -0.065040 0.356832 0.008861
v -0.065040 0.356832 -0.008934
v 0.123322 0.368417 -0.008683
v 0.123322 0.368417 0.008609
v 0.019094 0.362007 -0.008683
v 0.019094 0.362007 0.008609
v 0.122801 0.592885 0.008609
v 0.018466 0.588903 -0.008683
v 0.018466 0.588903 0.008609
v -0.065754 0.585688 0.001090
v -0.065754 0.585688 -0.001163
v 0.122801 0.592885 -0.008683
v -0.065667 0.557782 0.001090
v -0.065580 0.529877 0.001090
v -0.065493 0.501971 0.001090
v -0.065406 0.474065 0.001090
v -0.065319 0.446160 0.001090
v -0.065232 0.418254 0.001090
v -0.065145 0.390349 0.001090
v -0.065667 0.557782 -0.001163
v -0.065580 0.529877 -0.001163
v -0.065493 0.501971 -0.001163
v -0.065406 0.474065 -0.001163
v -0.065319 0.446160 -0.001163
v -0.065232 0.418254 -0.001163
v -0.065145 0.390349 -0.001163
v 0.122865 0.565515 -0.008683
v 0.122928 0.538144 -0.008683
v 0.122992 0.510774 -0.008683
v 0.123055 0.483403 -0.008683
v 0.123119 0.456032 -0.008683
v 0.123183 0.428662 -0.008683
v 0.123246 0.401291 -0.008683
v 0.123246 0.401291 0.008609
v 0.123183 0.428662 0.008609
v 0.123119 0.456032 0.008609
v 0.123055 0.483403 0.008609
v 0.122992 0.510774 0.008609
v 0.122928 0.538144 0.008609
v 0.122865 0.565515 0.008609
v 0.019002 0.395236 -0.008683
v 0.018926 0.422903 -0.008683
v 0.018849 0.450570 -0.008683
v 0.018772 0.478236 -0.008683
v 0.018696 0.505903 -0.008683
v 0.018619 0.533569 -0.008683
v 0.018543 0.561236 -0.008683
v 0.019002 0.395236 0.008609
v 0.018926 0.422903 0.008609
v 0.018849 0.450570 0.008609
v 0.018772 0.478236 0.008609
v 0.018696 0.505903 0.008609
v 0.018619 0.533569 0.008609
v 0.018543 0.561236 0.008609
v 0.102545 0.254598 -0.008683
v 0.102545 0.254598 0.008609
v 0.101116 0.817110 -0.008683
v 0.101116 0.817110 0.008609
v 0.069265 0.920125 -0.008683
v 0.069265 0.920125 0.008609
v 0.055370 1.016561 -0.008683
v 0.055370 1.016561 0.008609
v 0.102189 0.372634 -0.008683
v 0.102189 0.372634 0.008609
v 0.102202 0.367118 0.008609
v 0.102202 0.367118 -0.008683
v 0.101660 0.592078 -0.008683
v 0.101660 0.592078 0.008609
v 0.102123 0.400064 0.008609
v 0.102057 0.427495 0.008609
v 0.101990 0.454925 0.008609
v 0.101924 0.482356 0.008609
v 0.101858 0.509787 0.008609
v 0.101792 0.537217 0.008609
v 0.101726 0.564648 0.008609
v 0.102123 0.400064 -0.008683
v 0.102057 0.427495 -0.008683
v 0.101990 0.454925 -0.008683
v 0.101924 0.482356 -0.008683
v 0.101858 0.509787 -0.008683
v 0.101792 0.537217 -0.008683
v 0.101726 0.564648 -0.008683
v -0.064014 0.246623 0.036595
v -0.080009 0.246147 0.016411
v -0.080009 0.246147 -0.016411
v -0.064014 0.246623 -0.036595
v 0.126620 0.252301 0.016411
v 0.110625 0.251825 0.036595
v 0.110625 0.251825 -0.036595
v 0.126620 0.252301 -0.016411
v 0.103066 0.230894 0.036424
v 0.117563 0.231326 0.016334
v -0.069720 0.225748 0.016334
v -0.055222 0.226180 0.036424
v 0.117563 0.231326 -0.016334
v 0.103066 0.230894 -0.036424
v -0.055222 0.226180 -0.036424
v -0.069720 0.225748 -0.016334
vn -0.0000 -0.0000 -1.0000
vn 0.9996 0.0298 -0.0000
vn 0.0298 -0.9996 0.0000
vn 0.0000 0.0000 1.0000
vn -0.0298 0.9996 0.0000
vn 0.7224 0.0215 0.6911
vn -0.7224 -0.0215 0.6911
vn 0.7224 0.0215 -0.6911
vn -0.7224 -0.0215 -0.6911
vn -0.9996 -0.0298 0.0000
vn 1.0000 0.0023 -0.0000
vn 0.9303 0.3669 0.0000
vn 0.9790 0.2039 0.0000
vn 0.9931 0.1176 0.0000
vn -0.0702 0.5694 0.8191
vn -0.0702 0.5694 -0.8191
vn -1.0000 -0.0031 0.0000
vn -1.0000 -0.0019 0.0000
vn 0.0030 0.0000 -1.0000
vn 1.0000 0.0032 -0.0000
vn 0.0030 0.0000 1.0000
vn 1.0000 0.0024 -0.0000
vn -0.0580 0.9983 -0.0000
vn 0.0552 -0.9985 0.0000
vn -0.0523 0.9986 -0.0000
vn 0.0495 -0.9988 0.0000
vn -0.0467 0.9989 -0.0000
vn 0.0438 -0.9990 0.0000
vn -0.0410 0.9992 0.0000
vn 0.0381 -0.9993 0.0000
vn -0.9996 0.0296 0.0000
vn -0.0889 -0.0003 -0.9960
vn -0.0909 0.0099 -0.9958
vn -0.0899 0.0019 -0.9959
vn -0.9939 0.1103 0.0000
vn -0.6306 0.7761 0.0000
vn -0.9405 0.3399 0.0000
vn -0.0885 0.0319 -0.9956
vn -0.1360 0.0564 0.9891
vn 0.9998 -0.0220 0.0000
vn -0.7635 0.6458 0.0000
vn -0.0909 0.0099 0.9958
vn -0.0885 0.0319 0.9956
vn -0.0899 0.0019 0.9959
vn -0.0889 -0.0003 0.9960
vn -0.1360 0.0564 -0.9891
vn -0.0890 -0.0003 -0.9960
vn -0.0890 -0.0003 0.9960
vn 0.9916 -0.1297 0.0000
vn -0.1135 -0.0082 0.9935
vn -0.0907 -0.0161 0.9957
vn 1.0000 -0.0071 -0.0000
vn -0.6645 -0.7473 0.0000
vn -0.0805 -0.0164 -0.9966
vn -0.1135 -0.0082 -0.9935
vn -0.9903 -0.1389 0.0000
vn 0.1839 -0.9830 -0.0000
vn -0.8136 0.5815 0.0000
vn -0.0907 -0.0161 -0.9957
vn -0.0875 0.0398 0.9954
vn 0.8741 -0.4858 0.0000
vn -0.9992 -0.0409 0.0000
vn -0.0875 0.0398 -0.9954
vn -0.0896 0.0260 0.9956
vn -0.9627 -0.2707 -0.0000
vn -0.0896 0.0260 -0.9956
vn -0.1056 0.0339 -0.9938
vn -0.7995 0.6007 0.0000
vn -0.0911 -0.0134 0.9958
vn -0.8930 -0.4501 0.0000
vn -0.0860 0.0210 -0.9961
vn -0.0911 -0.0134 -0.9958
vn -0.8678 0.4969 0.0000
vn -0.0869 0.0105 -0.9962
vn -0.0844 -0.0216 0.9962
vn -0.0860 0.0210 0.9961
vn -0.9272 -0.3745 0.0000
vn -0.0844 -0.0216 -0.9962
vn -0.9016 0.4325 0.0000
vn -0.0968 0.0044 -0.9953
vn -0.0968 0.0044 0.9953
vn -0.0786 0.0022 -0.9969
vn -0.0869 0.0105 0.9962
vn -0.9734 0.2289 0.0000
vn -0.0751 0.0022 -0.9972
vn -0.0786 0.0022 0.9969
vn -0.9988 0.0495 0.0000
vn -0.0751 0.0022 0.9972
vn -0.9987 0.0512 0.0000
vn -0.1056 0.0339 0.9938
vn 0.4396 -0.2443 -0.8643
vn 0.4402 -0.0576 0.8960
vn 0.4385 -0.0031 0.8987
vn 0.4402 -0.0576 -0.8960
vn 0.4396 -0.2443 0.8643
vn 0.4385 -0.0031 -0.8987
vn -0.0805 -0.0164 0.9966
vn 0.9181 -0.3964 -0.0000
vn 0.0002 -0.0083 -1.0000
vn -0.7429 -0.3505 -0.5703
vn -0.7429 -0.3505 0.5703
vn 0.0002 -0.0083 1.0000
vn -0.8929 -0.4503 0.0000
vn 0.7624 -0.3057 -0.5703
vn 0.7624 -0.3057 0.5703
usemtl Grey
s off
f 94//1 99//1 96//1 85//1
f 90//2 97//2 100//2 93//2
f 91//3 92//3 95//3 96//3 99//3 100//3 97//3 98//3
f 88//4 91//4 98//4 89//4
f 87//5 88//5 89//5 90//5 93//5 94//5 85//5 86//5
f 89//6 98//6 97//6 90//6
f 91//7 88//7 87//7 92//7
f 93//8 100//8 99//8 94//8
f 85//9 96//9 95//9 86//9
f 86//10 95//10 92//10 87//10
f 206//4 145//4 106//4 196//4
f 145//11 150//11 105//11 106//11
f 106//12 105//12 109//12 110//12
f 196//4 106//4 110//4 198//4
f 132//4 200//4 114//4 118//4
f 110//13 109//13 113//13 114//13
f 198//4 110//4 114//4 200//4
f 114//14 113//14 117//14 118//14
f 113//1 199//1 131//1 117//1
f 195//1 127//1 129//1 197//1
f 197//1 129//1 131//1 199//1
f 205//1 146//1 127//1 195//1
f 139//15 144//15 138//15 134//15
f 204//1 143//1 137//1 201//1
f 142//11 141//11 136//11 133//11
f 143//16 140//16 135//16 137//16
f 140//17 139//17 134//17 135//17
f 203//4 142//4 133//4 202//4
f 194//4 104//4 142//4 203//4
f 101//18 103//18 139//18 140//18
f 125//19 101//19 140//19 143//19
f 104//20 102//20 141//20 142//20
f 193//1 125//1 143//1 204//1
f 103//21 126//21 144//21 139//21
f 220//1 185//1 146//1 205//1
f 202//4 133//4 172//4 207//4
f 208//4 173//4 174//4 209//4
f 210//4 175//4 176//4 211//4
f 212//4 177//4 178//4 213//4
f 133//11 136//11 171//11 172//11
f 173//11 170//11 169//11 174//11
f 175//11 168//11 167//11 176//11
f 177//11 166//11 165//11 178//11
f 201//1 137//1 179//1 214//1
f 214//1 179//1 180//1 215//1
f 215//1 180//1 181//1 216//1
f 216//1 181//1 182//1 217//1
f 217//1 182//1 183//1 218//1
f 218//1 183//1 184//1 219//1
f 219//1 184//1 185//1 220//1
f 166//1 219//1 220//1 165//1
f 168//1 217//1 218//1 167//1
f 170//1 215//1 216//1 169//1
f 136//1 201//1 214//1 171//1
f 191//4 212//4 213//4 192//4
f 190//4 211//4 212//4 191//4
f 189//4 210//4 211//4 190//4
f 188//4 209//4 210//4 189//4
f 187//4 208//4 209//4 188//4
f 186//4 207//4 208//4 187//4
f 138//4 202//4 207//4 186//4
f 192//4 213//4 206//4 147//4
f 102//1 193//1 204//1 141//1
f 126//4 194//4 203//4 144//4
f 144//4 203//4 202//4 138//4
f 141//1 204//1 201//1 136//1
f 150//1 205//1 195//1 105//1
f 109//1 197//1 199//1 113//1
f 105//1 195//1 197//1 109//1
f 130//4 198//4 200//4 132//4
f 128//4 196//4 198//4 130//4
f 147//4 206//4 196//4 128//4
f 206//22 213//22 220//22 205//22
f 219//22 212//22 211//22 218//22
f 217//22 210//22 209//22 216//22
f 215//22 208//22 207//22 214//22
f 172//23 171//23 214//23 207//23
f 173//24 208//24 215//24 170//24
f 174//25 169//25 216//25 209//25
f 175//26 210//26 217//26 168//26
f 176//27 167//27 218//27 211//27
f 177//28 212//28 219//28 166//28
f 165//29 220//29 213//29 178//29
f 205//30 150//30 145//30 206//30
usemtl LightGrey
f 108//31 107//31 111//31 112//31
f 149//17 148//17 107//17 108//17
f 146//32 149//32 108//32 127//32
f 129//33 112//33 116//33 131//33
f 127//34 108//34 112//34 129//34
f 112//35 111//35 115//35 116//35
f 124//36 123//36 122//36 121//36
f 116//37 115//37 119//37 120//37
f 131//38 116//38 120//38 117//38
f 119//39 118//39 122//39 123//39
f 118//40 117//40 121//40 122//40
f 120//41 119//41 123//41 124//41
f 111//42 130//42 132//42 115//42
f 115//43 132//43 118//43 119//43
f 107//44 128//44 130//44 111//44
f 148//45 147//45 128//45 107//45
f 121//46 117//46 120//46 124//46
f 151//45 192//45 147//45 148//45
f 185//32 158//32 149//32 146//32
f 158//17 151//17 148//17 149//17
f 135//17 134//17 157//17 164//17
f 164//17 157//17 156//17 163//17
f 163//17 156//17 155//17 162//17
f 162//17 155//17 154//17 161//17
f 161//17 154//17 153//17 160//17
f 160//17 153//17 152//17 159//17
f 159//17 152//17 151//17 158//17
f 137//47 135//47 164//47 179//47
f 179//47 164//47 163//47 180//47
f 180//47 163//47 162//47 181//47
f 181//47 162//47 161//47 182//47
f 182//47 161//47 160//47 183//47
f 183//32 160//32 159//32 184//32
f 184//32 159//32 158//32 185//32
f 134//48 138//48 186//48 157//48
f 157//48 186//48 187//48 156//48
f 156//48 187//48 188//48 155//48
f 155//48 188//48 189//48 154//48
f 154//48 189//48 190//48 153//48
f 153//45 190//45 191//45 152//45
f 152//45 191//45 192//45 151//45
usemtl DarkWood
f 42//49 48//49 46//49 43//49
f 12//50 51//50 37//50 6//50
f 3//51 34//51 44//51 8//51
f 29//52 32//52 79//52 82//52
f 7//53 4//53 3//53 8//53
f 31//54 2//54 27//54 80//54
f 52//52 49//52 39//52 38//52
f 6//5 37//5 38//5 39//5 40//5 5//5
f 50//55 11//55 5//55 40//55
f 11//56 12//56 6//56 5//56
f 4//57 35//57 36//57 33//57 34//57 3//57
f 9//58 7//58 8//58 10//58
f 7//59 41//59 35//59 4//59
f 8//60 44//60 45//60 10//60
f 36//61 42//61 43//61 33//61
f 2//62 9//62 10//62 1//62
f 9//63 47//63 41//63 7//63
f 67//52 62//52 49//52 52//52
f 21//64 76//64 55//64 13//64
f 75//52 70//52 53//52 56//52
f 14//65 13//65 18//65 19//65
f 69//66 24//66 14//66 54//66
f 61//67 20//67 11//67 50//67
f 20//68 17//68 12//68 11//68
f 56//52 53//52 63//52 66//52
f 83//52 78//52 57//52 60//52
f 48//49 32//49 29//49 46//49
f 13//69 55//69 65//69 18//69
f 16//70 15//70 22//70 23//70
f 77//71 28//71 16//71 58//71
f 54//72 14//72 19//72 64//72
f 24//73 21//73 13//73 14//73
f 60//52 57//52 71//52 74//52
f 20//74 61//74 64//74 19//74
f 15//75 59//75 73//75 22//75
f 25//76 84//76 59//76 15//76
f 2//77 1//77 26//77 27//77
f 58//78 16//78 23//78 72//78
f 28//79 25//79 15//79 16//79
f 2//80 31//80 47//80 9//80
f 10//81 45//81 30//81 1//81
f 62//52 67//52 66//52 63//52
f 24//82 69//82 72//82 23//82
f 68//83 17//83 18//83 65//83
f 17//84 20//84 19//84 18//84
f 70//52 75//52 74//52 71//52
f 28//85 77//85 80//85 27//85
f 76//86 21//86 22//86 73//86
f 21//87 24//87 23//87 22//87
f 78//52 83//52 82//52 79//52
f 84//88 25//88 26//88 81//88
f 25//89 28//89 27//89 26//89
f 17//90 68//90 51//90 12//90
f 42//91 36//91 35//91 41//91
f 46//92 29//92 30//92 45//92
f 52//93 38//93 37//93 51//93
f 48//94 42//94 41//94 47//94
f 33//95 43//95 44//95 34//95
f 43//92 46//92 45//92 44//92
f 32//94 48//94 47//94 31//94
f 39//96 49//96 50//96 40//96
f 62//96 63//96 64//96 61//96
f 66//93 67//93 68//93 65//93
f 70//96 71//96 72//96 69//96
f 74//93 75//93 76//93 73//93
f 78//96 79//96 80//96 77//96
f 82//93 83//93 84//93 81//93
f 49//96 62//96 61//96 50//96
f 65//93 55//93 56//93 66//93
f 54//96 64//96 63//96 53//96
f 51//93 68//93 67//93 52//93
f 53//96 70//96 69//96 54//96
f 73//93 59//93 60//93 74//93
f 58//96 72//96 71//96 57//96
f 55//93 76//93 75//93 56//93
f 81//93 30//93 29//93 82//93
f 31//96 80//96 79//96 32//96
f 59//93 84//93 83//93 60//93
f 77//96 58//96 57//96 78//96
f 1//97 30//97 81//97 26//97
usemtl Yellow
f 221//5 226//5 225//5 228//5 227//5 224//5 223//5 222//5
f 232//3 231//3 236//3 235//3 234//3 233//3 230//3 229//3
f 228//98 225//98 230//98 233//98
f 224//99 227//99 234//99 235//99
f 223//100 224//100 235//100 236//100
f 221//101 222//101 231//101 232//101
f 226//102 221//102 232//102 229//102
f 222//103 223//103 236//103 231//103
f 227//104 228//104 233//104 234//104
f 225//105 226//105 229//105 230//105
