# Blender v2.79 (sub 0) OBJ File: 'Match_Fire.blend'
# www.blender.org
mtllib Match_Fire.mtl
o Match_Fire_Cube.014
v -0.008499 0.241451 0.009597
v -0.008499 0.241451 -0.009597
v 0.010693 0.241126 0.009597
v 0.010693 0.241126 -0.009597
v -0.020678 -0.299378 0.012614
v -0.020678 -0.299378 -0.012614
v 0.004547 -0.299806 0.012614
v 0.004547 -0.299806 -0.012614
v 0.020678 0.276181 0.018988
v -0.017292 0.276824 0.018988
v -0.017292 0.276824 -0.018988
v 0.020678 0.276181 -0.018988
v 0.014416 0.299388 0.012333
v -0.010247 0.299806 0.012333
v -0.010247 0.299806 -0.012333
v 0.014416 0.299388 -0.012333
v -0.010461 0.237635 -0.010740
v 0.019121 0.275349 -0.026764
v 0.002935 0.385456 -0.001172
v 0.017691 0.241271 0.008932
v 0.028751 0.265008 0.015954
v 0.029139 0.265105 -0.021074
v 0.019737 0.243111 -0.015248
v -0.001589 0.249151 0.034260
v -0.006908 0.238744 0.016712
v -0.000421 0.252000 -0.032958
v 0.032868 0.292646 0.006349
v 0.022807 0.275575 0.030131
v -0.017584 0.256153 0.037189
v -0.023582 0.245687 -0.014669
v -0.005950 0.273019 -0.033118
v -0.005394 0.302964 0.032158
v -0.036079 0.294534 0.010296
v -0.027300 0.302116 -0.030006
v 0.000041 0.351757 0.002671
v -0.007550 0.326672 0.005123
v 0.009627 0.353522 0.011373
v 0.007645 0.328121 0.019232
v 0.015428 0.354455 -0.012113
v 0.020336 0.332262 -0.017812
v 0.025124 0.331994 0.001774
v 0.019100 0.355095 0.000485
v -0.002415 0.328481 -0.020101
v 0.003608 0.352464 -0.013196
vn -0.0044 -0.2576 -0.9662
vn 0.9999 -0.0114 -0.0000
vn -0.0169 -0.9999 -0.0000
vn -0.9997 0.0225 0.0000
vn 0.0001 0.0056 1.0000
vn 0.0001 0.0056 -1.0000
vn -0.9561 0.2931 -0.0000
vn -0.0044 -0.2576 0.9662
vn 0.9617 -0.2740 0.0000
vn -0.9705 -0.2412 0.0000
vn 0.0169 0.9999 0.0000
vn 0.0047 0.2768 -0.9609
vn 0.0047 0.2768 0.9609
vn 0.9655 0.2605 0.0000
vn 0.1103 -0.9936 0.0259
vn 0.1693 -0.9837 -0.0605
vn -0.5427 -0.8335 0.1039
vn 0.7351 0.4258 -0.5276
vn 0.2404 0.0559 -0.9691
vn 0.0283 0.3428 -0.9390
vn 0.2147 0.2583 -0.9419
vn 0.6168 0.1586 0.7710
vn -0.9639 -0.1271 -0.2339
vn -0.9745 0.0590 -0.2164
vn -0.6062 0.2394 0.7585
vn 0.6663 0.3894 0.6359
vn 0.5665 0.5370 0.6251
vn -0.4764 -0.2597 -0.8400
vn -0.5846 -0.1598 -0.7955
vn -0.2759 -0.7455 -0.6067
vn -0.9292 -0.3263 0.1733
vn -0.6961 -0.6839 0.2185
vn -0.2488 -0.7981 0.5488
vn 0.1390 0.0700 0.9878
vn 0.1763 -0.0090 0.9843
vn 0.6233 -0.4789 0.6182
vn 0.9216 -0.0024 0.3882
vn 0.9895 -0.1439 0.0100
vn 0.4099 -0.1026 -0.9064
vn 0.0776 -0.8528 -0.5164
vn 0.2294 -0.8661 0.4441
vn 0.6231 -0.4743 0.6219
vn 0.4914 -0.4131 -0.7667
vn 0.9006 -0.4325 0.0433
vn 0.9203 -0.3911 0.0086
vn 0.8555 0.4407 -0.2717
vn 0.9321 0.0793 -0.3535
vn -0.7348 0.6757 -0.0592
vn 0.1370 0.1777 -0.9745
vn -0.6795 0.1405 0.7201
vn 0.6933 0.1889 0.6955
vn 0.0503 0.2619 -0.9638
vn 0.9357 0.2501 -0.2489
vn -0.9430 0.2782 -0.1827
vn -0.5718 0.5937 0.5662
vn -0.6710 0.2684 0.6912
usemtl Match
s off
f 2//1 11//1 12//1 4//1
f 3//2 7//2 8//2 4//2
f 7//3 5//3 6//3 8//3
f 5//4 1//4 2//4 6//4
f 3//5 1//5 5//5 7//5
f 8//6 6//6 2//6 4//6
f 10//7 14//7 15//7 11//7
f 3//8 9//8 10//8 1//8
f 4//9 12//9 9//9 3//9
f 1//10 10//10 11//10 2//10
f 14//11 13//11 16//11 15//11
f 11//12 15//12 16//12 12//12
f 9//13 13//13 14//13 10//13
f 12//14 16//14 13//14 9//14
usemtl Fire
f 20//15 25//15 17//15
f 20//16 17//16 23//16
f 17//17 25//17 30//17
f 22//18 18//18 27//18
f 26//19 31//19 18//19
f 39//20 44//20 19//20
f 18//21 31//21 34//21
f 32//22 27//22 41//22 38//22
f 34//23 30//23 33//23
f 44//24 35//24 19//24
f 33//25 29//25 32//25
f 37//26 42//26 19//26
f 32//27 28//27 27//27
f 31//28 30//28 34//28
f 31//29 26//29 30//29
f 26//30 17//30 30//30
f 30//31 29//31 33//31
f 30//32 25//32 29//32
f 25//33 24//33 29//33
f 29//34 28//34 32//34
f 29//35 24//35 28//35
f 24//36 21//36 28//36
f 28//37 21//37 27//37
f 21//38 22//38 27//38
f 22//39 26//39 18//39
f 23//40 17//40 26//40
f 25//41 20//41 24//41
f 20//42 21//42 24//42
f 22//43 23//43 26//43
f 20//44 23//44 21//44
f 23//45 22//45 21//45
f 42//46 39//46 19//46
f 27//47 18//47 40//47 41//47
f 34//48 33//48 36//48 43//48
f 18//49 34//49 43//49 40//49
f 35//50 37//50 19//50
f 38//51 41//51 42//51 37//51
f 44//52 39//52 40//52 43//52
f 39//53 42//53 41//53 40//53
f 35//54 44//54 43//54 36//54
f 33//55 32//55 38//55 36//55
f 37//56 35//56 36//56 38//56
