# Blender v2.79 (sub 0) OBJ File: 'PropaneTank.blend'
# www.blender.org
mtllib PropaneTank.mtl
o PropaneTank_Cylinder.011
v 0.149802 -1.364877 -0.511946
v 0.152904 -1.168644 -0.521492
v 0.398457 -1.364877 -0.331289
v 0.406577 -1.168644 -0.337188
v 0.493434 -1.364877 -0.038978
v 0.503471 -1.168644 -0.038978
v 0.398457 -1.364877 0.253333
v 0.406577 -1.168644 0.259232
v 0.149802 -1.364877 0.433990
v 0.152904 -1.168644 0.443536
v -0.157551 -1.364877 0.433990
v -0.160653 -1.168644 0.443536
v -0.406205 -1.364877 0.253333
v -0.414326 -1.168644 0.259232
v -0.501183 -1.364877 -0.038978
v -0.511220 -1.168644 -0.038978
v -0.406205 -1.364877 -0.331289
v -0.414326 -1.168644 -0.337188
v -0.157551 -1.364877 -0.511946
v -0.160653 -1.168644 -0.521492
v 0.647880 -1.091325 -0.512505
v 0.245074 -1.091325 -0.805161
v 0.801739 -1.091325 -0.038978
v 0.647880 -1.091325 0.434550
v 0.245074 -1.091325 0.727206
v -0.252823 -1.091325 0.727206
v -0.655629 -1.091325 0.434549
v -0.809487 -1.091325 -0.038978
v -0.655629 -1.091325 -0.512505
v -0.252822 -1.091325 -0.805161
v 0.772087 -0.956325 -0.602747
v 0.292517 -0.956325 -0.951176
v 0.955267 -0.956325 -0.038978
v 0.772087 -0.956325 0.524791
v 0.292517 -0.956325 0.873220
v -0.300265 -0.956325 0.873220
v -0.779836 -0.956325 0.524791
v -0.963016 -0.956325 -0.038978
v -0.779836 -0.956325 -0.602747
v -0.300265 -0.956325 -0.951176
v 0.851972 -0.770041 -0.660787
v 0.323030 -0.770041 -1.045086
v 1.054010 -0.770041 -0.038978
v 0.851972 -0.770041 0.582831
v 0.323030 -0.770041 0.967130
v -0.330779 -0.770041 0.967130
v -0.859721 -0.770041 0.582831
v -1.061759 -0.770041 -0.038978
v -0.859721 -0.770041 -0.660787
v -0.330778 -0.770041 -1.045086
v 0.177975 1.526094 -0.598695
v 0.169662 1.209165 -0.573110
v 0.476993 1.526094 -0.381446
v 0.455229 1.209165 -0.365634
v 0.591207 1.526094 -0.029930
v 0.564305 1.209165 -0.029930
v 0.476993 1.526094 0.321586
v 0.455229 1.209165 0.305773
v 0.177975 1.526094 0.538835
v 0.169662 1.209165 0.513250
v 0.168090 1.526094 -0.568273
v -0.183318 1.209165 0.513250
v -0.490648 1.526094 0.321586
v -0.468884 1.209165 0.305773
v -0.604863 1.526094 -0.029930
v -0.577961 1.209165 -0.029930
v -0.490648 1.526094 -0.381446
v -0.468884 1.209165 -0.365634
v -0.191631 1.526094 -0.598695
v -0.183318 1.209165 -0.573110
v 0.647880 1.130628 -0.512505
v 0.245074 1.130628 -0.805161
v 0.801739 1.130628 -0.038978
v 0.647880 1.130628 0.434550
v 0.245074 1.130628 0.727206
v -0.252823 1.130628 0.727206
v -0.655629 1.130628 0.434549
v -0.809487 1.130628 -0.038978
v -0.655629 1.130628 -0.512505
v -0.252822 1.130628 -0.805161
v 0.772087 0.995628 -0.602747
v 0.292517 0.995628 -0.951176
v 0.955267 0.995628 -0.038978
v 0.772087 0.995628 0.524791
v 0.292517 0.995628 0.873220
v -0.300265 0.995628 0.873220
v -0.779836 0.995628 0.524791
v -0.963016 0.995628 -0.038978
v -0.779836 0.995628 -0.602747
v -0.300265 0.995628 -0.951176
v 0.851972 0.809344 -0.660787
v 0.323030 0.809344 -1.045086
v 1.054010 0.809344 -0.038978
v 0.851972 0.809344 0.582831
v 0.323030 0.809344 0.967130
v -0.330779 0.809344 0.967130
v -0.859721 0.809344 0.582831
v -1.061759 0.809344 -0.038978
v -0.859721 0.809344 -0.660787
v -0.330778 0.809344 -1.045086
v 0.446440 1.526094 -0.366040
v 0.552761 1.526094 -0.038820
v 0.446440 1.526094 0.288400
v 0.168090 1.526094 0.490634
v -0.454319 1.526094 0.288400
v -0.560640 1.526094 -0.038820
v -0.454319 1.526094 -0.366040
v -0.175969 1.526094 -0.568273
v 0.157611 1.173432 -0.536019
v 0.414049 1.173432 -0.349706
v 0.512000 1.173432 -0.048244
v 0.414049 1.173432 0.253218
v 0.157610 1.173432 0.439531
v -0.415804 1.173432 0.253217
v -0.513754 1.173432 -0.048244
v -0.415804 1.173432 -0.349706
v -0.159365 1.173432 -0.536020
v -0.145400 1.173432 0.417568
v 0.175204 1.414495 -0.590167
v 0.169824 1.214652 -0.573609
v 0.459402 1.263085 -0.368666
v 0.469738 1.414495 -0.376176
v 0.573273 1.302897 -0.029930
v 0.582240 1.414495 -0.029930
v 0.462483 1.302897 0.311044
v 0.469738 1.414495 0.316315
v 0.172433 1.302897 0.521778
v 0.175204 1.414495 0.530306
v -0.476139 1.302897 0.311044
v -0.483394 1.414495 0.316315
v -0.586928 1.302897 -0.029930
v -0.595896 1.414495 -0.029930
v -0.476139 1.302897 -0.370905
v -0.483394 1.414495 -0.376176
v -0.184912 1.263085 -0.578016
v -0.188860 1.414495 -0.590167
v 0.424846 1.302897 0.264945
v 0.435643 1.414495 0.276673
v 0.539174 1.414495 -0.041961
v 0.525587 1.302897 -0.045103
v 0.421383 1.261370 -0.353404
v 0.435643 1.414495 -0.360595
v 0.164597 1.414495 -0.557522
v 0.158511 1.206816 -0.538792
v -0.163124 1.261370 -0.543322
v -0.170434 1.414495 -0.557522
v -0.441481 1.414495 -0.360595
v -0.428642 1.302897 -0.355151
v -0.529383 1.302897 -0.045103
v -0.545011 1.414495 -0.041961
v -0.441481 1.414495 0.276673
v -0.428642 1.302897 0.264945
v 0.161104 1.302897 0.456565
v 0.164597 1.414495 0.473599
v 1.054010 0.031448 -0.038978
v 0.851972 0.031448 0.582831
v -0.330778 0.031448 -1.045086
v 0.323030 0.031448 -1.045086
v -0.859721 0.031448 0.582831
v -1.061759 0.031448 -0.038978
v 0.323030 0.031448 0.967130
v 0.851973 0.031448 -0.660787
v -0.859721 0.031448 -0.660787
v -0.330779 0.031448 0.967130
v 1.054010 -0.017658 -0.038978
v -0.330778 -0.017658 -1.045086
v -0.859721 -0.017658 0.582831
v 0.851972 -0.017658 0.582831
v 0.323030 -0.017658 -1.045086
v -1.061759 -0.017658 -0.038978
v 0.323030 -0.017658 0.967130
v 0.851973 -0.017658 -0.660787
v -0.859721 -0.017658 -0.660787
v -0.330779 -0.017658 0.967130
v 0.867915 -0.003529 0.585652
v 0.867915 0.017319 0.585652
v 0.329120 -0.003529 -1.072590
v 0.329120 0.017319 -1.072590
v -1.081465 -0.003529 -0.047741
v -1.081465 0.017319 -0.047741
v 0.329119 -0.003529 0.977109
v 0.329119 0.017319 0.977109
v 0.867915 -0.003529 -0.681133
v 0.867915 0.017319 -0.681133
v -0.875663 -0.003529 -0.681133
v -0.875663 0.017319 -0.681133
v -0.336868 -0.003529 0.977109
v -0.336868 0.017319 0.977109
v -0.875664 0.017319 0.585651
v -0.336868 0.017319 -1.072591
v 1.073717 0.017319 -0.047741
v 1.073717 -0.003529 -0.047741
v -0.336868 -0.003529 -1.072591
v -0.875664 -0.003529 0.585651
v -0.125465 0.721740 0.967130
v 0.117716 0.721740 0.967130
v 0.117716 0.488821 0.967130
v -0.125465 0.488821 0.967130
v -0.102286 0.699539 0.967130
v 0.094537 0.699539 0.967130
v 0.094537 0.511022 0.967130
v -0.102286 0.511022 0.967130
v -0.003887 1.150848 -0.129134
v -0.003887 1.426836 -0.129134
v 0.044066 1.150848 -0.109272
v 0.044066 1.426836 -0.109272
v 0.063929 1.150848 -0.061319
v 0.063929 1.426836 -0.061319
v 0.044066 1.150848 -0.013365
v 0.044066 1.426836 -0.013365
v -0.003887 1.150848 0.006497
v -0.003887 1.426836 0.006497
v -0.051840 1.150848 -0.013366
v -0.051840 1.426836 -0.013366
v -0.071703 1.150848 -0.061319
v -0.071703 1.426836 -0.061319
v -0.051840 1.150848 -0.109272
v -0.051840 1.426836 -0.109272
v 0.011410 1.508439 -0.076616
v -0.003887 1.508439 -0.082953
v 0.017747 1.508439 -0.061319
v 0.011410 1.508439 -0.046021
v -0.003887 1.508439 -0.039684
v -0.019185 1.508439 -0.046021
v -0.025522 1.508439 -0.061319
v -0.019185 1.508439 -0.076616
v -0.003887 1.260411 -0.010321
v 0.046241 1.281175 -0.010321
v 0.067004 1.331303 -0.010321
v 0.046241 1.381431 -0.010321
v -0.003887 1.402194 -0.010321
v -0.054015 1.381431 -0.010321
v -0.074779 1.331303 -0.010320
v -0.054015 1.281175 -0.010321
v -0.003887 1.260411 0.201518
v 0.046241 1.281175 0.201518
v 0.067004 1.331303 0.201518
v 0.046241 1.381431 0.201518
v -0.003887 1.402194 0.201518
v -0.054015 1.381431 0.201518
v -0.074779 1.331303 0.201518
v -0.054015 1.281175 0.201518
v -0.003887 1.276146 0.201518
v 0.035115 1.292301 0.201518
v 0.051270 1.331303 0.201518
v 0.035115 1.370305 0.201518
v -0.003887 1.386460 0.201518
v -0.042889 1.370305 0.201518
v -0.059045 1.331303 0.201518
v -0.042889 1.292301 0.201518
v -0.003887 1.276146 0.173825
v 0.035115 1.292301 0.173825
v 0.051270 1.331303 0.173825
v 0.035115 1.370305 0.173825
v -0.003887 1.386460 0.173825
v -0.042889 1.370305 0.173825
v -0.059045 1.331303 0.173825
v -0.042889 1.292301 0.173825
vn 0.5871 -0.0486 -0.8081
vn 0.9499 -0.0486 -0.3087
vn 0.9499 -0.0486 0.3087
vn 0.5871 -0.0486 0.8081
vn 0.0000 -0.0486 0.9988
vn -0.5871 -0.0486 0.8081
vn -0.9499 -0.0486 0.3087
vn 0.0000 -0.9648 0.2630
vn -0.9499 -0.0486 -0.3087
vn -0.5871 -0.0486 -0.8081
vn 0.0000 -1.0000 0.0000
vn 0.6456 -0.7343 -0.2098
vn 0.1546 -0.9648 0.2128
vn 0.1546 -0.9648 -0.2128
vn 0.2501 -0.9648 0.0813
vn 0.2501 -0.9648 -0.0813
vn 0.0000 -0.9648 -0.2630
vn -0.1546 -0.9648 -0.2128
vn -0.2501 -0.9648 -0.0813
vn -0.2501 -0.9648 0.0813
vn -0.1546 -0.9648 0.2128
vn -0.5249 -0.4502 0.7224
vn -0.3990 -0.7343 -0.5492
vn -0.3990 -0.7343 0.5492
vn 0.6456 -0.7343 0.2098
vn 0.0000 -0.7343 -0.6789
vn -0.6456 -0.7343 0.2098
vn 0.3990 -0.7343 0.5492
vn 0.3990 -0.7343 -0.5492
vn -0.6456 -0.7343 -0.2098
vn 0.0000 -0.7343 0.6789
vn 0.5878 -0.0000 0.8090
vn 0.8492 -0.4502 0.2759
vn 0.0000 -0.4502 -0.8929
vn -0.8492 -0.4502 0.2759
vn 0.5249 -0.4502 0.7224
vn 0.5249 -0.4502 -0.7224
vn -0.8492 -0.4502 -0.2759
vn 0.0000 -0.4502 0.8929
vn 0.8492 -0.4502 -0.2759
vn -0.5249 -0.4502 -0.7224
vn -0.9511 0.0000 -0.3090
vn 0.0000 0.0000 1.0000
vn 0.9511 -0.0000 -0.3090
vn -0.5878 -0.0000 -0.8090
vn -0.5878 -0.0000 0.8090
vn 0.9511 -0.0000 0.3090
vn 0.0000 -0.0000 -1.0000
vn -0.9511 0.0000 0.3090
vn 0.5854 -0.0906 -0.8057
vn 0.9471 -0.0906 -0.3077
vn 0.9471 -0.0906 0.3077
vn 0.0000 1.0000 0.0000
vn 0.5854 -0.0906 0.8057
vn -0.9471 -0.0906 0.3077
vn 0.0000 0.9388 0.3446
vn -0.9471 -0.0906 -0.3077
vn -0.5854 -0.0906 -0.8057
vn 0.6456 0.7343 -0.2098
vn 0.1997 0.9405 0.2749
vn 0.1884 0.9472 -0.2593
vn 0.3159 0.9432 0.1026
vn 0.3090 0.9457 -0.1004
vn 0.0000 0.9472 -0.3206
vn -0.1910 0.9457 -0.2629
vn -0.3159 0.9432 -0.1027
vn -0.3231 0.9405 0.1050
vn -0.2026 0.9387 0.2788
vn -0.5249 0.4502 0.7224
vn -0.3990 0.7343 -0.5492
vn -0.3990 0.7343 0.5492
vn 0.6456 0.7343 0.2098
vn 0.0000 0.7343 -0.6789
vn -0.6456 0.7343 0.2098
vn 0.3990 0.7343 0.5492
vn 0.3990 0.7343 -0.5492
vn -0.6456 0.7343 -0.2098
vn 0.0000 0.7343 0.6789
vn 0.8492 0.4502 0.2759
vn 0.0000 0.4502 -0.8929
vn -0.8492 0.4502 0.2759
vn 0.5249 0.4502 0.7224
vn 0.5249 0.4502 -0.7224
vn -0.8492 0.4502 -0.2759
vn 0.0000 0.4502 0.8929
vn 0.8492 0.4502 -0.2759
vn -0.5249 0.4502 -0.7224
vn -0.9456 0.1067 -0.3073
vn -0.5858 0.0828 0.8062
vn 0.5853 0.0919 0.8056
vn 0.9440 0.1214 -0.3067
vn -0.5834 0.1214 -0.8030
vn 0.9456 0.1067 0.3073
vn -0.9470 0.0919 0.3077
vn -0.0000 0.0828 0.9966
vn 0.2114 0.9249 -0.3161
vn 0.0130 0.9220 -0.3870
vn -0.9865 0.0089 0.1637
vn 0.7018 0.0089 0.7123
vn 0.0000 -0.0906 -0.9959
vn 0.0000 -0.0762 -0.9971
vn 0.6813 0.0056 0.7320
vn 0.6921 0.0073 0.7217
vn -0.9814 0.0056 0.1917
vn -0.9842 0.0073 0.1771
vn -0.0000 0.0959 0.9954
vn 0.1481 0.9825 0.1127
vn -0.9456 0.1065 0.3073
vn -0.9461 0.1042 0.3066
vn 0.9438 0.1235 0.3066
vn -0.3307 0.0155 0.9436
vn -0.5820 0.1405 -0.8010
vn 0.9416 0.1405 -0.3060
vn 0.5844 0.1065 0.8044
vn 0.5852 0.1042 0.8042
vn -0.5851 0.0959 0.8053
vn -0.1861 0.9825 0.0041
vn -0.9438 0.1235 -0.3066
vn -0.5861 -0.0762 -0.8067
vn -0.5854 -0.0784 -0.8069
vn -0.9483 -0.0762 -0.3081
vn -0.2433 -0.0132 -0.9699
vn -0.9483 -0.0762 0.3081
vn 0.5861 -0.0762 0.8067
vn 0.9483 -0.0762 0.3081
vn 0.9483 -0.0762 -0.3081
vn 0.9479 -0.0784 -0.3087
vn 0.5861 -0.0762 -0.8067
vn -0.3929 -0.0126 -0.9195
vn 0.7669 -0.0132 -0.6416
vn -0.2871 0.0155 0.9578
vn 0.8584 -0.0126 -0.5129
vn 0.5878 -0.0000 -0.8090
vn -0.5232 -0.8351 -0.1700
vn 0.4535 0.6363 0.6241
vn 0.5232 -0.8351 -0.1700
vn -0.5232 0.8351 -0.1700
vn -0.2821 -0.8773 -0.3882
vn 0.5232 0.8351 -0.1700
vn -0.4535 -0.6363 0.6241
vn -0.2821 0.8773 -0.3882
vn 0.6288 -0.7503 0.2043
vn -0.4535 0.6363 0.6241
vn 0.0000 -0.8895 -0.4569
vn 0.6288 0.7503 0.2043
vn -0.6288 -0.7503 0.2043
vn 0.0000 0.8895 -0.4569
vn 0.4535 -0.6363 0.6241
vn 0.0000 0.5769 0.8168
vn 0.0000 -0.5769 0.8168
vn 0.2821 0.8773 -0.3882
vn -0.6288 0.7503 0.2043
vn 0.2821 -0.8773 -0.3882
vn 0.0000 -0.0486 -0.9988
vn 0.3827 0.0000 -0.9239
vn 0.9239 0.0000 -0.3827
vn 0.9239 0.0000 0.3827
vn 0.3827 0.0000 0.9239
vn -0.3827 0.0000 0.9239
vn -0.9239 0.0000 0.3827
vn 0.8187 0.4633 -0.3391
vn -0.9239 0.0000 -0.3827
vn -0.3827 0.0000 -0.9239
vn -0.3391 0.4633 0.8187
vn -0.3391 0.4633 -0.8187
vn 0.3391 0.4633 -0.8187
vn 0.8187 0.4633 0.3391
vn -0.8187 0.4633 0.3391
vn 0.3391 0.4633 0.8187
vn -0.8187 0.4633 -0.3391
vn 0.3827 -0.9239 -0.0000
vn -0.3827 -0.9239 0.0000
vn -0.9239 0.3827 0.0000
vn 0.3827 0.9239 -0.0000
vn 0.9239 -0.3827 0.0000
vn -0.9239 -0.3827 0.0000
vn -0.3827 0.9239 0.0000
vn 0.9239 0.3827 -0.0000
usemtl White
s off
f 1//1 2//1 4//1 3//1
f 3//2 4//2 6//2 5//2
f 5//3 6//3 8//3 7//3
f 7//4 8//4 10//4 9//4
f 9//5 10//5 12//5 11//5
f 11//6 12//6 14//6 13//6
f 13//7 14//7 16//7 15//7
f 12//8 10//8 25//8 26//8
f 15//9 16//9 18//9 17//9
f 17//10 18//10 20//10 19//10
f 1//11 3//11 5//11 7//11 9//11 11//11 13//11 15//11 17//11 19//11
f 23//12 21//12 31//12 33//12
f 10//13 8//13 24//13 25//13
f 4//14 2//14 22//14 21//14
f 8//15 6//15 23//15 24//15
f 6//16 4//16 21//16 23//16
f 2//17 20//17 30//17 22//17
f 20//18 18//18 29//18 30//18
f 18//19 16//19 28//19 29//19
f 16//20 14//20 27//20 28//20
f 14//21 12//21 26//21 27//21
f 37//22 36//22 46//22 47//22
f 30//23 29//23 39//23 40//23
f 27//24 26//24 36//24 37//24
f 24//25 23//25 33//25 34//25
f 22//26 30//26 40//26 32//26
f 28//27 27//27 37//27 38//27
f 25//28 24//28 34//28 35//28
f 21//29 22//29 32//29 31//29
f 29//30 28//30 38//30 39//30
f 26//31 25//31 35//31 36//31
f 171//32 45//32 44//32 168//32
f 34//33 33//33 43//33 44//33
f 32//34 40//34 50//34 42//34
f 38//35 37//35 47//35 48//35
f 35//36 34//36 44//36 45//36
f 31//37 32//37 42//37 41//37
f 39//38 38//38 48//38 49//38
f 36//39 35//39 45//39 46//39
f 33//40 31//40 41//40 43//40
f 40//41 39//41 49//41 50//41
f 173//42 49//42 48//42 170//42
f 95//43 96//43 195//43 196//43
f 165//44 43//44 41//44 172//44
f 166//45 50//45 49//45 173//45
f 167//46 47//46 46//46 174//46
f 168//47 44//47 43//47 165//47
f 169//48 42//48 50//48 166//48
f 170//49 48//49 47//49 167//49
f 120//50 121//50 54//50 52//50
f 121//51 123//51 56//51 54//51
f 123//52 125//52 58//52 56//52
f 51//53 69//53 108//53 61//53
f 65//53 63//53 105//53 106//53
f 125//54 127//54 60//54 58//54
f 129//55 131//55 66//55 64//55
f 62//56 76//56 75//56 60//56
f 131//57 133//57 68//57 66//57
f 133//58 135//58 70//58 68//58
f 57//53 55//53 102//53 103//53
f 73//59 83//59 81//59 71//59
f 60//60 75//60 74//60 58//60
f 54//61 71//61 72//61 52//61
f 58//62 74//62 73//62 56//62
f 56//63 73//63 71//63 54//63
f 52//64 72//64 80//64 70//64
f 70//65 80//65 79//65 68//65
f 68//66 79//66 78//66 66//66
f 66//67 78//67 77//67 64//67
f 64//68 77//68 76//68 62//68
f 87//69 97//69 96//69 86//69
f 80//70 90//70 89//70 79//70
f 77//71 87//71 86//71 76//71
f 74//72 84//72 83//72 73//72
f 72//73 82//73 90//73 80//73
f 78//74 88//74 87//74 77//74
f 75//75 85//75 84//75 74//75
f 71//76 81//76 82//76 72//76
f 79//77 89//77 88//77 78//77
f 76//78 86//78 85//78 75//78
f 84//79 94//79 93//79 83//79
f 82//80 92//80 100//80 90//80
f 88//81 98//81 97//81 87//81
f 85//82 95//82 94//82 84//82
f 81//83 91//83 92//83 82//83
f 89//84 99//84 98//84 88//84
f 86//85 96//85 95//85 85//85
f 83//86 93//86 91//86 81//86
f 90//87 100//87 99//87 89//87
f 59//53 57//53 103//53 104//53
f 69//53 67//53 107//53 108//53
f 55//53 53//53 101//53 102//53
f 67//53 65//53 106//53 107//53
f 53//53 51//53 61//53 101//53
f 137//88 140//88 111//88 112//88
f 141//89 144//89 109//89 110//89
f 145//90 148//90 116//90 117//90
f 149//91 152//91 114//91 115//91
f 153//92 137//92 112//92 113//92
f 148//93 149//93 115//93 116//93
f 140//94 141//94 110//94 111//94
f 144//95 145//95 117//95 109//95
f 110//53 109//53 118//53 113//53 112//53 111//53
f 62//96 118//96 114//96 64//96
f 118//53 109//53 117//53 116//53 115//53 114//53
f 60//97 113//97 118//97 62//97
f 127//98 153//98 113//98 60//98
f 129//99 64//99 114//99 152//99
f 135//100 120//100 52//100 70//100
f 69//101 51//101 119//101 136//101
f 143//11 119//11 122//11 142//11
f 63//102 130//102 151//102 105//102
f 130//103 129//103 152//103 151//103
f 59//104 104//104 154//104 128//104
f 128//105 154//105 153//105 127//105
f 61//106 108//106 146//106 143//106
f 144//107 120//107 135//107 145//107
f 102//108 101//108 142//108 139//108
f 139//109 142//109 141//109 140//109
f 107//110 106//110 150//110 147//110
f 133//111 148//111 147//111 134//111
f 104//112 103//112 138//112 154//112
f 154//112 138//112 137//112 153//112
f 106//113 105//113 151//113 150//113
f 150//113 151//113 152//113 149//113
f 108//114 107//114 147//114 146//114
f 146//115 147//115 148//115 145//115
f 101//116 61//116 143//116 142//116
f 121//117 120//117 144//117 141//117
f 103//118 102//118 139//118 138//118
f 150//11 132//11 134//11 147//11
f 67//119 69//119 136//119 134//119
f 134//120 136//120 135//120 133//120
f 65//121 67//121 134//121 132//121
f 132//122 150//122 149//122 131//122
f 63//123 65//123 132//123 130//123
f 130//123 132//123 131//123 129//123
f 57//124 59//124 128//124 126//124
f 126//124 128//124 127//124 125//124
f 55//125 57//125 126//125 124//125
f 149//53 148//53 133//53 131//53
f 53//126 55//126 124//126 122//126
f 122//127 124//127 123//127 121//127
f 51//128 53//128 122//128 119//128
f 141//129 142//129 122//129 121//129
f 140//53 137//53 125//53 123//53
f 126//130 125//130 137//130 138//130
f 139//11 124//11 126//11 138//11
f 123//131 124//131 139//131 140//131
f 119//11 143//11 146//11 136//11
f 136//132 146//132 145//132 135//132
f 172//133 41//133 42//133 169//133
f 173//134 170//134 179//134 185//134
f 46//43 45//43 171//43 174//43
f 156//135 161//135 182//135 176//135
f 91//133 162//133 158//133 92//133
f 98//49 160//49 159//49 97//49
f 92//48 158//48 157//48 100//48
f 94//47 156//47 155//47 93//47
f 97//46 159//46 164//46 96//46
f 100//45 157//45 163//45 99//45
f 93//44 155//44 162//44 91//44
f 99//42 163//42 160//42 98//42
f 95//32 161//32 156//32 94//32
f 165//136 172//136 183//136 192//136
f 160//137 163//137 186//137 180//137
f 166//138 173//138 185//138 193//138
f 162//139 155//139 191//139 184//139
f 167//140 174//140 187//140 194//140
f 163//141 157//141 190//141 186//141
f 168//142 165//142 192//142 175//142
f 164//143 159//143 189//143 188//143
f 169//144 166//144 193//144 177//144
f 155//145 156//145 176//145 191//145
f 170//146 167//146 194//146 179//146
f 157//147 158//147 178//147 190//147
f 181//43 182//43 188//43 187//43
f 184//133 183//133 177//133 178//133
f 180//49 179//49 194//49 189//49
f 178//48 177//48 193//48 190//48
f 176//47 175//47 192//47 191//47
f 189//46 194//46 187//46 188//46
f 190//45 193//45 185//45 186//45
f 191//44 192//44 183//44 184//44
f 186//42 185//42 179//42 180//42
f 182//32 181//32 175//32 176//32
f 171//148 168//148 175//148 181//148
f 161//149 164//149 188//149 182//149
f 171//150 181//150 187//150 174//150
f 158//151 162//151 184//151 178//151
f 159//152 160//152 180//152 189//152
f 172//153 169//153 177//153 183//153
f 161//43 95//43 196//43 197//43
f 164//43 161//43 197//43 198//43
f 96//43 164//43 198//43 195//43
f 19//154 20//154 2//154 1//154
usemtl Red
f 202//43 201//43 200//43 199//43
usemtl Black
f 195//43 198//43 202//43 199//43
f 196//43 195//43 199//43 200//43
f 198//43 197//43 201//43 202//43
f 197//43 196//43 200//43 201//43
usemtl Orange
f 203//155 204//155 206//155 205//155
f 205//156 206//156 208//156 207//156
f 207//157 208//157 210//157 209//157
f 209//158 210//158 212//158 211//158
f 211//159 212//159 214//159 213//159
f 213//160 214//160 216//160 215//160
f 208//161 206//161 219//161 221//161
f 215//162 216//162 218//162 217//162
f 217//163 218//163 204//163 203//163
f 203//11 205//11 207//11 209//11 211//11 213//11 215//11 217//11
f 219//53 220//53 226//53 225//53 224//53 223//53 222//53 221//53
f 214//164 212//164 223//164 224//164
f 204//165 218//165 226//165 220//165
f 206//166 204//166 220//166 219//166
f 210//167 208//167 221//167 222//167
f 216//168 214//168 224//168 225//168
f 212//169 210//169 222//169 223//169
f 218//170 216//170 225//170 226//170
f 227//48 234//48 233//48 232//48 231//48 230//48 229//48 228//48
f 238//43 239//43 247//43 246//43
f 227//171 228//171 236//171 235//171
f 234//172 227//172 235//172 242//172
f 232//173 233//173 241//173 240//173
f 230//174 231//174 239//174 238//174
f 228//175 229//175 237//175 236//175
f 233//176 234//176 242//176 241//176
f 231//177 232//177 240//177 239//177
f 229//178 230//178 238//178 237//178
f 250//174 243//174 251//174 258//174
f 236//43 237//43 245//43 244//43
f 241//43 242//43 250//43 249//43
f 239//43 240//43 248//43 247//43
f 237//43 238//43 246//43 245//43
f 235//43 236//43 244//43 243//43
f 242//43 235//43 243//43 250//43
f 240//43 241//43 249//43 248//43
f 251//43 252//43 253//43 254//43 255//43 256//43 257//43 258//43
f 248//175 249//175 257//175 256//175
f 246//172 247//172 255//172 254//172
f 244//173 245//173 253//173 252//173
f 249//178 250//178 258//178 257//178
f 247//171 248//171 256//171 255//171
f 245//176 246//176 254//176 253//176
f 243//177 244//177 252//177 251//177
