# Blender v2.79 (sub 0) OBJ File: 'WaterBottle_3.blend'
# www.blender.org
mtllib WaterBottle_3.mtl
o WaterBottle_3_Cylinder.003
v -0.000000 0.048782 -0.240338
v -0.000000 1.083096 -0.240338
v 0.120169 0.048782 -0.208139
v 0.120169 1.083096 -0.208139
v 0.208139 0.048782 -0.120169
v 0.208139 1.083096 -0.120169
v 0.240338 0.048782 0.000000
v 0.240338 1.083096 0.000000
v 0.208139 0.048782 0.120169
v 0.208139 1.083096 0.120169
v 0.120169 0.048782 0.208139
v 0.120169 1.083096 0.208139
v 0.000000 0.048782 0.240338
v 0.000000 1.083096 0.240338
v -0.120169 0.048782 0.208139
v -0.120169 1.083096 0.208139
v -0.208139 0.048782 0.120169
v -0.208139 1.083096 0.120169
v -0.240338 0.048782 0.000000
v -0.240338 1.083096 0.000000
v -0.208139 0.048782 -0.120169
v -0.208139 1.083096 -0.120169
v -0.120169 0.048782 -0.208139
v -0.120169 1.083096 -0.208139
v -0.000000 -0.001063 -0.181158
v 0.090579 -0.001063 -0.156887
v 0.156887 -0.001063 -0.090579
v 0.181158 -0.001063 0.000000
v 0.156887 -0.001063 0.090579
v 0.090579 -0.001063 0.156887
v 0.000000 -0.001063 0.181158
v -0.090579 -0.001063 0.156887
v -0.156887 -0.001063 0.090579
v -0.181158 -0.001063 0.000000
v -0.156887 -0.001063 -0.090579
v -0.090579 -0.001063 -0.156887
v 0.111690 1.159367 -0.193453
v 0.000000 1.159367 -0.223380
v 0.193453 1.159367 -0.111690
v 0.223380 1.159367 0.000000
v 0.193453 1.159367 0.111690
v 0.111690 1.159367 0.193453
v 0.000000 1.159367 0.223380
v -0.111690 1.159367 0.193453
v -0.193453 1.159367 0.111690
v -0.223380 1.159367 0.000000
v -0.193453 1.159367 -0.111690
v -0.111690 1.159367 -0.193453
v 0.045269 1.274111 -0.078408
v 0.000000 1.274111 -0.090538
v 0.078408 1.274111 -0.045269
v 0.090538 1.274111 0.000000
v 0.078408 1.274111 0.045269
v 0.045269 1.274111 0.078408
v 0.000000 1.274111 0.090538
v -0.045269 1.274111 0.078408
v -0.078408 1.274111 0.045269
v -0.090538 1.274111 0.000000
v -0.078408 1.274111 -0.045269
v -0.045269 1.274111 -0.078408
v 0.049426 1.341022 -0.085608
v 0.000000 1.341022 -0.098851
v 0.085608 1.341022 -0.049426
v 0.098852 1.341022 0.000000
v 0.085608 1.341022 0.049426
v 0.049426 1.341022 0.085608
v 0.000000 1.341022 0.098851
v -0.049426 1.341022 0.085608
v -0.085608 1.341022 0.049426
v -0.098851 1.341022 0.000000
v -0.085608 1.341022 -0.049426
v -0.049426 1.341022 -0.085608
v 0.000000 1.320301 -0.114136
v 0.000000 1.433969 -0.114136
v 0.080706 1.320301 -0.080706
v 0.080706 1.433969 -0.080706
v 0.114136 1.320301 0.000000
v 0.114136 1.433969 0.000000
v 0.080706 1.320301 0.080706
v 0.080706 1.433969 0.080706
v 0.000000 1.320301 0.114136
v 0.000000 1.433969 0.114136
v -0.080706 1.320301 0.080706
v -0.080706 1.433969 0.080706
v -0.114136 1.320301 -0.000000
v -0.114136 1.433969 -0.000000
v -0.080706 1.320301 -0.080706
v -0.080706 1.433969 -0.080706
v -0.000000 0.460715 -0.249730
v 0.124865 0.460715 -0.216273
v 0.216273 0.460715 -0.124865
v 0.249730 0.460715 0.000000
v 0.216273 0.460715 0.124865
v 0.124865 0.460715 0.216273
v 0.000000 0.460715 0.249730
v -0.124865 0.460715 0.216273
v -0.216273 0.460715 0.124865
v -0.249730 0.460715 0.000000
v -0.216273 0.460715 -0.124865
v -0.124865 0.460715 -0.216273
v -0.000000 0.583058 -0.247125
v 0.123562 0.583058 -0.214016
v 0.214016 0.583058 -0.123562
v 0.247125 0.583058 0.000000
v 0.214016 0.583058 0.123562
v 0.123562 0.583058 0.214016
v 0.000000 0.583058 0.247125
v -0.123562 0.583058 0.214016
v -0.214016 0.583058 0.123562
v -0.247125 0.583058 0.000000
v -0.214016 0.583058 -0.123562
v -0.123562 0.583058 -0.214016
v -0.000000 0.642136 -0.235959
v 0.117980 0.642136 -0.204347
v 0.204347 0.642136 -0.117980
v 0.235959 0.642136 0.000000
v 0.204347 0.642136 0.117980
v 0.117980 0.642136 0.204347
v 0.000000 0.642136 0.235959
v -0.117980 0.642136 0.204347
v -0.204347 0.642136 0.117980
v -0.235959 0.642136 0.000000
v -0.204347 0.642136 -0.117979
v -0.117980 0.642136 -0.204346
v -0.000000 0.752589 -0.237419
v -0.000000 1.012274 -0.238878
v 0.119439 1.012274 -0.206875
v 0.118709 0.752589 -0.205611
v 0.206875 1.012274 -0.119439
v 0.205611 0.752589 -0.118709
v 0.238878 1.012274 0.000000
v 0.237419 0.752589 0.000000
v 0.206875 1.012274 0.119439
v 0.205611 0.752589 0.118709
v 0.119439 1.012274 0.206875
v 0.118709 0.752589 0.205611
v 0.000000 1.012274 0.238878
v 0.000000 0.752589 0.237419
v -0.119439 1.012274 0.206875
v -0.118709 0.752589 0.205611
v -0.206875 1.012274 0.119439
v -0.205611 0.752589 0.118709
v -0.238878 1.012274 0.000000
v -0.237419 0.752589 0.000000
v -0.206875 1.012274 -0.119439
v -0.205611 0.752589 -0.118709
v -0.119439 1.012274 -0.206875
v -0.118710 0.752589 -0.205611
vn 0.2588 -0.0199 -0.9657
vn 0.7070 -0.0199 -0.7070
vn 0.9657 -0.0199 -0.2588
vn 0.9657 -0.0199 0.2588
vn 0.7070 -0.0199 0.7070
vn 0.2588 -0.0199 0.9657
vn -0.2588 -0.0199 0.9657
vn -0.7070 -0.0199 0.7070
vn -0.9657 -0.0199 0.2588
vn -0.9657 -0.0199 -0.2588
vn -0.6913 0.2100 0.6913
vn -0.7070 -0.0199 -0.7070
vn -0.2588 -0.0199 -0.9657
vn 0.1701 -0.7537 0.6348
vn 0.0000 -1.0000 -0.0000
vn 0.4647 -0.7537 0.4647
vn 0.6348 -0.7537 0.1701
vn -0.1701 -0.7537 -0.6348
vn 0.1701 -0.7537 -0.6348
vn 0.6348 -0.7537 -0.1701
vn -0.4647 -0.7537 -0.4647
vn 0.4647 -0.7537 -0.4647
vn -0.6348 -0.7537 -0.1701
vn -0.6348 -0.7537 0.1701
vn -0.4647 -0.7537 0.4647
vn -0.1701 -0.7537 0.6348
vn -0.4713 0.7454 0.4713
vn -0.2530 0.2100 0.9444
vn 0.2530 0.2100 0.9444
vn 0.6913 0.2100 0.6913
vn 0.9444 0.2100 0.2531
vn -0.2530 0.2100 -0.9444
vn 0.2530 0.2100 -0.9444
vn 0.9444 0.2100 -0.2530
vn -0.6913 0.2100 -0.6913
vn 0.6913 0.2100 -0.6913
vn -0.9444 0.2100 -0.2530
vn -0.9444 0.2100 0.2531
vn 0.2570 -0.1192 -0.9590
vn 0.4713 0.7454 0.4713
vn -0.1725 0.7454 -0.6439
vn 0.4713 0.7454 -0.4713
vn -0.6439 0.7454 0.1725
vn 0.1725 0.7454 0.6439
vn 0.6439 0.7454 -0.1725
vn -0.6439 0.7454 -0.1725
vn -0.1725 0.7454 0.6439
vn 0.6439 0.7454 0.1725
vn -0.4713 0.7454 -0.4713
vn 0.1725 0.7454 -0.6439
vn 0.0000 1.0000 -0.0000
vn -0.7021 -0.1192 0.7021
vn 0.7021 -0.1192 0.7021
vn -0.2570 -0.1192 -0.9590
vn 0.7021 -0.1192 -0.7021
vn -0.9590 -0.1192 0.2570
vn 0.2570 -0.1192 0.9590
vn 0.9590 -0.1192 -0.2570
vn -0.9590 -0.1192 -0.2570
vn -0.2570 -0.1192 0.9590
vn 0.9590 -0.1192 0.2570
vn -0.7021 -0.1192 -0.7021
vn -0.2588 -0.0220 -0.9657
vn -0.7069 -0.0220 -0.7069
vn -0.9657 -0.0220 -0.2588
vn -0.9657 -0.0220 0.2588
vn -0.7069 -0.0220 0.7069
vn -0.2588 -0.0220 0.9657
vn 0.2588 -0.0220 0.9657
vn 0.7069 -0.0220 0.7069
vn 0.9657 -0.0220 0.2588
vn 0.9657 -0.0220 -0.2588
vn 0.7069 -0.0220 -0.7069
vn 0.2588 -0.0220 -0.9657
vn -0.2588 0.0206 -0.9657
vn -0.7070 0.0206 -0.7070
vn -0.9657 0.0206 -0.2588
vn -0.9657 0.0206 0.2588
vn -0.7070 0.0206 0.7070
vn -0.2588 0.0206 0.9657
vn 0.2588 0.0206 0.9657
vn 0.7070 0.0206 0.7070
vn 0.9657 0.0206 0.2588
vn 0.9657 0.0206 -0.2588
vn 0.7070 0.0206 -0.7070
vn 0.2588 0.0206 -0.9657
vn -0.2546 0.1796 -0.9502
vn -0.6956 0.1796 -0.6956
vn -0.9502 0.1796 -0.2546
vn -0.9502 0.1796 0.2546
vn -0.6956 0.1796 0.6956
vn -0.2546 0.1796 0.9502
vn 0.2546 0.1796 0.9502
vn 0.6956 0.1796 0.6956
vn 0.9502 0.1796 0.2546
vn 0.9502 0.1796 -0.2546
vn 0.6956 0.1796 -0.6956
vn 0.2546 0.1796 -0.9502
vn -0.2588 -0.0128 -0.9658
vn -0.7070 -0.0128 -0.7070
vn -0.9658 -0.0128 -0.2588
vn -0.9658 -0.0128 0.2588
vn -0.7070 -0.0128 0.7070
vn -0.2588 -0.0128 0.9658
vn 0.2588 -0.0128 0.9658
vn 0.7070 -0.0128 0.7070
vn 0.9658 -0.0128 0.2588
vn 0.9658 -0.0128 -0.2588
vn 0.7070 -0.0128 -0.7070
vn 0.2588 -0.0128 -0.9658
vn 0.3827 0.0000 -0.9239
vn 0.9239 0.0000 -0.3827
vn 0.9239 0.0000 0.3827
vn 0.3827 0.0000 0.9239
vn -0.3827 0.0000 0.9239
vn -0.9239 0.0000 0.3827
vn -0.9239 0.0000 -0.3827
vn -0.3827 0.0000 -0.9239
vn -0.2588 -0.0054 -0.9659
vn -0.7071 -0.0054 -0.7071
vn -0.9659 -0.0054 -0.2588
vn -0.9659 -0.0054 0.2588
vn -0.7071 -0.0054 0.7071
vn -0.2588 -0.0054 0.9659
vn 0.2588 -0.0054 0.9659
vn 0.7071 -0.0054 0.7071
vn 0.9659 -0.0054 0.2588
vn 0.9659 -0.0054 -0.2588
vn 0.7071 -0.0054 -0.7071
vn 0.2588 -0.0054 -0.9659
usemtl Plastic
s off
f 126//1 2//1 4//1 127//1
f 127//2 4//2 6//2 129//2
f 129//3 6//3 8//3 131//3
f 131//4 8//4 10//4 133//4
f 133//5 10//5 12//5 135//5
f 135//6 12//6 14//6 137//6
f 137//7 14//7 16//7 139//7
f 139//8 16//8 18//8 141//8
f 141//9 18//9 20//9 143//9
f 143//10 20//10 22//10 145//10
f 18//11 16//11 44//11 45//11
f 145//12 22//12 24//12 147//12
f 147//13 24//13 2//13 126//13
f 11//14 13//14 31//14 30//14
f 25//15 26//15 27//15 28//15 29//15 30//15 31//15 32//15 33//15 34//15 35//15 36//15
f 9//16 11//16 30//16 29//16
f 7//17 9//17 29//17 28//17
f 23//18 1//18 25//18 36//18
f 1//19 3//19 26//19 25//19
f 5//20 7//20 28//20 27//20
f 21//21 23//21 36//21 35//21
f 3//22 5//22 27//22 26//22
f 19//23 21//23 35//23 34//23
f 17//24 19//24 34//24 33//24
f 15//25 17//25 33//25 32//25
f 13//26 15//26 32//26 31//26
f 45//27 44//27 56//27 57//27
f 16//28 14//28 43//28 44//28
f 14//29 12//29 42//29 43//29
f 12//30 10//30 41//30 42//30
f 10//31 8//31 40//31 41//31
f 2//32 24//32 48//32 38//32
f 4//33 2//33 38//33 37//33
f 8//34 6//34 39//34 40//34
f 24//35 22//35 47//35 48//35
f 6//36 4//36 37//36 39//36
f 22//37 20//37 46//37 47//37
f 20//38 18//38 45//38 46//38
f 49//39 50//39 62//39 61//39
f 42//40 41//40 53//40 54//40
f 38//41 48//41 60//41 50//41
f 39//42 37//42 49//42 51//42
f 46//43 45//43 57//43 58//43
f 43//44 42//44 54//44 55//44
f 40//45 39//45 51//45 52//45
f 47//46 46//46 58//46 59//46
f 44//47 43//47 55//47 56//47
f 41//48 40//48 52//48 53//48
f 48//49 47//49 59//49 60//49
f 37//50 38//50 50//50 49//50
f 61//51 62//51 72//51 71//51 70//51 69//51 68//51 67//51 66//51 65//51 64//51 63//51
f 57//52 56//52 68//52 69//52
f 54//53 53//53 65//53 66//53
f 50//54 60//54 72//54 62//54
f 51//55 49//55 61//55 63//55
f 58//56 57//56 69//56 70//56
f 55//57 54//57 66//57 67//57
f 52//58 51//58 63//58 64//58
f 59//59 58//59 70//59 71//59
f 56//60 55//60 67//60 68//60
f 53//61 52//61 64//61 65//61
f 60//62 59//62 71//62 72//62
f 23//63 100//63 89//63 1//63
f 21//64 99//64 100//64 23//64
f 19//65 98//65 99//65 21//65
f 17//66 97//66 98//66 19//66
f 15//67 96//67 97//67 17//67
f 13//68 95//68 96//68 15//68
f 11//69 94//69 95//69 13//69
f 9//70 93//70 94//70 11//70
f 7//71 92//71 93//71 9//71
f 5//72 91//72 92//72 7//72
f 3//73 90//73 91//73 5//73
f 1//74 89//74 90//74 3//74
f 100//75 112//75 101//75 89//75
f 99//76 111//76 112//76 100//76
f 98//77 110//77 111//77 99//77
f 97//78 109//78 110//78 98//78
f 96//79 108//79 109//79 97//79
f 95//80 107//80 108//80 96//80
f 94//81 106//81 107//81 95//81
f 93//82 105//82 106//82 94//82
f 92//83 104//83 105//83 93//83
f 91//84 103//84 104//84 92//84
f 90//85 102//85 103//85 91//85
f 89//86 101//86 102//86 90//86
f 112//87 124//87 113//87 101//87
f 111//88 123//88 124//88 112//88
f 110//89 122//89 123//89 111//89
f 109//90 121//90 122//90 110//90
f 108//91 120//91 121//91 109//91
f 107//92 119//92 120//92 108//92
f 106//93 118//93 119//93 107//93
f 105//94 117//94 118//94 106//94
f 104//95 116//95 117//95 105//95
f 103//96 115//96 116//96 104//96
f 102//97 114//97 115//97 103//97
f 101//98 113//98 114//98 102//98
f 124//99 148//99 125//99 113//99
f 123//100 146//100 148//100 124//100
f 122//101 144//101 146//101 123//101
f 121//102 142//102 144//102 122//102
f 120//103 140//103 142//103 121//103
f 119//104 138//104 140//104 120//104
f 118//105 136//105 138//105 119//105
f 117//106 134//106 136//106 118//106
f 116//107 132//107 134//107 117//107
f 115//108 130//108 132//108 116//108
f 114//109 128//109 130//109 115//109
f 113//110 125//110 128//110 114//110
usemtl Grey
f 73//111 74//111 76//111 75//111
f 75//112 76//112 78//112 77//112
f 77//113 78//113 80//113 79//113
f 79//114 80//114 82//114 81//114
f 81//115 82//115 84//115 83//115
f 83//116 84//116 86//116 85//116
f 76//51 74//51 88//51 86//51 84//51 82//51 80//51 78//51
f 85//117 86//117 88//117 87//117
f 87//118 88//118 74//118 73//118
f 73//15 75//15 77//15 79//15 81//15 83//15 85//15 87//15
usemtl Red
f 148//119 147//119 126//119 125//119
f 146//120 145//120 147//120 148//120
f 144//121 143//121 145//121 146//121
f 142//122 141//122 143//122 144//122
f 140//123 139//123 141//123 142//123
f 138//124 137//124 139//124 140//124
f 136//125 135//125 137//125 138//125
f 134//126 133//126 135//126 136//126
f 132//127 131//127 133//127 134//127
f 130//128 129//128 131//128 132//128
f 128//129 127//129 129//129 130//129
f 125//130 126//130 127//130 128//130
