# Blender v2.79 (sub 0) OBJ File: 'Compass_Closed.blend'
# www.blender.org
mtllib Compass_Closed.mtl
o Compass_Closed_Cylinder.027
v 0.000000 0.286069 0.002400
v 0.000000 0.286069 0.125434
v 0.168147 0.231434 0.002400
v 0.168147 0.231434 0.125434
v 0.272068 0.088400 0.002400
v 0.272068 0.088400 0.125434
v 0.272068 -0.088400 0.002400
v 0.272068 -0.088400 0.125434
v 0.168147 -0.231434 0.002400
v 0.168147 -0.231434 0.125434
v -0.000000 -0.286069 0.002400
v -0.000000 -0.286069 0.125434
v -0.168147 -0.231434 0.002400
v -0.168147 -0.231434 0.125434
v -0.272068 -0.088400 0.002400
v -0.272068 -0.088400 0.125434
v -0.272068 0.088400 0.002400
v -0.272068 0.088400 0.125434
v -0.168147 0.231435 0.002400
v -0.168147 0.231435 0.125434
v 0.179741 0.247392 0.130531
v -0.000000 0.305793 0.130531
v 0.290827 0.094495 0.130530
v 0.290827 -0.094495 0.130530
v 0.179741 -0.247392 0.130530
v -0.000000 -0.305793 0.130530
v -0.179741 -0.247392 0.130530
v -0.290827 -0.094495 0.130530
v -0.290827 0.094495 0.130530
v -0.179741 0.247392 0.130531
v 0.179741 0.247392 0.187611
v -0.000000 0.305793 0.187611
v 0.290827 0.094495 0.187611
v 0.290827 -0.094495 0.187611
v 0.179741 -0.247392 0.187611
v -0.000000 -0.305793 0.187611
v -0.179741 -0.247392 0.187611
v -0.290827 -0.094495 0.187611
v -0.290827 0.094495 0.187611
v -0.179741 0.247392 0.187611
v 0.290095 0.011115 0.063917
v 0.290095 0.007860 0.056057
v 0.265658 0.047013 0.063917
v 0.283169 0.037622 0.063917
v 0.265658 0.033244 0.030673
v 0.283169 0.026603 0.037314
v 0.265658 0.000000 0.016904
v 0.283169 0.000000 0.026295
v 0.265658 -0.033244 0.030673
v 0.283169 -0.026603 0.037314
v 0.265658 -0.047013 0.063917
v 0.283169 -0.037622 0.063917
v 0.265658 -0.033244 0.097160
v 0.283169 -0.026603 0.090520
v 0.265658 -0.000000 0.110930
v 0.283169 0.000000 0.101539
v 0.265658 0.033244 0.097160
v 0.283169 0.026603 0.090520
v 0.290095 0.000000 0.052802
v 0.290095 -0.007860 0.056057
v 0.290095 -0.011115 0.063917
v 0.290095 -0.007860 0.071776
v 0.290095 0.000000 0.075032
v 0.290095 0.007860 0.071776
v 0.300174 0.016125 0.063917
v 0.300174 0.011402 0.075319
v 0.300174 -0.000000 0.080042
v 0.300174 -0.011402 0.075319
v 0.300174 -0.016125 0.063917
v 0.300174 -0.011402 0.052515
v 0.300174 -0.000000 0.047792
v 0.300174 0.011402 0.052515
v 0.309846 0.037723 0.063917
v 0.309846 0.026674 0.090591
v 0.309846 -0.000000 0.101640
v 0.309846 -0.026674 0.090591
v 0.309846 -0.037723 0.063917
v 0.309846 -0.026674 0.037243
v 0.309846 -0.000000 0.026194
v 0.309846 0.026674 0.037243
v 0.336438 0.024128 0.063917
v 0.336438 0.017061 0.080978
v 0.336438 -0.000000 0.088045
v 0.336438 -0.017061 0.080978
v 0.336438 -0.024128 0.063917
v 0.336438 -0.017061 0.046856
v 0.336438 -0.000000 0.039789
v 0.336438 0.017061 0.046856
v -0.047578 0.267719 0.063917
v -0.038186 0.285230 0.063917
v -0.033808 0.267719 0.030673
v -0.027167 0.285230 0.037314
v -0.000564 0.267719 0.016904
v -0.000564 0.285230 0.026295
v 0.032679 0.267719 0.030673
v 0.026039 0.285230 0.037314
v 0.046449 0.267719 0.063917
v 0.037058 0.285230 0.063917
v 0.032679 0.267719 0.097161
v 0.026039 0.285230 0.090520
v -0.000564 0.267719 0.110930
v -0.000564 0.285230 0.101539
v -0.033808 0.267719 0.097161
v -0.027167 0.285230 0.090520
v -0.038287 0.311907 0.063917
v -0.027239 0.311907 0.090591
v -0.000564 0.311907 0.101640
v 0.026110 0.311907 0.090591
v 0.037159 0.311907 0.063917
v 0.026110 0.311907 0.037243
v -0.000564 0.311907 0.026194
v -0.027239 0.311907 0.037243
v -0.024692 0.338499 0.063917
v -0.017625 0.338499 0.080978
v -0.000564 0.338499 0.088045
v 0.016497 0.338499 0.080978
v 0.023564 0.338499 0.063917
v 0.016497 0.338499 0.046856
v -0.000564 0.338499 0.039789
v -0.017625 0.338499 0.046856
v 0.090659 0.442644 0.057756
v 0.085360 0.440984 0.066239
v 0.078685 0.438894 0.064259
v 0.078685 0.438894 0.051252
v 0.085360 0.440984 0.049272
v 0.058309 0.492257 0.057756
v 0.054766 0.486864 0.066239
v 0.050302 0.480072 0.064259
v 0.050302 0.480072 0.051252
v 0.054766 0.486864 0.049272
v -0.000000 0.499568 0.057756
v -0.000000 0.493731 0.066239
v -0.000000 0.486379 0.064259
v -0.000000 0.486379 0.051252
v -0.000000 0.493731 0.049272
v -0.058309 0.492257 0.057756
v -0.054766 0.486864 0.066239
v -0.050303 0.480072 0.064259
v -0.050303 0.480072 0.051252
v -0.054766 0.486864 0.049272
v -0.090228 0.443815 0.057756
v -0.085260 0.441257 0.066239
v -0.079002 0.438035 0.064259
v -0.079002 0.438035 0.051252
v -0.085260 0.441257 0.049272
v -0.088738 0.366762 0.057756
v -0.083346 0.368996 0.066239
v -0.076553 0.371810 0.064259
v -0.076553 0.371810 0.051252
v -0.083346 0.368996 0.049272
v -0.058309 0.321600 0.057756
v -0.054766 0.326992 0.066239
v -0.050303 0.333785 0.064259
v -0.050303 0.333785 0.051252
v -0.054766 0.326992 0.049272
v -0.000000 0.307470 0.057756
v -0.000000 0.313306 0.066239
v -0.000000 0.320658 0.064259
v -0.000000 0.320658 0.051252
v -0.000000 0.313306 0.049272
v 0.058309 0.321600 0.057756
v 0.054766 0.326992 0.066239
v 0.050302 0.333785 0.064259
v 0.050302 0.333785 0.051252
v 0.054766 0.326992 0.049272
v 0.088738 0.366762 0.057756
v 0.083346 0.368996 0.066239
v 0.076553 0.371810 0.064259
v 0.076553 0.371810 0.051252
v 0.083346 0.368996 0.049272
v 0.000092 0.258436 0.249216
v 0.000170 0.278785 0.219970
v -0.152496 0.208857 0.248810
v -0.164379 0.225320 0.219531
v -0.246800 0.079057 0.248559
v -0.266076 0.085346 0.219260
v -0.246800 -0.081384 0.248559
v -0.266076 -0.087672 0.219260
v -0.152496 -0.211183 0.248810
v -0.164379 -0.227646 0.219531
v 0.000092 -0.260762 0.249216
v 0.000170 -0.281111 0.219969
v 0.152680 -0.211183 0.249623
v 0.164719 -0.227646 0.220408
v 0.246984 -0.081384 0.249874
v 0.266415 -0.087672 0.220679
v 0.246984 0.079057 0.249874
v 0.266415 0.085346 0.220679
v 0.152680 0.208857 0.249623
v 0.164718 0.225320 0.220408
v -0.175713 0.240936 0.214979
v 0.000182 0.298088 0.215448
v -0.284421 0.091311 0.214690
v -0.284421 -0.093637 0.214690
v -0.175713 -0.243262 0.214979
v 0.000182 -0.300414 0.215448
v 0.176076 -0.243262 0.215916
v 0.284785 -0.093637 0.216206
v 0.284785 0.091311 0.216206
v 0.176076 0.240936 0.215916
v -0.175636 0.240936 0.186208
v 0.000259 0.298088 0.186677
v -0.284345 0.091311 0.185918
v -0.284345 -0.093637 0.185918
v -0.175636 -0.243262 0.186208
v 0.000259 -0.300414 0.186677
v 0.176153 -0.243262 0.187145
v 0.284862 -0.093637 0.187435
v 0.284862 0.091311 0.187435
v 0.176153 0.240936 0.187145
v -0.161889 0.222014 0.186245
v 0.000259 0.274700 0.186677
v -0.262101 0.084083 0.185978
v -0.262101 -0.086409 0.185978
v -0.161889 -0.224341 0.186245
v 0.000259 -0.277026 0.186677
v 0.162406 -0.224341 0.187108
v 0.262618 -0.086409 0.187376
v 0.262618 0.084083 0.187376
v 0.162406 0.222015 0.187109
v -0.156042 0.213919 0.199526
v 0.000223 0.264693 0.199942
v -0.252620 0.080991 0.199269
v -0.252620 -0.083317 0.199269
v -0.156042 -0.216245 0.199526
v 0.000223 -0.267019 0.199942
v 0.156489 -0.216245 0.200358
v 0.253066 -0.083317 0.200616
v 0.253066 0.080991 0.200616
v 0.156489 0.213919 0.200359
v 0.000023 0.215812 0.275034
v -0.127511 0.174373 0.274695
v -0.206332 0.065886 0.274485
v -0.206332 -0.068212 0.274485
v -0.127511 -0.176699 0.274695
v 0.000023 -0.218138 0.275034
v 0.127557 -0.176699 0.275374
v 0.206378 -0.068212 0.275584
v 0.206378 0.065886 0.275584
v 0.127557 0.174373 0.275374
v -0.000006 0.132535 0.286099
v -0.078592 0.107001 0.285890
v -0.127160 0.040152 0.285760
v -0.127160 -0.042478 0.285760
v -0.078592 -0.109327 0.285890
v -0.000006 -0.134861 0.286099
v 0.078579 -0.109327 0.286308
v 0.127147 -0.042478 0.286438
v 0.127147 0.040152 0.286438
v 0.078579 0.107001 0.286308
v -0.272541 -0.062544 0.213599
v -0.272541 0.063808 0.213599
v -0.260347 -0.061273 0.185504
v -0.260347 0.062537 0.185504
v -0.301802 0.064392 0.208112
v -0.301802 -0.063128 0.208112
v -0.285379 0.062079 0.169851
v -0.285379 -0.060815 0.169851
vn 0.3090 0.9511 0.0000
vn 0.8090 0.5878 0.0000
vn 1.0000 -0.0000 -0.0000
vn 0.8090 -0.5878 -0.0000
vn 0.3090 -0.9511 0.0000
vn -0.3090 -0.9511 0.0000
vn -0.8090 -0.5878 0.0000
vn -1.0000 0.0000 0.0000
vn -0.8090 0.5878 0.0000
vn -0.3090 0.9511 0.0000
vn 0.0000 0.0000 -1.0000
vn 0.2185 -0.1476 -0.9646
vn -0.6900 0.4579 -0.5606
vn -0.6900 0.4579 0.5606
vn -0.6822 -0.4618 -0.5668
vn 0.8259 -0.5638 0.0000
vn 0.2185 -0.1476 0.9646
vn -0.2224 -0.1507 0.9632
vn 0.1028 0.8195 0.5638
vn -0.0326 -0.2600 0.9651
vn -0.1244 -0.9922 0.0000
vn -0.0326 -0.2600 -0.9651
vn 0.1028 0.8195 -0.5638
vn -0.1028 0.8195 0.5638
vn 0.0326 -0.2600 0.9651
vn 0.1244 -0.9922 0.0000
vn 0.0326 -0.2600 -0.9651
vn -0.1028 0.8195 -0.5638
vn 0.6956 0.4585 -0.5531
vn 0.6956 0.4585 0.5531
vn -0.2224 -0.1507 -0.9632
vn -0.8535 -0.0195 0.5208
vn 0.2907 0.0092 0.9568
vn 0.9993 0.0369 0.0000
vn 0.2907 0.0092 -0.9568
vn -0.8535 -0.0195 -0.5208
vn -0.8229 0.5681 0.0000
vn -0.2144 0.1469 0.9656
vn -0.6822 -0.4618 0.5668
vn 0.6822 -0.4618 0.5668
vn 0.2144 0.1469 0.9656
vn -0.1964 -0.7983 0.5693
vn 0.0639 0.2504 0.9660
vn 0.2525 0.9676 0.0000
vn 0.0639 0.2504 -0.9660
vn -0.1964 -0.7983 -0.5693
vn 0.1964 -0.7983 0.5693
vn -0.0639 0.2504 0.9660
vn -0.2525 0.9676 0.0000
vn -0.0639 0.2504 -0.9660
vn 0.1964 -0.7983 -0.5693
vn 0.6822 -0.4618 -0.5668
vn 0.2144 0.1469 -0.9656
vn 0.8229 0.5681 0.0000
vn -0.2144 0.1469 -0.9656
vn 0.8455 -0.0225 0.5335
vn -0.2817 0.0084 0.9595
vn -0.9995 0.0318 0.0000
vn -0.2817 0.0084 -0.9595
vn 0.8455 -0.0225 -0.5335
vn -0.8234 -0.5675 0.0000
vn -0.2592 0.7931 0.5512
vn -0.6761 0.4902 0.5500
vn -0.8354 -0.0000 0.5496
vn -0.6761 -0.4902 0.5500
vn -0.2592 -0.7931 0.5512
vn 0.2562 -0.7931 0.5525
vn 0.6732 -0.4902 0.5536
vn 0.8325 -0.0000 0.5541
vn 0.6732 0.4902 0.5536
vn 0.2562 0.7931 0.5525
vn -0.1682 -0.5109 0.8430
vn 0.0027 0.0000 -1.0000
vn 0.0401 -0.1316 0.9905
vn -0.4368 -0.3158 0.8423
vn -0.1682 0.5109 0.8430
vn -0.5394 -0.0000 0.8420
vn -0.4368 0.3158 0.8423
vn 0.1638 0.5109 0.8439
vn 0.4323 0.3158 0.8446
vn 0.5349 -0.0000 0.8449
vn 0.4323 -0.3158 0.8446
vn 0.1638 -0.5109 0.8439
vn -0.0027 -0.0000 1.0000
vn -0.1410 -0.0000 0.9900
vn 0.0401 0.1316 0.9905
vn 0.1093 -0.0813 0.9907
vn -0.1146 -0.0813 0.9901
vn -0.0454 0.1316 0.9903
vn 0.1357 -0.0000 0.9907
vn -0.0454 -0.1316 0.9903
vn -0.1146 0.0813 0.9901
vn 0.1093 0.0813 0.9907
vn 0.9173 0.0000 0.3981
vn -0.9189 0.0000 -0.3944
vn 0.0200 -0.9988 -0.0453
vn -0.1843 0.0000 0.9829
vn 0.0200 0.9988 -0.0453
vn 0.5302 0.0000 -0.8479
vn 0.2121 -0.1541 -0.9650
vn 0.0810 0.2493 -0.9650
vn 0.2622 0.0000 -0.9650
vn 0.2121 0.1541 -0.9650
vn -0.0810 0.2493 -0.9650
vn -0.2121 0.1541 -0.9650
vn -0.2622 0.0000 -0.9650
vn -0.2121 -0.1541 -0.9650
vn -0.0810 -0.2493 -0.9650
vn 0.0810 -0.2493 -0.9650
vn 0.0000 -0.0000 1.0000
vn -0.4173 -0.8396 -0.3478
vn 0.9623 -0.1042 -0.2514
vn 0.4440 0.8278 -0.3429
vn -0.4173 -0.3478 -0.8396
vn 0.9623 0.2514 -0.1042
vn 0.4440 0.3429 -0.8278
vn -0.4173 -0.8396 0.3478
vn 0.9623 -0.1042 0.2514
vn 0.4440 -0.3429 -0.8278
vn -0.4173 0.3478 0.8396
vn 0.9623 0.1042 -0.2514
vn 0.4440 -0.8278 -0.3429
vn -0.4173 0.3478 -0.8396
vn 0.9623 -0.2514 0.1042
vn 0.4440 -0.8278 0.3429
vn -0.8999 -0.4030 0.1669
vn 0.9623 0.2514 0.1042
vn 0.4440 -0.3429 0.8278
vn 0.9623 -0.2514 -0.1042
vn -0.4173 -0.3478 0.8396
vn 0.4440 0.3429 0.8278
vn -0.4173 0.8396 -0.3478
vn 0.9623 0.1042 0.2514
vn 0.4440 0.8278 0.3429
vn -0.4173 0.8396 0.3478
vn 0.4271 0.8354 -0.3460
vn -0.8999 0.1669 0.4030
vn -0.8999 0.1669 -0.4030
vn -0.8999 -0.4030 -0.1669
vn -0.8999 -0.1669 0.4030
vn -0.8999 0.4030 0.1669
vn -0.8999 0.4030 -0.1669
vn -0.8999 -0.1669 -0.4030
vn 0.4271 -0.3460 -0.8354
vn 0.4271 -0.8354 0.3460
vn 0.4271 0.3460 0.8354
vn 0.4271 0.3460 -0.8354
vn 0.4271 -0.8354 -0.3460
vn 0.4271 -0.3460 0.8354
vn 0.4271 0.8354 0.3460
vn -0.8278 0.4440 -0.3429
vn -0.9239 -0.0035 0.3827
vn -0.3429 0.4440 -0.8278
vn 0.3429 0.4440 -0.8278
vn 0.8278 0.4440 -0.3429
vn 0.8278 0.4440 0.3429
vn 0.9239 -0.0035 -0.3827
vn 0.3429 0.4440 0.8278
vn -0.3429 0.4440 0.8278
vn -0.8278 0.4440 0.3429
vn -0.8354 0.4271 -0.3460
vn 0.3827 -0.0035 0.9239
vn -0.9239 -0.0035 -0.3827
vn 0.3827 -0.0035 -0.9239
vn 0.9239 -0.0035 0.3827
vn -0.3827 -0.0035 0.9239
vn -0.3827 -0.0035 -0.9239
vn 0.0000 1.0000 0.0000
vn 0.3460 0.4271 -0.8354
vn 0.8354 0.4271 0.3460
vn -0.3460 0.4271 0.8354
vn -0.3460 0.4271 -0.8354
vn 0.8354 0.4271 -0.3460
vn 0.3460 0.4271 0.8354
vn -0.8354 0.4271 0.3460
vn -0.1961 -0.1406 0.9705
vn 0.3090 -0.9511 0.0008
vn -0.0765 0.2275 0.9708
vn -0.2418 -0.0000 0.9703
vn -0.1961 0.1406 0.9705
vn 0.0713 0.2275 0.9712
vn 0.1909 0.1406 0.9715
vn 0.2366 -0.0000 0.9716
vn 0.1909 -0.1406 0.9715
vn 0.0713 -0.2275 0.9712
vn -0.0765 -0.2275 0.9708
vn -1.0000 0.0000 -0.0027
vn 0.3090 0.9511 0.0008
vn 0.8090 -0.5878 0.0022
vn -0.8090 -0.5878 -0.0022
vn -0.3090 0.9511 -0.0008
vn 1.0000 0.0000 0.0027
vn -0.3090 -0.9511 -0.0008
vn -0.8090 0.5878 -0.0022
vn 0.8090 0.5878 0.0022
vn -0.2495 -0.7728 -0.5836
vn -0.6558 0.4776 -0.5847
vn 0.6589 0.4776 -0.5812
vn 0.2526 -0.7728 -0.5823
vn -0.8110 0.0000 -0.5851
vn 0.2526 0.7728 -0.5823
vn 0.6589 -0.4776 -0.5812
vn -0.6558 -0.4776 -0.5847
vn -0.2495 0.7728 -0.5836
vn 0.8141 -0.0000 -0.5808
usemtl Yellow
s off
f 1//1 2//1 4//1 3//1
f 3//2 4//2 6//2 5//2
f 5//3 6//3 8//3 7//3
f 7//4 8//4 10//4 9//4
f 9//5 10//5 12//5 11//5
f 11//6 12//6 14//6 13//6
f 13//7 14//7 16//7 15//7
f 15//8 16//8 18//8 17//8
f 17//9 18//9 20//9 19//9
f 19//10 20//10 2//10 1//10
f 1//11 3//11 5//11 7//11 9//11 11//11 13//11 15//11 17//11 19//11
f 144//12 145//12 140//12 139//12
f 140//13 145//13 141//13 136//13
f 136//14 141//14 142//14 137//14
f 155//15 151//15 146//15 150//15
f 138//16 143//16 144//16 139//16
f 137//17 142//17 143//17 138//17
f 127//18 128//18 123//18 122//18
f 126//19 131//19 132//19 127//19
f 127//20 132//20 133//20 128//20
f 128//21 133//21 134//21 129//21
f 129//22 134//22 135//22 130//22
f 130//23 135//23 131//23 126//23
f 131//24 136//24 137//24 132//24
f 132//25 137//25 138//25 133//25
f 133//26 138//26 139//26 134//26
f 134//27 139//27 140//27 135//27
f 135//28 140//28 136//28 131//28
f 121//29 125//29 130//29 126//29
f 121//30 126//30 127//30 122//30
f 129//31 130//31 125//31 124//31
f 141//32 146//32 147//32 142//32
f 142//33 147//33 148//33 143//33
f 143//34 148//34 149//34 144//34
f 144//35 149//35 150//35 145//35
f 145//36 150//36 146//36 141//36
f 163//37 168//37 169//37 164//37
f 162//38 167//38 168//38 163//38
f 146//39 151//39 152//39 147//39
f 161//40 166//40 167//40 162//40
f 152//41 153//41 148//41 147//41
f 151//42 156//42 157//42 152//42
f 152//43 157//43 158//43 153//43
f 153//44 158//44 159//44 154//44
f 154//45 159//45 160//45 155//45
f 155//46 160//46 156//46 151//46
f 156//47 161//47 162//47 157//47
f 157//48 162//48 163//48 158//48
f 158//49 163//49 164//49 159//49
f 159//50 164//50 165//50 160//50
f 160//51 165//51 161//51 156//51
f 165//52 170//52 166//52 161//52
f 149//53 154//53 155//53 150//53
f 148//54 153//54 154//54 149//54
f 164//55 169//55 170//55 165//55
f 166//56 121//56 122//56 167//56
f 167//57 122//57 123//57 168//57
f 168//58 123//58 124//58 169//58
f 169//59 124//59 125//59 170//59
f 170//60 125//60 121//60 166//60
f 123//61 128//61 129//61 124//61
f 171//62 172//62 174//62 173//62
f 173//63 174//63 176//63 175//63
f 175//64 176//64 178//64 177//64
f 177//65 178//65 180//65 179//65
f 179//66 180//66 182//66 181//66
f 181//67 182//67 184//67 183//67
f 183//68 184//68 186//68 185//68
f 185//69 186//69 188//69 187//69
f 187//70 188//70 190//70 189//70
f 189//71 190//71 172//71 171//71
f 179//72 181//72 236//72 235//72
f 221//73 222//73 230//73 229//73 228//73 227//73 226//73 225//73 224//73 223//73
f 236//74 237//74 247//74 246//74
f 177//75 179//75 235//75 234//75
f 171//76 173//76 232//76 231//76
f 175//77 177//77 234//77 233//77
f 173//78 175//78 233//78 232//78
f 189//79 171//79 231//79 240//79
f 187//80 189//80 240//80 239//80
f 185//81 187//81 239//81 238//81
f 183//82 185//82 238//82 237//82
f 181//83 183//83 237//83 236//83
f 241//84 242//84 243//84 244//84 245//84 246//84 247//84 248//84 249//84 250//84
f 233//85 234//85 244//85 243//85
f 240//86 231//86 241//86 250//86
f 237//87 238//87 248//87 247//87
f 234//88 235//88 245//88 244//88
f 231//89 232//89 242//89 241//89
f 238//90 239//90 249//90 248//90
f 235//91 236//91 246//91 245//91
f 232//92 233//92 243//92 242//92
f 239//93 240//93 250//93 249//93
f 252//94 251//94 253//94 254//94
f 255//95 257//95 258//95 256//95
f 251//96 256//96 258//96 253//96
f 252//97 255//97 256//97 251//97
f 254//98 257//98 255//98 252//98
f 253//99 258//99 257//99 254//99
usemtl DarkYellow
f 10//100 8//100 24//100 25//100
f 27//6 26//6 36//6 37//6
f 4//101 2//101 22//101 21//101
f 8//102 6//102 23//102 24//102
f 6//103 4//103 21//103 23//103
f 2//104 20//104 30//104 22//104
f 20//105 18//105 29//105 30//105
f 18//106 16//106 28//106 29//106
f 16//107 14//107 27//107 28//107
f 14//108 12//108 26//108 27//108
f 12//109 10//109 25//109 26//109
f 24//3 23//3 33//3 34//3
f 22//10 30//10 40//10 32//10
f 28//7 27//7 37//7 38//7
f 25//4 24//4 34//4 35//4
f 21//1 22//1 32//1 31//1
f 29//8 28//8 38//8 39//8
f 26//5 25//5 35//5 36//5
f 23//2 21//2 31//2 33//2
f 30//9 29//9 39//9 40//9
f 40//110 39//110 38//110 37//110 36//110 35//110 34//110 33//110 31//110 32//110
f 61//111 60//111 70//111 69//111
f 50//112 48//112 59//112 60//112
f 43//113 44//113 46//113 45//113
f 60//114 59//114 71//114 70//114
f 46//115 44//115 41//115 42//115
f 45//116 46//116 48//116 47//116
f 62//117 61//117 69//117 68//117
f 56//118 54//118 62//118 63//118
f 47//119 48//119 50//119 49//119
f 64//120 63//120 67//120 66//120
f 48//121 46//121 42//121 59//121
f 49//122 50//122 52//122 51//122
f 59//123 42//123 72//123 71//123
f 54//124 52//124 61//124 62//124
f 51//125 52//125 54//125 53//125
f 68//126 69//126 77//126 76//126
f 44//127 58//127 64//127 41//127
f 53//128 54//128 56//128 55//128
f 52//129 50//129 60//129 61//129
f 63//130 62//130 68//130 67//130
f 55//131 56//131 58//131 57//131
f 42//132 41//132 65//132 72//132
f 58//133 56//133 63//133 64//133
f 57//134 58//134 44//134 43//134
f 41//135 64//135 66//135 65//135
f 80//136 73//136 81//136 88//136
f 66//137 67//137 75//137 74//137
f 71//138 72//138 80//138 79//138
f 69//139 70//139 78//139 77//139
f 67//140 68//140 76//140 75//140
f 65//141 66//141 74//141 73//141
f 72//142 65//142 73//142 80//142
f 70//143 71//143 79//143 78//143
f 88//3 81//3 82//3 83//3 84//3 85//3 86//3 87//3
f 78//144 79//144 87//144 86//144
f 76//145 77//145 85//145 84//145
f 74//146 75//146 83//146 82//146
f 79//147 80//147 88//147 87//147
f 77//148 78//148 86//148 85//148
f 75//149 76//149 84//149 83//149
f 73//150 74//150 82//150 81//150
f 89//151 90//151 92//151 91//151
f 104//152 106//152 105//152 90//152
f 91//153 92//153 94//153 93//153
f 93//154 94//154 96//154 95//154
f 95//155 96//155 98//155 97//155
f 97//156 98//156 100//156 99//156
f 98//157 96//157 110//157 109//157
f 99//158 100//158 102//158 101//158
f 101//159 102//159 104//159 103//159
f 103//160 104//160 90//160 89//160
f 112//161 105//161 113//161 120//161
f 100//162 108//162 107//162 102//162
f 90//163 105//163 112//163 92//163
f 94//164 111//164 110//164 96//164
f 100//165 98//165 109//165 108//165
f 104//166 102//166 107//166 106//166
f 92//167 112//167 111//167 94//167
f 120//168 113//168 114//168 115//168 116//168 117//168 118//168 119//168
f 110//169 111//169 119//169 118//169
f 108//170 109//170 117//170 116//170
f 106//171 107//171 115//171 114//171
f 111//172 112//172 120//172 119//172
f 109//173 110//173 118//173 117//173
f 107//174 108//174 116//174 115//174
f 105//175 106//175 114//175 113//175
f 180//176 178//176 194//176 195//176
f 197//177 196//177 206//177 207//177
f 174//178 172//178 192//178 191//178
f 178//179 176//179 193//179 194//179
f 176//180 174//180 191//180 193//180
f 172//181 190//181 200//181 192//181
f 190//182 188//182 199//182 200//182
f 188//183 186//183 198//183 199//183
f 186//184 184//184 197//184 198//184
f 184//185 182//185 196//185 197//185
f 182//186 180//186 195//186 196//186
f 204//73 203//73 213//73 214//73
f 194//187 193//187 203//187 204//187
f 192//188 200//188 210//188 202//188
f 198//189 197//189 207//189 208//189
f 195//190 194//190 204//190 205//190
f 191//191 192//191 202//191 201//191
f 199//192 198//192 208//192 209//192
f 196//193 195//193 205//193 206//193
f 193//194 191//194 201//194 203//194
f 200//195 199//195 209//195 210//195
f 212//196 220//196 230//196 222//196
f 202//73 210//73 220//73 212//73
f 208//73 207//73 217//73 218//73
f 205//73 204//73 214//73 215//73
f 201//73 202//73 212//73 211//73
f 209//73 208//73 218//73 219//73
f 206//73 205//73 215//73 216//73
f 203//73 201//73 211//73 213//73
f 210//73 209//73 219//73 220//73
f 207//73 206//73 216//73 217//73
f 218//197 217//197 227//197 228//197
f 215//198 214//198 224//198 225//198
f 211//199 212//199 222//199 221//199
f 219//200 218//200 228//200 229//200
f 216//201 215//201 225//201 226//201
f 213//202 211//202 221//202 223//202
f 220//203 219//203 229//203 230//203
f 217//204 216//204 226//204 227//204
f 214//205 213//205 223//205 224//205
