# Blender v2.79 (sub 0) OBJ File: 'Match.blend'
# www.blender.org
mtllib Match.mtl
o Match_Cube.013
v -0.008499 0.241451 0.009597
v -0.008499 0.241451 -0.009597
v 0.010693 0.241126 0.009597
v 0.010693 0.241126 -0.009597
v -0.020678 -0.299378 0.012614
v -0.020678 -0.299378 -0.012614
v 0.004547 -0.299806 0.012614
v 0.004547 -0.299806 -0.012614
v 0.020678 0.276181 0.018988
v -0.017292 0.276824 0.018988
v -0.017292 0.276824 -0.018988
v 0.020678 0.276181 -0.018988
v 0.014416 0.299388 0.012333
v -0.010247 0.299806 0.012333
v -0.010247 0.299806 -0.012333
v 0.014416 0.299388 -0.012333
vn -0.0044 -0.2576 -0.9662
vn -0.9561 0.2931 -0.0000
vn -0.0044 -0.2576 0.9662
vn 0.9617 -0.2740 0.0000
vn -0.9705 -0.2412 0.0000
vn 0.0169 0.9999 0.0000
vn 0.0047 0.2768 -0.9609
vn 0.0047 0.2768 0.9609
vn 0.9655 0.2605 0.0000
vn 0.9999 -0.0114 -0.0000
vn -0.0169 -0.9999 -0.0000
vn -0.9997 0.0225 0.0000
vn 0.0001 0.0056 1.0000
vn 0.0001 0.0056 -1.0000
usemtl Red
s off
f 2//1 11//1 12//1 4//1
f 10//2 14//2 15//2 11//2
f 3//3 9//3 10//3 1//3
f 4//4 12//4 9//4 3//4
f 1//5 10//5 11//5 2//5
f 14//6 13//6 16//6 15//6
f 11//7 15//7 16//7 12//7
f 9//8 13//8 14//8 10//8
f 12//9 16//9 13//9 9//9
usemtl Match
f 3//10 7//10 8//10 4//10
f 7//11 5//11 6//11 8//11
f 5//12 1//12 2//12 6//12
f 3//13 1//13 5//13 7//13
f 8//14 6//14 2//14 4//14
