# Blender v2.79 (sub 0) OBJ File: 'Pan.blend'
# www.blender.org
mtllib Pan.mtl
o Pan_Cylinder.021
v 0.000000 -0.045151 0.649118
v 0.000000 0.066186 0.630295
v 0.421335 -0.045151 0.762015
v 0.430745 0.066186 0.745713
v 0.729773 -0.045151 1.070453
v 0.746072 0.066186 1.061040
v 0.842670 -0.045151 1.491788
v 0.861490 0.066186 1.491785
v 0.729773 -0.045151 1.913123
v 0.746072 0.066186 1.922531
v 0.421335 -0.045151 2.221562
v 0.430745 0.066186 2.237858
v 0.000000 -0.045151 2.334458
v 0.000000 0.066186 2.353276
v -0.421335 -0.045151 2.221562
v -0.430745 0.066186 2.237858
v -0.729773 -0.045151 1.913123
v -0.746072 0.066186 1.922531
v -0.842670 -0.045151 1.491789
v -0.861490 0.066186 1.491786
v -0.729774 -0.045151 1.070454
v -0.746073 0.066186 1.061041
v -0.421335 -0.045151 0.762015
v -0.430746 0.066186 0.745713
v -0.000000 -0.129488 0.698618
v 0.396572 -0.129488 0.804879
v 0.686882 -0.129488 1.095190
v 0.793143 -0.129488 1.491762
v 0.686882 -0.129488 1.888333
v 0.396572 -0.129488 2.178643
v 0.000000 -0.129488 2.284904
v -0.396571 -0.129488 2.178643
v -0.686882 -0.129488 1.888333
v -0.793143 -0.129488 1.491762
v -0.686882 -0.129488 1.095190
v -0.396572 -0.129488 0.804880
v -0.000000 -0.208342 0.850531
v 0.320582 -0.208342 0.936431
v 0.555264 -0.208342 1.171113
v 0.641164 -0.208342 1.491695
v 0.555264 -0.208342 1.812277
v 0.320582 -0.208342 2.046959
v 0.000000 -0.208342 2.132859
v -0.320582 -0.208342 2.046959
v -0.555264 -0.208342 1.812277
v -0.641164 -0.208342 1.491696
v -0.555264 -0.208342 1.171113
v -0.320583 -0.208342 0.936431
v 0.320582 -0.251541 1.491694
v -0.320582 -0.251541 1.491693
v -0.000002 -0.251684 1.890018
v 0.000006 -0.273504 1.491694
v 0.000005 -0.252999 1.108018
v 0.000000 0.060883 0.688408
v 0.401689 0.060883 0.796040
v 0.695746 0.060883 1.090096
v 0.803378 0.060883 1.491785
v 0.695746 0.060883 1.893474
v 0.401689 0.060883 2.187531
v 0.000000 0.060883 2.295163
v -0.401689 0.060883 2.187531
v -0.695745 0.060883 1.893475
v -0.803378 0.060883 1.491786
v -0.695746 0.060883 1.090097
v -0.401689 0.060883 0.796040
v 0.000000 -0.070142 0.752820
v 0.369483 -0.070142 0.851823
v 0.639963 -0.070142 1.122303
v 0.738965 -0.070142 1.491785
v 0.639963 -0.070142 1.861268
v 0.369483 -0.070142 2.131748
v 0.000000 -0.070142 2.230751
v -0.369483 -0.070142 2.131748
v -0.639963 -0.070142 1.861268
v -0.738965 -0.070142 1.491786
v -0.639963 -0.070142 1.122303
v -0.369483 -0.070142 0.851823
v 0.000000 -0.167889 0.933963
v 0.278911 -0.167889 1.008697
v 0.483088 -0.167889 1.212874
v 0.557822 -0.167889 1.491785
v 0.483088 -0.167889 1.770697
v 0.278911 -0.167889 1.974874
v 0.000000 -0.167889 2.049608
v -0.278911 -0.167889 1.974874
v -0.483088 -0.167889 1.770697
v -0.557822 -0.167889 1.491786
v -0.483088 -0.167889 1.212875
v -0.278911 -0.167889 1.008698
v -0.060536 0.055285 0.687440
v -0.060536 0.055285 0.551274
v 0.060536 0.055285 0.687440
v 0.060536 0.055285 0.551274
v -0.060536 0.010695 0.687440
v -0.022868 -0.026973 0.687440
v -0.022868 -0.026973 0.551274
v -0.060536 0.010695 0.551274
v 0.022868 -0.026973 0.687440
v 0.060536 0.010695 0.687440
v 0.060536 0.010695 0.551274
v 0.022868 -0.026973 0.551274
v -0.072573 0.068521 0.561781
v 0.072573 0.068521 0.561781
v -0.027415 -0.036062 0.561781
v -0.072573 0.009096 0.561781
v 0.072573 0.009096 0.561781
v 0.027415 -0.036062 0.561781
v -0.072573 0.068521 -0.367309
v 0.072573 0.068521 -0.367309
v -0.072573 -0.031467 -0.367309
v -0.027415 -0.076625 -0.367309
v 0.027415 -0.076625 -0.367309
v 0.072573 -0.031467 -0.367309
v -0.057197 0.068521 -0.471354
v 0.057197 0.068521 -0.471354
v -0.057197 -0.031467 -0.471354
v -0.021606 -0.076625 -0.431794
v 0.021606 -0.076625 -0.431794
v 0.057197 -0.031467 -0.471354
v 0.072573 -0.020851 -0.149508
v 0.072573 0.068521 -0.149508
v -0.027415 -0.066009 -0.149508
v 0.027415 -0.066009 -0.149508
v -0.072573 -0.020851 -0.149508
v -0.072573 0.068521 -0.149508
v 0.072573 -0.027544 -0.178896
v -0.027415 -0.072702 -0.178896
v -0.072573 -0.027544 -0.178896
v -0.072573 0.068521 -0.253532
v 0.072573 0.068521 -0.253532
v 0.027415 -0.072702 -0.178896
vn 0.2554 -0.1612 -0.9533
vn 0.6979 -0.1612 -0.6979
vn 0.9533 -0.1612 -0.2554
vn 0.9533 -0.1611 0.2554
vn 0.6979 -0.1611 0.6979
vn 0.2554 -0.1611 0.9533
vn -0.2554 -0.1611 0.9533
vn -0.6979 -0.1611 0.6979
vn -0.9533 -0.1611 0.2554
vn -0.9533 -0.1612 -0.2554
vn -0.6979 -0.1612 -0.6979
vn -0.2554 -0.1612 -0.9533
vn -0.8402 -0.4933 -0.2251
vn -0.4571 -0.8809 -0.1225
vn -0.8401 -0.4934 0.2251
vn -0.6150 -0.4935 0.6150
vn -0.2251 -0.4936 0.8401
vn 0.2251 -0.4936 0.8401
vn 0.6150 -0.4935 0.6150
vn 0.8401 -0.4934 0.2251
vn -0.2252 -0.4932 -0.8403
vn 0.2252 -0.4932 -0.8403
vn 0.8402 -0.4933 -0.2251
vn -0.6151 -0.4932 -0.6151
vn 0.6151 -0.4932 -0.6151
vn -0.0457 -0.9843 -0.1707
vn -0.1224 -0.8810 0.4569
vn 0.4570 -0.8810 0.1225
vn -0.3347 -0.8809 -0.3347
vn 0.1225 -0.8809 -0.4572
vn -0.3345 -0.8810 0.3345
vn 0.3345 -0.8810 0.3345
vn -0.1225 -0.8809 -0.4572
vn 0.3347 -0.8809 -0.3347
vn -0.4570 -0.8810 0.1225
vn 0.1224 -0.8810 0.4569
vn 0.4571 -0.8809 -0.1225
vn -0.1022 -0.9930 -0.0590
vn -0.0470 -0.9834 0.1755
vn 0.1022 -0.9930 0.0590
vn 0.0847 -0.9941 0.0678
vn 0.0852 -0.9941 -0.0674
vn -0.1022 -0.9930 0.0590
vn 0.1022 -0.9930 -0.0590
vn -0.0847 -0.9941 0.0678
vn 0.0457 -0.9843 -0.1707
vn 0.0470 -0.9834 0.1755
vn -0.0852 -0.9941 -0.0674
vn -0.0908 0.9956 -0.0243
vn 0.0243 0.9956 0.0908
vn -0.0243 0.9956 0.0908
vn -0.0908 0.9956 0.0243
vn 0.0665 0.9956 0.0665
vn -0.0665 0.9956 0.0665
vn 0.0908 0.9956 0.0243
vn 0.0908 0.9956 -0.0243
vn 0.0665 0.9956 -0.0665
vn 0.0243 0.9956 -0.0908
vn -0.0243 0.9956 -0.0908
vn -0.0665 0.9956 -0.0665
vn -0.8725 0.4289 -0.2338
vn 0.6388 0.4289 0.6387
vn -0.2338 0.4289 0.8725
vn 0.6388 0.4289 -0.6388
vn -0.6388 0.4289 -0.6388
vn 0.2338 0.4289 0.8725
vn -0.6387 0.4289 0.6388
vn 0.8725 0.4289 -0.2338
vn -0.2338 0.4289 -0.8725
vn -0.8725 0.4289 0.2338
vn 0.8725 0.4289 0.2338
vn 0.2338 0.4289 -0.8725
vn 0.1262 0.8730 -0.4711
vn -0.4711 0.8730 -0.1262
vn 0.3449 0.8730 0.3449
vn -0.1262 0.8730 0.4711
vn 0.3449 0.8730 -0.3449
vn -0.3449 0.8730 -0.3449
vn 0.1262 0.8730 0.4711
vn -0.3449 0.8730 0.3449
vn 0.4711 0.8730 -0.1262
vn -0.1262 0.8730 -0.4711
vn -0.4711 0.8730 0.1262
vn 0.4711 0.8730 0.1262
vn 0.0000 1.0000 0.0000
vn 1.0000 0.0000 0.0000
vn 0.0000 0.0000 -1.0000
vn -1.0000 0.0000 0.0000
vn -0.7071 -0.7071 0.0000
vn 0.7071 -0.7071 0.0000
vn 0.0000 -1.0000 0.0000
vn 0.0000 0.0000 1.0000
vn 0.0000 -0.9998 0.0208
vn -0.7070 -0.7070 0.0147
vn 0.7070 -0.7070 0.0147
vn 0.0000 -0.6589 -0.7522
vn -0.7223 -0.6856 -0.0908
vn -0.9893 0.0000 -0.1462
vn 0.7223 -0.6856 -0.0908
vn 0.9893 0.0000 -0.1462
vn 0.7068 -0.7068 0.0298
vn -0.7068 -0.7068 0.0298
vn 0.0000 -0.9991 0.0421
vn 0.6981 -0.6981 0.1590
vn -0.6981 -0.6981 0.1590
vn 0.0000 -0.9750 0.2221
usemtl Black
s off
f 1//1 2//1 4//1 3//1
f 3//2 4//2 6//2 5//2
f 5//3 6//3 8//3 7//3
f 7//4 8//4 10//4 9//4
f 9//5 10//5 12//5 11//5
f 11//6 12//6 14//6 13//6
f 13//7 14//7 16//7 15//7
f 15//8 16//8 18//8 17//8
f 17//9 18//9 20//9 19//9
f 19//10 20//10 22//10 21//10
f 21//11 22//11 24//11 23//11
f 23//12 24//12 2//12 1//12
f 19//13 21//13 35//13 34//13
f 34//14 35//14 47//14 46//14
f 17//15 19//15 34//15 33//15
f 15//16 17//16 33//16 32//16
f 13//17 15//17 32//17 31//17
f 11//18 13//18 31//18 30//18
f 9//19 11//19 30//19 29//19
f 7//20 9//20 29//20 28//20
f 23//21 1//21 25//21 36//21
f 1//22 3//22 26//22 25//22
f 5//23 7//23 28//23 27//23
f 21//24 23//24 36//24 35//24
f 3//25 5//25 27//25 26//25
f 37//26 53//26 48//26
f 31//27 32//27 44//27 43//27
f 28//28 29//28 41//28 40//28
f 35//29 36//29 48//29 47//29
f 25//30 26//30 38//30 37//30
f 32//31 33//31 45//31 44//31
f 29//32 30//32 42//32 41//32
f 36//33 25//33 37//33 48//33
f 26//34 27//34 39//34 38//34
f 33//35 34//35 46//35 45//35
f 30//36 31//36 43//36 42//36
f 27//37 28//37 40//37 39//37
f 48//38 50//38 46//38 47//38
f 44//39 51//39 43//39
f 42//40 49//40 40//40 41//40
f 42//41 51//41 52//41 49//41
f 49//42 52//42 53//42 38//42
f 46//43 50//43 44//43 45//43
f 40//44 49//44 38//44 39//44
f 52//45 51//45 44//45 50//45
f 53//46 37//46 38//46
f 43//47 51//47 42//47
f 53//48 52//48 50//48 48//48
f 10//49 8//49 57//49 58//49
f 2//50 24//50 65//50 54//50
f 4//51 2//51 54//51 55//51
f 8//52 6//52 56//52 57//52
f 24//53 22//53 64//53 65//53
f 6//54 4//54 55//54 56//54
f 22//55 20//55 63//55 64//55
f 20//56 18//56 62//56 63//56
f 18//57 16//57 61//57 62//57
f 16//58 14//58 60//58 61//58
f 14//59 12//59 59//59 60//59
f 12//60 10//60 58//60 59//60
f 58//61 57//61 69//61 70//61
f 65//62 64//62 76//62 77//62
f 55//63 54//63 66//63 67//63
f 62//64 61//64 73//64 74//64
f 59//65 58//65 70//65 71//65
f 54//66 65//66 77//66 66//66
f 56//67 55//67 67//67 68//67
f 63//68 62//68 74//68 75//68
f 60//69 59//69 71//69 72//69
f 57//70 56//70 68//70 69//70
f 64//71 63//71 75//71 76//71
f 61//72 60//72 72//72 73//72
f 73//73 72//73 84//73 85//73
f 70//74 69//74 81//74 82//74
f 77//75 76//75 88//75 89//75
f 67//76 66//76 78//76 79//76
f 74//77 73//77 85//77 86//77
f 71//78 70//78 82//78 83//78
f 66//79 77//79 89//79 78//79
f 68//80 67//80 79//80 80//80
f 75//81 74//81 86//81 87//81
f 72//82 71//82 83//82 84//82
f 69//83 68//83 80//83 81//83
f 76//84 75//84 87//84 88//84
f 79//85 78//85 89//85 88//85 87//85 86//85 85//85 84//85 83//85 82//85 81//85 80//85
usemtl Grey
f 100//86 93//86 92//86 99//86
f 96//87 97//87 91//87 93//87 100//87 101//87
f 94//88 90//88 91//88 97//88
f 93//85 91//85 90//85 92//85
f 96//89 95//89 94//89 97//89
f 98//90 101//90 100//90 99//90
f 96//91 101//91 98//91 95//91
usemtl DarkWood
f 104//92 107//92 106//92 103//92 102//92 105//92
f 112//91 111//91 117//91 118//91
f 130//86 126//86 113//86 109//86
f 131//93 127//93 111//93 112//93
f 127//94 128//94 110//94 111//94
f 128//88 129//88 108//88 110//88
f 126//95 131//95 112//95 113//95
f 129//85 130//85 109//85 108//85
f 117//96 116//96 119//96 118//96
f 111//97 110//97 116//97 117//97
f 110//98 108//98 114//98 116//98
f 113//99 112//99 118//99 119//99
f 108//85 109//85 115//85 114//85
f 109//100 113//100 119//100 115//100
f 119//87 116//87 114//87 115//87
f 102//85 103//85 121//85 125//85
f 106//101 107//101 123//101 120//101
f 105//88 102//88 125//88 124//88
f 104//102 105//102 124//102 122//102
f 107//103 104//103 122//103 123//103
f 103//86 106//86 120//86 121//86
f 125//85 121//85 130//85 129//85
f 120//104 123//104 131//104 126//104
f 124//88 125//88 129//88 128//88
f 122//105 124//105 128//105 127//105
f 123//106 122//106 127//106 131//106
f 121//86 120//86 126//86 130//86
