# Blender v2.79 (sub 0) OBJ File: 'Raft_Paddle.blend'
# www.blender.org
mtllib Raft_Paddle.mtl
o Raft_Paddle_Cylinder.024
v -0.000000 -0.139602 3.042170
v -0.000000 -0.139603 -5.433962
v 0.098714 -0.098714 3.042170
v 0.098714 -0.098714 -5.433962
v 0.139602 0.000000 3.042170
v 0.139602 -0.000000 -5.433962
v 0.098714 0.098714 3.042170
v 0.098714 0.098714 -5.433962
v -0.000000 0.139603 3.042170
v -0.000000 0.139602 -5.433962
v -0.098714 0.098714 3.042170
v -0.098714 0.098714 -5.433962
v -0.139602 0.000000 3.042170
v -0.139602 -0.000000 -5.433962
v -0.098714 -0.098714 3.042170
v -0.098714 -0.098714 -5.433962
v -0.109421 -0.000000 -5.528427
v 0.000001 0.109421 -5.784329
v 0.109422 -0.000000 -5.528427
v 0.000001 -0.109422 -5.528427
v 0.000001 0.109421 -5.528427
v 0.000001 -0.000000 -5.888455
v 0.430268 0.109421 -5.666086
v -0.430266 -0.109422 -5.666086
v 0.000001 -0.109422 -5.784329
v -0.522410 -0.000000 -5.614905
v 0.522411 -0.000000 -5.614905
v -0.430266 -0.000000 -5.561960
v -0.430266 -0.000000 -5.770211
v 0.430268 -0.109422 -5.666086
v -0.430266 0.109421 -5.666086
v 0.430268 -0.000000 -5.561960
v 0.430268 -0.000000 -5.770211
v -0.223772 0.109421 -5.750798
v -0.223772 -0.000000 -5.854923
v -0.223772 -0.000000 -5.646672
v -0.223772 -0.109422 -5.750798
v 0.223773 -0.000000 -5.854923
v 0.223773 -0.000000 -5.646672
v 0.223773 -0.109422 -5.750798
v 0.223773 0.109421 -5.750798
v -0.082066 -0.082066 -5.528427
v -0.109421 -0.000000 -5.376649
v -0.082066 0.082066 -5.528427
v -0.138009 -0.000000 -5.633877
v 0.000001 -0.109422 -5.668292
v 0.000001 0.109421 -5.668292
v 0.138010 -0.000000 -5.633877
v 0.082067 -0.082066 -5.528427
v 0.082067 0.082066 -5.528427
v 0.109422 -0.000000 -5.376649
v 0.000001 -0.109422 -5.376649
v 0.000001 0.109421 -5.376649
v -0.110653 -0.000000 -5.880073
v 0.000001 -0.082066 -5.862424
v 0.000001 0.082066 -5.862424
v 0.110654 -0.000000 -5.880073
v 0.110654 0.109421 -5.775947
v -0.110653 0.109421 -5.775947
v -0.110653 -0.109422 -5.775947
v 0.110654 -0.109422 -5.775947
v -0.499374 -0.000000 -5.549607
v 0.499375 -0.000000 -5.549607
v -0.499374 -0.000000 -5.705795
v 0.499375 -0.000000 -5.705795
v 0.499375 0.082066 -5.627701
v -0.499374 0.082066 -5.627701
v -0.499374 -0.082066 -5.627701
v 0.499375 -0.082066 -5.627701
v -0.430266 -0.082066 -5.587992
v -0.223772 -0.082066 -5.828892
v 0.430268 0.082066 -5.587992
v 0.223773 0.082066 -5.828892
v -0.430266 0.082066 -5.587992
v -0.223772 0.082066 -5.828892
v 0.430268 -0.082066 -5.744180
v 0.223773 -0.082066 -5.672704
v -0.223772 -0.082066 -5.672704
v -0.430266 -0.082066 -5.744180
v -0.223772 0.082066 -5.672704
v -0.430266 0.082066 -5.744180
v -0.332571 0.109421 -5.712854
v -0.332571 -0.000000 -5.816979
v -0.332571 -0.000000 -5.608728
v -0.332571 -0.109422 -5.712854
v 0.223773 0.082066 -5.672704
v 0.430268 0.082066 -5.744180
v 0.223773 -0.082066 -5.828892
v 0.430268 -0.082066 -5.587992
v 0.332572 -0.000000 -5.816979
v 0.332572 -0.000000 -5.608728
v 0.332572 -0.109422 -5.712854
v 0.332572 0.109421 -5.712854
v -0.082066 -0.082066 -5.376649
v -0.082066 0.082066 -5.376649
v -0.110210 -0.091914 -5.667215
v -0.110210 0.091914 -5.667215
v 0.082067 -0.082066 -5.376649
v 0.082067 0.082066 -5.376649
v 0.110211 -0.091914 -5.667215
v 0.110211 0.091914 -5.667215
v -0.110653 0.082066 -5.854041
v -0.110653 -0.082066 -5.854041
v 0.110654 -0.082066 -5.854041
v 0.110654 0.082066 -5.854041
v -0.481457 0.060790 -5.579805
v -0.481457 -0.060790 -5.579805
v 0.481459 0.060790 -5.579805
v 0.481459 -0.060790 -5.579805
v -0.481457 0.060790 -5.695500
v -0.481457 -0.060790 -5.695500
v 0.481459 0.060790 -5.695500
v 0.481459 -0.060790 -5.695500
v -0.332571 -0.082066 -5.634760
v -0.332571 -0.082066 -5.790948
v -0.332571 0.082066 -5.634760
v -0.332571 0.082066 -5.790948
v 0.332572 0.082066 -5.634760
v 0.332572 0.082066 -5.790948
v 0.332572 -0.082066 -5.790948
v 0.332572 -0.082066 -5.634760
v -0.131765 -0.066219 4.711893
v -0.131765 0.066220 4.711893
v -0.152027 -0.152027 2.890143
v -0.152027 0.152027 2.890143
v 0.131765 -0.066219 4.711893
v 0.131765 0.066220 4.711893
v 0.152027 -0.152027 2.890143
v 0.152027 0.152027 2.890143
v -0.637090 -0.066219 5.175633
v -0.637090 0.066220 5.175633
v 0.637090 0.066220 5.175633
v 0.637090 -0.066219 5.175633
v -0.835546 -0.066219 8.563131
v -0.835546 0.066220 8.563131
v 0.835546 0.066220 8.563131
v 0.835546 -0.066219 8.563131
v -0.589278 -0.066219 8.963804
v -0.589278 0.066220 8.963804
v 0.589278 0.066220 8.963804
v 0.589278 -0.066219 8.963804
vn -0.9487 -0.3162 -0.0000
vn -0.9487 0.3162 0.0000
vn -0.9153 0.3335 0.2260
vn -0.9153 -0.3335 0.2260
vn -0.0755 0.9941 0.0776
vn 0.0755 0.9941 0.0776
vn 0.0250 0.9435 -0.3305
vn -0.0250 0.9435 -0.3305
vn 0.9153 -0.3335 0.2260
vn 0.9153 0.3335 0.2260
vn 0.9487 0.3162 0.0000
vn 0.9487 -0.3162 -0.0000
vn -0.2265 -0.9723 0.0572
vn 0.2265 -0.9723 0.0572
vn 0.3162 -0.9487 -0.0000
vn -0.3162 -0.9487 -0.0000
vn 0.2265 0.9723 0.0572
vn -0.2265 0.9723 0.0572
vn -0.3162 0.9487 0.0000
vn 0.3162 0.9487 0.0000
vn -0.0720 -0.3016 -0.9507
vn -0.0720 0.3016 -0.9507
vn 0.0720 0.3016 -0.9507
vn 0.0720 -0.3016 -0.9507
vn 0.1563 0.9322 -0.3265
vn -0.1563 0.9322 0.3265
vn 0.2173 0.8998 0.3782
vn 0.5468 0.7718 -0.3244
vn -0.1563 -0.9322 -0.3265
vn 0.1563 -0.9322 0.3265
vn -0.2173 -0.8998 0.3782
vn -0.5468 -0.7718 -0.3244
vn 0.0755 -0.9941 0.0776
vn -0.0755 -0.9941 0.0776
vn -0.0250 -0.9435 -0.3305
vn 0.0250 -0.9435 -0.3305
vn -0.8544 -0.3582 0.3764
vn -0.8544 0.3582 0.3764
vn -0.9258 0.2606 -0.2739
vn -0.9258 -0.2606 -0.2739
vn 0.8544 0.3582 0.3764
vn 0.8544 -0.3582 0.3764
vn 0.9258 -0.2606 -0.2739
vn 0.9258 0.2606 -0.2739
vn 0.4151 -0.2751 0.8672
vn 0.4151 0.2751 0.8672
vn 0.0962 0.3541 0.9302
vn 0.0962 -0.3541 0.9302
vn -0.4151 0.2751 -0.8672
vn -0.4151 -0.2751 -0.8672
vn -0.6855 -0.2590 -0.6804
vn -0.6855 0.2590 -0.6804
vn -0.1563 -0.9322 0.3265
vn 0.1563 -0.9322 -0.3265
vn 0.5468 -0.7718 -0.3244
vn 0.2173 -0.8998 0.3782
vn 0.1563 0.9322 0.3265
vn -0.1563 0.9322 -0.3265
vn -0.5468 0.7718 -0.3244
vn -0.2173 0.8998 0.3782
vn -0.4151 0.2751 0.8672
vn -0.4151 -0.2751 0.8672
vn -0.0962 -0.3541 0.9302
vn -0.0962 0.3541 0.9302
vn 0.4151 -0.2751 -0.8672
vn 0.4151 0.2751 -0.8672
vn 0.6855 0.2590 -0.6804
vn 0.6855 -0.2590 -0.6804
vn -0.0220 0.9721 0.2335
vn -0.0733 0.9412 -0.3297
vn -0.1145 0.9376 -0.3284
vn 0.1145 0.9376 0.3284
vn -0.2073 0.2958 -0.9325
vn -0.2073 -0.2958 -0.9325
vn -0.3155 -0.2869 -0.9045
vn -0.3155 0.2869 -0.9045
vn -0.1025 -0.3359 0.9363
vn -0.1025 0.3359 0.9363
vn 0.3155 0.2869 0.9045
vn 0.3155 -0.2869 0.9045
vn -0.0733 -0.9412 -0.3297
vn -0.0220 -0.9721 0.2335
vn 0.1145 -0.9376 0.3284
vn -0.1145 -0.9376 -0.3284
vn 0.2073 -0.2958 -0.9325
vn 0.2073 0.2958 -0.9325
vn 0.3155 0.2869 -0.9045
vn 0.3155 -0.2869 -0.9045
vn 0.1025 0.3359 0.9363
vn 0.1025 -0.3359 0.9363
vn -0.3155 -0.2869 0.9045
vn -0.3155 0.2869 0.9045
vn 0.0220 -0.9721 0.2335
vn 0.0733 -0.9412 -0.3297
vn 0.1145 -0.9376 -0.3284
vn -0.1145 -0.9376 0.3284
vn 0.0733 0.9412 -0.3297
vn 0.0220 0.9721 0.2335
vn -0.1145 0.9376 0.3284
vn 0.1145 0.9376 -0.3284
vn -0.9999 0.0000 0.0111
vn 0.0000 0.0000 -1.0000
vn 0.9999 0.0000 0.0111
vn 0.0000 1.0000 0.0000
vn 0.0000 -0.9989 0.0470
vn 0.0000 0.9989 0.0470
vn 0.6761 0.0000 -0.7368
vn -0.6761 0.0000 -0.7368
vn 0.0000 -1.0000 0.0000
vn 0.9983 0.0000 -0.0585
vn -0.9983 0.0000 -0.0585
vn 0.0000 0.0000 1.0000
vn -0.8519 0.0000 0.5236
vn 0.8519 0.0000 0.5236
vn 0.3827 -0.9239 0.0000
vn 0.9239 -0.3827 0.0000
vn 0.9239 0.3827 -0.0000
vn 0.3827 0.9239 -0.0000
vn -0.3827 0.9239 -0.0000
vn -0.9239 0.3827 -0.0000
vn -0.9239 -0.3827 0.0000
vn -0.3827 -0.9239 0.0000
usemtl BrightYellow
s off
f 17//1 42//1 94//1 43//1
f 17//2 43//2 95//2 44//2
f 17//3 44//3 97//3 45//3
f 17//4 45//4 96//4 42//4
f 18//5 59//5 97//5 47//5
f 18//6 47//6 101//6 58//6
f 18//7 58//7 105//7 56//7
f 18//8 56//8 102//8 59//8
f 19//9 49//9 100//9 48//9
f 19//10 48//10 101//10 50//10
f 19//11 50//11 99//11 51//11
f 19//12 51//12 98//12 49//12
f 20//13 42//13 96//13 46//13
f 20//14 46//14 100//14 49//14
f 20//15 49//15 98//15 52//15
f 20//16 52//16 94//16 42//16
f 21//17 50//17 101//17 47//17
f 21//18 47//18 97//18 44//18
f 21//19 44//19 95//19 53//19
f 21//20 53//20 99//20 50//20
f 22//21 55//21 103//21 54//21
f 22//22 54//22 102//22 56//22
f 22//23 56//23 105//23 57//23
f 22//24 57//24 104//24 55//24
f 23//25 87//25 119//25 93//25
f 23//26 93//26 118//26 72//26
f 23//27 72//27 108//27 66//27
f 23//28 66//28 112//28 87//28
f 24//29 79//29 115//29 85//29
f 24//30 85//30 114//30 70//30
f 24//31 70//31 107//31 68//31
f 24//32 68//32 111//32 79//32
f 25//33 61//33 100//33 46//33
f 25//34 46//34 96//34 60//34
f 25//35 60//35 103//35 55//35
f 25//36 55//36 104//36 61//36
f 26//37 68//37 107//37 62//37
f 26//38 62//38 106//38 67//38
f 26//39 67//39 110//39 64//39
f 26//40 64//40 111//40 68//40
f 27//41 66//41 108//41 63//41
f 27//42 63//42 109//42 69//42
f 27//43 69//43 113//43 65//43
f 27//44 65//44 112//44 66//44
f 28//45 70//45 114//45 84//45
f 28//46 84//46 116//46 74//46
f 28//47 74//47 106//47 62//47
f 28//48 62//48 107//48 70//48
f 29//49 81//49 117//49 83//49
f 29//50 83//50 115//50 79//50
f 29//51 79//51 111//51 64//51
f 29//52 64//52 110//52 81//52
f 30//53 89//53 121//53 92//53
f 30//54 92//54 120//54 76//54
f 30//55 76//55 113//55 69//55
f 30//56 69//56 109//56 89//56
f 31//57 74//57 116//57 82//57
f 31//58 82//58 117//58 81//58
f 31//59 81//59 110//59 67//59
f 31//60 67//60 106//60 74//60
f 32//61 72//61 118//61 91//61
f 32//62 91//62 121//62 89//62
f 32//63 89//63 109//63 63//63
f 32//64 63//64 108//64 72//64
f 33//65 76//65 120//65 90//65
f 33//66 90//66 119//66 87//66
f 33//67 87//67 112//67 65//67
f 33//68 65//68 113//68 76//68
f 34//69 80//69 97//69 59//69
f 34//70 59//70 102//70 75//70
f 34//71 75//71 117//71 82//71
f 34//72 82//72 116//72 80//72
f 35//73 75//73 102//73 54//73
f 35//74 54//74 103//74 71//74
f 35//75 71//75 115//75 83//75
f 35//76 83//76 117//76 75//76
f 36//77 78//77 96//77 45//77
f 36//78 45//78 97//78 80//78
f 36//79 80//79 116//79 84//79
f 36//80 84//80 114//80 78//80
f 37//81 71//81 103//81 60//81
f 37//82 60//82 96//82 78//82
f 37//83 78//83 114//83 85//83
f 37//84 85//84 115//84 71//84
f 38//85 88//85 104//85 57//85
f 38//86 57//86 105//86 73//86
f 38//87 73//87 119//87 90//87
f 38//88 90//88 120//88 88//88
f 39//89 86//89 101//89 48//89
f 39//90 48//90 100//90 77//90
f 39//91 77//91 121//91 91//91
f 39//92 91//92 118//92 86//92
f 40//93 77//93 100//93 61//93
f 40//94 61//94 104//94 88//94
f 40//95 88//95 120//95 92//95
f 40//96 92//96 121//96 77//96
f 41//97 73//97 105//97 58//97
f 41//98 58//98 101//98 86//98
f 41//99 86//99 118//99 93//99
f 41//100 93//100 119//100 73//100
f 122//101 123//101 125//101 124//101
f 124//102 125//102 129//102 128//102
f 128//103 129//103 127//103 126//103
f 127//104 123//104 131//104 132//104
f 124//105 128//105 126//105 122//105
f 129//106 125//106 123//106 127//106
f 132//104 131//104 135//104 136//104
f 126//107 127//107 132//107 133//107
f 123//108 122//108 130//108 131//108
f 122//109 126//109 133//109 130//109
f 134//109 137//109 141//109 138//109
f 133//110 132//110 136//110 137//110
f 130//109 133//109 137//109 134//109
f 131//111 130//111 134//111 135//111
f 141//112 140//112 139//112 138//112
f 135//113 134//113 138//113 139//113
f 136//104 135//104 139//104 140//104
f 137//114 136//114 140//114 141//114
usemtl Blue
f 1//115 2//115 4//115 3//115
f 3//116 4//116 6//116 5//116
f 5//117 6//117 8//117 7//117
f 7//118 8//118 10//118 9//118
f 9//119 10//119 12//119 11//119
f 11//120 12//120 14//120 13//120
f 4//102 2//102 16//102 14//102 12//102 10//102 8//102 6//102
f 13//121 14//121 16//121 15//121
f 15//122 16//122 2//122 1//122
f 1//112 3//112 5//112 7//112 9//112 11//112 13//112 15//112
