# Blender v2.79 (sub 0) OBJ File: 'Shovel.blend'
# www.blender.org
mtllib Shovel.mtl
o Shovel_Cylinder.018
v 0.073016 -0.419435 0.050338
v 0.073016 1.056097 0.050337
v 0.000947 -0.419435 0.070407
v 0.000947 1.056097 0.070407
v 0.086126 1.067894 0.052634
v 0.001019 1.067894 0.078630
v 0.075338 1.177977 0.047078
v 0.000942 1.177977 0.069802
v 0.255756 1.480283 0.055448
v 0.255756 1.707897 0.055447
v 0.256503 1.770882 0.055441
v 0.001210 1.255131 0.100357
v 0.080711 1.255131 0.090293
v 0.215217 1.490092 0.089110
v 0.215217 1.707897 0.089110
v 0.216016 1.770882 0.089103
v 0.000403 1.307176 0.008486
v 0.072269 -0.419435 -0.034634
v 0.072268 1.056097 -0.034634
v -0.000142 -0.419435 -0.053433
v -0.000142 1.056097 -0.053433
v 0.085337 1.067894 -0.037161
v -0.000214 1.067894 -0.061656
v 0.074648 1.177977 -0.031417
v -0.000136 1.177977 -0.052829
v 0.254891 1.480283 -0.042957
v 0.254891 1.707897 -0.042957
v 0.255638 1.770882 -0.042964
v -0.000405 1.255130 -0.083384
v 0.079261 1.255131 -0.074719
v 0.213766 1.490092 -0.075902
v 0.213766 1.707897 -0.075902
v 0.214565 1.770882 -0.075909
v 0.065476 1.307177 0.007914
v 0.174398 1.497447 0.006957
v 0.174398 1.687391 0.006956
v 0.175112 1.790363 0.006950
v 0.072078 -0.420312 0.007857
v 0.072078 1.056737 0.007857
v 0.087186 1.068478 0.007724
v 0.076264 1.174289 0.007820
v 0.271206 1.495675 0.006106
v 0.271206 1.707897 0.006105
v 0.265445 1.790363 0.006156
v 0.091591 -0.433909 0.007685
v 0.092797 -0.432779 0.062333
v 0.001103 -0.432779 0.088141
v 0.091836 -0.432779 -0.046975
v -0.000298 -0.432779 -0.071167
v 0.069559 -0.817881 0.007880
v 0.070474 -0.817025 0.049312
v 0.000934 -0.817025 0.068879
v 0.069745 -0.817025 -0.033562
v -0.000128 -0.817025 -0.051904
v 0.087069 -1.077833 -0.019274
v 0.068633 -1.076760 0.008106
v 0.001063 -1.076760 0.032625
v 0.087301 -1.076760 -0.044800
v -0.000268 -1.076760 -0.067783
v 0.165777 -1.313634 -0.019274
v 0.000398 -1.313634 0.020483
v 0.175936 -1.312561 -0.044800
v -0.000268 -1.312561 -0.067783
v 0.399739 -1.077833 0.037043
v 0.399942 -1.313634 0.037041
v 0.402580 -1.076760 0.011494
v 0.402783 -1.312561 0.011492
v 0.199674 -1.728540 0.023162
v 0.206059 -1.727795 0.017623
v 0.000367 -1.735878 0.004426
v 0.352739 -1.726722 0.060139
v 0.355177 -1.725977 0.034594
v 0.253628 -1.949663 0.067961
v 0.248894 -1.948590 0.041919
v 0.000538 -2.082219 0.038179
v 0.003718 -1.736622 0.033710
v 0.001204 -2.083292 0.073169
v -0.071463 -0.419435 0.051608
v -0.071463 1.056097 0.051608
v -0.084531 1.067894 0.054135
v -0.073842 1.177977 0.048390
v -0.254085 1.480283 0.059930
v -0.254085 1.707897 0.059930
v -0.254832 1.770882 0.059937
v -0.078455 1.255131 0.091692
v -0.212961 1.490092 0.092875
v -0.212961 1.707897 0.092875
v -0.213760 1.770882 0.092881
v -0.072210 -0.419435 -0.033363
v -0.072210 1.056097 -0.033364
v -0.085321 1.067894 -0.035661
v -0.074533 1.177977 -0.030105
v -0.254950 1.480283 -0.038475
v -0.254951 1.707897 -0.038475
v -0.255697 1.770882 -0.038468
v -0.079906 1.255131 -0.073320
v -0.214412 1.490092 -0.072137
v -0.214412 1.707897 -0.072137
v -0.215211 1.770882 -0.072130
v -0.064671 1.307177 0.009059
v -0.173593 1.497447 0.010016
v -0.173593 1.687391 0.010016
v -0.174307 1.790363 0.010022
v -0.071273 -0.420312 0.009117
v -0.071273 1.056737 0.009117
v -0.086381 1.068478 0.009250
v -0.075459 1.174289 0.009154
v -0.270401 1.495675 0.010867
v -0.270401 1.707897 0.010867
v -0.264640 1.790363 0.010817
v -0.090785 -0.433909 0.009289
v -0.091030 -0.432779 0.063949
v -0.091992 -0.432779 -0.045359
v -0.068754 -0.817881 0.009096
v -0.068940 -0.817025 0.050538
v -0.069669 -0.817025 -0.032336
v -0.086274 -1.077833 -0.017750
v -0.066925 -1.076760 0.009642
v -0.087420 -1.076760 -0.043264
v -0.168703 -1.313634 -0.017749
v -0.176407 -1.312561 -0.043263
v -0.397906 -1.077833 0.044056
v -0.398109 -1.313634 0.044058
v -0.401660 -1.076760 0.018565
v -0.401862 -1.312561 0.018567
v -0.190118 -1.728540 0.024939
v -0.204313 -1.727796 0.019413
v -0.350506 -1.726722 0.066322
v -0.353857 -1.725977 0.040828
v -0.245366 -1.949663 0.052043
v -0.253728 -1.948590 0.025885
v 0.023247 0.537487 0.037608
v -0.035256 0.537487 0.053900
v 0.022486 0.537590 0.003124
v 0.022640 0.537487 -0.031368
v -0.036139 0.537487 -0.046629
v -0.094035 0.537487 0.038640
v -0.093881 0.537590 0.004147
v -0.094642 0.537487 -0.030337
v 0.082642 -0.139604 0.048346
v 0.018927 -0.128617 0.066493
v 0.081800 -0.139079 0.010214
v 0.082143 -0.137678 -0.027905
v 0.018200 -0.125808 -0.044638
v -0.045016 -0.116748 0.049760
v -0.044862 -0.116401 0.011616
v -0.045515 -0.114821 -0.026491
v 0.003250 -1.525128 -0.000326
v 0.194512 -1.521087 -0.005321
v 0.396534 -1.520178 0.051304
v 0.398944 -1.519269 0.025726
v -0.000398 -1.524220 -0.031738
v 0.200448 -1.520178 -0.012959
v -0.186738 -1.521087 -0.005002
v -0.393732 -1.520178 0.052580
v -0.397840 -1.519269 0.027012
v -0.201036 -1.520178 -0.012637
v -0.043783 -1.313634 0.005698
v 0.039872 -1.313634 0.006831
v 0.087069 -1.308991 -0.021520
v -0.086274 -1.307252 -0.019996
vn 0.9952 -0.0949 -0.0229
vn 0.2679 -0.0493 0.9622
vn 0.9954 -0.0952 0.0054
vn 0.2512 -0.0301 -0.9675
vn -0.9990 0.0436 -0.0041
vn -0.2513 -0.0133 0.9678
vn -0.9988 0.0433 0.0216
vn -0.2683 0.0060 -0.9633
vn -0.2733 -0.0258 -0.9616
vn -0.9970 -0.0748 0.0179
vn -0.2525 -0.0024 0.9676
vn -0.9972 -0.0748 -0.0047
vn 0.2538 0.0176 -0.9671
vn 0.9961 0.0876 0.0084
vn 0.2743 0.0399 0.9608
vn 0.9960 0.0871 -0.0212
vn 0.9992 -0.0344 -0.0219
vn 0.2707 -0.0031 0.9627
vn 0.9994 -0.0349 0.0056
vn 0.2533 0.0137 -0.9673
vn -0.9962 0.0868 -0.0048
vn -0.2498 0.0281 0.9679
vn -0.9960 0.0866 0.0223
vn -0.2672 0.0453 -0.9626
vn 0.5717 0.8202 0.0195
vn 0.2706 -0.0483 0.9615
vn 0.9984 -0.0573 0.0033
vn 0.5713 0.8202 -0.0296
vn 0.1561 0.7866 -0.5974
vn 0.1665 0.7866 0.5945
vn 0.3030 -0.1415 0.9424
vn 0.9977 0.0667 0.0082
vn 0.2536 -0.0483 -0.9661
vn 0.9981 -0.0573 -0.0208
vn -0.0074 0.9991 0.0415
vn 0.2534 0.0589 -0.9656
vn 0.9691 -0.0033 0.2468
vn 0.9754 -0.2030 0.0859
vn 0.1716 0.0322 -0.9846
vn 0.3355 -0.0475 0.9408
vn 0.2032 0.0383 -0.9784
vn 0.6480 -0.0455 0.7603
vn 0.9939 0.0009 0.1105
vn 0.0350 0.1480 0.9884
vn -0.2016 -0.0337 0.9789
vn 0.0672 -0.0966 -0.9931
vn -0.2541 0.1103 0.9609
vn 0.1580 -0.1080 -0.9815
vn 0.0821 -0.1555 -0.9844
vn 0.1137 -0.0868 -0.9897
vn -0.0113 0.1458 0.9893
vn 0.9061 -0.4196 -0.0551
vn -0.2341 0.1378 0.9624
vn 0.4694 -0.8800 -0.0725
vn -0.5713 0.8202 0.0296
vn -0.2536 -0.0483 0.9661
vn -0.9981 -0.0573 0.0208
vn -0.5717 0.8202 -0.0195
vn -0.1666 0.7866 -0.5945
vn -0.1561 0.7866 0.5974
vn -0.2842 -0.1420 0.9482
vn -0.9973 0.0653 0.0326
vn -0.2706 -0.0483 -0.9615
vn -0.9984 -0.0573 -0.0033
vn 0.0081 0.9991 0.0412
vn -0.2704 0.0589 -0.9610
vn -0.9633 -0.0062 0.2684
vn -0.9712 -0.1959 0.1355
vn -0.1830 0.0345 -0.9825
vn -0.3187 -0.0473 0.9467
vn -0.2231 0.0422 -0.9739
vn 0.0280 -0.0098 0.9996
vn -0.9893 0.0009 0.1457
vn -0.0298 0.1511 0.9881
vn 0.2226 -0.0390 0.9741
vn -0.0270 -0.0684 -0.9973
vn 0.2589 0.1260 0.9577
vn -0.1732 -0.1252 -0.9769
vn -0.0875 -0.1595 -0.9833
vn -0.1417 0.0027 -0.9899
vn -0.0290 0.1193 0.9924
vn -0.8876 -0.4212 0.1865
vn 0.2500 0.0560 0.9666
vn -0.4724 -0.8805 0.0389
vn -0.1153 -0.1493 -0.9820
vn -0.2331 -0.0798 -0.9692
vn 0.2637 0.0408 0.9637
vn -0.5277 -0.1412 0.8376
vn -0.9883 -0.0139 0.1516
vn 0.1104 -0.1526 -0.9821
vn 0.2171 -0.0972 -0.9713
vn -0.2504 0.0506 0.9668
vn 0.5198 -0.1186 0.8460
vn 0.9948 -0.0104 0.1018
vn -0.0291 -0.0097 0.9995
vn -0.3158 -0.0971 0.9438
vn -0.6529 -0.0424 0.7563
vn 0.3256 -0.0882 0.9414
vn -0.0095 0.0744 0.9972
vn 0.0103 0.0814 0.9966
vn 0.2428 -0.5050 0.8283
vn 0.2913 0.0767 0.9536
vn 0.1882 -0.4292 0.8834
vn 0.6388 0.0000 0.7693
vn 0.6391 -0.0078 0.7691
vn -0.8956 0.0000 0.4450
vn 0.0375 0.8594 0.5099
vn 0.6136 -0.3690 0.6981
vn -0.7829 0.4503 0.4293
vn -0.0088 -0.0000 -1.0000
vn 0.9642 0.0333 -0.2631
vn 0.9543 0.0000 0.2988
vn 0.8529 -0.5143 0.0897
vn 0.9947 0.1005 0.0198
vn 0.6410 -0.7675 -0.0098
vn 0.2282 -0.5049 -0.8324
vn 0.2745 0.0767 -0.9585
vn 0.1726 -0.4292 -0.8866
vn 0.6252 -0.0000 -0.7805
vn 0.6254 -0.0078 -0.7802
vn -0.9032 -0.0000 -0.4291
vn 0.0285 0.8594 -0.5105
vn 0.6012 -0.3690 -0.7088
vn -0.7903 0.4503 -0.4155
vn 0.0088 0.0000 1.0000
vn 0.9489 -0.0000 -0.3156
vn 0.8512 -0.5143 -0.1047
vn 0.9942 0.1005 -0.0373
vn 0.6410 -0.7675 -0.0014
vn -0.2282 -0.5049 0.8324
vn -0.2745 0.0767 0.9585
vn -0.1726 -0.4292 0.8866
vn -0.6252 0.0000 0.7805
vn -0.6254 -0.0078 0.7802
vn 0.9032 -0.0000 0.4291
vn -0.0285 0.8594 0.5105
vn -0.6012 -0.3690 0.7088
vn 0.7903 0.4503 0.4155
vn -0.0021 -0.9705 -0.2412
vn -0.9687 0.0333 -0.2462
vn -0.9489 0.0000 0.3156
vn -0.8512 -0.5143 0.1047
vn -0.9942 0.1005 0.0373
vn -0.6410 -0.7675 0.0014
vn -0.2428 -0.5049 -0.8283
vn -0.2913 0.0767 -0.9536
vn -0.1882 -0.4292 -0.8834
vn -0.6388 -0.0000 -0.7693
vn -0.6391 -0.0078 -0.7691
vn 0.8955 -0.0000 -0.4450
vn -0.0375 0.8594 -0.5099
vn -0.6136 -0.3690 -0.6981
vn 0.7829 0.4503 -0.4293
vn 0.0021 -0.9705 0.2412
vn 0.9687 0.0333 0.2462
vn -0.9543 -0.0000 -0.2988
vn -0.8529 -0.5143 -0.0897
vn -0.9947 0.1005 -0.0198
vn -0.6410 -0.7675 0.0099
vn -0.9642 0.0333 0.2631
vn 0.0705 0.9609 0.2677
vn -0.0658 0.9609 0.2689
vn 0.0020 0.9732 0.2298
vn 0.0658 0.9609 -0.2689
vn -0.0705 0.9609 -0.2677
vn -0.0020 0.9732 -0.2298
usemtl DarkWood
s off
f 134//1 39//1 2//1 132//1
f 132//2 2//2 4//2 133//2
f 134//3 135//3 19//3 39//3
f 135//4 136//4 21//4 19//4
f 138//5 137//5 79//5 105//5
f 137//6 133//6 4//6 79//6
f 138//7 105//7 90//7 139//7
f 139//8 90//8 21//8 136//8
f 147//9 139//9 136//9 144//9
f 146//10 138//10 139//10 147//10
f 145//11 141//11 133//11 137//11
f 146//12 145//12 137//12 138//12
f 143//13 144//13 136//13 135//13
f 142//14 143//14 135//14 134//14
f 140//15 132//15 133//15 141//15
f 142//16 134//16 132//16 140//16
f 38//17 142//17 140//17 1//17
f 1//18 140//18 141//18 3//18
f 38//19 18//19 143//19 142//19
f 18//20 20//20 144//20 143//20
f 104//21 78//21 145//21 146//21
f 78//22 3//22 141//22 145//22
f 104//23 146//23 147//23 89//23
f 89//24 147//24 144//24 20//24
usemtl Grey
f 18//25 38//25 45//25 48//25
f 46//26 47//26 52//26 51//26
f 48//27 45//27 50//27 53//27
f 38//28 1//28 46//28 45//28
f 20//29 18//29 48//29 49//29
f 1//30 3//30 47//30 46//30
f 51//31 52//31 57//31 56//31
f 53//32 50//32 55//32 58//32
f 49//33 48//33 53//33 54//33
f 45//34 46//34 51//34 50//34
f 58//35 55//35 64//35 66//35
f 54//36 53//36 58//36 59//36
f 50//37 51//37 56//37 55//37
f 151//38 150//38 71//38 72//38
f 59//39 58//39 62//39 63//39
f 61//40 159//40 56//40 57//40
f 62//41 58//41 66//41 67//41
f 55//42 56//42 159//42 160//42
f 66//43 64//43 65//43 67//43
f 149//44 148//44 76//44 68//44
f 55//45 60//45 65//45 64//45
f 70//46 69//46 74//46 75//46
f 150//47 149//47 68//47 71//47
f 153//48 151//48 72//48 69//48
f 152//49 153//49 69//49 70//49
f 69//50 72//50 74//50
f 68//51 76//51 77//51 73//51
f 72//52 71//52 73//52 74//52
f 71//53 68//53 73//53
f 77//54 75//54 74//54 73//54
f 89//55 113//55 111//55 104//55
f 112//56 115//56 52//56 47//56
f 113//57 116//57 114//57 111//57
f 104//58 111//58 112//58 78//58
f 20//59 49//59 113//59 89//59
f 78//60 112//60 47//60 3//60
f 115//61 118//61 57//61 52//61
f 116//62 119//62 117//62 114//62
f 49//63 54//63 116//63 113//63
f 111//64 114//64 115//64 112//64
f 119//65 124//65 122//65 117//65
f 54//66 59//66 119//66 116//66
f 114//67 117//67 118//67 115//67
f 156//68 129//68 128//68 155//68
f 59//69 63//69 121//69 119//69
f 61//70 57//70 118//70 158//70
f 121//71 125//71 124//71 119//71
f 120//72 161//72 117//72
f 124//73 125//73 123//73 122//73
f 154//74 126//74 76//74 148//74
f 117//75 122//75 123//75 120//75
f 70//76 75//76 131//76 127//76
f 155//77 128//77 126//77 154//77
f 157//78 127//78 129//78 156//78
f 152//79 70//79 127//79 157//79
f 127//80 131//80 129//80
f 126//81 130//81 77//81 76//81
f 129//82 131//82 130//82 128//82
f 128//83 130//83 126//83
f 77//84 130//84 131//84 75//84
f 63//85 152//85 157//85 121//85
f 121//86 157//86 156//86 125//86
f 123//87 155//87 154//87 120//87
f 148//88 158//88 161//88
f 125//89 156//89 155//89 123//89
f 63//90 62//90 153//90 152//90
f 62//91 67//91 151//91 153//91
f 65//92 60//92 149//92 150//92
f 159//93 148//93 160//93
f 67//94 65//94 150//94 151//94
f 55//95 160//95 60//95
f 158//96 148//96 61//96
f 118//97 117//97 161//97 158//97
f 148//98 159//98 61//98
f 161//99 120//99 154//99 148//99
f 60//100 160//100 148//100 149//100
usemtl Red
f 4//101 2//101 5//101 6//101
f 6//102 5//102 7//102 8//102
f 8//103 7//103 13//103 12//103
f 9//104 10//104 15//104 14//104
f 10//105 11//105 16//105 15//105
f 14//106 15//106 36//106 35//106
f 12//107 13//107 34//107 17//107
f 7//108 9//108 14//108 13//108
f 13//109 14//109 35//109 34//109
f 33//110 32//110 98//110 99//110
f 28//111 44//111 43//111 27//111
f 9//112 42//112 43//112 10//112
f 7//113 41//113 42//113 9//113
f 5//114 40//114 41//114 7//114
f 2//115 39//115 40//115 5//115
f 21//116 23//116 22//116 19//116
f 23//117 25//117 24//117 22//117
f 25//118 29//118 30//118 24//118
f 26//119 31//119 32//119 27//119
f 27//120 32//120 33//120 28//120
f 31//121 35//121 36//121 32//121
f 29//122 17//122 34//122 30//122
f 24//123 30//123 31//123 26//123
f 30//124 34//124 35//124 31//124
f 16//125 88//125 87//125 15//125
f 26//126 27//126 43//126 42//126
f 24//127 26//127 42//127 41//127
f 22//128 24//128 41//128 40//128
f 19//129 22//129 40//129 39//129
f 4//130 6//130 80//130 79//130
f 6//131 8//131 81//131 80//131
f 8//132 12//132 85//132 81//132
f 82//133 86//133 87//133 83//133
f 83//134 87//134 88//134 84//134
f 86//135 101//135 102//135 87//135
f 12//136 17//136 100//136 85//136
f 81//137 85//137 86//137 82//137
f 85//138 100//138 101//138 86//138
f 102//139 98//139 32//139 36//139
f 109//140 110//140 95//140 94//140
f 82//141 83//141 109//141 108//141
f 81//142 82//142 108//142 107//142
f 80//143 81//143 107//143 106//143
f 79//144 80//144 106//144 105//144
f 21//145 90//145 91//145 23//145
f 23//146 91//146 92//146 25//146
f 25//147 92//147 96//147 29//147
f 93//148 94//148 98//148 97//148
f 94//149 95//149 99//149 98//149
f 97//150 98//150 102//150 101//150
f 29//151 96//151 100//151 17//151
f 92//152 93//152 97//152 96//152
f 96//153 97//153 101//153 100//153
f 36//154 15//154 87//154 102//154
f 43//155 44//155 11//155 10//155
f 93//156 108//156 109//156 94//156
f 92//157 107//157 108//157 93//157
f 91//158 106//158 107//158 92//158
f 90//159 105//159 106//159 91//159
f 84//160 110//160 109//160 83//160
f 16//161 11//161 44//161 37//161
f 88//162 103//162 110//162 84//162
f 16//163 37//163 103//163 88//163
f 37//164 44//164 28//164 33//164
f 110//165 103//165 99//165 95//165
f 33//166 99//166 103//166 37//166
