# Blender v2.79 (sub 0) OBJ File: 'WaterBottle_1.blend'
# www.blender.org
mtllib WaterBottle_1.mtl
o WaterBottle_1_Cylinder.001
v 0.000000 -0.482697 -0.275542
v 0.000000 0.958158 -0.275542
v 0.137771 -0.482697 -0.238626
v 0.137771 0.958158 -0.238626
v 0.238626 -0.482697 -0.137771
v 0.238626 0.958158 -0.137771
v 0.275542 -0.482697 0.000000
v 0.275542 0.958158 0.000000
v 0.238626 -0.482697 0.137771
v 0.238626 0.958158 0.137771
v 0.137771 -0.482697 0.238626
v 0.137771 0.958158 0.238626
v 0.000000 -0.482697 0.275542
v 0.000000 0.958158 0.275542
v -0.137771 -0.482697 0.238626
v -0.137771 0.958158 0.238626
v -0.238626 -0.482697 0.137771
v -0.238626 0.958158 0.137771
v -0.275542 -0.482697 0.000000
v -0.275542 0.958158 0.000000
v -0.238627 -0.482697 -0.137771
v -0.238627 0.958158 -0.137771
v -0.137771 -0.482697 -0.238626
v -0.137771 0.958158 -0.238626
v 0.000000 -0.539843 -0.207693
v 0.103847 -0.539843 -0.179868
v 0.179868 -0.539843 -0.103847
v 0.207693 -0.539843 0.000000
v 0.179868 -0.539843 0.103847
v 0.103847 -0.539843 0.179868
v 0.000000 -0.539843 0.207693
v -0.103847 -0.539843 0.179868
v -0.179868 -0.539843 0.103847
v -0.207693 -0.539843 0.000000
v -0.179868 -0.539843 -0.103847
v -0.103847 -0.539843 -0.179868
v 0.128050 1.056182 -0.221790
v 0.000000 1.056182 -0.256101
v 0.221790 1.056182 -0.128050
v 0.256101 1.056182 0.000000
v 0.221790 1.056182 0.128050
v 0.128050 1.056182 0.221790
v 0.000000 1.056182 0.256101
v -0.128050 1.056182 0.221790
v -0.221790 1.056182 0.128050
v -0.256101 1.056182 0.000000
v -0.221790 1.056182 -0.128050
v -0.128050 1.056182 -0.221789
v 0.102348 1.141551 -0.177272
v 0.000000 1.141551 -0.204696
v 0.177272 1.141551 -0.102348
v 0.204696 1.141551 0.000000
v 0.177272 1.141551 0.102348
v 0.102348 1.141551 0.177272
v 0.000000 1.141551 0.204696
v -0.102348 1.141551 0.177272
v -0.177272 1.141551 0.102348
v -0.204696 1.141551 0.000000
v -0.177272 1.141551 -0.102348
v -0.102348 1.141551 -0.177272
v 0.049426 1.208462 -0.085608
v 0.000000 1.208462 -0.098851
v 0.085608 1.208462 -0.049426
v 0.098852 1.208462 0.000000
v 0.085608 1.208462 0.049426
v 0.049426 1.208462 0.085608
v 0.000000 1.208462 0.098851
v -0.049426 1.208462 0.085608
v -0.085608 1.208462 0.049426
v -0.098851 1.208462 0.000000
v -0.085608 1.208462 -0.049426
v -0.049426 1.208462 -0.085608
v 0.000000 1.119055 -0.084879
v 0.000000 1.310609 -0.084879
v 0.060018 1.119055 -0.060018
v 0.060018 1.310609 -0.060018
v 0.084879 1.119055 0.000000
v 0.084879 1.310609 0.000000
v 0.060018 1.119055 0.060018
v 0.060018 1.310609 0.060018
v -0.000000 1.119055 0.084879
v -0.000000 1.310609 0.084879
v -0.060018 1.119055 0.060018
v -0.060018 1.310609 0.060018
v -0.084879 1.119055 -0.000000
v -0.084879 1.310609 -0.000000
v -0.060018 1.119055 -0.060018
v -0.060018 1.310609 -0.060018
vn 0.2588 0.0000 -0.9659
vn 0.7071 0.0000 -0.7071
vn 0.9659 0.0000 -0.2588
vn 0.9659 0.0000 0.2588
vn 0.7071 0.0000 0.7071
vn 0.2588 0.0000 0.9659
vn -0.2588 0.0000 0.9659
vn -0.7071 0.0000 0.7071
vn -0.9659 0.0000 0.2588
vn -0.9659 0.0000 -0.2588
vn -0.6945 0.1882 0.6945
vn -0.7071 0.0000 -0.7071
vn -0.2588 0.0000 -0.9659
vn 0.1701 -0.7537 0.6348
vn 0.0000 -1.0000 -0.0000
vn 0.4647 -0.7537 0.4647
vn 0.6348 -0.7537 0.1701
vn -0.1701 -0.7537 -0.6348
vn 0.1701 -0.7537 -0.6348
vn 0.6348 -0.7537 -0.1701
vn -0.4647 -0.7537 -0.4647
vn 0.4647 -0.7537 -0.4647
vn -0.6348 -0.7537 -0.1701
vn -0.6348 -0.7537 0.1701
vn -0.4647 -0.7537 0.4647
vn -0.1701 -0.7537 0.6348
vn -0.6112 0.5028 0.6112
vn -0.2542 0.1882 0.9487
vn 0.2542 0.1882 0.9487
vn 0.6945 0.1882 0.6945
vn 0.9487 0.1882 0.2542
vn -0.2542 0.1882 -0.9487
vn 0.2542 0.1882 -0.9487
vn 0.9487 0.1882 -0.2542
vn -0.6945 0.1882 -0.6945
vn 0.6945 0.1882 -0.6945
vn -0.9487 0.1882 -0.2542
vn -0.9487 0.1882 0.2542
vn 0.1417 0.8367 -0.5290
vn 0.6112 0.5028 0.6112
vn -0.2237 0.5028 -0.8350
vn 0.6112 0.5028 -0.6112
vn -0.8350 0.5028 0.2237
vn 0.2237 0.5028 0.8350
vn 0.8350 0.5028 -0.2237
vn -0.8350 0.5028 -0.2237
vn -0.2237 0.5028 0.8350
vn 0.8350 0.5028 0.2237
vn -0.6112 0.5028 -0.6112
vn 0.2237 0.5028 -0.8350
vn 0.0000 1.0000 0.0000
vn -0.3872 0.8367 0.3872
vn 0.3872 0.8367 0.3872
vn -0.1417 0.8367 -0.5290
vn 0.3872 0.8367 -0.3872
vn -0.5290 0.8367 0.1417
vn 0.1417 0.8367 0.5290
vn 0.5290 0.8367 -0.1417
vn -0.5290 0.8367 -0.1417
vn -0.1417 0.8367 0.5290
vn 0.5290 0.8367 0.1417
vn -0.3872 0.8367 -0.3872
vn 0.3827 0.0000 -0.9239
vn 0.9239 0.0000 -0.3827
vn 0.9239 0.0000 0.3827
vn 0.3827 0.0000 0.9239
vn -0.3827 0.0000 0.9239
vn -0.9239 0.0000 0.3827
vn -0.9239 0.0000 -0.3827
vn -0.3827 0.0000 -0.9239
usemtl Plastic
s off
f 1//1 2//1 4//1 3//1
f 3//2 4//2 6//2 5//2
f 5//3 6//3 8//3 7//3
f 7//4 8//4 10//4 9//4
f 9//5 10//5 12//5 11//5
f 11//6 12//6 14//6 13//6
f 13//7 14//7 16//7 15//7
f 15//8 16//8 18//8 17//8
f 17//9 18//9 20//9 19//9
f 19//10 20//10 22//10 21//10
f 18//11 16//11 44//11 45//11
f 21//12 22//12 24//12 23//12
f 23//13 24//13 2//13 1//13
f 11//14 13//14 31//14 30//14
f 25//15 26//15 27//15 28//15 29//15 30//15 31//15 32//15 33//15 34//15 35//15 36//15
f 9//16 11//16 30//16 29//16
f 7//17 9//17 29//17 28//17
f 23//18 1//18 25//18 36//18
f 1//19 3//19 26//19 25//19
f 5//20 7//20 28//20 27//20
f 21//21 23//21 36//21 35//21
f 3//22 5//22 27//22 26//22
f 19//23 21//23 35//23 34//23
f 17//24 19//24 34//24 33//24
f 15//25 17//25 33//25 32//25
f 13//26 15//26 32//26 31//26
f 45//27 44//27 56//27 57//27
f 16//28 14//28 43//28 44//28
f 14//29 12//29 42//29 43//29
f 12//30 10//30 41//30 42//30
f 10//31 8//31 40//31 41//31
f 2//32 24//32 48//32 38//32
f 4//33 2//33 38//33 37//33
f 8//34 6//34 39//34 40//34
f 24//35 22//35 47//35 48//35
f 6//36 4//36 37//36 39//36
f 22//37 20//37 46//37 47//37
f 20//38 18//38 45//38 46//38
f 49//39 50//39 62//39 61//39
f 42//40 41//40 53//40 54//40
f 38//41 48//41 60//41 50//41
f 39//42 37//42 49//42 51//42
f 46//43 45//43 57//43 58//43
f 43//44 42//44 54//44 55//44
f 40//45 39//45 51//45 52//45
f 47//46 46//46 58//46 59//46
f 44//47 43//47 55//47 56//47
f 41//48 40//48 52//48 53//48
f 48//49 47//49 59//49 60//49
f 37//50 38//50 50//50 49//50
f 61//51 62//51 72//51 71//51 70//51 69//51 68//51 67//51 66//51 65//51 64//51 63//51
f 57//52 56//52 68//52 69//52
f 54//53 53//53 65//53 66//53
f 50//54 60//54 72//54 62//54
f 51//55 49//55 61//55 63//55
f 58//56 57//56 69//56 70//56
f 55//57 54//57 66//57 67//57
f 52//58 51//58 63//58 64//58
f 59//59 58//59 70//59 71//59
f 56//60 55//60 67//60 68//60
f 53//61 52//61 64//61 65//61
f 60//62 59//62 71//62 72//62
usemtl Grey
f 73//63 74//63 76//63 75//63
f 75//64 76//64 78//64 77//64
f 77//65 78//65 80//65 79//65
f 79//66 80//66 82//66 81//66
f 81//67 82//67 84//67 83//67
f 83//68 84//68 86//68 85//68
f 76//51 74//51 88//51 86//51 84//51 82//51 80//51 78//51
f 85//69 86//69 88//69 87//69
f 87//70 88//70 74//70 73//70
f 73//15 75//15 77//15 79//15 81//15 83//15 85//15 87//15
