# Blender v2.79 (sub 0) OBJ File: 'WaterBottle_2.blend'
# www.blender.org
mtllib WaterBottle_2.mtl
o WaterBottle_2_Cylinder
v 0.000000 -0.482697 -0.275542
v 0.000000 0.958158 -0.275542
v 0.137771 -0.482697 -0.238626
v 0.137771 0.958158 -0.238626
v 0.238626 -0.482697 -0.137771
v 0.238626 0.958158 -0.137771
v 0.275542 -0.482697 0.000000
v 0.275542 0.958158 0.000000
v 0.238626 -0.482697 0.137771
v 0.238626 0.958158 0.137771
v 0.137771 -0.482697 0.238626
v 0.137771 0.958158 0.238626
v 0.000000 -0.482697 0.275542
v 0.000000 0.958158 0.275542
v -0.137771 -0.482697 0.238626
v -0.137771 0.958158 0.238626
v -0.238626 -0.482697 0.137771
v -0.238626 0.958158 0.137771
v -0.275542 -0.482697 0.000000
v -0.275542 0.958158 0.000000
v -0.238627 -0.482697 -0.137771
v -0.238627 0.958158 -0.137771
v -0.137771 -0.482697 -0.238626
v -0.137771 0.958158 -0.238626
v 0.000000 -0.539843 -0.207693
v 0.103847 -0.539843 -0.179868
v 0.179868 -0.539843 -0.103847
v 0.207693 -0.539843 0.000000
v 0.179868 -0.539843 0.103847
v 0.103847 -0.539843 0.179868
v 0.000000 -0.539843 0.207693
v -0.103847 -0.539843 0.179868
v -0.179868 -0.539843 0.103847
v -0.207693 -0.539843 0.000000
v -0.179868 -0.539843 -0.103847
v -0.103847 -0.539843 -0.179868
v 0.128050 1.056182 -0.221790
v 0.000000 1.056182 -0.256101
v 0.221790 1.056182 -0.128050
v 0.256101 1.056182 0.000000
v 0.221790 1.056182 0.128050
v 0.128050 1.056182 0.221790
v 0.000000 1.056182 0.256101
v -0.128050 1.056182 0.221790
v -0.221790 1.056182 0.128050
v -0.256101 1.056182 0.000000
v -0.221790 1.056182 -0.128050
v -0.128050 1.056182 -0.221789
v 0.102348 1.141551 -0.177272
v 0.000000 1.141551 -0.204696
v 0.177272 1.141551 -0.102348
v 0.204696 1.141551 0.000000
v 0.177272 1.141551 0.102348
v 0.102348 1.141551 0.177272
v 0.000000 1.141551 0.204696
v -0.102348 1.141551 0.177272
v -0.177272 1.141551 0.102348
v -0.204696 1.141551 0.000000
v -0.177272 1.141551 -0.102348
v -0.102348 1.141551 -0.177272
v 0.049426 1.208462 -0.085608
v 0.000000 1.208462 -0.098851
v 0.085608 1.208462 -0.049426
v 0.098852 1.208462 0.000000
v 0.085608 1.208462 0.049426
v 0.049426 1.208462 0.085608
v 0.000000 1.208462 0.098851
v -0.049426 1.208462 0.085608
v -0.085608 1.208462 0.049426
v -0.098851 1.208462 0.000000
v -0.085608 1.208462 -0.049426
v -0.049426 1.208462 -0.085608
v 0.000000 1.119055 -0.084879
v 0.000000 1.310609 -0.084879
v 0.060018 1.119055 -0.060018
v 0.060018 1.310609 -0.060018
v 0.084879 1.119055 0.000000
v 0.084879 1.310609 0.000000
v 0.060018 1.119055 0.060018
v 0.060018 1.310609 0.060018
v -0.000000 1.119055 0.084879
v -0.000000 1.310609 0.084879
v -0.060018 1.119055 0.060018
v -0.060018 1.310609 0.060018
v -0.084879 1.119055 -0.000000
v -0.084879 1.310609 -0.000000
v -0.060018 1.119055 -0.060018
v -0.060018 1.310609 -0.060018
v -0.000000 -0.224811 -0.271684
v -0.000000 -0.058629 -0.271684
v -0.000000 0.107554 -0.271684
v -0.000000 0.273737 -0.271684
v 0.135842 0.273736 -0.235285
v 0.135842 0.107554 -0.235285
v 0.135842 -0.058629 -0.235285
v 0.135842 -0.224811 -0.235285
v 0.235285 0.273736 -0.135842
v 0.235285 0.107554 -0.135842
v 0.235285 -0.058629 -0.135842
v 0.235285 -0.224811 -0.135842
v 0.271684 0.273736 0.000000
v 0.271684 0.107554 0.000000
v 0.271684 -0.058629 0.000000
v 0.271684 -0.224811 0.000000
v 0.235285 0.273736 0.135842
v 0.235285 0.107554 0.135842
v 0.235285 -0.058629 0.135842
v 0.235285 -0.224811 0.135842
v 0.135842 0.273736 0.235285
v 0.135842 0.107554 0.235285
v 0.135842 -0.058629 0.235285
v 0.135842 -0.224811 0.235285
v 0.000000 0.273736 0.271684
v 0.000000 0.107554 0.271684
v 0.000000 -0.058629 0.271684
v 0.000000 -0.224811 0.271684
v -0.135842 0.273736 0.235285
v -0.135842 0.107554 0.235285
v -0.135842 -0.058629 0.235285
v -0.135842 -0.224811 0.235285
v -0.235285 0.273736 0.135842
v -0.235285 0.107554 0.135842
v -0.235285 -0.058629 0.135842
v -0.235285 -0.224811 0.135842
v -0.271684 0.273736 0.000000
v -0.271684 0.107554 0.000000
v -0.271684 -0.058629 0.000000
v -0.271684 -0.224811 0.000000
v -0.235285 0.273736 -0.135842
v -0.235285 0.107554 -0.135842
v -0.235285 -0.058629 -0.135842
v -0.235285 -0.224811 -0.135842
v -0.135842 0.273736 -0.235285
v -0.135842 0.107554 -0.235285
v -0.135842 -0.058629 -0.235285
v -0.135842 -0.224811 -0.235285
v 0.000000 0.285607 -0.275326
v 0.137663 -0.236681 -0.238440
v 0.238440 -0.236681 -0.137663
v 0.275326 -0.236681 0.000000
v 0.238440 -0.236681 0.137663
v 0.137663 -0.236681 0.238440
v 0.000000 -0.236681 0.275326
v -0.137663 -0.236681 0.238440
v -0.238440 -0.236681 0.137663
v -0.275326 -0.236681 0.000000
v -0.238440 -0.236681 -0.137663
v -0.137663 -0.236681 -0.238440
v -0.000000 -0.236681 -0.275326
v -0.000000 -0.046758 -0.275326
v -0.000000 0.095684 -0.275326
v 0.137663 0.285607 -0.238440
v 0.137663 0.095684 -0.238440
v 0.137663 -0.046758 -0.238440
v 0.238440 0.285607 -0.137663
v 0.238440 0.095684 -0.137663
v 0.238440 -0.046758 -0.137663
v 0.275326 0.285607 0.000000
v 0.275326 0.095684 0.000000
v 0.275326 -0.046758 0.000000
v 0.238440 0.285607 0.137663
v 0.238440 0.095684 0.137663
v 0.238440 -0.046758 0.137663
v 0.137663 0.285607 0.238440
v 0.137663 0.095684 0.238440
v 0.137663 -0.046758 0.238440
v 0.000000 0.285607 0.275326
v 0.000000 0.095684 0.275326
v 0.000000 -0.046758 0.275326
v -0.137663 0.285607 0.238440
v -0.137663 0.095684 0.238440
v -0.137663 -0.046758 0.238440
v -0.238440 0.285607 0.137663
v -0.238440 0.095684 0.137663
v -0.238440 -0.046758 0.137663
v -0.275326 0.285607 0.000000
v -0.275326 0.095684 0.000000
v -0.275326 -0.046758 0.000000
v -0.238440 0.285607 -0.137663
v -0.238440 0.095684 -0.137663
v -0.238440 -0.046758 -0.137663
v -0.137663 0.285607 -0.238440
v -0.137663 0.095684 -0.238440
v -0.137663 -0.046758 -0.238440
v 0.000000 -0.216030 -0.275564
v 0.000000 -0.067410 -0.275564
v 0.000000 0.116335 -0.275564
v 0.000000 0.264955 -0.275564
v 0.137782 0.264955 -0.238645
v 0.137782 0.116335 -0.238645
v 0.137782 -0.067410 -0.238645
v 0.137782 -0.216030 -0.238645
v 0.238645 0.264955 -0.137782
v 0.238645 0.116335 -0.137782
v 0.238645 -0.067410 -0.137782
v 0.238645 -0.216030 -0.137782
v 0.275564 0.264955 0.000000
v 0.275564 0.116335 0.000000
v 0.275564 -0.067410 0.000000
v 0.275564 -0.216030 0.000000
v 0.238645 0.264955 0.137782
v 0.238645 0.116335 0.137782
v 0.238645 -0.067410 0.137782
v 0.238645 -0.216030 0.137782
v 0.137782 0.264955 0.238645
v 0.137782 0.116335 0.238645
v 0.137782 -0.067410 0.238645
v 0.137782 -0.216030 0.238645
v 0.000000 0.264955 0.275564
v 0.000000 0.116335 0.275564
v 0.000000 -0.067410 0.275564
v 0.000000 -0.216030 0.275564
v -0.137782 0.264955 0.238645
v -0.137782 0.116335 0.238645
v -0.137782 -0.067410 0.238645
v -0.137782 -0.216030 0.238645
v -0.238645 0.264955 0.137782
v -0.238645 0.116335 0.137782
v -0.238645 -0.067410 0.137782
v -0.238645 -0.216030 0.137782
v -0.275564 0.264955 0.000000
v -0.275564 0.116335 0.000000
v -0.275564 -0.067410 0.000000
v -0.275564 -0.216030 0.000000
v -0.238645 0.264955 -0.137782
v -0.238645 0.116335 -0.137782
v -0.238645 -0.067410 -0.137782
v -0.238645 -0.216030 -0.137782
v -0.137782 0.264955 -0.238645
v -0.137782 0.116335 -0.238645
v -0.137782 -0.067410 -0.238645
v -0.137782 -0.216030 -0.238645
vn -0.6945 0.1882 0.6945
vn 0.1701 -0.7537 0.6348
vn 0.0000 -1.0000 -0.0000
vn 0.4647 -0.7537 0.4647
vn 0.6348 -0.7537 0.1701
vn -0.1701 -0.7537 -0.6348
vn 0.1701 -0.7537 -0.6348
vn 0.6348 -0.7537 -0.1701
vn -0.4647 -0.7537 -0.4647
vn 0.4647 -0.7537 -0.4647
vn -0.6348 -0.7537 -0.1701
vn -0.6348 -0.7537 0.1701
vn -0.4647 -0.7537 0.4647
vn -0.1701 -0.7537 0.6348
vn -0.6112 0.5028 0.6112
vn -0.2542 0.1882 0.9487
vn 0.2542 0.1882 0.9487
vn 0.6945 0.1882 0.6945
vn 0.9487 0.1882 0.2542
vn -0.2542 0.1882 -0.9487
vn 0.2542 0.1882 -0.9487
vn 0.9487 0.1882 -0.2542
vn -0.6945 0.1882 -0.6945
vn 0.6945 0.1882 -0.6945
vn -0.9487 0.1882 -0.2542
vn -0.9487 0.1882 0.2542
vn 0.1417 0.8367 -0.5290
vn 0.6112 0.5028 0.6112
vn -0.2237 0.5028 -0.8350
vn 0.6112 0.5028 -0.6112
vn -0.8350 0.5028 0.2237
vn 0.2237 0.5028 0.8350
vn 0.8350 0.5028 -0.2237
vn -0.8350 0.5028 -0.2237
vn -0.2237 0.5028 0.8350
vn 0.8350 0.5028 0.2237
vn -0.6112 0.5028 -0.6112
vn 0.2237 0.5028 -0.8350
vn 0.0000 1.0000 0.0000
vn -0.3872 0.8367 0.3872
vn 0.3872 0.8367 0.3872
vn -0.1417 0.8367 -0.5290
vn 0.3872 0.8367 -0.3872
vn -0.5290 0.8367 0.1417
vn 0.1417 0.8367 0.5290
vn 0.5290 0.8367 -0.1417
vn -0.5290 0.8367 -0.1417
vn -0.1417 0.8367 0.5290
vn 0.5290 0.8367 0.1417
vn -0.3872 0.8367 -0.3872
vn 0.9261 -0.2842 -0.2481
vn -0.9261 -0.2842 -0.2481
vn 0.9261 0.2842 -0.2481
vn -0.9261 0.2842 -0.2481
vn -0.9261 -0.2842 0.2481
vn -0.9261 0.2842 0.2481
vn 0.6780 -0.2842 -0.6780
vn 0.6780 0.2842 -0.6780
vn -0.2588 -0.0003 -0.9659
vn 0.8884 -0.3925 0.2380
vn -0.2380 0.3925 0.8884
vn -0.6780 -0.2842 0.6780
vn 0.2380 -0.3925 -0.8884
vn -0.6504 -0.3925 -0.6504
vn 0.8884 0.3925 0.2380
vn -0.6780 0.2842 0.6780
vn -0.2380 -0.3925 0.8884
vn -0.8884 0.3925 -0.2380
vn 0.2481 -0.2842 -0.9261
vn -0.8884 -0.3925 -0.2380
vn 0.8884 0.3925 -0.2380
vn 0.2481 0.2842 -0.9261
vn 0.8884 -0.3925 -0.2380
vn 0.2380 0.3925 0.8884
vn -0.2481 -0.2842 0.9261
vn 0.2380 -0.3925 0.8884
vn -0.8884 0.3925 0.2380
vn -0.2481 0.2842 0.9261
vn -0.8884 -0.3925 0.2380
vn 0.6504 0.3925 -0.6504
vn -0.2380 0.3925 -0.8884
vn -0.7071 -0.0003 -0.7071
vn -0.9659 -0.0003 -0.2588
vn -0.9659 -0.0003 0.2588
vn -0.7071 -0.0003 0.7071
vn -0.2588 -0.0003 0.9659
vn 0.2588 -0.0003 0.9659
vn 0.7071 -0.0003 0.7071
vn 0.9659 -0.0003 0.2588
vn 0.9659 -0.0003 -0.2588
vn 0.7071 -0.0003 -0.7071
vn 0.2588 -0.0003 -0.9659
vn 0.2588 0.0008 -0.9659
vn 0.7071 0.0008 -0.7071
vn 0.2588 0.0000 -0.9659
vn 0.9659 0.0008 -0.2588
vn 0.7071 0.0000 -0.7071
vn 0.9659 0.0008 0.2588
vn 0.9659 0.0000 -0.2588
vn 0.7071 0.0008 0.7071
vn 0.9659 0.0000 0.2588
vn 0.2588 0.0008 0.9659
vn 0.7071 0.0000 0.7071
vn -0.2588 0.0008 0.9659
vn 0.2588 0.0000 0.9659
vn -0.7071 0.0008 0.7071
vn -0.2588 0.0000 0.9659
vn -0.9659 0.0008 0.2588
vn -0.7071 0.0000 0.7071
vn -0.9659 0.0008 -0.2588
vn -0.9659 0.0000 0.2588
vn -0.7071 0.0008 -0.7071
vn -0.9659 0.0000 -0.2588
vn -0.2588 0.0008 -0.9659
vn -0.7071 0.0000 -0.7071
vn -0.2588 0.0000 -0.9659
vn 0.9261 0.2842 0.2481
vn 0.9261 -0.2842 0.2481
vn -0.6780 0.2842 -0.6780
vn -0.6780 -0.2842 -0.6780
vn 0.6780 0.2842 0.6780
vn 0.6780 -0.2842 0.6780
vn -0.2481 0.2842 -0.9261
vn -0.2481 -0.2842 -0.9261
vn 0.2481 0.2842 0.9261
vn 0.2481 -0.2842 0.9261
vn -0.6504 0.3925 -0.6504
vn 0.2380 0.3925 -0.8884
vn -0.6504 -0.3925 0.6504
vn -0.6504 0.3925 0.6504
vn 0.6504 -0.3925 0.6504
vn 0.6504 0.3925 0.6504
vn -0.2380 -0.3925 -0.8884
vn 0.6504 -0.3925 -0.6504
vn 0.3827 0.0000 -0.9239
vn 0.9239 0.0000 -0.3827
vn 0.9239 0.0000 0.3827
vn 0.3827 0.0000 0.9239
vn -0.3827 0.0000 0.9239
vn -0.9239 0.0000 0.3827
vn -0.9239 0.0000 -0.3827
vn -0.3827 0.0000 -0.9239
usemtl Plastic
s off
f 18//1 16//1 44//1 45//1
f 11//2 13//2 31//2 30//2
f 25//3 26//3 27//3 28//3 29//3 30//3 31//3 32//3 33//3 34//3 35//3 36//3
f 9//4 11//4 30//4 29//4
f 7//5 9//5 29//5 28//5
f 23//6 1//6 25//6 36//6
f 1//7 3//7 26//7 25//7
f 5//8 7//8 28//8 27//8
f 21//9 23//9 36//9 35//9
f 3//10 5//10 27//10 26//10
f 19//11 21//11 35//11 34//11
f 17//12 19//12 34//12 33//12
f 15//13 17//13 33//13 32//13
f 13//14 15//14 32//14 31//14
f 45//15 44//15 56//15 57//15
f 16//16 14//16 43//16 44//16
f 14//17 12//17 42//17 43//17
f 12//18 10//18 41//18 42//18
f 10//19 8//19 40//19 41//19
f 2//20 24//20 48//20 38//20
f 4//21 2//21 38//21 37//21
f 8//22 6//22 39//22 40//22
f 24//23 22//23 47//23 48//23
f 6//24 4//24 37//24 39//24
f 22//25 20//25 46//25 47//25
f 20//26 18//26 45//26 46//26
f 49//27 50//27 62//27 61//27
f 42//28 41//28 53//28 54//28
f 38//29 48//29 60//29 50//29
f 39//30 37//30 49//30 51//30
f 46//31 45//31 57//31 58//31
f 43//32 42//32 54//32 55//32
f 40//33 39//33 51//33 52//33
f 47//34 46//34 58//34 59//34
f 44//35 43//35 55//35 56//35
f 41//36 40//36 52//36 53//36
f 48//37 47//37 59//37 60//37
f 37//38 38//38 50//38 49//38
f 61//39 62//39 72//39 71//39 70//39 69//39 68//39 67//39 66//39 65//39 64//39 63//39
f 57//40 56//40 68//40 69//40
f 54//41 53//41 65//41 66//41
f 50//42 60//42 72//42 62//42
f 51//43 49//43 61//43 63//43
f 58//44 57//44 69//44 70//44
f 55//45 54//45 66//45 67//45
f 52//46 51//46 63//46 64//46
f 59//47 58//47 70//47 71//47
f 56//48 55//48 67//48 68//48
f 53//49 52//49 64//49 65//49
f 60//50 59//50 71//50 72//50
f 101//51 97//51 155//51 158//51
f 131//52 127//52 178//52 181//52
f 98//53 102//53 159//53 156//53
f 128//54 132//54 147//54 146//54
f 103//51 99//51 157//51 160//51
f 125//55 121//55 173//55 176//55
f 100//53 104//53 140//53 139//53
f 122//56 126//56 177//56 174//56
f 97//57 93//57 152//57 155//57
f 127//55 123//55 175//55 178//55
f 94//58 98//58 156//58 153//58
f 124//56 128//56 146//56 145//56
f 2//59 137//59 182//59 24//59
f 106//60 102//60 198//60 202//60
f 99//57 95//57 154//57 157//57
f 113//61 117//61 213//61 209//61
f 121//62 117//62 170//62 173//62
f 96//63 89//63 185//63 192//63
f 136//64 132//64 228//64 232//64
f 96//58 100//58 139//58 138//58
f 103//65 107//65 203//65 199//65
f 118//66 122//66 174//66 171//66
f 118//67 114//67 210//67 214//67
f 125//68 129//68 225//68 221//68
f 108//60 104//60 200//60 204//60
f 93//69 92//69 137//69 152//69
f 115//61 119//61 215//61 211//61
f 123//62 119//62 172//62 175//62
f 130//70 126//70 222//70 226//70
f 97//71 101//71 197//71 193//71
f 120//67 116//67 212//67 216//67
f 91//72 94//72 153//72 151//72
f 127//68 131//68 227//68 223//68
f 120//66 124//66 145//66 144//66
f 102//73 98//73 194//73 198//73
f 109//74 113//74 209//74 205//74
f 132//70 128//70 224//70 228//70
f 95//69 90//69 150//69 154//69
f 99//71 103//71 199//71 195//71
f 117//75 113//75 167//75 170//75
f 114//76 110//76 206//76 210//76
f 121//77 125//77 221//77 217//77
f 104//73 100//73 196//73 200//73
f 89//72 96//72 138//72 149//72
f 111//74 115//74 211//74 207//74
f 114//78 118//78 171//78 168//78
f 126//79 122//79 218//79 222//79
f 93//80 97//80 193//80 189//80
f 133//81 92//81 188//81 229//81
f 24//82 182//82 179//82 22//82
f 22//83 179//83 176//83 20//83
f 20//84 176//84 173//84 18//84
f 18//85 173//85 170//85 16//85
f 16//86 170//86 167//86 14//86
f 14//87 167//87 164//87 12//87
f 12//88 164//88 161//88 10//88
f 10//89 161//89 158//89 8//89
f 8//90 158//90 155//90 6//90
f 6//91 155//91 152//91 4//91
f 4//92 152//92 137//92 2//92
f 149//93 138//93 3//93 1//93
f 3//94 138//94 139//94 5//94
f 150//95 151//95 153//95 154//95
f 5//96 139//96 140//96 7//96
f 154//97 153//97 156//97 157//97
f 7//98 140//98 141//98 9//98
f 157//99 156//99 159//99 160//99
f 9//100 141//100 142//100 11//100
f 160//101 159//101 162//101 163//101
f 11//102 142//102 143//102 13//102
f 163//103 162//103 165//103 166//103
f 13//104 143//104 144//104 15//104
f 166//105 165//105 168//105 169//105
f 15//106 144//106 145//106 17//106
f 169//107 168//107 171//107 172//107
f 17//108 145//108 146//108 19//108
f 172//109 171//109 174//109 175//109
f 19//110 146//110 147//110 21//110
f 175//111 174//111 177//111 178//111
f 21//112 147//112 148//112 23//112
f 178//113 177//113 180//113 181//113
f 23//114 148//114 149//114 1//114
f 181//115 180//115 183//115 184//115
f 184//116 183//116 151//116 150//116
f 126//54 130//54 180//54 177//54
f 104//117 108//117 141//117 140//117
f 129//52 125//52 176//52 179//52
f 107//118 103//118 160//118 163//118
f 132//119 136//119 148//119 147//119
f 102//117 106//117 162//117 159//117
f 135//120 131//120 181//120 184//120
f 105//118 101//118 158//118 161//118
f 130//119 134//119 183//119 180//119
f 108//121 112//121 142//121 141//121
f 133//120 129//120 179//120 182//120
f 111//122 107//122 163//122 166//122
f 136//123 89//123 149//123 148//123
f 106//121 110//121 165//121 162//121
f 90//124 135//124 184//124 150//124
f 109//122 105//122 161//122 164//122
f 134//123 91//123 151//123 183//123
f 112//125 116//125 143//125 142//125
f 92//124 133//124 182//124 137//124
f 115//126 111//126 166//126 169//126
f 110//125 114//125 168//125 165//125
f 113//126 109//126 164//126 167//126
f 116//78 120//78 144//78 143//78
f 119//75 115//75 169//75 172//75
f 185//95 186//95 191//95 192//95
f 187//95 188//95 189//95 190//95
f 192//97 191//97 195//97 196//97
f 190//97 189//97 193//97 194//97
f 196//99 195//99 199//99 200//99
f 194//99 193//99 197//99 198//99
f 200//101 199//101 203//101 204//101
f 198//101 197//101 201//101 202//101
f 204//103 203//103 207//103 208//103
f 202//103 201//103 205//103 206//103
f 208//105 207//105 211//105 212//105
f 206//105 205//105 209//105 210//105
f 212//107 211//107 215//107 216//107
f 210//107 209//107 213//107 214//107
f 216//109 215//109 219//109 220//109
f 214//109 213//109 217//109 218//109
f 220//111 219//111 223//111 224//111
f 218//111 217//111 221//111 222//111
f 224//113 223//113 227//113 228//113
f 222//113 221//113 225//113 226//113
f 228//115 227//115 231//115 232//115
f 226//115 225//115 229//115 230//115
f 232//116 231//116 186//116 185//116
f 230//116 229//116 188//116 187//116
f 131//127 135//127 231//127 227//127
f 90//128 95//128 191//128 186//128
f 124//129 120//129 216//129 220//129
f 101//65 105//65 201//65 197//65
f 134//64 130//64 226//64 230//64
f 94//63 91//63 187//63 190//63
f 119//130 123//130 219//130 215//130
f 112//131 108//131 204//131 208//131
f 129//127 133//127 229//127 225//127
f 92//128 93//128 189//128 188//128
f 122//129 118//129 214//129 218//129
f 107//132 111//132 207//132 203//132
f 89//133 136//133 232//133 185//133
f 100//134 96//134 192//134 196//134
f 117//130 121//130 217//130 213//130
f 110//131 106//131 202//131 206//131
f 135//81 90//81 186//81 231//81
f 95//80 99//80 195//80 191//80
f 128//79 124//79 220//79 224//79
f 105//132 109//132 205//132 201//132
f 91//133 134//133 230//133 187//133
f 98//134 94//134 190//134 194//134
f 123//77 127//77 223//77 219//77
f 116//76 112//76 208//76 212//76
usemtl Grey
f 73//135 74//135 76//135 75//135
f 75//136 76//136 78//136 77//136
f 77//137 78//137 80//137 79//137
f 79//138 80//138 82//138 81//138
f 81//139 82//139 84//139 83//139
f 83//140 84//140 86//140 85//140
f 76//39 74//39 88//39 86//39 84//39 82//39 80//39 78//39
f 85//141 86//141 88//141 87//141
f 87//142 88//142 74//142 73//142
f 73//3 75//3 77//3 79//3 81//3 83//3 85//3 87//3
