# Blender v2.79 (sub 0) OBJ File: 'WoodenTorch.blend'
# www.blender.org
mtllib WoodenTorch.mtl
o WoodenTorch_Cylinder.032
v -0.066765 0.985602 -0.095609
v 0.002968 1.908348 -0.120145
v 0.014692 0.985602 -0.067606
v 0.120492 1.908348 -0.084956
v 0.048433 0.985602 -0.000000
v 0.169172 1.908348 -0.000000
v 0.014692 0.985602 0.067606
v 0.120492 1.908348 0.084956
v -0.066765 0.985602 0.095609
v 0.002968 1.908348 0.120145
v -0.148335 1.002033 0.067606
v -0.114556 1.908348 0.084956
v -0.181739 1.006787 -0.000000
v -0.163236 1.908348 -0.000000
v -0.148335 1.002033 -0.067606
v -0.114556 1.908348 -0.084956
v -0.022785 0.447653 -0.087470
v 0.051262 0.456069 -0.061851
v 0.081933 0.459556 -0.000000
v 0.051262 0.456069 0.061851
v -0.022785 0.447653 0.087470
v -0.084012 0.441068 0.061851
v -0.114683 0.437582 -0.000000
v -0.084012 0.441068 -0.061851
v -0.028512 -0.575735 -0.094213
v 0.046581 -0.583405 -0.066619
v 0.095271 -0.538436 -0.000000
v 0.046581 -0.583405 0.066619
v -0.028512 -0.575735 0.094213
v -0.103604 -0.528640 0.066619
v -0.124316 -0.480770 -0.000000
v -0.103604 -0.528640 -0.066619
v 0.019086 2.032857 -0.187318
v -0.125691 1.977375 -0.132454
v -0.184651 1.966746 -0.000000
v 0.165080 2.057909 0.132454
v 0.165080 2.057909 -0.132454
v 0.217955 2.039326 -0.000000
v 0.019086 2.032857 0.187318
v -0.125691 1.977375 0.132454
v -0.154819 1.852394 -0.148077
v 0.007015 1.848316 -0.209413
v -0.154819 1.852394 0.148077
v -0.221617 1.880438 -0.000000
v 0.159732 1.864637 -0.148077
v 0.233903 1.900006 -0.000000
v 0.159732 1.864637 0.148077
v 0.007015 1.848316 0.209413
v 0.126120 1.673417 0.116214
v -0.199542 1.780972 -0.000000
v -0.153412 1.728760 -0.116214
v -0.042045 1.694925 -0.164352
v -0.042045 1.694925 0.164352
v -0.153412 1.728760 0.116214
v 0.126120 1.673417 -0.116214
v 0.177481 1.684605 -0.000000
v -0.160737 1.529072 -0.130303
v -0.015451 1.495187 0.184275
v 0.113194 1.523191 0.130302
v -0.160737 1.529072 0.130302
v -0.214373 1.569391 -0.000000
v 0.175576 1.558436 -0.000000
v -0.015451 1.495187 -0.184276
v 0.113194 1.523191 -0.130303
v -0.176494 1.406168 -0.107625
v -0.223330 1.419442 -0.000000
v -0.176494 1.406168 0.107625
v -0.031703 1.342943 0.152204
v 0.089355 1.363001 0.107625
v 0.137936 1.366117 -0.000000
v 0.089355 1.363001 -0.107625
v -0.031703 1.342943 -0.152204
v 0.032309 1.291514 -0.061904
v -0.035109 1.296452 -0.087545
v 0.060234 1.289468 -0.000000
v -0.130451 1.303437 -0.000000
v -0.102526 1.301391 0.061904
v 0.032309 1.291514 0.061904
v -0.035109 1.296452 0.087545
v -0.102526 1.301391 -0.061904
v 0.104350 1.643314 -0.105285
v -0.189195 1.735682 -0.000000
v -0.045248 1.660405 -0.148895
v 0.151101 1.654493 -0.000000
v 0.104350 1.643314 0.105285
v -0.045248 1.660405 0.148895
v -0.147079 1.690872 -0.105285
v -0.147079 1.690872 0.105285
v -0.156986 1.495309 0.119761
v -0.022105 1.462248 0.169367
v 0.096938 1.487819 -0.119761
v -0.206420 1.531276 -0.000000
v -0.022105 1.462248 -0.169368
v 0.154113 1.518800 -0.000000
v -0.156986 1.495309 -0.119761
v 0.096938 1.487819 0.119761
v -0.146265 1.819949 0.139611
v -0.208734 1.848838 -0.000000
v 0.222324 1.858231 -0.000000
v 0.005048 1.813621 0.197440
v -0.146265 1.819949 -0.139611
v 0.152949 1.826228 0.139611
v 0.152949 1.826228 -0.139611
v 0.005048 1.813621 -0.197440
v 0.139596 2.066605 -0.136804
v 0.024274 2.046816 -0.180141
v -0.167075 1.982938 -0.020651
v -0.120208 1.995795 0.111802
v 0.024015 2.053743 0.155140
v 0.169458 2.081263 0.111802
v -0.090086 2.002990 -0.136804
v 0.211223 2.066584 0.007176
v 0.167220 2.107188 -0.020651
v -0.119395 2.008105 -0.020651
v 0.023299 2.072860 -0.032178
v 0.022777 -0.239270 -0.084286
v 0.019895 0.162463 -0.082439
v 0.083221 0.146106 -0.058152
v 0.083405 -0.255216 -0.059687
v 0.111582 0.135615 -0.000000
v 0.116033 -0.266699 -0.000000
v 0.083221 0.146106 0.058152
v 0.083405 -0.255216 0.059687
v 0.019895 0.162463 0.082439
v 0.022777 -0.239270 0.084285
v -0.056457 0.213471 0.058990
v -0.057144 -0.186355 0.060041
v -0.090161 0.240932 -0.000000
v -0.086528 -0.160099 -0.000000
v -0.056457 0.213471 -0.058990
v -0.057144 -0.186355 -0.060041
v -0.010484 -0.092764 0.054977
v -0.047077 -0.147398 0.064899
v 0.019445 -0.146436 0.088163
v 0.022644 -0.229580 0.088355
v 0.083184 -0.177041 0.062744
v 0.082735 -0.280842 0.062273
v 0.115678 -0.161957 0.000654
v 0.117246 -0.264803 0.001334
v 0.084767 -0.136676 -0.061050
v 0.085000 -0.241603 -0.061113
v 0.018609 -0.112126 -0.087473
v 0.017945 -0.217073 -0.087580
v -0.059662 -0.089750 -0.061458
v -0.061235 -0.196454 -0.061896
v -0.090384 -0.072555 0.000787
v -0.091782 -0.178783 0.000902
v -0.059157 -0.056067 0.061933
v -0.060587 -0.161299 0.063648
v 0.021283 -0.042208 0.083490
v 0.018993 -0.147946 0.089450
v 0.085421 -0.010772 0.059501
v 0.086225 -0.115868 0.059294
v 0.113968 -0.000305 -0.000151
v 0.115119 -0.105090 0.000273
v 0.084600 0.017022 -0.060083
v 0.084021 -0.087983 -0.060769
v 0.020782 0.036683 -0.084047
v 0.020334 -0.068244 -0.084631
v -0.059300 0.058157 -0.060460
v -0.059792 -0.046772 -0.060193
v -0.089134 0.074491 -0.000355
v -0.087938 -0.030298 -0.000285
v -0.058659 0.091977 0.061114
v -0.058863 -0.012953 0.061380
v 0.021048 0.107660 0.083523
v 0.020663 0.002730 0.083662
v 0.086622 0.120108 0.057178
v 0.085840 0.015281 0.058179
v 0.113344 0.137606 -0.000691
v 0.113381 0.033263 -0.000267
v 0.083871 0.153769 -0.058894
v 0.085790 0.050599 -0.059424
v 0.017318 0.166069 -0.083457
v 0.017603 0.062128 -0.084364
v -0.056925 0.196756 -0.059568
v -0.057416 0.091827 -0.059301
v -0.096173 0.213650 0.004726
v -0.092264 0.110844 0.002883
v -0.058954 0.238281 0.061726
v -0.059761 0.131568 0.059364
v 0.009937 0.255784 0.086403
v 0.019469 0.151569 0.085610
v 0.072599 0.270485 0.062178
v 0.081696 0.166444 0.059941
v 0.100051 0.284592 0.000426
v 0.108920 0.180429 -0.001056
v 0.067115 0.300713 -0.064409
v 0.077319 0.196747 -0.062830
v 0.001440 0.318594 -0.087428
v 0.014098 0.213970 -0.084882
v -0.072079 0.347168 -0.064329
v -0.062119 0.243487 -0.059517
v -0.101965 0.313238 0.005755
v -0.091250 0.199244 0.000685
v -0.093487 0.279675 0.013646
v -0.086173 0.186782 0.008096
v -0.008097 -0.082608 0.048647
v -0.040431 -0.180530 0.057415
v 0.018350 -0.136322 0.077972
v 0.017420 -0.271294 0.078472
v 0.074672 -0.166952 0.055510
v 0.074275 -0.307803 0.055095
v 0.103385 -0.151855 0.000646
v 0.104771 -0.295594 0.001247
v 0.076071 -0.126555 -0.053879
v 0.076277 -0.273238 -0.053935
v 0.017612 -0.101986 -0.077227
v 0.017024 -0.247743 -0.077322
v -0.051552 -0.079592 -0.054239
v -0.052942 -0.234809 -0.054626
v -0.078699 -0.062384 0.000763
v -0.079934 -0.215257 0.000864
v -0.051105 -0.045882 0.054794
v -0.052370 -0.195911 0.056309
v 0.019974 -0.032013 0.073843
v 0.017950 -0.181136 0.079109
v 0.076649 -0.000553 0.052645
v 0.077360 -0.145643 0.052462
v 0.101874 0.009923 -0.000066
v 0.102891 -0.133717 0.000309
v 0.075924 0.027264 -0.053024
v 0.075411 -0.114788 -0.053630
v 0.019531 0.046939 -0.074199
v 0.019136 -0.092948 -0.074715
v -0.051232 0.068430 -0.053358
v -0.051666 -0.069190 -0.053121
v -0.077595 0.084778 -0.000246
v -0.076538 -0.050962 -0.000184
v -0.050666 0.102277 0.054070
v -0.050846 -0.031770 0.054305
v 0.019766 0.117972 0.073872
v 0.019426 -0.014417 0.073994
v 0.077710 0.130430 0.050592
v 0.077019 -0.000529 0.051476
v 0.101323 0.147942 -0.000543
v 0.101355 0.019367 -0.000168
v 0.075279 0.164118 -0.051974
v 0.076974 0.038548 -0.052441
v 0.016470 0.176427 -0.073678
v 0.016722 0.051305 -0.074480
v -0.049133 0.207138 -0.052569
v -0.049568 0.084166 -0.052333
v -0.083815 0.224046 0.004244
v -0.080360 0.105208 0.002615
v -0.050926 0.248696 0.054611
v -0.051640 0.128139 0.052524
v 0.009948 0.266212 0.076417
v 0.018371 0.150270 0.075716
v 0.065318 0.280925 0.055010
v 0.073357 0.166728 0.053034
v 0.089577 0.295043 0.000444
v 0.097413 0.182203 -0.000865
v 0.060473 0.311176 -0.056846
v 0.069489 0.200258 -0.055451
v 0.002440 0.329072 -0.077187
v 0.013625 0.219315 -0.074937
v -0.062524 0.357668 -0.056776
v -0.053723 0.251974 -0.052524
v -0.088933 0.323711 0.005153
v -0.079464 0.203020 0.000673
v -0.081441 0.290122 0.012126
v -0.074978 0.189232 0.007221
vn 0.3023 -0.0504 -0.9519
vn 0.8743 -0.1118 -0.4723
vn 0.8743 -0.1118 0.4723
vn 0.3023 -0.0504 0.9519
vn -0.3029 -0.0047 0.9530
vn -0.8802 0.0209 0.4742
vn 0.0000 1.0000 0.0000
vn -0.8802 0.0209 -0.4742
vn -0.3029 -0.0047 -0.9530
vn 0.8932 0.0569 0.4460
vn -0.8978 0.1183 -0.4243
vn -0.8916 -0.1059 0.4403
vn 0.3254 0.0122 0.9455
vn -0.8916 -0.1059 -0.4403
vn 0.8932 0.0569 -0.4460
vn -0.3540 -0.0467 0.9341
vn -0.3540 -0.0467 -0.9341
vn 0.3254 0.0122 -0.9455
vn -0.3532 -0.0627 -0.9334
vn -0.2794 0.0635 0.9581
vn 0.8474 -0.0753 0.5256
vn -0.8978 0.1183 0.4243
vn 0.3553 -0.0234 0.9345
vn -0.2794 0.0635 -0.9581
vn 0.8474 -0.0753 -0.5256
vn -0.3426 -0.9395 0.0000
vn 0.3553 -0.0234 -0.9345
vn -0.8861 -0.1118 0.4499
vn 0.3428 0.0292 0.9390
vn 0.8960 0.0845 -0.4358
vn -0.8861 -0.1118 -0.4499
vn -0.3532 -0.0627 0.9334
vn 0.8960 0.0845 0.4358
vn -0.7040 -0.7102 -0.0000
vn 0.2885 -0.9575 0.0000
vn 0.3681 0.0053 -0.9298
vn 0.8885 0.0060 -0.4588
vn 0.8885 0.0060 0.4588
vn 0.3681 0.0053 0.9298
vn -0.2903 0.0027 0.9569
vn -0.8841 -0.0026 0.4674
vn -0.8841 -0.0026 -0.4674
vn -0.2903 0.0027 -0.9569
vn 0.3428 0.0292 -0.9390
vn -0.4545 -0.3223 -0.8304
vn -0.6799 0.7028 0.2093
vn 0.9088 0.0484 0.4145
vn 0.7306 -0.6314 -0.2599
vn -0.3733 0.1610 -0.9136
vn -0.8815 -0.3385 0.3291
vn -0.9261 -0.1979 -0.3213
vn -0.9352 -0.2236 -0.2746
vn 0.3522 0.0769 0.9328
vn -0.3733 0.1610 0.9136
vn -0.4545 -0.3223 0.8304
vn 0.2004 -0.4357 -0.8775
vn 0.3522 0.0769 -0.9328
vn -0.8634 0.3001 -0.4057
vn 0.9088 0.0484 -0.4145
vn -0.8634 0.3001 0.4057
vn 0.2896 -0.7288 0.6204
vn 0.2004 -0.4357 0.8775
vn -0.9261 -0.1979 0.3213
vn 0.7306 -0.6314 0.2599
vn 0.8414 -0.4624 -0.2798
vn 0.4258 -0.4378 -0.7918
vn -0.3942 -0.3126 -0.8642
vn 0.8414 -0.4624 0.2798
vn -0.9352 -0.2236 0.2746
vn 0.3766 -0.2910 -0.8795
vn 0.4258 -0.4378 0.7918
vn -0.3942 -0.3126 0.8642
vn 0.3766 -0.2910 0.8795
vn 0.8893 -0.2445 -0.3865
vn -0.8815 -0.3385 -0.3291
vn -0.3476 -0.3041 -0.8869
vn -0.3476 -0.3041 0.8869
vn 0.8893 -0.2445 0.3865
vn -0.0731 -0.9973 -0.0000
vn -0.4186 -0.6546 0.6295
vn -0.7402 -0.6154 0.2708
vn 0.2896 -0.7288 -0.6204
vn -0.7402 -0.6154 -0.2708
vn -0.4186 -0.6546 -0.6295
vn 0.6603 -0.6912 0.2936
vn 0.6603 -0.6912 -0.2936
vn -0.8991 0.1381 0.4153
vn 0.8769 0.1864 0.4430
vn 0.3132 0.2371 0.9196
vn 0.3132 0.2371 -0.9196
vn -0.3274 0.1560 0.9319
vn -0.8991 0.1381 -0.4153
vn 0.8769 0.1864 -0.4430
vn -0.3274 0.1560 -0.9319
vn -0.3437 -0.0835 0.9353
vn 0.3842 -0.1366 0.9131
vn 0.9080 -0.0956 0.4080
vn -0.3437 -0.0835 -0.9353
vn 0.3842 -0.1366 -0.9131
vn 0.9080 -0.0956 -0.4080
vn -0.9009 0.1384 0.4114
vn -0.9009 0.1384 -0.4114
vn 0.8954 -0.2242 0.3847
vn -0.3891 -0.1443 0.9098
vn -0.3891 -0.1443 -0.9098
vn -0.9259 -0.0666 -0.3719
vn 0.8954 -0.2242 -0.3847
vn 0.2990 -0.2717 0.9147
vn 0.2990 -0.2717 -0.9147
vn -0.9259 -0.0666 0.3719
vn 0.7055 0.6537 -0.2738
vn 0.2743 0.3571 -0.8929
vn -0.6714 0.6851 -0.2826
vn 0.9265 0.1365 0.3507
vn 0.0819 0.7570 0.6483
vn -0.4709 0.5355 -0.7011
vn -0.4564 0.7546 0.4715
vn 0.7455 0.5538 -0.3708
vn 0.6221 0.7703 0.1403
vn -0.4653 0.8816 0.0791
vn -0.4612 0.8737 -0.1548
vn -0.4000 0.9121 0.0895
vn -0.4121 0.8982 -0.1532
vn -0.1924 0.9715 0.1386
vn -0.1527 0.9618 -0.2272
vn -0.3284 0.1481 0.9329
vn 0.3864 0.0043 0.9223
vn 0.8776 0.0052 0.4793
vn 0.8923 0.0064 -0.4514
vn 0.3716 0.0227 0.9281
vn -0.3106 0.0057 -0.9505
vn -0.8965 0.0132 -0.4429
vn -0.8947 0.0158 0.4464
vn -0.2898 0.0399 0.9563
vn 0.8995 0.0088 0.4369
vn 0.8948 0.0030 -0.4464
vn 0.3523 0.0039 -0.9359
vn -0.2865 0.0027 -0.9581
vn -0.9008 -0.0037 -0.4342
vn -0.8998 -0.0036 0.4362
vn -0.2707 0.0026 0.9627
vn 0.3680 0.0030 0.9298
vn 0.9063 -0.0004 0.4227
vn 0.9003 0.0087 -0.4353
vn 0.3464 0.0102 -0.9380
vn -0.8641 -0.0104 -0.5033
vn -0.8476 -0.0232 0.5301
vn -0.3188 -0.0274 0.9474
vn 0.3670 0.0193 0.9300
vn 0.9051 0.0706 0.4193
vn 0.8963 0.0819 -0.4359
vn 0.3344 0.0180 -0.9423
vn -0.8878 -0.0838 -0.4524
vn -0.8753 -0.1006 0.4730
vn 0.3690 -0.0000 -0.9294
vn -0.3104 0.0032 -0.9506
vn -0.3314 -0.0692 -0.9409
vn 0.3677 0.6796 -0.6348
vn -0.6844 0.7146 0.1449
vn 0.1595 -0.6288 -0.7610
vn -0.8207 -0.2832 0.4962
vn 0.0227 0.6242 -0.7810
vn -0.3046 0.6636 0.6833
vn -0.4849 -0.6820 -0.5475
vn -0.2510 -0.2690 0.9299
vn -0.5306 0.6753 -0.5124
vn -0.0292 0.6196 0.7843
vn -0.5525 -0.8332 -0.0247
vn 0.5190 -0.3000 0.8004
vn -0.6870 0.7167 0.1196
vn 0.5692 0.7152 0.4057
vn -0.2174 -0.8527 0.4750
vn 0.8665 -0.3539 0.3519
vn -0.4041 0.6683 0.6246
vn 0.6784 0.7265 -0.1093
vn 0.1544 -0.9319 0.3281
vn 0.7810 -0.3597 -0.5106
vn 0.1245 0.6556 0.7448
vn 0.4414 0.6884 -0.5755
vn 0.2303 -0.9706 -0.0707
vn 0.2224 -0.3443 -0.9121
vn 0.6088 0.6653 0.4321
vn -0.0414 0.6443 -0.7637
vn 0.2966 0.5919 0.7494
vn -0.0142 -0.9670 -0.2543
vn -0.3696 -0.3627 -0.8555
vn -0.5517 -0.1985 0.8101
vn 0.7239 0.6624 -0.1928
vn -0.5495 0.6895 -0.4718
vn 0.5432 0.6814 0.4906
vn -0.3059 -0.9442 -0.1224
vn -0.8593 -0.4344 -0.2701
vn 0.1938 -0.2727 0.9424
vn 0.4117 0.6521 -0.6366
vn -0.6965 0.7053 0.1322
vn 0.5301 0.7116 0.4611
vn -0.3673 -0.8877 0.2777
vn -0.7432 -0.4526 0.4928
vn 0.8478 -0.3567 0.3924
vn 0.0229 0.6400 -0.7681
vn -0.3281 0.6568 0.6790
vn 0.6883 0.7248 -0.0294
vn -0.1041 -0.7459 0.6578
vn -0.1508 -0.4404 0.8850
vn 0.7826 -0.3260 -0.5304
vn -0.6908 0.7191 0.0752
vn 0.1625 0.6585 0.7348
vn 0.4860 0.6917 -0.5342
vn 0.5714 -0.7478 -0.3381
vn 0.4065 -0.5029 0.7628
vn 0.2468 -0.2964 -0.9226
vn -0.0815 0.1969 0.9770
vn 0.5408 0.6955 0.4731
vn -0.0481 0.6611 -0.7488
vn 0.0857 -0.4433 -0.8923
vn 0.7889 -0.5910 0.1684
vn -0.3510 -0.2655 -0.8979
vn 0.6794 0.7219 -0.1311
vn -0.5425 0.6951 -0.4717
vn 0.6101 -0.6235 -0.4889
vn -0.8958 -0.2749 -0.3493
vn 0.1268 -0.0444 0.9909
usemtl DarkWood
s off
f 1//1 2//1 4//1 3//1
f 3//2 4//2 6//2 5//2
f 5//3 6//3 8//3 7//3
f 7//4 8//4 10//4 9//4
f 9//5 10//5 12//5 11//5
f 11//6 12//6 14//6 13//6
f 4//7 2//7 16//7 14//7 12//7 10//7 8//7 6//7
f 13//8 14//8 16//8 15//8
f 15//9 16//9 2//9 1//9
f 5//10 7//10 20//10 19//10
f 129//11 131//11 32//11 31//11
f 11//12 13//12 23//12 22//12
f 7//13 9//13 21//13 20//13
f 13//14 15//14 24//14 23//14
f 3//15 5//15 19//15 18//15
f 9//16 11//16 22//16 21//16
f 15//17 1//17 17//17 24//17
f 1//18 3//18 18//18 17//18
f 24//19 17//19 117//19 130//19
f 125//20 127//20 30//20 29//20
f 121//21 123//21 28//21 27//21
f 127//22 129//22 31//22 30//22
f 123//23 125//23 29//23 28//23
f 131//24 116//24 25//24 32//24
f 119//25 121//25 27//25 26//25
f 25//26 28//26 29//26 32//26
f 116//27 119//27 26//27 25//27
f 22//28 23//28 128//28 126//28
f 20//29 21//29 124//29 122//29
f 18//30 19//30 120//30 118//30
f 23//31 24//31 130//31 128//31
f 21//32 22//32 126//32 124//32
f 19//33 20//33 122//33 120//33
f 32//34 29//34 30//34 31//34
f 28//35 25//35 26//35 27//35
f 117//36 118//36 119//36 116//36
f 118//37 120//37 121//37 119//37
f 120//38 122//38 123//38 121//38
f 122//39 124//39 125//39 123//39
f 124//40 126//40 127//40 125//40
f 126//41 128//41 129//41 127//41
f 128//42 130//42 131//42 129//42
f 130//43 117//43 116//43 131//43
f 17//44 18//44 118//44 117//44
usemtl LightGrey
f 83//45 87//45 51//45 52//45
f 35//46 40//46 108//46 107//46
f 47//47 46//47 38//47 36//47
f 84//48 81//48 55//48 56//48
f 42//49 41//49 34//49 33//49
f 98//50 97//50 43//50 44//50
f 95//51 92//51 61//51 57//51
f 87//52 82//52 50//52 51//52
f 48//53 47//53 36//53 39//53
f 43//54 48//54 39//54 40//54
f 88//55 86//55 53//55 54//55
f 81//56 83//56 52//56 55//56
f 45//57 42//57 33//57 37//57
f 41//58 44//58 35//58 34//58
f 46//59 45//59 37//59 38//59
f 44//60 43//60 40//60 35//60
f 69//61 68//61 79//61 78//61
f 86//62 85//62 49//62 53//62
f 92//63 89//63 60//63 61//63
f 85//64 84//64 56//64 49//64
f 94//65 91//65 64//65 62//65
f 91//66 93//66 63//66 64//66
f 93//67 95//67 57//67 63//67
f 96//68 94//68 62//68 59//68
f 82//69 88//69 54//69 50//69
f 103//70 104//70 42//70 45//70
f 90//71 96//71 59//71 58//71
f 89//72 90//72 58//72 60//72
f 100//73 102//73 47//73 48//73
f 99//74 103//74 45//74 46//74
f 101//75 98//75 44//75 41//75
f 104//76 101//76 41//76 42//76
f 97//77 100//77 48//77 43//77
f 102//78 99//78 46//78 47//78
f 73//79 75//79 78//79 79//79 77//79 76//79 80//79 74//79
f 68//80 67//80 77//80 79//80
f 67//81 66//81 76//81 77//81
f 72//82 71//82 73//82 74//82
f 66//83 65//83 80//83 76//83
f 65//84 72//84 74//84 80//84
f 70//85 69//85 78//85 75//85
f 71//86 70//86 75//86 73//86
f 61//87 60//87 88//87 82//87
f 59//88 62//88 84//88 85//88
f 58//89 59//89 85//89 86//89
f 64//90 63//90 83//90 81//90
f 60//91 58//91 86//91 88//91
f 57//92 61//92 82//92 87//92
f 62//93 64//93 81//93 84//93
f 63//94 57//94 87//94 83//94
f 67//95 68//95 90//95 89//95
f 68//96 69//96 96//96 90//96
f 69//97 70//97 94//97 96//97
f 72//98 65//98 95//98 93//98
f 71//99 72//99 93//99 91//99
f 70//100 71//100 91//100 94//100
f 66//101 67//101 89//101 92//101
f 65//102 66//102 92//102 95//102
f 49//103 56//103 99//103 102//103
f 54//104 53//104 100//104 97//104
f 52//105 51//105 101//105 104//105
f 51//106 50//106 98//106 101//106
f 56//107 55//107 103//107 99//107
f 53//108 49//108 102//108 100//108
f 55//109 52//109 104//109 103//109
f 50//110 54//110 97//110 98//110
f 38//111 37//111 105//111 112//111
f 37//112 33//112 106//112 105//112
f 34//113 35//113 107//113 111//113
f 36//114 38//114 112//114 110//114
f 39//115 36//115 110//115 109//115
f 33//116 34//116 111//116 106//116
f 40//117 39//117 109//117 108//117
f 105//118 113//118 112//118
f 112//119 113//119 110//119
f 108//120 114//120 107//120
f 114//121 111//121 107//121
f 109//122 115//122 114//122 108//122
f 115//123 106//123 111//123 114//123
f 110//124 113//124 115//124 109//124
f 113//125 105//125 106//125 115//125
usemtl Yellow
f 133//126 135//126 134//126 132//126
f 135//127 137//127 136//127 134//127
f 137//128 139//128 138//128 136//128
f 139//129 141//129 140//129 138//129
f 151//130 153//130 152//130 150//130
f 143//131 145//131 144//131 142//131
f 145//132 147//132 146//132 144//132
f 147//133 149//133 148//133 146//133
f 149//134 151//134 150//134 148//134
f 153//135 155//135 154//135 152//135
f 155//136 157//136 156//136 154//136
f 157//137 159//137 158//137 156//137
f 159//138 161//138 160//138 158//138
f 161//139 163//139 162//139 160//139
f 163//140 165//140 164//140 162//140
f 165//141 167//141 166//141 164//141
f 167//142 169//142 168//142 166//142
f 169//143 171//143 170//143 168//143
f 171//144 173//144 172//144 170//144
f 173//145 175//145 174//145 172//145
f 177//146 179//146 178//146 176//146
f 179//147 181//147 180//147 178//147
f 181//148 183//148 182//148 180//148
f 183//149 185//149 184//149 182//149
f 185//150 187//150 186//150 184//150
f 187//151 189//151 188//151 186//151
f 189//152 191//152 190//152 188//152
f 193//153 195//153 194//153 192//153
f 195//154 197//154 196//154 194//154
f 141//155 143//155 142//155 140//155
f 175//156 177//156 176//156 174//156
f 191//157 193//157 192//157 190//157
f 172//158 174//158 240//158 238//158
f 146//159 148//159 214//159 212//159
f 175//160 173//160 239//160 241//160
f 149//161 147//161 213//161 215//161
f 174//162 176//162 242//162 240//162
f 148//163 150//163 216//163 214//163
f 177//164 175//164 241//164 243//164
f 151//165 149//165 215//165 217//165
f 176//166 178//166 244//166 242//166
f 150//167 152//167 218//167 216//167
f 179//168 177//168 243//168 245//168
f 153//169 151//169 217//169 219//169
f 178//170 180//170 246//170 244//170
f 152//171 154//171 220//171 218//171
f 181//172 179//172 245//172 247//172
f 155//173 153//173 219//173 221//173
f 180//174 182//174 248//174 246//174
f 154//175 156//175 222//175 220//175
f 183//176 181//176 247//176 249//176
f 157//177 155//177 221//177 223//177
f 182//178 184//178 250//178 248//178
f 156//179 158//179 224//179 222//179
f 185//180 183//180 249//180 251//180
f 159//181 157//181 223//181 225//181
f 184//182 186//182 252//182 250//182
f 158//183 160//183 226//183 224//183
f 132//184 134//184 200//184 198//184
f 187//185 185//185 251//185 253//185
f 161//186 159//186 225//186 227//186
f 135//187 133//187 199//187 201//187
f 186//188 188//188 254//188 252//188
f 160//189 162//189 228//189 226//189
f 134//190 136//190 202//190 200//190
f 189//191 187//191 253//191 255//191
f 163//192 161//192 227//192 229//192
f 137//193 135//193 201//193 203//193
f 188//194 190//194 256//194 254//194
f 162//195 164//195 230//195 228//195
f 136//196 138//196 204//196 202//196
f 191//197 189//197 255//197 257//197
f 165//198 163//198 229//198 231//198
f 139//199 137//199 203//199 205//199
f 190//200 192//200 258//200 256//200
f 164//201 166//201 232//201 230//201
f 138//202 140//202 206//202 204//202
f 193//203 191//203 257//203 259//203
f 167//204 165//204 231//204 233//204
f 141//205 139//205 205//205 207//205
f 192//206 194//206 260//206 258//206
f 166//207 168//207 234//207 232//207
f 140//208 142//208 208//208 206//208
f 195//209 193//209 259//209 261//209
f 169//210 167//210 233//210 235//210
f 143//211 141//211 207//211 209//211
f 194//212 196//212 262//212 260//212
f 168//213 170//213 236//213 234//213
f 142//214 144//214 210//214 208//214
f 197//215 195//215 261//215 263//215
f 171//216 169//216 235//216 237//216
f 145//217 143//217 209//217 211//217
f 170//218 172//218 238//218 236//218
f 144//219 146//219 212//219 210//219
f 173//220 171//220 237//220 239//220
f 147//221 145//221 211//221 213//221
f 197//222 263//222 262//222 196//222
