# Blender v2.79 (sub 0) OBJ File: 'Bathroom_Mirror2.blend'
# www.blender.org
mtllib Bathroom_Mirror2.mtl
o Bathroom_Mirror2_Cylinder.025
v 0.000000 -0.387197 0.008199
v 0.000000 -0.387197 -0.029548
v 0.134290 -0.335323 0.008199
v 0.134290 -0.335323 -0.029548
v 0.232598 -0.193599 0.008199
v 0.232598 -0.193599 -0.029548
v 0.268581 0.000000 0.008199
v 0.268581 0.000000 -0.029548
v 0.232598 0.193599 0.008199
v 0.232598 0.193599 -0.029548
v 0.134290 0.335323 0.008199
v 0.134290 0.335323 -0.029548
v 0.000000 0.387197 0.008199
v 0.000000 0.387197 -0.029548
v -0.134290 0.335323 0.008199
v -0.134290 0.335323 -0.029548
v -0.232598 0.193599 0.008199
v -0.232598 0.193599 -0.029548
v -0.268581 0.000000 0.008199
v -0.268581 0.000000 -0.029548
v -0.232598 -0.193599 0.008199
v -0.232598 -0.193599 -0.029548
v -0.134290 -0.335323 0.008199
v -0.134290 -0.335323 -0.029548
v -0.000000 -0.349116 0.008199
v 0.121083 -0.302343 0.008199
v 0.209721 -0.174558 0.008199
v 0.242165 0.000000 0.008199
v 0.209721 0.174558 0.008199
v 0.121083 0.302343 0.008199
v 0.000000 0.349116 0.008199
v -0.121083 0.302343 0.008199
v -0.209721 0.174558 0.008199
v -0.242165 0.000000 0.008199
v -0.209721 -0.174558 0.008199
v -0.121083 -0.302343 0.008199
v -0.000000 -0.336841 -0.002488
v 0.116825 -0.291713 -0.002488
v 0.202347 -0.168420 -0.002488
v 0.233651 0.000000 -0.002488
v 0.202347 0.168420 -0.002488
v 0.116825 0.291713 -0.002488
v 0.000000 0.336841 -0.002488
v -0.116825 0.291713 -0.002488
v -0.202347 0.168421 -0.002488
v -0.233651 0.000000 -0.002488
v -0.202347 -0.168420 -0.002488
v -0.116825 -0.291713 -0.002488
vn 0.3603 -0.9328 0.0000
vn 0.8217 -0.5700 0.0000
vn 0.9230 -0.3849 0.0000
vn 1.0000 -0.0000 -0.0000
vn 0.9230 0.3849 -0.0000
vn 0.8217 0.5700 -0.0000
vn 0.3603 0.9328 0.0000
vn -0.3603 0.9328 0.0000
vn -0.8217 0.5700 0.0000
vn -0.9230 0.3849 -0.0000
vn -1.0000 0.0000 0.0000
vn -0.9230 -0.3849 0.0000
vn 0.0000 -0.0000 -1.0000
vn -0.8217 -0.5700 0.0000
vn -0.3603 -0.9328 0.0000
vn 0.0000 0.0000 1.0000
vn 0.0000 -0.6566 0.7542
vn 0.4112 -0.5591 0.7199
vn 0.4606 -0.5308 0.7114
vn -0.7821 -0.0000 0.6231
vn -0.6914 -0.3076 0.6537
vn -0.7120 -0.2719 0.6474
vn 0.6914 0.3076 0.6537
vn 0.4112 0.5591 0.7199
vn 0.4606 0.5308 0.7114
vn 0.7120 0.2719 0.6474
vn 0.0000 0.6566 0.7542
vn -0.4112 0.5591 0.7199
vn -0.4606 0.5308 0.7114
vn 0.6914 -0.3076 0.6537
vn 0.7120 -0.2719 0.6474
vn -0.4112 -0.5591 0.7199
vn -0.4606 -0.5308 0.7114
vn -0.6914 0.3076 0.6537
vn -0.7120 0.2719 0.6474
vn 0.7821 -0.0000 0.6231
usemtl Black
s 1
f 1//1 2//1 4//1 3//1
f 3//2 4//2 6//3 5//3
f 5//3 6//3 8//4 7//4
f 7//4 8//4 10//5 9//5
f 9//5 10//5 12//6 11//6
f 11//7 12//7 14//7 13//7
f 13//8 14//8 16//8 15//8
f 15//9 16//9 18//10 17//10
f 17//10 18//10 20//11 19//11
f 19//11 20//11 22//12 21//12
f 4//13 2//13 24//13 22//13 20//13 18//13 16//13 14//13 12//13 10//13 8//13 6//13
f 21//12 22//12 24//14 23//14
f 23//15 24//15 2//15 1//15
f 17//16 19//16 34//16 33//16
f 31//17 32//18 44//19 43//17
f 15//16 17//16 33//16 32//16
f 13//16 15//16 32//16 31//16
f 11//16 13//16 31//16 30//16
f 9//16 11//16 30//16 29//16
f 7//16 9//16 29//16 28//16
f 23//16 1//16 25//16 36//16
f 1//16 3//16 26//16 25//16
f 5//16 7//16 28//16 27//16
f 21//16 23//16 36//16 35//16
f 3//16 5//16 27//16 26//16
f 19//16 21//16 35//16 34//16
f 28//20 29//21 41//22 40//20
f 35//23 36//24 48//25 47//26
f 25//27 26//28 38//29 37//27
f 32//18 33//30 45//31 44//19
f 29//21 30//32 42//33 41//22
f 36//24 25//27 37//27 48//25
f 26//28 27//34 39//35 38//29
f 33//30 34//36 46//36 45//31
f 30//32 31//17 43//17 42//33
f 27//34 28//20 40//20 39//35
f 34//36 35//23 47//26 46//36
usemtl Mirror
f 37//16 38//16 39//16 40//16 41//16 42//16 43//16 44//16 45//16 46//16 47//16 48//16
