# Blender v2.79 (sub 0) OBJ File: 'Bathroom_Mirror1.blend'
# www.blender.org
mtllib Bathroom_Mirror1.mtl
o Bathroom_Mirror1_Cube.018
v -0.315673 -0.442659 0.038301
v -0.315673 0.464631 0.038301
v 0.315673 -0.442659 0.038301
v 0.315673 0.464631 0.038301
v -0.252600 -0.386748 0.038301
v -0.252600 0.408720 0.038301
v 0.252600 0.408720 0.038301
v 0.252600 -0.386748 0.038301
v -0.324040 -0.431740 0.062007
v 0.324040 -0.431740 0.062007
v -0.324040 -0.465036 0.062007
v 0.324040 -0.465036 0.062007
v -0.257126 -0.396301 0.006195
v -0.257126 0.418273 0.006195
v 0.257126 0.418273 0.006195
v 0.257126 -0.396301 0.006195
v -0.257126 -0.396301 -0.003014
v -0.257126 0.418273 -0.003014
v 0.257126 0.418273 -0.003014
v 0.257126 -0.396301 -0.003014
v -0.315673 -0.442659 -0.038301
v -0.315673 0.464631 -0.038301
v 0.315673 -0.442659 -0.038301
v 0.315673 0.464631 -0.038301
v -0.252600 -0.386748 -0.038301
v -0.252600 0.408720 -0.038301
v 0.252600 0.408720 -0.038301
v 0.252600 -0.386748 -0.038301
v -0.252600 -0.386748 0.000000
v -0.252600 0.408720 0.000000
v 0.252600 0.408720 0.000000
v 0.252600 -0.386748 0.000000
v -0.324040 -0.431740 -0.039964
v 0.324040 -0.431740 -0.039964
v -0.324040 -0.465036 -0.039964
v 0.324040 -0.465036 -0.039964
v -0.257126 -0.396301 -0.006195
v -0.257126 0.418273 -0.006195
v 0.257126 0.418273 -0.006195
v 0.257126 -0.396301 -0.006195
v -0.257126 -0.396301 0.003014
v -0.257126 0.418273 0.003014
v 0.257126 0.418273 0.003014
v 0.257126 -0.396301 0.003014
vn -1.0000 0.0000 0.0000
vn 0.0000 0.0000 1.0000
vn 1.0000 0.0000 0.0000
vn 0.0000 -1.0000 0.0000
vn 0.0000 1.0000 0.0000
vn 0.0000 0.0000 -1.0000
usemtl Black
s off
f 21//1 1//1 2//1 22//1
f 3//2 4//2 7//2 8//2
f 3//3 23//3 24//3 4//3
f 1//4 21//4 23//4 3//4
f 5//5 8//5 32//5 29//5
f 2//2 1//2 5//2 6//2
f 1//2 3//2 8//2 5//2
f 4//2 2//2 6//2 7//2
f 6//3 5//3 29//3 30//3
f 7//4 6//4 30//4 31//4
f 8//1 7//1 31//1 32//1
f 11//4 35//4 36//4 12//4
f 12//3 36//3 34//3 10//3
f 10//2 9//2 11//2 12//2
f 33//1 35//1 11//1 9//1
f 23//6 28//6 27//6 24//6
f 25//5 29//5 32//5 28//5
f 22//6 26//6 25//6 21//6
f 21//6 25//6 28//6 23//6
f 24//6 27//6 26//6 22//6
f 26//3 30//3 29//3 25//3
f 27//4 31//4 30//4 26//4
f 28//1 32//1 31//1 27//1
f 34//6 36//6 35//6 33//6
f 4//5 24//5 22//5 2//5
f 10//5 34//5 33//5 9//5
usemtl Mirror
f 16//2 15//2 14//2 13//2
f 20//6 17//6 18//6 19//6
f 13//4 17//4 20//4 16//4
f 14//1 18//1 17//1 13//1
f 15//5 19//5 18//5 14//5
f 16//3 20//3 19//3 15//3
f 40//6 37//6 38//6 39//6
f 44//2 43//2 42//2 41//2
f 37//4 40//4 44//4 41//4
f 38//1 37//1 41//1 42//1
f 39//5 38//5 42//5 43//5
f 40//3 39//3 43//3 44//3
