# Blender v2.79 (sub 0) OBJ File: 'Bathroom_Bathtub.blend'
# www.blender.org
mtllib Bathroom_Bathtub.mtl
o Bathroom_Bathtub_Cube.015
v 0.732658 0.136698 1.394152
v 0.536924 0.136698 1.589886
v 0.536924 0.136698 -1.915692
v 0.732658 0.136698 -1.719959
v -0.732658 0.136698 -1.719959
v -0.536924 0.136698 -1.915692
v -0.536924 0.136698 1.589886
v -0.732658 0.136698 1.394152
v -0.589028 0.136698 1.775785
v -0.803755 0.136698 1.561057
v -0.803755 1.064736 1.561057
v -0.589028 1.064736 1.775785
v -0.803755 0.136698 -1.886864
v -0.589028 0.136698 -2.101591
v -0.589028 1.064736 -2.101591
v -0.803755 1.064736 -1.886864
v 0.803755 0.136698 1.561057
v 0.589028 0.136698 1.775785
v 0.589028 1.064736 1.775785
v 0.803755 1.064736 1.561057
v 0.589028 0.136698 -2.101591
v 0.803755 0.136698 -1.886864
v 0.803755 1.064736 -1.886864
v 0.589028 1.064736 -2.101591
v 0.732658 -0.007505 -1.719959
v 0.732658 -0.007505 1.394152
v -0.536924 -0.007505 -1.915692
v 0.536924 -0.007505 -1.915692
v -0.732658 -0.007505 1.394152
v -0.732658 -0.007505 -1.719959
v -0.536924 -0.007505 1.589886
v 0.536924 -0.007505 1.589886
v -0.523451 1.064736 1.663257
v -0.714272 1.064736 1.460027
v -0.714272 1.064736 -1.785834
v -0.523451 1.064736 -1.989064
v 0.523451 1.064736 -1.989064
v 0.714272 1.064736 -1.785834
v 0.714272 1.064736 1.460027
v 0.523451 1.064736 1.663257
v -0.523451 0.320136 1.663257
v -0.714272 0.320136 1.460027
v -0.714272 0.320136 -1.785834
v -0.523451 0.320136 -1.989064
v 0.523451 0.320136 -1.989064
v 0.714272 0.320136 -1.785834
v 0.714272 0.320136 1.460027
v 0.523451 0.320136 1.663257
v -0.468644 0.197094 1.454995
v -0.639485 0.197094 1.273044
v -0.639485 0.197094 -1.598851
v -0.468644 0.197094 -1.780802
v 0.468644 0.197094 -1.780802
v 0.639485 0.197094 -1.598851
v 0.639485 0.197094 1.273044
v 0.468644 0.197094 1.454995
v -0.130736 1.076636 -1.976284
v 0.130736 1.076636 -1.976284
v -0.130736 0.890666 -1.976284
v 0.130736 0.890666 -1.976284
v 0.130736 1.076636 -2.123951
v -0.130736 1.076636 -2.123951
v 0.130736 0.890666 -2.123951
v -0.130736 0.890666 -2.123951
v 0.000000 1.036948 -2.105886
v 0.000000 1.212070 -2.105886
v 0.038604 1.036948 -2.089895
v 0.038604 1.212070 -2.089895
v 0.054594 1.036948 -2.051292
v 0.054594 1.212070 -2.051292
v 0.038604 1.036948 -2.012688
v 0.038604 1.212070 -2.012688
v -0.000000 1.036948 -1.996698
v -0.000000 1.212070 -1.996698
v -0.038604 1.036948 -2.012688
v -0.038604 1.212070 -2.012688
v -0.054594 1.036948 -2.051292
v -0.054594 1.212070 -2.051292
v -0.038604 1.036948 -2.089895
v -0.038604 1.212070 -2.089895
v -0.000000 1.180685 -2.013444
v -0.000000 1.180503 -1.869324
v 0.020079 1.169093 -2.013444
v 0.020079 1.169002 -1.870774
v 0.020079 1.145908 -2.013444
v 0.020079 1.145999 -1.873672
v -0.000000 1.134315 -2.013444
v -0.000000 1.134497 -1.875122
v -0.020079 1.145908 -2.013444
v -0.020079 1.145999 -1.873672
v -0.020079 1.169093 -2.013444
v -0.020079 1.169002 -1.870774
v 0.020079 1.156038 -1.827114
v -0.000000 1.164695 -1.819404
v 0.020079 1.138724 -1.842534
v -0.000000 1.130067 -1.850244
v -0.020079 1.138724 -1.842534
v -0.020079 1.156038 -1.827114
v 0.024920 1.098084 -1.800091
v -0.000000 1.098084 -1.785728
v 0.024920 1.098084 -1.828816
v -0.000000 1.098084 -1.843179
v -0.024920 1.098084 -1.828816
v -0.024920 1.098084 -1.800091
v 0.038604 1.222152 -2.089850
v -0.000000 1.220114 -2.105549
v 0.054594 1.227074 -2.051948
v 0.038604 1.228510 -2.014046
v -0.000000 1.230548 -1.998347
v -0.038604 1.228510 -2.014046
v -0.054594 1.227074 -2.051948
v -0.038604 1.222152 -2.089850
v -0.000000 1.234260 -1.777140
v 0.038604 1.234260 -1.777140
v -0.038604 1.234260 -1.777140
v -0.000000 1.252702 -1.777140
v 0.038604 1.250664 -1.777140
v -0.038604 1.250664 -1.777140
v 0.000000 0.756059 -2.017517
v 0.000000 0.756059 -1.960611
v 0.044988 0.737425 -2.017517
v 0.044988 0.737425 -1.960611
v 0.063623 0.692436 -2.017517
v 0.063623 0.692436 -1.960611
v 0.044988 0.647448 -2.017517
v 0.044988 0.647448 -1.960611
v -0.000000 0.628813 -2.017517
v -0.000000 0.628813 -1.960611
v -0.044989 0.647448 -2.017517
v -0.044989 0.647448 -1.960611
v -0.063623 0.692436 -2.017517
v -0.063623 0.692436 -1.960611
v -0.044989 0.737425 -2.017517
v -0.044989 0.737425 -1.960611
vn 0.3827 0.0000 0.9239
vn -0.3827 0.0000 0.9239
vn 0.9239 0.0000 -0.3827
vn 0.9239 0.0000 0.3827
vn 0.0000 1.0000 -0.0000
vn -0.9239 0.0000 0.3827
vn -0.9239 0.0000 -0.3827
vn -0.3827 0.0000 -0.9239
vn 0.3827 0.0000 -0.9239
vn 0.0000 -1.0000 0.0000
vn -0.3972 0.0000 0.9177
vn 0.3972 0.0000 0.9177
vn 0.8364 0.4009 0.3738
vn 0.8364 0.4009 -0.3738
vn 0.4862 0.8697 -0.0855
vn 0.4862 0.8697 0.0855
vn 0.3972 0.0000 -0.9177
vn -0.3972 0.0000 -0.9177
vn -0.9298 0.0000 -0.3681
vn -0.8364 0.4009 -0.3738
vn 0.9298 0.0000 0.3681
vn -0.9298 0.0000 0.3681
vn -0.8364 0.4009 0.3738
vn 0.9298 0.0000 -0.3681
vn -0.4862 0.8697 0.0855
vn -0.1420 0.9469 0.2885
vn 0.1420 0.9469 0.2885
vn 0.1420 0.9469 -0.2885
vn -0.1420 0.9469 -0.2885
vn -0.4862 0.8697 -0.0855
vn -0.1866 0.8666 0.4629
vn 0.1866 0.8666 -0.4629
vn 0.1866 0.8666 0.4629
vn -0.1866 0.8666 -0.4629
vn 0.0000 0.0000 1.0000
vn 0.0000 0.0000 -1.0000
vn 1.0000 0.0000 0.0000
vn -1.0000 0.0000 0.0000
vn 0.0000 0.0105 -0.9999
vn 0.7057 0.0028 -0.7085
vn 0.7071 0.0000 -0.7071
vn 1.0000 0.0044 0.0054
vn 0.8848 0.0065 0.4659
vn 0.7071 0.0000 0.7071
vn -0.8848 0.0065 0.4659
vn -0.7071 0.0000 0.7071
vn -1.0000 0.0044 0.0054
vn -0.9801 0.0127 0.1983
vn -0.9999 0.0087 0.0100
vn -0.7057 0.0028 -0.7085
vn -0.7071 0.0000 -0.7071
vn 0.4985 0.8669 0.0008
vn 0.4934 0.8601 0.1292
vn 0.4933 0.8599 0.1312
vn 0.4985 -0.8669 0.0009
vn 0.4881 -0.8681 -0.0903
vn 0.4883 -0.8681 -0.0889
vn -0.4985 -0.8669 0.0009
vn -0.4883 -0.8681 -0.0889
vn -0.4881 -0.8681 -0.0903
vn -0.4738 -0.8620 -0.1801
vn -0.4985 0.8669 0.0008
vn -0.4933 0.8599 0.1312
vn -0.4934 0.8601 0.1292
vn -0.9989 0.0427 -0.0168
vn -0.9990 0.0423 -0.0166
vn -0.9959 0.0842 -0.0330
vn 0.9989 0.0427 -0.0168
vn 0.9990 0.0423 -0.0166
vn 0.5027 0.6590 0.5595
vn 0.5026 0.6575 0.5614
vn 0.4738 -0.8620 -0.1801
vn -0.5026 0.6575 0.5614
vn -0.5027 0.6590 0.5595
vn 0.4631 -0.2152 -0.8598
vn 0.4644 0.4025 0.7889
vn -0.4644 0.4025 0.7889
vn -0.4631 -0.2152 -0.8598
vn 0.9959 0.0842 -0.0330
vn 0.0000 0.9959 -0.0902
vn -0.0110 0.9957 -0.0922
vn 0.0000 0.9956 -0.0940
vn 0.0110 0.9957 -0.0922
vn 0.0000 -0.9953 0.0971
vn 0.0201 -0.9951 0.0970
vn -0.7206 0.0046 -0.6933
vn 0.7206 0.0046 -0.6933
vn 0.9999 0.0087 0.0100
vn -0.0330 0.9948 -0.0962
vn -0.0000 0.9954 -0.0963
vn 0.0000 0.0211 -0.9998
vn 0.9801 0.0127 0.1983
vn -0.0201 -0.9951 0.0970
vn 0.0330 0.9948 -0.0962
vn 0.7071 0.7071 0.0000
vn 0.7071 -0.7071 0.0000
vn -0.7071 -0.7071 0.0000
vn -0.7071 0.7071 0.0000
usemtl White
s 1
f 18//1 19//1 12//2 9//2
f 22//3 23//3 20//4 17//4
f 16//5 11//5 34//5 35//5
f 10//6 11//6 16//7 13//7
f 14//8 15//8 24//9 21//9
f 9//2 12//2 11//6 10//6
f 15//8 14//8 13//7 16//7
f 23//3 22//3 21//9 24//9
f 19//1 18//1 17//4 20//4
f 22//10 17//10 1//10 4//10
f 10//10 13//10 5//10 8//10
f 17//10 18//10 2//10 1//10
f 21//10 22//10 4//10 3//10
f 18//10 9//10 7//10 2//10
f 14//10 21//10 3//10 6//10
f 13//10 14//10 6//10 5//10
f 9//10 10//10 8//10 7//10
f 37//11 36//12 44//12 45//11
f 24//5 15//5 36//5 37//5
f 19//5 20//5 39//5 40//5
f 12//5 19//5 40//5 33//5
f 23//5 24//5 37//5 38//5
f 15//5 16//5 35//5 36//5
f 11//5 12//5 33//5 34//5
f 20//5 23//5 38//5 39//5
f 43//13 42//14 50//15 51//16
f 33//17 40//18 48//18 41//17
f 40//18 39//19 47//20 48//18
f 36//12 35//21 43//13 44//12
f 39//19 38//22 46//23 47//20
f 35//21 34//24 42//14 43//13
f 38//22 37//11 45//11 46//23
f 34//24 33//17 41//17 42//14
f 54//25 53//26 52//27 51//16 50//15 49//28 56//29 55//30
f 46//23 45//31 53//26 54//25
f 42//14 41//32 49//28 50//15
f 45//31 44//33 52//27 53//26
f 41//32 48//34 56//29 49//28
f 48//34 47//20 55//30 56//29
f 44//33 43//13 51//16 52//27
f 47//20 46//23 54//25 55//30
f 58//35 57//35 59//35 60//35
f 61//36 63//36 64//36 62//36
f 60//37 63//37 61//37 58//37
f 59//10 64//10 63//10 60//10
f 57//38 62//38 64//38 59//38
f 58//5 61//5 62//5 57//5
usemtl Grey
f 5//7 6//8 27//8 30//7
f 30//10 27//10 28//10 25//10 26//10 32//10 31//10 29//10
f 7//2 8//6 29//6 31//2
f 6//8 3//9 28//9 27//8
f 2//1 7//2 31//2 32//1
f 3//9 4//3 25//3 28//9
f 1//4 2//1 32//1 26//4
f 8//6 5//7 30//7 29//6
f 4//3 1//4 26//4 25//3
f 65//36 66//39 68//40 67//41
f 67//41 68//40 70//42 69//37
f 69//37 70//42 72//43 71//44
f 71//44 72//43 74//35 73//35
f 73//35 74//35 76//45 75//46
f 75//46 76//45 78//47 77//38
f 78//47 76//45 110//48 111//49
f 77//38 78//47 80//50 79//51
f 79//51 80//50 66//39 65//36
f 65//10 67//10 69//10 71//10 73//10 75//10 77//10 79//10
f 81//52 82//53 84//54 83//52
f 83//37 84//37 86//37 85//37
f 85//55 86//56 88//57 87//55
f 87//58 88//59 90//60 89//58
f 90//60 88//59 96//61 97//61
f 89//38 90//38 92//38 91//38
f 91//62 92//63 82//64 81//62
f 81//36 83//36 85//36 87//36 89//36 91//36
f 98//65 97//66 103//67 104//67
f 86//37 84//37 93//68 95//69
f 92//38 90//38 97//66 98//65
f 84//54 82//53 94//70 93//71
f 88//57 86//56 95//72 96//72
f 82//64 92//63 98//73 94//74
f 99//10 100//10 104//10 103//10 102//10 101//10
f 96//75 95//75 101//75 102//75
f 93//71 94//70 100//76 99//76
f 94//74 98//73 104//77 100//77
f 97//78 96//78 102//78 103//78
f 95//69 93//68 99//79 101//79
f 105//80 106//80 112//80 111//80 110//81 109//82 108//83 107//80
f 74//84 72//85 114//85 113//84
f 80//50 78//47 111//49 112//86
f 70//42 68//40 105//87 107//88
f 109//82 110//81 118//89 116//90
f 66//39 80//50 112//86 106//91
f 68//40 66//39 106//91 105//87
f 72//43 70//42 107//88 108//92
f 113//35 114//35 117//35 116//35
f 115//35 113//35 116//35 118//35
f 76//93 74//84 113//84 115//93
f 108//83 109//82 116//90 117//94
f 72//43 108//92 117//37 114//37
f 110//48 76//45 115//38 118//38
f 119//5 120//5 122//95 121//95
f 121//95 122//95 124//37 123//37
f 123//37 124//37 126//96 125//96
f 125//96 126//96 128//10 127//10
f 127//10 128//10 130//97 129//97
f 129//97 130//97 132//38 131//38
f 122//35 120//35 134//35 132//35 130//35 128//35 126//35 124//35
f 131//38 132//38 134//98 133//98
f 133//98 134//98 120//5 119//5
f 119//36 121//36 123//36 125//36 127//36 129//36 131//36 133//36
