# Blender v2.79 (sub 0) OBJ File: 'Chair_4.blend'
# www.blender.org
mtllib Chair_4.mtl
o Chair_4_Cube.009
v -0.276020 1.665779 -0.397253
v -0.236299 1.665779 -0.397253
v -0.276020 1.173564 -0.341759
v -0.236299 1.173564 -0.341759
v -0.172744 1.665779 -0.397253
v -0.133022 1.665779 -0.397253
v -0.172744 1.173564 -0.341759
v -0.133022 1.173564 -0.341759
v -0.069468 1.665779 -0.397253
v -0.029746 1.665779 -0.397253
v -0.069468 1.173564 -0.341759
v -0.029746 1.173564 -0.341759
v 0.033809 1.665779 -0.397253
v 0.073530 1.665779 -0.397253
v 0.033809 1.173564 -0.341759
v 0.073530 1.173564 -0.341759
v 0.137085 1.665779 -0.397253
v 0.176807 1.665779 -0.397253
v 0.137085 1.173564 -0.341759
v 0.176807 1.173564 -0.341759
v 0.240361 1.665779 -0.397253
v 0.280083 1.665779 -0.397253
v 0.240361 1.173564 -0.341759
v 0.280083 1.173564 -0.341759
v -0.236299 1.664412 -0.409522
v -0.276020 1.664412 -0.409522
v -0.276020 1.172197 -0.354028
v -0.236299 1.172197 -0.354028
v -0.133022 1.664412 -0.409522
v -0.172744 1.664412 -0.409522
v -0.172744 1.172197 -0.354028
v -0.133022 1.172197 -0.354028
v -0.029746 1.664412 -0.409522
v -0.069468 1.664412 -0.409522
v -0.069468 1.172197 -0.354028
v -0.029746 1.172197 -0.354028
v 0.073530 1.664412 -0.409522
v 0.033809 1.664412 -0.409522
v 0.033809 1.172197 -0.354028
v 0.073530 1.172197 -0.354028
v 0.176807 1.664412 -0.409522
v 0.137085 1.664412 -0.409522
v 0.137085 1.172197 -0.354028
v 0.176807 1.172197 -0.354028
v 0.280083 1.664412 -0.409522
v 0.240361 1.664412 -0.409522
v 0.240361 1.172197 -0.354028
v 0.280083 1.172197 -0.354028
v 0.309734 0.999236 -0.306871
v 0.309734 0.999236 -0.362741
v 0.365603 0.999236 -0.306871
v 0.365603 0.999236 -0.362741
v 0.319966 -0.003317 -0.317104
v 0.319966 -0.003317 -0.352508
v 0.355370 -0.003317 -0.352508
v 0.355370 -0.003317 -0.317104
v 0.304281 0.489822 -0.301418
v 0.304281 0.489822 -0.368193
v 0.371056 0.489822 -0.301418
v 0.371056 0.489822 -0.368193
v -0.309734 0.999236 -0.306871
v -0.309734 0.999236 -0.362741
v -0.365603 0.999236 -0.306871
v -0.365603 0.999236 -0.362741
v -0.319966 -0.003317 -0.317104
v -0.319966 -0.003317 -0.352508
v -0.355370 -0.003317 -0.352508
v -0.355370 -0.003317 -0.317104
v -0.304281 0.489822 -0.301418
v -0.304281 0.489822 -0.368193
v -0.371056 0.489822 -0.301418
v -0.371056 0.489822 -0.368193
v 0.302171 0.713915 0.299310
v 0.302171 0.713915 0.370304
v 0.373165 0.713915 0.299310
v 0.373165 0.713915 0.370304
v 0.319966 -0.003317 0.301119
v 0.319966 -0.003317 0.336523
v 0.355370 -0.003317 0.336523
v 0.355370 -0.003317 0.301119
v 0.304281 0.489822 0.301420
v 0.304281 0.489822 0.368195
v 0.371056 0.489822 0.301420
v 0.371056 0.489822 0.368195
v -0.302171 0.713915 0.299310
v -0.302171 0.713915 0.370304
v -0.373165 0.713915 0.299310
v -0.373165 0.713915 0.370304
v -0.319966 -0.003317 0.301119
v -0.319966 -0.003317 0.336523
v -0.355370 -0.003317 0.336523
v -0.355370 -0.003317 0.301119
v -0.304281 0.489822 0.301420
v -0.304281 0.489822 0.368195
v -0.371056 0.489822 0.301420
v -0.371056 0.489822 0.368195
v 0.312123 0.243252 0.302247
v 0.363213 0.243252 0.302247
v 0.312123 0.243252 0.353337
v 0.363213 0.243252 0.353337
v -0.312123 0.243252 0.302247
v -0.363213 0.243252 0.302247
v -0.312123 0.243252 0.353337
v -0.363213 0.243252 0.353337
v 0.302916 0.759193 -0.369558
v 0.372421 0.759193 -0.369558
v 0.302916 0.759193 -0.300054
v 0.372421 0.759193 -0.300054
v -0.303014 0.759193 -0.369460
v -0.372322 0.759193 -0.369460
v -0.303014 0.759193 -0.300152
v -0.372322 0.759193 -0.300152
v 0.309734 1.764456 -0.389198
v 0.309734 1.757036 -0.444572
v 0.365603 1.757036 -0.444572
v 0.365603 1.764456 -0.389198
v -0.309734 1.764456 -0.389198
v -0.309734 1.757036 -0.444572
v -0.365603 1.757036 -0.444572
v -0.365603 1.764456 -0.389198
v -0.380861 0.707450 0.380862
v -0.380861 0.776541 0.380862
v -0.380861 0.707450 -0.380860
v -0.380861 0.776541 -0.380860
v 0.380861 0.707450 0.380862
v 0.380861 0.776541 0.380862
v 0.380861 0.707450 -0.380860
v 0.380861 0.776541 -0.380860
v -0.348752 0.707450 0.348752
v -0.348752 0.707450 -0.348751
v 0.348752 0.707450 0.348752
v 0.348752 0.707450 -0.348751
v -0.348752 0.627634 -0.348751
v -0.348752 0.627634 0.348752
v 0.348752 0.627634 -0.348751
v 0.348752 0.627634 0.348752
v 0.309734 1.378136 -0.390990
v 0.365603 1.378136 -0.390990
v 0.365603 1.381846 -0.335368
v 0.309734 1.381846 -0.335368
v -0.309734 1.381846 -0.335368
v -0.365603 1.381846 -0.335368
v -0.365603 1.378136 -0.390990
v -0.309734 1.378136 -0.390990
v -0.335133 1.761929 -0.393341
v -0.335133 1.756824 -0.437865
v -0.335133 1.632674 -0.423630
v -0.335133 1.637779 -0.379107
v 0.354650 1.761929 -0.393341
v 0.354650 1.756824 -0.437865
v 0.354650 1.632674 -0.423630
v 0.354650 1.637779 -0.379107
v -0.335133 1.184270 -0.325884
v -0.335133 1.181409 -0.370607
v -0.335133 1.157942 -0.368391
v -0.335133 1.160803 -0.323667
v 0.354650 1.184270 -0.325884
v 0.354650 1.181409 -0.370607
v 0.354650 1.157942 -0.368391
v 0.354650 1.160803 -0.323667
vn 0.0000 0.1120 0.9937
vn 0.0000 -0.1120 -0.9937
vn 0.0000 -0.9938 0.1108
vn 1.0000 0.0000 0.0000
vn 0.0000 0.9938 -0.1108
vn -1.0000 0.0000 0.0000
vn 0.0000 -0.1072 -0.9942
vn 0.0000 -0.1400 -0.9901
vn 0.0000 -1.0000 0.0000
vn -0.9998 -0.0183 0.0000
vn -0.9995 -0.0318 0.0000
vn 0.0000 -0.0183 0.9998
vn 0.0000 -0.0318 0.9995
vn 0.0000 -0.0183 -0.9998
vn 0.0000 -0.0318 -0.9995
vn 0.9998 -0.0183 0.0000
vn 0.9995 -0.0318 0.0000
vn 0.9999 0.0115 0.0000
vn 0.0000 0.0115 -0.9999
vn 0.0000 0.0115 0.9999
vn -0.9999 0.0115 0.0000
vn 0.0000 0.1069 0.9943
vn 0.0000 0.1393 0.9902
vn 0.9998 -0.0181 0.0000
vn 0.0000 -0.0181 0.9998
vn 0.0000 -0.0181 -0.9998
vn -0.9998 -0.0181 0.0000
vn 0.0000 1.0000 0.0000
vn 0.0000 0.0005 -1.0000
vn 0.0000 0.0046 -1.0000
vn 0.0000 -0.0640 0.9979
vn 0.0000 -0.0680 0.9977
vn 1.0000 -0.0094 0.0000
vn 0.9998 -0.0204 0.0000
vn 0.9998 -0.0206 0.0000
vn 0.0000 -0.0094 1.0000
vn 0.0000 -0.0345 0.9994
vn 0.0000 -0.0094 -1.0000
vn 0.0000 -0.0064 -1.0000
vn -1.0000 -0.0094 0.0000
vn -0.9998 -0.0206 0.0000
vn -0.9998 -0.0204 0.0000
vn -0.9999 0.0140 0.0000
vn -0.9999 0.0147 0.0000
vn 0.0000 0.0511 0.9987
vn 0.0000 -0.0225 -0.9997
vn 0.9999 0.0147 0.0000
vn 0.9999 0.0140 0.0000
vn 0.9999 0.0138 0.0000
vn 0.9999 0.0145 0.0000
vn 0.0000 0.0509 0.9987
vn 0.0000 -0.0228 -0.9997
vn -0.9999 0.0145 0.0000
vn -0.9999 0.0138 0.0000
vn 0.0000 0.9911 -0.1328
vn 0.0000 0.0000 -1.0000
vn 0.0000 0.0000 1.0000
vn 0.0000 0.1139 0.9935
vn 0.0000 -0.1139 -0.9935
vn 0.0000 -0.9935 0.1139
vn 0.0000 0.9935 -0.1139
vn 0.0000 0.0940 0.9956
vn 0.0000 -0.0940 -0.9956
vn 0.0000 -0.9980 0.0638
vn 0.0000 0.9980 -0.0638
usemtl Wood
s off
f 3//1 4//1 2//1 1//1
f 7//1 8//1 6//1 5//1
f 11//1 12//1 10//1 9//1
f 15//1 16//1 14//1 13//1
f 19//1 20//1 18//1 17//1
f 23//1 24//1 22//1 21//1
f 27//2 26//2 25//2 28//2
f 31//2 30//2 29//2 32//2
f 35//2 34//2 33//2 36//2
f 39//2 38//2 37//2 40//2
f 43//2 42//2 41//2 44//2
f 47//2 46//2 45//2 48//2
f 11//3 35//3 36//3 12//3
f 4//4 28//4 25//4 2//4
f 19//3 43//3 44//3 20//3
f 12//4 36//4 33//4 10//4
f 6//5 29//5 30//5 5//5
f 20//4 44//4 41//4 18//4
f 14//5 37//5 38//5 13//5
f 5//6 30//6 31//6 7//6
f 22//5 45//5 46//5 21//5
f 13//6 38//6 39//6 15//6
f 7//3 31//3 32//3 8//3
f 21//6 46//6 47//6 23//6
f 15//3 39//3 40//3 16//3
f 8//4 32//4 29//4 6//4
f 23//3 47//3 48//3 24//3
f 2//5 25//5 26//5 1//5
f 16//4 40//4 37//4 14//4
f 10//5 33//5 34//5 9//5
f 24//4 48//4 45//4 22//4
f 1//6 26//6 27//6 3//6
f 18//5 41//5 42//5 17//5
f 9//6 34//6 35//6 11//6
f 3//3 27//3 28//3 4//3
f 17//6 42//6 43//6 19//6
s 1
f 138//7 137//7 114//8 115//8
f 55//9 56//9 53//9 54//9
f 58//10 54//11 53//11 57//10
f 57//12 53//13 56//13 59//12
f 60//14 55//15 54//15 58//14
f 59//16 56//17 55//17 60//16
f 108//18 59//16 60//16 106//18
f 106//19 60//14 58//14 105//19
f 107//20 57//12 59//12 108//20
f 105//21 58//10 57//10 107//21
f 142//22 141//22 117//23 120//23
f 67//9 66//9 65//9 68//9
f 70//24 69//24 65//17 66//17
f 69//25 71//25 68//13 65//13
f 72//26 70//26 66//15 67//15
f 71//27 72//27 67//11 68//11
f 112//21 110//21 72//27 71//27
f 110//19 109//19 70//26 72//26
f 111//20 112//20 71//25 69//25
f 109//18 111//18 69//24 70//24
f 76//28 75//28 73//28 74//28
f 79//9 78//9 77//9 80//9
f 99//11 97//11 77//11 78//11
f 97//29 98//29 80//30 77//30
f 100//31 99//31 78//32 79//32
f 98//17 100//17 79//17 80//17
f 75//33 76//33 84//34 83//35
f 76//36 74//36 82//37 84//37
f 73//38 75//38 83//39 81//39
f 74//40 73//40 81//41 82//42
f 88//28 86//28 85//28 87//28
f 91//9 92//9 89//9 90//9
f 103//17 90//17 89//17 101//17
f 101//29 89//30 92//30 102//29
f 104//31 91//32 90//32 103//31
f 102//11 92//11 91//11 104//11
f 87//40 95//41 96//42 88//40
f 88//36 96//37 94//37 86//36
f 85//38 93//39 95//39 87//38
f 86//33 94//34 93//35 85//33
f 83//35 84//34 100//17 98//17
f 84//37 82//37 99//31 100//31
f 81//39 83//39 98//29 97//29
f 82//42 81//41 97//11 99//11
f 95//41 102//11 104//11 96//42
f 96//37 104//31 103//31 94//37
f 93//39 101//29 102//29 95//39
f 94//34 103//17 101//17 93//35
f 50//43 105//21 107//21 49//44
f 49//45 107//20 108//20 51//45
f 52//46 106//19 105//19 50//46
f 51//47 108//18 106//18 52//48
f 62//49 61//50 111//18 109//18
f 61//51 63//51 112//20 111//20
f 64//52 62//52 109//19 110//19
f 63//53 64//54 110//21 112//21
f 115//55 114//55 113//55 116//55
f 119//55 120//55 117//55 118//55
f 144//7 143//7 119//8 118//8
f 139//4 138//4 115//4 116//4
f 143//6 142//6 120//6 119//6
f 137//6 140//6 113//6 114//6
f 141//4 144//4 118//4 117//4
f 140//22 139//22 116//23 113//23
f 121//6 122//6 124//6 123//6
f 123//56 124//56 128//56 127//56
f 127//4 128//4 126//4 125//4
f 125//57 126//57 122//57 121//57
f 123//9 127//9 125//9 121//9
f 128//28 124//28 122//28 126//28
f 130//28 129//28 131//28 132//28
f 133//9 135//9 136//9 134//9
f 129//6 130//6 133//6 134//6
f 131//57 129//57 134//57 136//57
f 130//56 132//56 135//56 133//56
f 132//4 131//4 136//4 135//4
f 49//45 51//45 139//22 140//22
f 50//43 49//44 140//6 137//6
f 51//47 52//48 138//4 139//4
f 52//46 50//46 137//7 138//7
f 61//50 62//49 144//4 141//4
f 64//54 63//53 142//6 143//6
f 62//52 64//52 143//7 144//7
f 63//51 61//51 141//22 142//22
f 147//6 148//6 145//6 146//6
f 151//4 150//4 149//4 152//4
f 145//58 148//58 152//58 149//58
f 147//59 146//59 150//59 151//59
f 148//60 147//60 151//60 152//60
f 146//61 145//61 149//61 150//61
f 155//6 156//6 153//6 154//6
f 159//4 158//4 157//4 160//4
f 153//62 156//62 160//62 157//62
f 155//63 154//63 158//63 159//63
f 156//64 155//64 159//64 160//64
f 154//65 153//65 157//65 158//65
