# Blender v2.79 (sub 0) OBJ File: 'Column_SquareSmall.blend'
# www.blender.org
mtllib Column_SquareSmall.mtl
o Column_SquareSmall_Cube.063
v 0.441723 0.115417 -0.441723
v 0.453634 0.000000 -0.453634
v 0.441723 0.115417 0.441723
v 0.453634 0.000000 0.453634
v -0.441723 0.115417 -0.441723
v -0.453634 0.000000 -0.453634
v -0.441723 0.115417 0.441723
v -0.453634 0.000000 0.453634
v 0.418300 0.119783 0.418300
v 0.418300 0.119783 -0.418300
v -0.418300 0.119783 0.418300
v -0.418300 0.119783 -0.418300
v 0.418300 0.144521 0.418300
v 0.418300 0.144521 -0.418300
v -0.418300 0.144521 0.418300
v -0.418300 0.144521 -0.418300
v 0.443957 0.144521 0.443957
v 0.443957 0.144521 -0.443957
v -0.443957 0.144521 0.443957
v -0.443957 0.144521 -0.443957
v 0.430432 0.176536 0.430432
v 0.430432 0.176536 -0.430432
v -0.430432 0.176536 0.430432
v -0.430432 0.176536 -0.430432
v 0.357322 0.201275 0.357322
v 0.357322 0.201275 -0.357322
v -0.357322 0.201275 0.357322
v -0.357322 0.201275 -0.357322
v 0.238791 2.051721 0.238791
v 0.238791 2.051721 -0.238791
v -0.238791 2.051721 0.238791
v -0.238791 2.051721 -0.238791
v 0.260436 2.051721 0.260436
v 0.260436 2.051721 -0.260436
v -0.260436 2.051721 0.260436
v -0.260436 2.051721 -0.260436
v 0.260436 2.102416 0.260436
v 0.260436 2.102416 -0.260436
v -0.260436 2.102416 0.260436
v -0.260436 2.102416 -0.260436
v -0.338346 2.366915 -0.338346
v -0.338346 2.366915 0.338346
v 0.338346 2.366915 -0.338346
v 0.338346 2.366915 0.338346
v 0.307777 2.154963 0.307777
v 0.307777 2.154963 -0.307777
v -0.307777 2.154963 0.307777
v -0.307777 2.154963 -0.307777
v 0.307777 2.337786 0.307777
v 0.307777 2.337786 -0.307777
v -0.307777 2.337786 0.307777
v -0.307777 2.337786 -0.307777
v -0.353845 2.447020 -0.353845
v -0.353845 2.447020 0.353845
v 0.353845 2.447020 0.353845
v 0.353845 2.447020 -0.353845
v -0.336752 2.406968 0.336752
v 0.336752 2.406968 0.336752
v -0.336752 2.406968 -0.336752
v 0.336752 2.406968 -0.336752
v 0.262952 1.674525 -0.262952
v -0.262952 1.674525 -0.262952
v -0.262952 1.674525 0.262952
v 0.262952 1.674525 0.262952
v 0.257582 1.758358 -0.257582
v -0.257582 1.758358 0.257582
v -0.257582 1.758358 -0.257582
v 0.257582 1.758358 0.257582
v -0.287994 1.747801 -0.287994
v 0.287994 1.747801 0.287994
v 0.287994 1.747801 -0.287994
v -0.287994 1.747801 0.287994
v -0.280255 1.688327 -0.280255
v 0.280255 1.688327 0.280255
v 0.280255 1.688327 -0.280255
v -0.280255 1.688327 0.280255
vn 0.9947 0.1027 0.0000
vn 0.0000 0.1027 0.9947
vn -0.9947 0.1027 0.0000
vn 0.0000 0.1027 -0.9947
vn -0.0924 0.9914 -0.0924
vn 0.0924 0.9914 -0.0924
vn 0.0000 -1.0000 0.0000
vn -1.0000 0.0000 0.0000
vn 0.0924 0.9914 0.0924
vn -0.0924 0.9914 0.0924
vn 1.0000 0.0000 0.0000
vn 0.0000 0.0000 -1.0000
vn 0.0000 0.0000 1.0000
vn -0.9212 0.3891 0.0000
vn -0.1645 0.9725 0.1645
vn -0.1645 0.9725 -0.1645
vn 0.9212 0.3891 0.0000
vn 0.0000 0.3891 -0.9212
vn 0.0000 0.3891 0.9212
vn 0.0000 0.0639 -0.9980
vn 0.1645 0.9725 -0.1645
vn 0.1645 0.9725 0.1645
vn 0.0000 0.0639 0.9980
vn -0.9980 0.0639 0.0000
vn 0.9980 0.0639 0.0000
vn 0.0000 -0.2016 0.9795
vn 0.0000 -0.3925 0.9197
vn 0.0000 -0.6693 -0.7429
vn -0.7429 -0.6693 0.0000
vn 0.6899 -0.7239 0.0000
vn 0.0000 -0.6693 0.7429
vn 0.0000 1.0000 0.0000
vn -0.6899 -0.7239 0.0000
vn 0.0000 -0.7239 -0.6899
vn 0.0000 -0.7239 0.6899
vn 0.7429 -0.6693 0.0000
vn -0.9795 -0.2016 0.0000
vn -0.9197 -0.3925 0.0000
vn 0.0000 -0.2016 -0.9795
vn 0.0000 -0.3925 -0.9197
vn 0.9795 -0.2016 0.0000
vn 0.9197 -0.3925 0.0000
vn 0.9992 0.0398 0.0000
vn 0.0000 0.0398 -0.9992
vn -0.9992 0.0398 0.0000
vn 0.0000 0.0398 0.9992
vn 0.1686 0.9712 -0.1686
vn 0.1686 0.9712 0.1686
vn -0.1686 0.9712 0.1686
vn -0.1686 0.9712 -0.1686
vn 0.0000 -0.1290 -0.9916
vn 0.0000 -0.1290 0.9916
vn -0.9916 -0.1290 0.0000
vn 0.9916 -0.1290 0.0000
vn 0.6236 -0.7818 0.0000
vn -0.6236 -0.7818 0.0000
vn 0.0000 -0.7817 0.6236
vn 0.0000 -0.7817 -0.6236
usemtl Marble
s 1
f 1//1 3//1 4//1 2//1
f 3//2 7//2 8//2 4//2
f 7//3 5//3 6//3 8//3
f 5//4 1//4 2//4 6//4
f 5//5 12//5 10//6 1//6
f 8//7 6//7 2//7 4//7
f 11//8 15//8 16//8 12//8
f 3//9 9//9 11//10 7//10
f 1//6 10//6 9//9 3//9
f 7//10 11//10 12//5 5//5
f 16//7 20//7 18//7 14//7
f 10//11 14//11 13//11 9//11
f 12//12 16//12 14//12 10//12
f 9//13 13//13 15//13 11//13
f 19//14 23//14 24//14 20//14
f 13//7 17//7 19//7 15//7
f 15//7 19//7 20//7 16//7
f 14//7 18//7 17//7 13//7
f 23//15 27//15 28//16 24//16
f 18//17 22//17 21//17 17//17
f 20//18 24//18 22//18 18//18
f 17//19 21//19 23//19 19//19
f 67//20 32//20 30//20 65//20
f 22//21 26//21 25//22 21//22
f 24//16 28//16 26//21 22//21
f 21//22 25//22 27//15 23//15
f 31//7 35//7 36//7 32//7
f 68//23 29//23 31//23 66//23
f 66//24 31//24 32//24 67//24
f 65//25 30//25 29//25 68//25
f 34//11 38//11 37//11 33//11
f 30//7 34//7 33//7 29//7
f 32//7 36//7 34//7 30//7
f 29//7 33//7 35//7 31//7
f 58//26 55//27 54//27 57//26
f 36//12 40//12 38//12 34//12
f 33//13 37//13 39//13 35//13
f 35//8 39//8 40//8 36//8
f 38//28 40//28 48//28 46//28
f 39//29 47//29 48//29 40//29
f 50//30 43//30 44//30 49//30
f 39//31 37//31 45//31 47//31
f 48//12 52//12 50//12 46//12
f 55//32 56//32 53//32 54//32
f 51//33 42//33 41//33 52//33
f 52//34 41//34 43//34 50//34
f 49//35 44//35 42//35 51//35
f 45//13 49//13 51//13 47//13
f 47//8 51//8 52//8 48//8
f 46//11 50//11 49//11 45//11
f 37//36 38//36 46//36 45//36
f 57//37 54//38 53//38 59//37
f 59//39 53//40 56//40 60//39
f 60//41 56//42 55//42 58//41
f 43//43 60//41 58//41 44//43
f 41//44 59//39 60//39 43//44
f 42//45 57//37 59//37 41//45
f 44//46 58//26 57//26 42//46
f 26//25 61//25 64//25 25//25
f 27//24 63//24 62//24 28//24
f 25//23 64//23 63//23 27//23
f 28//20 62//20 61//20 26//20
f 71//47 65//47 68//48 70//48
f 72//49 66//49 67//50 69//50
f 70//48 68//48 66//49 72//49
f 69//50 67//50 65//47 71//47
f 73//51 69//51 71//51 75//51
f 74//52 70//52 72//52 76//52
f 76//53 72//53 69//53 73//53
f 75//54 71//54 70//54 74//54
f 61//55 75//55 74//55 64//55
f 63//56 76//56 73//56 62//56
f 64//57 74//57 76//57 63//57
f 62//58 73//58 75//58 61//58
