# Blender v2.79 (sub 0) OBJ File: 'Column_SquareBig.blend'
# www.blender.org
mtllib Column_SquareBig.mtl
o Column_SquareBig_Cube.062
v 0.441724 0.115417 -0.441723
v 0.453635 0.000000 -0.453634
v 0.441724 0.115417 0.441723
v 0.453635 0.000000 0.453634
v -0.441722 0.115417 -0.441723
v -0.453634 0.000000 -0.453634
v -0.441722 0.115417 0.441723
v -0.453634 0.000000 0.453634
v 0.418301 0.119783 0.418300
v 0.418301 0.119783 -0.418300
v -0.418299 0.119783 0.418300
v -0.418299 0.119783 -0.418300
v 0.418301 0.144521 0.418300
v 0.418301 0.144521 -0.418300
v -0.418299 0.144521 0.418300
v -0.418299 0.144521 -0.418300
v 0.443958 0.144521 0.443957
v 0.443958 0.144521 -0.443957
v -0.443956 0.144521 0.443957
v -0.443956 0.144521 -0.443957
v 0.430433 0.176536 0.430432
v 0.430433 0.176536 -0.430432
v -0.430431 0.176536 0.430432
v -0.430431 0.176536 -0.430432
v 0.357323 0.201275 0.357322
v 0.357323 0.201275 -0.357322
v -0.357321 0.201275 0.357322
v -0.357321 0.201275 -0.357322
v 0.287538 3.682601 0.287537
v 0.287538 3.682601 -0.287537
v -0.287536 3.682601 0.287537
v -0.287536 3.682601 -0.287537
v 0.313601 3.682601 0.313600
v 0.313601 3.682601 -0.313600
v -0.313599 3.682601 0.313600
v -0.313599 3.682601 -0.313600
v 0.313601 3.743645 0.313600
v 0.313601 3.743645 -0.313600
v -0.313599 3.743645 0.313600
v -0.313599 3.743645 -0.313600
v -0.407414 4.062138 -0.407414
v -0.407414 4.062138 0.407414
v 0.407415 4.062138 -0.407414
v 0.407415 4.062138 0.407414
v 0.370607 3.806919 0.370606
v 0.370607 3.806919 -0.370606
v -0.370605 3.806919 0.370606
v -0.370605 3.806919 -0.370606
v 0.370607 4.027062 0.370606
v 0.370607 4.027062 -0.370606
v -0.370605 4.027062 0.370606
v -0.370605 4.027062 -0.370606
v -0.426077 4.158595 -0.426078
v -0.426077 4.158595 0.426078
v 0.426078 4.158595 0.426078
v 0.426078 4.158595 -0.426078
v -0.405495 4.110367 0.405496
v 0.405497 4.110367 0.405496
v -0.405495 4.110367 -0.405496
v 0.405497 4.110367 -0.405496
v -0.294580 3.331193 -0.294581
v 0.294582 3.331193 0.294581
v 0.294582 3.331193 -0.294581
v -0.294580 3.331193 0.294581
v -0.297029 3.209023 -0.297030
v 0.297031 3.209023 0.297030
v 0.297031 3.209023 -0.297030
v -0.297029 3.209023 0.297030
v 0.315248 3.209023 -0.315248
v 0.328456 3.331193 -0.328455
v -0.315247 3.209023 0.315248
v -0.328455 3.331193 0.328455
v 0.328456 3.331193 0.328455
v -0.328455 3.331193 -0.328455
v -0.315247 3.209023 -0.315248
v 0.315248 3.209023 0.315248
v -0.354023 0.365786 -0.354024
v 0.354025 0.365786 0.354024
v 0.354025 0.365786 -0.354024
v -0.354023 0.365786 0.354024
v 0.351746 0.479460 -0.351745
v -0.351745 0.479460 0.351745
v -0.351745 0.479460 -0.351745
v 0.351746 0.479460 0.351745
v -0.367334 0.479460 -0.367335
v -0.384011 0.365786 -0.384012
v 0.367336 0.479460 0.367335
v 0.384012 0.365786 0.384012
v 0.384012 0.365786 -0.384012
v -0.384011 0.365786 0.384012
v 0.367336 0.479460 -0.367335
v -0.367334 0.479460 0.367335
vn 0.9947 0.1027 0.0000
vn 0.0000 0.1027 0.9947
vn -0.9947 0.1027 0.0000
vn 0.0000 0.1027 -0.9947
vn -0.0924 0.9914 -0.0924
vn 0.0924 0.9914 -0.0924
vn 0.0000 -1.0000 0.0000
vn -1.0000 0.0000 0.0000
vn 0.0924 0.9914 0.0924
vn -0.0924 0.9914 0.0924
vn 1.0000 0.0000 0.0000
vn 0.0000 0.0000 -1.0000
vn 0.0000 0.0000 1.0000
vn -0.9212 0.3891 0.0000
vn -0.1645 0.9725 0.1645
vn -0.1645 0.9725 -0.1645
vn 0.9212 0.3891 0.0000
vn 0.0000 0.3891 -0.9212
vn 0.0000 0.3891 0.9212
vn 0.1645 0.9725 -0.1645
vn 0.1645 0.9725 0.1645
vn 0.0000 0.0200 -0.9998
vn 0.0000 0.0200 0.9998
vn -0.9998 0.0200 0.0000
vn 0.0000 -0.2016 0.9795
vn 0.0000 -0.3925 0.9197
vn 0.0000 -0.6693 -0.7430
vn -0.7429 -0.6693 0.0000
vn 0.6899 -0.7239 0.0000
vn 0.0000 -0.6693 0.7430
vn 0.0000 1.0000 0.0000
vn -0.6899 -0.7239 0.0000
vn 0.0000 -0.7239 -0.6899
vn 0.0000 -0.7239 0.6899
vn 0.7429 -0.6693 0.0000
vn -0.9795 -0.2016 0.0000
vn -0.9197 -0.3925 0.0000
vn 0.0000 -0.2016 -0.9795
vn 0.0000 -0.3925 -0.9197
vn 0.9795 -0.2016 0.0000
vn 0.9197 -0.3925 0.0000
vn 0.9992 0.0398 0.0000
vn 0.0000 0.0398 -0.9992
vn -0.9992 0.0398 0.0000
vn 0.0000 0.0398 0.9992
vn 0.9998 0.0200 0.0000
vn 0.9942 -0.1075 0.0000
vn -0.9942 -0.1075 0.0000
vn 0.0000 -0.1075 0.9942
vn 0.0000 -0.1075 -0.9942
vn 0.0000 0.1452 0.9894
vn 0.0000 0.1452 -0.9894
vn 0.9894 0.1452 0.0000
vn -0.9894 0.1452 0.0000
usemtl Marble
s 1
f 1//1 3//1 4//1 2//1
f 3//2 7//2 8//2 4//2
f 7//3 5//3 6//3 8//3
f 5//4 1//4 2//4 6//4
f 5//5 12//5 10//6 1//6
f 8//7 6//7 2//7 4//7
f 11//8 15//8 16//8 12//8
f 3//9 9//9 11//10 7//10
f 1//6 10//6 9//9 3//9
f 7//10 11//10 12//5 5//5
f 16//7 20//7 18//7 14//7
f 10//11 14//11 13//11 9//11
f 12//12 16//12 14//12 10//12
f 9//13 13//13 15//13 11//13
f 19//14 23//14 24//14 20//14
f 13//7 17//7 19//7 15//7
f 15//7 19//7 20//7 16//7
f 14//7 18//7 17//7 13//7
f 23//15 27//15 28//16 24//16
f 18//17 22//17 21//17 17//17
f 20//18 24//18 22//18 18//18
f 17//19 21//19 23//19 19//19
f 22//20 26//20 25//21 21//21
f 24//16 28//16 26//20 22//20
f 21//21 25//21 27//15 23//15
f 31//7 35//7 36//7 32//7
f 77//22 79//22 26//22 28//22
f 78//23 80//23 27//23 25//23
f 61//24 64//24 31//24 32//24
f 34//11 38//11 37//11 33//11
f 30//7 34//7 33//7 29//7
f 32//7 36//7 34//7 30//7
f 29//7 33//7 35//7 31//7
f 58//25 55//26 54//26 57//25
f 36//12 40//12 38//12 34//12
f 33//13 37//13 39//13 35//13
f 35//8 39//8 40//8 36//8
f 38//27 40//27 48//27 46//27
f 39//28 47//28 48//28 40//28
f 50//29 43//29 44//29 49//29
f 39//30 37//30 45//30 47//30
f 48//12 52//12 50//12 46//12
f 55//31 56//31 53//31 54//31
f 51//32 42//32 41//32 52//32
f 52//33 41//33 43//33 50//33
f 49//34 44//34 42//34 51//34
f 45//13 49//13 51//13 47//13
f 47//8 51//8 52//8 48//8
f 46//11 50//11 49//11 45//11
f 37//35 38//35 46//35 45//35
f 57//36 54//37 53//37 59//36
f 59//38 53//39 56//39 60//38
f 60//40 56//41 55//41 58//40
f 43//42 60//40 58//40 44//42
f 41//43 59//38 60//38 43//43
f 42//44 57//36 59//36 41//44
f 44//45 58//25 57//25 42//45
f 62//46 63//46 30//46 29//46
f 68//7 71//7 75//7 65//7
f 66//7 76//7 71//7 68//7
f 29//23 31//23 64//23 62//23
f 32//22 30//22 63//22 61//22
f 83//24 82//24 68//24 65//24
f 84//46 81//46 67//46 66//46
f 61//31 74//31 72//31 64//31
f 63//31 70//31 74//31 61//31
f 76//47 69//47 70//47 73//47
f 75//48 71//48 72//48 74//48
f 73//49 72//49 71//49 76//49
f 74//50 70//50 69//50 75//50
f 64//31 72//31 73//31 62//31
f 65//7 75//7 69//7 67//7
f 62//31 73//31 70//31 63//31
f 67//7 69//7 76//7 66//7
f 25//46 26//46 79//46 78//46
f 28//24 27//24 80//24 77//24
f 82//31 92//31 87//31 84//31
f 79//7 89//7 88//7 78//7
f 65//22 67//22 81//22 83//22
f 66//23 68//23 82//23 84//23
f 83//31 85//31 92//31 82//31
f 78//7 88//7 90//7 80//7
f 87//51 92//51 90//51 88//51
f 85//52 91//52 89//52 86//52
f 88//53 89//53 91//53 87//53
f 86//54 90//54 92//54 85//54
f 77//7 86//7 89//7 79//7
f 80//7 90//7 86//7 77//7
f 84//31 87//31 91//31 81//31
f 81//31 91//31 85//31 83//31
