# Blender v2.79 (sub 0) OBJ File: 'Curtains_Single.blend'
# www.blender.org
mtllib Curtains_Single.mtl
o Curtains_Single_Cylinder.031
v -0.648087 4.209802 -0.092484
v -0.648087 4.185942 -0.082601
v -0.648087 4.176059 -0.058741
v -0.648087 4.185942 -0.034881
v -0.648087 4.209802 -0.024998
v -0.648087 4.233662 -0.034881
v -0.648087 4.243545 -0.058741
v -0.648087 4.233662 -0.082601
v -0.726700 4.233662 -0.420770
v -0.747310 4.243545 -0.420770
v -0.767920 4.233662 -0.420770
v -0.776457 4.209802 -0.420770
v -0.767920 4.185942 -0.420770
v -0.747310 4.176059 -0.420770
v -0.726700 4.185942 -0.420770
v -0.718162 4.209802 -0.420770
v -0.718162 4.209802 -0.150829
v -0.726700 4.185942 -0.145849
v -0.747310 4.176059 -0.133828
v -0.767920 4.185942 -0.121807
v -0.776457 4.209802 -0.116828
v -0.767920 4.233662 -0.121807
v -0.747310 4.243545 -0.133828
v -0.726700 4.233662 -0.145849
v -0.696466 4.233662 -0.098879
v -0.707084 4.243545 -0.077513
v -0.717703 4.233662 -0.056146
v -0.722102 4.209802 -0.047296
v -0.717703 4.185942 -0.056146
v -0.707084 4.176059 -0.077513
v -0.696466 4.185942 -0.098879
v -0.692067 4.209802 -0.107729
v 0.727166 4.209803 -0.092484
v 0.727166 4.185943 -0.082601
v 0.727166 4.176060 -0.058741
v 0.727166 4.185943 -0.034881
v 0.727166 4.209803 -0.024998
v 0.727166 4.233663 -0.034881
v 0.727166 4.243546 -0.058741
v 0.727166 4.233663 -0.082601
v 0.805779 4.233663 -0.420771
v 0.826389 4.243546 -0.420771
v 0.847000 4.233663 -0.420771
v 0.855537 4.209803 -0.420771
v 0.847000 4.185943 -0.420771
v 0.826389 4.176060 -0.420771
v 0.805779 4.185943 -0.420771
v 0.797242 4.209803 -0.420771
v 0.797242 4.209803 -0.150829
v 0.805779 4.185943 -0.145850
v 0.826389 4.176060 -0.133829
v 0.847000 4.185943 -0.121808
v 0.855537 4.209803 -0.116828
v 0.847000 4.233663 -0.121808
v 0.826389 4.243546 -0.133829
v 0.805779 4.233663 -0.145850
v 0.775545 4.233663 -0.098880
v 0.786164 4.243546 -0.077513
v 0.796783 4.233663 -0.056146
v 0.801181 4.209803 -0.047296
v 0.796783 4.185943 -0.056146
v 0.786164 4.176060 -0.077513
v 0.775545 4.185943 -0.098880
v 0.771146 4.209803 -0.107730
v 0.595913 0.086238 -0.000000
v -0.425652 0.086238 -0.000000
v -0.085130 0.086238 -0.000000
v 0.255391 0.086238 -0.000000
v -0.595913 0.086238 -0.000000
v -0.255391 0.086238 -0.000000
v 0.085130 0.086238 -0.000000
v 0.425652 0.086238 -0.000000
v 0.425652 4.300241 -0.000000
v 0.085130 4.300241 -0.000000
v -0.255391 4.300241 -0.000000
v -0.595913 4.300241 -0.000000
v 0.255391 4.300241 -0.000000
v -0.085130 4.300241 -0.000000
v -0.425652 4.300241 -0.000000
v 0.595913 4.300241 -0.000000
v -0.681043 4.300241 -0.111414
v 0.595913 4.344480 -0.000000
v 0.681043 0.086238 -0.111414
v -0.595913 0.000000 -0.000000
v -0.425652 4.344479 -0.000000
v -0.085130 4.344480 -0.000000
v 0.255391 4.344480 -0.000000
v 0.425652 -0.000000 -0.000000
v 0.085130 0.000000 0.000000
v -0.255391 0.000000 -0.000000
v -0.340521 0.086238 -0.055707
v 0.000000 0.086238 -0.055707
v 0.340522 0.086238 -0.055707
v -0.425652 0.000000 -0.000000
v -0.595913 4.344479 -0.000000
v -0.510782 0.086238 0.055707
v -0.255391 4.344480 -0.000000
v -0.085130 0.000000 -0.000000
v -0.170260 0.086238 0.055707
v 0.085130 4.344480 -0.000000
v 0.255391 -0.000000 -0.000000
v 0.170261 0.086238 0.055707
v 0.425652 4.344480 -0.000000
v 0.595913 -0.000000 -0.000000
v 0.510782 0.086238 0.055707
v 0.681043 4.300241 -0.111414
v -0.340521 4.300241 -0.055707
v 0.000000 4.300241 -0.055707
v 0.340521 4.300241 -0.055707
v -0.510782 4.300241 0.055707
v -0.170261 4.300241 0.055707
v 0.170261 4.300241 0.055707
v 0.510782 4.300241 0.055707
v -0.681043 0.086238 -0.111414
v -0.659760 4.333419 -0.083560
v 0.659760 4.333420 -0.083560
v -0.659760 0.021559 -0.083560
v 0.659760 0.021559 -0.083560
v -0.340521 4.344479 -0.055707
v 0.000000 4.344480 -0.055707
v 0.340521 4.344480 -0.055707
v 0.340522 -0.000000 -0.055707
v 0.000000 0.000000 -0.055707
v -0.340521 0.000000 -0.055707
v -0.510782 0.000000 0.055707
v -0.510782 4.344479 0.055707
v -0.170261 4.344480 0.055707
v -0.170261 0.000000 0.055707
v 0.170261 4.344480 0.055707
v 0.170261 -0.000000 0.055707
v 0.510782 4.344480 0.055707
v 0.510782 -0.000000 0.055707
vn -0.0550 0.9237 -0.3792
vn -0.0664 0.9233 -0.3783
vn 0.0664 0.9233 -0.3783
vn 0.0550 0.9237 -0.3792
vn 0.0528 0.9236 0.3797
vn 0.0633 0.9232 0.3790
vn -0.0632 0.9233 0.3790
vn -0.0528 0.9236 0.3797
vn 0.1309 0.3817 0.9150
vn 0.1406 0.3814 0.9137
vn -0.1406 0.3814 0.9137
vn -0.1309 0.3817 0.9150
vn 0.1406 -0.3814 0.9137
vn 0.1309 -0.3817 0.9150
vn -0.1309 -0.3817 0.9150
vn -0.1406 -0.3814 0.9137
vn 0.0633 -0.9233 0.3789
vn 0.0528 -0.9236 0.3797
vn -0.0528 -0.9236 0.3797
vn -0.0632 -0.9233 0.3790
vn -0.0663 -0.9233 -0.3783
vn -0.0550 -0.9237 -0.3792
vn 0.0550 -0.9237 -0.3792
vn 0.0664 -0.9233 -0.3783
vn -0.1575 -0.3818 -0.9107
vn -0.1455 -0.3822 -0.9126
vn 0.1455 -0.3822 -0.9126
vn 0.1575 -0.3818 -0.9107
vn 0.3924 -0.9142 -0.1011
vn 0.3788 -0.9159 -0.1328
vn 0.4324 -0.9017 0.0000
vn -0.9415 -0.3369 0.0000
vn -0.3731 0.9174 0.1384
vn -0.3870 0.9157 0.1079
vn -0.4324 0.9017 0.0000
vn 0.8924 0.3604 -0.2717
vn 0.9014 0.3591 -0.2419
vn 0.9415 0.3369 0.0000
vn 0.9014 -0.3591 -0.2419
vn 0.8924 -0.3604 -0.2717
vn 0.9415 -0.3369 0.0000
vn -0.3870 -0.9157 0.1079
vn -0.3731 -0.9174 0.1384
vn -0.4324 -0.9017 0.0000
vn -0.9415 0.3369 0.0000
vn 0.3788 0.9159 -0.1328
vn 0.3924 0.9142 -0.1011
vn 0.4324 0.9017 0.0000
vn 0.7916 -0.3581 -0.4951
vn 0.7916 0.3581 -0.4951
vn -0.2108 0.9249 0.3166
vn -0.2302 0.9245 0.3039
vn -0.7365 -0.3647 0.5697
vn 0.2406 -0.9243 -0.2962
vn 0.2172 -0.9249 -0.3121
vn 0.2172 0.9249 -0.3121
vn 0.2406 0.9243 -0.2962
vn -0.7365 0.3647 0.5697
vn -0.2302 -0.9245 0.3039
vn -0.2108 -0.9249 0.3166
vn 0.1455 0.3822 -0.9126
vn 0.1575 0.3818 -0.9107
vn 0.2998 0.3724 -0.8783
vn 0.2998 -0.3724 -0.8783
vn -0.2693 -0.3733 0.8878
vn -0.2693 0.3733 0.8878
vn -0.3924 -0.9142 -0.1011
vn -0.3788 -0.9159 -0.1328
vn 0.3731 0.9174 0.1384
vn 0.3870 0.9157 0.1079
vn -0.8924 0.3604 -0.2717
vn -0.9014 0.3591 -0.2419
vn -0.9014 -0.3591 -0.2419
vn -0.8924 -0.3604 -0.2717
vn 0.3870 -0.9157 0.1079
vn 0.3731 -0.9174 0.1384
vn -0.3788 0.9159 -0.1328
vn -0.3924 0.9142 -0.1011
vn -0.7916 -0.3581 -0.4951
vn -0.7916 0.3581 -0.4951
vn 0.2108 0.9249 0.3166
vn 0.2302 0.9245 0.3039
vn 0.7365 -0.3647 0.5697
vn -0.2406 -0.9243 -0.2962
vn -0.2172 -0.9249 -0.3121
vn -0.2172 0.9249 -0.3121
vn -0.2406 0.9243 -0.2962
vn 0.7365 0.3648 0.5697
vn 0.2302 -0.9245 0.3039
vn 0.2108 -0.9249 0.3165
vn -0.1455 0.3822 -0.9126
vn -0.2998 0.3724 -0.8783
vn -0.1575 0.3818 -0.9107
vn -0.2998 -0.3724 -0.8783
vn 0.2693 -0.3733 0.8878
vn 0.2693 0.3733 0.8878
vn 0.6808 0.0000 0.7324
vn 0.5476 0.0000 0.8368
vn 0.6722 0.0000 0.7404
vn 0.7946 0.0000 0.6071
vn -0.6808 0.0000 0.7324
vn -0.7946 0.0000 0.6071
vn -0.6722 0.0000 0.7404
vn -0.5476 0.0000 0.8368
vn -0.6765 0.0000 0.7365
vn 0.6765 0.0000 0.7365
usemtl LightMetal
s 1
f 39//1 40//2 8//3 7//4
f 38//5 39//6 7//7 6//8
f 37//9 38//10 6//11 5//12
f 36//13 37//14 5//15 4//16
f 35//17 36//18 4//19 3//20
f 34//21 35//22 3//23 2//24
f 33//25 34//26 2//27 1//28
f 18//29 19//30 14//31 15//31
f 20//32 21//32 12//32 13//32
f 22//33 23//34 10//35 11//35
f 24//36 17//37 16//38 9//38
f 17//39 18//40 15//41 16//41
f 19//42 20//43 13//44 14//44
f 21//45 22//45 11//45 12//45
f 23//46 24//47 9//48 10//48
f 32//49 31//49 18//40 17//39
f 25//50 32//50 17//37 24//36
f 27//51 26//52 23//34 22//33
f 29//53 28//53 21//53 20//53
f 31//54 30//55 19//30 18//29
f 26//56 25//57 24//47 23//46
f 28//58 27//58 22//58 21//58
f 30//59 29//60 20//43 19//42
f 6//8 7//7 26//52 27//51
f 7//4 8//3 25//57 26//56
f 8//61 1//62 32//63 25//63
f 1//28 2//27 31//64 32//64
f 2//24 3//23 30//55 31//54
f 3//20 4//19 29//60 30//59
f 4//16 5//15 28//65 29//65
f 5//12 6//11 27//66 28//66
f 50//67 47//44 46//44 51//68
f 52//41 45//41 44//41 53//41
f 54//69 43//48 42//48 55//70
f 56//71 41//45 48//45 49//72
f 49//73 48//32 47//32 50//74
f 51//75 46//31 45//31 52//76
f 53//38 44//38 43//38 54//38
f 55//77 42//35 41//35 56//78
f 64//79 49//73 50//74 63//79
f 57//80 56//71 49//72 64//80
f 59//81 54//69 55//70 58//82
f 61//83 52//83 53//83 60//83
f 63//84 50//67 51//68 62//85
f 58//86 55//77 56//78 57//87
f 60//88 53//88 54//88 59//88
f 62//89 51//75 52//76 61//90
f 38//5 59//81 58//82 39//6
f 39//1 58//86 57//87 40//2
f 40//91 57//92 64//92 33//93
f 33//25 64//94 63//94 34//26
f 34//21 63//84 62//85 35//22
f 35//17 62//89 61//90 36//18
f 36//13 61//95 60//95 37//14
f 37//9 60//96 59//96 38//10
f 40//91 33//93 1//62 8//61
usemtl Couch_Blue
f 65//97 105//98 132//98 104//99
f 65//97 104//99 118//100 83//100
f 113//98 105//98 65//97 80//97
f 106//100 80//97 65//97 83//100
f 66//98 96//98 125//98 94//98
f 66//98 94//98 124//98 91//98
f 110//98 96//98 66//98 79//98
f 107//98 79//98 66//98 91//98
f 67//98 99//98 128//98 98//98
f 67//98 98//98 123//98 92//98
f 111//98 99//98 67//98 78//98
f 108//98 78//98 67//98 92//98
f 68//98 102//98 130//98 101//98
f 68//98 101//98 122//98 93//98
f 112//98 102//98 68//98 77//98
f 109//98 77//98 68//98 93//98
f 69//101 114//102 117//102 84//103
f 69//101 84//103 125//104 96//104
f 114//102 69//101 76//101 81//102
f 110//104 76//101 69//101 96//104
f 70//104 91//104 124//104 90//104
f 70//104 90//104 128//104 99//104
f 107//104 91//104 70//104 75//104
f 111//104 75//104 70//104 99//104
f 71//104 92//104 123//104 89//104
f 71//104 89//104 130//104 102//104
f 108//104 92//104 71//104 74//104
f 112//104 74//104 71//104 102//104
f 72//104 93//104 122//104 88//104
f 72//104 88//104 132//104 105//104
f 109//104 93//104 72//104 73//104
f 73//104 103//104 121//104 109//104
f 73//104 113//104 131//104 103//104
f 74//104 100//104 120//104 108//104
f 74//104 112//104 129//104 100//104
f 75//104 97//104 119//104 107//104
f 75//104 111//104 127//104 97//104
f 76//101 95//105 115//102 81//102
f 76//101 110//104 126//104 95//105
f 77//98 87//98 129//98 112//98
f 77//98 109//98 121//98 87//98
f 78//98 86//98 127//98 111//98
f 78//98 108//98 120//98 86//98
f 79//98 85//98 126//98 110//98
f 79//98 107//98 119//98 85//98
f 80//97 82//106 131//98 113//98
f 113//104 73//104 72//104 105//104
f 80//97 106//100 116//100 82//106
