# Blender v2.79 (sub 0) OBJ File: 'Door_2.blend'
# www.blender.org
mtllib Door_2.mtl
o Door_2_Cube.002
v -1.739843 0.000000 0.090321
v -1.739843 4.197657 0.090321
v -0.000000 0.000000 0.090321
v -0.000000 4.197657 0.090321
v -1.707866 0.033536 0.090321
v -1.707866 4.164121 0.090321
v -0.031977 4.164121 0.090321
v -0.031977 0.033536 0.090321
v -1.688829 0.050232 0.106611
v -1.688829 4.147425 0.106611
v -0.051014 4.147425 0.106611
v -0.051014 0.050232 0.106611
v -0.869921 0.000000 0.090321
v -0.869921 4.197657 0.090321
v -0.869921 0.033536 0.090321
v -0.869921 4.164121 0.090321
v -0.869921 0.050232 0.106611
v -0.869921 4.147425 0.106611
v -1.739843 3.122008 0.090321
v -0.000000 3.122008 0.090321
v -1.707866 3.130346 0.090321
v -0.031977 3.130346 0.090321
v -1.688829 3.122008 0.106611
v -0.051014 3.122008 0.106611
v -0.869921 3.122008 0.106611
v -0.000000 1.738628 0.090321
v -0.031977 1.735693 0.090321
v -0.051014 1.738628 0.106611
v -0.869921 1.738628 0.106611
v -1.739843 1.738628 0.090321
v -1.707866 1.735693 0.090321
v -1.688829 1.738628 0.106611
v -1.484102 3.221133 0.106611
v -1.484102 3.665709 0.106611
v -1.074648 3.665709 0.106611
v -1.074648 3.221133 0.106611
v -0.255741 3.665709 0.106611
v -0.665195 3.665709 0.106611
v -0.255741 3.221133 0.106611
v -0.665195 3.221133 0.106611
v -1.484102 2.518311 0.106611
v -1.484102 2.977528 0.106611
v -1.074648 2.977528 0.106611
v -1.074648 2.518311 0.106611
v -0.255741 2.977528 0.106611
v -0.665195 2.977528 0.106611
v -0.255741 2.518311 0.106611
v -0.665195 2.518311 0.106611
v -1.484102 0.418180 0.106611
v -1.074648 0.418180 0.106611
v -1.074648 1.580317 0.106611
v -1.484102 1.580317 0.106611
v -0.255741 1.580317 0.106611
v -0.255741 0.418180 0.106611
v -0.665195 0.418180 0.106611
v -0.665195 1.580317 0.106611
v -1.484102 3.221133 0.099392
v -1.484102 3.665709 0.099392
v -1.074648 3.665709 0.099392
v -1.074648 3.221133 0.099392
v -0.255741 3.665709 0.099392
v -0.665195 3.665709 0.099392
v -0.255741 3.221133 0.099392
v -0.665195 3.221133 0.099392
v -1.484102 2.518311 0.099392
v -1.484102 2.977528 0.099392
v -1.074648 2.977528 0.099392
v -1.074648 2.518311 0.099392
v -0.255741 2.977528 0.099392
v -0.665195 2.977528 0.099392
v -0.255741 2.518311 0.099392
v -0.665195 2.518311 0.099392
v -1.484102 0.418180 0.099392
v -1.074648 0.418180 0.099392
v -1.074648 1.580317 0.099392
v -1.484102 1.580317 0.099392
v -0.255741 1.580317 0.099392
v -0.255741 0.418180 0.099392
v -0.665195 0.418180 0.099392
v -0.665195 1.580317 0.099392
v -1.531228 1.790480 0.153530
v -1.531228 1.742065 0.106055
v -1.504475 1.801562 0.153530
v -1.470240 1.767328 0.106055
v -1.493393 1.828316 0.153530
v -1.444978 1.828316 0.106055
v -1.504475 1.855070 0.153530
v -1.470240 1.889304 0.106055
v -1.531228 1.866151 0.153530
v -1.531228 1.914566 0.106055
v -1.557982 1.855070 0.153530
v -1.592216 1.889304 0.106055
v -1.569064 1.828316 0.153530
v -1.617478 1.828316 0.106055
v -1.557982 1.801562 0.153530
v -1.592216 1.767328 0.106055
v -1.531228 1.774104 0.172854
v -1.492895 1.789982 0.172854
v -1.477017 1.828316 0.172854
v -1.492895 1.866649 0.172854
v -1.531228 1.882527 0.172854
v -1.569562 1.866649 0.172854
v -1.585440 1.828316 0.172854
v -1.569562 1.789982 0.172854
v -1.531228 1.796077 0.210558
v -1.508432 1.805520 0.210558
v -1.498990 1.828316 0.210558
v -1.508432 1.851112 0.210558
v -1.531228 1.860554 0.210558
v -1.554024 1.851112 0.210558
v -1.563467 1.828316 0.210558
v -1.554024 1.805520 0.210558
v -1.739843 0.000000 -0.090321
v -1.739843 4.197657 -0.090321
v -0.000000 0.000000 -0.090321
v -0.000000 4.197657 -0.090321
v -1.739843 0.000000 0.000000
v -1.739843 4.197657 0.000000
v -0.000000 0.000000 0.000000
v -0.000000 4.197657 0.000000
v -1.707866 0.033536 -0.090321
v -1.707866 4.164121 -0.090321
v -0.031977 4.164121 -0.090321
v -0.031977 0.033536 -0.090321
v -1.688829 0.050232 -0.106611
v -1.688829 4.147425 -0.106611
v -0.051014 4.147425 -0.106611
v -0.051014 0.050232 -0.106611
v -0.869921 0.000000 -0.090321
v -0.869921 4.197657 -0.090321
v -0.869921 4.197657 0.000000
v -0.869921 0.000000 0.000000
v -0.869921 0.033536 -0.090321
v -0.869921 4.164121 -0.090321
v -0.869921 0.050232 -0.106611
v -0.869921 4.147425 -0.106611
v -1.739843 3.122008 -0.090321
v -0.000000 3.122008 -0.090321
v -0.000000 3.122008 0.000000
v -1.739843 3.122008 0.000000
v -1.707866 3.130346 -0.090321
v -0.031977 3.130346 -0.090321
v -1.688829 3.122008 -0.106611
v -0.051014 3.122008 -0.106611
v -0.869921 3.122008 -0.106611
v -0.000000 1.738628 -0.090321
v -0.000000 1.738628 0.000000
v -1.739843 1.738628 0.000000
v -0.031977 1.735693 -0.090321
v -0.051014 1.738628 -0.106611
v -0.869921 1.738628 -0.106611
v -1.739843 1.738628 -0.090321
v -1.707866 1.735693 -0.090321
v -1.688829 1.738628 -0.106611
v -1.484102 3.221133 -0.106611
v -1.484102 3.665709 -0.106611
v -1.074648 3.665709 -0.106611
v -1.074648 3.221133 -0.106611
v -0.255741 3.665709 -0.106611
v -0.665195 3.665709 -0.106611
v -0.255741 3.221133 -0.106611
v -0.665195 3.221133 -0.106611
v -1.484102 2.518311 -0.106611
v -1.484102 2.977528 -0.106611
v -1.074648 2.977528 -0.106611
v -1.074648 2.518311 -0.106611
v -0.255741 2.977528 -0.106611
v -0.665195 2.977528 -0.106611
v -0.255741 2.518311 -0.106611
v -0.665195 2.518311 -0.106611
v -1.484102 0.418180 -0.106611
v -1.074648 0.418180 -0.106611
v -1.074648 1.580317 -0.106611
v -1.484102 1.580317 -0.106611
v -0.255741 1.580317 -0.106611
v -0.255741 0.418180 -0.106611
v -0.665195 0.418180 -0.106611
v -0.665195 1.580317 -0.106611
v -1.484102 3.221133 -0.099391
v -1.484102 3.665709 -0.099391
v -1.074648 3.665709 -0.099391
v -1.074648 3.221133 -0.099391
v -0.255741 3.665709 -0.099391
v -0.665195 3.665709 -0.099391
v -0.255741 3.221133 -0.099391
v -0.665195 3.221133 -0.099391
v -1.484102 2.518311 -0.099391
v -1.484102 2.977528 -0.099391
v -1.074648 2.977528 -0.099391
v -1.074648 2.518311 -0.099391
v -0.255741 2.977528 -0.099391
v -0.665195 2.977528 -0.099391
v -0.255741 2.518311 -0.099391
v -0.665195 2.518311 -0.099391
v -1.484102 0.418180 -0.099391
v -1.074648 0.418180 -0.099391
v -1.074648 1.580317 -0.099391
v -1.484102 1.580317 -0.099391
v -0.255741 1.580317 -0.099391
v -0.255741 0.418180 -0.099391
v -0.665195 0.418180 -0.099391
v -0.665195 1.580317 -0.099391
v -1.531228 1.790480 -0.153530
v -1.531228 1.742065 -0.106055
v -1.504475 1.801562 -0.153530
v -1.470240 1.767328 -0.106055
v -1.493393 1.828316 -0.153530
v -1.444978 1.828316 -0.106055
v -1.504475 1.855070 -0.153530
v -1.470240 1.889304 -0.106055
v -1.531228 1.866151 -0.153530
v -1.531228 1.914566 -0.106055
v -1.557982 1.855070 -0.153530
v -1.592216 1.889304 -0.106055
v -1.569064 1.828316 -0.153530
v -1.617478 1.828316 -0.106055
v -1.557982 1.801562 -0.153530
v -1.592216 1.767328 -0.106055
v -1.531228 1.774104 -0.172853
v -1.492895 1.789982 -0.172853
v -1.477017 1.828316 -0.172853
v -1.492895 1.866649 -0.172853
v -1.531228 1.882527 -0.172853
v -1.569562 1.866649 -0.172853
v -1.585440 1.828316 -0.172853
v -1.569562 1.789982 -0.172853
v -1.531228 1.796077 -0.210558
v -1.508432 1.805520 -0.210558
v -1.498990 1.828316 -0.210558
v -1.508432 1.851112 -0.210558
v -1.531228 1.860554 -0.210558
v -1.554024 1.851112 -0.210558
v -1.563467 1.828316 -0.210558
v -1.554024 1.805520 -0.210558
vn 1.0000 0.0000 0.0000
vn 0.0000 0.0000 1.0000
vn 0.0000 -1.0000 0.0000
vn 0.0000 1.0000 0.0000
vn -1.0000 0.0000 0.0000
vn 0.0000 -0.6984 0.7157
vn -0.6502 0.0000 0.7598
vn 0.0000 0.6984 0.7157
vn 0.6502 0.0000 0.7598
vn 0.0000 0.0000 -1.0000
vn 0.0000 -0.6984 -0.7157
vn -0.6502 0.0000 -0.7598
vn 0.0000 0.6984 -0.7157
vn 0.6502 0.0000 -0.7598
vn 0.2785 -0.6724 0.6857
vn 0.6724 -0.2785 0.6857
vn 0.6724 0.2785 0.6857
vn 0.2785 0.6724 0.6857
vn -0.2785 0.6724 0.6857
vn -0.6724 0.2785 0.6857
vn -0.6724 -0.2785 0.6857
vn -0.2785 -0.6724 0.6857
vn -0.7274 0.3013 -0.6165
vn 0.3370 0.8135 0.4741
vn 0.3013 0.7274 -0.6165
vn -0.7274 -0.3013 -0.6165
vn 0.7274 -0.3013 -0.6165
vn -0.3013 0.7274 -0.6165
vn -0.3013 -0.7274 -0.6165
vn 0.3013 -0.7274 -0.6165
vn 0.7274 0.3013 -0.6165
vn 0.8135 -0.3369 0.4741
vn -0.8135 -0.3369 0.4741
vn -0.3369 0.8135 0.4741
vn 0.8135 0.3369 0.4741
vn 0.3370 -0.8135 0.4741
vn -0.3369 -0.8135 0.4741
vn -0.8135 0.3369 0.4741
vn 0.2785 -0.6724 -0.6857
vn 0.6724 -0.2785 -0.6857
vn 0.6724 0.2785 -0.6857
vn 0.2785 0.6724 -0.6857
vn -0.2785 0.6724 -0.6857
vn -0.6724 0.2785 -0.6857
vn -0.6724 -0.2785 -0.6857
vn -0.2785 -0.6724 -0.6857
vn -0.7274 0.3013 0.6165
vn 0.3370 0.8135 -0.4741
vn 0.3013 0.7274 0.6165
vn -0.7274 -0.3013 0.6165
vn 0.7274 -0.3013 0.6165
vn -0.3013 0.7274 0.6165
vn -0.3013 -0.7274 0.6165
vn 0.3013 -0.7274 0.6165
vn 0.7274 0.3013 0.6165
vn 0.8135 -0.3369 -0.4741
vn -0.8135 -0.3369 -0.4741
vn -0.3369 0.8135 -0.4741
vn 0.8135 0.3369 -0.4741
vn 0.3370 -0.8135 -0.4741
vn -0.3369 -0.8135 -0.4741
vn -0.8135 0.3369 -0.4741
usemtl Wood
s off
f 139//1 120//1 4//1 20//1
f 14//2 2//2 6//2 16//2
f 132//3 119//3 3//3 13//3
f 131//4 118//4 2//4 14//4
f 19//5 2//5 118//5 140//5
f 15//6 8//6 12//6 17//6
f 20//2 4//2 7//2 22//2
f 30//2 1//2 5//2 31//2
f 13//2 3//2 8//2 15//2
f 18//2 10//2 34//2 35//2
f 31//7 5//7 9//7 32//7
f 16//8 6//8 10//8 18//8
f 22//9 7//9 11//9 24//9
f 7//8 16//8 18//8 11//8
f 25//2 24//2 39//2 40//2
f 1//2 13//2 15//2 5//2
f 5//6 15//6 17//6 9//6
f 120//4 131//4 14//4 4//4
f 117//3 132//3 13//3 1//3
f 4//2 14//2 16//2 7//2
f 25//2 29//2 48//2 46//2
f 27//9 22//9 24//9 28//9
f 6//7 21//7 23//7 10//7
f 23//2 32//2 41//2 42//2
f 2//2 19//2 21//2 6//2
f 26//2 20//2 22//2 27//2
f 30//5 19//5 140//5 148//5
f 147//1 139//1 20//1 26//1
f 119//1 147//1 26//1 3//1
f 1//5 30//5 148//5 117//5
f 3//2 26//2 27//2 8//2
f 9//2 17//2 50//2 49//2
f 8//9 27//9 28//9 12//9
f 12//2 28//2 53//2 54//2
f 21//7 31//7 32//7 23//7
f 19//2 30//2 31//2 21//2
f 39//5 37//5 61//5 63//5
f 23//2 25//2 36//2 33//2
f 10//2 23//2 33//2 34//2
f 25//2 18//2 35//2 36//2
f 42//1 41//1 65//1 66//1
f 24//2 11//2 37//2 39//2
f 11//2 18//2 38//2 37//2
f 18//2 25//2 40//2 38//2
f 35//3 34//3 58//3 59//3
f 29//2 25//2 43//2 44//2
f 32//2 29//2 44//2 41//2
f 25//2 23//2 42//2 43//2
f 37//3 38//3 62//3 61//3
f 24//2 25//2 46//2 45//2
f 29//2 28//2 47//2 48//2
f 28//2 24//2 45//2 47//2
f 34//1 33//1 57//1 58//1
f 29//2 32//2 52//2 51//2
f 17//2 29//2 51//2 50//2
f 32//2 9//2 49//2 52//2
f 53//3 56//3 80//3 77//3
f 28//2 29//2 56//2 53//2
f 29//2 17//2 55//2 56//2
f 17//2 12//2 54//2 55//2
f 60//2 59//2 58//2 57//2
f 63//2 61//2 62//2 64//2
f 68//2 67//2 66//2 65//2
f 71//2 69//2 70//2 72//2
f 74//2 75//2 76//2 73//2
f 78//2 77//2 80//2 79//2
f 45//3 46//3 70//3 69//3
f 36//5 35//5 59//5 60//5
f 43//3 42//3 66//3 67//3
f 49//4 50//4 74//4 73//4
f 38//1 40//1 64//1 62//1
f 47//5 45//5 69//5 71//5
f 54//5 53//5 77//5 78//5
f 33//4 36//4 60//4 57//4
f 44//5 43//5 67//5 68//5
f 50//5 51//5 75//5 74//5
f 40//4 39//4 63//4 64//4
f 46//1 48//1 72//1 70//1
f 55//4 54//4 78//4 79//4
f 41//4 44//4 68//4 65//4
f 52//1 49//1 73//1 76//1
f 48//4 47//4 71//4 72//4
f 56//1 55//1 79//1 80//1
f 51//3 52//3 76//3 75//3
f 139//1 138//1 116//1 120//1
f 130//10 134//10 122//10 114//10
f 132//3 129//3 115//3 119//3
f 131//4 130//4 114//4 118//4
f 137//5 140//5 118//5 114//5
f 133//11 135//11 128//11 124//11
f 138//10 142//10 123//10 116//10
f 152//10 153//10 121//10 113//10
f 129//10 133//10 124//10 115//10
f 136//10 157//10 156//10 126//10
f 153//12 154//12 125//12 121//12
f 134//13 136//13 126//13 122//13
f 142//14 144//14 127//14 123//14
f 123//13 127//13 136//13 134//13
f 145//10 162//10 161//10 144//10
f 113//10 121//10 133//10 129//10
f 121//11 125//11 135//11 133//11
f 120//4 116//4 130//4 131//4
f 117//3 113//3 129//3 132//3
f 116//10 123//10 134//10 130//10
f 145//10 168//10 170//10 151//10
f 149//14 150//14 144//14 142//14
f 122//12 126//12 143//12 141//12
f 143//10 164//10 163//10 154//10
f 114//10 122//10 141//10 137//10
f 146//10 149//10 142//10 138//10
f 152//5 148//5 140//5 137//5
f 147//1 146//1 138//1 139//1
f 119//1 115//1 146//1 147//1
f 113//5 117//5 148//5 152//5
f 115//10 124//10 149//10 146//10
f 125//10 171//10 172//10 135//10
f 124//14 128//14 150//14 149//14
f 128//10 176//10 175//10 150//10
f 141//12 143//12 154//12 153//12
f 137//10 141//10 153//10 152//10
f 161//5 185//5 183//5 159//5
f 143//10 155//10 158//10 145//10
f 126//10 156//10 155//10 143//10
f 145//10 158//10 157//10 136//10
f 164//1 188//1 187//1 163//1
f 144//10 161//10 159//10 127//10
f 127//10 159//10 160//10 136//10
f 136//10 160//10 162//10 145//10
f 157//3 181//3 180//3 156//3
f 151//10 166//10 165//10 145//10
f 154//10 163//10 166//10 151//10
f 145//10 165//10 164//10 143//10
f 159//3 183//3 184//3 160//3
f 144//10 167//10 168//10 145//10
f 151//10 170//10 169//10 150//10
f 150//10 169//10 167//10 144//10
f 156//1 180//1 179//1 155//1
f 151//10 173//10 174//10 154//10
f 135//10 172//10 173//10 151//10
f 154//10 174//10 171//10 125//10
f 175//3 199//3 202//3 178//3
f 150//10 175//10 178//10 151//10
f 151//10 178//10 177//10 135//10
f 135//10 177//10 176//10 128//10
f 182//10 179//10 180//10 181//10
f 185//10 186//10 184//10 183//10
f 190//10 187//10 188//10 189//10
f 193//10 194//10 192//10 191//10
f 196//10 195//10 198//10 197//10
f 200//10 201//10 202//10 199//10
f 167//3 191//3 192//3 168//3
f 158//5 182//5 181//5 157//5
f 165//3 189//3 188//3 164//3
f 171//4 195//4 196//4 172//4
f 160//1 184//1 186//1 162//1
f 169//5 193//5 191//5 167//5
f 176//5 200//5 199//5 175//5
f 155//4 179//4 182//4 158//4
f 166//5 190//5 189//5 165//5
f 172//5 196//5 197//5 173//5
f 162//4 186//4 185//4 161//4
f 168//1 192//1 194//1 170//1
f 177//4 201//4 200//4 176//4
f 163//4 187//4 190//4 166//4
f 174//1 198//1 195//1 171//1
f 170//4 194//4 193//4 169//4
f 178//1 202//1 201//1 177//1
f 173//3 197//3 198//3 174//3
usemtl Metal
f 81//15 82//15 84//15 83//15
f 83//16 84//16 86//16 85//16
f 85//17 86//17 88//17 87//17
f 87//18 88//18 90//18 89//18
f 89//19 90//19 92//19 91//19
f 91//20 92//20 94//20 93//20
f 84//10 82//10 96//10 94//10 92//10 90//10 88//10 86//10
f 93//21 94//21 96//21 95//21
f 95//22 96//22 82//22 81//22
f 91//23 93//23 103//23 102//23
f 100//24 101//24 109//24 108//24
f 87//25 89//25 101//25 100//25
f 93//26 95//26 104//26 103//26
f 83//27 85//27 99//27 98//27
f 89//28 91//28 102//28 101//28
f 95//29 81//29 97//29 104//29
f 81//30 83//30 98//30 97//30
f 85//31 87//31 100//31 99//31
f 105//2 106//2 107//2 108//2 109//2 110//2 111//2 112//2
f 98//32 99//32 107//32 106//32
f 103//33 104//33 112//33 111//33
f 101//34 102//34 110//34 109//34
f 99//35 100//35 108//35 107//35
f 97//36 98//36 106//36 105//36
f 104//37 97//37 105//37 112//37
f 102//38 103//38 111//38 110//38
f 203//39 205//39 206//39 204//39
f 205//40 207//40 208//40 206//40
f 207//41 209//41 210//41 208//41
f 209//42 211//42 212//42 210//42
f 211//43 213//43 214//43 212//43
f 213//44 215//44 216//44 214//44
f 206//2 208//2 210//2 212//2 214//2 216//2 218//2 204//2
f 215//45 217//45 218//45 216//45
f 217//46 203//46 204//46 218//46
f 213//47 224//47 225//47 215//47
f 222//48 230//48 231//48 223//48
f 209//49 222//49 223//49 211//49
f 215//50 225//50 226//50 217//50
f 205//51 220//51 221//51 207//51
f 211//52 223//52 224//52 213//52
f 217//53 226//53 219//53 203//53
f 203//54 219//54 220//54 205//54
f 207//55 221//55 222//55 209//55
f 227//10 234//10 233//10 232//10 231//10 230//10 229//10 228//10
f 220//56 228//56 229//56 221//56
f 225//57 233//57 234//57 226//57
f 223//58 231//58 232//58 224//58
f 221//59 229//59 230//59 222//59
f 219//60 227//60 228//60 220//60
f 226//61 234//61 227//61 219//61
f 224//62 232//62 233//62 225//62
