# Blender v2.79 (sub 0) OBJ File: 'Drawer_1.blend'
# www.blender.org
mtllib Drawer_1.mtl
o Drawer_1_Cube.051
v 1.397029 0.561303 0.560021
v 1.397029 1.295521 0.560021
v 1.397029 0.561303 -0.550870
v 1.397029 1.295521 -0.550870
v 1.340605 1.247295 0.560021
v 1.340605 0.609529 0.560021
v 0.074678 0.609529 0.560021
v 0.074678 1.247295 0.560021
v 1.322789 1.234622 0.531313
v 1.322789 0.622202 0.531313
v 0.092495 0.622202 0.531313
v 0.092495 1.234622 0.531313
v 1.316675 0.570743 0.515778
v 1.316675 0.570743 -0.506626
v 1.316675 0.432692 0.515778
v 1.316675 0.432692 -0.506626
v 0.878423 1.146249 0.556390
v 0.878423 1.078178 0.556390
v 0.536861 1.078178 0.556390
v 0.536861 1.146249 0.556390
v 0.878423 1.146249 0.504372
v 0.878423 1.078178 0.504372
v 0.536861 1.078178 0.504372
v 0.536861 1.146249 0.504372
v 1.217851 0.227591 0.438863
v 1.287622 0.237942 0.429231
v 1.295745 0.248294 0.499194
v 1.324662 -0.009416 0.521592
v 1.292547 0.001511 0.496717
v 1.344783 0.005436 0.489506
v 1.350864 0.009361 0.541886
v 1.298628 0.005436 0.549097
v 1.225974 0.237942 0.508826
v 1.302244 -0.006684 0.504228
v 1.146490 0.442745 0.383593
v 1.317145 0.002492 0.480017
v 1.341082 -0.005703 0.498866
v 1.233117 0.455597 0.371634
v 1.360883 0.008380 0.513893
v 1.345603 -0.004722 0.537810
v 1.243202 0.468449 0.458499
v 1.326267 0.008380 0.558586
v 1.306765 -0.005703 0.543172
v 1.156575 0.455597 0.470458
v 1.204469 0.230179 0.476253
v 1.250705 0.230179 0.416557
v 1.309126 0.245706 0.461805
v 1.262890 0.245706 0.521501
v 1.282529 0.002492 0.524710
v 1.272205 0.063494 0.480962
v 1.329164 0.070989 0.473099
v 1.335795 0.078483 0.530214
v 1.278836 0.070989 0.538078
v 1.294479 -0.004124 0.524559
v 1.129876 0.445958 0.430016
v 1.319987 -0.004124 0.491625
v 1.187282 0.445958 0.355897
v 1.326709 -0.001507 0.549522
v 1.202410 0.465236 0.486195
v 1.352218 -0.001507 0.516588
v 1.259817 0.465236 0.412077
v 1.299027 0.065368 0.462752
v 1.346720 0.076609 0.499691
v 1.308974 0.076609 0.548425
v 1.261281 0.065368 0.511486
v 1.217851 0.227591 -0.438864
v 1.287622 0.237942 -0.429232
v 1.295745 0.248294 -0.499194
v 1.324662 -0.009416 -0.521592
v 1.292547 0.001511 -0.496718
v 1.344783 0.005436 -0.489506
v 1.350864 0.009361 -0.541886
v 1.298628 0.005436 -0.549097
v 1.225974 0.237942 -0.508826
v 1.302244 -0.006684 -0.504228
v 1.146490 0.442745 -0.383593
v 1.317145 0.002492 -0.480017
v 1.341082 -0.005703 -0.498866
v 1.233117 0.455597 -0.371634
v 1.360883 0.008380 -0.513893
v 1.345603 -0.004722 -0.537811
v 1.243202 0.468449 -0.458499
v 1.326267 0.008380 -0.558586
v 1.306765 -0.005703 -0.543172
v 1.156575 0.455597 -0.470459
v 1.204469 0.230179 -0.476253
v 1.250705 0.230179 -0.416557
v 1.309126 0.245706 -0.461805
v 1.262890 0.245706 -0.521501
v 1.282529 0.002492 -0.524710
v 1.272205 0.063494 -0.480962
v 1.329164 0.070989 -0.473099
v 1.335795 0.078483 -0.530215
v 1.278836 0.070989 -0.538078
v 1.294479 -0.004124 -0.524559
v 1.129876 0.445958 -0.430016
v 1.319987 -0.004124 -0.491625
v 1.187282 0.445958 -0.355897
v 1.326709 -0.001507 -0.549523
v 1.202410 0.465236 -0.486195
v 1.352218 -0.001507 -0.516589
v 1.259817 0.465236 -0.412077
v 1.299027 0.065368 -0.462752
v 1.346720 0.076609 -0.499691
v 1.308974 0.076609 -0.548425
v 1.261281 0.065368 -0.511486
v 1.340699 1.295521 -0.506077
v 1.340699 1.295521 0.515228
v 1.340699 1.343499 -0.506077
v 1.340699 1.343499 0.515228
v -1.397031 0.561303 0.560021
v -1.397031 1.295521 0.560021
v -1.397031 0.561303 -0.550870
v -1.397031 1.295521 -0.550870
v -0.000001 0.561303 -0.550870
v -0.000001 1.295521 -0.550870
v -0.000001 0.561303 0.560021
v -0.000001 1.295521 0.560021
v -1.340607 1.247295 0.560021
v -1.340607 0.609529 0.560021
v -0.074680 0.609529 0.560021
v -0.074680 1.247295 0.560021
v -1.322790 1.234622 0.531313
v -1.322790 0.622202 0.531313
v -0.092496 0.622202 0.531313
v -0.092496 1.234622 0.531313
v -1.316676 0.570743 0.515778
v -1.316676 0.570743 -0.506626
v -0.000001 0.570743 -0.506626
v -0.000001 0.570743 0.515778
v -1.316676 0.432692 0.515778
v -1.316676 0.432692 -0.506626
v -0.000001 0.432692 0.515778
v -0.000001 0.432692 -0.506626
v -0.878424 1.146249 0.556390
v -0.878424 1.078178 0.556390
v -0.536862 1.078178 0.556390
v -0.536862 1.146249 0.556390
v -0.878424 1.146249 0.504372
v -0.878424 1.078178 0.504372
v -0.536862 1.078178 0.504372
v -0.536862 1.146249 0.504372
v -1.217852 0.227591 0.438863
v -1.287623 0.237942 0.429231
v -1.295746 0.248294 0.499194
v -1.324664 -0.009416 0.521592
v -1.292548 0.001511 0.496717
v -1.344784 0.005436 0.489506
v -1.350866 0.009361 0.541886
v -1.298630 0.005436 0.549097
v -1.225975 0.237942 0.508826
v -1.302245 -0.006684 0.504228
v -1.146491 0.442745 0.383593
v -1.317146 0.002492 0.480017
v -1.341083 -0.005703 0.498866
v -1.233119 0.455597 0.371634
v -1.360884 0.008380 0.513893
v -1.345604 -0.004722 0.537810
v -1.243204 0.468449 0.458499
v -1.326268 0.008380 0.558586
v -1.306767 -0.005703 0.543172
v -1.156577 0.455597 0.470458
v -1.204471 0.230179 0.476253
v -1.250707 0.230179 0.416557
v -1.309127 0.245706 0.461805
v -1.262891 0.245706 0.521501
v -1.282530 0.002492 0.524710
v -1.272206 0.063494 0.480962
v -1.329165 0.070989 0.473099
v -1.335797 0.078483 0.530214
v -1.278838 0.070989 0.538078
v -1.294480 -0.004124 0.524559
v -1.129877 0.445958 0.430016
v -1.319989 -0.004124 0.491625
v -1.187284 0.445958 0.355897
v -1.326711 -0.001507 0.549522
v -1.202412 0.465236 0.486195
v -1.352219 -0.001507 0.516588
v -1.259818 0.465236 0.412077
v -1.299028 0.065368 0.462752
v -1.346721 0.076609 0.499691
v -1.308975 0.076609 0.548425
v -1.261282 0.065368 0.511486
v -1.217852 0.227591 -0.438864
v -1.287623 0.237942 -0.429232
v -1.295746 0.248294 -0.499194
v -1.324664 -0.009416 -0.521592
v -1.292548 0.001511 -0.496718
v -1.344784 0.005436 -0.489506
v -1.350866 0.009361 -0.541886
v -1.298630 0.005436 -0.549097
v -1.225975 0.237942 -0.508826
v -1.302245 -0.006684 -0.504228
v -1.146491 0.442745 -0.383593
v -1.317146 0.002492 -0.480017
v -1.341083 -0.005703 -0.498866
v -1.233119 0.455597 -0.371634
v -1.360884 0.008380 -0.513893
v -1.345604 -0.004722 -0.537811
v -1.243204 0.468449 -0.458499
v -1.326268 0.008380 -0.558586
v -1.306767 -0.005703 -0.543172
v -1.156577 0.455597 -0.470459
v -1.204471 0.230179 -0.476253
v -1.250707 0.230179 -0.416557
v -1.309127 0.245706 -0.461805
v -1.262891 0.245706 -0.521501
v -1.282530 0.002492 -0.524710
v -1.272206 0.063494 -0.480962
v -1.329165 0.070989 -0.473099
v -1.335797 0.078483 -0.530215
v -1.278838 0.070989 -0.538078
v -1.294480 -0.004124 -0.524559
v -1.129877 0.445958 -0.430016
v -1.319989 -0.004124 -0.491625
v -1.187284 0.445958 -0.355897
v -1.326711 -0.001507 -0.549523
v -1.202412 0.465236 -0.486195
v -1.352219 -0.001507 -0.516589
v -1.259818 0.465236 -0.412077
v -1.299028 0.065368 -0.462752
v -1.346721 0.076609 -0.499691
v -1.308975 0.076609 -0.548425
v -1.261282 0.065368 -0.511486
v -0.000001 1.295521 -0.506077
v -1.340700 1.295521 -0.506077
v -1.340700 1.295521 0.515228
v -0.000001 1.295521 0.515228
v -0.000001 1.343499 -0.506077
v -1.340700 1.343499 -0.506077
v -1.340700 1.343499 0.515228
v -0.000001 1.343499 0.515228
vn 0.0000 0.0000 -1.0000
vn 1.0000 0.0000 0.0000
vn 0.0000 -1.0000 0.0000
vn 0.0000 1.0000 0.0000
vn 0.0000 0.0000 1.0000
vn 0.0000 -0.9148 0.4038
vn -0.8497 0.0000 0.5273
vn 0.8497 0.0000 0.5273
vn 0.0000 0.9148 0.4038
vn -1.0000 0.0000 0.0000
vn -0.7291 -0.3865 -0.5647
vn -0.7300 -0.3839 -0.5654
vn -0.9448 -0.2903 0.1516
vn -0.9436 -0.2925 0.1552
vn -0.9455 -0.2994 0.1280
vn -0.7290 -0.3869 -0.5647
vn -0.1125 -0.2994 -0.9474
vn -0.0857 -0.2925 -0.9524
vn -0.0895 -0.2903 -0.9527
vn 0.6206 -0.0515 -0.7824
vn 0.6201 -0.0507 -0.7828
vn 0.5992 -0.0612 -0.7982
vn 0.9693 0.1796 -0.1680
vn 0.9725 0.1857 -0.1404
vn 0.9742 0.1801 -0.1356
vn 0.7572 0.2875 0.5865
vn 0.7598 0.2765 0.5885
vn 0.7569 0.2890 0.5862
vn 0.0797 0.1796 0.9805
vn 0.1072 0.1857 0.9767
vn 0.1123 0.1801 0.9772
vn 0.0455 -0.9983 0.0352
vn -0.2734 -0.9383 -0.2118
vn -0.0027 -0.8979 -0.4400
vn 0.3641 -0.8680 -0.3375
vn 0.6459 -0.7630 -0.0258
vn 0.4872 -0.7876 0.3773
vn 0.1365 -0.7630 0.6318
vn -0.2357 -0.8680 0.4370
vn -0.4267 -0.8979 0.1075
vn -0.6149 -0.6286 -0.4762
vn -0.8209 -0.5459 0.1675
vn -0.0432 -0.5459 -0.8367
vn 0.6108 -0.3787 -0.6953
vn 0.9778 -0.1903 -0.0871
vn 0.7846 -0.1224 0.6077
vn 0.1602 -0.1903 0.9686
vn -0.5205 -0.3787 0.7653
vn -0.6029 -0.0507 0.7962
vn -0.6024 -0.0515 0.7965
vn -0.6230 -0.0612 0.7798
vn -0.7291 -0.3865 0.5647
vn -0.9436 -0.2925 -0.1552
vn -0.9448 -0.2903 -0.1516
vn -0.7300 -0.3839 0.5654
vn -0.7290 -0.3869 0.5647
vn -0.9455 -0.2994 -0.1280
vn -0.0857 -0.2925 0.9524
vn -0.1125 -0.2994 0.9474
vn -0.0895 -0.2903 0.9527
vn 0.6206 -0.0515 0.7824
vn 0.6201 -0.0507 0.7828
vn 0.5992 -0.0612 0.7982
vn 0.9725 0.1857 0.1404
vn 0.9693 0.1796 0.1680
vn 0.9742 0.1801 0.1356
vn 0.7572 0.2875 -0.5865
vn 0.7598 0.2765 -0.5885
vn 0.7569 0.2890 -0.5862
vn 0.1072 0.1857 -0.9767
vn 0.0797 0.1796 -0.9805
vn 0.1123 0.1801 -0.9772
vn 0.0455 -0.9983 -0.0352
vn 0.3641 -0.8680 0.3375
vn -0.0027 -0.8979 0.4400
vn -0.2734 -0.9383 0.2118
vn 0.4872 -0.7876 -0.3773
vn 0.6459 -0.7630 0.0258
vn -0.2357 -0.8680 -0.4370
vn 0.1365 -0.7630 -0.6318
vn -0.4267 -0.8979 -0.1075
vn -0.6149 -0.6286 0.4762
vn -0.8209 -0.5459 -0.1675
vn -0.0432 -0.5459 0.8367
vn 0.6108 -0.3787 0.6953
vn 0.9778 -0.1903 0.0871
vn 0.7846 -0.1224 -0.6077
vn 0.1602 -0.1903 -0.9686
vn -0.5205 -0.3787 -0.7653
vn -0.6028 -0.0507 -0.7962
vn -0.6024 -0.0515 -0.7965
vn -0.6230 -0.0612 -0.7798
vn 0.7291 -0.3865 -0.5647
vn 0.9436 -0.2925 0.1552
vn 0.9448 -0.2903 0.1516
vn 0.7300 -0.3839 -0.5654
vn 0.7290 -0.3869 -0.5647
vn 0.9455 -0.2994 0.1280
vn 0.0857 -0.2925 -0.9524
vn 0.1125 -0.2994 -0.9474
vn 0.0895 -0.2903 -0.9527
vn -0.6206 -0.0515 -0.7824
vn -0.6201 -0.0507 -0.7828
vn -0.5992 -0.0612 -0.7982
vn -0.9725 0.1857 -0.1404
vn -0.9693 0.1796 -0.1680
vn -0.9742 0.1801 -0.1356
vn -0.7572 0.2875 0.5865
vn -0.7598 0.2765 0.5885
vn -0.7569 0.2890 0.5862
vn -0.1072 0.1857 0.9767
vn -0.0797 0.1796 0.9805
vn -0.1123 0.1801 0.9772
vn -0.0455 -0.9983 0.0352
vn -0.3641 -0.8680 -0.3375
vn 0.0027 -0.8979 -0.4400
vn 0.2734 -0.9383 -0.2118
vn -0.4872 -0.7876 0.3773
vn -0.6459 -0.7630 -0.0258
vn 0.2357 -0.8680 0.4370
vn -0.1365 -0.7630 0.6318
vn 0.4267 -0.8979 0.1075
vn 0.6149 -0.6286 -0.4762
vn 0.8209 -0.5459 0.1675
vn 0.0432 -0.5459 -0.8367
vn -0.6108 -0.3787 -0.6953
vn -0.9778 -0.1903 -0.0871
vn -0.7846 -0.1224 0.6077
vn -0.1602 -0.1903 0.9686
vn 0.5205 -0.3787 0.7653
vn 0.6028 -0.0507 0.7962
vn 0.6024 -0.0515 0.7965
vn 0.6230 -0.0612 0.7798
vn 0.7291 -0.3865 0.5647
vn 0.7300 -0.3839 0.5654
vn 0.9448 -0.2903 -0.1516
vn 0.9436 -0.2925 -0.1552
vn 0.9455 -0.2994 -0.1280
vn 0.7290 -0.3869 0.5647
vn 0.1125 -0.2994 0.9474
vn 0.0857 -0.2925 0.9524
vn 0.0895 -0.2903 0.9527
vn -0.6206 -0.0515 0.7824
vn -0.6201 -0.0507 0.7828
vn -0.5992 -0.0612 0.7982
vn -0.9693 0.1796 0.1680
vn -0.9725 0.1857 0.1404
vn -0.9742 0.1801 0.1356
vn -0.7572 0.2875 -0.5865
vn -0.7598 0.2765 -0.5885
vn -0.7569 0.2890 -0.5862
vn -0.0797 0.1796 -0.9805
vn -0.1072 0.1857 -0.9767
vn -0.1123 0.1801 -0.9772
vn -0.0455 -0.9983 -0.0352
vn 0.2734 -0.9383 0.2118
vn 0.0027 -0.8979 0.4400
vn -0.3641 -0.8680 0.3375
vn -0.6458 -0.7630 0.0258
vn -0.4872 -0.7876 -0.3773
vn -0.1365 -0.7630 -0.6318
vn 0.2357 -0.8680 -0.4370
vn 0.4267 -0.8979 -0.1075
vn 0.6149 -0.6286 0.4762
vn 0.8209 -0.5459 -0.1675
vn 0.0432 -0.5459 0.8367
vn -0.6108 -0.3787 0.6953
vn -0.9778 -0.1903 0.0871
vn -0.7846 -0.1224 -0.6077
vn -0.1602 -0.1903 -0.9686
vn 0.5205 -0.3787 -0.7653
vn 0.6028 -0.0507 -0.7962
vn 0.6024 -0.0515 -0.7965
vn 0.6230 -0.0612 -0.7798
usemtl Wood
s off
f 115//1 116//1 4//1 3//1
f 3//2 4//2 2//2 1//2
f 115//3 3//3 1//3 117//3
f 118//4 2//4 108//4 228//4
f 2//5 118//5 8//5 5//5
f 5//6 8//6 12//6 9//6
f 117//5 1//5 6//5 7//5
f 118//5 117//5 7//5 8//5
f 1//5 2//5 5//5 6//5
f 6//7 5//7 9//7 10//7
f 8//8 7//8 11//8 12//8
f 7//9 6//9 10//9 11//9
f 129//4 130//4 13//4 14//4
f 134//3 16//3 15//3 133//3
f 13//5 130//5 133//5 15//5
f 129//1 14//1 16//1 134//1
f 14//2 13//2 15//2 16//2
f 108//2 107//2 109//2 110//2
f 2//4 4//4 107//4 108//4
f 4//4 116//4 225//4 107//4
f 109//4 229//4 232//4 110//4
f 228//5 108//5 110//5 232//5
f 107//1 225//1 229//1 109//1
f 115//1 113//1 114//1 116//1
f 113//10 111//10 112//10 114//10
f 115//3 117//3 111//3 113//3
f 118//4 228//4 227//4 112//4
f 112//5 119//5 122//5 118//5
f 119//6 123//6 126//6 122//6
f 117//5 121//5 120//5 111//5
f 118//5 122//5 121//5 117//5
f 111//5 120//5 119//5 112//5
f 120//8 124//8 123//8 119//8
f 122//7 126//7 125//7 121//7
f 121//9 125//9 124//9 120//9
f 129//4 128//4 127//4 130//4
f 134//3 133//3 131//3 132//3
f 127//5 131//5 133//5 130//5
f 129//1 134//1 132//1 128//1
f 128//10 132//10 131//10 127//10
f 227//10 231//10 230//10 226//10
f 112//4 227//4 226//4 114//4
f 114//4 226//4 225//4 116//4
f 230//4 231//4 232//4 229//4
f 228//5 232//5 231//5 227//5
f 226//1 230//1 229//1 225//1
usemtl Wood_Dark
f 18//5 17//5 20//5 19//5
f 20//10 24//10 23//10 19//10
f 19//3 23//3 22//3 18//3
f 17//4 21//4 24//4 20//4
f 18//2 22//2 21//2 17//2
f 136//5 137//5 138//5 135//5
f 138//2 137//2 141//2 142//2
f 137//3 136//3 140//3 141//3
f 135//4 138//4 142//4 139//4
f 136//10 135//10 139//10 140//10
usemtl Wood_Light
f 10//5 9//5 12//5 11//5
f 124//5 125//5 126//5 123//5
s 1
f 25//11 50//12 65//13 45//14
f 25//11 45//14 55//15 35//16
f 25//11 35//16 57//17 46//18
f 25//11 46//18 62//19 50//12
f 26//20 51//21 62//19 46//18
f 26//20 46//18 57//17 38//22
f 26//20 38//22 61//23 47//24
f 26//20 47//24 63//25 51//21
f 27//26 52//27 63//25 47//24
f 27//26 47//24 61//23 41//28
f 27//26 41//28 59//29 48//30
f 27//26 48//30 64//31 52//27
f 28//32 34//33 56//34 37//35
f 28//32 37//35 60//36 40//37
f 28//32 40//37 58//38 43//39
f 28//32 43//39 54//40 34//33
f 29//41 34//33 54//40 49//42
f 29//41 49//42 65//13 50//12
f 29//41 50//12 62//19 36//43
f 29//41 36//43 56//34 34//33
f 30//44 37//35 56//34 36//43
f 30//44 36//43 62//19 51//21
f 30//44 51//21 63//25 39//45
f 30//44 39//45 60//36 37//35
f 31//46 40//37 60//36 39//45
f 31//46 39//45 63//25 52//27
f 31//46 52//27 64//31 42//47
f 31//46 42//47 58//38 40//37
f 32//48 43//39 58//38 42//47
f 32//48 42//47 64//31 53//49
f 32//48 53//49 65//13 49//42
f 32//48 49//42 54//40 43//39
f 33//50 53//49 64//31 48//30
f 33//50 48//30 59//29 44//51
f 33//50 44//51 55//15 45//14
f 33//50 45//14 65//13 53//49
f 66//52 86//53 106//54 91//55
f 66//52 76//56 96//57 86//53
f 66//52 87//58 98//59 76//56
f 66//52 91//55 103//60 87//58
f 67//61 87//58 103//60 92//62
f 67//61 79//63 98//59 87//58
f 67//61 88//64 102//65 79//63
f 67//61 92//62 104//66 88//64
f 68//67 88//64 104//66 93//68
f 68//67 82//69 102//65 88//64
f 68//67 89//70 100//71 82//69
f 68//67 93//68 105//72 89//70
f 69//73 78//74 97//75 75//76
f 69//73 81//77 101//78 78//74
f 69//73 84//79 99//80 81//77
f 69//73 75//76 95//81 84//79
f 70//82 90//83 95//81 75//76
f 70//82 91//55 106//54 90//83
f 70//82 77//84 103//60 91//55
f 70//82 75//76 97//75 77//84
f 71//85 77//84 97//75 78//74
f 71//85 92//62 103//60 77//84
f 71//85 80//86 104//66 92//62
f 71//85 78//74 101//78 80//86
f 72//87 80//86 101//78 81//77
f 72//87 93//68 104//66 80//86
f 72//87 83//88 105//72 93//68
f 72//87 81//77 99//80 83//88
f 73//89 83//88 99//80 84//79
f 73//89 94//90 105//72 83//88
f 73//89 90//83 106//54 94//90
f 73//89 84//79 95//81 90//83
f 74//91 89//70 105//72 94//90
f 74//91 85//92 100//71 89//70
f 74//91 86//53 96//57 85//92
f 74//91 94//90 106//54 86//53
f 143//93 163//94 183//95 168//96
f 143//93 153//97 173//98 163//94
f 143//93 164//99 175//100 153//97
f 143//93 168//96 180//101 164//99
f 144//102 164//99 180//101 169//103
f 144//102 156//104 175//100 164//99
f 144//102 165//105 179//106 156//104
f 144//102 169//103 181//107 165//105
f 145//108 165//105 181//107 170//109
f 145//108 159//110 179//106 165//105
f 145//108 166//111 177//112 159//110
f 145//108 170//109 182//113 166//111
f 146//114 155//115 174//116 152//117
f 146//114 158//118 178//119 155//115
f 146//114 161//120 176//121 158//118
f 146//114 152//117 172//122 161//120
f 147//123 167//124 172//122 152//117
f 147//123 168//96 183//95 167//124
f 147//123 154//125 180//101 168//96
f 147//123 152//117 174//116 154//125
f 148//126 154//125 174//116 155//115
f 148//126 169//103 180//101 154//125
f 148//126 157//127 181//107 169//103
f 148//126 155//115 178//119 157//127
f 149//128 157//127 178//119 158//118
f 149//128 170//109 181//107 157//127
f 149//128 160//129 182//113 170//109
f 149//128 158//118 176//121 160//129
f 150//130 160//129 176//121 161//120
f 150//130 171//131 182//113 160//129
f 150//130 167//124 183//95 171//131
f 150//130 161//120 172//122 167//124
f 151//132 166//111 182//113 171//131
f 151//132 162//133 177//112 166//111
f 151//132 163//94 173//98 162//133
f 151//132 171//131 183//95 163//94
f 184//134 209//135 224//136 204//137
f 184//134 204//137 214//138 194//139
f 184//134 194//139 216//140 205//141
f 184//134 205//141 221//142 209//135
f 185//143 210//144 221//142 205//141
f 185//143 205//141 216//140 197//145
f 185//143 197//145 220//146 206//147
f 185//143 206//147 222//148 210//144
f 186//149 211//150 222//148 206//147
f 186//149 206//147 220//146 200//151
f 186//149 200//151 218//152 207//153
f 186//149 207//153 223//154 211//150
f 187//155 193//156 215//157 196//158
f 187//155 196//158 219//159 199//160
f 187//155 199//160 217//161 202//162
f 187//155 202//162 213//163 193//156
f 188//164 193//156 213//163 208//165
f 188//164 208//165 224//136 209//135
f 188//164 209//135 221//142 195//166
f 188//164 195//166 215//157 193//156
f 189//167 196//158 215//157 195//166
f 189//167 195//166 221//142 210//144
f 189//167 210//144 222//148 198//168
f 189//167 198//168 219//159 196//158
f 190//169 199//160 219//159 198//168
f 190//169 198//168 222//148 211//150
f 190//169 211//150 223//154 201//170
f 190//169 201//170 217//161 199//160
f 191//171 202//162 217//161 201//170
f 191//171 201//170 223//154 212//172
f 191//171 212//172 224//136 208//165
f 191//171 208//165 213//163 202//162
f 192//173 212//172 223//154 207//153
f 192//173 207//153 218//152 203//174
f 192//173 203//174 214//138 204//137
f 192//173 204//137 224//136 212//172
