# Blender v2.79 (sub 0) OBJ File: 'Houseplant_1.blend'
# www.blender.org
mtllib Houseplant_1.mtl
o Houseplant_1_Cylinder.024
v -0.000000 0.129039 -0.115248
v -0.000000 0.274885 -0.121544
v 0.081493 0.129039 -0.081493
v 0.085944 0.274885 -0.085944
v 0.115248 0.129039 0.000000
v 0.121544 0.274885 0.000000
v 0.081493 0.129039 0.081493
v 0.085944 0.274885 0.085944
v -0.000000 0.129039 0.115248
v -0.000000 0.274885 0.121544
v -0.081493 0.129039 0.081493
v -0.085945 0.274885 0.085944
v -0.115248 0.129039 -0.000000
v -0.121544 0.274885 -0.000000
v -0.081493 0.129039 -0.081493
v -0.085945 0.274885 -0.085944
v -0.000000 0.097791 -0.088008
v 0.062231 0.097791 -0.062231
v 0.088008 0.097791 0.000000
v 0.062231 0.097791 0.062231
v -0.000000 0.097791 0.088008
v -0.062231 0.097791 0.062231
v -0.088008 0.097791 -0.000000
v -0.062231 0.097791 -0.062231
v -0.000000 0.001502 -0.077369
v 0.054708 0.001502 -0.054708
v 0.077369 0.001502 0.000000
v 0.054708 0.001502 0.054708
v -0.000000 0.001502 0.077369
v -0.054708 0.001502 0.054708
v -0.077369 0.001502 -0.000000
v -0.054708 0.001502 -0.054708
v 0.079166 0.274885 -0.079166
v -0.000000 0.274885 -0.111958
v 0.111958 0.274885 0.000000
v 0.079166 0.274885 0.079166
v -0.000000 0.274885 0.111958
v -0.079167 0.274885 0.079166
v -0.111958 0.274885 -0.000000
v -0.079167 0.274885 -0.079166
v 0.076198 0.236643 -0.076199
v -0.000000 0.236643 -0.107761
v 0.107761 0.236643 0.000000
v 0.076198 0.236643 0.076198
v -0.000000 0.236643 0.107761
v -0.076199 0.236643 0.076198
v -0.107761 0.236643 -0.000000
v -0.076199 0.236643 -0.076198
v 0.003290 0.595567 -0.137549
v 0.016958 0.595814 -0.051320
v 0.039997 0.594764 -0.173438
v 0.075162 0.594502 -0.115300
v 0.059372 0.594263 -0.206398
v 0.084578 0.594049 -0.169639
v -0.059432 0.582922 -0.161795
v -0.123359 0.508307 -0.246705
v 0.031593 0.585755 -0.210133
v -0.016684 0.569062 -0.232631
v 0.042580 0.574510 -0.252682
v -0.003380 0.549788 -0.302081
v -0.062787 0.565199 -0.216691
v -0.099806 0.496714 -0.275998
v -0.041925 0.541987 -0.259147
v -0.090900 0.463477 -0.322762
v -0.029095 0.505438 -0.312601
v -0.105354 0.410183 -0.311759
v -0.148087 0.598576 -0.044750
v -0.077454 0.597691 0.006557
v -0.078193 0.597108 -0.101915
v -0.052193 0.596842 -0.072260
v -0.196723 0.599470 -0.028321
v -0.160874 0.599194 0.029398
v -0.234883 0.600113 -0.026009
v -0.213566 0.599975 0.013134
v -0.141436 0.582620 -0.111118
v -0.102237 0.581489 -0.139382
v -0.188844 0.505544 -0.203456
v -0.156327 0.511257 -0.222597
v -0.225398 0.584807 -0.051319
v -0.223837 0.568298 -0.104616
v -0.268307 0.573364 -0.060562
v -0.291800 0.548725 -0.123846
v -0.125533 0.565310 -0.174571
v -0.189150 0.561749 -0.136377
v -0.224468 0.493311 -0.196765
v -0.235508 0.536701 -0.136109
v -0.269269 0.458607 -0.209393
v -0.287896 0.498372 -0.148111
v -0.249880 0.404086 -0.216307
v -0.190350 0.348076 -0.287085
v -0.035907 0.579648 -0.050587
v -0.063798 0.597074 -0.064732
v -0.049663 0.579925 -0.041568
v -0.025377 0.385833 0.024099
v -0.004498 0.385412 0.010135
v -0.002935 0.141124 -0.009943
v -0.023813 0.141546 0.004021
v 0.165174 0.679538 0.125084
v 0.063505 0.665059 0.095670
v 0.186844 0.675946 0.183941
v 0.105658 0.660295 0.192641
v 0.213726 0.675898 0.222231
v 0.160947 0.665329 0.231000
v 0.225309 0.680739 0.066846
v 0.365951 0.616357 0.030486
v 0.233267 0.671977 0.192444
v 0.285251 0.665094 0.148687
v 0.277098 0.662125 0.225037
v 0.359258 0.648871 0.196667
v 0.291138 0.667807 0.089165
v 0.389100 0.601650 0.070035
v 0.332560 0.641561 0.131024
v 0.443254 0.566467 0.099636
v 0.392856 0.602526 0.167967
v 0.449535 0.504094 0.071063
v 0.136641 0.701640 -0.089183
v 0.045709 0.678843 -0.037965
v 0.165591 0.693324 0.017128
v 0.120254 0.683512 0.030431
v 0.142224 0.710507 -0.151125
v 0.061166 0.694757 -0.141458
v 0.158260 0.718860 -0.194273
v 0.104748 0.708859 -0.191010
v 0.209815 0.690341 -0.049689
v 0.221939 0.684784 0.007934
v 0.351052 0.620619 -0.064339
v 0.354960 0.623380 -0.017890
v 0.184713 0.702067 -0.172764
v 0.246113 0.689350 -0.145696
v 0.218360 0.698526 -0.216761
v 0.304766 0.682642 -0.213203
v 0.275529 0.675101 -0.001684
v 0.265447 0.678720 -0.091946
v 0.363755 0.612415 -0.108639
v 0.293202 0.658279 -0.146431
v 0.406989 0.581871 -0.156015
v 0.340238 0.624876 -0.202964
v 0.416653 0.513500 -0.138217
v 0.477239 0.443880 -0.043431
v 0.092057 0.656540 0.034938
v 0.117611 0.685152 0.013792
v 0.088817 0.658471 0.015166
v 0.045789 0.411836 -0.017355
v 0.051007 0.408941 0.012798
v 0.043009 0.111530 -0.001510
v 0.037791 0.114425 -0.031663
v -0.072226 0.529658 0.178288
v -0.034290 0.541100 0.100492
v -0.122852 0.528413 0.186752
v -0.118596 0.538280 0.119660
v -0.157565 0.526080 0.202611
v -0.157317 0.532566 0.158515
v -0.034740 0.508163 0.231340
v -0.031883 0.418369 0.325110
v -0.137019 0.514485 0.219972
v -0.110468 0.490623 0.262881
v -0.170488 0.499605 0.246730
v -0.161312 0.464966 0.309017
v -0.063576 0.484046 0.275224
v -0.068122 0.405905 0.333972
v -0.105303 0.458327 0.294560
v -0.102653 0.368598 0.362020
v -0.146926 0.417373 0.325350
v -0.085397 0.315738 0.353173
v 0.105070 0.528192 0.188256
v 0.076287 0.540185 0.106709
v 0.015045 0.527157 0.195291
v 0.010590 0.532859 0.156521
v 0.154401 0.526120 0.202340
v 0.157856 0.535994 0.135203
v 0.187075 0.523231 0.221987
v 0.191878 0.529678 0.178147
v 0.061505 0.505505 0.236120
v 0.013175 0.505054 0.236931
v 0.046517 0.414071 0.326285
v 0.008991 0.420763 0.324455
v 0.164599 0.506155 0.234952
v 0.132657 0.483908 0.274956
v 0.194385 0.489528 0.264851
v 0.177193 0.455617 0.325829
v 0.011978 0.482732 0.276212
v 0.085949 0.477254 0.280331
v 0.079390 0.399205 0.339009
v 0.123762 0.447922 0.302382
v 0.108411 0.359011 0.369228
v 0.159312 0.403463 0.335808
v 0.087633 0.306253 0.355767
v -0.002551 0.248722 0.371498
v 0.009281 0.519954 0.127156
v 0.024418 0.532796 0.156949
v 0.025727 0.519891 0.127585
v 0.039975 0.337938 0.031337
v 0.014857 0.338001 0.030909
v 0.000610 0.093312 0.019449
v 0.025727 0.093249 0.019877
vn 0.0000 -0.3458 -0.9383
vn 0.0000 -0.0431 -0.9991
vn 0.7064 -0.0431 -0.7064
vn 0.6635 -0.3458 -0.6635
vn 0.9991 -0.0431 0.0000
vn 0.9383 -0.3458 0.0000
vn 0.7064 -0.0431 0.7064
vn 0.6635 -0.3458 0.6635
vn -0.0000 -0.0431 0.9991
vn -0.0000 -0.3458 0.9383
vn -0.7064 -0.0431 0.7064
vn -0.6635 -0.3458 0.6635
vn -0.9991 -0.0431 0.0000
vn -0.9383 -0.3458 0.0000
vn 0.0000 1.0000 0.0000
vn -0.7064 -0.0431 -0.7064
vn -0.6635 -0.3458 -0.6635
vn 0.9021 -0.4314 0.0000
vn 0.6379 -0.4314 -0.6379
vn -0.0000 -0.4314 0.9021
vn -0.6379 -0.4314 0.6379
vn -0.7028 -0.1098 0.7028
vn -0.0000 -0.1098 0.9940
vn -0.0000 -0.4314 -0.9021
vn -0.6379 -0.4314 -0.6379
vn 0.6379 -0.4314 0.6379
vn -0.9021 -0.4314 0.0000
vn 0.0000 -1.0000 -0.0000
vn 0.7028 -0.1098 0.7028
vn 0.9940 -0.1098 0.0000
vn 0.7028 -0.1098 -0.7028
vn -0.0000 -0.1098 -0.9940
vn -0.7028 -0.1098 -0.7028
vn -0.9940 -0.1098 0.0000
vn 0.9940 0.1091 -0.0000
vn 0.7029 0.1091 -0.7029
vn 0.0000 0.1091 -0.9940
vn -0.7029 0.1091 -0.7029
vn -0.9940 0.1091 -0.0000
vn -0.7029 0.1091 0.7029
vn 0.7029 0.1091 0.7029
vn 0.0000 0.1091 0.9940
vn -0.0484 0.9935 -0.1029
vn -0.0753 0.9864 -0.1463
vn 0.1033 0.9864 0.1279
vn 0.0165 0.9998 -0.0055
vn -0.1550 0.9508 -0.2681
vn -0.1805 0.9420 -0.2828
vn -0.3045 0.8422 -0.4450
vn -0.3304 0.7975 -0.5048
vn -0.4394 0.6109 -0.6585
vn -0.4587 0.5826 -0.6709
vn -0.1687 0.9502 -0.2620
vn -0.1717 0.9481 -0.2678
vn -0.1862 0.9370 -0.2957
vn -0.3866 0.7142 -0.5835
vn -0.3872 0.7142 -0.5831
vn -0.3892 0.7142 -0.5817
vn -0.5156 0.4057 -0.7547
vn -0.0597 0.9920 -0.1113
vn 0.1022 0.9867 0.1263
vn -0.1909 0.9413 -0.2784
vn -0.4467 0.6074 -0.6569
vn -0.3463 0.7887 -0.5079
vn -0.1772 0.9425 -0.2833
vn -0.1754 0.9436 -0.2807
vn -0.3828 0.7144 -0.5857
vn -0.3809 0.7144 -0.5869
vn 0.4427 0.6153 0.6523
vn 0.4415 0.6180 0.6505
vn 0.5512 0.1359 0.8232
vn 0.5514 0.1327 0.8236
vn 0.5539 -0.0647 0.8301
vn -0.0602 0.9925 0.1060
vn -0.0092 0.9950 0.0993
vn -0.3275 0.9338 0.1445
vn -0.1750 0.9767 0.1241
vn 0.1386 0.9875 0.0752
vn 0.1635 0.9849 0.0575
vn 0.3764 0.9265 0.0036
vn 0.4483 0.8939 0.0007
vn 0.6627 0.7471 -0.0526
vn 0.6864 0.7240 -0.0677
vn 0.1387 0.9885 0.0602
vn 0.1454 0.9876 0.0597
vn 0.1782 0.9823 0.0572
vn 0.5560 0.8308 -0.0256
vn 0.5559 0.8308 -0.0263
vn 0.5556 0.8310 -0.0287
vn 0.8153 0.5700 -0.1025
vn -0.0479 0.9939 0.0992
vn -0.3256 0.9344 0.1442
vn 0.1639 0.9854 0.0462
vn 0.6647 0.7447 -0.0602
vn 0.4590 0.8883 -0.0133
vn 0.1625 0.9848 0.0607
vn 0.1593 0.9853 0.0614
vn 0.5566 0.8305 -0.0212
vn 0.5568 0.8304 -0.0190
vn -0.8709 0.4536 0.1892
vn -0.8693 0.4567 0.1892
vn -0.9810 0.0817 0.1759
vn -0.9849 0.0182 0.1722
vn -0.0023 0.9655 0.2603
vn -0.0051 0.9508 0.3096
vn 0.0045 0.9999 -0.0138
vn 0.0000 0.9894 0.1455
vn -0.0097 0.8939 0.4482
vn 0.0027 0.8810 0.4731
vn 0.0105 0.7515 0.6597
vn -0.0031 0.6979 0.7162
vn -0.0043 0.4851 0.8744
vn 0.0040 0.4538 0.8911
vn 0.0051 0.8926 0.4508
vn 0.0042 0.8896 0.4568
vn 0.0000 0.8740 0.4860
vn -0.0032 0.6010 0.7992
vn -0.0025 0.6010 0.7992
vn 0.0000 0.6009 0.7993
vn -0.0000 0.2638 0.9646
vn 0.0021 0.9620 0.2732
vn 0.0045 0.9999 -0.0118
vn 0.0138 0.8797 0.4753
vn 0.0026 0.4811 0.8767
vn 0.0081 0.6873 0.7263
vn -0.0002 0.8818 0.4717
vn -0.0003 0.8833 0.4688
vn -0.0076 0.6013 0.7990
vn -0.0098 0.6014 0.7989
vn 0.0185 0.7266 -0.6868
vn 0.0185 0.7290 -0.6843
vn 0.0188 0.2630 -0.9646
vn 0.0188 0.2611 -0.9651
vn 0.0172 0.0458 -0.9988
usemtl Black
s 1
f 1//1 2//2 4//3 3//4
f 3//4 4//3 6//5 5//6
f 5//6 6//5 8//7 7//8
f 7//8 8//7 10//9 9//10
f 9//10 10//9 12//11 11//12
f 11//12 12//11 14//13 13//14
f 14//15 12//15 38//15 39//15
f 13//14 14//13 16//16 15//17
f 15//17 16//16 2//2 1//1
f 3//4 5//6 19//18 18//19
f 21//20 22//21 30//22 29//23
f 9//10 11//12 22//21 21//20
f 15//17 1//1 17//24 24//25
f 1//1 3//4 18//19 17//24
f 5//6 7//8 20//26 19//18
f 11//12 13//14 23//27 22//21
f 7//8 9//10 21//20 20//26
f 13//14 15//17 24//25 23//27
f 25//28 26//28 27//28 28//28 29//28 30//28 31//28 32//28
f 19//18 20//26 28//29 27//30
f 17//24 18//19 26//31 25//32
f 24//25 17//24 25//32 32//33
f 22//21 23//27 31//34 30//22
f 20//26 21//20 29//23 28//29
f 18//19 19//18 27//30 26//31
f 23//27 24//25 32//33 31//34
f 39//35 38//36 46//36 47//35
f 10//15 8//15 36//15 37//15
f 16//15 14//15 39//15 40//15
f 6//15 4//15 33//15 35//15
f 12//15 10//15 37//15 38//15
f 2//15 16//15 40//15 34//15
f 4//15 2//15 34//15 33//15
f 8//15 6//15 35//15 36//15
f 37//37 36//38 44//38 45//37
f 35//39 33//40 41//40 43//39
f 40//41 39//35 47//35 48//41
f 38//36 37//37 45//37 46//36
f 36//38 35//39 43//39 44//38
f 33//40 34//42 42//42 41//40
f 34//42 40//41 48//41 42//42
usemtl Brown
f 41//15 42//15 48//15 47//15 46//15 45//15 44//15 43//15
usemtl Plant_Green
f 49//43 69//44 70//45 50//46
f 49//43 50//46 52//46 51//46
f 51//46 52//46 54//46 53//46
f 69//44 49//43 55//47 76//48
f 83//49 61//50 56//51 78//52
f 55//47 49//43 57//53 58//54
f 58//54 57//53 59//55 60//55
f 76//48 55//47 61//50 83//49
f 56//51 61//50 63//56 62//57
f 62//57 63//56 65//58 64//58
f 78//52 56//51 66//59 90//59
f 67//60 68//46 92//61 69//44
f 67//60 71//46 72//46 68//46
f 71//46 73//46 74//46 72//46
f 69//44 76//48 75//62 67//60
f 83//49 78//52 77//63 84//64
f 75//62 80//65 79//66 67//60
f 80//65 82//55 81//55 79//66
f 76//48 83//49 84//64 75//62
f 77//63 85//67 86//68 84//64
f 85//67 87//58 88//58 86//68
f 78//52 90//59 89//59 77//63
f 70//45 92//61 93//69 91//70
f 69//44 92//61 70//45
f 93//69 94//71 95//72 91//70
f 94//71 97//73 96//73 95//72
f 98//74 118//75 119//76 99//77
f 98//74 99//77 101//77 100//77
f 100//77 101//77 103//77 102//77
f 118//75 98//74 104//78 125//79
f 132//80 110//81 105//82 127//83
f 104//78 98//74 106//84 107//85
f 107//85 106//84 108//86 109//86
f 125//79 104//78 110//81 132//80
f 105//82 110//81 112//87 111//88
f 111//88 112//87 114//89 113//89
f 127//83 105//82 115//90 139//90
f 116//91 117//77 141//92 118//75
f 116//91 120//77 121//77 117//77
f 120//77 122//77 123//77 121//77
f 118//75 125//79 124//93 116//91
f 132//80 127//83 126//94 133//95
f 124//93 129//96 128//97 116//91
f 129//96 131//86 130//86 128//97
f 125//79 132//80 133//95 124//93
f 126//94 134//98 135//99 133//95
f 134//98 136//89 137//89 135//99
f 127//83 139//90 138//90 126//94
f 119//76 141//92 142//100 140//101
f 118//75 141//92 119//76
f 142//100 143//102 144//102 140//101
f 143//102 146//103 145//103 144//102
f 147//104 167//105 168//106 148//107
f 147//104 148//107 150//107 149//107
f 149//107 150//107 152//107 151//107
f 167//105 147//104 153//108 174//109
f 181//110 159//111 154//112 176//113
f 153//108 147//104 155//114 156//115
f 156//115 155//114 157//116 158//116
f 174//109 153//108 159//111 181//110
f 154//112 159//111 161//117 160//118
f 160//118 161//117 163//119 162//119
f 176//113 154//112 164//120 188//120
f 165//121 166//107 190//122 167//105
f 165//121 169//107 170//107 166//107
f 169//107 171//107 172//107 170//107
f 167//105 174//109 173//123 165//121
f 181//110 176//113 175//124 182//125
f 173//123 178//126 177//127 165//121
f 178//126 180//116 179//116 177//127
f 174//109 181//110 182//125 173//123
f 175//124 183//128 184//129 182//125
f 183//128 185//119 186//119 184//129
f 176//113 188//120 187//120 175//124
f 168//106 190//122 191//130 189//131
f 167//105 190//122 168//106
f 191//130 192//132 193//133 189//131
f 192//132 195//134 194//134 193//133
