# Blender v2.79 (sub 0) OBJ File: 'Light_Floor2.blend'
# www.blender.org
mtllib Light_Floor2.mtl
o Light_Floor2_Cylinder.003
v -0.000000 0.431934 -0.164707
v 0.000000 0.750151 -0.154593
v 0.096811 0.431934 -0.133251
v 0.090867 0.750151 -0.125068
v 0.156644 0.431934 -0.050898
v 0.147025 0.750151 -0.047773
v 0.156644 0.431934 0.050896
v 0.147025 0.750151 0.047770
v 0.096811 0.431934 0.133248
v 0.090867 0.750151 0.125066
v -0.000000 0.431934 0.164704
v -0.000000 0.750151 0.154590
v -0.096811 0.431934 0.133248
v -0.090867 0.750151 0.125066
v -0.156644 0.431934 0.050896
v -0.147025 0.750151 0.047770
v -0.156644 0.431934 -0.050898
v -0.147025 0.750151 -0.047773
v -0.096811 0.431934 -0.133251
v -0.090867 0.750151 -0.125069
v -0.000000 0.431231 -0.149297
v 0.087754 0.431231 -0.120784
v 0.082365 0.751050 -0.113367
v 0.000000 0.751050 -0.140130
v 0.141989 0.431231 -0.046136
v 0.133270 0.751050 -0.043303
v 0.141989 0.431231 0.046134
v 0.133270 0.751050 0.043301
v 0.087754 0.431231 0.120782
v 0.082365 0.751050 0.113365
v -0.000000 0.431231 0.149295
v -0.000000 0.751050 0.140127
v -0.087754 0.431231 0.120782
v -0.082365 0.751050 0.113365
v -0.141989 0.431231 0.046134
v -0.133270 0.751050 0.043301
v -0.141989 0.431231 -0.046136
v -0.133270 0.751050 -0.043303
v -0.087754 0.431231 -0.120784
v -0.082365 0.751050 -0.113367
v -0.000000 0.000000 -0.049731
v -0.035164 0.012970 -0.035165
v 0.035164 0.000000 -0.035165
v -0.049730 0.012970 -0.000001
v 0.049730 0.000000 -0.000001
v -0.035164 0.012970 0.035163
v 0.035164 0.000000 0.035163
v -0.000000 0.012970 0.049729
v -0.000000 0.000000 0.049729
v 0.035164 0.012970 0.035163
v -0.035164 0.000000 0.035163
v 0.049730 0.012970 -0.000001
v -0.049730 0.000000 -0.000001
v 0.035164 0.012970 -0.035165
v -0.035164 0.000000 -0.035165
v -0.000000 0.012970 -0.049731
v 0.029115 0.328061 -0.029116
v 0.041175 0.328061 -0.000001
v 0.029115 0.328061 0.029114
v -0.000000 0.328061 0.041174
v -0.029115 0.328061 0.029114
v -0.041175 0.328061 -0.000001
v -0.000000 0.328061 -0.041176
v -0.029115 0.328061 -0.029116
v -0.050889 0.258861 -0.050890
v -0.071968 0.258861 -0.000001
v -0.050889 0.258861 0.050888
v -0.000000 0.258861 0.071967
v 0.050889 0.258861 0.050888
v 0.071968 0.258861 -0.000001
v 0.050889 0.258861 -0.050890
v -0.000000 0.258861 -0.071969
v 0.092793 0.180385 -0.092794
v 0.131229 0.180385 -0.000001
v 0.092793 0.180385 0.092792
v -0.000000 0.180385 0.131228
v -0.092793 0.180385 0.092792
v -0.131229 0.180385 -0.000001
v -0.000000 0.180385 -0.131230
v -0.092793 0.180385 -0.092794
v -0.108828 0.102201 -0.108829
v -0.153906 0.102201 -0.000001
v -0.108828 0.102201 0.108827
v -0.000000 0.102201 0.153905
v 0.108828 0.102201 0.108827
v 0.153906 0.102201 -0.000001
v 0.108828 0.102201 -0.108829
v -0.000000 0.102201 -0.153907
v 0.085926 0.060799 -0.085927
v 0.121517 0.060799 -0.000001
v 0.085926 0.060799 0.085924
v -0.000000 0.060799 0.121516
v -0.085926 0.060799 0.085924
v -0.121517 0.060799 -0.000001
v -0.000000 0.060799 -0.121518
v -0.085926 0.060799 -0.085927
v -0.061871 0.047018 -0.061872
v -0.087498 0.047018 -0.000001
v -0.061871 0.047018 0.061870
v -0.000000 0.047018 0.087497
v 0.061871 0.047018 0.061870
v 0.087498 0.047018 -0.000001
v 0.061871 0.047018 -0.061872
v -0.000000 0.047018 -0.087500
v 0.039660 0.029184 -0.039661
v 0.056087 0.029184 -0.000001
v 0.039660 0.029184 0.039659
v -0.000000 0.029184 0.056086
v -0.039660 0.029184 0.039659
v -0.056087 0.029184 -0.000001
v -0.000000 0.029184 -0.056089
v -0.039660 0.029184 -0.039661
v -0.003502 0.740804 -0.144047
v -0.003502 0.747808 -0.144047
v 0.003502 0.740804 -0.144047
v 0.003502 0.747808 -0.144047
v -0.003502 0.740804 0.144045
v -0.003502 0.747808 0.144045
v 0.003502 0.740804 0.144045
v 0.003502 0.747808 0.144045
v -0.144046 0.740804 0.003501
v -0.144046 0.747808 0.003501
v -0.144046 0.740804 -0.003503
v -0.144046 0.747808 -0.003503
v 0.144046 0.740804 0.003501
v 0.144046 0.747808 0.003501
v 0.144046 0.740804 -0.003503
v 0.144046 0.747808 -0.003503
v -0.000000 0.374672 -0.026742
v 0.018908 0.374672 -0.018910
v 0.026740 0.374672 -0.000001
v 0.018908 0.374672 0.018907
v -0.000000 0.374672 0.026739
v -0.018908 0.374672 0.018907
v -0.026740 0.374672 -0.000001
v -0.018908 0.374672 -0.018910
v -0.000000 0.756699 -0.017292
v 0.012227 0.756699 -0.012228
v 0.017291 0.756699 -0.000001
v 0.012227 0.756699 0.012225
v -0.000000 0.756699 0.017290
v -0.012227 0.756699 0.012225
v -0.017291 0.756699 -0.000001
v -0.012227 0.756699 -0.012228
vn 0.0000 0.0318 -0.9995
vn 0.5875 0.0318 -0.8086
vn 0.9506 0.0318 -0.3089
vn 0.9506 0.0318 0.3089
vn 0.5875 0.0318 0.8086
vn -0.0000 0.0318 0.9995
vn -0.5875 0.0318 0.8086
vn -0.9506 0.0318 0.3089
vn -0.9506 0.0318 -0.3089
vn -0.5875 -0.0287 0.8087
vn -0.9507 -0.0287 0.3089
vn -0.5875 0.0318 -0.8086
vn -0.0000 -0.0287 0.9996
vn -0.9507 -0.0287 -0.3089
vn -0.5875 -0.0287 -0.8087
vn 0.0000 -0.0287 -0.9996
vn 0.5875 -0.0287 -0.8087
vn 0.9507 -0.0287 -0.3089
vn 0.9507 -0.0287 0.3089
vn 0.5875 -0.0287 0.8087
vn -0.0590 0.9981 0.0192
vn -0.0590 0.9981 -0.0192
vn 0.0000 0.9981 -0.0620
vn 0.0364 0.9981 -0.0501
vn -0.0268 -0.9990 0.0369
vn -0.0000 -0.9990 0.0456
vn -0.0000 0.9981 0.0620
vn -0.0364 0.9981 0.0501
vn 0.0268 -0.9990 0.0369
vn 0.0433 -0.9990 0.0141
vn -0.0268 -0.9990 -0.0369
vn -0.0433 -0.9990 -0.0141
vn 0.0590 0.9981 0.0192
vn 0.0364 0.9981 0.0501
vn -0.0364 0.9981 -0.0502
vn 0.0433 -0.9990 -0.0141
vn 0.0268 -0.9990 -0.0369
vn -0.0433 -0.9990 0.0141
vn 0.0590 0.9981 -0.0192
vn 0.0000 -0.9990 -0.0456
vn 1.0000 0.0000 0.0000
vn 0.9809 -0.1946 0.0000
vn 0.6936 -0.1946 0.6936
vn 0.7071 0.0000 0.7071
vn 0.0000 0.0000 -1.0000
vn 0.0000 -0.1946 -0.9809
vn 0.6936 -0.1946 -0.6936
vn 0.7071 0.0000 -0.7071
vn -0.7071 -0.0000 -0.7071
vn -0.6936 -0.1946 -0.6936
vn -0.0000 -0.0000 1.0000
vn -0.0000 -0.1946 0.9809
vn -0.6936 -0.1946 0.6936
vn -0.7071 -0.0000 0.7071
vn -1.0000 -0.0000 0.0000
vn -0.9809 -0.1946 0.0000
vn -0.8539 0.5205 0.0000
vn -0.9342 0.3567 0.0000
vn -0.6606 0.3567 -0.6606
vn -0.6038 0.5205 -0.6038
vn -0.0000 -0.6985 -0.7156
vn 0.5060 -0.6985 -0.5060
vn 0.0000 -1.0000 0.0000
vn -0.0000 0.5205 0.8539
vn -0.0000 0.3567 0.9342
vn -0.6606 0.3567 0.6606
vn -0.6038 0.5205 0.6038
vn 0.8539 0.5205 -0.0000
vn 0.9342 0.3567 -0.0000
vn 0.6606 0.3567 0.6606
vn 0.6038 0.5205 0.6038
vn -0.0000 0.5205 -0.8539
vn -0.0000 0.3567 -0.9342
vn 0.6606 0.3567 -0.6606
vn 0.6038 0.5205 -0.6038
vn 0.9859 0.1674 0.0000
vn 0.6971 0.1674 0.6971
vn -0.6380 0.4312 0.6380
vn -0.9023 0.4312 0.0000
vn -0.6380 0.4312 -0.6380
vn 0.0000 0.4312 -0.9023
vn 0.6380 0.4312 -0.6380
vn 0.9023 0.4312 -0.0000
vn 0.6380 0.4312 0.6380
vn -0.0000 0.4312 0.9023
vn -0.6791 0.2786 -0.6791
vn 0.0000 0.2786 -0.9604
vn -0.6791 0.2786 0.6791
vn -0.9604 0.2786 0.0000
vn 0.6791 0.2786 0.6791
vn -0.0000 0.2786 0.9604
vn 0.6791 0.2786 -0.6791
vn 0.9604 0.2786 0.0000
vn -0.6397 -0.7686 -0.0000
vn -0.7876 -0.6162 -0.0000
vn -0.5569 -0.6162 -0.5569
vn -0.4523 -0.7686 -0.4523
vn 0.4523 -0.7686 -0.4523
vn 0.5569 -0.6162 -0.5569
vn 0.7876 -0.6162 0.0000
vn 0.6397 -0.7686 0.0000
vn 0.4523 -0.7686 0.4523
vn 0.5569 -0.6162 0.5569
vn -0.0000 -0.6162 0.7876
vn -0.0000 -0.7686 0.6397
vn -0.4523 -0.7686 0.4523
vn -0.5569 -0.6162 0.5569
vn -0.0000 -0.6162 -0.7876
vn 0.0000 -0.7686 -0.6397
vn -0.4221 -0.9065 0.0000
vn -0.2985 -0.9065 -0.2985
vn -0.0000 -0.9065 0.4221
vn -0.2985 -0.9065 0.2985
vn 0.4221 -0.9065 -0.0000
vn 0.2985 -0.9065 0.2985
vn 0.0000 -0.9065 -0.4221
vn 0.2985 -0.9065 -0.2985
vn -0.5060 -0.6985 -0.5060
vn 0.7156 -0.6985 0.0000
vn 0.5060 -0.6985 0.5060
vn -0.0000 -0.6985 0.7156
vn -0.5060 -0.6985 0.5060
vn -0.7156 -0.6985 -0.0000
vn 0.0000 1.0000 -0.0000
vn -0.9859 0.1674 -0.0000
vn -0.9997 0.0247 0.0000
vn -0.7069 0.0247 -0.7069
vn -0.6971 0.1674 -0.6971
vn -0.0000 0.1674 -0.9859
vn 0.6971 0.1674 -0.6971
vn -0.6971 0.1674 0.6971
vn -0.0000 0.1674 0.9859
vn -0.0000 0.0247 0.9997
vn -0.7069 0.0247 0.7069
vn 0.9997 0.0247 0.0000
vn 0.7069 0.0247 0.7069
vn -0.0000 0.0247 -0.9997
vn 0.7069 0.0247 -0.7069
usemtl White
s 1
f 1//1 2//1 4//2 3//2
f 3//2 4//2 6//3 5//3
f 5//3 6//3 8//4 7//4
f 7//4 8//4 10//5 9//5
f 9//5 10//5 12//6 11//6
f 11//6 12//6 14//7 13//7
f 13//7 14//7 16//8 15//8
f 15//8 16//8 18//9 17//9
f 22//10 25//11 26//11 23//10
f 17//9 18//9 20//12 19//12
f 19//12 20//12 2//1 1//1
f 21//13 22//10 23//10 24//13
f 25//11 27//14 28//14 26//11
f 27//14 29//15 30//15 28//14
f 29//15 31//16 32//16 30//15
f 31//16 33//17 34//17 32//16
f 33//17 35//18 36//18 34//17
f 35//18 37//19 38//19 36//18
f 37//19 39//20 40//20 38//19
f 39//20 21//13 24//13 40//20
f 16//21 36//21 38//22 18//22
f 2//23 24//23 23//24 4//24
f 13//25 33//25 31//26 11//26
f 12//27 32//27 34//28 14//28
f 9//29 29//29 27//30 7//30
f 19//31 39//31 37//32 17//32
f 8//33 28//33 30//34 10//34
f 18//22 38//22 40//35 20//35
f 5//36 25//36 22//37 3//37
f 15//38 35//38 33//25 13//25
f 4//24 23//24 26//39 6//39
f 14//28 34//28 36//21 16//21
f 11//26 31//26 29//29 9//29
f 1//40 21//40 39//31 19//31
f 10//34 30//34 32//27 12//27
f 20//35 40//35 24//23 2//23
f 7//30 27//30 25//36 5//36
f 17//32 37//32 35//38 15//38
f 3//37 22//37 21//40 1//40
f 6//39 26//39 28//33 8//33
usemtl LightMetal
f 45//41 52//42 50//43 47//44
f 41//45 56//46 54//47 43//48
f 55//49 42//50 56//46 41//45
f 49//51 48//52 46//53 51//54
f 43//48 54//47 52//42 45//41
f 53//55 44//56 42//50 55//49
f 66//57 62//58 64//59 65//60
f 47//44 50//43 48//52 49//51
f 56//46 111//61 105//62 54//47
f 41//63 43//63 45//63 47//63 49//63 51//63 53//63 55//63
f 68//64 60//65 61//66 67//67
f 70//68 58//69 59//70 69//71
f 72//72 63//73 57//74 71//75
f 65//60 64//59 63//73 72//72
f 67//67 61//66 62//58 66//57
f 69//71 59//70 60//65 68//64
f 58//69 131//76 132//77 59//70
f 77//78 67//67 66//57 78//79
f 80//80 65//60 72//72 79//81
f 79//81 72//72 71//75 73//82
f 74//83 70//68 69//71 75//84
f 76//85 68//64 67//67 77//78
f 78//79 66//57 65//60 80//80
f 73//82 71//75 70//68 74//83
f 71//75 57//74 58//69 70//68
f 81//86 80//80 79//81 88//87
f 83//88 77//78 78//79 82//89
f 85//90 75//84 76//85 84//91
f 87//92 73//82 74//83 86//93
f 82//89 78//79 80//80 81//86
f 84//91 76//85 77//78 83//88
f 86//93 74//83 75//84 85//90
f 75//84 69//71 68//64 76//85
f 94//94 82//95 81//96 96//97
f 89//98 87//99 86//100 90//101
f 91//102 85//103 84//104 92//105
f 93//106 83//107 82//95 94//94
f 96//97 81//96 88//108 95//109
f 95//109 88//108 87//99 89//98
f 90//101 86//100 85//103 91//102
f 88//87 79//81 73//82 87//92
f 98//110 94//94 96//97 97//111
f 100//112 92//105 93//106 99//113
f 102//114 90//101 91//102 101//115
f 104//116 95//109 89//98 103//117
f 97//111 96//97 95//109 104//116
f 99//113 93//106 94//94 98//110
f 101//115 91//102 92//105 100//112
f 92//105 84//104 83//107 93//106
f 112//118 97//111 104//116 111//61
f 111//61 104//116 103//117 105//62
f 106//119 102//114 101//115 107//120
f 108//121 100//112 99//113 109//122
f 110//123 98//110 97//111 112//118
f 105//62 103//117 102//114 106//119
f 107//120 101//115 100//112 108//121
f 103//117 89//98 90//101 102//114
f 44//56 110//123 112//118 42//50
f 50//43 107//120 108//121 48//52
f 52//42 106//119 107//120 50//43
f 46//53 109//122 110//123 44//56
f 48//52 108//121 109//122 46//53
f 54//47 105//62 106//119 52//42
f 42//50 112//118 111//61 56//46
f 109//122 99//113 98//110 110//123
f 51//54 46//53 44//56 53//55
f 113//45 114//45 116//45 115//45
f 115//41 116//41 120//41 119//41
f 119//51 120//51 118//51 117//51
f 117//55 118//55 114//55 113//55
f 115//63 119//63 117//63 113//63
f 120//124 116//124 114//124 118//124
f 121//55 122//55 124//55 123//55
f 123//45 124//45 128//45 127//45
f 127//41 128//41 126//41 125//41
f 125//51 126//51 122//51 121//51
f 123//63 127//63 125//63 121//63
f 128//124 124//124 122//124 126//124
f 135//125 143//126 144//127 136//128
f 63//73 129//129 130//130 57//74
f 64//59 136//128 129//129 63//73
f 61//66 134//131 135//125 62//58
f 59//70 132//77 133//132 60//65
f 57//74 130//130 131//76 58//69
f 62//58 135//125 136//128 64//59
f 60//65 133//132 134//131 61//66
f 137//124 144//124 143//124 142//124 141//124 140//124 139//124 138//124
f 133//132 141//133 142//134 134//131
f 131//76 139//135 140//136 132//77
f 129//129 137//137 138//138 130//130
f 136//128 144//127 137//137 129//129
f 134//131 142//134 143//126 135//125
f 132//77 140//136 141//133 133//132
f 130//130 138//138 139//135 131//76
