# Blender v2.79 (sub 0) OBJ File: 'Light_Cube.blend'
# www.blender.org
mtllib Light_Cube.mtl
o Light_Cube_Cylinder.052
v 0.000000 -0.011649 -0.109642
v 0.000000 0.001518 -0.109642
v 0.064446 -0.011649 -0.088702
v 0.064446 0.001518 -0.088702
v 0.104276 -0.011649 -0.033881
v 0.104276 0.001518 -0.033881
v 0.104276 -0.011649 0.033881
v 0.104276 0.001518 0.033881
v 0.064446 -0.011649 0.088702
v 0.064446 0.001518 0.088702
v -0.000000 -0.011649 0.109642
v -0.000000 0.001518 0.109642
v -0.064446 -0.011649 0.088702
v -0.064446 0.001518 0.088702
v -0.104276 -0.011649 0.033881
v -0.104276 0.001518 0.033881
v -0.104276 -0.011649 -0.033881
v -0.104276 0.001518 -0.033881
v -0.064446 -0.011649 -0.088702
v -0.064446 0.001518 -0.088702
v -0.004096 -0.011230 0.004096
v -0.005793 -0.011230 -0.000000
v -0.004096 -0.011230 -0.004096
v -0.000000 -0.011230 -0.005793
v -0.004096 -0.523160 -0.004096
v -0.005793 -0.523160 -0.000000
v -0.004096 -0.523160 0.004096
v -0.000000 -0.523160 0.005793
v 0.004096 -0.523160 0.004096
v 0.005793 -0.523160 -0.000000
v 0.004096 -0.523160 -0.004096
v -0.000000 -0.523160 -0.005793
v -0.000000 -0.011230 0.005793
v 0.004096 -0.011230 0.004096
v 0.005793 -0.011230 -0.000000
v 0.004096 -0.011230 -0.004096
v 0.001831 -0.502591 -0.058230
v 0.001831 -0.478372 -0.058230
v 0.036641 -0.502591 -0.046920
v 0.036641 -0.478372 -0.046920
v 0.058155 -0.502591 -0.017308
v 0.058155 -0.478372 -0.017308
v 0.058155 -0.502591 0.019294
v 0.058155 -0.478372 0.019294
v 0.036641 -0.502591 0.048906
v 0.036641 -0.478372 0.048906
v 0.001831 -0.502591 0.060216
v 0.001831 -0.478372 0.060216
v -0.032980 -0.502591 0.048906
v -0.032980 -0.478372 0.048906
v -0.054494 -0.502591 0.019294
v -0.054494 -0.478372 0.019294
v -0.054494 -0.502591 -0.017308
v -0.054494 -0.478372 -0.017308
v -0.032980 -0.502591 -0.046920
v -0.032980 -0.478372 -0.046920
v -0.255530 -1.002421 0.255531
v -0.250587 -1.007364 0.255531
v -0.255530 -1.007364 0.250588
v -0.281877 -1.031177 0.279344
v -0.279344 -1.033711 0.279344
v -0.279344 -1.031177 0.281878
v -0.255530 -0.496301 0.250588
v -0.250587 -0.496301 0.255531
v -0.255530 -0.501244 0.255531
v -0.279344 -0.472488 0.281878
v -0.279344 -0.469954 0.279344
v -0.281877 -0.472488 0.279344
v -0.255530 -1.007364 -0.250588
v -0.250587 -1.007364 -0.255531
v -0.255530 -1.002421 -0.255531
v -0.279344 -1.031177 -0.281878
v -0.279344 -1.033711 -0.279344
v -0.281877 -1.031177 -0.279344
v -0.255530 -0.501244 -0.255531
v -0.250587 -0.496301 -0.255531
v -0.255530 -0.496301 -0.250588
v -0.279344 -0.469954 -0.279344
v -0.279344 -0.472488 -0.281878
v -0.281877 -0.472488 -0.279344
v 0.255532 -1.007364 0.250588
v 0.250589 -1.007364 0.255531
v 0.255532 -1.002421 0.255531
v 0.279345 -1.031177 0.281878
v 0.279345 -1.033711 0.279344
v 0.281879 -1.031177 0.279344
v 0.255532 -0.501244 0.255531
v 0.250589 -0.496301 0.255531
v 0.255532 -0.496301 0.250588
v 0.279345 -0.469954 0.279344
v 0.279345 -0.472488 0.281878
v 0.281879 -0.472488 0.279344
v 0.250589 -1.007364 -0.255531
v 0.255532 -1.007364 -0.250588
v 0.255532 -1.002421 -0.255531
v 0.281879 -1.031177 -0.279344
v 0.279345 -1.033711 -0.279344
v 0.279345 -1.031177 -0.281878
v 0.255532 -0.501244 -0.255531
v 0.255532 -0.496301 -0.250588
v 0.250589 -0.496301 -0.255531
v 0.279345 -0.469954 -0.279344
v 0.281879 -0.472488 -0.279344
v 0.279345 -0.472488 -0.281878
v -0.266001 -0.999699 0.242923
v -0.270898 -1.001181 0.249349
v -0.266001 -0.994756 0.247866
v -0.270898 -0.502484 0.249349
v -0.266001 -0.503967 0.242923
v -0.266001 -0.508910 0.247866
v -0.270898 -0.502484 -0.249349
v -0.266001 -0.508910 -0.247866
v -0.266001 -0.503967 -0.242923
v -0.270898 -1.001181 -0.249349
v -0.266001 -0.999699 -0.242923
v -0.266001 -0.994756 -0.247866
v -0.242922 -0.999699 -0.266002
v -0.249348 -1.001181 -0.270899
v -0.247865 -0.994756 -0.266002
v -0.249348 -0.502484 -0.270899
v -0.242922 -0.503967 -0.266002
v -0.247865 -0.508909 -0.266002
v 0.249349 -0.502484 -0.270899
v 0.247867 -0.508909 -0.266002
v 0.242924 -0.503967 -0.266002
v 0.249349 -1.001181 -0.270899
v 0.242924 -0.999699 -0.266002
v 0.247867 -0.994756 -0.266002
v 0.266003 -0.999699 -0.242923
v 0.270900 -1.001181 -0.249349
v 0.266003 -0.994756 -0.247866
v 0.270900 -0.502484 -0.249349
v 0.266003 -0.503967 -0.242923
v 0.266003 -0.508910 -0.247866
v 0.270900 -0.502484 0.249349
v 0.266003 -0.508910 0.247866
v 0.266003 -0.503967 0.242923
v 0.270900 -1.001181 0.249349
v 0.266003 -0.999699 0.242923
v 0.266003 -0.994756 0.247866
v 0.242924 -0.999699 0.266002
v 0.249349 -1.001181 0.270899
v 0.247867 -0.994756 0.266002
v 0.249349 -0.502484 0.270899
v 0.242924 -0.503967 0.266002
v 0.247867 -0.508909 0.266002
v -0.249348 -0.502484 0.270899
v -0.247865 -0.508909 0.266002
v -0.242922 -0.503967 0.266002
v -0.249348 -1.001181 0.270899
v -0.242922 -0.999699 0.266002
v -0.247865 -0.994756 0.266002
v -0.247865 -1.017835 -0.242923
v -0.249348 -1.022732 -0.249349
v -0.242922 -1.017835 -0.247866
v 0.249349 -1.022732 -0.249349
v 0.247867 -1.017835 -0.242923
v 0.242924 -1.017835 -0.247866
v 0.249349 -1.022732 0.249349
v 0.242924 -1.017835 0.247866
v 0.247867 -1.017835 0.242923
v -0.249348 -1.022732 0.249349
v -0.247865 -1.017835 0.242923
v -0.242922 -1.017835 0.247866
v 0.247867 -0.485831 -0.242923
v 0.249349 -0.480934 -0.249349
v 0.242924 -0.485831 -0.247866
v -0.249348 -0.480934 -0.249349
v -0.247865 -0.485831 -0.242923
v -0.242922 -0.485831 -0.247866
v -0.249348 -0.480934 0.249349
v -0.242922 -0.485831 0.247866
v -0.247865 -0.485831 0.242923
v 0.249349 -0.480934 0.249349
v 0.247867 -0.485831 0.242923
v 0.242924 -0.485831 0.247866
v -0.265975 -1.017808 0.265975
v -0.265975 -0.485857 0.265975
v -0.265975 -1.017808 -0.265975
v -0.265975 -0.485857 -0.265975
v 0.265975 -1.017808 0.265975
v 0.265975 -0.485857 0.265975
v 0.265975 -1.017808 -0.265975
v 0.265975 -0.485857 -0.265975
vn 0.0000 0.0000 -1.0000
vn 0.5878 0.0000 -0.8090
vn 0.9511 0.0000 -0.3090
vn 0.9511 0.0000 0.3090
vn 0.5878 0.0000 0.8090
vn -0.0000 0.0000 1.0000
vn -0.5878 0.0000 0.8090
vn -0.9511 0.0000 0.3090
vn -0.9511 0.0000 -0.3090
vn 0.0000 1.0000 -0.0000
vn -0.5878 0.0000 -0.8090
vn 0.0000 -1.0000 0.0000
vn -1.0000 0.0000 0.0000
vn 1.0000 0.0000 0.0000
vn 0.7071 0.0000 0.7071
vn -0.7071 0.0000 0.7071
vn -0.7071 0.0000 -0.7071
vn 0.7071 0.0000 -0.7071
vn 0.8069 0.0000 -0.5907
vn 0.3437 -0.9391 0.0000
vn 0.8069 -0.5907 0.0000
vn 0.0000 -0.3437 0.9391
vn 0.8069 0.0000 0.5907
vn 0.3437 0.0000 -0.9391
vn 0.0000 0.8069 -0.5907
vn -0.9391 0.0000 -0.3437
vn 0.0000 0.8069 0.5907
vn 0.0000 0.3437 -0.9391
vn 0.0000 -0.5907 0.8069
vn 0.0000 0.9391 0.3437
vn -0.5907 0.0000 0.8069
vn 0.9391 0.0000 0.3437
vn 0.0000 0.5907 0.8069
vn 0.0000 -0.9391 0.3437
vn -0.3437 0.0000 -0.9391
vn -0.8069 -0.5907 0.0000
vn -0.3437 0.9391 0.0000
vn -0.8069 0.5907 0.0000
vn -0.3437 0.0000 0.9391
vn -0.5907 0.0000 -0.8069
vn -0.3437 -0.9391 0.0000
vn 0.9391 0.3437 0.0000
vn -0.5907 -0.8069 0.0000
vn 0.0000 -0.5907 -0.8069
vn 0.0000 0.9391 -0.3437
vn -0.9391 0.3437 0.0000
vn 0.0000 0.3437 0.9391
vn 0.0000 0.5907 -0.8069
vn 0.0000 -0.9391 -0.3437
vn -0.9391 0.0000 0.3437
vn 0.0000 -0.8069 0.5907
vn -0.8069 0.0000 -0.5907
vn 0.9391 0.0000 -0.3437
vn 0.8069 0.5907 0.0000
vn 0.5907 -0.8069 0.0000
vn 0.5907 0.0000 -0.8069
vn 0.3437 0.0000 0.9391
vn 0.0000 -0.3437 -0.9391
vn -0.5907 0.8069 0.0000
vn 0.0000 -0.8069 -0.5907
vn 0.5907 0.0000 0.8069
vn -0.9391 -0.3437 0.0000
vn 0.3437 0.9391 0.0000
vn 0.9391 -0.3437 0.0000
vn -0.8069 0.0000 0.5907
vn 0.5774 0.5773 -0.5774
vn -0.5773 -0.5774 0.5773
vn 0.5774 -0.5773 -0.5773
vn -0.5774 0.5774 0.5773
vn 0.5774 0.5773 0.5774
vn -0.5773 -0.5774 -0.5773
vn 0.5774 -0.5773 0.5773
vn -0.5774 0.5774 -0.5773
vn -0.5774 0.5773 -0.5774
vn 0.5774 -0.5774 0.5774
vn -0.5773 -0.5774 -0.5774
vn 0.5774 0.5773 0.5773
vn -0.5774 0.5773 0.5774
vn 0.5774 -0.5774 -0.5774
vn -0.5773 -0.5774 0.5774
vn 0.5774 0.5773 -0.5773
vn -0.7523 0.4658 -0.4658
vn -0.7523 -0.4658 -0.4659
vn -0.7523 -0.4658 0.4658
vn -0.7523 0.4658 0.4658
vn 0.4658 0.4658 -0.7523
vn 0.4658 -0.4658 -0.7523
vn -0.4658 -0.4659 -0.7523
vn -0.4658 0.4659 -0.7523
vn 0.7523 0.4659 0.4658
vn 0.7523 -0.4658 0.4659
vn 0.7523 -0.4658 -0.4659
vn 0.7523 0.4658 -0.4658
vn -0.4658 0.4659 0.7523
vn -0.4658 -0.4659 0.7523
vn 0.4658 -0.4658 0.7523
vn 0.4658 0.4658 0.7523
vn 0.4658 -0.7523 0.4658
vn -0.4658 -0.7523 0.4658
vn -0.4658 -0.7523 -0.4658
vn 0.4658 -0.7523 -0.4658
vn -0.4658 0.7523 0.4659
vn 0.4658 0.7523 0.4659
vn 0.4658 0.7523 -0.4659
vn -0.4658 0.7523 -0.4659
vn 0.7193 0.4913 -0.4913
vn -0.2898 -0.0000 -0.9571
vn 0.7193 -0.4913 -0.4913
vn -0.2898 -0.9571 0.0000
vn 0.7193 -0.4913 0.4913
vn -0.7071 0.7071 0.0000
vn -0.2898 0.0000 0.9571
vn 0.7193 0.4913 0.4913
vn -0.2898 0.9571 0.0000
vn -0.7071 -0.7071 0.0000
vn 0.4913 0.4913 0.7193
vn 0.9571 0.0000 -0.2898
vn 0.4913 -0.4913 0.7193
vn 0.0000 -0.9571 -0.2898
vn -0.4913 -0.4913 0.7193
vn 0.0000 0.7071 -0.7071
vn -0.9571 0.0000 -0.2898
vn -0.4913 0.4913 0.7193
vn 0.0000 0.9571 -0.2898
vn 0.0000 -0.7071 -0.7071
vn -0.7193 0.4913 0.4913
vn 0.2898 -0.0000 0.9571
vn -0.7193 -0.4913 0.4913
vn 0.2898 -0.9571 0.0000
vn -0.7193 -0.4913 -0.4913
vn 0.7071 0.7071 0.0000
vn 0.2898 0.0000 -0.9571
vn -0.7193 0.4913 -0.4913
vn 0.2898 0.9571 0.0000
vn 0.7071 -0.7071 0.0000
vn -0.4913 0.4913 -0.7193
vn -0.9571 0.0000 0.2898
vn -0.4913 -0.4913 -0.7193
vn 0.0000 -0.9571 0.2898
vn 0.4913 -0.4913 -0.7193
vn 0.0000 0.7071 0.7071
vn 0.9571 0.0000 0.2898
vn 0.4913 0.4913 -0.7193
vn 0.0000 0.9571 0.2898
vn 0.0000 -0.7071 0.7071
vn 0.4913 0.7193 0.4913
vn 0.0000 -0.2898 0.9571
vn -0.4913 0.7193 0.4913
vn -0.9571 -0.2898 0.0000
vn -0.4913 0.7193 -0.4913
vn 0.0000 -0.2898 -0.9571
vn 0.4913 0.7193 -0.4913
vn 0.9571 -0.2898 0.0000
vn -0.4913 -0.7193 0.4913
vn 0.0000 0.2898 0.9571
vn 0.4913 -0.7193 0.4913
vn 0.9571 0.2898 -0.0000
vn 0.4913 -0.7193 -0.4913
vn 0.0000 0.2898 -0.9571
vn -0.4913 -0.7193 -0.4913
vn -0.9571 0.2898 0.0000
vn 0.5907 0.8069 -0.0000
usemtl Grey
s 1
f 1//1 2//1 4//2 3//2
f 3//2 4//2 6//3 5//3
f 5//3 6//3 8//4 7//4
f 7//4 8//4 10//5 9//5
f 9//5 10//5 12//6 11//6
f 11//6 12//6 14//7 13//7
f 13//7 14//7 16//8 15//8
f 15//8 16//8 18//9 17//9
f 4//10 2//10 20//10 18//10 16//10 14//10 12//10 10//10 8//10 6//10
f 17//9 18//9 20//11 19//11
f 19//11 20//11 2//1 1//1
f 1//12 3//12 5//12 7//12 9//12 11//12 13//12 15//12 17//12 19//12
f 31//12 30//12 29//12 28//12 27//12 26//12 25//12 32//12
f 37//1 38//1 40//2 39//2
f 39//2 40//2 42//3 41//3
f 41//3 42//3 44//4 43//4
f 43//4 44//4 46//5 45//5
f 45//5 46//5 48//6 47//6
f 47//6 48//6 50//7 49//7
f 49//7 50//7 52//8 51//8
f 51//8 52//8 54//9 53//9
f 40//10 38//10 56//10 54//10 52//10 50//10 48//10 46//10 44//10 42//10
f 53//9 54//9 56//11 55//11
f 55//11 56//11 38//1 37//1
f 37//12 39//12 41//12 43//12 45//12 47//12 49//12 51//12 53//12 55//12
usemtl Light
s off
f 177//13 178//13 180//13 179//13
f 179//1 180//1 184//1 183//1
f 183//14 184//14 182//14 181//14
f 181//6 182//6 178//6 177//6
f 179//12 183//12 181//12 177//12
f 184//10 180//10 178//10 182//10
usemtl LightMetal
s 1
f 29//15 30//14 35//14 34//15
f 26//13 27//16 21//16 22//13
f 28//6 29//15 34//15 33//6
f 36//10 24//10 23//10 22//10 21//10 33//10 34//10 35//10
f 32//1 25//17 23//17 24//1
f 31//18 32//1 24//1 36//18
f 27//16 28//6 33//6 21//16
f 25//17 26//13 22//13 23//17
f 30//14 31//18 36//18 35//14
usemtl White
s off
f 148//19 152//19 57//19 65//19
f 154//20 162//20 61//20 73//20
f 169//21 173//21 63//21 77//21
f 147//22 144//22 91//22 66//22
f 119//23 122//23 75//23 71//23
f 120//24 118//24 72//24 79//24
f 151//25 141//25 82//25 58//25
f 108//26 106//26 60//26 68//26
f 127//27 117//27 70//27 93//27
f 118//28 126//28 98//28 72//28
f 167//29 170//29 76//29 101//29
f 168//30 166//30 102//30 78//30
f 131//31 134//31 99//31 95//31
f 132//32 130//32 96//32 103//32
f 155//33 158//33 93//33 70//33
f 156//34 154//34 73//34 97//34
f 126//35 123//35 104//35 98//35
f 175//36 165//36 100//36 89//36
f 166//37 174//37 90//37 102//37
f 157//38 161//38 81//38 94//38
f 144//39 142//39 84//39 91//39
f 136//40 140//40 83//40 87//40
f 159//41 156//41 97//41 85//41
f 130//42 138//42 86//42 96//42
f 133//43 137//43 89//43 100//43
f 172//44 176//44 88//44 64//44
f 174//45 171//45 67//45 90//45
f 106//46 114//46 74//46 60//46
f 142//47 150//47 62//47 84//47
f 160//48 164//48 58//48 82//48
f 162//49 159//49 85//49 61//49
f 114//50 111//50 80//50 74//50
f 121//51 125//51 101//51 76//51
f 143//52 146//52 87//52 83//52
f 138//53 135//53 92//53 86//53
f 163//54 153//54 69//54 59//54
f 109//55 113//55 77//55 63//55
f 107//56 110//56 65//56 57//56
f 150//57 147//57 66//57 62//57
f 123//58 120//58 79//58 104//58
f 139//59 129//59 94//59 81//59
f 145//60 149//60 64//60 88//60
f 112//61 116//61 71//61 75//61
f 111//62 108//62 68//62 80//62
f 171//63 168//63 78//63 67//63
f 135//64 132//64 103//64 92//64
f 124//65 128//65 95//65 99//65
f 57//66 58//66 59//66
f 60//67 61//67 62//67
f 63//68 64//68 65//68
f 66//69 67//69 68//69
f 69//70 70//70 71//70
f 72//71 73//71 74//71
f 75//72 76//72 77//72
f 78//73 79//73 80//73
f 81//74 82//74 83//74
f 84//75 85//75 86//75
f 87//76 88//76 89//76
f 90//77 91//77 92//77
f 93//78 94//78 95//78
f 96//79 97//79 98//79
f 99//80 100//80 101//80
f 102//81 103//81 104//81
f 105//82 106//82 107//82
f 108//83 109//83 110//83
f 111//84 112//84 113//84
f 114//85 115//85 116//85
f 117//86 118//86 119//86
f 120//87 121//87 122//87
f 123//88 124//88 125//88
f 126//89 127//89 128//89
f 129//90 130//90 131//90
f 132//91 133//91 134//91
f 135//92 136//92 137//92
f 138//93 139//93 140//93
f 141//94 142//94 143//94
f 144//95 145//95 146//95
f 147//96 148//96 149//96
f 150//97 151//97 152//97
f 153//98 154//98 155//98
f 156//99 157//99 158//99
f 159//100 160//100 161//100
f 162//101 163//101 164//101
f 165//102 166//102 167//102
f 168//103 169//103 170//103
f 171//104 172//104 173//104
f 174//105 175//105 176//105
f 59//106 105//106 107//106 57//106
f 106//107 108//107 110//107 107//107
f 109//108 63//108 65//108 110//108
f 62//16 66//16 68//16 60//16
f 108//109 111//109 113//109 109//109
f 112//110 75//110 77//110 113//110
f 67//111 78//111 80//111 68//111
f 111//112 114//112 116//112 112//112
f 115//113 69//113 71//113 116//113
f 79//17 72//17 74//17 80//17
f 114//114 106//114 105//114 115//114
f 73//115 61//115 60//115 74//115
f 70//116 117//116 119//116 71//116
f 118//117 120//117 122//117 119//117
f 121//118 76//118 75//118 122//118
f 120//119 123//119 125//119 121//119
f 124//120 99//120 101//120 125//120
f 78//121 102//121 104//121 79//121
f 123//122 126//122 128//122 124//122
f 127//123 93//123 95//123 128//123
f 103//18 96//18 98//18 104//18
f 126//124 118//124 117//124 127//124
f 97//125 73//125 72//125 98//125
f 94//126 129//126 131//126 95//126
f 130//127 132//127 134//127 131//127
f 133//128 100//128 99//128 134//128
f 132//129 135//129 137//129 133//129
f 136//130 87//130 89//130 137//130
f 102//131 90//131 92//131 103//131
f 135//132 138//132 140//132 136//132
f 139//133 81//133 83//133 140//133
f 91//15 84//15 86//15 92//15
f 138//134 130//134 129//134 139//134
f 85//135 97//135 96//135 86//135
f 82//136 141//136 143//136 83//136
f 142//137 144//137 146//137 143//137
f 145//138 88//138 87//138 146//138
f 144//139 147//139 149//139 145//139
f 148//140 65//140 64//140 149//140
f 90//141 67//141 66//141 91//141
f 147//142 150//142 152//142 148//142
f 151//143 58//143 57//143 152//143
f 150//144 142//144 141//144 151//144
f 61//145 85//145 84//145 62//145
f 69//146 153//146 155//146 70//146
f 154//147 156//147 158//147 155//147
f 157//148 94//148 93//148 158//148
f 156//149 159//149 161//149 157//149
f 160//150 82//150 81//150 161//150
f 159//151 162//151 164//151 160//151
f 163//152 59//152 58//152 164//152
f 162//153 154//153 153//153 163//153
f 100//154 165//154 167//154 101//154
f 166//155 168//155 170//155 167//155
f 169//156 77//156 76//156 170//156
f 168//157 171//157 173//157 169//157
f 172//158 64//158 63//158 173//158
f 171//159 174//159 176//159 172//159
f 175//160 89//160 88//160 176//160
f 174//161 166//161 165//161 175//161
f 115//162 105//162 59//162 69//162
