# Blender v2.79 (sub 0) OBJ File: 'Light_Ceiling1.blend'
# www.blender.org
mtllib Light_Ceiling1.mtl
o Light_Ceiling1_Cylinder.057
v 0.000000 -0.026878 -0.108739
v 0.000000 -0.001098 -0.108739
v 0.063915 -0.026878 -0.087971
v 0.063915 -0.001098 -0.087971
v 0.103417 -0.026878 -0.033602
v 0.103417 -0.001098 -0.033602
v 0.103417 -0.026878 0.033602
v 0.103417 -0.001098 0.033602
v 0.063915 -0.026878 0.087971
v 0.063915 -0.001098 0.087971
v -0.000000 -0.026878 0.108739
v -0.000000 -0.001098 0.108739
v -0.063915 -0.026878 0.087971
v -0.063915 -0.001098 0.087971
v -0.103417 -0.026878 0.033602
v -0.103417 -0.001098 0.033602
v -0.103417 -0.026878 -0.033602
v -0.103417 -0.001098 -0.033602
v -0.063915 -0.026878 -0.087971
v -0.063915 -0.001098 -0.087971
v -0.008080 -0.022153 0.008080
v -0.011427 -0.022153 -0.000000
v -0.008080 -0.022153 -0.008080
v -0.000000 -0.022153 -0.011427
v -0.008080 -0.675657 -0.008080
v -0.011427 -0.675657 -0.000000
v -0.008080 -0.675657 0.008080
v -0.000000 -0.675657 0.011427
v 0.008080 -0.675657 0.008080
v 0.011427 -0.675657 -0.000000
v 0.008080 -0.675657 -0.008080
v -0.000000 -0.675657 -0.011427
v -0.000000 -0.022153 0.011427
v 0.008080 -0.022153 0.008080
v 0.011427 -0.022153 -0.000000
v 0.008080 -0.022153 -0.008080
v -0.000000 -0.644198 -0.000000
v 0.058406 -0.672793 -0.090882
v 0.020485 -0.670749 -0.031875
v 0.020485 -0.770404 -0.031875
v 0.014273 -0.788724 -0.022210
v 0.098269 -0.672793 -0.044878
v 0.034466 -0.670749 -0.015740
v 0.034466 -0.770404 -0.015740
v 0.024015 -0.788724 -0.010967
v 0.106932 -0.672793 0.015374
v 0.037504 -0.670749 0.005392
v 0.037504 -0.770404 0.005392
v 0.026132 -0.788724 0.003757
v 0.081645 -0.672793 0.070746
v 0.028635 -0.670749 0.024812
v 0.028635 -0.770404 0.024812
v 0.019952 -0.788724 0.017289
v 0.030436 -0.672793 0.103656
v 0.010675 -0.670749 0.036355
v 0.010675 -0.770404 0.036355
v 0.007438 -0.788724 0.025331
v -0.030436 -0.672793 0.103656
v -0.010675 -0.670749 0.036355
v -0.010675 -0.770404 0.036355
v -0.007438 -0.788724 0.025331
v -0.081645 -0.672793 0.070746
v -0.028635 -0.670749 0.024812
v -0.028635 -0.770404 0.024812
v -0.019952 -0.788724 0.017289
v -0.106932 -0.672793 0.015375
v -0.037504 -0.670749 0.005392
v -0.037504 -0.770404 0.005392
v -0.026132 -0.788724 0.003757
v -0.098269 -0.672793 -0.044878
v -0.034466 -0.670749 -0.015740
v -0.034466 -0.770404 -0.015740
v -0.024015 -0.788724 -0.010967
v -0.058406 -0.672793 -0.090882
v -0.020485 -0.670749 -0.031875
v -0.020485 -0.770404 -0.031875
v -0.014273 -0.788724 -0.022210
v -0.000000 -0.672793 -0.108032
v -0.000000 -0.670749 -0.037890
v -0.000000 -0.770404 -0.037890
v -0.000000 -0.788724 -0.026401
v -0.000000 -0.823136 -0.222520
v -0.120304 -0.823136 -0.187196
v -0.202412 -0.823136 -0.092438
v -0.220255 -0.823136 0.031668
v -0.168170 -0.823136 0.145720
v -0.062691 -0.823136 0.213507
v 0.062691 -0.823136 0.213507
v 0.168170 -0.823136 0.145720
v 0.220255 -0.823136 0.031668
v 0.202412 -0.823136 -0.092438
v 0.120304 -0.823136 -0.187196
v -0.098097 -0.747964 -0.152642
v -0.000000 -0.747964 -0.181446
v -0.137128 -0.747964 0.118822
v -0.179599 -0.747964 0.025823
v -0.165049 -0.747964 -0.075376
v 0.137128 -0.747964 0.118822
v -0.051119 -0.747964 0.174096
v 0.051119 -0.747964 0.174096
v 0.098097 -0.747964 -0.152642
v 0.165049 -0.747964 -0.075376
v 0.179599 -0.747964 0.025822
v 0.005474 -0.796795 -0.008517
v 0.009210 -0.796795 -0.004206
v 0.010022 -0.796795 0.001441
v 0.007652 -0.796795 0.006630
v 0.002852 -0.796795 0.009714
v -0.002852 -0.796795 0.009714
v -0.007652 -0.796795 0.006630
v -0.010021 -0.796795 0.001441
v -0.009210 -0.796795 -0.004206
v -0.005474 -0.796795 -0.008517
v 0.000000 -0.796795 -0.010125
v -0.000000 -0.823136 -0.213241
v -0.115287 -0.823136 -0.179390
v -0.193971 -0.823136 -0.088583
v -0.211070 -0.823136 0.030347
v -0.161157 -0.823136 0.139643
v -0.060077 -0.823136 0.204603
v 0.060077 -0.823136 0.204603
v 0.161157 -0.823136 0.139643
v 0.211070 -0.823136 0.030347
v 0.193971 -0.823136 -0.088583
v 0.115287 -0.823136 -0.179390
v -0.000000 -0.746746 -0.169970
v -0.091893 -0.746746 -0.142988
v -0.154610 -0.746746 -0.070608
v -0.168240 -0.746746 0.024189
v -0.128455 -0.746746 0.111307
v -0.047886 -0.746746 0.163085
v 0.047886 -0.746746 0.163085
v 0.128455 -0.746746 0.111307
v 0.168240 -0.746746 0.024189
v 0.154610 -0.746746 -0.070608
v 0.091893 -0.746746 -0.142988
v -0.000000 -0.684502 -0.113169
v -0.061184 -0.684502 -0.095204
v -0.102943 -0.684502 -0.047012
v -0.112018 -0.684502 0.016106
v -0.085528 -0.684502 0.074110
v -0.031884 -0.684502 0.108585
v 0.031884 -0.684502 0.108585
v 0.085528 -0.684502 0.074110
v 0.112018 -0.684502 0.016106
v 0.102943 -0.684502 -0.047012
v 0.061184 -0.684502 -0.095204
vn 0.0000 0.0000 -1.0000
vn 0.5878 0.0000 -0.8090
vn 0.9511 0.0000 -0.3090
vn 0.9511 0.0000 0.3090
vn 0.5878 0.0000 0.8090
vn -0.0000 0.0000 1.0000
vn -0.5878 0.0000 0.8090
vn -0.9511 0.0000 0.3090
vn -0.9511 0.0000 -0.3090
vn 0.0000 1.0000 0.0000
vn -0.5878 0.0000 -0.8090
vn 0.0000 -1.0000 0.0000
vn -0.0000 0.8429 -0.5381
vn 0.2909 0.8429 -0.4526
vn -0.0000 0.5832 -0.8123
vn 0.4392 0.5832 -0.6834
vn 0.4894 0.8429 -0.2235
vn 0.7389 0.5832 -0.3375
vn 0.5326 0.8429 0.0766
vn 0.8041 0.5832 0.1156
vn 0.4066 0.8429 0.3523
vn 0.6139 0.5832 0.5320
vn 0.1516 0.8429 0.5163
vn 0.2289 0.5832 0.7794
vn -0.1516 0.8429 0.5163
vn -0.2289 0.5832 0.7794
vn -0.4066 0.8429 0.3523
vn -0.6139 0.5832 0.5320
vn -0.5326 0.8429 0.0766
vn -0.8041 0.5832 0.1156
vn -0.4894 0.8429 -0.2235
vn -0.7389 0.5832 -0.3375
vn -0.2909 0.8429 -0.4526
vn -0.4392 0.5832 -0.6834
vn -0.4744 0.4795 -0.7382
vn -0.0000 0.4795 -0.8775
vn -0.7982 0.4795 -0.3645
vn -0.8686 0.4795 0.1249
vn -0.6632 0.4795 0.5747
vn -0.2472 0.4795 0.8420
vn 0.2472 0.4795 0.8420
vn 0.6632 0.4795 0.5747
vn 0.8686 0.4795 0.1249
vn 0.7982 0.4795 -0.3645
vn 0.4744 0.4795 -0.7382
vn -0.7915 -0.4929 0.3615
vn -0.8612 -0.4929 -0.1238
vn -0.8079 -0.5778 -0.1162
vn -0.7424 -0.5778 0.3391
vn -0.6576 -0.4929 -0.5698
vn -0.6168 -0.5778 -0.5345
vn 0.0000 -0.4929 0.8701
vn -0.4704 -0.4929 0.7320
vn -0.4413 -0.5778 0.6866
vn 0.0000 -0.5778 0.8162
vn 0.6576 -0.4929 -0.5698
vn 0.8612 -0.4929 -0.1238
vn 0.8079 -0.5778 -0.1162
vn 0.6168 -0.5778 -0.5345
vn 0.7915 -0.4929 0.3615
vn 0.7424 -0.5778 0.3391
vn 0.4704 -0.4929 0.7320
vn 0.4413 -0.5778 0.6866
vn -0.2451 -0.4929 -0.8349
vn -0.2300 -0.5778 -0.7831
vn 0.2451 -0.4929 -0.8349
vn 0.2300 -0.5778 -0.7831
vn -0.4197 -0.8872 0.1917
vn -0.2494 -0.8872 0.3881
vn -0.1300 -0.8872 -0.4427
vn -0.3487 -0.8872 -0.3021
vn 0.4567 -0.8872 -0.0657
vn 0.3487 -0.8872 -0.3021
vn -0.4567 -0.8872 -0.0657
vn 0.1300 -0.8872 -0.4427
vn 0.4197 -0.8872 0.1917
vn 0.2494 -0.8872 0.3881
vn 0.0000 -0.8872 0.4614
vn -0.0000 -0.7178 -0.6963
vn -0.0000 -0.2641 -0.9645
vn 0.5215 -0.2641 -0.8114
vn 0.3764 -0.7178 -0.5857
vn 0.9096 0.0000 -0.4154
vn 0.9898 -0.0000 0.1423
vn 0.9547 -0.2641 0.1373
vn 0.8773 -0.2641 -0.4007
vn 0.6334 -0.7178 -0.2892
vn 0.7557 -0.0000 0.6549
vn 0.7289 -0.2641 0.6316
vn 0.6892 -0.7178 0.0991
vn 0.5262 -0.7178 0.4560
vn 0.2817 -0.0000 0.9595
vn 0.2717 -0.2641 0.9254
vn 0.1962 -0.7178 0.6681
vn -0.2817 -0.0000 0.9595
vn -0.2717 -0.2641 0.9254
vn -0.1962 -0.7178 0.6681
vn -0.7557 -0.0000 0.6549
vn -0.7289 -0.2641 0.6316
vn -0.5262 -0.7178 0.4560
vn -0.9898 -0.0000 0.1423
vn -0.9547 -0.2641 0.1373
vn -0.6892 -0.7178 0.0991
vn -0.9096 -0.0000 -0.4154
vn -0.8773 -0.2641 -0.4007
vn -0.5406 -0.0000 -0.8413
vn -0.5215 -0.2641 -0.8114
vn -0.6334 -0.7178 -0.2892
vn -0.3764 -0.7178 -0.5857
vn 0.5406 -0.0000 -0.8413
vn -0.0000 -0.9638 -0.2667
vn -0.1442 -0.9638 -0.2243
vn 0.2015 -0.9638 0.1746
vn 0.2639 -0.9638 0.0379
vn -0.2426 -0.9638 -0.1108
vn 0.2426 -0.9638 -0.1108
vn 0.1442 -0.9638 -0.2243
vn -0.2639 -0.9638 0.0379
vn 0.0751 -0.9638 0.2559
vn -0.0751 -0.9638 0.2559
vn -0.2015 -0.9638 0.1746
vn 0.7071 0.0000 0.7071
vn 1.0000 0.0000 0.0000
vn -1.0000 0.0000 0.0000
vn -0.7071 0.0000 0.7071
vn -0.7071 0.0000 -0.7071
vn 0.7071 0.0000 -0.7071
usemtl Grey
s 1
f 1//1 2//1 4//2 3//2
f 3//2 4//2 6//3 5//3
f 5//3 6//3 8//4 7//4
f 7//4 8//4 10//5 9//5
f 9//5 10//5 12//6 11//6
f 11//6 12//6 14//7 13//7
f 13//7 14//7 16//8 15//8
f 15//8 16//8 18//9 17//9
f 4//10 2//10 20//10 18//10 16//10 14//10 12//10 10//10 8//10 6//10
f 17//9 18//9 20//11 19//11
f 19//11 20//11 2//1 1//1
f 1//12 3//12 5//12 7//12 9//12 11//12 13//12 15//12 17//12 19//12
f 78//13 37//10 38//14
f 94//15 78//13 38//14 101//16
f 101//16 38//14 42//17 102//18
f 38//14 37//10 42//17
f 102//18 42//17 46//19 103//20
f 42//17 37//10 46//19
f 103//20 46//19 50//21 98//22
f 46//19 37//10 50//21
f 50//21 37//10 54//23
f 98//22 50//21 54//23 100//24
f 54//23 37//10 58//25
f 100//24 54//23 58//25 99//26
f 58//25 37//10 62//27
f 99//26 58//25 62//27 95//28
f 62//27 37//10 66//29
f 95//28 62//27 66//29 96//30
f 66//29 37//10 70//31
f 96//30 66//29 70//31 97//32
f 70//31 37//10 74//33
f 97//32 70//31 74//33 93//34
f 93//34 74//33 78//13 94//15
f 74//33 37//10 78//13
f 86//12 85//12 118//12 119//12
f 91//12 90//12 123//12 124//12
f 83//12 82//12 115//12 116//12
f 88//12 87//12 120//12 121//12
f 85//12 84//12 117//12 118//12
f 90//12 89//12 122//12 123//12
f 87//12 86//12 119//12 120//12
f 84//12 83//12 116//12 117//12
f 82//12 92//12 125//12 115//12
f 92//12 91//12 124//12 125//12
f 89//12 88//12 121//12 122//12
f 83//35 93//34 94//15 82//36
f 84//37 97//32 93//34 83//35
f 85//38 96//30 97//32 84//37
f 86//39 95//28 96//30 85//38
f 87//40 99//26 95//28 86//39
f 88//41 100//24 99//26 87//40
f 89//42 98//22 100//24 88//41
f 90//43 103//20 98//22 89//42
f 91//44 102//18 103//20 90//43
f 92//45 101//16 102//18 91//44
f 82//36 94//15 101//16 92//45
f 124//46 123//47 134//48 135//49
f 123//47 122//50 133//51 134//48
f 115//52 125//53 136//54 126//55
f 119//56 118//57 129//58 130//59
f 118//57 117//60 128//61 129//58
f 117//60 116//62 127//63 128//61
f 116//62 115//52 126//55 127//63
f 122//50 121//64 132//65 133//51
f 121//64 120//66 131//67 132//65
f 120//66 119//56 130//59 131//67
f 125//53 124//46 135//49 136//54
f 136//54 135//49 146//68 147//69
f 133//51 132//65 143//70 144//71
f 130//59 129//58 140//72 141//73
f 135//49 134//48 145//74 146//68
f 132//65 131//67 142//75 143//70
f 129//58 128//61 139//76 140//72
f 134//48 133//51 144//71 145//74
f 131//67 130//59 141//73 142//75
f 128//61 127//63 138//77 139//76
f 126//55 136//54 147//69 137//78
f 127//63 126//55 137//78 138//77
f 138//77 137//78 147//69 146//68 145//74 144//71 143//70 142//75 141//73 140//72 139//76
usemtl Light
f 81//79 80//80 40//81 41//82
f 43//83 47//84 48//85 44//86
f 41//82 40//81 44//86 45//87
f 48//85 47//84 51//88 52//89
f 45//87 44//86 48//85 49//90
f 49//90 48//85 52//89 53//91
f 52//89 51//88 55//92 56//93
f 53//91 52//89 56//93 57//94
f 56//93 55//92 59//95 60//96
f 57//94 56//93 60//96 61//97
f 60//96 59//95 63//98 64//99
f 61//97 60//96 64//99 65//100
f 64//99 63//98 67//101 68//102
f 65//100 64//99 68//102 69//103
f 68//102 67//101 71//104 72//105
f 71//104 75//106 76//107 72//105
f 69//103 68//102 72//105 73//108
f 75//106 79//1 80//80 76//107
f 73//108 72//105 76//107 77//109
f 79//1 39//110 40//81 80//80
f 77//109 76//107 80//80 81//79
f 39//110 43//83 44//86 40//81
f 77//109 81//79 114//111 113//112
f 49//90 53//91 107//113 106//114
f 73//108 77//109 113//112 112//115
f 45//87 49//90 106//114 105//116
f 41//82 45//87 105//116 104//117
f 69//103 73//108 112//115 111//118
f 53//91 57//94 108//119 107//113
f 57//94 61//97 109//120 108//119
f 81//79 41//82 104//117 114//111
f 61//97 65//100 110//121 109//120
f 65//100 69//103 111//118 110//121
f 105//116 106//114 107//113 108//119 109//120 110//121 111//118 112//115 113//112 114//111 104//117
usemtl LightMetal
f 29//122 30//123 35//123 34//122
f 26//124 27//125 21//125 22//124
f 28//6 29//122 34//122 33//6
f 36//10 24//10 23//10 22//10 21//10 33//10 34//10 35//10
f 32//1 25//126 23//126 24//1
f 31//12 30//12 29//12 28//12 27//12 26//12 25//12 32//12
f 31//127 32//1 24//1 36//127
f 27//125 28//6 33//6 21//125
f 25//126 26//124 22//124 23//126
f 30//123 31//127 36//127 35//123
