# Blender v2.79 (sub 0) OBJ File: 'Light_Ceiling5.blend'
# www.blender.org
mtllib Light_Ceiling5.mtl
o Light_Ceiling5_Cylinder.034
v 0.000000 -0.019228 -0.279208
v 0.000000 0.002505 -0.279208
v 0.164114 -0.019228 -0.225884
v 0.164114 0.002505 -0.225884
v 0.265543 -0.019228 -0.086280
v 0.265543 0.002505 -0.086280
v 0.265543 -0.019228 0.086280
v 0.265543 0.002505 0.086280
v 0.164114 -0.019228 0.225884
v 0.164114 0.002505 0.225884
v -0.000000 -0.019228 0.279208
v -0.000000 0.002505 0.279208
v -0.164115 -0.019228 0.225884
v -0.164115 0.002505 0.225884
v -0.265543 -0.019228 0.086280
v -0.265543 0.002505 0.086280
v -0.265543 -0.019228 -0.086280
v -0.265543 0.002505 -0.086280
v -0.164114 -0.019228 -0.225884
v -0.164114 0.002505 -0.225884
v 0.000000 -0.019228 -0.257394
v 0.151292 -0.019228 -0.208236
v 0.244796 -0.019228 -0.079539
v 0.244796 -0.019228 0.079539
v 0.151292 -0.019228 0.208236
v -0.000000 -0.019228 0.257394
v -0.151292 -0.019228 0.208236
v -0.244796 -0.019228 0.079539
v -0.244796 -0.019228 -0.079539
v -0.151292 -0.019228 -0.208236
v 0.000000 -0.065859 -0.224625
v 0.132031 -0.065859 -0.181725
v 0.213631 -0.065859 -0.069413
v 0.213631 -0.065859 0.069413
v 0.132031 -0.065859 0.181725
v -0.000000 -0.065859 0.224625
v -0.132031 -0.065859 0.181725
v -0.213631 -0.065859 0.069413
v -0.213631 -0.065859 -0.069413
v -0.132031 -0.065859 -0.181725
v 0.000000 -0.102799 -0.184506
v 0.108450 -0.102799 -0.149268
v 0.175476 -0.102799 -0.057015
v 0.175476 -0.102799 0.057015
v 0.108450 -0.102799 0.149268
v -0.000000 -0.102799 0.184506
v -0.108450 -0.102799 0.149268
v -0.175476 -0.102799 0.057015
v -0.175476 -0.102799 -0.057015
v -0.108450 -0.102799 -0.149268
v 0.000000 -0.133776 -0.115746
v 0.068034 -0.133776 -0.093640
v 0.110081 -0.133776 -0.035767
v 0.110081 -0.133776 0.035767
v 0.068034 -0.133776 0.093640
v -0.000000 -0.133776 0.115746
v -0.068034 -0.133776 0.093640
v -0.110081 -0.133776 0.035767
v -0.110081 -0.133776 -0.035767
v -0.068034 -0.133776 -0.093640
vn 0.0000 0.0000 -1.0000
vn 0.5878 0.0000 -0.8090
vn 0.9511 0.0000 -0.3090
vn 0.9511 0.0000 0.3090
vn 0.5878 0.0000 0.8090
vn -0.0000 0.0000 1.0000
vn -0.5878 0.0000 0.8090
vn -0.9511 0.0000 0.3090
vn -0.9511 0.0000 -0.3090
vn 0.0000 1.0000 0.0000
vn -0.5878 0.0000 -0.8090
vn 0.0000 -1.0000 0.0000
vn 0.7781 -0.5750 -0.2528
vn 0.7781 -0.5750 0.2528
vn 0.7237 -0.6488 0.2352
vn 0.7237 -0.6488 -0.2352
vn 0.0000 -0.6488 -0.7610
vn 0.4473 -0.6488 -0.6157
vn 0.3365 -0.8199 -0.4632
vn 0.0000 -0.8199 -0.5725
vn -0.4809 -0.5750 -0.6619
vn 0.0000 -0.5750 -0.8182
vn -0.4473 -0.6488 -0.6157
vn -0.4809 -0.5750 0.6619
vn -0.7781 -0.5750 0.2528
vn -0.7237 -0.6488 0.2352
vn -0.4473 -0.6488 0.6157
vn 0.4809 -0.5750 0.6619
vn 0.4473 -0.6488 0.6157
vn 0.4809 -0.5750 -0.6619
vn -0.7781 -0.5750 -0.2528
vn -0.7237 -0.6488 -0.2352
vn -0.0000 -0.5750 0.8182
vn -0.0000 -0.6488 0.7610
vn 0.3365 -0.8199 0.4632
vn -0.0000 -0.8199 0.5725
vn -0.0000 -0.9684 0.2494
vn 0.1466 -0.9684 0.2018
vn -0.5445 -0.8199 -0.1769
vn -0.5445 -0.8199 0.1769
vn 0.5445 -0.8199 -0.1769
vn -0.3365 -0.8199 -0.4632
vn -0.3365 -0.8199 0.4632
vn 0.5445 -0.8199 0.1769
vn 0.0000 -0.9684 -0.2494
vn 0.1466 -0.9684 -0.2018
vn 0.2372 -0.9684 -0.0771
vn 0.2372 -0.9684 0.0771
vn -0.1466 -0.9684 0.2018
vn -0.2372 -0.9684 0.0771
vn -0.2372 -0.9684 -0.0771
vn -0.1466 -0.9684 -0.2018
usemtl Grey
s 1
f 1//1 2//1 4//2 3//2
f 3//2 4//2 6//3 5//3
f 5//3 6//3 8//4 7//4
f 7//4 8//4 10//5 9//5
f 9//5 10//5 12//6 11//6
f 11//6 12//6 14//7 13//7
f 13//7 14//7 16//8 15//8
f 15//8 16//8 18//9 17//9
f 4//10 2//10 20//10 18//10 16//10 14//10 12//10 10//10 8//10 6//10
f 17//9 18//9 20//11 19//11
f 19//11 20//11 2//1 1//1
f 17//12 19//12 30//12 29//12
f 15//12 17//12 29//12 28//12
f 13//12 15//12 28//12 27//12
f 11//12 13//12 27//12 26//12
f 9//12 11//12 26//12 25//12
f 7//12 9//12 25//12 24//12
f 1//12 3//12 22//12 21//12
f 5//12 7//12 24//12 23//12
f 3//12 5//12 23//12 22//12
f 19//12 1//12 21//12 30//12
usemtl Light
f 23//13 24//14 34//15 33//16
f 31//17 32//18 42//19 41//20
f 30//21 21//22 31//17 40//23
f 27//24 28//25 38//26 37//27
f 24//14 25//28 35//29 34//15
f 21//22 22//30 32//18 31//17
f 28//25 29//31 39//32 38//26
f 25//28 26//33 36//34 35//29
f 22//30 23//13 33//16 32//18
f 29//31 30//21 40//23 39//32
f 26//33 27//24 37//27 36//34
f 45//35 46//36 56//37 55//38
f 38//26 39//32 49//39 48//40
f 35//29 36//34 46//36 45//35
f 32//18 33//16 43//41 42//19
f 39//32 40//23 50//42 49//39
f 36//34 37//27 47//43 46//36
f 33//16 34//15 44//44 43//41
f 40//23 31//17 41//20 50//42
f 37//27 38//26 48//40 47//43
f 34//15 35//29 45//35 44//44
f 51//45 52//46 53//47 54//48 55//38 56//37 57//49 58//50 59//51 60//52
f 42//19 43//41 53//47 52//46
f 49//39 50//42 60//52 59//51
f 46//36 47//43 57//49 56//37
f 43//41 44//44 54//48 53//47
f 50//42 41//20 51//45 60//52
f 47//43 48//40 58//50 57//49
f 44//44 45//35 55//38 54//48
f 41//20 42//19 52//46 51//45
f 48//40 49//39 59//51 58//50
