# Blender v2.79 (sub 0) OBJ File: 'Plate_1.blend'
# www.blender.org
mtllib Plate_1.mtl
o Plate_1_Cylinder.033
v 0.055483 0.005675 -0.076367
v 0.000000 0.005675 -0.094394
v 0.089774 0.005675 -0.029170
v 0.089774 0.005675 0.029168
v 0.055483 0.005675 0.076365
v 0.000000 0.005675 0.094392
v -0.055483 0.005675 0.076365
v -0.089773 0.005675 0.029168
v -0.089773 0.005675 -0.029170
v -0.055483 0.005675 -0.076367
v 0.000000 0.000000 -0.065844
v 0.000000 0.013697 -0.160998
v 0.000000 0.004558 -0.112569
v 0.094632 0.013697 -0.130250
v 0.038702 0.000000 -0.053269
v 0.066166 0.004558 -0.091070
v 0.153118 0.013697 -0.049752
v 0.062621 0.000000 -0.020347
v 0.107059 0.004558 -0.034786
v 0.153118 0.013697 0.049750
v 0.062621 0.000000 0.020346
v 0.107059 0.004558 0.034785
v 0.094632 0.013697 0.130249
v 0.038702 0.000000 0.053267
v 0.066166 0.004558 0.091069
v 0.000000 0.013697 0.160996
v 0.000000 0.000000 0.065842
v 0.000000 0.004558 0.112567
v -0.094631 0.013697 0.130249
v -0.038701 0.000000 0.053267
v -0.066165 0.004558 0.091069
v -0.153117 0.013697 0.049750
v -0.062620 0.000000 0.020346
v -0.107058 0.004558 0.034785
v -0.153117 0.013697 -0.049752
v -0.062620 0.000000 -0.020347
v -0.107058 0.004558 -0.034786
v -0.094631 0.013697 -0.130250
v -0.038701 0.000000 -0.053269
v -0.066165 0.004558 -0.091070
v 0.000000 0.027902 -0.196413
v 0.000000 0.032497 -0.191303
v 0.112445 0.032497 -0.154768
v 0.115449 0.027902 -0.158902
v 0.181940 0.032497 -0.059117
v 0.186799 0.027902 -0.060696
v 0.181940 0.032497 0.059115
v 0.186799 0.027902 0.060694
v 0.112445 0.032497 0.154766
v 0.115449 0.027902 0.158900
v 0.000000 0.032497 0.191302
v 0.000000 0.027902 0.196411
v -0.112444 0.032497 0.154766
v -0.115448 0.027902 0.158900
v -0.181939 0.032497 0.059115
v -0.186799 0.027902 0.060694
v -0.181939 0.032497 -0.059117
v -0.186799 0.027902 -0.060696
v -0.112444 0.032497 -0.154768
v -0.115448 0.027902 -0.158902
v 0.089101 0.015413 -0.122637
v 0.000000 0.015413 -0.151588
v 0.144168 0.015413 -0.046844
v 0.144168 0.015413 0.046842
v 0.089101 0.015413 0.122636
v 0.000000 0.015413 0.151586
v -0.089100 0.015413 0.122636
v -0.144168 0.015413 0.046842
v -0.144168 0.015413 -0.046844
v -0.089100 0.015413 -0.122638
vn 0.0000 0.9186 -0.3952
vn -0.2323 0.9186 -0.3197
vn -0.1793 0.9524 -0.2467
vn 0.0000 0.9524 -0.3050
vn -0.0000 0.7435 0.6687
vn 0.3931 0.7435 0.5410
vn 0.1793 0.9524 -0.2467
vn 0.2900 0.9524 -0.0942
vn 0.3758 0.9186 -0.1221
vn 0.2323 0.9186 -0.3197
vn 0.2900 0.9524 0.0942
vn 0.3758 0.9186 0.1221
vn 0.1793 0.9524 0.2467
vn 0.2323 0.9186 0.3197
vn -0.0000 0.9524 0.3050
vn -0.0000 0.9186 0.3952
vn -0.1793 0.9524 0.2467
vn -0.0000 0.9949 0.1009
vn -0.0593 0.9949 0.0816
vn -0.2900 0.9524 -0.0942
vn -0.3758 0.9186 -0.1221
vn 0.1751 -0.9546 -0.2410
vn 0.2188 -0.9281 -0.3012
vn 0.3541 -0.9281 -0.1150
vn 0.2833 -0.9546 -0.0921
vn -0.0960 0.9949 -0.0312
vn -0.0593 0.9949 -0.0816
vn -0.2900 0.9524 0.0942
vn -0.3758 0.9186 0.1221
vn -0.2833 -0.9546 -0.0921
vn -0.3541 -0.9281 -0.1150
vn -0.2188 -0.9281 -0.3012
vn -0.1751 -0.9546 -0.2410
vn -0.2833 -0.9546 0.0921
vn -0.3541 -0.9281 0.1150
vn -0.1751 -0.9546 0.2410
vn -0.2188 -0.9281 0.3012
vn -0.0000 -0.9546 0.2979
vn -0.0000 -0.9281 0.3723
vn 0.2833 -0.9546 0.0921
vn 0.3541 -0.9281 0.1150
vn 0.2188 -0.9281 0.3012
vn 0.1751 -0.9546 0.2410
vn 0.0000 -0.9281 -0.3723
vn 0.0000 -0.9546 -0.2979
vn 0.0593 0.9949 0.0816
vn 0.0960 0.9949 0.0312
vn 0.0960 0.9949 -0.0312
vn 0.0593 0.9949 -0.0816
vn 0.0000 0.9949 -0.1009
vn -0.0960 0.9949 0.0312
vn 0.0882 -0.9887 -0.1214
vn 0.0000 -0.9887 -0.1501
vn 0.0343 -0.9983 -0.0472
vn 0.0000 -0.9983 -0.0583
vn 0.1428 -0.9887 -0.0464
vn 0.0554 -0.9983 -0.0180
vn 0.1428 -0.9887 0.0464
vn 0.0554 -0.9983 0.0180
vn 0.0882 -0.9887 0.1214
vn 0.0343 -0.9983 0.0472
vn -0.0000 -0.9887 0.1501
vn -0.0882 -0.9887 0.1214
vn -0.0343 -0.9983 0.0472
vn -0.0000 -0.9983 0.0583
vn -0.1428 -0.9887 0.0464
vn -0.0554 -0.9983 0.0180
vn -0.1428 -0.9887 -0.0464
vn -0.0554 -0.9983 -0.0180
vn -0.0882 -0.9887 -0.1214
vn -0.0343 -0.9983 -0.0472
vn 0.3931 0.7435 -0.5410
vn -0.0000 0.7435 -0.6687
vn 0.6360 0.7435 -0.2066
vn 0.6360 0.7435 0.2066
vn -0.3931 0.7435 0.5410
vn -0.6360 0.7435 0.2066
vn -0.6360 0.7435 -0.2066
vn -0.3931 0.7435 -0.5410
vn -0.2323 0.9186 0.3197
usemtl White
s 1
f 51//1 49//2 65//3 66//4
f 51//5 52//5 50//6 49//6
f 67//7 68//8 55//9 53//10
f 68//8 69//11 57//12 55//9
f 69//11 70//13 59//14 57//12
f 70//13 62//15 42//16 59//14
f 61//17 62//15 2//18 1//19
f 66//4 67//7 53//10 51//1
f 64//20 65//3 49//2 47//21
f 14//22 44//23 46//24 17//25
f 65//3 64//20 4//26 5//27
f 63//28 64//20 47//21 45//29
f 35//30 58//31 60//32 38//33
f 32//34 56//35 58//31 35//30
f 29//36 54//37 56//35 32//34
f 26//38 52//39 54//37 29//36
f 20//40 48//41 50//42 23//43
f 38//33 60//32 41//44 12//45
f 17//25 46//24 48//41 20//40
f 1//19 2//18 10//46 9//47 8//48 7//49 6//50 5//27 4//26 3//51
f 64//20 63//28 3//51 4//26
f 69//11 68//8 8//48 9//47
f 63//28 61//17 1//19 3//51
f 70//13 69//11 9//47 10//46
f 67//7 66//4 6//50 7//49
f 62//15 70//13 10//46 2//18
f 68//8 67//7 7//49 8//48
f 12//45 41//44 44//23 14//22
f 12//45 14//22 16//52 13//53
f 13//53 16//52 15//54 11//55
f 14//22 17//25 19//56 16//52
f 16//52 19//56 18//57 15//54
f 17//25 20//40 22//58 19//56
f 19//56 22//58 21//59 18//57
f 20//40 23//43 25//60 22//58
f 22//58 25//60 24//61 21//59
f 23//43 50//42 52//39 26//38
f 23//43 26//38 28//62 25//60
f 26//38 29//36 31//63 28//62
f 28//62 31//63 30//64 27//65
f 29//36 32//34 34//66 31//63
f 31//63 34//66 33//67 30//64
f 32//34 35//30 37//68 34//66
f 34//66 37//68 36//69 33//67
f 35//30 38//33 40//70 37//68
f 37//68 40//70 39//71 36//69
f 38//33 12//45 13//53 40//70
f 40//70 13//53 11//55 39//71
f 11//55 15//54 18//57 21//59 24//61 27//65 30//64 33//67 36//69 39//71
f 44//72 41//73 42//73 43//72
f 46//74 44//72 43//72 45//74
f 48//75 46//74 45//74 47//75
f 50//6 48//75 47//75 49//6
f 54//76 52//5 51//5 53//76
f 56//77 54//76 53//76 55//77
f 58//78 56//77 55//77 57//78
f 60//79 58//78 57//78 59//79
f 41//73 60//79 59//79 42//73
f 61//17 63//28 45//29 43//80
f 25//60 28//62 27//65 24//61
f 5//27 6//50 66//4 65//3
f 43//80 42//16 62//15 61//17
