# Blender v2.79 (sub 0) OBJ File: 'Shelf_Large.blend'
# www.blender.org
mtllib Shelf_Large.mtl
o Shelf_Large_Cube.020
v 1.159162 -0.023517 0.377999
v 1.159162 0.023517 0.377999
v 1.159162 -0.023517 -0.377999
v 1.159162 0.023517 -0.377999
v -2.221734 -0.023517 0.377999
v -2.221734 0.023517 0.377999
v -2.221734 -0.023517 -0.377999
v -2.221734 0.023517 -0.377999
v 1.159162 4.367530 0.377999
v 1.159162 4.414563 0.377999
v 1.159162 4.367530 -0.377999
v 1.159162 4.414563 -0.377999
v -2.221734 4.367530 0.377999
v -2.221734 4.414563 0.377999
v -2.221734 4.367530 -0.377999
v -2.221734 4.414563 -0.377999
v -0.668406 3.778886 -0.328089
v -0.668406 3.750505 -0.328089
v -0.668406 3.778886 0.328089
v -0.668406 3.750505 0.328089
v 0.216194 3.778886 -0.328089
v 0.216194 3.750505 -0.328089
v 0.216194 3.778886 0.328089
v 0.216194 3.750505 0.328089
v -0.668406 3.151669 -0.328089
v -0.668406 3.123288 -0.328089
v -0.668406 3.151669 0.328089
v -0.668406 3.123288 0.328089
v 0.216194 3.151669 -0.328089
v 0.216194 3.123288 -0.328089
v 0.216194 3.151669 0.328089
v 0.216194 3.123288 0.328089
v -0.668406 2.524450 -0.328089
v -0.668406 2.496069 -0.328089
v -0.668406 2.524450 0.328089
v -0.668406 2.496069 0.328089
v 0.216194 2.524450 -0.328089
v 0.216194 2.496069 -0.328089
v 0.216194 2.524450 0.328089
v 0.216194 2.496069 0.328089
v -0.668406 1.897232 -0.328089
v -0.668406 1.868852 -0.328089
v -0.668406 1.897232 0.328089
v -0.668406 1.868852 0.328089
v 0.216194 1.897232 -0.328089
v 0.216194 1.868852 -0.328089
v 0.216194 1.897232 0.328089
v 0.216194 1.868852 0.328089
v -0.668406 1.270014 -0.328089
v -0.668406 1.241633 -0.328089
v -0.668406 1.270014 0.328089
v -0.668406 1.241633 0.328089
v 0.216194 1.270014 -0.328089
v 0.216194 1.241633 -0.328089
v 0.216194 1.270014 0.328089
v 0.216194 1.241633 0.328089
v -0.668406 0.642796 -0.328089
v -0.668406 0.614415 -0.328089
v -0.668406 0.642796 0.328089
v -0.668406 0.614415 0.328089
v 0.216194 0.642796 -0.328089
v 0.216194 0.614415 -0.328089
v 0.216194 0.642796 0.328089
v 0.216194 0.614415 0.328089
v -2.166028 4.374162 0.341038
v -2.213061 4.374162 0.341038
v -2.166028 4.374162 -0.341038
v -2.213061 4.374162 -0.341038
v -2.166028 -0.002704 0.341038
v -2.213061 -0.002704 0.341038
v -2.166028 -0.002704 -0.341038
v -2.213061 -0.002704 -0.341038
v 1.103456 4.374162 0.341038
v 1.150489 4.374162 0.341038
v 1.103456 4.374162 -0.341038
v 1.150489 4.374162 -0.341038
v 1.103456 -0.002704 0.341038
v 1.150489 -0.002704 0.341038
v 1.103456 -0.002704 -0.341038
v 1.150489 -0.002704 -0.341038
v 1.114525 0.000666 0.328089
v 1.114525 0.642796 0.328089
v 1.114525 0.000666 -0.328089
v 1.114525 0.642796 -0.328089
v 0.229925 0.000666 0.328089
v 0.229925 0.642796 0.328089
v 0.229925 0.000666 -0.328089
v 0.229925 0.642796 -0.328089
v 0.248615 -0.002704 -0.341038
v 0.201582 -0.002704 -0.341038
v 0.248615 -0.002704 0.341038
v 0.201582 -0.002704 0.341038
v 0.248614 4.374162 -0.341038
v 0.201581 4.374162 -0.341038
v 0.248614 4.374162 0.341038
v 0.201581 4.374162 0.341038
v -0.703573 4.374162 0.341038
v -0.656540 4.374162 0.341038
v -0.703573 4.374162 -0.341038
v -0.656540 4.374162 -0.341038
v -0.703572 -0.002704 0.341038
v -0.656539 -0.002704 0.341038
v -0.703572 -0.002704 -0.341038
v -0.656539 -0.002704 -0.341038
v 0.229925 0.321731 0.328089
v 1.114525 0.321731 0.328089
v 0.229925 0.321731 -0.328089
v 1.114525 0.321731 -0.328089
v 1.070295 0.337785 0.328089
v 1.070295 0.626743 0.328089
v 0.274155 0.626743 0.328089
v 0.274155 0.337785 0.328089
v 0.274155 0.305678 0.328089
v 0.274155 0.016719 0.328089
v 1.070295 0.016719 0.328089
v 1.070295 0.305678 0.328089
v 1.070295 0.337785 0.346393
v 1.070295 0.626743 0.346393
v 0.274155 0.626743 0.346393
v 0.274155 0.337785 0.346393
v 0.274155 0.305678 0.346393
v 0.274155 0.016719 0.346393
v 1.070295 0.016719 0.346393
v 1.070295 0.305678 0.346393
v 0.805001 0.458828 0.361414
v 0.805001 0.505700 0.361414
v 0.539449 0.505700 0.361414
v 0.539449 0.458828 0.361414
v 0.805001 0.458828 0.343809
v 0.805001 0.505700 0.343809
v 0.539449 0.505700 0.343809
v 0.539449 0.458828 0.343809
v 0.805001 0.139264 0.361414
v 0.805001 0.186135 0.361414
v 0.539449 0.186135 0.361414
v 0.539449 0.139264 0.361414
v 0.805001 0.139264 0.343809
v 0.805001 0.186135 0.343809
v 0.539449 0.186135 0.343809
v 0.539449 0.139264 0.343809
vn 1.0000 0.0000 0.0000
vn 0.0000 0.0000 -1.0000
vn -1.0000 0.0000 0.0000
vn 0.0000 0.0000 1.0000
vn 0.0000 -1.0000 0.0000
vn 0.0000 1.0000 0.0000
usemtl White
s off
f 1//1 3//1 4//1 2//1
f 3//2 7//2 8//2 4//2
f 7//3 5//3 6//3 8//3
f 5//4 1//4 2//4 6//4
f 3//5 1//5 5//5 7//5
f 8//6 6//6 2//6 4//6
f 9//1 11//1 12//1 10//1
f 11//2 15//2 16//2 12//2
f 15//3 13//3 14//3 16//3
f 13//4 9//4 10//4 14//4
f 11//5 9//5 13//5 15//5
f 16//6 14//6 10//6 12//6
f 22//5 24//5 20//5 18//5
f 22//2 18//2 17//2 21//2
f 24//1 22//1 21//1 23//1
f 20//4 24//4 23//4 19//4
f 17//6 19//6 23//6 21//6
f 18//3 20//3 19//3 17//3
f 30//5 32//5 28//5 26//5
f 30//2 26//2 25//2 29//2
f 32//1 30//1 29//1 31//1
f 28//4 32//4 31//4 27//4
f 25//6 27//6 31//6 29//6
f 26//3 28//3 27//3 25//3
f 38//5 40//5 36//5 34//5
f 38//2 34//2 33//2 37//2
f 40//1 38//1 37//1 39//1
f 36//4 40//4 39//4 35//4
f 33//6 35//6 39//6 37//6
f 34//3 36//3 35//3 33//3
f 46//5 48//5 44//5 42//5
f 46//2 42//2 41//2 45//2
f 48//1 46//1 45//1 47//1
f 44//4 48//4 47//4 43//4
f 41//6 43//6 47//6 45//6
f 42//3 44//3 43//3 41//3
f 54//5 56//5 52//5 50//5
f 54//2 50//2 49//2 53//2
f 56//1 54//1 53//1 55//1
f 52//4 56//4 55//4 51//4
f 49//6 51//6 55//6 53//6
f 50//3 52//3 51//3 49//3
f 62//5 64//5 60//5 58//5
f 62//2 58//2 57//2 61//2
f 64//1 62//1 61//1 63//1
f 60//4 64//4 63//4 59//4
f 57//6 59//6 63//6 61//6
f 58//3 60//3 59//3 57//3
f 65//6 67//6 68//6 66//6
f 67//2 71//2 72//2 68//2
f 71//5 69//5 70//5 72//5
f 69//4 65//4 66//4 70//4
f 67//1 65//1 69//1 71//1
f 72//3 70//3 66//3 68//3
f 73//6 74//6 76//6 75//6
f 75//2 76//2 80//2 79//2
f 79//5 80//5 78//5 77//5
f 77//4 78//4 74//4 73//4
f 75//3 79//3 77//3 73//3
f 80//1 76//1 74//1 78//1
f 88//6 86//6 82//6 84//6
f 108//2 107//2 88//2 84//2
f 83//5 81//5 85//5 87//5
f 105//4 112//4 111//4 86//4
f 107//3 105//3 86//3 88//3
f 106//1 108//1 84//1 82//1
f 94//3 90//3 92//3 96//3
f 94//2 93//2 89//2 90//2
f 96//6 95//6 93//6 94//6
f 92//4 91//4 95//4 96//4
f 89//1 93//1 95//1 91//1
f 90//5 89//5 91//5 92//5
f 97//6 98//6 100//6 99//6
f 99//2 100//2 104//2 103//2
f 103//5 104//5 102//5 101//5
f 101//4 102//4 98//4 97//4
f 99//3 103//3 101//3 97//3
f 104//1 100//1 98//1 102//1
f 81//1 83//1 108//1 106//1
f 87//3 85//3 105//3 107//3
f 85//4 114//4 113//4 105//4
f 83//2 87//2 107//2 108//2
f 111//6 119//6 118//6 110//6
f 86//4 111//4 110//4 82//4
f 82//4 110//4 109//4 106//4
f 106//4 109//4 112//4 105//4
f 109//5 117//5 120//5 112//5
f 81//4 115//4 114//4 85//4
f 106//4 116//4 115//4 81//4
f 105//4 113//4 116//4 106//4
f 120//4 117//4 118//4 119//4
f 122//4 123//4 124//4 121//4
f 116//1 124//1 123//1 115//1
f 114//3 122//3 121//3 113//3
f 112//3 120//3 119//3 111//3
f 113//6 121//6 124//6 116//6
f 110//1 118//1 117//1 109//1
f 115//5 123//5 122//5 114//5
f 128//4 125//4 126//4 127//4
f 132//2 131//2 130//2 129//2
f 128//3 127//3 131//3 132//3
f 126//1 125//1 129//1 130//1
f 125//5 128//5 132//5 129//5
f 127//6 126//6 130//6 131//6
f 136//4 133//4 134//4 135//4
f 140//2 139//2 138//2 137//2
f 136//3 135//3 139//3 140//3
f 134//1 133//1 137//1 138//1
f 133//5 136//5 140//5 137//5
f 135//6 134//6 138//6 139//6
