# Blender v2.79 (sub 0) OBJ File: 'Shelf_Small2.blend'
# www.blender.org
mtllib Shelf_Small2.mtl
o Shelf_Small2_Cube.086
v -0.519810 -0.021108 0.275193
v -0.485569 -0.021108 0.275193
v -0.519811 -0.021108 -0.275193
v -0.485569 -0.021108 -0.275193
v -0.519811 0.368709 0.275193
v -0.485570 0.368709 0.275193
v -0.519811 0.368709 -0.275193
v -0.485570 0.368709 -0.275193
v -0.219944 0.240876 -0.238857
v -0.240606 0.240876 -0.238857
v -0.219943 0.240876 0.238858
v -0.240605 0.240876 0.238858
v -0.219943 0.017820 -0.238857
v -0.240605 0.017820 -0.238857
v -0.219943 0.017820 0.238858
v -0.240605 0.017820 0.238858
v -0.504659 0.328153 0.248284
v -0.504659 0.362394 0.248284
v -0.504659 0.328153 -0.248284
v -0.504659 0.362394 -0.248284
v -0.504659 -0.005783 -0.248284
v -0.504659 0.028458 -0.248284
v -0.504659 -0.005783 0.248284
v -0.504659 0.028458 0.248284
v -0.504659 0.266477 0.248284
v -0.504659 0.232236 0.248284
v -0.504659 0.266477 -0.248284
v -0.504659 0.232236 -0.248284
v 0.519811 -0.021107 0.275193
v 0.485569 -0.021107 0.275193
v 0.519810 -0.021107 -0.275193
v 0.485569 -0.021107 -0.275193
v 0.519811 0.368709 0.275193
v 0.485570 0.368709 0.275193
v 0.519811 0.368709 -0.275193
v 0.485570 0.368709 -0.275193
v 0.219943 0.240876 -0.238857
v 0.240605 0.240876 -0.238857
v 0.219943 0.240876 0.238857
v 0.240605 0.240876 0.238857
v 0.219943 0.017820 -0.238857
v 0.240605 0.017820 -0.238857
v 0.219943 0.017820 0.238857
v 0.240605 0.017820 0.238857
v 0.504659 0.328153 0.248284
v 0.504659 0.362395 0.248284
v 0.504659 0.328153 -0.248284
v 0.504659 0.362395 -0.248284
v 0.504659 -0.005783 -0.248284
v 0.504659 0.028458 -0.248284
v 0.504659 -0.005783 0.248284
v 0.504659 0.028458 0.248284
v 0.504659 0.266477 0.248284
v 0.504659 0.232236 0.248284
v 0.504659 0.266477 -0.248284
v 0.504659 0.232236 -0.248284
v -0.000000 0.328153 -0.248284
v -0.000000 0.362394 -0.248284
v -0.000000 0.328153 0.248284
v -0.000000 0.362395 0.248284
vn 0.0000 -1.0000 0.0000
vn 0.0000 0.0000 -1.0000
vn 0.0000 1.0000 -0.0000
vn 0.0000 0.0000 1.0000
vn -1.0000 -0.0000 0.0000
vn 1.0000 0.0000 -0.0000
usemtl White
s off
f 1//1 3//1 4//1 2//1
f 3//2 7//2 8//2 4//2
f 7//3 5//3 6//3 8//3
f 5//4 1//4 2//4 6//4
f 3//5 1//5 5//5 7//5
f 8//6 6//6 2//6 4//6
f 14//5 16//5 12//5 10//5
f 14//2 10//2 9//2 13//2
f 16//1 14//1 13//1 15//1
f 12//4 16//4 15//4 11//4
f 9//6 11//6 15//6 13//6
f 10//3 12//3 11//3 9//3
f 57//2 19//2 20//2 58//2
f 19//5 17//5 18//5 20//5
f 57//1 59//1 17//1 19//1
f 22//3 24//3 52//3 50//3
f 22//5 21//5 23//5 24//5
f 49//1 51//1 23//1 21//1
f 27//5 28//5 26//5 25//5
f 53//4 25//4 26//4 54//4
f 20//3 18//3 60//3 58//3
f 17//4 59//4 60//4 18//4
f 27//3 25//3 53//3 55//3
f 28//2 27//2 55//2 56//2
f 52//4 24//4 23//4 51//4
f 21//2 22//2 50//2 49//2
f 29//1 30//1 32//1 31//1
f 31//2 32//2 36//2 35//2
f 35//3 36//3 34//3 33//3
f 33//4 34//4 30//4 29//4
f 31//6 35//6 33//6 29//6
f 36//5 32//5 30//5 34//5
f 42//6 38//6 40//6 44//6
f 42//2 41//2 37//2 38//2
f 44//1 43//1 41//1 42//1
f 40//4 39//4 43//4 44//4
f 37//5 41//5 43//5 39//5
f 38//3 37//3 39//3 40//3
f 57//2 58//2 48//2 47//2
f 47//6 48//6 46//6 45//6
f 57//1 47//1 45//1 59//1
f 50//6 52//6 51//6 49//6
f 55//6 53//6 54//6 56//6
f 48//3 58//3 60//3 46//3
f 45//4 46//4 60//4 59//4
f 56//1 54//1 26//1 28//1
