# Blender v2.79 (sub 0) OBJ File: 'Shelf_2.blend'
# www.blender.org
mtllib Shelf_2.mtl
o Shelf_2_Cube.093
v -0.559575 0.000000 0.377999
v -0.559575 0.047033 0.377999
v -0.559575 0.000000 -0.377999
v -0.559575 0.047033 -0.377999
v 0.559573 0.000000 0.377999
v 0.559573 0.047033 0.377999
v 0.559573 0.000000 -0.377999
v 0.559573 0.047033 -0.377999
v -0.559575 4.391046 0.377999
v -0.559575 4.438079 0.377999
v -0.559575 4.391046 -0.377999
v -0.559575 4.438079 -0.377999
v 0.559573 4.391046 0.377999
v 0.559573 4.438079 0.377999
v 0.559573 4.391046 -0.377999
v 0.559573 4.438079 -0.377999
v 0.529570 3.802403 -0.301590
v 0.529570 3.774022 -0.301590
v 0.529570 3.802403 0.301590
v 0.529570 3.774022 0.301590
v -0.529572 3.802403 -0.301590
v -0.529572 3.774022 -0.301590
v -0.529572 3.802403 0.301590
v -0.529572 3.774022 0.301590
v 0.529570 3.175185 -0.301590
v 0.529570 3.146804 -0.301590
v 0.529570 3.175185 0.301590
v 0.529570 3.146804 0.301590
v -0.529572 3.175185 -0.301590
v -0.529572 3.146804 -0.301590
v -0.529572 3.175185 0.301590
v -0.529572 3.146804 0.301590
v 0.529570 2.547967 -0.301590
v 0.529570 2.519586 -0.301590
v 0.529570 2.547967 0.301590
v 0.529570 2.519586 0.301590
v -0.529572 2.547967 -0.301590
v -0.529572 2.519586 -0.301590
v -0.529572 2.547967 0.301590
v -0.529572 2.519586 0.301590
v 0.529570 1.920749 -0.301590
v 0.529570 1.892368 -0.301590
v 0.529570 1.920749 0.301590
v 0.529570 1.892368 0.301590
v -0.529572 1.920749 -0.301590
v -0.529572 1.892368 -0.301590
v -0.529572 1.920749 0.301590
v -0.529572 1.892368 0.301590
v 0.529570 1.293531 -0.301590
v 0.529570 1.265150 -0.301590
v 0.529570 1.293531 0.301590
v 0.529570 1.265150 0.301590
v -0.529572 1.293531 -0.301590
v -0.529572 1.265150 -0.301590
v -0.529572 1.293531 0.301590
v -0.529572 1.265150 0.301590
v 0.529570 0.666313 -0.301590
v 0.529570 0.637932 -0.301590
v 0.529570 0.666313 0.301590
v 0.529570 0.637932 0.301590
v -0.529572 0.666313 -0.301590
v -0.529572 0.637932 -0.301590
v -0.529572 0.666313 0.301590
v -0.529572 0.637932 0.301590
v 0.503867 4.397678 0.341038
v 0.550900 4.397678 0.341038
v 0.503867 4.397678 -0.341038
v 0.550900 4.397678 -0.341038
v 0.503867 0.020812 0.341038
v 0.550900 0.020812 0.341038
v 0.503867 0.020812 -0.341038
v 0.550900 0.020812 -0.341038
v -0.503868 4.397678 0.341038
v -0.550902 4.397678 0.341038
v -0.503868 4.397678 -0.341038
v -0.550901 4.397678 -0.341038
v -0.503869 0.020812 0.341038
v -0.550902 0.020812 0.341038
v -0.503869 0.020812 -0.341038
v -0.550902 0.020812 -0.341038
vn -1.0000 0.0000 0.0000
vn 0.0000 0.0000 -1.0000
vn 1.0000 0.0000 0.0000
vn 0.0000 0.0000 1.0000
vn 0.0000 -1.0000 0.0000
vn 0.0000 1.0000 0.0000
usemtl White
s off
f 1//1 2//1 4//1 3//1
f 3//2 4//2 8//2 7//2
f 7//3 8//3 6//3 5//3
f 5//4 6//4 2//4 1//4
f 3//5 7//5 5//5 1//5
f 8//6 4//6 2//6 6//6
f 9//1 10//1 12//1 11//1
f 11//2 12//2 16//2 15//2
f 15//3 16//3 14//3 13//3
f 13//4 14//4 10//4 9//4
f 11//5 15//5 13//5 9//5
f 16//6 12//6 10//6 14//6
f 22//5 18//5 20//5 24//5
f 22//2 21//2 17//2 18//2
f 24//1 23//1 21//1 22//1
f 20//4 19//4 23//4 24//4
f 17//6 21//6 23//6 19//6
f 18//3 17//3 19//3 20//3
f 30//5 26//5 28//5 32//5
f 30//2 29//2 25//2 26//2
f 32//1 31//1 29//1 30//1
f 28//4 27//4 31//4 32//4
f 25//6 29//6 31//6 27//6
f 26//3 25//3 27//3 28//3
f 38//5 34//5 36//5 40//5
f 38//2 37//2 33//2 34//2
f 40//1 39//1 37//1 38//1
f 36//4 35//4 39//4 40//4
f 33//6 37//6 39//6 35//6
f 34//3 33//3 35//3 36//3
f 46//5 42//5 44//5 48//5
f 46//2 45//2 41//2 42//2
f 48//1 47//1 45//1 46//1
f 44//4 43//4 47//4 48//4
f 41//6 45//6 47//6 43//6
f 42//3 41//3 43//3 44//3
f 54//5 50//5 52//5 56//5
f 54//2 53//2 49//2 50//2
f 56//1 55//1 53//1 54//1
f 52//4 51//4 55//4 56//4
f 49//6 53//6 55//6 51//6
f 50//3 49//3 51//3 52//3
f 62//5 58//5 60//5 64//5
f 62//2 61//2 57//2 58//2
f 64//1 63//1 61//1 62//1
f 60//4 59//4 63//4 64//4
f 57//6 61//6 63//6 59//6
f 58//3 57//3 59//3 60//3
f 65//6 66//6 68//6 67//6
f 67//2 68//2 72//2 71//2
f 71//5 72//5 70//5 69//5
f 69//4 70//4 66//4 65//4
f 67//1 71//1 69//1 65//1
f 72//3 68//3 66//3 70//3
f 73//6 75//6 76//6 74//6
f 75//2 79//2 80//2 76//2
f 79//5 77//5 78//5 80//5
f 77//4 73//4 74//4 78//4
f 75//3 73//3 77//3 79//3
f 80//1 78//1 74//1 76//1
