# Blender v2.79 (sub 0) OBJ File: 'Spoon.blend'
# www.blender.org
mtllib Spoon.mtl
o Spoon_Plane.013
v -0.012411 0.000731 0.138130
v 0.012411 0.000731 0.138130
v -0.005764 0.003551 -0.117617
v 0.005764 0.003551 -0.117617
v -0.009222 0.000731 0.153533
v 0.009222 0.000731 0.153533
v 0.000387 0.000731 0.157788
v -0.000000 0.003551 -0.117617
v -0.000000 0.000731 0.138130
v -0.005764 -0.000731 -0.117674
v -0.012411 -0.003551 0.138072
v 0.012411 -0.003551 0.138072
v 0.005764 -0.000731 -0.117674
v 0.009222 -0.003551 0.153475
v -0.009222 -0.003551 0.153475
v -0.000000 -0.003551 0.138072
v -0.000000 -0.000731 -0.117674
v 0.000387 -0.003551 0.157731
v -0.013007 -0.003364 -0.117865
v 0.032827 -0.003364 -0.133566
v 0.024970 -0.003364 -0.214953
v -0.009054 -0.003364 -0.237309
v -0.036129 -0.003364 -0.176466
v -0.000168 -0.011727 -0.175966
v -0.042550 0.003402 -0.148477
v -0.034814 0.003402 -0.200036
v -0.000083 0.003402 -0.109974
v -0.026875 0.003402 -0.121424
v 0.041922 0.003402 -0.148477
v 0.026684 0.003402 -0.120485
v 0.019674 0.003402 -0.234445
v 0.034781 0.003402 -0.200036
v -0.019406 0.003402 -0.234445
v 0.000134 0.003402 -0.247586
v -0.031761 -0.004552 -0.135336
v 0.011853 -0.004552 -0.120000
v 0.034061 -0.004552 -0.176592
v 0.008873 -0.004552 -0.234445
v -0.023598 -0.004552 -0.213183
v -0.007735 -0.009467 -0.135336
v -0.020544 -0.009467 -0.178217
v 0.018574 -0.009467 -0.148477
v 0.015547 -0.009467 -0.200035
v -0.005521 -0.009467 -0.213182
v -0.012158 -0.000629 -0.123107
v 0.030262 -0.000513 -0.136876
v 0.022441 -0.000312 -0.212049
v -0.007924 -0.000252 -0.232785
v -0.033076 -0.000314 -0.175449
v -0.000159 -0.007365 -0.175924
v -0.039317 0.006238 -0.149636
v -0.031553 0.005818 -0.197488
v -0.000139 0.005627 -0.115950
v -0.024875 0.005364 -0.126749
v 0.038628 0.006197 -0.149440
v 0.024883 0.005460 -0.125899
v 0.017450 0.005888 -0.229968
v 0.031435 0.005813 -0.197774
v -0.017041 0.005844 -0.230091
v 0.000042 0.005985 -0.241988
v -0.029477 -0.001333 -0.138295
v 0.011137 -0.001346 -0.124573
v 0.031319 -0.001198 -0.175772
v 0.007868 -0.001135 -0.230432
v -0.021352 -0.001191 -0.210572
v -0.007426 -0.005277 -0.137200
v -0.019468 -0.005245 -0.177910
v 0.017733 -0.005230 -0.149436
v 0.014600 -0.005265 -0.198948
v -0.005140 -0.005236 -0.211605
vn 0.0000 1.0000 0.0055
vn 0.0000 1.0000 0.0059
vn 0.0000 1.0000 -0.0000
vn 0.0000 0.9999 0.0110
vn 0.0000 -1.0000 -0.0055
vn 0.0000 -1.0000 0.0000
vn 0.0000 -1.0000 -0.0059
vn 0.0000 -0.9999 -0.0110
vn -0.9960 -0.0012 0.0895
vn -0.9961 -0.0012 0.0884
vn -0.9792 -0.0027 0.2028
vn 0.4339 -0.0121 0.9009
vn -0.9997 0.0003 -0.0260
vn -0.4049 -0.0123 0.9143
vn 0.9960 -0.0012 0.0895
vn 0.9961 -0.0012 0.0884
vn 0.9997 0.0004 -0.0260
vn 0.9792 -0.0027 0.2028
vn -0.2536 -0.7213 0.6445
vn -0.5703 -0.7573 0.3182
vn -0.0705 -0.9819 0.1758
vn 0.6477 -0.6685 0.3655
vn 0.2009 -0.8219 0.5330
vn 0.1949 -0.9773 0.0835
vn 0.6208 -0.7290 -0.2885
vn 0.6349 -0.7688 -0.0764
vn 0.2205 -0.9702 -0.1006
vn -0.3110 -0.7960 -0.5192
vn 0.2686 -0.8575 -0.4388
vn -0.0891 -0.9849 -0.1482
vn -0.7119 -0.6958 -0.0952
vn -0.5484 -0.7962 -0.2555
vn -0.2454 -0.9690 -0.0287
vn 0.0003 -1.0000 -0.0038
vn -0.7632 -0.5994 -0.2415
vn -0.6030 -0.6440 -0.4708
vn 0.0205 -0.7484 -0.6629
vn 0.5625 -0.6682 -0.4869
vn 0.7780 -0.5917 -0.2112
vn 0.7287 -0.6796 0.0842
vn 0.4814 -0.6134 0.6261
vn 0.0152 -0.6727 0.7398
vn -0.5417 -0.5726 0.6154
vn -0.7177 -0.6884 0.1051
vn 0.2558 0.7167 -0.6488
vn 0.0642 0.9838 -0.1675
vn 0.5683 0.7559 -0.3251
vn -0.6314 0.6836 -0.3661
vn -0.1792 0.9808 -0.0765
vn -0.2051 0.8116 -0.5470
vn -0.6225 0.7276 0.2882
vn -0.2134 0.9722 0.0966
vn -0.6358 0.7677 0.0803
vn 0.3130 0.7965 0.5174
vn 0.0861 0.9863 0.1410
vn -0.2759 0.8529 0.4432
vn 0.7054 0.7019 0.0989
vn 0.2335 0.9719 0.0304
vn 0.5555 0.7910 0.2564
vn -0.0004 1.0000 0.0041
vn 0.7698 0.5904 0.2426
vn 0.6133 0.6318 0.4740
vn -0.0194 0.7385 0.6740
vn -0.5743 0.6563 0.4893
vn -0.7837 0.5832 0.2137
vn -0.7428 0.6640 -0.0855
vn -0.4887 0.5929 -0.6400
vn -0.0126 0.6625 -0.7490
vn 0.5454 0.5520 -0.6307
vn 0.7281 0.6772 -0.1066
vn -0.3484 0.8799 -0.3231
vn -0.5317 0.8299 -0.1689
vn -0.5601 0.8155 -0.1454
vn -0.3946 0.8735 -0.2852
vn 0.3484 0.8792 -0.3250
vn 0.0024 0.9169 -0.3991
vn -0.0034 0.9169 -0.3991
vn 0.4027 0.8703 -0.2835
vn 0.5394 0.8356 0.1041
vn 0.5370 0.8277 -0.1630
vn 0.5572 0.8182 -0.1416
vn 0.5468 0.8329 0.0853
vn -0.0027 0.9443 0.3291
vn 0.2522 0.9153 0.3140
vn 0.3349 0.8933 0.2998
vn -0.0070 0.9443 0.3290
vn -0.5294 0.8413 0.1094
vn -0.2541 0.9163 0.3097
vn -0.3209 0.8983 0.3001
vn -0.5431 0.8359 0.0801
usemtl LightMetal
s 1
f 9//1 1//2 5//3 7//3
f 9//1 2//2 4//4 8//4
f 2//2 9//1 7//3 6//3
f 1//2 9//1 8//4 3//4
f 16//5 18//6 15//6 11//7
f 16//5 17//8 13//8 12//7
f 12//7 14//6 18//6 16//5
f 11//7 10//8 17//8 16//5
f 1//9 11//10 15//11 5//11
f 7//12 18//12 14//12 6//12
f 3//13 10//13 11//10 1//9
f 5//14 15//14 18//14 7//14
f 2//15 12//16 13//17 4//17
f 6//18 14//18 12//16 2//15
f 19//19 35//20 40//21
f 20//22 36//23 42//24
f 21//25 37//26 43//27
f 22//28 38//29 44//30
f 23//31 39//32 41//33
f 41//33 44//30 24//34
f 41//33 39//32 44//30
f 39//32 22//28 44//30
f 44//30 43//27 24//34
f 44//30 38//29 43//27
f 38//29 21//25 43//27
f 43//27 42//24 24//34
f 43//27 37//26 42//24
f 37//26 20//22 42//24
f 42//24 40//21 24//34
f 42//24 36//23 40//21
f 36//23 19//19 40//21
f 40//21 41//33 24//34
f 40//21 35//20 41//33
f 35//20 23//31 41//33
f 26//35 39//32 23//31
f 26//35 33//36 39//32
f 33//36 22//28 39//32
f 34//37 38//29 22//28
f 34//37 31//38 38//29
f 31//38 21//25 38//29
f 32//39 37//26 21//25
f 32//39 29//40 37//26
f 29//40 20//22 37//26
f 30//41 36//23 20//22
f 30//41 27//42 36//23
f 27//42 19//19 36//23
f 28//43 35//20 19//19
f 28//43 25//44 35//20
f 25//44 23//31 35//20
f 33//36 34//37 22//28
f 31//38 32//39 21//25
f 29//40 30//41 20//22
f 27//42 28//43 19//19
f 25//44 26//35 23//31
f 45//45 66//46 61//47
f 46//48 68//49 62//50
f 47//51 69//52 63//53
f 48//54 70//55 64//56
f 49//57 67//58 65//59
f 67//58 50//60 70//55
f 67//58 70//55 65//59
f 65//59 70//55 48//54
f 70//55 50//60 69//52
f 70//55 69//52 64//56
f 64//56 69//52 47//51
f 69//52 50//60 68//49
f 69//52 68//49 63//53
f 63//53 68//49 46//48
f 68//49 50//60 66//46
f 68//49 66//46 62//50
f 62//50 66//46 45//45
f 66//46 50//60 67//58
f 66//46 67//58 61//47
f 61//47 67//58 49//57
f 52//61 49//57 65//59
f 52//61 65//59 59//62
f 59//62 65//59 48//54
f 60//63 48//54 64//56
f 60//63 64//56 57//64
f 57//64 64//56 47//51
f 58//65 47//51 63//53
f 58//65 63//53 55//66
f 55//66 63//53 46//48
f 56//67 46//48 62//50
f 56//67 62//50 53//68
f 53//68 62//50 45//45
f 54//69 45//45 61//47
f 54//69 61//47 51//70
f 51//70 61//47 49//57
f 59//62 48//54 60//63
f 57//64 47//51 58//65
f 55//66 46//48 56//67
f 53//68 45//45 54//69
f 51//70 49//57 52//61
f 33//71 26//72 52//73 59//74
f 31//75 34//76 60//77 57//78
f 29//79 32//80 58//81 55//82
f 27//83 30//84 56//85 53//86
f 25//87 28//88 54//89 51//90
f 34//76 33//71 59//74 60//77
f 32//80 31//75 57//78 58//81
f 30//84 29//79 55//82 56//85
f 28//88 27//83 53//86 54//89
f 26//72 25//87 51//90 52//73
