# Blender v2.79 (sub 0) OBJ File: 'Window_Round2.blend'
# www.blender.org
mtllib Window_Round2.mtl
o Window_Round2_Cylinder.043
v 0.453195 1.096605 0.056278
v 0.407407 0.045854 0.056278
v 0.392479 1.323203 0.056278
v -0.407409 0.045854 0.056278
v 0.226597 1.489084 0.056278
v -0.407409 1.090754 0.056278
v -0.000001 1.549801 0.056278
v -0.352826 1.294457 0.056278
v -0.226599 1.489084 0.056278
v -0.203705 1.443579 0.056278
v -0.392480 1.323203 0.056278
v -0.000001 1.498161 0.056278
v -0.453197 1.096605 0.056278
v 0.203703 1.443579 0.056278
v 0.453195 0.000000 0.056278
v 0.352825 1.294457 0.056278
v -0.453197 0.000000 0.056278
v 0.407407 1.090753 0.056278
v 0.453195 1.096605 -0.056279
v 0.407407 0.045854 -0.056279
v 0.392479 1.323203 -0.056279
v -0.407409 0.045854 -0.056279
v 0.226597 1.489084 -0.056279
v -0.407409 1.090754 -0.056279
v -0.000001 1.549801 -0.056279
v -0.352826 1.294457 -0.056279
v -0.226599 1.489084 -0.056279
v -0.203705 1.443579 -0.056279
v -0.392480 1.323203 -0.056279
v -0.000001 1.498161 -0.056279
v -0.453197 1.096605 -0.056279
v 0.203703 1.443579 -0.056279
v 0.453195 0.000000 -0.056279
v 0.352825 1.294457 -0.056279
v -0.453197 0.000000 -0.056279
v 0.407407 1.090753 -0.056279
v 0.453195 1.096605 -0.000000
v 0.392479 1.323203 -0.000000
v 0.226597 1.489084 -0.000000
v -0.000001 1.549801 -0.000000
v -0.226599 1.489084 -0.000000
v -0.392480 1.323203 -0.000000
v -0.453197 1.096605 -0.000000
v 0.453195 0.000000 -0.000000
v -0.453197 0.000000 -0.000000
v 0.407407 0.045854 -0.000000
v -0.407409 0.045854 -0.000000
v 0.407407 1.090753 -0.000000
v -0.407409 1.090754 -0.000000
v -0.352826 1.294457 -0.000000
v -0.203705 1.443579 -0.000000
v -0.000001 1.498161 -0.000000
v 0.203703 1.443579 -0.000000
v 0.352825 1.294457 -0.000000
v 0.417410 0.021752 0.036875
v -0.417412 0.021752 0.036875
v -0.417412 1.092307 0.036875
v -0.361489 1.301012 0.036875
v -0.208706 1.453795 0.036875
v -0.000001 1.509717 0.036875
v 0.208704 1.453795 0.036875
v 0.361487 1.301012 0.036875
v 0.417410 1.092306 0.036875
v 0.417410 0.021752 -0.036876
v -0.417412 0.021752 -0.036876
v -0.417412 1.092307 -0.036876
v -0.361489 1.301012 -0.036876
v -0.208706 1.453795 -0.036876
v -0.000001 1.509717 -0.036876
v 0.208704 1.453795 -0.036876
v 0.361487 1.301012 -0.036876
v 0.417410 1.092306 -0.036876
v 0.430301 0.316176 0.047850
v -0.430303 0.316176 0.047850
v 0.430301 0.270322 0.047850
v -0.430303 0.270323 0.047850
v -0.430303 0.316176 -0.045980
v -0.430303 0.270323 -0.045980
v 0.430301 0.270322 -0.045980
v 0.430301 0.316176 -0.045980
vn 0.0000 0.0000 1.0000
vn 0.9914 0.1305 0.0000
vn 1.0000 0.0000 0.0000
vn -0.0000 -1.0000 0.0000
vn -0.5000 -0.8660 0.0000
vn -0.9914 0.1305 0.0000
vn -1.0000 0.0000 0.0000
vn -0.8660 0.5000 0.0000
vn -0.5000 0.8660 0.0000
vn -0.2588 0.9659 0.0000
vn 0.5000 0.8660 0.0000
vn 0.2588 0.9659 0.0000
vn 0.8660 0.5000 0.0000
vn 0.8660 -0.5000 0.0000
vn 0.9914 -0.1305 0.0000
vn 0.0000 1.0000 0.0000
vn -0.7071 -0.7071 0.0000
vn 0.5000 -0.8660 0.0000
vn -0.9914 -0.1305 0.0000
vn -0.9659 -0.2588 0.0000
vn -0.0000 -0.0000 -1.0000
vn -0.2588 -0.9659 0.0000
vn 0.7071 -0.7071 0.0000
vn 0.2588 -0.9659 0.0000
usemtl White
s 1
f 1//1 3//1 16//1 18//1
f 13//1 17//1 4//1 6//1
f 3//1 5//1 14//1 16//1
f 15//1 1//1 18//1 2//1
f 5//1 7//1 12//1 14//1
f 7//1 9//1 10//1 12//1
f 37//2 1//2 15//3 44//3
f 9//1 11//1 8//1 10//1
f 11//1 13//1 6//1 8//1
f 17//1 15//1 2//1 4//1
f 15//4 17//4 45//4 44//4
f 14//5 12//4 52//4 53//5
f 13//6 43//6 45//7 17//7
f 11//8 42//8 43//6 13//6
f 9//9 41//9 42//8 11//8
f 7//10 40//10 41//9 9//9
f 5//11 39//11 40//12 7//12
f 3//13 38//13 39//11 5//11
f 1//2 37//2 38//13 3//13
f 8//14 6//15 49//15 50//14
f 4//16 2//16 46//16 47//16
f 16//17 14//5 53//5 54//17
f 10//18 8//14 50//14 51//18
f 2//7 18//19 48//19 46//7
f 18//19 16//20 54//20 48//19
f 12//4 10//18 51//18 52//4
f 6//15 4//3 47//3 49//15
f 19//21 36//21 34//21 21//21
f 31//21 24//21 22//21 35//21
f 21//21 34//21 32//21 23//21
f 33//21 20//21 36//21 19//21
f 23//21 32//21 30//21 25//21
f 25//21 30//21 28//21 27//21
f 37//2 44//3 33//3 19//2
f 27//21 28//21 26//21 29//21
f 29//21 26//21 24//21 31//21
f 35//21 22//21 20//21 33//21
f 33//4 44//4 45//4 35//4
f 32//5 53//5 52//4 30//22
f 31//6 35//7 45//7 43//6
f 29//8 31//6 43//6 42//8
f 27//9 29//8 42//8 41//9
f 25//10 27//9 41//9 40//10
f 23//11 25//12 40//12 39//11
f 21//13 23//11 39//11 38//13
f 19//2 21//13 38//13 37//2
f 26//14 50//14 49//15 24//15
f 22//16 47//16 46//16 20//16
f 34//17 54//17 53//5 32//5
f 28//23 51//18 50//14 26//14
f 20//7 46//7 48//19 36//19
f 36//19 48//19 54//20 34//20
f 30//24 52//4 51//18 28//24
f 24//15 49//15 47//3 22//3
f 76//1 75//1 73//1 74//1
f 78//21 77//21 80//21 79//21
f 73//16 80//16 77//16 74//16
f 75//3 79//3 80//3 73//3
f 76//4 78//4 79//4 75//4
f 74//7 77//7 78//7 76//7
usemtl Glass
s off
f 55//1 63//1 62//1 61//1 60//1 59//1 58//1 57//1 56//1
f 64//21 65//21 66//21 67//21 68//21 69//21 70//21 71//21 72//21
