# Blender v2.79 (sub 0) OBJ File: 'Window_Small3.blend'
# www.blender.org
mtllib Window_Small3.mtl
o Window_Small3_Cube.035
v -0.452116 0.059828 0.046035
v -0.452116 1.237951 0.046035
v 0.452116 0.059828 0.046035
v 0.452116 1.237951 0.046035
v -0.400515 0.115739 0.046035
v -0.400515 1.182040 0.046035
v 0.400516 1.182040 0.046035
v 0.400516 0.115739 0.046035
v -0.464099 0.079970 0.070552
v 0.464100 0.079970 0.070552
v -0.464099 -0.000000 0.070552
v 0.464100 -0.000000 0.070552
v -0.407692 0.106186 0.006195
v -0.407692 1.191593 0.006195
v 0.407692 1.191593 0.006195
v 0.407692 0.106186 0.006195
v -0.407692 0.106186 -0.003014
v -0.407692 1.191593 -0.003014
v 0.407692 1.191593 -0.003014
v 0.407692 0.106186 -0.003014
v -0.452116 0.059828 -0.046035
v -0.452116 1.237951 -0.046035
v 0.452116 0.059828 -0.046035
v 0.452116 1.237951 -0.046035
v -0.452116 0.059828 0.000000
v -0.452116 1.237951 0.000000
v 0.452116 0.059828 0.000000
v 0.452116 1.237951 0.000000
v -0.400515 0.115739 -0.046035
v -0.400515 1.182040 -0.046035
v 0.400516 1.182040 -0.046035
v 0.400516 0.115739 -0.046035
v -0.400515 0.115739 0.000000
v -0.400515 1.182040 0.000000
v 0.400516 1.182040 0.000000
v 0.400516 0.115739 0.000000
v -0.464099 0.079970 -0.070552
v 0.464100 0.079970 -0.070552
v -0.464099 0.079970 0.000000
v 0.464100 0.079970 0.000000
v -0.464099 -0.000000 0.000000
v -0.464099 -0.000000 -0.070552
v 0.464100 -0.000000 -0.070552
v 0.464100 -0.000000 0.000000
v -0.407692 0.106186 -0.006195
v -0.407692 1.191593 -0.006195
v 0.407692 1.191593 -0.006195
v 0.407692 0.106186 -0.006195
v -0.407692 0.106186 0.003014
v -0.407692 1.191593 0.003014
v 0.407692 1.191593 0.003014
v 0.407692 0.106186 0.003014
vn 1.0000 0.0000 0.0000
vn -0.0000 0.0000 1.0000
vn 0.0000 -1.0000 0.0000
vn 0.0000 1.0000 0.0000
vn -1.0000 0.0000 0.0000
vn -0.0000 0.0000 -1.0000
usemtl White
s off
f 27//1 28//1 4//1 3//1
f 3//2 4//2 7//2 8//2
f 25//3 27//3 3//3 1//3
f 28//4 26//4 2//4 4//4
f 1//5 2//5 26//5 25//5
f 5//4 8//4 36//4 33//4
f 2//2 1//2 5//2 6//2
f 1//2 3//2 8//2 5//2
f 4//2 2//2 6//2 7//2
f 6//1 5//1 33//1 34//1
f 7//3 6//3 34//3 35//3
f 8//5 7//5 35//5 36//5
f 39//4 9//4 10//4 40//4
f 41//3 44//3 12//3 11//3
f 10//2 9//2 11//2 12//2
f 40//1 10//1 12//1 44//1
f 9//5 39//5 41//5 11//5
f 27//1 23//1 24//1 28//1
f 23//6 32//6 31//6 24//6
f 25//3 21//3 23//3 27//3
f 28//4 24//4 22//4 26//4
f 21//5 25//5 26//5 22//5
f 29//4 33//4 36//4 32//4
f 22//6 30//6 29//6 21//6
f 21//6 29//6 32//6 23//6
f 24//6 31//6 30//6 22//6
f 30//1 34//1 33//1 29//1
f 31//3 35//3 34//3 30//3
f 32//5 36//5 35//5 31//5
f 39//4 40//4 38//4 37//4
f 41//3 42//3 43//3 44//3
f 38//6 43//6 42//6 37//6
f 40//1 44//1 43//1 38//1
f 37//5 42//5 41//5 39//5
usemtl Glass
f 16//2 15//2 14//2 13//2
f 20//6 17//6 18//6 19//6
f 13//3 17//3 20//3 16//3
f 14//5 18//5 17//5 13//5
f 15//4 19//4 18//4 14//4
f 16//1 20//1 19//1 15//1
f 48//6 45//6 46//6 47//6
f 52//2 51//2 50//2 49//2
f 45//3 48//3 52//3 49//3
f 46//5 45//5 49//5 50//5
f 47//4 46//4 50//4 51//4
f 48//1 47//1 51//1 52//1
