# Blender v2.79 (sub 0) OBJ File: 'Burger_Bread.blend'
# www.blender.org
mtllib Burger_Bread.mtl
o Burger_Bread_Icosphere.001
v 0.222928 0.136543 0.692887
v -0.558161 0.136441 0.419059
v -0.578996 0.168734 -0.412560
v 0.219591 0.132299 -0.646752
v 0.715582 0.131461 0.014616
v 0.008109 0.339228 0.014863
v 0.002905 -0.027066 -0.754865
v 0.440117 -0.018381 -0.589422
v -0.706164 -0.000341 -0.220190
v -0.434382 -0.001504 -0.591374
v -0.475363 -0.065454 0.662699
v -0.739121 -0.031836 0.249869
v 0.437210 -0.029712 0.614391
v -0.000385 -0.022748 0.755666
v 0.709454 -0.027098 -0.216817
v 0.738307 -0.059088 0.252719
v 0.720460 0.015982 0.247250
v 0.710307 0.017146 -0.216398
v 0.000388 0.024434 0.766037
v 0.477545 0.032221 0.667819
v -0.705773 0.040125 0.240252
v -0.454090 0.040299 0.637960
v -0.433529 0.042740 -0.590955
v -0.714043 0.047485 -0.222500
v 0.440969 0.025863 -0.589003
v 0.003792 0.059553 -0.812488
v 0.536330 0.139864 0.401793
v -0.206703 0.173248 0.657874
v -0.686129 0.202854 0.011904
v -0.198177 0.163635 -0.614322
v 0.538202 0.147159 -0.373193
v 0.127310 0.239097 0.389547
v 0.407292 0.261413 0.015096
v -0.313473 0.248959 0.245208
v -0.312353 0.253325 -0.218686
v 0.134446 0.301508 -0.373509
v 0.207619 0.270543 -0.198259
v 0.199721 0.299396 -0.205762
v 0.186806 0.274512 -0.180393
v 0.188664 0.301505 -0.196270
v 0.165749 0.281651 -0.249500
v 0.177476 0.305298 -0.232986
v 0.144937 0.285621 -0.231634
v 0.166419 0.307407 -0.223494
v 0.305927 0.234747 -0.296393
v 0.299006 0.264788 -0.295508
v 0.301029 0.237641 -0.269269
v 0.296404 0.266326 -0.281097
v 0.243465 0.255228 -0.309856
v 0.265821 0.275670 -0.302661
v 0.238567 0.258122 -0.282732
v 0.263219 0.277207 -0.288250
v -0.138204 0.203787 -0.434159
v -0.153825 0.224294 -0.451089
v -0.161675 0.205094 -0.419477
v -0.166294 0.224989 -0.443289
v -0.172931 0.183498 -0.487867
v -0.172275 0.213515 -0.479623
v -0.196402 0.184805 -0.473186
v -0.184744 0.214209 -0.471823
v -0.422813 0.210275 -0.021876
v -0.421887 0.237743 -0.007884
v -0.396585 0.217416 -0.027279
v -0.407952 0.241537 -0.010754
v -0.410281 0.214031 0.043934
v -0.415229 0.239739 0.027080
v -0.384052 0.221172 0.038531
v -0.401294 0.243533 0.024210
v -0.222561 0.221548 0.352934
v -0.209742 0.235148 0.363646
v -0.207444 0.225342 0.330861
v -0.201710 0.237163 0.351919
v -0.166803 0.219977 0.390139
v -0.180119 0.234313 0.383413
v -0.151686 0.223771 0.368066
v -0.172087 0.236329 0.371685
v 0.345505 0.196137 0.252225
v 0.355806 0.223859 0.243477
v 0.321679 0.207590 0.243906
v 0.343147 0.229944 0.239057
v 0.371041 0.204610 0.190758
v 0.369373 0.228361 0.210821
v 0.347214 0.216063 0.182438
v 0.356714 0.234446 0.206401
v -0.204003 0.262590 -0.135751
v -0.223999 0.284902 -0.128438
v -0.198524 0.265127 -0.108701
v -0.221088 0.286250 -0.114068
v -0.267717 0.247204 -0.121401
v -0.257849 0.276729 -0.120815
v -0.262238 0.249742 -0.094352
v -0.254938 0.278077 -0.106444
v -0.252517 0.257602 0.110554
v -0.252893 0.274251 0.131218
v -0.225351 0.262163 0.113025
v -0.238460 0.276674 0.132531
v -0.256258 0.248647 0.176057
v -0.254881 0.269494 0.166019
v -0.229092 0.253208 0.178528
v -0.240448 0.271917 0.167331
v 0.131761 0.240521 0.283087
v 0.147915 0.266762 0.284369
v 0.125818 0.250920 0.258094
v 0.144757 0.272287 0.271091
v 0.197042 0.240559 0.267580
v 0.182597 0.266782 0.276130
v 0.191099 0.250958 0.242587
v 0.179440 0.272307 0.262852
v 0.280752 0.141064 0.530517
v 0.296699 0.167421 0.531987
v 0.274482 0.151735 0.505720
v 0.293368 0.173090 0.518812
v 0.345878 0.141851 0.514391
v 0.331299 0.167839 0.523418
v 0.339609 0.152522 0.489593
v 0.327968 0.173508 0.510244
v 0.519058 0.154763 0.203934
v 0.536871 0.179425 0.198869
v 0.501981 0.169701 0.188018
v 0.527798 0.187361 0.190412
v 0.564380 0.153862 0.154464
v 0.560949 0.178946 0.172586
v 0.547303 0.168800 0.138548
v 0.551876 0.186882 0.164130
v 0.522142 0.169845 -0.155696
v 0.527560 0.192702 -0.175680
v 0.496264 0.179023 -0.159462
v 0.513811 0.197578 -0.177681
v 0.527008 0.156640 -0.221301
v 0.530145 0.185686 -0.210536
v 0.501130 0.165818 -0.225068
v 0.516397 0.190562 -0.212536
v 0.045429 0.164255 -0.598124
v 0.025621 0.181752 -0.608236
v 0.031580 0.169404 -0.574719
v 0.018263 0.184488 -0.595802
v -0.011759 0.147493 -0.627774
v -0.004762 0.172847 -0.623989
v -0.025610 0.152642 -0.604368
v -0.012121 0.175582 -0.611554
v -0.495566 0.171721 -0.260311
v -0.511665 0.193470 -0.245514
v -0.480581 0.173666 -0.237078
v -0.503704 0.194504 -0.233171
v -0.549480 0.154812 -0.224122
v -0.540308 0.184487 -0.226287
v -0.534495 0.156758 -0.200889
v -0.532347 0.185521 -0.213944
v -0.600565 0.121631 0.306358
v -0.610912 0.136887 0.331084
v -0.582416 0.142570 0.306893
v -0.601270 0.148011 0.331368
v -0.581037 0.103134 0.367829
v -0.600537 0.127060 0.363743
v -0.562887 0.124072 0.368364
v -0.590895 0.138184 0.364027
vn 0.2213 0.9429 0.2490
vn -0.2604 0.9355 0.2390
vn -0.2118 0.9685 -0.1313
vn 0.0236 0.8532 -0.5210
vn 0.3845 0.9126 -0.1389
vn 0.1912 0.9810 -0.0331
vn 0.3530 0.9231 -0.1526
vn 0.3238 0.8462 -0.4231
vn -0.1558 0.9770 -0.1456
vn -0.1953 0.9428 -0.2701
vn -0.1209 0.9600 -0.2525
vn -0.2646 0.9643 0.0084
vn -0.1283 0.9917 0.0090
vn -0.2631 0.9356 0.2353
vn -0.0697 0.9580 0.2782
vn -0.0404 0.9809 0.1904
vn 0.0565 0.9511 0.3037
vn 0.1875 0.9622 0.1975
vn 0.2235 0.9487 0.2236
vn 0.3838 0.9098 0.1579
vn 0.7374 0.5986 -0.3130
vn 0.7618 0.3543 -0.5424
vn 0.4704 0.6617 -0.5838
vn 0.0334 0.8984 -0.4378
vn -0.3791 0.6022 -0.7026
vn -0.3729 0.5870 -0.7186
vn -0.8168 0.5209 -0.2480
vn -0.9889 0.1475 0.0200
vn -0.7629 0.5557 0.3304
vn -0.4348 0.7300 0.5273
vn -0.2464 0.3216 0.9143
vn -0.0181 0.5713 0.8206
vn 0.3794 0.8255 0.4179
vn 0.7169 0.5767 0.3918
vn 0.6953 0.6495 0.3078
vn 0.4291 0.4760 -0.7677
vn -0.7945 -0.0620 -0.6041
vn -0.8089 0.2896 0.5117
vn 0.1920 0.2399 0.9516
vn 0.9998 -0.0019 -0.0219
vn 0.3675 -0.3766 -0.8504
vn -0.7994 -0.0732 -0.5963
vn 0.8103 -0.0101 -0.5860
vn -0.3779 -0.3666 -0.8502
vn -0.7867 0.3413 0.5144
vn 0.2117 -0.5515 0.8068
vn -0.9783 0.2063 -0.0173
vn -0.2330 0.1242 0.9645
vn 0.9896 0.1394 -0.0364
vn 0.7690 -0.3200 0.5534
vn -0.0105 -0.9997 -0.0202
vn 0.6473 0.3529 0.6756
vn -0.6585 0.4147 0.6280
vn -0.4196 0.6503 -0.6332
vn 0.7787 0.0505 -0.6253
vn 0.2161 0.9757 0.0350
vn 0.9643 0.2177 0.1509
vn -0.0785 0.3692 0.9260
vn -0.6273 0.7543 -0.1937
vn 0.2359 0.0829 -0.9682
vn 0.3197 0.9465 -0.0433
vn 0.3837 0.7439 0.5471
vn -0.8467 0.3158 0.4282
vn -0.5054 0.2388 -0.8292
vn 0.8065 0.1401 -0.5744
vn -0.1224 0.9520 -0.2805
vn -0.2948 0.4416 -0.8474
vn 0.8324 0.5212 -0.1883
vn 0.0218 0.5511 0.8342
vn -0.9797 -0.0639 0.1902
vn -0.2636 0.9646 -0.0049
vn -0.5856 0.7644 -0.2697
vn 0.3746 0.7612 -0.5293
vn 0.5204 0.7076 0.4780
vn -0.5530 -0.1273 0.8234
vn -0.0588 0.9898 0.1299
vn -0.1548 0.3492 0.9242
vn -0.7274 0.6526 -0.2122
vn 0.5024 0.5783 -0.6428
vn 0.9098 -0.2287 0.3464
vn 0.3407 0.9018 0.2658
vn 0.6944 0.6896 -0.2053
vn 0.1204 0.3633 0.9239
vn -0.9370 0.3100 0.1607
vn -0.2415 0.0999 -0.9652
vn -0.2434 0.9690 -0.0416
vn -0.0733 0.7760 -0.6265
vn 0.8136 0.5681 0.1241
vn -0.1539 0.4369 0.8862
vn -0.9978 0.0412 -0.0514
vn -0.1752 0.9768 0.1235
vn -0.7944 0.4702 0.3845
vn -0.1811 0.6232 -0.7608
vn 0.8750 0.4841 -0.0066
vn 0.2272 -0.1865 0.9558
vn 0.0862 0.9269 0.3652
vn -0.7945 0.4585 0.3982
vn -0.1936 0.6315 -0.7508
vn 0.8708 0.4915 -0.0087
vn 0.2379 -0.1969 0.9511
vn 0.0820 0.9228 0.3764
vn -0.3762 0.4393 0.8158
vn -0.4756 0.7562 -0.4495
vn 0.7876 0.4280 -0.4433
vn 0.6835 -0.3637 0.6328
vn 0.4051 0.8422 0.3558
vn 0.1155 0.6382 0.7612
vn -0.7956 0.5798 -0.1757
vn 0.2448 0.3136 -0.9175
vn 0.9843 -0.1441 0.1020
vn 0.3505 0.9228 -0.1597
vn 0.5973 0.7812 0.1816
vn -0.5086 0.5152 0.6898
vn -0.7913 0.2981 -0.5338
vn 0.4589 0.0060 -0.8885
vn -0.1301 0.9494 -0.2858
vn 0.5657 0.7072 -0.4241
vn 0.4476 0.3417 0.8264
vn -0.8154 0.2886 0.5018
vn -0.5790 0.1201 -0.8064
vn -0.2491 0.9652 0.0798
vn -0.6049 0.5393 -0.5859
vn 0.4296 0.8933 0.1323
vn -0.1156 0.0749 0.9905
vn -0.7787 -0.6245 0.0595
vn -0.6974 0.5943 0.4004
usemtl LightYellow
s off
f 1//1 27//1 32//1
f 2//2 28//2 34//2
f 3//3 29//3 35//3
f 4//4 30//4 36//4
f 5//5 31//5 33//5
f 33//6 36//6 6//6
f 33//7 31//7 36//7
f 31//8 4//8 36//8
f 36//9 35//9 6//9
f 36//10 30//10 35//10
f 30//11 3//11 35//11
f 35//12 34//12 6//12
f 35//13 29//13 34//13
f 29//14 2//14 34//14
f 34//15 32//15 6//15
f 34//16 28//16 32//16
f 28//17 1//17 32//17
f 32//18 33//18 6//18
f 32//19 27//19 33//19
f 27//20 5//20 33//20
f 18//21 31//21 5//21
f 18//22 25//22 31//22
f 25//23 4//23 31//23
f 26//24 30//24 4//24
f 26//25 23//25 30//25
f 23//26 3//26 30//26
f 24//27 29//27 3//27
f 24//28 21//28 29//28
f 21//29 2//29 29//29
f 22//30 28//30 2//30
f 22//31 19//31 28//31
f 19//32 1//32 28//32
f 20//33 27//33 1//33
f 20//34 17//34 27//34
f 17//35 5//35 27//35
f 25//36 26//36 4//36
f 23//37 24//37 3//37
f 21//38 22//38 2//38
f 19//39 20//39 1//39
f 17//40 18//40 5//40
f 26//41 25//41 8//41 7//41
f 24//42 23//42 10//42 9//42
f 25//43 18//43 15//43 8//43
f 23//44 26//44 7//44 10//44
f 22//45 21//45 12//45 11//45
f 20//46 19//46 14//46 13//46
f 21//47 24//47 9//47 12//47
f 19//48 22//48 11//48 14//48
f 18//49 17//49 16//49 15//49
f 17//50 20//50 13//50 16//50
f 16//51 13//51 14//51 11//51 12//51 9//51 10//51 7//51 8//51 15//51
usemtl White
f 37//52 38//52 40//52 39//52
f 39//53 40//53 44//53 43//53
f 43//54 44//54 42//54 41//54
f 41//55 42//55 38//55 37//55
f 44//56 40//56 38//56 42//56
f 45//57 46//57 48//57 47//57
f 47//58 48//58 52//58 51//58
f 51//59 52//59 50//59 49//59
f 49//60 50//60 46//60 45//60
f 52//61 48//61 46//61 50//61
f 53//62 54//62 56//62 55//62
f 55//63 56//63 60//63 59//63
f 59//64 60//64 58//64 57//64
f 57//65 58//65 54//65 53//65
f 60//66 56//66 54//66 58//66
f 61//67 62//67 64//67 63//67
f 63//68 64//68 68//68 67//68
f 67//69 68//69 66//69 65//69
f 65//70 66//70 62//70 61//70
f 68//71 64//71 62//71 66//71
f 69//72 70//72 72//72 71//72
f 71//73 72//73 76//73 75//73
f 75//74 76//74 74//74 73//74
f 73//75 74//75 70//75 69//75
f 76//76 72//76 70//76 74//76
f 77//77 78//77 80//77 79//77
f 79//78 80//78 84//78 83//78
f 83//79 84//79 82//79 81//79
f 81//80 82//80 78//80 77//80
f 84//81 80//81 78//81 82//81
f 85//82 86//82 88//82 87//82
f 87//83 88//83 92//83 91//83
f 91//84 92//84 90//84 89//84
f 89//85 90//85 86//85 85//85
f 92//86 88//86 86//86 90//86
f 93//87 94//87 96//87 95//87
f 95//88 96//88 100//88 99//88
f 99//89 100//89 98//89 97//89
f 97//90 98//90 94//90 93//90
f 100//91 96//91 94//91 98//91
f 101//92 102//92 104//92 103//92
f 103//93 104//93 108//93 107//93
f 107//94 108//94 106//94 105//94
f 105//95 106//95 102//95 101//95
f 108//96 104//96 102//96 106//96
f 109//97 110//97 112//97 111//97
f 111//98 112//98 116//98 115//98
f 115//99 116//99 114//99 113//99
f 113//100 114//100 110//100 109//100
f 116//101 112//101 110//101 114//101
f 117//102 118//102 120//102 119//102
f 119//103 120//103 124//103 123//103
f 123//104 124//104 122//104 121//104
f 121//105 122//105 118//105 117//105
f 124//106 120//106 118//106 122//106
f 125//107 126//107 128//107 127//107
f 127//108 128//108 132//108 131//108
f 131//109 132//109 130//109 129//109
f 129//110 130//110 126//110 125//110
f 132//111 128//111 126//111 130//111
f 133//112 134//112 136//112 135//112
f 135//113 136//113 140//113 139//113
f 139//114 140//114 138//114 137//114
f 137//115 138//115 134//115 133//115
f 140//116 136//116 134//116 138//116
f 141//117 142//117 144//117 143//117
f 143//118 144//118 148//118 147//118
f 147//119 148//119 146//119 145//119
f 145//120 146//120 142//120 141//120
f 148//121 144//121 142//121 146//121
f 149//122 150//122 152//122 151//122
f 151//123 152//123 156//123 155//123
f 155//124 156//124 154//124 153//124
f 153//125 154//125 150//125 149//125
f 156//126 152//126 150//126 154//126
