# Blender v2.79 (sub 0) OBJ File: 'ChocolateBar.blend'
# www.blender.org
mtllib ChocolateBar.mtl
o ChocolateBar_Cube.084
v -0.287605 0.066773 -0.402486
v -0.141618 0.066773 -0.402486
v -0.141618 0.066773 0.402486
v -0.287605 0.066773 0.402486
v -0.141618 0.066773 -0.241492
v -0.141618 0.066773 -0.080497
v -0.141618 0.066773 0.080497
v -0.141618 0.066773 0.241492
v -0.287605 0.066773 -0.241492
v -0.287605 0.066773 -0.080497
v -0.287605 0.066773 0.080497
v -0.287605 0.066773 0.241492
v -0.017137 0.075782 0.260594
v -0.124860 0.075782 0.260594
v -0.124860 0.075782 0.383385
v -0.017137 0.075782 0.383385
v -0.158376 0.075782 0.260594
v -0.266099 0.075782 0.260594
v -0.266099 0.075782 0.383385
v -0.158376 0.075782 0.383385
v -0.158376 0.075782 -0.383385
v -0.266099 0.075782 -0.383385
v -0.266099 0.075782 -0.260594
v -0.158376 0.075782 -0.260594
v -0.158376 0.075782 -0.222390
v -0.266099 0.075782 -0.222390
v -0.266099 0.075782 -0.099599
v -0.158376 0.075782 -0.099599
v -0.158376 0.075782 -0.061395
v -0.266099 0.075782 -0.061395
v -0.266099 0.075782 0.061395
v -0.158376 0.075782 0.061395
v -0.158376 0.075782 0.099599
v -0.266099 0.075782 0.099599
v -0.266099 0.075782 0.222390
v -0.158376 0.075782 0.222390
v -0.017137 0.075782 -0.383385
v -0.124860 0.075782 -0.383385
v -0.124860 0.075782 -0.260594
v -0.017137 0.075782 -0.260594
v -0.017137 0.075782 -0.222390
v -0.124860 0.075782 -0.222390
v -0.124860 0.075782 -0.099599
v -0.017137 0.075782 -0.099599
v -0.017137 0.075782 -0.061395
v -0.124860 0.075782 -0.061395
v -0.124860 0.075782 0.061395
v -0.017137 0.075782 0.061395
v -0.017137 0.075782 0.099599
v -0.124860 0.075782 0.099599
v -0.124860 0.075782 0.222390
v -0.017137 0.075782 0.222390
v -0.113218 0.093991 0.275432
v -0.028780 0.093991 0.275432
v -0.113218 0.093991 0.368546
v -0.028780 0.093991 0.368546
v -0.254456 0.093991 0.275432
v -0.170018 0.093991 0.275432
v -0.254456 0.093991 0.368546
v -0.170018 0.093991 0.368546
v -0.254456 0.093991 -0.368546
v -0.170018 0.093991 -0.368546
v -0.254456 0.093991 -0.275432
v -0.170018 0.093991 -0.275432
v -0.254456 0.093991 -0.207551
v -0.170018 0.093991 -0.207551
v -0.254456 0.093991 -0.114438
v -0.170018 0.093991 -0.114438
v -0.254456 0.093991 -0.046557
v -0.170018 0.093991 -0.046557
v -0.254456 0.093991 0.046557
v -0.170018 0.093991 0.046557
v -0.254456 0.093991 0.114438
v -0.170018 0.093991 0.114438
v -0.254456 0.093991 0.207551
v -0.170018 0.093991 0.207551
v -0.113218 0.093991 -0.368546
v -0.028780 0.093991 -0.368546
v -0.113218 0.093991 -0.275432
v -0.028780 0.093991 -0.275432
v -0.113218 0.093991 -0.207551
v -0.028780 0.093991 -0.207551
v -0.113218 0.093991 -0.114438
v -0.028780 0.093991 -0.114438
v -0.113218 0.093991 -0.046557
v -0.028780 0.093991 -0.046557
v -0.113218 0.093991 0.046557
v -0.028780 0.093991 0.046557
v -0.113218 0.093991 0.114438
v -0.028780 0.093991 0.114438
v -0.113218 0.093991 0.207551
v -0.028780 0.093991 0.207551
v -0.287605 0.060895 -0.414451
v -0.287605 0.060895 -0.437101
v -0.287605 0.060895 0.414451
v -0.141618 0.060895 -0.414451
v -0.141618 0.060895 0.414451
v -0.287605 0.060895 0.437101
v -0.141618 0.060895 -0.437101
v -0.141618 0.060895 0.437101
v -0.141618 0.025679 0.437101
v -0.141618 0.025679 -0.437101
v -0.287605 0.025679 0.437101
v -0.287605 0.025679 -0.437101
v 0.287605 0.066773 -0.402486
v 0.141618 0.066773 -0.402486
v 0.000000 0.066773 -0.402486
v 0.000000 0.066773 0.402486
v 0.141618 0.066773 0.402486
v 0.287605 0.066773 0.402486
v 0.000000 0.066773 -0.241492
v 0.000000 0.066773 -0.080497
v 0.000000 0.066773 0.080497
v 0.000000 0.066773 0.241492
v 0.141618 0.066773 -0.241492
v 0.141618 0.066773 -0.080497
v 0.141618 0.066773 0.080497
v 0.141618 0.066773 0.241492
v 0.287605 0.066773 -0.241492
v 0.287605 0.066773 -0.080497
v 0.287605 0.066773 0.080497
v 0.287605 0.066773 0.241492
v 0.017137 0.075782 0.260594
v 0.124860 0.075782 0.260594
v 0.124860 0.075782 0.383385
v 0.017137 0.075782 0.383385
v 0.158376 0.075782 0.260594
v 0.266099 0.075782 0.260594
v 0.266099 0.075782 0.383385
v 0.158376 0.075782 0.383385
v 0.158376 0.075782 -0.383385
v 0.266099 0.075782 -0.383385
v 0.266099 0.075782 -0.260594
v 0.158376 0.075782 -0.260594
v 0.158376 0.075782 -0.222390
v 0.266099 0.075782 -0.222390
v 0.266099 0.075782 -0.099599
v 0.158376 0.075782 -0.099599
v 0.158376 0.075782 -0.061395
v 0.266099 0.075782 -0.061395
v 0.266099 0.075782 0.061395
v 0.158376 0.075782 0.061395
v 0.158376 0.075782 0.099599
v 0.266099 0.075782 0.099599
v 0.266099 0.075782 0.222390
v 0.158376 0.075782 0.222390
v 0.017137 0.075782 -0.383385
v 0.124860 0.075782 -0.383385
v 0.124860 0.075782 -0.260594
v 0.017137 0.075782 -0.260594
v 0.017137 0.075782 -0.222390
v 0.124860 0.075782 -0.222390
v 0.124860 0.075782 -0.099599
v 0.017137 0.075782 -0.099599
v 0.017137 0.075782 -0.061395
v 0.124860 0.075782 -0.061395
v 0.124860 0.075782 0.061395
v 0.017137 0.075782 0.061395
v 0.017137 0.075782 0.099599
v 0.124860 0.075782 0.099599
v 0.124860 0.075782 0.222390
v 0.017137 0.075782 0.222390
v 0.113218 0.093991 0.275432
v 0.028780 0.093991 0.275432
v 0.113218 0.093991 0.368546
v 0.028780 0.093991 0.368546
v 0.254456 0.093991 0.275432
v 0.170018 0.093991 0.275432
v 0.254456 0.093991 0.368546
v 0.170018 0.093991 0.368546
v 0.254456 0.093991 -0.368546
v 0.170018 0.093991 -0.368546
v 0.254456 0.093991 -0.275432
v 0.170018 0.093991 -0.275432
v 0.254456 0.093991 -0.207551
v 0.170018 0.093991 -0.207551
v 0.254456 0.093991 -0.114438
v 0.170018 0.093991 -0.114438
v 0.254456 0.093991 -0.046557
v 0.170018 0.093991 -0.046557
v 0.254456 0.093991 0.046557
v 0.170018 0.093991 0.046557
v 0.254456 0.093991 0.114438
v 0.170018 0.093991 0.114438
v 0.254456 0.093991 0.207551
v 0.170018 0.093991 0.207551
v 0.113218 0.093991 -0.368546
v 0.028780 0.093991 -0.368546
v 0.113218 0.093991 -0.275432
v 0.028780 0.093991 -0.275432
v 0.113218 0.093991 -0.207551
v 0.028780 0.093991 -0.207551
v 0.113218 0.093991 -0.114438
v 0.028780 0.093991 -0.114438
v 0.113218 0.093991 -0.046557
v 0.028780 0.093991 -0.046557
v 0.113218 0.093991 0.046557
v 0.028780 0.093991 0.046557
v 0.113218 0.093991 0.114438
v 0.028780 0.093991 0.114438
v 0.113218 0.093991 0.207551
v 0.028780 0.093991 0.207551
v 0.287605 0.060895 -0.414451
v 0.287605 0.060895 -0.437101
v 0.000000 0.060895 -0.414451
v 0.287605 0.060895 0.414451
v 0.141618 0.060895 -0.414451
v 0.000000 0.060895 0.414451
v 0.141618 0.060895 0.414451
v 0.287605 0.060895 0.437101
v 0.000000 0.060895 -0.437101
v 0.141618 0.060895 -0.437101
v 0.000000 0.060895 0.437101
v 0.141618 0.060895 0.437101
v 0.141618 0.025679 0.437101
v 0.000000 0.025679 0.437101
v 0.141618 0.025679 -0.437101
v 0.000000 0.025679 -0.437101
v 0.287605 0.025679 0.437101
v 0.287605 0.025679 -0.437101
vn 0.0000 0.8976 -0.4409
vn 0.8425 0.5387 0.0000
vn 0.0000 0.9044 -0.4266
vn -0.4735 0.8808 0.0000
vn 0.0000 0.9044 0.4266
vn 0.4653 0.8851 0.0000
vn -0.3864 0.9223 0.0000
vn 0.4735 0.8808 0.0000
vn 0.0000 0.6317 0.7752
vn -0.8425 0.5387 0.0000
vn 0.0000 0.6317 -0.7752
vn 0.0000 1.0000 0.0000
vn 0.0000 0.8976 0.4409
vn 0.0000 0.0000 -1.0000
vn 0.0000 0.0000 1.0000
vn -1.0000 -0.0000 0.0000
vn 0.0000 -1.0000 -0.0000
vn -0.4653 0.8851 0.0000
vn 0.3864 0.9223 0.0000
vn 1.0000 -0.0000 0.0000
usemtl DarkBrown
s off
f 1//1 2//1 96//1 93//1
f 24//2 21//2 62//2 64//2
f 8//3 14//3 13//3 114//3
f 3//4 15//4 14//4 8//4
f 108//5 16//5 15//5 3//5
f 114//6 13//6 16//6 108//6
f 12//3 18//3 17//3 8//3
f 4//7 19//7 18//7 12//7
f 3//5 20//5 19//5 4//5
f 8//8 17//8 20//8 3//8
f 1//3 22//3 21//3 2//3
f 9//7 23//7 22//7 1//7
f 5//5 24//5 23//5 9//5
f 2//8 21//8 24//8 5//8
f 9//3 26//3 25//3 5//3
f 10//7 27//7 26//7 9//7
f 6//5 28//5 27//5 10//5
f 5//8 25//8 28//8 6//8
f 23//9 24//9 64//9 63//9
f 10//3 30//3 29//3 6//3
f 11//7 31//7 30//7 10//7
f 7//5 32//5 31//5 11//5
f 6//8 29//8 32//8 7//8
f 11//3 34//3 33//3 7//3
f 12//7 35//7 34//7 11//7
f 8//5 36//5 35//5 12//5
f 7//8 33//8 36//8 8//8
f 2//3 38//3 37//3 107//3
f 5//4 39//4 38//4 2//4
f 111//5 40//5 39//5 5//5
f 107//6 37//6 40//6 111//6
f 22//10 23//10 63//10 61//10
f 5//3 42//3 41//3 111//3
f 6//4 43//4 42//4 5//4
f 112//5 44//5 43//5 6//5
f 111//6 41//6 44//6 112//6
f 36//2 33//2 74//2 76//2
f 6//3 46//3 45//3 112//3
f 7//4 47//4 46//4 6//4
f 113//5 48//5 47//5 7//5
f 112//6 45//6 48//6 113//6
f 7//3 50//3 49//3 113//3
f 8//4 51//4 50//4 7//4
f 114//5 52//5 51//5 8//5
f 113//6 49//6 52//6 114//6
f 21//11 22//11 61//11 62//11
f 35//9 36//9 76//9 75//9
f 34//10 35//10 75//10 73//10
f 48//2 45//2 86//2 88//2
f 33//11 34//11 73//11 74//11
f 47//9 48//9 88//9 87//9
f 54//12 53//12 55//12 56//12
f 58//12 57//12 59//12 60//12
f 62//12 61//12 63//12 64//12
f 66//12 65//12 67//12 68//12
f 70//12 69//12 71//12 72//12
f 74//12 73//12 75//12 76//12
f 78//12 77//12 79//12 80//12
f 82//12 81//12 83//12 84//12
f 86//12 85//12 87//12 88//12
f 90//12 89//12 91//12 92//12
f 49//11 50//11 89//11 90//11
f 50//10 51//10 91//10 89//10
f 51//9 52//9 92//9 91//9
f 37//11 38//11 77//11 78//11
f 52//2 49//2 90//2 92//2
f 38//10 39//10 79//10 77//10
f 39//9 40//9 80//9 79//9
f 25//11 26//11 65//11 66//11
f 40//2 37//2 78//2 80//2
f 26//10 27//10 67//10 65//10
f 27//9 28//9 68//9 67//9
f 13//11 14//11 53//11 54//11
f 28//2 25//2 66//2 68//2
f 14//10 15//10 55//10 53//10
f 15//9 16//9 56//9 55//9
f 16//2 13//2 54//2 56//2
f 41//11 42//11 81//11 82//11
f 42//10 43//10 83//10 81//10
f 43//9 44//9 84//9 83//9
f 29//11 30//11 69//11 70//11
f 44//2 41//2 82//2 84//2
f 30//10 31//10 71//10 69//10
f 31//9 32//9 72//9 71//9
f 17//11 18//11 57//11 58//11
f 32//2 29//2 70//2 72//2
f 18//10 19//10 59//10 57//10
f 19//9 20//9 60//9 59//9
f 20//2 17//2 58//2 60//2
f 45//11 46//11 85//11 86//11
f 46//10 47//10 87//10 85//10
f 96//12 205//12 211//12 99//12
f 93//12 96//12 99//12 94//12
f 208//12 97//12 100//12 213//12
f 97//12 95//12 98//12 100//12
f 2//1 107//1 205//1 96//1
f 108//13 3//13 97//13 208//13
f 3//13 4//13 95//13 97//13
f 99//14 211//14 218//14 102//14
f 94//14 99//14 102//14 104//14
f 100//15 98//15 103//15 101//15
f 213//15 100//15 101//15 216//15
f 1//16 93//16 94//16 104//16 103//16 98//16 95//16 4//16 12//16 11//16 10//16 9//16
f 101//17 103//17 104//17 102//17 218//17 216//17
f 105//1 203//1 207//1 106//1
f 134//10 174//10 172//10 131//10
f 118//3 114//3 123//3 124//3
f 109//8 118//8 124//8 125//8
f 108//5 109//5 125//5 126//5
f 114//18 108//18 126//18 123//18
f 122//3 118//3 127//3 128//3
f 110//19 122//19 128//19 129//19
f 109//5 110//5 129//5 130//5
f 118//4 109//4 130//4 127//4
f 105//3 106//3 131//3 132//3
f 119//19 105//19 132//19 133//19
f 115//5 119//5 133//5 134//5
f 106//4 115//4 134//4 131//4
f 119//3 115//3 135//3 136//3
f 120//19 119//19 136//19 137//19
f 116//5 120//5 137//5 138//5
f 115//4 116//4 138//4 135//4
f 133//9 173//9 174//9 134//9
f 120//3 116//3 139//3 140//3
f 121//19 120//19 140//19 141//19
f 117//5 121//5 141//5 142//5
f 116//4 117//4 142//4 139//4
f 121//3 117//3 143//3 144//3
f 122//19 121//19 144//19 145//19
f 118//5 122//5 145//5 146//5
f 117//4 118//4 146//4 143//4
f 106//3 107//3 147//3 148//3
f 115//8 106//8 148//8 149//8
f 111//5 115//5 149//5 150//5
f 107//18 111//18 150//18 147//18
f 132//2 171//2 173//2 133//2
f 115//3 111//3 151//3 152//3
f 116//8 115//8 152//8 153//8
f 112//5 116//5 153//5 154//5
f 111//18 112//18 154//18 151//18
f 146//10 186//10 184//10 143//10
f 116//3 112//3 155//3 156//3
f 117//8 116//8 156//8 157//8
f 113//5 117//5 157//5 158//5
f 112//18 113//18 158//18 155//18
f 117//3 113//3 159//3 160//3
f 118//8 117//8 160//8 161//8
f 114//5 118//5 161//5 162//5
f 113//18 114//18 162//18 159//18
f 131//11 172//11 171//11 132//11
f 145//9 185//9 186//9 146//9
f 144//2 183//2 185//2 145//2
f 158//10 198//10 196//10 155//10
f 143//11 184//11 183//11 144//11
f 157//9 197//9 198//9 158//9
f 164//12 166//12 165//12 163//12
f 168//12 170//12 169//12 167//12
f 172//12 174//12 173//12 171//12
f 176//12 178//12 177//12 175//12
f 180//12 182//12 181//12 179//12
f 184//12 186//12 185//12 183//12
f 188//12 190//12 189//12 187//12
f 192//12 194//12 193//12 191//12
f 196//12 198//12 197//12 195//12
f 200//12 202//12 201//12 199//12
f 159//11 200//11 199//11 160//11
f 160//2 199//2 201//2 161//2
f 161//9 201//9 202//9 162//9
f 147//11 188//11 187//11 148//11
f 162//10 202//10 200//10 159//10
f 148//2 187//2 189//2 149//2
f 149//9 189//9 190//9 150//9
f 135//11 176//11 175//11 136//11
f 150//10 190//10 188//10 147//10
f 136//2 175//2 177//2 137//2
f 137//9 177//9 178//9 138//9
f 123//11 164//11 163//11 124//11
f 138//10 178//10 176//10 135//10
f 124//2 163//2 165//2 125//2
f 125//9 165//9 166//9 126//9
f 126//10 166//10 164//10 123//10
f 151//11 192//11 191//11 152//11
f 152//2 191//2 193//2 153//2
f 153//9 193//9 194//9 154//9
f 139//11 180//11 179//11 140//11
f 154//10 194//10 192//10 151//10
f 140//2 179//2 181//2 141//2
f 141//9 181//9 182//9 142//9
f 127//11 168//11 167//11 128//11
f 142//10 182//10 180//10 139//10
f 128//2 167//2 169//2 129//2
f 129//9 169//9 170//9 130//9
f 130//10 170//10 168//10 127//10
f 155//11 196//11 195//11 156//11
f 156//2 195//2 197//2 157//2
f 207//12 212//12 211//12 205//12
f 203//12 204//12 212//12 207//12
f 208//12 213//12 214//12 209//12
f 209//12 214//12 210//12 206//12
f 106//1 207//1 205//1 107//1
f 108//13 208//13 209//13 109//13
f 109//13 209//13 206//13 110//13
f 212//14 217//14 218//14 211//14
f 204//14 220//14 217//14 212//14
f 214//15 215//15 219//15 210//15
f 213//15 216//15 215//15 214//15
f 105//20 119//20 120//20 121//20 122//20 110//20 206//20 210//20 219//20 220//20 204//20 203//20
f 215//17 216//17 218//17 217//17 220//17 219//17
