# Blender v2.79 (sub 0) OBJ File: 'Chopsticks.blend'
# www.blender.org
mtllib Chopsticks.mtl
o Chopsticks_Cylinder.027
v 0.714957 -0.007536 -0.008817
v 0.714957 -0.026289 -0.023772
v 0.714957 -0.026289 -0.047759
v 0.714957 -0.007536 -0.062714
v 0.714957 0.015849 -0.057377
v 0.714957 0.026257 -0.035766
v 0.714957 0.015849 -0.014154
v 0.814906 0.014172 -0.035766
v 0.803627 0.026586 -0.035766
v 0.814906 0.008314 -0.047928
v 0.803627 0.016055 -0.057634
v 0.814906 -0.004847 -0.050932
v 0.803627 -0.007609 -0.063035
v 0.814906 -0.015401 -0.042515
v 0.803627 -0.026586 -0.047902
v 0.814906 -0.015401 -0.029016
v 0.803627 -0.026586 -0.023629
v 0.814906 -0.004847 -0.020599
v 0.803627 -0.007609 -0.008496
v 0.814906 0.008314 -0.023603
v 0.803627 0.016055 -0.013897
v -0.814906 0.006431 -0.035766
v -0.803674 0.019002 -0.035766
v -0.803674 0.011326 -0.051704
v -0.814906 0.003488 -0.041876
v -0.803674 -0.005921 -0.055641
v -0.814906 -0.003124 -0.043386
v -0.803674 -0.019753 -0.044611
v -0.814906 -0.008427 -0.039157
v -0.803674 -0.019753 -0.026920
v -0.814906 -0.008427 -0.032374
v -0.803674 -0.005921 -0.015890
v -0.814906 -0.003124 -0.028146
v -0.803674 0.011326 -0.019827
v -0.814906 0.003488 -0.029655
v 0.528903 0.015419 -0.014694
v 0.528903 0.025566 -0.035766
v 0.528903 0.015419 -0.056837
v 0.528903 -0.007382 -0.062041
v 0.528903 -0.025667 -0.047459
v 0.528903 -0.025667 -0.024072
v 0.528903 -0.007382 -0.009490
v 0.550080 0.015468 -0.014633
v 0.550080 0.025645 -0.035766
v 0.550080 0.015468 -0.056898
v 0.550080 -0.007400 -0.062117
v 0.550080 -0.025738 -0.047493
v 0.550080 -0.025738 -0.024038
v 0.550080 -0.007400 -0.009414
v 0.695293 0.015804 -0.014212
v 0.695293 0.026184 -0.035766
v 0.695293 0.015804 -0.057320
v 0.695293 -0.007520 -0.062643
v 0.695293 -0.026223 -0.047727
v 0.695293 -0.026223 -0.023804
v 0.695293 -0.007520 -0.008888
v 0.605291 0.025850 -0.035766
v 0.605291 0.015595 -0.057058
v 0.605291 -0.007445 -0.062317
v 0.605291 -0.025922 -0.047582
v 0.605291 -0.025922 -0.023949
v 0.605291 -0.007445 -0.009214
v 0.605291 0.015595 -0.014473
v 0.626648 0.015645 -0.014411
v 0.626648 0.025929 -0.035766
v 0.626648 0.015645 -0.057120
v 0.626648 -0.007463 -0.062395
v 0.626648 -0.025994 -0.047617
v 0.626648 -0.025994 -0.023915
v 0.626648 -0.007463 -0.009137
v 0.549596 0.020547 -0.035766
v 0.532413 0.020483 -0.035766
v 0.549596 0.012289 -0.052912
v 0.532413 0.012249 -0.052863
v 0.549596 -0.006265 -0.057147
v 0.532413 -0.006251 -0.057085
v 0.549596 -0.021145 -0.045281
v 0.532413 -0.021087 -0.045254
v 0.549596 -0.021145 -0.026250
v 0.532413 -0.021087 -0.026277
v 0.549596 -0.006265 -0.014384
v 0.532413 -0.006251 -0.014446
v 0.532413 0.012249 -0.018669
v 0.549596 0.012289 -0.018619
v 0.623963 0.019060 -0.035766
v 0.607976 0.019001 -0.035766
v 0.623963 0.011363 -0.051750
v 0.607976 0.011326 -0.051704
v 0.623963 -0.005935 -0.055698
v 0.607976 -0.005921 -0.055641
v 0.623963 -0.019806 -0.044637
v 0.607976 -0.019752 -0.044611
v 0.623963 -0.019806 -0.026895
v 0.607976 -0.019752 -0.026920
v 0.623963 -0.005935 -0.015833
v 0.607976 -0.005921 -0.015891
v 0.607976 0.011326 -0.019827
v 0.623963 0.011363 -0.019781
v 0.713114 0.021074 -0.035766
v 0.713114 0.012618 -0.053325
v 0.713114 -0.006383 -0.013870
v 0.713114 0.012618 -0.018206
v 0.713114 -0.006383 -0.057662
v 0.713114 -0.021620 -0.045510
v 0.713114 -0.021620 -0.026021
v 0.697136 0.012581 -0.018253
v 0.697136 0.021015 -0.035766
v 0.697136 0.012581 -0.053278
v 0.697136 -0.006369 -0.057604
v 0.697136 -0.021567 -0.045484
v 0.697136 -0.021567 -0.026047
v 0.697136 -0.006369 -0.013927
v 0.714957 -0.007536 0.062714
v 0.714957 -0.026289 0.047759
v 0.714957 -0.026289 0.023772
v 0.714957 -0.007536 0.008817
v 0.714957 0.015849 0.014154
v 0.714957 0.026257 0.035766
v 0.714957 0.015849 0.057377
v 0.814906 0.014172 0.035766
v 0.803628 0.026586 0.035766
v 0.814906 0.008314 0.023603
v 0.803628 0.016055 0.013897
v 0.814906 -0.004847 0.020599
v 0.803628 -0.007609 0.008496
v 0.814906 -0.015401 0.029016
v 0.803628 -0.026586 0.023629
v 0.814906 -0.015401 0.042515
v 0.803628 -0.026586 0.047902
v 0.814906 -0.004847 0.050932
v 0.803628 -0.007609 0.063035
v 0.814906 0.008314 0.047928
v 0.803628 0.016055 0.057634
v -0.814906 0.006431 0.035766
v -0.803674 0.019002 0.035766
v -0.803674 0.011326 0.019827
v -0.814906 0.003488 0.029655
v -0.803674 -0.005921 0.015890
v -0.814906 -0.003124 0.028146
v -0.803674 -0.019753 0.026920
v -0.814906 -0.008427 0.032374
v -0.803674 -0.019753 0.044611
v -0.814906 -0.008427 0.039157
v -0.803674 -0.005921 0.055641
v -0.814906 -0.003124 0.043386
v -0.803674 0.011326 0.051704
v -0.814906 0.003488 0.041876
v 0.528903 0.015419 0.056837
v 0.528903 0.025566 0.035766
v 0.528903 0.015419 0.014694
v 0.528903 -0.007382 0.009490
v 0.528903 -0.025667 0.024072
v 0.528903 -0.025667 0.047459
v 0.528903 -0.007382 0.062041
v 0.550080 0.015468 0.056898
v 0.550080 0.025645 0.035766
v 0.550080 0.015468 0.014633
v 0.550080 -0.007400 0.009414
v 0.550080 -0.025738 0.024038
v 0.550080 -0.025738 0.047493
v 0.550080 -0.007400 0.062117
v 0.695293 0.015804 0.057320
v 0.695293 0.026184 0.035766
v 0.695293 0.015804 0.014212
v 0.695293 -0.007520 0.008888
v 0.695293 -0.026223 0.023804
v 0.695293 -0.026223 0.047727
v 0.695293 -0.007520 0.062643
v 0.605291 0.025850 0.035766
v 0.605291 0.015595 0.014473
v 0.605291 -0.007445 0.009214
v 0.605291 -0.025922 0.023949
v 0.605291 -0.025922 0.047582
v 0.605291 -0.007445 0.062317
v 0.605291 0.015595 0.057058
v 0.626648 0.015645 0.057120
v 0.626648 0.025929 0.035766
v 0.626648 0.015645 0.014411
v 0.626648 -0.007463 0.009137
v 0.626648 -0.025994 0.023915
v 0.626648 -0.025994 0.047617
v 0.626648 -0.007463 0.062395
v 0.549596 0.020547 0.035766
v 0.532413 0.020483 0.035766
v 0.549596 0.012289 0.018619
v 0.532413 0.012249 0.018669
v 0.549596 -0.006265 0.014384
v 0.532413 -0.006251 0.014446
v 0.549596 -0.021145 0.026250
v 0.532413 -0.021087 0.026277
v 0.549596 -0.021145 0.045281
v 0.532413 -0.021087 0.045254
v 0.549596 -0.006265 0.057147
v 0.532413 -0.006251 0.057085
v 0.532413 0.012249 0.052863
v 0.549596 0.012289 0.052912
v 0.623963 0.019060 0.035766
v 0.607976 0.019001 0.035766
v 0.623963 0.011363 0.019781
v 0.607976 0.011326 0.019827
v 0.623963 -0.005935 0.015833
v 0.607976 -0.005921 0.015891
v 0.623963 -0.019806 0.026895
v 0.607976 -0.019752 0.026920
v 0.623963 -0.019806 0.044637
v 0.607976 -0.019752 0.044611
v 0.623963 -0.005935 0.055698
v 0.607976 -0.005921 0.055641
v 0.607976 0.011326 0.051704
v 0.623963 0.011363 0.051750
v 0.713114 0.021074 0.035766
v 0.713114 0.012618 0.018206
v 0.713114 -0.006383 0.057662
v 0.713114 0.012618 0.053325
v 0.713114 -0.006383 0.013870
v 0.713114 -0.021620 0.026021
v 0.713114 -0.021620 0.045510
v 0.697136 0.012581 0.053278
v 0.697136 0.021015 0.035766
v 0.697136 0.012581 0.018253
v 0.697136 -0.006369 0.013927
v 0.697136 -0.021567 0.026047
v 0.697136 -0.021567 0.045484
v 0.697136 -0.006369 0.057604
vn -0.0033 0.9010 -0.4339
vn -0.0033 -1.0000 0.0000
vn -0.0033 -0.6235 0.7818
vn -0.0033 0.2225 0.9749
vn 0.9298 -0.2295 -0.2878
vn -0.0033 0.2225 -0.9749
vn -0.0033 -0.6235 -0.7818
vn -0.0033 0.9010 0.4339
vn 0.7041 0.6397 -0.3081
vn 0.7041 0.1580 -0.6923
vn 0.7041 -0.4427 -0.5551
vn 0.7041 -0.7101 0.0000
vn 0.7041 -0.4427 0.5551
vn 0.7041 0.1580 0.6923
vn 0.7041 0.6397 0.3081
vn 1.0000 -0.0000 0.0000
vn -0.7101 0.6344 -0.3055
vn -0.7100 0.1567 -0.6865
vn -0.7100 -0.4390 -0.5505
vn -0.7101 -0.7042 0.0000
vn -0.7100 -0.4390 0.5505
vn -0.7100 0.1567 0.6865
vn -0.7100 0.6344 0.3055
vn -1.0000 -0.0000 0.0000
vn -0.9301 -0.3672 0.0000
vn 0.9298 0.0819 -0.3588
vn -0.9301 -0.2290 0.2871
vn 0.9298 0.0819 0.3588
vn 0.9298 -0.2295 0.2878
vn 0.9298 -0.3680 0.0000
vn -0.0044 0.9010 -0.4339
vn -0.0044 -1.0000 0.0000
vn -0.0044 -0.6235 0.7818
vn -0.0044 0.2225 0.9749
vn -0.0044 0.2225 -0.9749
vn -0.0044 -0.6235 -0.7818
vn -0.0044 0.9010 0.4339
vn -0.9945 0.0234 0.1023
vn 0.7938 -0.3792 0.4755
vn -0.9945 -0.0654 0.0820
vn 0.7937 -0.6082 0.0000
vn -0.9945 -0.1049 0.0000
vn 0.7937 0.5480 -0.2639
vn -0.9945 0.0946 -0.0455
vn -0.9174 -0.3981 0.0000
vn 0.9169 -0.2488 0.3120
vn -0.9174 -0.2482 0.3112
vn 0.9169 0.0888 0.3890
vn -0.9174 0.0886 0.3881
vn 0.9169 0.0888 -0.3890
vn -0.9174 0.0886 -0.3881
vn 0.7937 0.1353 0.5930
vn -0.9945 0.0233 -0.1023
vn 0.7937 0.1353 -0.5930
vn -0.9945 -0.0654 -0.0820
vn 0.7937 -0.3792 -0.4755
vn -0.9945 0.0945 0.0455
vn 0.7937 0.5480 0.2639
vn 0.9169 -0.3990 0.0000
vn -0.9174 0.3586 -0.1727
vn 0.9169 0.3595 -0.1731
vn -0.9174 0.3586 0.1727
vn 0.9169 0.3595 0.1731
vn -0.9174 -0.2482 -0.3112
vn 0.9169 -0.2488 -0.3120
vn -0.9301 0.0817 -0.3580
vn -0.9301 0.3308 -0.1593
vn 0.9298 0.3316 0.1597
vn -0.9301 0.0817 0.3580
vn -0.9301 0.3308 0.1593
vn 0.9298 0.3316 -0.1597
vn -0.9301 -0.2290 -0.2871
vn 0.7042 0.1580 -0.6922
vn 0.7042 0.1580 0.6922
vn -0.7100 -0.7042 0.0000
vn -0.9301 -0.2289 0.2871
vn 0.7937 -0.3792 0.4755
vn -0.9945 0.0945 -0.0455
vn -0.9301 -0.2289 -0.2871
usemtl DarkBrown
s off
f 6//1 9//1 11//1 5//1
f 3//2 15//2 17//2 2//2
f 2//3 17//3 19//3 1//3
f 1//4 19//4 21//4 7//4
f 54//5 53//5 109//5 110//5
f 5//6 11//6 13//6 4//6
f 4//7 13//7 15//7 3//7
f 7//8 21//8 9//8 6//8
f 11//9 9//9 8//9 10//9
f 13//10 11//10 10//10 12//10
f 15//11 13//11 12//11 14//11
f 17//12 15//12 14//12 16//12
f 19//13 17//13 16//13 18//13
f 21//14 19//14 18//14 20//14
f 9//15 21//15 20//15 8//15
f 10//16 8//16 20//16 18//16 16//16 14//16 12//16
f 23//17 24//17 25//17 22//17
f 24//18 26//18 27//18 25//18
f 26//19 28//19 29//19 27//19
f 28//20 30//20 31//20 29//20
f 30//21 32//21 33//21 31//21
f 32//22 34//22 35//22 33//22
f 34//23 23//23 22//23 35//23
f 22//24 25//24 27//24 29//24 31//24 33//24 35//24
f 3//25 2//25 105//25 104//25
f 53//26 52//26 108//26 109//26
f 2//27 1//27 101//27 105//27
f 50//28 56//28 112//28 106//28
f 56//29 55//29 111//29 112//29
f 55//30 54//30 110//30 111//30
f 23//31 37//31 38//31 24//31
f 28//32 40//32 41//32 30//32
f 30//33 41//33 42//33 32//33
f 32//34 42//34 36//34 34//34
f 24//35 38//35 39//35 26//35
f 26//36 39//36 40//36 28//36
f 34//37 36//37 37//37 23//37
f 49//38 43//38 84//38 81//38
f 42//39 41//39 80//39 82//39
f 48//40 49//40 81//40 79//40
f 41//41 40//41 78//41 80//41
f 47//42 48//42 79//42 77//42
f 38//43 37//43 72//43 74//43
f 44//44 45//44 73//44 71//44
f 65//1 51//1 52//1 66//1
f 68//2 54//2 55//2 69//2
f 69//3 55//3 56//3 70//3
f 70//4 56//4 50//4 64//4
f 66//6 52//6 53//6 67//6
f 67//7 53//7 54//7 68//7
f 64//8 50//8 51//8 65//8
f 43//8 63//8 57//8 44//8
f 46//7 59//7 60//7 47//7
f 45//6 58//6 59//6 46//6
f 49//4 62//4 63//4 43//4
f 48//3 61//3 62//3 49//3
f 47//2 60//2 61//2 48//2
f 44//1 57//1 58//1 45//1
f 68//45 69//45 93//45 91//45
f 62//46 61//46 94//46 96//46
f 69//47 70//47 95//47 93//47
f 63//48 62//48 96//48 97//48
f 70//49 64//49 98//49 95//49
f 59//50 58//50 88//50 90//50
f 66//51 67//51 89//51 87//51
f 72//1 71//1 73//1 74//1
f 78//2 77//2 79//2 80//2
f 80//3 79//3 81//3 82//3
f 82//4 81//4 84//4 83//4
f 74//6 73//6 75//6 76//6
f 76//7 75//7 77//7 78//7
f 83//8 84//8 71//8 72//8
f 36//52 42//52 82//52 83//52
f 45//53 46//53 75//53 73//53
f 39//54 38//54 74//54 76//54
f 46//55 47//55 77//55 75//55
f 40//56 39//56 76//56 78//56
f 43//57 44//57 71//57 84//57
f 37//58 36//58 83//58 72//58
f 97//8 98//8 85//8 86//8
f 90//7 89//7 91//7 92//7
f 88//6 87//6 89//6 90//6
f 96//4 95//4 98//4 97//4
f 94//3 93//3 95//3 96//3
f 92//2 91//2 93//2 94//2
f 86//1 85//1 87//1 88//1
f 61//59 60//59 92//59 94//59
f 65//60 66//60 87//60 85//60
f 58//61 57//61 86//61 88//61
f 64//62 65//62 85//62 98//62
f 57//63 63//63 97//63 86//63
f 67//64 68//64 91//64 89//64
f 60//65 59//65 90//65 92//65
f 106//8 102//8 99//8 107//8
f 109//7 103//7 104//7 110//7
f 108//6 100//6 103//6 109//6
f 112//4 101//4 102//4 106//4
f 111//3 105//3 101//3 112//3
f 110//2 104//2 105//2 111//2
f 107//1 99//1 100//1 108//1
f 5//66 4//66 103//66 100//66
f 6//67 5//67 100//67 99//67
f 51//68 50//68 106//68 107//68
f 1//69 7//69 102//69 101//69
f 7//70 6//70 99//70 102//70
f 52//71 51//71 107//71 108//71
f 4//72 3//72 104//72 103//72
f 118//1 121//1 123//1 117//1
f 115//2 127//2 129//2 114//2
f 114//3 129//3 131//3 113//3
f 113//4 131//4 133//4 119//4
f 166//5 165//5 221//5 222//5
f 117//6 123//6 125//6 116//6
f 116//7 125//7 127//7 115//7
f 119//8 133//8 121//8 118//8
f 123//9 121//9 120//9 122//9
f 125//73 123//73 122//73 124//73
f 127//11 125//11 124//11 126//11
f 129//12 127//12 126//12 128//12
f 131//13 129//13 128//13 130//13
f 133//74 131//74 130//74 132//74
f 121//15 133//15 132//15 120//15
f 122//16 120//16 132//16 130//16 128//16 126//16 124//16
f 135//17 136//17 137//17 134//17
f 136//18 138//18 139//18 137//18
f 138//19 140//19 141//19 139//19
f 140//75 142//75 143//75 141//75
f 142//21 144//21 145//21 143//21
f 144//22 146//22 147//22 145//22
f 146//23 135//23 134//23 147//23
f 134//24 137//24 139//24 141//24 143//24 145//24 147//24
f 115//25 114//25 217//25 216//25
f 165//26 164//26 220//26 221//26
f 114//76 113//76 213//76 217//76
f 162//28 168//28 224//28 218//28
f 168//29 167//29 223//29 224//29
f 167//30 166//30 222//30 223//30
f 135//31 149//31 150//31 136//31
f 140//32 152//32 153//32 142//32
f 142//33 153//33 154//33 144//33
f 144//34 154//34 148//34 146//34
f 136//35 150//35 151//35 138//35
f 138//36 151//36 152//36 140//36
f 146//37 148//37 149//37 135//37
f 161//38 155//38 196//38 193//38
f 154//77 153//77 192//77 194//77
f 160//40 161//40 193//40 191//40
f 153//41 152//41 190//41 192//41
f 159//42 160//42 191//42 189//42
f 150//43 149//43 184//43 186//43
f 156//78 157//78 185//78 183//78
f 177//1 163//1 164//1 178//1
f 180//2 166//2 167//2 181//2
f 181//3 167//3 168//3 182//3
f 182//4 168//4 162//4 176//4
f 178//6 164//6 165//6 179//6
f 179//7 165//7 166//7 180//7
f 176//8 162//8 163//8 177//8
f 155//8 175//8 169//8 156//8
f 158//7 171//7 172//7 159//7
f 157//6 170//6 171//6 158//6
f 161//4 174//4 175//4 155//4
f 160//3 173//3 174//3 161//3
f 159//2 172//2 173//2 160//2
f 156//1 169//1 170//1 157//1
f 180//45 181//45 205//45 203//45
f 174//46 173//46 206//46 208//46
f 181//47 182//47 207//47 205//47
f 175//48 174//48 208//48 209//48
f 182//49 176//49 210//49 207//49
f 171//50 170//50 200//50 202//50
f 178//51 179//51 201//51 199//51
f 184//1 183//1 185//1 186//1
f 190//2 189//2 191//2 192//2
f 192//3 191//3 193//3 194//3
f 194//4 193//4 196//4 195//4
f 186//6 185//6 187//6 188//6
f 188//7 187//7 189//7 190//7
f 195//8 196//8 183//8 184//8
f 148//52 154//52 194//52 195//52
f 157//53 158//53 187//53 185//53
f 151//54 150//54 186//54 188//54
f 158//55 159//55 189//55 187//55
f 152//56 151//56 188//56 190//56
f 155//57 156//57 183//57 196//57
f 149//58 148//58 195//58 184//58
f 209//8 210//8 197//8 198//8
f 202//7 201//7 203//7 204//7
f 200//6 199//6 201//6 202//6
f 208//4 207//4 210//4 209//4
f 206//3 205//3 207//3 208//3
f 204//2 203//2 205//2 206//2
f 198//1 197//1 199//1 200//1
f 173//59 172//59 204//59 206//59
f 177//60 178//60 199//60 197//60
f 170//61 169//61 198//61 200//61
f 176//62 177//62 197//62 210//62
f 169//63 175//63 209//63 198//63
f 179//64 180//64 203//64 201//64
f 172//65 171//65 202//65 204//65
f 218//8 214//8 211//8 219//8
f 221//7 215//7 216//7 222//7
f 220//6 212//6 215//6 221//6
f 224//4 213//4 214//4 218//4
f 223//3 217//3 213//3 224//3
f 222//2 216//2 217//2 223//2
f 219//1 211//1 212//1 220//1
f 117//66 116//66 215//66 212//66
f 118//67 117//67 212//67 211//67
f 163//68 162//68 218//68 219//68
f 113//69 119//69 214//69 213//69
f 119//70 118//70 211//70 214//70
f 164//71 163//71 219//71 220//71
f 116//79 115//79 216//79 215//79
