# Blender v2.79 (sub 0) OBJ File: 'Corndog.blend'
# www.blender.org
mtllib Corndog.mtl
o Corndog_Cube.027
v -0.117584 1.195151 -0.048298
v 0.048298 1.195151 -0.117584
v 0.117584 1.195151 0.048298
v -0.048298 1.195151 0.117584
v 0.056686 0.491733 0.056686
v -0.058792 1.326575 0.058792
v -0.046568 0.634551 0.113373
v 0.113373 0.634551 0.046568
v 0.046568 0.634551 -0.113373
v -0.113373 0.634551 -0.046568
v -0.047433 0.920485 0.115478
v 0.115478 0.920485 0.047433
v 0.047433 0.920485 -0.115478
v -0.115478 0.920485 -0.047433
v -0.115478 0.920485 0.047433
v 0.115478 0.920485 -0.047433
v -0.113373 0.634551 0.046568
v 0.113373 0.634551 -0.046568
v -0.058792 1.326575 -0.058792
v 0.056686 0.491733 -0.056686
v 0.117584 1.195151 -0.048298
v -0.117584 1.195151 0.048298
v -0.056686 0.491733 -0.056686
v 0.058792 1.326575 -0.058792
v -0.047433 0.920485 -0.115478
v 0.047433 0.920485 0.115478
v -0.046568 0.634551 -0.113373
v 0.046568 0.634551 0.113373
v 0.058792 1.326575 0.058792
v -0.056686 0.491734 0.056686
v 0.048298 1.195151 0.117584
v -0.048298 1.195151 -0.117584
v -0.099201 0.544154 0.049098
v -0.089768 1.170603 0.089768
v -0.102886 1.277066 -0.050921
v -0.086553 0.658221 -0.086553
v -0.049098 0.544154 -0.099201
v 0.050921 1.277066 -0.102886
v 0.086553 0.658221 -0.086553
v 0.099201 0.544154 -0.049098
v 0.102886 1.277066 0.050921
v 0.086553 0.658221 0.086553
v 0.049098 0.544154 0.099201
v -0.050921 1.277066 0.102886
v -0.086553 0.658221 0.086553
v -0.088161 0.919543 -0.088161
v 0.088161 0.919543 -0.088161
v 0.088161 0.919543 0.088161
v -0.046784 0.760727 0.113899
v 0.113899 0.760727 0.046784
v 0.046784 0.760727 -0.113899
v -0.113899 0.760727 -0.046784
v -0.088161 0.919543 0.088161
v -0.089768 1.170603 -0.089768
v 0.089768 1.170603 -0.089768
v 0.089768 1.170603 0.089768
v -0.048082 1.077426 0.117057
v 0.117057 1.077426 0.048082
v 0.048082 1.077426 -0.117057
v -0.117057 1.077426 -0.048082
v -0.099201 0.544154 -0.049098
v -0.102886 1.277066 0.050921
v 0.099201 0.544154 0.049098
v 0.102886 1.277066 -0.050921
v 0.113899 0.760727 -0.046784
v -0.113899 0.760727 0.046784
v 0.117057 1.077426 -0.048082
v -0.117057 1.077426 0.048082
v -0.125785 0.921428 0.000000
v 0.125785 0.921428 0.000000
v -0.123491 0.610881 0.000000
v 0.123491 0.610881 0.000000
v 0.064039 1.343228 0.000000
v -0.061746 0.475017 0.000000
v 0.128078 1.219700 0.000000
v -0.128078 1.219700 0.000000
v 0.049098 0.544154 -0.099201
v -0.050921 1.277066 -0.102886
v -0.049098 0.544154 0.099201
v 0.050921 1.277066 0.102886
v 0.046784 0.760727 0.113899
v -0.046784 0.760727 -0.113899
v 0.048082 1.077426 0.117057
v -0.048082 1.077426 -0.117057
v -0.064039 1.343228 0.000000
v 0.061746 0.475017 0.000000
v 0.000000 0.475017 -0.061746
v 0.000000 1.343228 -0.064039
v 0.000000 0.921428 -0.125785
v 0.000000 0.921428 0.125785
v 0.000000 0.610881 -0.123491
v 0.000000 0.610881 0.123491
v 0.000000 1.343228 0.064039
v 0.000000 0.475017 0.061746
v 0.000000 1.219700 0.128078
v 0.000000 1.219700 -0.128078
v -0.080309 0.580587 0.080309
v -0.083292 1.242451 0.083292
v -0.080309 0.580587 -0.080309
v -0.083292 1.242451 -0.083292
v 0.080309 0.580587 0.080309
v 0.083292 1.242451 0.083292
v 0.080309 0.580587 -0.080309
v 0.083292 1.242451 -0.083292
v -0.086955 0.773363 0.086955
v -0.086955 0.773363 -0.086955
v 0.086955 0.773363 -0.086955
v 0.086955 0.773363 0.086955
v -0.089366 1.063157 0.089366
v -0.089366 1.063157 -0.089366
v 0.089366 1.063157 -0.089366
v 0.089366 1.063157 0.089366
v -0.108055 0.517341 0.000000
v -0.112068 1.304019 0.000000
v 0.108055 0.517341 0.000000
v 0.112068 1.304019 0.000000
v 0.124065 0.748092 0.000000
v -0.124065 0.748092 0.000000
v 0.127505 1.091695 0.000000
v -0.127505 1.091695 0.000000
v 0.000000 0.517341 -0.108055
v 0.000000 1.304019 -0.112068
v 0.000000 0.517341 0.108055
v 0.000000 1.304019 0.112068
v 0.000000 0.748092 0.124065
v 0.000000 0.748092 -0.124065
v 0.000000 1.091695 0.127505
v 0.000000 1.091695 -0.127505
v 0.000000 1.351554 0.000000
v 0.000000 0.466659 0.000000
v -0.006724 -0.000269 0.014955
v -0.014955 -0.000269 0.006724
v -0.014955 0.623383 0.006724
v -0.006724 0.623383 0.014955
v -0.014955 -0.000269 -0.006724
v -0.006724 -0.000269 -0.014955
v -0.006724 0.623383 -0.014955
v -0.014955 0.623383 -0.006724
v 0.014955 -0.000269 0.006724
v 0.006724 -0.000269 0.014955
v 0.006724 0.623383 0.014955
v 0.014955 0.623383 0.006724
v 0.006724 -0.000269 -0.014955
v 0.014955 -0.000269 -0.006724
v 0.014955 0.623383 -0.006724
v 0.006724 0.623383 -0.014955
vn 0.0000 0.0000 1.0000
vn 1.0000 0.0000 0.0000
vn 0.0000 1.0000 0.0000
vn -1.0000 0.0000 0.0000
vn 0.0000 0.0000 -1.0000
vn -0.7071 0.0000 0.7071
vn -0.7071 0.0000 -0.7071
vn 0.7071 0.0000 -0.7071
vn 0.7071 0.0000 0.7071
vn 0.0000 -1.0000 0.0000
vn -0.9776 -0.0046 -0.2106
vn -0.9459 0.1704 -0.2760
vn -0.7871 0.1235 -0.6043
vn -0.8315 -0.0050 -0.5554
vn 0.2106 -0.0046 -0.9776
vn 0.2760 0.1704 -0.9459
vn 0.6043 0.1235 -0.7871
vn 0.5554 -0.0050 -0.8316
vn 0.9776 -0.0046 0.2106
vn 0.9459 0.1704 0.2760
vn 0.7871 0.1235 0.6043
vn 0.8315 -0.0050 0.5554
vn -0.2106 -0.0046 0.9776
vn -0.2760 0.1704 0.9459
vn -0.6043 0.1235 0.7871
vn -0.5554 -0.0050 0.8316
vn 0.2111 -0.9544 0.2111
vn 0.6974 -0.6258 0.3492
vn 0.6619 -0.3519 0.6619
vn 0.3492 -0.6258 0.6974
vn -0.2035 0.9577 0.2035
vn -0.6652 0.6597 0.3497
vn -0.6538 0.3808 0.6538
vn -0.3497 0.6597 0.6652
vn -0.2677 -0.1495 0.9518
vn -0.2139 -0.0043 0.9768
vn -0.5585 -0.0046 0.8295
vn -0.6008 -0.1095 0.7918
vn 0.9518 -0.1495 0.2677
vn 0.9768 -0.0043 0.2139
vn 0.8295 -0.0046 0.5585
vn 0.7918 -0.1095 0.6008
vn 0.2677 -0.1495 -0.9518
vn 0.2139 -0.0043 -0.9768
vn 0.5585 -0.0046 -0.8295
vn 0.6008 -0.1095 -0.7918
vn -0.9518 -0.1495 -0.2677
vn -0.9768 -0.0043 -0.2139
vn -0.8295 -0.0046 -0.5585
vn -0.7918 -0.1095 -0.6008
vn -0.2135 -0.0101 0.9769
vn -0.2108 -0.0103 0.9775
vn -0.5556 -0.0111 0.8314
vn -0.5581 -0.0109 0.8297
vn 0.9769 -0.0101 0.2135
vn 0.9775 -0.0103 0.2108
vn 0.8314 -0.0111 0.5556
vn 0.8297 -0.0109 0.5581
vn 0.2135 -0.0101 -0.9769
vn 0.2108 -0.0103 -0.9775
vn 0.5556 -0.0111 -0.8314
vn 0.5581 -0.0109 -0.8297
vn -0.9769 -0.0101 -0.2135
vn -0.9775 -0.0103 -0.2108
vn -0.8314 -0.0111 -0.5556
vn -0.8297 -0.0109 -0.5581
vn -0.8297 -0.0109 0.5581
vn -0.8314 -0.0111 0.5556
vn -0.9775 -0.0103 0.2108
vn -0.9769 -0.0101 0.2135
vn 0.8297 -0.0109 -0.5581
vn 0.8314 -0.0111 -0.5556
vn 0.9775 -0.0103 -0.2108
vn 0.9769 -0.0101 -0.2135
vn -0.7918 -0.1095 0.6008
vn -0.8295 -0.0046 0.5585
vn -0.9768 -0.0043 0.2139
vn -0.9518 -0.1495 0.2677
vn 0.7918 -0.1095 -0.6008
vn 0.8295 -0.0046 -0.5585
vn 0.9768 -0.0043 -0.2139
vn 0.9518 -0.1495 -0.2677
vn -0.3497 0.6597 -0.6652
vn -0.6538 0.3808 -0.6538
vn -0.6652 0.6597 -0.3497
vn -0.2035 0.9577 -0.2035
vn 0.3492 -0.6258 -0.6974
vn 0.6619 -0.3519 -0.6619
vn 0.6974 -0.6258 -0.3492
vn 0.2111 -0.9544 -0.2111
vn 0.8315 -0.0050 -0.5554
vn 0.7871 0.1235 -0.6043
vn 0.9459 0.1704 -0.2760
vn 0.9776 -0.0046 -0.2106
vn -0.8315 -0.0050 0.5554
vn -0.7871 0.1235 0.6043
vn -0.9459 0.1704 0.2760
vn -0.9776 -0.0046 0.2106
vn -0.6619 -0.3519 -0.6619
vn -0.3492 -0.6258 -0.6974
vn -0.2111 -0.9544 -0.2111
vn -0.6974 -0.6258 -0.3492
vn 0.6538 0.3808 -0.6538
vn 0.3497 0.6597 -0.6652
vn 0.2035 0.9577 -0.2035
vn 0.6652 0.6597 -0.3497
vn -0.5581 -0.0109 -0.8297
vn -0.5556 -0.0111 -0.8314
vn -0.2108 -0.0103 -0.9775
vn -0.2135 -0.0101 -0.9769
vn 0.5581 -0.0109 0.8297
vn 0.5556 -0.0111 0.8314
vn 0.2108 -0.0103 0.9775
vn 0.2135 -0.0101 0.9769
vn -0.6008 -0.1095 -0.7918
vn -0.5585 -0.0046 -0.8295
vn -0.2139 -0.0043 -0.9768
vn -0.2677 -0.1495 -0.9518
vn 0.6008 -0.1095 0.7918
vn 0.5585 -0.0046 0.8295
vn 0.2139 -0.0043 0.9768
vn 0.2677 -0.1495 0.9518
vn 0.6652 0.6597 0.3497
vn 0.2035 0.9577 0.2035
vn 0.3497 0.6597 0.6652
vn 0.6538 0.3808 0.6538
vn -0.6974 -0.6258 0.3492
vn -0.2111 -0.9544 0.2111
vn -0.3492 -0.6258 0.6974
vn -0.6619 -0.3519 0.6619
vn 0.5554 -0.0050 0.8316
vn 0.6043 0.1235 0.7871
vn 0.2760 0.1704 0.9459
vn 0.2106 -0.0046 0.9776
vn -0.5554 -0.0050 -0.8316
vn -0.6043 0.1235 -0.7871
vn -0.2760 0.1704 -0.9459
vn -0.2106 -0.0046 -0.9776
usemtl LightYellow
s off
f 140//1 141//1 134//1 131//1
f 144//2 145//2 142//2 139//2
f 145//3 146//3 137//3 138//3 133//3 134//3 141//3 142//3
f 132//4 133//4 138//4 135//4
f 136//5 137//5 146//5 143//5
f 131//6 134//6 133//6 132//6
f 137//7 136//7 135//7 138//7
f 145//8 144//8 143//8 146//8
f 141//9 140//9 139//9 142//9
f 135//10 136//10 143//10 144//10 139//10 140//10 131//10 132//10
usemtl Corndog
f 1//11 60//11 120//11 76//11
f 1//12 76//12 114//12 35//12
f 1//13 35//13 100//13 54//13
f 1//14 54//14 110//14 60//14
f 2//15 59//15 128//15 96//15
f 2//16 96//16 122//16 38//16
f 2//17 38//17 104//17 55//17
f 2//18 55//18 111//18 59//18
f 3//19 58//19 119//19 75//19
f 3//20 75//20 116//20 41//20
f 3//21 41//21 102//21 56//21
f 3//22 56//22 112//22 58//22
f 4//23 57//23 127//23 95//23
f 4//24 95//24 124//24 44//24
f 4//25 44//25 98//25 34//25
f 4//26 34//26 109//26 57//26
f 5//27 94//27 130//27 86//27
f 5//28 86//28 115//28 63//28
f 5//29 63//29 101//29 43//29
f 5//30 43//30 123//30 94//30
f 6//31 93//31 129//31 85//31
f 6//32 85//32 114//32 62//32
f 6//33 62//33 98//33 44//33
f 6//34 44//34 124//34 93//34
f 7//35 79//35 123//35 92//35
f 7//36 92//36 125//36 49//36
f 7//37 49//37 105//37 45//37
f 7//38 45//38 97//38 79//38
f 8//39 63//39 115//39 72//39
f 8//40 72//40 117//40 50//40
f 8//41 50//41 108//41 42//41
f 8//42 42//42 101//42 63//42
f 9//43 77//43 121//43 91//43
f 9//44 91//44 126//44 51//44
f 9//45 51//45 107//45 39//45
f 9//46 39//46 103//46 77//46
f 10//47 61//47 113//47 71//47
f 10//48 71//48 118//48 52//48
f 10//49 52//49 106//49 36//49
f 10//50 36//50 99//50 61//50
f 11//51 49//51 125//51 90//51
f 11//52 90//52 127//52 57//52
f 11//53 57//53 109//53 53//53
f 11//54 53//54 105//54 49//54
f 12//55 50//55 117//55 70//55
f 12//56 70//56 119//56 58//56
f 12//57 58//57 112//57 48//57
f 12//58 48//58 108//58 50//58
f 13//59 51//59 126//59 89//59
f 13//60 89//60 128//60 59//60
f 13//61 59//61 111//61 47//61
f 13//62 47//62 107//62 51//62
f 14//63 52//63 118//63 69//63
f 14//64 69//64 120//64 60//64
f 14//65 60//65 110//65 46//65
f 14//66 46//66 106//66 52//66
f 15//67 66//67 105//67 53//67
f 15//68 53//68 109//68 68//68
f 15//69 68//69 120//69 69//69
f 15//70 69//70 118//70 66//70
f 16//71 65//71 107//71 47//71
f 16//72 47//72 111//72 67//72
f 16//73 67//73 119//73 70//73
f 16//74 70//74 117//74 65//74
f 17//75 33//75 97//75 45//75
f 17//76 45//76 105//76 66//76
f 17//77 66//77 118//77 71//77
f 17//78 71//78 113//78 33//78
f 18//79 40//79 103//79 39//79
f 18//80 39//80 107//80 65//80
f 18//81 65//81 117//81 72//81
f 18//82 72//82 115//82 40//82
f 19//83 88//83 122//83 78//83
f 19//84 78//84 100//84 35//84
f 19//85 35//85 114//85 85//85
f 19//86 85//86 129//86 88//86
f 20//87 87//87 121//87 77//87
f 20//88 77//88 103//88 40//88
f 20//89 40//89 115//89 86//89
f 20//90 86//90 130//90 87//90
f 21//91 67//91 111//91 55//91
f 21//92 55//92 104//92 64//92
f 21//93 64//93 116//93 75//93
f 21//94 75//94 119//94 67//94
f 22//95 68//95 109//95 34//95
f 22//96 34//96 98//96 62//96
f 22//97 62//97 114//97 76//97
f 22//98 76//98 120//98 68//98
f 23//99 61//99 99//99 37//99
f 23//100 37//100 121//100 87//100
f 23//101 87//101 130//101 74//101
f 23//102 74//102 113//102 61//102
f 24//103 64//103 104//103 38//103
f 24//104 38//104 122//104 88//104
f 24//105 88//105 129//105 73//105
f 24//106 73//106 116//106 64//106
f 25//107 82//107 106//107 46//107
f 25//108 46//108 110//108 84//108
f 25//109 84//109 128//109 89//109
f 25//110 89//110 126//110 82//110
f 26//111 81//111 108//111 48//111
f 26//112 48//112 112//112 83//112
f 26//113 83//113 127//113 90//113
f 26//114 90//114 125//114 81//114
f 27//115 37//115 99//115 36//115
f 27//116 36//116 106//116 82//116
f 27//117 82//117 126//117 91//117
f 27//118 91//118 121//118 37//118
f 28//119 43//119 101//119 42//119
f 28//120 42//120 108//120 81//120
f 28//121 81//121 125//121 92//121
f 28//122 92//122 123//122 43//122
f 29//123 41//123 116//123 73//123
f 29//124 73//124 129//124 93//124
f 29//125 93//125 124//125 80//125
f 29//126 80//126 102//126 41//126
f 30//127 33//127 113//127 74//127
f 30//128 74//128 130//128 94//128
f 30//129 94//129 123//129 79//129
f 30//130 79//130 97//130 33//130
f 31//131 83//131 112//131 56//131
f 31//132 56//132 102//132 80//132
f 31//133 80//133 124//133 95//133
f 31//134 95//134 127//134 83//134
f 32//135 84//135 110//135 54//135
f 32//136 54//136 100//136 78//136
f 32//137 78//137 122//137 96//137
f 32//138 96//138 128//138 84//138
