# Blender v2.79 (sub 0) OBJ File: 'Croissant.blend'
# www.blender.org
mtllib Croissant.mtl
o Croissant_Cube.086
v 0.543884 0.199008 0.182419
v 0.652237 0.073718 0.113038
v 0.313446 0.073718 0.329975
v 0.422558 0.199008 0.260108
v 0.292547 0.262707 0.148843
v 0.209729 0.098859 0.296662
v 0.466876 0.098859 -0.162314
v 0.384635 0.262707 -0.015524
v 0.209729 -0.130076 0.296662
v 0.277115 -0.263394 0.176386
v 0.399959 -0.263394 -0.042875
v 0.466876 -0.130076 -0.162314
v 0.282927 0.217222 -0.079873
v 0.363576 0.080907 -0.191597
v 0.107394 0.080907 0.163296
v 0.187742 0.217222 0.051989
v 0.313446 -0.101343 0.329975
v 0.402227 -0.203287 0.273126
v 0.564074 -0.203287 0.169491
v 0.652237 -0.101343 0.113038
v 0.363576 -0.109559 -0.191597
v 0.297954 -0.220475 -0.100690
v 0.172770 -0.220475 0.072729
v 0.107394 -0.109559 0.163296
v 0.563445 0.077198 0.445738
v 0.616186 0.025641 0.441102
v 0.451277 0.025641 0.455598
v 0.504388 0.077198 0.450929
v 0.494530 0.153640 0.133486
v 0.582977 0.055811 0.089259
v 0.302027 0.055811 0.229745
v 0.390143 0.153640 0.185684
v 0.451277 -0.046397 0.455598
v 0.494492 -0.088347 0.451799
v 0.573272 -0.088347 0.444874
v 0.616186 -0.046397 0.441102
v 0.582977 -0.080878 0.089259
v 0.511011 -0.160478 0.125245
v 0.373724 -0.160478 0.193894
v 0.302027 -0.080878 0.229745
v -0.543884 0.199008 0.182419
v -0.652237 0.073718 0.113038
v -0.313446 0.073718 0.329975
v -0.422558 0.199008 0.260108
v -0.292547 0.262707 0.148843
v -0.209729 0.098859 0.296662
v -0.466876 0.098859 -0.162314
v -0.384635 0.262707 -0.015524
v 0.000000 0.274892 -0.101813
v 0.000000 0.103668 -0.274892
v 0.000000 0.103668 0.274892
v 0.000000 0.274892 0.102460
v -0.209729 -0.130076 0.296662
v -0.277115 -0.263394 0.176386
v -0.399959 -0.263394 -0.042875
v -0.466876 -0.130076 -0.162314
v 0.000000 -0.135573 -0.274892
v 0.000000 -0.274892 -0.134063
v 0.000000 -0.274892 0.134590
v 0.000000 -0.135573 0.274892
v -0.282927 0.217222 -0.079873
v -0.363576 0.080907 -0.191597
v -0.107394 0.080907 0.163296
v -0.187742 0.217222 0.051989
v -0.313446 -0.101343 0.329975
v -0.402227 -0.203287 0.273126
v -0.564074 -0.203287 0.169491
v -0.652237 -0.101343 0.113038
v -0.363576 -0.109559 -0.191597
v -0.297954 -0.220475 -0.100690
v -0.172770 -0.220475 0.072729
v -0.107394 -0.109559 0.163296
v -0.563445 0.077198 0.445738
v -0.616186 0.025641 0.441102
v -0.451277 0.025641 0.455598
v -0.504388 0.077198 0.450929
v -0.494530 0.153640 0.133486
v -0.582977 0.055811 0.089259
v -0.302027 0.055811 0.229745
v -0.390143 0.153640 0.185684
v -0.451277 -0.046397 0.455598
v -0.494492 -0.088347 0.451799
v -0.573272 -0.088347 0.444874
v -0.616186 -0.046397 0.441102
v -0.582977 -0.080878 0.089259
v -0.511011 -0.160478 0.125245
v -0.373724 -0.160478 0.193894
v -0.302027 -0.080878 0.229745
vn 0.2344 0.0000 -0.9721
vn -0.1032 0.0000 0.9947
vn 0.0323 -0.9994 0.0081
vn 0.7259 0.0000 -0.6878
vn 0.1752 0.7020 -0.6903
vn -0.0730 0.6985 0.7119
vn 0.0343 0.9994 0.0086
vn -0.0687 -0.6981 0.7127
vn 0.1760 -0.7020 -0.6901
vn 0.8724 -0.0000 0.4888
vn -0.6289 0.0000 0.7775
vn 0.0349 -0.9987 0.0362
vn 0.5232 0.7072 -0.4755
vn -0.4360 0.7040 0.5606
vn 0.0371 0.9986 0.0383
vn -0.4334 -0.7037 0.5629
vn 0.5241 -0.7072 -0.4746
vn 0.5393 -0.0000 0.8421
vn 0.9956 0.0000 -0.0940
vn -0.8343 0.0000 0.5513
vn 0.0765 -0.9728 0.2187
vn 0.7265 0.6871 -0.0014
vn -0.5688 0.6858 0.4541
vn 0.0811 0.9696 0.2310
vn -0.5627 -0.6836 0.4648
vn 0.7276 -0.6859 0.0055
vn 0.0876 0.0000 0.9962
vn -0.2344 0.0000 -0.9721
vn 0.1032 0.0000 0.9947
vn -0.0323 -0.9994 0.0081
vn -0.7259 0.0000 -0.6878
vn -0.1752 0.7020 -0.6903
vn 0.0730 0.6985 0.7119
vn -0.0343 0.9994 0.0086
vn 0.0687 -0.6981 0.7127
vn -0.1760 -0.7020 -0.6901
vn -0.8724 -0.0000 0.4888
vn 0.6289 0.0000 0.7775
vn -0.0349 -0.9987 0.0362
vn -0.5232 0.7072 -0.4755
vn 0.4360 0.7040 0.5606
vn -0.0371 0.9986 0.0383
vn 0.4334 -0.7037 0.5629
vn -0.5241 -0.7072 -0.4746
vn -0.5393 -0.0000 0.8421
vn -0.9956 0.0000 -0.0940
vn 0.8343 0.0000 0.5513
vn -0.0765 -0.9728 0.2187
vn -0.7265 0.6871 -0.0014
vn 0.5688 0.6858 0.4541
vn -0.0811 0.9696 0.2310
vn 0.5627 -0.6836 0.4648
vn -0.7276 -0.6859 0.0055
vn -0.0876 0.0000 0.9962
usemtl LightYellow
s off
f 57//1 50//1 7//1 12//1
f 9//2 6//2 51//2 60//2
f 58//3 11//3 10//3 59//3
f 21//4 14//4 2//4 20//4
f 49//5 8//5 7//5 50//5
f 5//6 52//6 51//6 6//6
f 8//7 49//7 52//7 5//7
f 59//8 10//8 9//8 60//8
f 11//9 58//9 57//9 12//9
f 11//10 12//10 7//10 8//10 5//10 6//10 9//10 10//10
f 17//11 3//11 15//11 24//11
f 22//12 19//12 18//12 23//12
f 13//13 1//13 2//13 14//13
f 4//14 16//14 15//14 3//14
f 1//15 13//15 16//15 4//15
f 23//16 18//16 17//16 24//16
f 19//17 22//17 21//17 20//17
f 19//18 20//18 2//18 1//18 4//18 3//18 17//18 18//18
f 37//19 30//19 26//19 36//19
f 33//20 27//20 31//20 40//20
f 38//21 35//21 34//21 39//21
f 29//22 25//22 26//22 30//22
f 28//23 32//23 31//23 27//23
f 25//24 29//24 32//24 28//24
f 39//25 34//25 33//25 40//25
f 35//26 38//26 37//26 36//26
f 35//27 36//27 26//27 25//27 28//27 27//27 33//27 34//27
f 57//28 56//28 47//28 50//28
f 53//29 60//29 51//29 46//29
f 58//30 59//30 54//30 55//30
f 69//31 68//31 42//31 62//31
f 49//32 50//32 47//32 48//32
f 45//33 46//33 51//33 52//33
f 48//34 45//34 52//34 49//34
f 59//35 60//35 53//35 54//35
f 55//36 56//36 57//36 58//36
f 55//37 54//37 53//37 46//37 45//37 48//37 47//37 56//37
f 65//38 72//38 63//38 43//38
f 70//39 71//39 66//39 67//39
f 61//40 62//40 42//40 41//40
f 44//41 43//41 63//41 64//41
f 41//42 44//42 64//42 61//42
f 71//43 72//43 65//43 66//43
f 67//44 68//44 69//44 70//44
f 67//45 66//45 65//45 43//45 44//45 41//45 42//45 68//45
f 85//46 84//46 74//46 78//46
f 81//47 88//47 79//47 75//47
f 86//48 87//48 82//48 83//48
f 77//49 78//49 74//49 73//49
f 76//50 75//50 79//50 80//50
f 73//51 76//51 80//51 77//51
f 87//52 88//52 81//52 82//52
f 83//53 84//53 85//53 86//53
f 83//54 82//54 81//54 75//54 76//54 73//54 74//54 84//54
