# Blender v2.79 (sub 0) OBJ File: 'Cupcake.blend'
# www.blender.org
mtllib Cupcake.mtl
o Cupcake_Cylinder.026
v 0.000000 -0.122494 -0.226716
v 0.000000 0.313040 -0.342171
v 0.058678 -0.122494 -0.218991
v 0.080526 0.313040 -0.300526
v 0.113358 -0.122494 -0.196342
v 0.171086 0.313040 -0.296329
v 0.160313 -0.122494 -0.160313
v 0.220000 0.313040 -0.220000
v 0.196342 -0.122494 -0.113358
v 0.296329 0.313040 -0.171086
v 0.218991 -0.122494 -0.058678
v 0.300526 0.313040 -0.080526
v 0.226716 -0.122494 -0.000000
v 0.342171 0.313040 -0.000000
v 0.218991 -0.122494 0.058678
v 0.300526 0.313040 0.080526
v 0.196342 -0.122494 0.113358
v 0.296329 0.313040 0.171086
v 0.160313 -0.122494 0.160312
v 0.220000 0.313040 0.220000
v 0.113358 -0.122494 0.196342
v 0.171086 0.313040 0.296329
v 0.058679 -0.122494 0.218991
v 0.080526 0.313040 0.300526
v 0.000000 -0.122494 0.226716
v 0.000000 0.313040 0.342171
v -0.058678 -0.122494 0.218991
v -0.080526 0.313040 0.300526
v -0.113358 -0.122494 0.196342
v -0.171085 0.313040 0.296329
v -0.160312 -0.122494 0.160313
v -0.220000 0.313040 0.220000
v -0.196342 -0.122494 0.113358
v -0.296329 0.313040 0.171086
v -0.218991 -0.122494 0.058679
v -0.300526 0.313040 0.080526
v -0.226716 -0.122494 0.000000
v -0.342171 0.313040 0.000000
v -0.218991 -0.122494 -0.058678
v -0.300526 0.313040 -0.080526
v -0.196342 -0.122494 -0.113358
v -0.296329 0.313040 -0.171085
v -0.160313 -0.122494 -0.160312
v -0.220000 0.313040 -0.220000
v -0.113358 -0.122494 -0.196342
v -0.171086 0.313040 -0.296329
v -0.058679 -0.122494 -0.218991
v -0.080526 0.313040 -0.300526
v -0.002234 0.305734 -0.341839
v -0.016092 0.394559 -0.360434
v 0.198767 0.302145 -0.276863
v 0.192834 0.417461 -0.288966
v 0.323160 0.300122 -0.106372
v 0.320086 0.429476 -0.109991
v 0.323444 0.298742 0.104276
v 0.320822 0.425837 0.108975
v 0.199717 0.297532 0.274614
v 0.194773 0.407868 0.288302
v -0.000677 0.298145 0.339805
v -0.013670 0.382580 0.360372
v -0.201304 0.301924 0.275097
v -0.226345 0.360280 0.294222
v -0.325664 0.306898 0.105045
v -0.359462 0.349422 0.113185
v -0.326279 0.309921 -0.105586
v -0.360219 0.353167 -0.112169
v -0.202808 0.309294 -0.276349
v -0.228320 0.370049 -0.293635
v 0.156944 0.455287 -0.241562
v -0.018112 0.433577 -0.302167
v 0.263332 0.466782 -0.091478
v 0.263824 0.464385 0.091940
v 0.158235 0.449004 0.242237
v -0.016503 0.425740 0.303186
v -0.195755 0.403456 0.248446
v -0.308788 0.391242 0.096083
v -0.309302 0.393748 -0.094452
v -0.197081 0.409913 -0.247061
v 0.154422 0.480108 -0.238674
v -0.019320 0.465053 -0.297693
v 0.260591 0.487523 -0.090443
v 0.261031 0.485395 0.091351
v 0.155534 0.474744 0.239830
v -0.018017 0.458797 0.299202
v -0.195025 0.443094 0.244657
v -0.287840 0.440144 0.094175
v -0.288155 0.441639 -0.092450
v -0.196035 0.447928 -0.242824
v 0.174170 0.505767 -0.257125
v -0.013465 0.506261 -0.318219
v 0.290287 0.503028 -0.097858
v 0.290784 0.500621 0.099038
v 0.175302 0.500331 0.258667
v -0.012423 0.501349 0.319967
v -0.200676 0.501691 0.259187
v -0.317223 0.501455 0.099417
v -0.317380 0.502167 -0.098110
v -0.201240 0.504292 -0.257629
v 0.141828 0.543248 -0.220072
v -0.018718 0.540644 -0.272783
v 0.240995 0.543504 -0.083587
v 0.241215 0.542482 0.084797
v 0.142274 0.541203 0.221193
v -0.018397 0.539221 0.273602
v -0.179573 0.536346 0.221670
v -0.279437 0.534140 0.084815
v -0.279459 0.534222 -0.084577
v -0.179690 0.536834 -0.221226
v 0.088696 0.573097 -0.146301
v -0.017467 0.571032 -0.180838
v 0.154346 0.574335 -0.055861
v 0.154350 0.574322 0.055904
v 0.088696 0.573097 0.146301
v -0.017467 0.571032 0.180838
v -0.123629 0.568967 0.146301
v -0.189241 0.567691 0.055882
v -0.189241 0.567691 -0.055882
v -0.123629 0.568967 -0.146301
v 0.088975 0.618811 -0.159772
v -0.027117 0.611891 -0.198136
v 0.160435 0.622266 -0.060382
v 0.159968 0.620938 0.062073
v 0.087752 0.615333 0.160818
v -0.028628 0.607593 0.198136
v -0.144721 0.600673 0.159772
v -0.216181 0.597218 0.060382
v -0.215714 0.598546 -0.062073
v -0.143498 0.604151 -0.160818
v 0.092255 0.642408 -0.108049
v 0.013851 0.641012 -0.133556
v 0.140712 0.643272 -0.041271
v 0.140712 0.643272 0.041271
v 0.092255 0.642408 0.108049
v 0.013851 0.641012 0.133556
v -0.064553 0.639615 0.108049
v -0.113009 0.638751 0.041271
v -0.113009 0.638751 -0.041271
v -0.064553 0.639615 -0.108049
v 0.069378 0.729846 -0.080766
v 0.021103 0.707576 -0.099832
v 0.103896 0.740121 -0.030850
v 0.103896 0.740121 0.030850
v 0.069378 0.729846 0.080766
v 0.021103 0.707576 0.099832
v -0.028773 0.677439 0.080766
v -0.066930 0.667380 0.030850
v -0.066930 0.667380 -0.030850
v -0.028773 0.677439 -0.080766
v 0.032862 0.757042 -0.048903
v 0.009100 0.744218 -0.060448
v 0.050708 0.770764 -0.018679
v 0.050708 0.770764 0.018679
v 0.032862 0.757042 0.048903
v 0.009100 0.744218 0.060448
v -0.011645 0.730074 0.048903
v -0.029491 0.716352 0.018679
v -0.029491 0.716352 -0.018679
v -0.011645 0.730074 -0.048903
v -0.030742 0.807398 -0.007477
v -0.035457 0.804702 -0.009242
v -0.027828 0.809063 -0.002856
v -0.027828 0.809063 0.002856
v -0.030742 0.807398 0.007477
v -0.035457 0.804702 0.009242
v -0.040172 0.802007 0.007477
v -0.043086 0.800341 0.002856
v -0.043086 0.800341 -0.002856
v -0.040172 0.802007 -0.007477
v -0.037258 0.803673 -0.002856
v -0.033656 0.805732 0.002856
v -0.331826 0.310087 -0.152313
v 0.108902 0.310383 -0.336470
v 0.346444 0.317384 0.122603
v -0.119421 0.297400 0.341344
v 0.163450 0.438532 0.158324
v -0.258867 0.383254 0.166036
v 0.158729 0.304318 0.332376
v -0.139826 0.296195 -0.341482
v -0.157081 0.445988 -0.108095
v 0.143970 0.446400 -0.091734
v 0.332721 0.299131 -0.143335
v -0.387714 0.303246 0.099182
v 0.232116 0.142981 0.237190
v -0.238109 0.152965 -0.208269
v -0.088068 0.170407 -0.310703
v -0.043079 0.195943 0.301723
v 0.000000 0.166045 0.000000
v -0.363989 0.208839 0.139309
v -0.290687 0.280057 0.266124
v 0.156333 0.381952 -0.265598
v 0.288688 0.395664 0.155816
v -0.157194 0.372976 0.278213
v -0.110232 0.393585 -0.285002
v 0.140455 0.398670 0.284281
v 0.001955 0.445444 0.159343
v -0.358419 0.238136 -0.105584
v 0.282118 0.389409 -0.117069
v 0.004593 0.460635 -0.080837
v -0.139760 0.194330 0.133186
v 0.187849 0.164927 -0.081774
v 0.163791 0.147101 0.190418
v 0.042732 0.166921 -0.195680
v -0.255008 0.178202 0.280096
v -0.260748 0.206047 -0.265326
v -0.257397 0.333425 -0.264755
v 0.289097 0.185586 0.240393
v 0.278701 0.313526 0.273215
v 0.239038 0.195490 -0.286029
v 0.274155 0.300900 -0.255248
v -0.088883 0.219815 -0.365429
v 0.103647 0.229805 0.348338
v -0.283210 0.399638 -0.114884
v 0.346193 0.231674 -0.105780
v 0.221971 0.159120 -0.239783
v -0.326718 0.202151 -0.012672
v 0.307251 0.190655 -0.053783
vn 0.3264 -0.2163 -0.9202
vn 0.1775 -0.2163 -0.9601
vn 0.7427 -0.2163 -0.6337
vn 0.6337 -0.2163 -0.7427
vn 0.9601 -0.2163 -0.1775
vn 0.9202 -0.2163 -0.3264
vn 0.9202 -0.2163 0.3264
vn 0.9601 -0.2163 0.1775
vn 0.6337 -0.2163 0.7427
vn 0.7427 -0.2163 0.6337
vn 0.1775 -0.2163 0.9601
vn 0.3264 -0.2163 0.9202
vn -0.3264 -0.2163 0.9202
vn -0.1775 -0.2163 0.9601
vn -0.7427 -0.2163 0.6337
vn -0.6337 -0.2163 0.7427
vn -0.9601 -0.2163 0.1775
vn -0.9202 -0.2163 0.3264
vn -0.9202 -0.2163 -0.3264
vn -0.9601 -0.2163 -0.1775
vn -0.6337 -0.2163 -0.7427
vn -0.7427 -0.2163 -0.6337
vn 0.0000 1.0000 -0.0000
vn -0.1775 -0.2163 -0.9601
vn -0.3264 -0.2163 -0.9202
vn 0.0000 -1.0000 0.0000
vn 0.3186 -0.1107 -0.9414
vn 0.8116 -0.0077 -0.5842
vn 0.9998 0.0222 -0.0021
vn 0.8141 -0.0190 0.5805
vn 0.3227 -0.1350 0.9368
vn -0.2723 -0.3243 0.9059
vn -0.6783 -0.5325 0.5064
vn -0.7848 -0.6197 -0.0071
vn -0.5305 0.7892 -0.3096
vn -0.6847 -0.5107 -0.5200
vn -0.2783 -0.2927 -0.9148
vn -0.8097 0.2329 0.5387
vn -0.6299 0.7765 0.0136
vn -0.5383 0.7693 0.3442
vn -0.2657 0.7728 0.5764
vn 0.1093 0.7900 0.6033
vn 0.4329 0.8143 0.3866
vn 0.0979 0.8213 -0.5621
vn 0.5549 0.8319 0.0108
vn 0.4209 0.8333 -0.3584
vn -0.2647 0.8046 -0.5316
vn 0.4921 -0.8079 0.3243
vn 0.8042 0.1317 0.5796
vn 0.3075 0.1434 -0.9407
vn -0.9170 0.3988 0.0062
vn 0.3114 0.1247 0.9421
vn 0.8018 0.1426 -0.5803
vn -0.8116 0.2481 -0.5290
vn -0.3014 0.0981 0.9484
vn 0.9913 0.1314 -0.0009
vn -0.3056 0.1177 -0.9448
vn 0.1896 0.7815 -0.5944
vn 0.2813 -0.5614 -0.7783
vn -0.9012 -0.4335 -0.0014
vn 0.2835 -0.5586 0.7795
vn 0.4894 -0.8024 -0.3416
vn -0.7812 -0.3236 -0.5338
vn -0.2734 -0.3170 0.9082
vn 0.4592 -0.8883 -0.0118
vn -0.2699 -0.3262 -0.9059
vn -0.7846 -0.3171 0.5327
vn 0.0927 0.9401 0.3281
vn -0.6499 0.7600 0.0020
vn 0.2001 0.7589 0.6197
vn 0.5119 0.7771 -0.3661
vn -0.5236 0.7677 -0.3694
vn -0.2051 0.7584 0.6187
vn 0.6400 0.7684 0.0060
vn -0.2042 0.7773 -0.5950
vn -0.5300 0.7579 0.3804
vn 0.5230 0.7615 0.3829
vn -0.6366 -0.5990 -0.4857
vn 0.2652 0.9435 -0.1988
vn -0.2853 0.9391 -0.1917
vn -0.1207 0.9399 0.3194
vn 0.3397 0.9405 0.0032
vn -0.1211 0.9425 -0.3115
vn -0.2863 0.9383 0.1941
vn 0.2725 0.9394 0.2081
vn 0.0869 0.9447 -0.3162
vn -0.3482 0.9374 0.0003
vn -0.1663 0.9063 0.3885
vn -0.2528 -0.4943 0.8317
vn 0.9924 -0.1229 0.0013
vn -0.2552 -0.4558 -0.8527
vn -0.6243 -0.6266 0.4665
vn 0.7985 -0.1760 0.5757
vn 0.3089 -0.2886 -0.9062
vn -0.7489 -0.6626 -0.0053
vn 0.3041 -0.3161 0.8987
vn 0.8015 -0.1649 -0.5748
vn 0.9347 0.3553 0.0000
vn 0.7434 0.6689 0.0060
vn -0.1560 0.9240 -0.3492
vn -0.3239 0.9225 0.2098
vn 0.5144 0.7561 0.4046
vn 0.1078 0.8894 -0.4442
vn -0.3690 0.9294 0.0052
vn 0.1182 0.8625 0.4920
vn 0.4952 0.7824 -0.3777
vn -0.3109 0.9312 -0.1902
vn -0.7491 0.5574 0.3580
vn -0.3909 0.5792 -0.7153
vn -0.5118 0.8033 0.3047
vn 0.7450 0.3567 0.5638
vn 0.2435 0.3785 -0.8930
vn -0.5277 0.8494 0.0000
vn 0.2435 0.3785 0.8930
vn 0.7450 0.3567 -0.5638
vn -0.5118 0.8033 -0.3047
vn -0.3909 0.5792 0.7153
vn 0.2879 0.8008 0.5252
vn 0.3141 0.8334 0.4548
vn -0.0597 0.7229 -0.6884
vn -0.7944 0.6074 0.0000
vn -0.0597 0.7229 0.6884
vn 0.3141 0.8334 -0.4548
vn -0.7491 0.5574 -0.3580
vn -0.5932 0.5227 0.6123
vn 0.4992 0.8665 0.0000
vn -0.5932 0.5227 -0.6123
vn -0.4963 0.8682 0.0000
vn 0.0060 0.6447 -0.7644
vn -0.9872 -0.1598 0.0000
vn 0.0060 0.6447 0.7644
vn 0.2879 0.8008 -0.5252
vn -0.8511 -0.0376 -0.5237
vn -0.5686 0.2372 0.7877
vn 0.4383 0.8988 0.0000
vn -0.5686 0.2372 -0.7877
vn -0.8511 -0.0376 0.5237
vn -0.9538 0.2187 -0.2060
vn -0.8269 -0.0576 -0.5593
vn 0.4435 0.1119 -0.8893
vn 0.9119 -0.0309 0.4093
vn -0.4008 -0.0147 0.9160
vn 0.3813 0.9245 -0.0006
vn 0.0429 0.9987 0.0281
vn 0.3109 0.8884 0.3379
vn -0.2264 0.9644 0.1366
vn -0.1857 0.8347 0.5184
vn 0.4465 -0.1408 0.8836
vn 0.3587 0.4781 0.8017
vn 0.0173 0.4567 0.8894
vn -0.5697 -0.1254 -0.8122
vn -0.3294 0.5466 -0.7699
vn -0.0114 0.5042 -0.8635
vn -0.2913 0.8555 -0.4281
vn 0.3133 0.8975 -0.3104
vn 0.0685 0.9358 -0.3459
vn 0.8825 -0.0816 -0.4631
vn 0.7526 0.5340 -0.3854
vn 0.8596 0.5048 -0.0790
vn -0.8648 -0.0039 0.5021
vn -0.6280 0.6329 0.4529
vn -0.9628 -0.2647 -0.0536
vn 0.5978 -0.8013 0.0231
vn 0.3380 -0.5114 0.7901
vn -0.0101 -0.7936 0.6083
vn -0.1851 -0.9651 0.1854
vn -0.6243 -0.7762 -0.0876
vn -0.3126 -0.7074 -0.6340
vn -0.2486 -0.9684 -0.0183
vn 0.0271 -0.9957 -0.0881
vn 0.5826 -0.7908 -0.1876
vn 0.1059 -0.8002 -0.5903
vn -0.0398 -0.9991 0.0150
vn -0.0674 -0.9880 0.1391
vn 0.0493 -0.9988 0.0063
vn -0.0087 -0.9999 -0.0064
vn -0.0357 -0.9970 -0.0685
vn -0.1611 -0.9861 0.0404
vn -0.8341 0.5244 -0.1711
vn -0.7404 0.5584 -0.3742
vn -0.8507 0.0247 -0.5251
vn 0.2197 -0.1727 -0.9602
vn 0.0829 0.6730 -0.7350
vn 0.4065 0.4926 -0.7695
vn 0.9443 -0.3084 0.1147
vn 0.7975 0.6024 -0.0330
vn 0.8144 0.4407 0.3776
vn -0.1300 -0.3322 0.9342
vn -0.0694 0.6189 0.7824
vn -0.3951 0.4645 0.7925
vn 0.3232 0.9459 -0.0295
vn 0.1063 0.9923 0.0639
vn 0.0426 0.9503 0.3085
vn 0.4747 0.7017 0.5313
vn -0.1004 0.9930 0.0617
vn -0.3477 0.9338 0.0846
vn -0.5164 0.6729 0.5297
vn -0.0882 0.9815 0.1699
vn 0.4610 -0.1852 0.8679
vn 0.0269 0.1903 0.9814
vn -0.5043 0.0171 -0.8634
vn 0.0021 0.3004 -0.9538
vn -0.0372 0.9554 -0.2929
vn -0.3952 0.8470 -0.3555
vn 0.5254 0.7024 -0.4802
vn 0.0658 0.9371 -0.3427
vn 0.8630 -0.1463 -0.4837
vn 0.9848 0.1622 -0.0620
vn -0.7954 -0.2001 0.5721
vn -0.5607 0.8223 0.0966
vn 0.7463 -0.6647 0.0346
vn 0.0435 -0.9876 -0.1506
vn -0.1645 -0.9809 0.1037
vn -0.7104 -0.6332 -0.3072
vn -0.3080 -0.7544 -0.5796
vn 0.0535 -0.9944 -0.0910
vn -0.5889 -0.8008 -0.1092
vn 0.7359 -0.6370 -0.2294
vn 0.1926 -0.9782 0.0775
vn 0.0117 -0.8261 0.5634
vn 0.0875 -0.9953 -0.0407
vn 0.1069 -0.7372 -0.6672
vn -0.1708 -0.9711 0.1668
vn -0.0364 -0.9989 0.0289
vn 0.2204 -0.9744 -0.0443
usemtl LightYellow
s off
f 1//1 2//1 4//1 3//1
f 3//2 4//2 6//2 5//2
f 5//3 6//3 8//3 7//3
f 7//4 8//4 10//4 9//4
f 9//5 10//5 12//5 11//5
f 11//6 12//6 14//6 13//6
f 13//7 14//7 16//7 15//7
f 15//8 16//8 18//8 17//8
f 17//9 18//9 20//9 19//9
f 19//10 20//10 22//10 21//10
f 21//11 22//11 24//11 23//11
f 23//12 24//12 26//12 25//12
f 25//13 26//13 28//13 27//13
f 27//14 28//14 30//14 29//14
f 29//15 30//15 32//15 31//15
f 31//16 32//16 34//16 33//16
f 33//17 34//17 36//17 35//17
f 35//18 36//18 38//18 37//18
f 37//19 38//19 40//19 39//19
f 39//20 40//20 42//20 41//20
f 41//21 42//21 44//21 43//21
f 43//22 44//22 46//22 45//22
f 4//23 2//23 48//23 46//23 44//23 42//23 40//23 38//23 36//23 34//23 32//23 30//23 28//23 26//23 24//23 22//23 20//23 18//23 16//23 14//23 12//23 10//23 8//23 6//23
f 45//24 46//24 48//24 47//24
f 47//25 48//25 2//25 1//25
f 1//26 3//26 5//26 7//26 9//26 11//26 13//26 15//26 17//26 19//26 21//26 23//26 25//26 27//26 29//26 31//26 33//26 35//26 37//26 39//26 41//26 43//26 45//26 47//26
usemtl Pink
f 49//27 50//27 52//27 51//27
f 51//28 52//28 54//28 53//28
f 53//29 54//29 56//29 55//29
f 55//30 56//30 58//30 57//30
f 57//31 58//31 60//31 59//31
f 59//32 60//32 62//32 61//32
f 61//33 62//33 64//33 63//33
f 63//34 64//34 66//34 65//34
f 68//35 66//35 77//35 78//35
f 65//36 66//36 68//36 67//36
f 67//37 68//37 50//37 49//37
f 76//38 75//38 85//38 86//38
f 66//39 64//39 76//39 77//39
f 64//40 62//40 75//40 76//40
f 62//41 60//41 74//41 75//41
f 60//42 58//42 73//42 74//42
f 58//43 56//43 72//43 73//43
f 52//44 50//44 70//44 69//44
f 56//45 54//45 71//45 72//45
f 54//46 52//46 69//46 71//46
f 50//47 68//47 78//47 70//47
f 83//48 82//48 92//48 93//48
f 73//49 72//49 82//49 83//49
f 69//50 70//50 80//50 79//50
f 77//51 76//51 86//51 87//51
f 74//52 73//52 83//52 84//52
f 71//53 69//53 79//53 81//53
f 78//54 77//54 87//54 88//54
f 75//55 74//55 84//55 85//55
f 72//56 71//56 81//56 82//56
f 70//57 78//57 88//57 80//57
f 89//58 90//58 100//58 99//58
f 79//59 80//59 90//59 89//59
f 87//60 86//60 96//60 97//60
f 84//61 83//61 93//61 94//61
f 81//62 79//62 89//62 91//62
f 88//63 87//63 97//63 98//63
f 85//64 84//64 94//64 95//64
f 82//65 81//65 91//65 92//65
f 80//66 88//66 98//66 90//66
f 86//67 85//67 95//67 96//67
f 104//68 103//68 113//68 114//68
f 97//69 96//69 106//69 107//69
f 94//70 93//70 103//70 104//70
f 91//71 89//71 99//71 101//71
f 98//72 97//72 107//72 108//72
f 95//73 94//73 104//73 105//73
f 92//74 91//74 101//74 102//74
f 90//75 98//75 108//75 100//75
f 96//76 95//76 105//76 106//76
f 93//77 92//77 102//77 103//77
f 118//78 117//78 127//78 128//78
f 101//79 99//79 109//79 111//79
f 108//80 107//80 117//80 118//80
f 105//81 104//81 114//81 115//81
f 102//82 101//82 111//82 112//82
f 100//83 108//83 118//83 110//83
f 106//84 105//84 115//84 116//84
f 103//85 102//85 112//85 113//85
f 99//86 100//86 110//86 109//86
f 107//87 106//87 116//87 117//87
f 125//88 124//88 134//88 135//88
f 115//89 114//89 124//89 125//89
f 112//90 111//90 121//90 122//90
f 110//91 118//91 128//91 120//91
f 116//92 115//92 125//92 126//92
f 113//93 112//93 122//93 123//93
f 109//94 110//94 120//94 119//94
f 117//95 116//95 126//95 127//95
f 114//96 113//96 123//96 124//96
f 111//97 109//97 119//97 121//97
f 132//98 131//98 141//98 142//98
f 122//99 121//99 131//99 132//99
f 120//100 128//100 138//100 130//100
f 126//101 125//101 135//101 136//101
f 123//102 122//102 132//102 133//102
f 119//103 120//103 130//103 129//103
f 127//104 126//104 136//104 137//104
f 124//105 123//105 133//105 134//105
f 121//106 119//106 129//106 131//106
f 128//107 127//107 137//107 138//107
f 146//108 145//108 155//108 156//108
f 130//109 138//109 148//109 140//109
f 136//110 135//110 145//110 146//110
f 133//111 132//111 142//111 143//111
f 129//112 130//112 140//112 139//112
f 137//113 136//113 146//113 147//113
f 134//114 133//114 143//114 144//114
f 131//115 129//115 139//115 141//115
f 138//116 137//116 147//116 148//116
f 135//117 134//117 144//117 145//117
f 153//118 152//118 162//118 163//118
f 143//119 142//119 152//119 153//119
f 139//120 140//120 150//120 149//120
f 147//121 146//121 156//121 157//121
f 144//122 143//122 153//122 154//122
f 141//123 139//123 149//123 151//123
f 148//124 147//124 157//124 158//124
f 145//125 144//125 154//125 155//125
f 142//126 141//126 151//126 152//126
f 140//127 148//127 158//127 150//127
f 160//128 168//128 169//128 159//128
f 149//129 150//129 160//129 159//129
f 157//130 156//130 166//130 167//130
f 154//131 153//131 163//131 164//131
f 151//132 149//132 159//132 161//132
f 158//133 157//133 167//133 168//133
f 155//134 154//134 164//134 165//134
f 152//135 151//135 161//135 162//135
f 150//136 158//136 168//136 160//136
f 156//137 155//137 165//137 166//137
f 168//128 167//128 166//128 169//128
f 159//128 169//128 170//128 161//128
f 169//128 166//128 165//128 170//128
f 161//128 170//128 163//128 162//128
f 170//128 165//128 164//128 163//128
usemtl DarkBrown
f 171//138 196//138 182//138
f 205//139 196//139 171//139
f 209//140 208//140 172//140
f 207//141 206//141 173//141
f 189//142 203//142 174//142
f 175//143 197//143 180//143
f 180//144 195//144 175//144
f 194//145 191//145 175//145
f 195//146 179//146 176//146
f 176//147 194//147 195//147
f 211//148 207//148 177//148
f 177//149 207//149 194//149
f 177//150 194//150 174//150
f 210//151 205//151 178//151
f 178//152 205//152 193//152
f 193//153 172//153 178//153
f 179//154 205//154 212//154
f 197//155 190//155 180//155
f 180//156 193//156 198//156
f 213//157 209//157 181//157
f 181//158 209//158 197//158
f 197//159 173//159 181//159
f 188//160 189//160 182//160
f 182//161 189//161 176//161
f 182//162 196//162 188//162
f 216//163 206//163 183//163
f 183//164 206//164 211//164
f 211//165 186//165 183//165
f 183//166 199//166 201//166
f 215//167 196//167 184//167
f 185//168 204//168 210//168
f 215//169 203//169 188//169
f 215//170 199//170 203//170
f 216//171 208//171 213//171
f 185//172 208//172 214//172
f 214//173 202//173 185//173
f 199//174 184//174 187//174
f 184//175 202//175 187//175
f 202//176 200//176 187//176
f 200//177 201//177 187//177
f 201//178 199//178 187//178
f 171//179 182//179 212//179
f 171//180 212//180 205//180
f 205//181 204//181 196//181
f 172//182 208//182 210//182
f 172//183 193//183 190//183
f 172//184 190//184 209//184
f 173//185 206//185 213//185
f 173//186 197//186 191//186
f 173//187 191//187 207//187
f 174//188 203//188 211//188
f 174//189 194//189 192//189
f 174//190 192//190 189//190
f 175//191 191//191 197//191
f 180//192 198//192 195//192
f 175//193 195//193 194//193
f 194//194 207//194 191//194
f 195//195 198//195 179//195
f 176//196 179//196 212//196
f 176//197 189//197 192//197
f 176//198 192//198 194//198
f 211//199 206//199 207//199
f 177//200 174//200 211//200
f 210//201 204//201 205//201
f 178//202 172//202 210//202
f 179//203 198//203 193//203
f 179//204 193//204 205//204
f 197//205 209//205 190//205
f 180//206 190//206 193//206
f 213//207 208//207 209//207
f 181//208 173//208 213//208
f 188//209 203//209 189//209
f 176//210 212//210 182//210
f 216//211 213//211 206//211
f 183//212 201//212 216//212
f 183//213 186//213 199//213
f 184//214 196//214 204//214
f 185//215 184//215 204//215
f 185//216 202//216 184//216
f 188//217 196//217 215//217
f 216//218 214//218 208//218
f 216//219 200//219 214//219
f 186//220 211//220 203//220
f 186//221 203//221 199//221
f 185//222 210//222 208//222
f 199//223 215//223 184//223
f 202//224 214//224 200//224
f 200//225 216//225 201//225
