# Blender v2.79 (sub 0) OBJ File: 'Eggplant.blend'
# www.blender.org
mtllib Eggplant.mtl
o Eggplant_Cube.036
v -0.111600 0.717988 0.000000
v 0.131085 0.717988 -0.242686
v 0.373771 0.717988 0.000000
v 0.131085 0.717988 0.242686
v 0.074667 0.226875 -0.279787
v 0.131085 0.969825 0.000000
v 0.195492 -0.371351 0.000000
v -0.199420 0.268367 0.000000
v 0.348755 0.185384 0.000000
v 0.074667 0.226875 0.279787
v -0.100651 -0.206288 -0.348931
v -0.100651 -0.206288 0.348931
v -0.457527 -0.630672 0.000000
v -0.572154 -0.320033 0.000000
v -0.338539 -0.515424 -0.306833
v -0.104924 -0.710817 0.000000
v -0.338539 -0.515424 0.306833
v -0.396793 -0.041226 0.000000
v -0.138131 0.479663 0.000000
v -0.050929 0.717988 0.182014
v -0.046353 0.906866 0.000000
v -0.050929 0.717988 -0.182014
v 0.116981 0.469290 -0.256537
v 0.131085 0.906866 -0.177438
v 0.313100 0.717988 -0.182014
v 0.372093 0.458918 0.000000
v 0.308524 0.906866 0.000000
v 0.313100 0.717988 0.182014
v 0.116981 0.469290 0.256537
v 0.131085 0.906866 0.177438
v -0.288097 0.092077 0.000000
v 0.002629 -0.001053 -0.311048
v 0.293355 -0.094183 0.000000
v 0.002629 -0.001053 0.311048
v 0.280233 0.195757 -0.209840
v -0.130898 0.257994 -0.209840
v -0.130898 0.257994 0.209840
v 0.280233 0.195757 0.209840
v -0.513751 -0.368881 -0.229010
v -0.571825 -0.481191 0.000000
v -0.513751 -0.368881 0.229010
v -0.499987 -0.166833 0.000000
v -0.163328 -0.661968 -0.231240
v -0.427780 -0.601860 -0.188479
v -0.219573 -0.380517 -0.359004
v -0.163328 -0.661968 0.231240
v -0.283735 -0.722529 0.000000
v 0.060841 -0.594201 0.000000
v -0.427780 -0.601860 0.188479
v -0.219573 -0.380517 0.359004
v -0.322758 -0.082492 0.260583
v -0.322758 -0.082492 -0.260583
v 0.121456 -0.330085 -0.262813
v 0.121456 -0.330085 0.262813
v -0.074353 0.477070 0.192403
v -0.001706 0.857897 0.132792
v -0.074353 0.477070 -0.192403
v -0.001706 0.857897 -0.132792
v 0.308315 0.461511 0.192403
v 0.263877 0.857897 0.132792
v 0.308315 0.461511 -0.192403
v 0.263877 0.857897 -0.132792
v -0.215416 0.068795 -0.233007
v -0.215416 0.068795 0.233007
v 0.220673 -0.070900 -0.233564
v 0.220673 -0.070900 0.233564
v -0.429883 -0.220254 -0.267581
v -0.520578 -0.482400 -0.151458
v -0.520578 -0.482400 0.151458
v -0.429883 -0.220254 0.267581
v -0.009263 -0.540780 -0.270925
v -0.288709 -0.676502 -0.152449
v -0.009263 -0.540780 0.270925
v -0.288709 -0.676502 0.152449
v -0.127912 0.711792 0.000000
v 0.131085 0.711792 -0.258997
v 0.390082 0.711792 0.000000
v 0.132539 0.717816 0.247438
v -0.061786 0.716083 0.182944
v -0.058279 0.913365 0.000000
v -0.063162 0.711792 -0.194248
v 0.131085 0.913365 -0.189364
v 0.325333 0.711792 -0.194248
v 0.320450 0.913365 0.000000
v 0.326705 0.714337 0.182539
v 0.131085 0.913365 0.189364
v -0.010631 0.861106 0.141717
v -0.010631 0.861106 -0.141717
v 0.272802 0.861106 0.141717
v 0.272802 0.861106 -0.141717
v 0.132003 0.639701 0.256104
v 0.037622 0.637328 0.225122
v 0.226136 0.634904 0.224653
v 0.131772 0.539558 0.265589
v 0.109584 0.539000 0.258305
v 0.153902 0.538430 0.258195
v 0.386546 0.620498 0.000000
v 0.362941 0.620498 -0.070816
v 0.362941 0.620498 0.070817
v 0.373238 0.541580 0.000000
v 0.364942 0.541580 -0.024888
v 0.364942 0.541580 0.024888
v 0.131085 0.589527 -0.262629
v 0.072730 0.589527 -0.243178
v 0.189441 0.589527 -0.243178
v 0.131085 0.519561 -0.255019
v 0.106978 0.519561 -0.246983
v 0.155193 0.519561 -0.246983
v -0.133231 0.653995 -0.003392
v -0.103119 0.649338 0.083481
v -0.108393 0.651333 -0.087799
v -0.135275 0.564269 0.003117
v -0.125693 0.564570 0.028793
v -0.127542 0.563440 -0.023164
v 0.131085 0.954634 -0.056779
v 0.074307 0.954634 0.000000
v 0.131085 0.954634 0.056779
v 0.187864 0.954634 0.000000
v 0.088593 0.942650 0.042492
v 0.088593 0.942650 -0.042492
v 0.173578 0.942650 -0.042492
v 0.173578 0.942650 0.042492
v 0.131085 1.029450 0.000000
v 0.131085 1.017842 -0.042777
v 0.088308 1.017842 0.000000
v 0.131085 1.017842 0.042777
v 0.173862 1.017842 0.000000
v 0.099072 1.008813 0.032014
v 0.099072 1.008813 -0.032013
v 0.163099 1.008813 -0.032013
v 0.163099 1.008813 0.032014
v -0.117207 0.709183 -0.000186
v 0.131085 0.709595 -0.248199
v 0.379215 0.709967 -0.000039
v 0.132501 0.715421 0.236683
v -0.054401 0.712968 0.175383
v -0.050724 0.905344 -0.000031
v -0.055928 0.708531 -0.186603
v 0.131085 0.905330 -0.181824
v 0.317901 0.708881 -0.186651
v 0.312901 0.905338 -0.000017
v 0.319107 0.711469 0.175091
v 0.131088 0.905497 0.181650
v -0.004291 0.854909 0.135174
v -0.004278 0.854726 -0.135364
v 0.266467 0.854886 0.135190
v 0.266449 0.854726 -0.135364
v 0.131975 0.638578 0.245142
v 0.041075 0.636189 0.214720
v 0.222627 0.633838 0.214262
v 0.131708 0.538519 0.254619
v 0.113029 0.538005 0.247886
v 0.150379 0.537454 0.247800
v 0.375581 0.621594 -0.000026
v 0.352515 0.621300 -0.067341
v 0.352534 0.621248 0.067273
v 0.362373 0.543412 0.000000
v 0.354620 0.543321 -0.021448
v 0.354620 0.543321 0.021448
v 0.131085 0.589954 -0.251618
v 0.076214 0.589671 -0.232725
v 0.185957 0.589671 -0.232725
v 0.131085 0.520753 -0.244064
v 0.110444 0.520692 -0.236584
v 0.151727 0.520692 -0.236584
v -0.122237 0.653248 -0.003483
v -0.092761 0.648619 0.079792
v -0.097938 0.650213 -0.084504
v -0.124266 0.564018 0.002712
v -0.115315 0.564121 0.025116
v -0.116971 0.563425 -0.020053
v 0.131085 0.947251 -0.048599
v 0.082487 0.947251 0.000000
v 0.131085 0.947251 0.048599
v 0.179684 0.947251 0.000000
v 0.094168 0.934952 0.036917
v 0.094168 0.934952 -0.036917
v 0.168002 0.934952 -0.036917
v 0.168002 0.934952 0.036917
v 0.131085 1.018431 0.000000
v 0.131085 1.010441 -0.034613
v 0.096473 1.010441 0.000000
v 0.131085 1.010441 0.034613
v 0.165698 1.010441 0.000000
v 0.105698 1.003016 0.025387
v 0.105698 1.003016 -0.025387
v 0.156472 1.003016 -0.025387
v 0.156472 1.003016 0.025387
vn -0.9435 0.1052 0.3143
vn -0.8689 0.3543 0.3458
vn -0.8689 0.3543 -0.3458
vn -0.9435 0.1052 -0.3143
vn -0.3149 0.0710 -0.9465
vn -0.3458 0.3543 -0.8689
vn 0.3458 0.3543 -0.8689
vn 0.3175 0.0336 -0.9477
vn 0.9489 -0.0055 -0.3154
vn 0.8689 0.3543 -0.3458
vn 0.8689 0.3543 0.3458
vn 0.9489 -0.0055 0.3154
vn 0.3175 0.0336 0.9477
vn 0.3458 0.3543 0.8689
vn -0.3458 0.3543 0.8689
vn -0.3149 0.0710 0.9465
vn -0.3035 0.1480 -0.9413
vn 0.3226 0.0311 -0.9460
vn 0.3321 0.0165 -0.9431
vn -0.2732 0.2246 -0.9354
vn 0.3620 0.8590 -0.3620
vn -0.3620 0.8590 -0.3620
vn -0.3620 0.8590 0.3620
vn 0.3620 0.8590 0.3620
vn 0.8988 -0.3135 -0.3064
vn 0.8988 -0.3135 0.3064
vn 0.8142 -0.4926 0.3073
vn 0.8142 -0.4926 -0.3073
vn -0.9140 0.2628 0.3091
vn -0.9140 0.2628 -0.3091
vn -0.8532 0.4236 -0.3042
vn -0.8532 0.4236 0.3042
vn 0.9461 -0.0801 -0.3138
vn 0.9461 -0.0801 0.3138
vn 0.9327 -0.1828 0.3109
vn 0.9327 -0.1828 -0.3109
vn 0.3226 0.0311 0.9460
vn -0.3035 0.1480 0.9413
vn -0.2732 0.2246 0.9354
vn 0.3321 0.0165 0.9431
vn -0.2191 0.2999 -0.9285
vn 0.3430 -0.0138 -0.9392
vn 0.2881 -0.1421 -0.9470
vn -0.2427 0.2274 -0.9431
vn 0.3430 -0.0138 0.9392
vn -0.2191 0.2999 0.9285
vn -0.2427 0.2274 0.9431
vn 0.2881 -0.1421 0.9470
vn -0.7857 -0.5728 -0.2337
vn -0.4378 -0.8710 -0.2230
vn -0.4378 -0.8710 0.2230
vn -0.7857 -0.5728 0.2337
vn -0.9614 -0.0535 -0.2700
vn -0.9614 -0.0535 0.2700
vn -0.8610 0.4060 0.3064
vn -0.8610 0.4060 -0.3064
vn -0.2667 -0.7086 -0.6533
vn -0.6433 -0.3554 -0.6782
vn -0.4043 -0.0035 -0.9146
vn 0.0687 -0.4010 -0.9135
vn 0.0207 -0.9698 0.2432
vn 0.0207 -0.9698 -0.2432
vn 0.5452 -0.7832 -0.2990
vn 0.5452 -0.7832 0.2990
vn -0.6433 -0.3554 0.6782
vn -0.2667 -0.7086 0.6533
vn 0.0687 -0.4010 0.9135
vn -0.4043 -0.0035 0.9146
vn -0.7457 0.5951 0.2995
vn -0.7457 0.5951 -0.2995
vn -0.7391 0.5985 -0.3090
vn -0.7391 0.5985 0.3090
vn -0.8687 0.3450 0.3554
vn 0.8688 0.3492 0.3510
vn 0.3480 0.3117 0.8842
vn -0.3454 0.3088 0.8862
vn 0.4005 0.8695 -0.2892
vn 0.2892 0.8695 -0.4005
vn -0.4005 0.8695 0.2892
vn -0.2892 0.8695 -0.4005
vn -0.3135 0.1082 0.9434
vn 0.3180 0.0998 0.9428
vn -0.3127 0.0903 0.9456
vn 0.3197 0.0886 0.9434
vn 0.9453 -0.0291 0.3248
vn 0.9480 -0.0367 -0.3160
vn 0.9368 -0.1580 0.3123
vn 0.9368 -0.1580 -0.3123
vn 0.3161 0.0282 -0.9483
vn -0.3161 0.0282 -0.9483
vn 0.3146 -0.1026 -0.9437
vn -0.3146 -0.1026 -0.9437
vn -0.9426 0.1377 -0.3043
vn -0.9392 0.0751 0.3351
vn -0.9593 0.0014 -0.2823
vn -0.9418 0.0407 0.3337
vn -0.3627 0.2015 -0.9098
vn 0.9098 0.2015 -0.3627
vn 0.3627 0.2015 0.9098
vn -0.9098 0.2015 -0.3627
vn -0.2892 0.8695 0.4005
vn 0.4005 0.8695 0.2892
vn 0.2892 0.8695 0.4005
vn -0.4005 0.8695 -0.2892
vn 0.2933 0.9099 -0.2933
vn -0.2933 0.9099 -0.2933
vn -0.2933 0.9099 0.2933
vn 0.2933 0.9099 0.2933
vn -0.9098 0.2015 0.3627
vn -0.3627 0.2015 0.9098
vn 0.9098 0.2015 0.3627
vn 0.3627 0.2015 -0.9098
vn 0.8693 -0.3420 -0.3569
vn 0.8692 -0.3520 0.3471
vn 0.3477 -0.3515 0.8692
vn -0.3474 -0.3518 0.8692
vn -0.8691 -0.3522 0.3474
vn -0.8690 -0.3467 -0.3530
vn -0.3492 -0.3085 -0.8848
vn 0.3468 -0.3053 -0.8869
vn -0.4116 -0.8666 0.2820
vn -0.2820 -0.8666 0.4116
vn 0.4114 -0.8669 -0.2814
vn 0.2819 -0.8666 0.4117
vn 0.3135 -0.1000 -0.9443
vn -0.3176 -0.0915 -0.9438
vn 0.3220 -0.0864 -0.9428
vn -0.3288 -0.0846 -0.9406
vn -0.9452 0.0381 -0.3244
vn -0.9480 0.0466 0.3148
vn -0.9326 0.1612 -0.3229
vn -0.9325 0.1613 0.3231
vn -0.3158 -0.0221 0.9486
vn 0.3158 -0.0221 0.9486
vn -0.3274 0.1062 0.9389
vn 0.3274 0.1062 0.9389
vn 0.9443 -0.1260 0.3039
vn 0.9400 -0.0634 -0.3353
vn 0.9567 0.0024 0.2911
vn 0.9386 -0.0371 -0.3429
vn 0.3698 -0.2085 0.9054
vn -0.9054 -0.2085 0.3698
vn -0.3698 -0.2085 -0.9054
vn 0.9054 -0.2085 0.3698
vn 0.2820 -0.8669 -0.4112
vn -0.4115 -0.8669 -0.2814
vn -0.2820 -0.8668 -0.4112
vn 0.4116 -0.8666 0.2820
vn -0.2790 -0.9189 0.2790
vn 0.2790 -0.9189 0.2790
vn 0.2790 -0.9189 -0.2790
vn -0.2790 -0.9189 -0.2790
vn 0.9054 -0.2085 -0.3698
vn 0.3698 -0.2085 -0.9054
vn -0.9054 -0.2085 -0.3698
vn -0.3698 -0.2085 0.9054
vn -0.5751 -0.8029 -0.1569
vn 0.5680 -0.8039 -0.1764
vn -0.0196 -0.9951 0.0971
vn -0.0060 -0.9956 0.0937
vn -0.7609 -0.6209 -0.1884
vn 0.7521 -0.6304 -0.1925
vn -0.2573 -0.7792 0.5716
vn -0.2330 -0.8147 -0.5310
vn -0.1571 -0.9860 0.0564
vn -0.1571 -0.9860 -0.0564
vn -0.3312 -0.4829 0.8107
vn -0.3296 -0.4833 -0.8111
vn 0.5995 -0.7617 0.2458
vn -0.6055 -0.7627 0.2273
vn 0.0368 -0.9941 0.1022
vn -0.0368 -0.9941 0.1022
vn 0.8463 -0.4341 0.3087
vn -0.8463 -0.4341 0.3087
vn 0.0730 -0.8795 -0.4703
vn 0.1414 -0.8474 0.5118
vn -0.0289 -0.9994 0.0195
vn -0.0154 -0.9996 0.0243
vn 0.2006 -0.6102 -0.7664
vn 0.2459 -0.5714 0.7829
usemtl Purple
s off
f 1//1 19//1 55//1 20//1
f 1//2 20//2 56//2 21//2
f 1//3 21//3 58//3 22//3
f 1//4 22//4 57//4 19//4
f 2//5 23//5 57//5 22//5
f 2//6 22//6 58//6 24//6
f 2//7 24//7 62//7 25//7
f 2//8 25//8 61//8 23//8
f 3//9 26//9 61//9 25//9
f 3//10 25//10 62//10 27//10
f 3//11 27//11 60//11 28//11
f 3//12 28//12 59//12 26//12
f 4//13 29//13 59//13 28//13
f 4//14 28//14 60//14 30//14
f 4//15 30//15 56//15 20//15
f 4//16 20//16 55//16 29//16
f 5//17 36//17 57//17 23//17
f 5//18 23//18 61//18 35//18
f 5//19 35//19 65//19 32//19
f 5//20 32//20 63//20 36//20
f 6//21 27//21 62//21 24//21
f 6//22 24//22 58//22 21//22
f 6//23 21//23 56//23 30//23
f 6//24 30//24 60//24 27//24
f 7//25 53//25 65//25 33//25
f 7//26 33//26 66//26 54//26
f 7//27 54//27 73//27 48//27
f 7//28 48//28 71//28 53//28
f 8//29 37//29 55//29 19//29
f 8//30 19//30 57//30 36//30
f 8//31 36//31 63//31 31//31
f 8//32 31//32 64//32 37//32
f 9//33 35//33 61//33 26//33
f 9//34 26//34 59//34 38//34
f 9//35 38//35 66//35 33//35
f 9//36 33//36 65//36 35//36
f 10//37 38//37 59//37 29//37
f 10//38 29//38 55//38 37//38
f 10//39 37//39 64//39 34//39
f 10//40 34//40 66//40 38//40
f 11//41 52//41 63//41 32//41
f 11//42 32//42 65//42 53//42
f 11//43 53//43 71//43 45//43
f 11//44 45//44 67//44 52//44
f 12//45 54//45 66//45 34//45
f 12//46 34//46 64//46 51//46
f 12//47 51//47 70//47 50//47
f 12//48 50//48 73//48 54//48
f 13//49 40//49 68//49 44//49
f 13//50 44//50 72//50 47//50
f 13//51 47//51 74//51 49//51
f 13//52 49//52 69//52 40//52
f 14//53 39//53 68//53 40//53
f 14//54 40//54 69//54 41//54
f 14//55 41//55 70//55 42//55
f 14//56 42//56 67//56 39//56
f 15//57 43//57 72//57 44//57
f 15//58 44//58 68//58 39//58
f 15//59 39//59 67//59 45//59
f 15//60 45//60 71//60 43//60
f 16//61 46//61 74//61 47//61
f 16//62 47//62 72//62 43//62
f 16//63 43//63 71//63 48//63
f 16//64 48//64 73//64 46//64
f 17//65 41//65 69//65 49//65
f 17//66 49//66 74//66 46//66
f 17//67 46//67 73//67 50//67
f 17//68 50//68 70//68 41//68
f 18//69 51//69 64//69 31//69
f 18//70 31//70 63//70 52//70
f 18//71 52//71 67//71 42//71
f 18//72 42//72 70//72 51//72
usemtl DarkGreen
f 75//73 79//73 87//73 80//73
f 75//3 80//3 88//3 81//3
f 76//6 81//6 88//6 82//6
f 76//7 82//7 90//7 83//7
f 77//10 83//10 90//10 84//10
f 77//74 84//74 89//74 85//74
f 78//75 85//75 89//75 86//75
f 78//76 86//76 87//76 79//76
f 90//77 82//77 115//77 121//77
f 84//78 90//78 121//78 118//78
f 87//79 86//79 117//79 119//79
f 88//80 80//80 116//80 120//80
f 78//81 79//81 92//81 91//81
f 85//82 78//82 91//82 93//82
f 91//83 92//83 95//83 94//83
f 93//84 91//84 94//84 96//84
f 77//85 85//85 99//85 97//85
f 83//86 77//86 97//86 98//86
f 97//87 99//87 102//87 100//87
f 98//88 97//88 100//88 101//88
f 76//89 83//89 105//89 103//89
f 81//90 76//90 103//90 104//90
f 103//91 105//91 108//91 106//91
f 104//92 103//92 106//92 107//92
f 75//93 81//93 111//93 109//93
f 79//94 75//94 109//94 110//94
f 109//95 111//95 114//95 112//95
f 110//96 109//96 112//96 113//96
f 115//97 120//97 129//97 124//97
f 118//98 121//98 130//98 127//98
f 117//99 122//99 131//99 126//99
f 120//100 116//100 125//100 129//100
f 80//101 87//101 119//101 116//101
f 86//102 89//102 122//102 117//102
f 89//103 84//103 118//103 122//103
f 82//104 88//104 120//104 115//104
f 123//105 127//105 130//105 124//105
f 123//106 124//106 129//106 125//106
f 123//107 125//107 128//107 126//107
f 123//108 126//108 131//108 127//108
f 116//109 119//109 128//109 125//109
f 119//110 117//110 126//110 128//110
f 122//111 118//111 127//111 131//111
f 121//112 115//112 124//112 130//112
f 132//113 137//113 144//113 136//113
f 132//114 138//114 145//114 137//114
f 133//115 139//115 145//115 138//115
f 133//116 140//116 147//116 139//116
f 134//117 141//117 147//117 140//117
f 134//118 142//118 146//118 141//118
f 135//119 143//119 146//119 142//119
f 135//120 136//120 144//120 143//120
f 147//121 178//121 172//121 139//121
f 141//122 175//122 178//122 147//122
f 144//123 176//123 174//123 143//123
f 145//124 177//124 173//124 137//124
f 135//125 148//125 149//125 136//125
f 142//126 150//126 148//126 135//126
f 148//127 151//127 152//127 149//127
f 150//128 153//128 151//128 148//128
f 134//129 154//129 156//129 142//129
f 140//130 155//130 154//130 134//130
f 154//131 157//131 159//131 156//131
f 155//132 158//132 157//132 154//132
f 133//133 160//133 162//133 140//133
f 138//134 161//134 160//134 133//134
f 160//135 163//135 165//135 162//135
f 161//136 164//136 163//136 160//136
f 132//137 166//137 168//137 138//137
f 136//138 167//138 166//138 132//138
f 166//139 169//139 171//139 168//139
f 167//140 170//140 169//140 166//140
f 172//141 181//141 186//141 177//141
f 175//142 184//142 187//142 178//142
f 174//143 183//143 188//143 179//143
f 177//144 186//144 182//144 173//144
f 137//145 173//145 176//145 144//145
f 143//146 174//146 179//146 146//146
f 146//147 179//147 175//147 141//147
f 139//148 172//148 177//148 145//148
f 180//149 181//149 187//149 184//149
f 180//150 182//150 186//150 181//150
f 180//151 183//151 185//151 182//151
f 180//152 184//152 188//152 183//152
f 173//153 182//153 185//153 176//153
f 176//154 185//154 183//154 174//154
f 179//155 188//155 184//155 175//155
f 178//156 187//156 181//156 172//156
f 92//157 79//157 136//157 149//157
f 85//158 93//158 150//158 142//158
f 96//159 94//159 151//159 153//159
f 94//160 95//160 152//160 151//160
f 95//161 92//161 149//161 152//161
f 93//162 96//162 153//162 150//162
f 99//163 85//163 142//163 156//163
f 83//164 98//164 155//164 140//164
f 101//165 100//165 157//165 158//165
f 100//166 102//166 159//166 157//166
f 102//167 99//167 156//167 159//167
f 98//168 101//168 158//168 155//168
f 105//169 83//169 140//169 162//169
f 81//170 104//170 161//170 138//170
f 107//171 106//171 163//171 164//171
f 106//172 108//172 165//172 163//172
f 108//173 105//173 162//173 165//173
f 104//174 107//174 164//174 161//174
f 111//175 81//175 138//175 168//175
f 79//176 110//176 167//176 136//176
f 113//177 112//177 169//177 170//177
f 112//178 114//178 171//178 169//178
f 114//179 111//179 168//179 171//179
f 110//180 113//180 170//180 167//180
