# Blender v2.79 (sub 0) OBJ File: 'Fish.blend'
# www.blender.org
mtllib Fish.mtl
o Fish_Cube.085
v -0.489319 -0.020212 -0.378077
v 0.340886 -0.025727 0.375317
v -0.462546 -0.020251 0.300696
v 0.308481 -0.025559 -0.446513
v -0.091746 -0.023008 -0.444597
v -0.059523 -0.023176 0.372618
v -0.911197 -0.021827 -0.254453
v -0.608531 -0.017027 0.344132
v -1.205351 -0.020855 -0.155774
v -1.199963 -0.020787 -0.019171
v -1.558258 -0.042655 0.264465
v -1.421935 -0.031529 0.124208
v -1.351106 -0.026968 -0.116479
v -1.342476 -0.024770 -0.036266
v -1.865202 -0.070283 -0.308965
v -1.725137 -0.057509 -0.314550
v -1.706488 -0.055552 0.348300
v -1.658214 -0.051219 0.149780
v -1.557000 -0.042353 -0.058206
v -1.482923 -0.037711 -0.218293
v -1.728134 -0.057646 -0.178954
v 0.696333 -0.025116 -0.372565
v 0.986292 -0.023743 -0.271031
v 0.631451 -0.025489 0.337998
v 0.726995 -0.031008 0.353802
v 1.075741 -0.026342 -0.271986
v 1.316740 -0.023561 -0.007619
v 1.330496 -0.019337 -0.079981
v 1.334897 -0.019364 -0.044022
v 1.241856 -0.021686 0.084343
v 1.181857 -0.020130 0.137618
v 1.100194 -0.019382 0.193615
v 1.009895 -0.029540 -0.287918
v 0.635073 -0.031605 0.366513
v -0.115857 -0.024065 -0.536669
v 0.177941 -0.024689 0.374219
v 0.145610 -0.024521 -0.445734
v 0.179861 -0.010807 0.464667
v -0.001196 -0.024797 -0.557602
v 0.104458 -0.009871 0.475801
v 0.103779 -0.009868 0.436574
v 0.013644 -0.008821 0.458402
v -0.091105 -0.024221 -0.505006
v 0.144942 -0.025726 -0.509625
v -0.192109 -0.023581 -0.576188
v -0.101519 -0.024159 -0.583277
v -0.556164 -0.011688 -0.448195
v -0.734062 -0.014765 -0.376387
v -0.652244 -0.012372 -0.512652
v -0.708606 -0.014043 -0.469126
v -0.729500 -0.012977 -0.543968
v -0.743979 -0.014263 -0.534359
v -0.802466 -0.020008 0.193197
v -0.836611 -0.018294 0.247755
v -0.780479 -0.009456 0.376762
v -0.691191 -0.015732 0.371336
v -0.751345 -0.014912 0.342876
v -0.746965 -0.016465 0.285633
v 0.339249 0.104476 0.312744
v 0.311778 0.104618 -0.383953
v -0.464650 0.109848 0.238130
v -0.486467 0.109904 -0.315510
v -0.475419 0.144422 -0.047925
v 0.327435 0.139279 0.007520
v -0.088449 0.107169 -0.382037
v -0.061160 0.107027 0.310045
v -0.073946 0.141835 -0.019846
v -0.911123 0.075631 -0.197639
v -0.906666 0.092869 -0.072583
v -0.899570 0.076172 0.093475
v -1.205504 0.031580 -0.128555
v -1.203877 0.040915 -0.081716
v -1.202101 0.031583 -0.042219
v -1.500682 -0.023677 -0.078055
v -1.500527 -0.017955 -0.061728
v -1.499567 -0.023616 -0.049849
v -1.345105 0.005013 -0.038539
v -1.347386 0.000977 -0.104261
v -1.347072 0.012297 -0.072111
v -1.867301 -0.045839 -0.308926
v -1.726869 -0.037355 -0.314518
v -1.500031 -0.023649 -0.061601
v -1.559313 -0.030404 0.264484
v -1.660149 -0.038260 0.151780
v -1.558195 -0.028663 -0.058567
v -1.423385 -0.014681 0.124234
v -1.707543 -0.043302 0.348319
v -1.487743 -0.013582 -0.214446
v -1.511973 -0.024678 -0.060876
v -1.732581 -0.038636 -0.181376
v -1.618395 -0.030920 -0.186485
v -1.493165 -0.017793 -0.157302
v -1.538732 -0.027877 0.123017
v -1.450188 -0.017782 0.062992
v 0.712439 0.124211 0.011727
v 0.699461 0.089537 -0.311797
v 0.940103 0.074069 -0.249015
v 0.784653 0.119906 0.009562
v 0.714493 0.116901 0.065019
v 0.614345 0.093660 0.278718
v 0.844425 0.087446 -0.208818
v 0.726331 0.077047 0.319509
v 0.716760 0.153902 0.064361
v 0.609252 0.102139 0.218031
v 0.619136 0.094038 0.333813
v 1.057027 0.082116 -0.248067
v 1.105884 0.131710 -0.006021
v 1.310979 0.061857 -0.014376
v 1.329068 0.043043 -0.051030
v 1.236207 0.056299 0.076371
v 1.102332 0.070423 0.180041
v 1.180554 0.051583 0.131520
v 0.939721 0.098539 -0.248706
v 0.786331 0.158444 0.003216
v 0.843971 0.117585 -0.210301
v 0.612815 0.132276 0.217288
v 0.492852 0.144339 -0.053128
v 0.487215 0.143558 -0.204435
v 0.529709 0.161564 -0.051651
v 0.524018 0.161235 -0.202205
v 0.547087 0.124756 -0.049030
v 0.499809 0.126508 -0.051731
v 0.546425 0.109635 -0.199690
v 0.502458 0.111478 -0.203157
v 0.312420 0.225524 -0.172693
v 0.344567 0.225094 -0.089269
v 0.303429 0.191663 -0.176024
v 0.335143 0.191459 -0.091831
v 0.206996 0.232678 -0.100686
v 0.208540 0.196214 -0.103386
v 0.423340 0.179900 -0.202078
v 0.427783 0.180403 -0.073021
v 0.446285 0.208585 -0.199298
v 0.450981 0.208729 -0.071003
v -0.489209 0.028601 -0.378076
v 0.341198 0.023094 0.375315
v -0.462452 0.028563 0.300697
v 0.308792 0.023262 -0.446516
v -0.091435 0.025813 -0.444600
v -0.059212 0.025646 0.372616
v -0.911990 0.014825 -0.254442
v -0.608857 0.024596 0.344137
v -1.205810 -0.001184 -0.155768
v -1.200423 -0.001116 -0.019164
v -1.558654 -0.038061 0.264472
v -1.422479 -0.025211 0.124218
v -1.351987 -0.016694 -0.116463
v -1.343123 -0.017165 -0.036254
v -1.865989 -0.061117 -0.308950
v -1.725786 -0.049952 -0.314538
v -1.706883 -0.050958 0.348307
v -1.658635 -0.046332 0.149787
v -1.557443 -0.037219 -0.058198
v -1.483710 -0.028572 -0.218279
v -1.728754 -0.050418 -0.178943
v 0.696608 0.017883 -0.372567
v 0.986525 0.012824 -0.271033
v 0.631736 0.019150 0.337996
v 0.727342 0.023451 0.353799
v 1.076000 0.014283 -0.271987
v 1.316944 0.008456 -0.007621
v 1.330645 0.004050 -0.079982
v 1.335046 0.004024 -0.044023
v 1.242042 0.007544 0.084342
v 1.182028 0.006758 0.137617
v 1.100362 0.007056 0.193614
v 1.010200 0.018319 -0.287920
v 0.635435 0.025222 0.366510
v 0.148907 0.105656 -0.383173
v -0.115531 0.027169 -0.536671
v 0.176304 0.105514 0.311646
v 0.164094 0.140319 -0.003617
v 0.178252 0.024132 0.374216
v 0.145921 0.024300 -0.445736
v 0.179995 0.010235 0.464666
v -0.000869 0.026437 -0.557604
v 0.104587 0.010262 0.475800
v 0.103908 0.010264 0.436574
v 0.013766 0.010368 0.458402
v -0.090778 0.027012 -0.505008
v 0.145268 0.025508 -0.509627
v -0.191783 0.027653 -0.576191
v -0.101193 0.027075 -0.583280
v -0.556283 0.020327 -0.448192
v -0.734417 0.019695 -0.376382
v -0.652470 0.019642 -0.512648
v -0.708870 0.020309 -0.469121
v -0.729738 0.019036 -0.543964
v -0.744236 0.020082 -0.534355
v -0.803167 0.019423 0.193207
v -0.837187 0.017427 0.247764
v -0.780743 0.012247 0.376766
v -0.691600 0.021011 0.371342
v -0.751752 0.018414 0.342883
v -0.747456 0.019526 0.285641
v 1.164061 -0.020197 0.121687
v 1.083866 -0.019462 0.171994
v 0.717376 -0.030878 0.315904
v 1.222982 -0.021724 0.073826
v 1.296519 -0.023566 -0.008792
v 1.059853 -0.026296 -0.246296
v 1.310028 -0.019418 -0.073801
v 0.627106 -0.031465 0.327323
v 0.995190 -0.029437 -0.260609
v 0.972012 -0.023744 -0.245438
v 0.338209 -0.025693 0.335233
v 0.623550 -0.025459 0.301706
v 0.687266 -0.025093 -0.336655
v -1.174941 -0.020842 -0.019170
v -1.314893 -0.024753 -0.034528
v -1.180232 -0.020908 -0.141893
v -1.323367 -0.026912 -0.106591
v -0.891367 -0.021863 -0.230545
v -0.784590 -0.020076 0.171618
v 0.178193 -0.024673 0.334246
v 0.146443 -0.024508 -0.402389
v 0.306386 -0.025528 -0.403089
v -0.477072 -0.020277 -0.341607
v -0.086646 -0.023023 -0.401368
v -0.450780 -0.020315 0.268195
v -0.055002 -0.023187 0.332808
vn -0.1756 0.0007 0.9845
vn 0.3945 -0.0025 0.9189
vn 0.2352 -0.0015 -0.9719
vn 0.6019 -0.0039 -0.7985
vn 0.7754 -0.0049 0.6315
vn 0.8951 -0.0057 0.4458
vn 0.9926 -0.0063 -0.1215
vn 0.1370 -0.0008 0.9906
vn -0.5813 0.0037 -0.8137
vn 0.5655 -0.0036 0.8247
vn 0.6639 -0.0042 0.7478
vn -0.0067 0.0001 1.0000
vn -0.9918 0.0063 0.1273
vn 0.1274 -0.0008 0.9919
vn -0.1186 -0.0055 0.9929
vn -0.4711 -0.0095 0.8820
vn -0.1198 0.9859 0.1165
vn 0.0022 0.9938 0.1114
vn -0.1360 0.6019 0.7869
vn -0.0015 0.6095 0.7928
vn -0.0073 0.9937 0.1122
vn -0.1884 0.9733 0.1314
vn -0.4131 0.5467 0.7283
vn -0.1811 0.9427 0.2802
vn -0.9955 -0.0857 0.0396
vn -0.1742 0.9582 0.2268
vn -0.9900 0.1071 0.0920
vn -0.9810 -0.1588 0.1119
vn -0.8273 0.0602 -0.5585
vn -0.9654 -0.0125 -0.2603
vn -0.3834 -0.0257 -0.9232
vn -0.6390 -0.0379 -0.7682
vn 0.1140 0.6206 0.7758
vn 0.0630 0.9891 0.1332
vn 0.0387 0.9914 0.1254
vn 0.0490 0.9921 0.1151
vn 0.1624 0.4913 0.8557
vn 0.1880 0.9362 0.2970
vn 0.3111 0.9145 -0.2588
vn 0.1229 0.9685 -0.2165
vn 0.3174 0.8940 0.3163
vn 0.7581 0.1780 0.6273
vn 0.6709 0.1612 0.7238
vn 0.0882 0.9456 0.3132
vn 0.3571 0.3513 0.8655
vn 0.3450 0.8803 0.3256
vn 0.0774 0.9829 -0.1672
vn 0.5535 0.1465 0.8199
vn 0.9033 0.1751 0.3918
vn 0.5570 0.4520 -0.6968
vn 0.9843 0.1292 -0.1204
vn 0.2396 0.3818 -0.8927
vn -0.5227 -0.0640 -0.8501
vn -0.1039 0.4113 0.9056
vn -0.2677 0.6476 0.7134
vn 0.0023 0.9942 0.1072
vn 0.1258 0.9547 0.2696
vn 0.2091 0.9385 0.2748
vn 0.0732 0.4892 -0.8691
vn -0.0013 -1.0000 0.0018
vn -0.3574 -0.9136 -0.1941
vn 0.0029 -1.0000 -0.0032
vn 0.0261 -0.9996 -0.0122
vn 0.0266 -0.9979 -0.0590
vn 0.0422 -0.9987 0.0272
vn -0.0069 -1.0000 0.0005
vn -0.0055 -0.9981 -0.0619
vn -0.0041 -1.0000 0.0077
vn -0.0116 -0.9438 0.3305
vn 0.0059 -1.0000 -0.0048
vn 0.0010 -1.0000 0.0008
vn 0.1813 -0.9832 -0.0229
vn -0.0104 -0.9998 0.0183
vn -0.0072 -1.0000 -0.0006
vn 0.0007 -1.0000 -0.0009
vn -0.0029 -1.0000 0.0011
vn -0.0042 -0.9998 0.0177
vn -0.0048 -0.9996 0.0291
vn 0.0041 -1.0000 0.0019
vn -0.0005 -1.0000 0.0048
vn -0.0064 -1.0000 -0.0004
vn -0.9256 0.3241 0.1953
vn 0.0155 -0.9997 0.0166
vn -0.0064 -1.0000 0.0004
vn -0.2592 -0.0109 -0.9658
vn 0.3305 -0.0022 -0.9438
vn -0.1650 0.0007 -0.9863
vn -0.3180 -0.0068 -0.9481
vn 0.0092 0.9959 -0.0899
vn -0.2462 0.6270 -0.7391
vn 0.0014 0.9940 -0.1093
vn -0.1125 0.9857 -0.1255
vn -0.1728 0.9743 -0.1445
vn -0.2697 0.6452 -0.7148
vn -0.9955 -0.0857 0.0395
vn -0.2039 0.9242 -0.3229
vn -0.2627 0.6099 -0.7477
vn -0.2248 0.9440 -0.2413
vn 0.0923 0.9897 -0.1098
vn 0.0828 0.9899 -0.1155
vn 0.0403 0.9943 -0.0989
vn 0.0562 0.9935 -0.0987
vn 0.0474 0.9933 -0.1057
vn 0.0471 0.9946 -0.0922
vn 0.2630 0.5708 -0.7779
vn 0.0001 0.6096 -0.7927
vn 0.1616 0.6156 -0.7713
vn -0.1269 0.6076 -0.7840
vn 0.0093 0.9956 -0.0934
vn 0.1873 -0.0012 -0.9823
vn 0.0356 -0.9993 0.0089
vn -0.0008 -1.0000 0.0037
vn 0.0018 -1.0000 0.0015
vn -0.0071 -1.0000 0.0002
vn -0.0064 -1.0000 0.0001
vn 0.0010 -1.0000 -0.0004
vn -0.0085 -0.9999 -0.0106
vn 0.0318 -0.9995 0.0017
vn -0.0421 -0.9986 0.0316
vn 0.0163 -0.9998 0.0120
vn 0.0171 -0.9998 -0.0055
vn -0.9999 0.0064 -0.0107
vn -0.0061 -0.9998 0.0195
vn -0.0154 -0.9991 0.0395
vn 0.6077 0.0535 -0.7924
vn -0.0397 -0.0018 -0.9992
vn -0.8953 -0.0764 -0.4389
vn -0.9679 -0.0830 -0.2372
vn -0.5728 -0.0505 0.8182
vn 0.3668 0.0330 -0.9297
vn 0.4892 0.0407 0.8712
vn -0.6840 -0.0598 0.7270
vn 0.7134 0.0603 0.6982
vn 0.8923 0.0756 0.4450
vn -0.8480 -0.0143 -0.5298
vn 0.1461 -0.0009 0.9893
vn 0.7232 0.0001 -0.6906
vn -0.0064 -1.0000 0.0000
vn -0.0063 -0.9998 0.0189
vn -0.7878 0.0050 0.6159
vn -0.4601 0.0030 0.8878
vn -0.0780 0.0005 -0.9970
vn 0.4850 -0.0030 0.8745
vn -0.2353 0.0015 -0.9719
vn 0.3600 -0.0023 -0.9329
vn -0.6431 0.0041 -0.7658
vn -0.0116 -0.9999 0.0001
vn -0.0519 -0.9929 0.1073
vn 0.3119 -0.0020 -0.9501
vn -0.0073 -0.9884 0.1519
vn 0.2479 -0.0016 -0.9688
vn -0.1881 0.0012 0.9821
vn -0.5663 -0.0089 -0.8241
vn 0.5569 0.0031 -0.8306
vn -0.9642 -0.0086 -0.2652
vn -0.0228 -0.9953 -0.0939
vn 0.0257 -0.9994 -0.0214
vn 0.0165 -0.9998 -0.0077
vn -0.5527 -0.0040 -0.8334
vn 0.3756 0.0028 -0.9268
vn -0.8791 -0.0067 0.4767
vn 0.2848 0.0007 0.9586
vn -0.3889 -0.0060 0.9212
vn -0.0150 -0.9997 0.0183
vn -0.7590 -0.0091 -0.6511
vn -0.9971 -0.0129 -0.0755
vn 0.0056 -0.9994 0.0349
vn 0.3124 0.0028 0.9499
vn 0.0607 0.0005 0.9982
vn -0.0634 -0.9924 0.1053
vn 0.0066 0.9998 0.0194
vn -0.0321 0.9995 0.0070
vn -0.0720 0.9973 0.0163
vn -0.1484 0.9872 0.0587
vn 0.3550 0.1935 -0.9146
vn -0.1068 0.9931 0.0493
vn -0.5751 -0.0168 0.8179
vn -0.1836 0.9825 0.0306
vn -0.0632 0.9980 0.0069
vn -0.1198 0.9913 0.0548
vn -0.8953 -0.0792 -0.4383
vn -0.9661 -0.1034 -0.2364
vn -0.1486 0.9871 0.0592
vn 0.5514 0.3599 -0.7526
vn -0.1137 0.9935 0.0007
vn -0.6839 -0.0652 0.7267
vn -0.0837 0.9965 0.0055
vn -0.1098 0.9939 -0.0004
vn -0.0845 0.9964 0.0047
vn -0.1843 0.9824 0.0298
vn -0.0582 0.0474 0.9972
vn -0.9139 -0.4049 0.0302
vn -0.1061 -0.9942 0.0194
vn 0.9121 0.4081 -0.0402
vn 0.0728 -0.0125 -0.9973
vn -0.1794 0.1860 -0.9660
vn 0.1365 0.9904 -0.0224
vn -0.1801 0.0221 0.9834
vn -0.0894 -0.0646 0.9939
vn -0.5754 0.1302 -0.8074
vn -0.0386 -0.9992 0.0121
vn 0.0564 0.9983 -0.0166
vn -0.1750 0.1561 0.9721
vn 0.5186 0.8548 -0.0208
vn 0.0151 0.0882 -0.9960
vn -0.4917 -0.8705 0.0217
vn 0.4892 0.0408 0.8712
vn 0.8897 0.1093 0.4433
vn 0.0064 1.0000 -0.0000
vn 0.0065 0.9998 0.0188
vn 0.0012 1.0000 0.0000
vn -0.0392 0.9935 0.1072
vn 0.0053 0.9884 0.1518
vn -0.0365 0.9986 -0.0387
vn 0.0094 0.9998 -0.0196
vn -0.0001 1.0000 -0.0004
vn -0.0433 0.9990 0.0109
vn -0.0307 0.9994 0.0174
vn -0.0912 0.9906 0.1023
vn 0.0862 -0.9963 -0.0008
vn 0.0830 -0.9966 -0.0006
vn 0.0909 -0.9959 0.0010
vn 0.0819 -0.9966 0.0052
vn 0.0732 -0.9973 0.0050
vn 0.0842 -0.9964 0.0059
usemtl Bottom
s off
f 6//1 140//1 137//1 3//1
f 32//2 166//2 159//2 25//2
f 167//3 160//3 26//3 33//3
f 160//4 162//4 28//4 26//4
f 27//5 161//5 164//5 30//5
f 161//6 27//6 29//6 163//6
f 162//7 163//7 29//7 28//7
f 25//8 159//8 168//8 34//8
f 157//9 167//9 33//9 23//9
f 166//10 32//10 31//10 165//10
f 30//11 164//11 165//11 31//11
f 36//12 173//12 140//12 6//12
f 34//13 168//13 158//13 24//13
f 24//14 158//14 136//14 2//14
f 144//15 148//15 14//15 10//15
f 190//16 144//16 10//16 53//16
f 63//17 69//17 70//17 61//17
f 172//18 171//18 59//18 64//18
f 140//19 66//19 61//19 137//19
f 173//20 171//20 66//20 140//20
f 63//21 61//21 66//21 67//21
f 69//22 72//22 73//22 70//22
f 190//23 70//23 73//23 144//23
f 79//24 75//24 76//24 77//24
f 82//25 76//25 75//25
f 72//26 79//26 77//26 73//26
f 100//27 105//27 116//27 104//27
f 158//28 168//28 105//28 100//28
f 104//29 116//29 103//29 99//29
f 98//30 114//30 115//30 101//30
f 101//31 115//31 113//31 97//31
f 99//32 103//32 114//32 98//32
f 136//33 158//33 100//33 59//33
f 99//34 98//34 95//34
f 64//35 104//35 99//35 95//35
f 59//36 100//36 104//36 64//36
f 168//37 159//37 102//37 105//37
f 105//38 102//38 116//38
f 107//39 108//39 109//39 106//39
f 115//40 107//40 106//40 113//40
f 107//41 110//41 108//41
f 161//42 108//42 110//42 164//42
f 164//43 110//43 112//43 165//43
f 111//44 107//44 114//44
f 159//45 166//45 111//45 102//45
f 112//46 110//46 107//46 111//46
f 114//47 107//47 115//47
f 111//48 166//48 165//48 112//48
f 108//49 161//49 163//49 109//49
f 106//50 109//50 162//50 160//50
f 109//51 163//51 162//51
f 167//52 106//52 160//52
f 97//53 113//53 167//53 157//53
f 73//54 77//54 148//54 144//54
f 61//55 70//55 190//55 137//55
f 136//20 59//20 171//20 173//20
f 67//56 66//56 171//56 172//56
f 102//57 111//57 114//57 103//57
f 116//58 102//58 103//58
f 113//59 106//59 167//59
f 3//60 53//60 214//60 220//60
f 23//61 33//61 204//61 205//61
f 7//62 1//62 218//62 213//62
f 32//63 25//63 198//63 197//63
f 13//64 9//64 211//64 212//64
f 33//65 26//65 201//65 204//65
f 1//66 5//66 219//66 218//66
f 28//67 27//67 200//67 202//67
f 31//68 32//68 197//68 196//68
f 10//69 14//69 210//69 209//69
f 25//70 34//70 203//70 198//70
f 4//71 22//71 208//71 217//71
f 29//72 27//72 28//72
f 30//73 31//73 196//73 199//73
f 6//74 3//74 220//74 221//74
f 24//75 2//75 206//75 207//75
f 9//76 7//76 213//76 211//76
f 27//77 30//77 199//77 200//77
f 14//78 13//78 212//78 210//78
f 22//79 23//79 205//79 208//79
f 53//80 10//80 209//80 214//80
f 36//81 6//81 221//81 215//81
f 34//82 24//82 207//82 203//82
f 2//81 36//81 215//81 206//81
f 26//83 28//83 202//83 201//83
f 5//84 37//84 216//84 219//84
f 37//84 4//84 217//84 216//84
usemtl Top
f 13//85 147//85 143//85 9//85
f 156//86 157//86 23//86 22//86
f 139//87 5//87 1//87 135//87
f 9//88 143//88 141//88 7//88
f 169//89 172//89 64//89 60//89
f 135//90 141//90 68//90 62//90
f 62//91 63//91 67//91 65//91
f 62//92 68//92 69//92 63//92
f 68//93 71//93 72//93 69//93
f 141//94 143//94 71//94 68//94
f 74//95 82//95 75//95
f 78//96 74//96 75//96 79//96
f 143//97 147//97 78//97 71//97
f 71//98 78//98 79//98 72//98
f 96//99 101//99 97//99
f 95//100 98//100 101//100 96//100
f 121//101 122//101 64//101 95//101
f 60//102 124//102 123//102 96//102
f 121//103 95//103 96//103 123//103
f 64//104 122//104 124//104 60//104
f 96//105 97//105 157//105 156//105
f 169//106 174//106 139//106 65//106
f 60//107 96//107 156//107 138//107
f 65//108 139//108 135//108 62//108
f 60//106 138//106 174//106 169//106
f 65//109 67//109 172//109 169//109
f 138//110 156//110 22//110 4//110
f 210//111 212//111 211//111 209//111
f 211//112 213//112 214//112 209//112
f 213//113 218//113 220//113 214//113
f 219//114 221//114 220//114 218//114
f 215//115 221//115 219//115 216//115
f 206//115 215//115 216//115 217//115
f 207//116 206//116 217//116 208//116
f 198//117 203//117 207//117 208//117 205//117
f 197//118 198//118 205//118
f 196//119 197//119 205//119 204//119
f 199//120 196//120 204//120 201//120
f 200//121 199//121 201//121 202//121
usemtl Fins
f 139//122 180//122 43//122 5//122
f 37//123 5//123 43//123 44//123
f 53//124 3//124 8//124 58//124
f 20//125 154//125 147//125 13//125
f 15//126 149//126 150//126 16//126
f 18//127 152//127 153//127 19//127
f 17//128 151//128 152//128 18//128
f 19//129 153//129 155//129 21//129
f 16//130 150//130 154//130 20//130
f 145//131 151//131 17//131 11//131
f 21//132 155//132 149//132 15//132
f 146//133 145//133 11//133 12//133
f 148//134 146//134 12//134 14//134
f 54//135 191//135 190//135 53//135
f 175//136 177//136 40//136 38//136
f 47//137 184//137 135//137 1//137
f 35//138 45//138 46//138
f 4//139 37//139 44//139
f 180//140 170//140 35//140 43//140
f 170//141 182//141 45//141 35//141
f 183//142 46//142 45//142 182//142
f 2//143 136//143 175//143 38//143
f 42//144 179//144 178//144 41//144
f 138//145 4//145 44//145 181//145
f 41//146 178//146 173//146 36//146
f 41//147 40//147 42//147
f 36//148 38//148 40//148 41//148
f 39//149 176//149 181//149 44//149
f 36//150 2//150 38//150
f 44//138 43//138 39//138
f 46//151 183//151 176//151 39//151
f 177//152 179//152 42//152 40//152
f 141//153 185//153 48//153 7//153
f 43//138 35//138 46//138 39//138
f 49//154 186//154 184//154 47//154
f 185//155 187//155 50//155 48//155
f 1//156 7//156 48//156 47//156
f 49//157 50//157 52//157 51//157
f 47//158 48//158 50//158 49//158
f 52//159 189//159 188//159 51//159
f 51//160 188//160 186//160 49//160
f 187//161 189//161 52//161 50//161
f 137//162 142//162 8//162 3//162
f 191//163 54//163 58//163 195//163
f 58//164 8//164 56//164 57//164
f 55//165 192//165 194//165 57//165
f 57//166 194//166 195//166 58//166
f 54//167 53//167 58//167
f 142//168 193//168 56//168 8//168
f 193//169 192//169 55//169 56//169
f 57//170 56//170 55//170
f 174//171 181//171 180//171 139//171
f 190//172 195//172 142//172 137//172
f 89//173 91//173 90//173 85//173
f 150//126 149//126 80//126 81//126
f 88//174 92//174 78//174
f 154//175 150//175 81//175 88//175
f 74//176 92//176 91//176 89//176 82//176
f 155//177 153//177 85//177 90//177
f 77//178 94//178 86//178
f 91//179 81//179 80//179 90//179
f 92//180 88//180 81//180 91//180
f 153//181 152//181 84//181 85//181
f 152//182 151//182 87//182 84//182
f 78//183 92//183 74//183
f 147//184 154//184 88//184 78//184
f 94//185 93//185 83//185 86//185
f 149//186 155//186 90//186 80//186
f 84//187 87//187 83//187 93//187
f 76//188 82//188 89//188 93//188 94//188
f 85//189 84//189 93//189 89//189
f 76//190 94//190 77//190
f 121//191 119//191 117//191 122//191
f 122//192 117//192 118//192 124//192
f 132//193 128//193 127//193 131//193
f 123//194 120//194 119//194 121//194
f 124//195 118//195 120//195 123//195
f 131//196 127//196 125//196 133//196
f 133//197 125//197 126//197 134//197
f 134//198 126//198 128//198 132//198
f 126//199 129//199 130//199 128//199
f 127//200 130//200 129//200 125//200
f 128//201 130//201 127//201
f 125//202 129//202 126//202
f 119//203 134//203 132//203 117//203
f 120//204 133//204 134//204 119//204
f 118//205 131//205 133//205 120//205
f 117//206 132//206 131//206 118//206
f 83//207 87//207 151//207 145//207
f 77//208 86//208 146//208 148//208
f 86//133 83//133 145//133 146//133
f 170//209 183//209 182//209
f 138//210 181//210 174//210
f 178//211 179//211 177//211
f 173//212 178//212 177//212 175//212
f 173//213 175//213 136//213
f 181//209 176//209 180//209
f 180//209 176//209 183//209 170//209
f 135//214 184//214 185//214 141//214
f 186//215 188//215 189//215 187//215
f 184//216 186//216 187//216 185//216
f 195//217 194//217 193//217 142//217
f 191//218 195//218 190//218
f 194//219 192//219 193//219
f 17//220 18//220 11//220
f 18//221 19//221 12//221 11//221
f 15//222 16//222 21//222
f 21//223 16//223 20//223 19//223
f 12//224 19//224 20//224
f 20//225 13//225 14//225 12//225
