# Blender v2.79 (sub 0) OBJ File: 'PeanutButter_2.blend'
# www.blender.org
mtllib PeanutButter_2.mtl
o PeanutButter_2_Cylinder.042
v 0.222376 0.538559 0.000000
v 0.179906 0.538559 0.130709
v 0.068718 0.538559 0.211492
v -0.068718 0.538559 0.211492
v -0.179906 0.538559 0.130709
v -0.222376 0.538559 -0.000000
v -0.179906 0.538559 -0.130709
v -0.068718 0.538559 -0.211492
v 0.068718 0.538559 -0.211492
v 0.179906 0.538559 -0.130709
v 0.162631 -0.002103 0.000000
v 0.222376 0.054718 0.000000
v 0.131571 -0.002103 0.095592
v 0.179906 0.054718 0.130709
v 0.050256 -0.002103 0.154671
v 0.068718 0.054718 0.211492
v -0.050256 -0.002103 0.154671
v -0.068718 0.054718 0.211492
v -0.131571 -0.002103 0.095592
v -0.179906 0.054718 0.130709
v -0.162631 -0.002103 0.000000
v -0.222376 0.054718 -0.000000
v -0.131571 -0.002103 -0.095592
v -0.179906 0.054718 -0.130709
v -0.050256 -0.002103 -0.154671
v -0.068718 0.054718 -0.211492
v 0.050256 -0.002103 -0.154671
v 0.068718 0.054718 -0.211492
v 0.131571 -0.002103 -0.095592
v 0.179906 0.054718 -0.130709
v 0.230633 0.146473 0.000000
v 0.186586 0.146473 0.135563
v 0.186586 0.146473 -0.135563
v 0.071270 0.146473 0.219345
v -0.071270 0.146473 0.219345
v -0.186586 0.146473 0.135563
v -0.230633 0.146473 -0.000000
v -0.186586 0.146473 -0.135563
v -0.071270 0.146473 -0.219345
v 0.071270 0.146473 -0.219345
v 0.230633 0.479688 0.000000
v 0.186586 0.479688 -0.135563
v 0.186586 0.479688 0.135563
v 0.071270 0.479688 0.219345
v -0.071270 0.479688 0.219345
v -0.186586 0.479688 0.135563
v -0.230633 0.479688 -0.000000
v -0.186586 0.479688 -0.135563
v -0.071270 0.479688 -0.219345
v 0.071270 0.479688 -0.219345
v 0.162483 0.615291 0.118051
v 0.200840 0.615291 0.000000
v 0.062063 0.615291 0.191010
v -0.062063 0.615291 0.191010
v -0.162483 0.615291 0.118051
v -0.200840 0.615291 0.000000
v -0.162483 0.615291 -0.118051
v -0.062063 0.615291 -0.191010
v 0.062063 0.615291 -0.191010
v 0.162483 0.615291 -0.118051
v 0.162483 0.722156 0.118051
v 0.200840 0.722156 0.000000
v 0.062063 0.722156 0.191010
v -0.062063 0.722156 0.191010
v -0.162483 0.722156 0.118051
v -0.200840 0.722156 0.000000
v -0.162483 0.722156 -0.118051
v -0.062063 0.722156 -0.191010
v 0.062063 0.722156 -0.191010
v 0.162483 0.722156 -0.118051
v 0.191983 0.473111 0.139484
v 0.191983 0.153050 0.139484
v 0.073331 0.473111 0.225689
v 0.073331 0.153050 0.225689
v -0.073331 0.473111 0.225689
v -0.073331 0.153050 0.225689
v -0.191983 0.473111 0.139484
v -0.191983 0.153050 0.139484
v -0.237304 0.473111 -0.000000
v -0.237304 0.153050 -0.000000
v -0.191983 0.473111 -0.139484
v -0.191983 0.153050 -0.139484
v -0.073331 0.473111 -0.225689
v -0.073331 0.153050 -0.225689
v 0.073331 0.473111 -0.225689
v 0.073331 0.153050 -0.225689
v 0.237304 0.153050 0.000000
v 0.191983 0.153050 -0.139484
v 0.237304 0.473111 0.000000
v 0.191983 0.473111 -0.139484
v 0.140461 0.722156 0.102051
v 0.173620 0.722156 0.000000
v 0.053651 0.722156 0.165122
v -0.053651 0.722156 0.165122
v -0.140461 0.722156 0.102051
v -0.173620 0.722156 0.000000
v -0.140461 0.722156 -0.102051
v -0.053651 0.722156 -0.165122
v 0.053651 0.722156 -0.165122
v 0.140461 0.722156 -0.102051
v 0.140461 0.715922 0.102051
v 0.173620 0.715922 0.000000
v 0.053651 0.715922 0.165122
v -0.053651 0.715922 0.165122
v -0.140461 0.715922 0.102051
v -0.173620 0.715922 0.000000
v -0.140461 0.715922 -0.102051
v -0.053651 0.715922 -0.165122
v 0.053651 0.715922 -0.165122
v 0.140461 0.715922 -0.102051
vn 0.9427 0.1322 -0.3063
vn 0.0000 0.1322 0.9912
vn -0.5826 0.1322 0.8019
vn -0.9427 0.1322 0.3063
vn -0.9427 0.1322 -0.3063
vn -0.5826 0.1322 -0.8019
vn 0.0000 0.1322 -0.9912
vn 0.5826 0.1322 -0.8019
vn 0.5679 0.2579 0.7816
vn 0.5826 0.1322 0.8019
vn 0.9427 0.1322 0.3063
vn 0.6725 -0.7071 0.2185
vn 0.4156 -0.7071 0.5721
vn 0.0000 -0.7071 0.7071
vn -0.4156 -0.7071 0.5721
vn -0.6725 -0.7071 0.2185
vn -0.6725 -0.7071 -0.2185
vn -0.4156 -0.7071 -0.5721
vn 0.0000 -0.7071 -0.7071
vn 0.4156 -0.7071 -0.5721
vn 0.6725 -0.7071 -0.2185
vn 0.0000 -1.0000 0.0000
vn 0.9476 -0.0853 0.3079
vn 0.5856 -0.0853 0.8061
vn 0.5856 -0.0853 -0.8061
vn 0.0000 -0.0853 -0.9964
vn -0.5856 -0.0853 -0.8061
vn -0.9476 -0.0853 -0.3079
vn -0.9476 -0.0853 0.3079
vn -0.5856 -0.0853 0.8061
vn 0.0000 -0.0853 0.9964
vn 0.9476 -0.0853 -0.3079
vn 0.5679 0.2579 -0.7816
vn -0.9189 0.2579 -0.2986
vn 0.0000 0.2579 0.9662
vn 0.9189 0.2579 -0.2986
vn -0.5679 0.2579 -0.7816
vn -0.5679 0.2579 0.7816
vn 0.9189 0.2579 0.2986
vn 0.0000 0.2579 -0.9662
vn -0.9189 0.2579 0.2986
vn 0.4230 -0.6943 -0.5823
vn -0.4230 0.6943 -0.5823
vn 0.6845 -0.6943 -0.2224
vn 0.4230 -0.6943 0.5823
vn 0.0000 0.6943 -0.7197
vn 0.0000 -0.6943 0.7197
vn 0.6845 -0.6943 0.2224
vn 0.4230 0.6943 -0.5823
vn -0.4230 -0.6943 0.5823
vn 0.6845 0.6943 -0.2224
vn 0.9511 0.0000 0.3090
vn 0.5878 0.0000 0.8090
vn 0.5878 0.0000 -0.8090
vn 0.0000 0.0000 -1.0000
vn -0.5878 0.0000 -0.8090
vn -0.9511 0.0000 -0.3090
vn -0.9511 0.0000 0.3090
vn -0.5878 0.0000 0.8090
vn 0.0000 0.0000 1.0000
vn 0.9511 0.0000 -0.3090
vn -0.6845 0.6943 -0.2224
vn 0.0000 -0.6943 -0.7197
vn -0.6845 0.6943 0.2224
vn -0.4230 -0.6943 -0.5823
vn -0.4230 0.6943 0.5823
vn -0.6845 -0.6943 -0.2224
vn 0.6845 0.6943 0.2224
vn 0.0000 0.6943 0.7197
vn -0.6845 -0.6943 0.2224
vn 0.4230 0.6943 0.5823
vn 0.0000 1.0000 0.0000
usemtl LightYellow
s off
f 42//1 10//1 1//1 41//1
f 44//2 3//2 4//2 45//2
f 45//3 4//3 5//3 46//3
f 46//4 5//4 6//4 47//4
f 47//5 6//5 7//5 48//5
f 48//6 7//6 8//6 49//6
f 49//7 8//7 9//7 50//7
f 50//8 9//8 10//8 42//8
f 3//9 2//9 51//9 53//9
f 43//10 2//10 3//10 44//10
f 41//11 1//11 2//11 43//11
f 12//12 14//12 13//12 11//12
f 14//13 16//13 15//13 13//13
f 16//14 18//14 17//14 15//14
f 18//15 20//15 19//15 17//15
f 20//16 22//16 21//16 19//16
f 22//17 24//17 23//17 21//17
f 24//18 26//18 25//18 23//18
f 26//19 28//19 27//19 25//19
f 28//20 30//20 29//20 27//20
f 30//21 12//21 11//21 29//21
f 11//22 13//22 15//22 17//22 19//22 21//22 23//22 25//22 27//22 29//22
f 12//23 31//23 32//23 14//23
f 14//24 32//24 34//24 16//24
f 28//25 40//25 33//25 30//25
f 26//26 39//26 40//26 28//26
f 24//27 38//27 39//27 26//27
f 22//28 37//28 38//28 24//28
f 20//29 36//29 37//29 22//29
f 18//30 35//30 36//30 20//30
f 16//31 34//31 35//31 18//31
f 30//32 33//32 31//32 12//32
f 10//33 9//33 59//33 60//33
f 7//34 6//34 56//34 57//34
f 4//35 3//35 53//35 54//35
f 1//36 10//36 60//36 52//36
f 8//37 7//37 57//37 58//37
f 5//38 4//38 54//38 55//38
f 2//39 1//39 52//39 51//39
f 9//40 8//40 58//40 59//40
f 6//41 5//41 55//41 56//41
usemtl Blue
f 33//42 40//42 86//42 88//42
f 48//43 49//43 83//43 81//43
f 31//44 33//44 88//44 87//44
f 34//45 32//45 72//45 74//45
f 49//46 50//46 85//46 83//46
f 35//47 34//47 74//47 76//47
f 32//48 31//48 87//48 72//48
f 50//49 42//49 90//49 85//49
f 36//50 35//50 76//50 78//50
f 42//51 41//51 89//51 90//51
f 87//52 89//52 71//52 72//52
f 72//53 71//53 73//53 74//53
f 86//54 85//54 90//54 88//54
f 84//55 83//55 85//55 86//55
f 82//56 81//56 83//56 84//56
f 80//57 79//57 81//57 82//57
f 78//58 77//58 79//58 80//58
f 76//59 75//59 77//59 78//59
f 74//60 73//60 75//60 76//60
f 88//61 90//61 89//61 87//61
f 47//62 48//62 81//62 79//62
f 40//63 39//63 84//63 86//63
f 46//64 47//64 79//64 77//64
f 39//65 38//65 82//65 84//65
f 45//66 46//66 77//66 75//66
f 38//67 37//67 80//67 82//67
f 41//68 43//68 71//68 89//68
f 44//69 45//69 75//69 73//69
f 37//70 36//70 78//70 80//70
f 43//71 44//71 73//71 71//71
usemtl Brown
f 55//59 54//59 64//59 65//59
f 66//72 65//72 95//72 96//72
f 51//52 52//52 62//52 61//52
f 59//55 58//55 68//55 69//55
f 56//58 55//58 65//58 66//58
f 53//53 51//53 61//53 63//53
f 60//54 59//54 69//54 70//54
f 57//57 56//57 66//57 67//57
f 54//60 53//60 63//60 64//60
f 52//61 60//61 70//61 62//61
f 58//56 57//56 67//56 68//56
f 94//55 93//55 103//55 104//55
f 63//72 61//72 91//72 93//72
f 70//72 69//72 99//72 100//72
f 67//72 66//72 96//72 97//72
f 64//72 63//72 93//72 94//72
f 62//72 70//72 100//72 92//72
f 68//72 67//72 97//72 98//72
f 65//72 64//72 94//72 95//72
f 61//72 62//72 92//72 91//72
f 69//72 68//72 98//72 99//72
f 101//72 102//72 110//72 109//72 108//72 107//72 106//72 105//72 104//72 103//72
f 92//58 100//58 110//58 102//58
f 98//53 97//53 107//53 108//53
f 95//54 94//54 104//54 105//54
f 91//57 92//57 102//57 101//57
f 99//60 98//60 108//60 109//60
f 96//61 95//61 105//61 106//61
f 93//56 91//56 101//56 103//56
f 100//59 99//59 109//59 110//59
f 97//52 96//52 106//52 107//52
