# Blender v2.79 (sub 0) OBJ File: 'Plate.blend'
# www.blender.org
mtllib Plate.mtl
o Plate_Cylinder.020
v 0.340643 0.072328 -0.468854
v 0.000000 0.072328 -0.579536
v 0.551171 0.072328 -0.179086
v 0.551171 0.072328 0.179086
v 0.340643 0.072328 0.468854
v -0.000000 0.072328 0.579536
v -0.340643 0.072328 0.468854
v -0.551171 0.072328 0.179086
v -0.551171 0.072328 -0.179086
v -0.340642 0.072328 -0.468854
v -0.000000 0.008435 -0.306185
v 0.000000 0.107911 -0.748675
v -0.000000 0.041538 -0.523468
v 0.440060 0.107911 -0.605690
v 0.179971 0.008435 -0.247709
v 0.307687 0.041538 -0.423494
v 0.712032 0.107911 -0.231353
v 0.291199 0.008435 -0.094616
v 0.497847 0.041538 -0.161760
v 0.712032 0.107911 0.231353
v 0.291199 0.008435 0.094616
v 0.497847 0.041538 0.161760
v 0.440060 0.107911 0.605690
v 0.179971 0.008435 0.247709
v 0.307687 0.041538 0.423494
v -0.000000 0.107911 0.748675
v -0.000000 0.008435 0.306185
v -0.000000 0.041538 0.523468
v -0.440060 0.107911 0.605690
v -0.179971 0.008435 0.247709
v -0.307687 0.041538 0.423494
v -0.712032 0.107911 0.231353
v -0.291199 0.008435 0.094616
v -0.497847 0.041538 0.161760
v -0.712032 0.107911 -0.231353
v -0.291199 0.008435 -0.094616
v -0.497847 0.041538 -0.161760
v -0.440060 0.107911 -0.605691
v -0.179971 0.008435 -0.247709
v -0.307686 0.041538 -0.423494
v 0.000000 0.211080 -0.913362
v 0.000000 0.263166 -0.889602
v 0.522895 0.263166 -0.719703
v 0.536861 0.211080 -0.738926
v 0.846062 0.263166 -0.274902
v 0.868659 0.211080 -0.282244
v 0.846062 0.263166 0.274902
v 0.868659 0.211080 0.282244
v 0.522895 0.263166 0.719703
v 0.536861 0.211080 0.738926
v -0.000000 0.263166 0.889602
v -0.000000 0.211080 0.913362
v -0.522895 0.263166 0.719703
v -0.536861 0.211080 0.738925
v -0.846062 0.263166 0.274902
v -0.868659 0.211080 0.282245
v -0.846062 0.263166 -0.274902
v -0.868659 0.211080 -0.282245
v -0.522895 0.263166 -0.719703
v -0.536861 0.211080 -0.738926
v 0.454084 0.211080 -0.624993
v 0.496705 0.251308 -0.683655
v 0.000000 0.251308 -0.845044
v 0.000000 0.211080 -0.772534
v 0.734723 0.211080 -0.238726
v 0.803685 0.251308 -0.261133
v 0.734723 0.211080 0.238726
v 0.803685 0.251308 0.261133
v 0.454084 0.211080 0.624993
v 0.496705 0.251308 0.683655
v -0.000000 0.211080 0.772534
v -0.000000 0.251308 0.845044
v -0.454084 0.211080 0.624993
v -0.496705 0.251308 0.683655
v -0.734723 0.211080 0.238726
v -0.803685 0.251308 0.261133
v -0.734723 0.211080 -0.238726
v -0.803685 0.251308 -0.261133
v -0.454084 0.211080 -0.624993
v -0.496704 0.251308 -0.683656
vn 0.0833 0.9630 0.2563
vn 0.2835 0.3980 0.8725
vn 0.0833 0.9630 -0.2563
vn 0.2180 0.9630 -0.1584
vn 0.2695 0.9630 0.0000
vn 0.2180 0.9630 0.1584
vn -0.1863 0.7977 0.5735
vn -0.2180 0.9630 -0.1584
vn -0.2695 0.9630 0.0000
vn 0.4450 -0.8351 -0.3233
vn -0.4879 0.7977 -0.3544
vn -0.2180 0.9630 0.1584
vn -0.4450 -0.8351 -0.3233
vn -0.5501 -0.8351 0.0000
vn -0.4450 -0.8351 0.3233
vn -0.1700 -0.8351 0.5232
vn 0.4450 -0.8351 0.3233
vn -0.1700 -0.8351 -0.5232
vn 0.5501 -0.8351 0.0000
vn 0.0000 1.0000 -0.0000
vn -0.6030 0.7977 0.0000
vn 0.6030 0.7977 0.0000
vn -0.1557 0.8638 -0.4792
vn -0.4879 0.7977 0.3544
vn 0.4879 0.7977 0.3544
vn 0.1863 0.7977 -0.5735
vn 0.1863 0.7977 0.5735
vn 0.4879 0.7977 -0.3544
vn 0.1700 -0.8351 -0.5232
vn 0.0915 -0.9552 -0.2815
vn 0.0489 -0.9874 -0.1504
vn 0.2395 -0.9552 -0.1740
vn 0.1280 -0.9874 -0.0930
vn 0.2960 -0.9552 0.0000
vn 0.1582 -0.9874 0.0000
vn 0.2395 -0.9552 0.1740
vn 0.1280 -0.9874 0.0930
vn 0.1700 -0.8351 0.5232
vn 0.0915 -0.9552 0.2815
vn -0.0915 -0.9552 0.2815
vn -0.0489 -0.9874 0.1504
vn -0.2395 -0.9552 0.1740
vn -0.1280 -0.9874 0.0930
vn -0.2960 -0.9552 0.0000
vn -0.1582 -0.9874 0.0000
vn -0.2395 -0.9552 -0.1740
vn -0.1280 -0.9874 -0.0930
vn -0.0915 -0.9552 -0.2815
vn -0.0489 -0.9874 -0.1504
vn 0.0000 -1.0000 0.0000
vn 0.2835 0.3980 -0.8725
vn 0.7422 0.3980 -0.5392
vn 0.9174 0.3980 0.0000
vn 0.7422 0.3980 0.5392
vn -0.2835 0.3980 0.8725
vn -0.7422 0.3980 0.5392
vn -0.9174 0.3980 0.0000
vn -0.7422 0.3980 -0.5392
vn -0.2835 0.3980 -0.8725
vn -0.1557 0.8638 0.4792
vn -0.4076 0.8638 0.2962
vn -0.5039 0.8638 0.0000
vn -0.4076 0.8638 -0.2962
vn -0.0833 0.9630 -0.2563
vn 0.1557 0.8638 -0.4792
vn 0.4076 0.8638 -0.2962
vn 0.5039 0.8638 0.0000
vn 0.4076 0.8638 0.2962
vn 0.1557 0.8638 0.4792
vn -0.0833 0.9630 0.2563
vn 0.0489 -0.9874 0.1504
vn -0.1863 0.7977 -0.5735
usemtl White
s off
f 42//1 59//1 80//1 63//1
f 51//2 52//2 50//2 49//2
f 53//3 51//3 72//3 74//3
f 55//4 53//4 74//4 76//4
f 57//5 55//5 76//5 78//5
f 59//6 57//6 78//6 80//6
f 61//7 64//7 2//7 1//7
f 49//8 47//8 68//8 70//8
f 47//9 45//9 66//9 68//9
f 14//10 44//10 46//10 17//10
f 69//11 67//11 4//11 5//11
f 45//12 43//12 62//12 66//12
f 35//13 58//13 60//13 38//13
f 32//14 56//14 58//14 35//14
f 29//15 54//15 56//15 32//15
f 26//16 52//16 54//16 29//16
f 20//17 48//17 50//17 23//17
f 38//18 60//18 41//18 12//18
f 17//19 46//19 48//19 20//19
f 1//20 2//20 10//20 9//20 8//20 7//20 6//20 5//20 4//20 3//20
f 67//21 65//21 3//21 4//21
f 77//22 75//22 8//22 9//22
f 72//23 70//23 69//23 71//23
f 65//24 61//24 1//24 3//24
f 79//25 77//25 9//25 10//25
f 73//26 71//26 6//26 7//26
f 64//27 79//27 10//27 2//27
f 75//28 73//28 7//28 8//28
f 12//29 41//29 44//29 14//29
f 12//30 14//30 16//30 13//30
f 13//31 16//31 15//31 11//31
f 14//32 17//32 19//32 16//32
f 16//33 19//33 18//33 15//33
f 17//34 20//34 22//34 19//34
f 19//35 22//35 21//35 18//35
f 20//36 23//36 25//36 22//36
f 22//37 25//37 24//37 21//37
f 23//38 50//38 52//38 26//38
f 23//39 26//39 28//39 25//39
f 26//40 29//40 31//40 28//40
f 28//41 31//41 30//41 27//41
f 29//42 32//42 34//42 31//42
f 31//43 34//43 33//43 30//43
f 32//44 35//44 37//44 34//44
f 34//45 37//45 36//45 33//45
f 35//46 38//46 40//46 37//46
f 37//47 40//47 39//47 36//47
f 38//48 12//48 13//48 40//48
f 40//49 13//49 11//49 39//49
f 11//50 15//50 18//50 21//50 24//50 27//50 30//50 33//50 36//50 39//50
f 44//51 41//51 42//51 43//51
f 46//52 44//52 43//52 45//52
f 48//53 46//53 45//53 47//53
f 50//54 48//54 47//54 49//54
f 54//55 52//55 51//55 53//55
f 56//56 54//56 53//56 55//56
f 58//57 56//57 55//57 57//57
f 60//58 58//58 57//58 59//58
f 41//59 60//59 59//59 42//59
f 62//60 63//60 64//60 61//60
f 66//61 62//61 61//61 65//61
f 68//62 66//62 65//62 67//62
f 70//63 68//63 67//63 69//63
f 51//64 49//64 70//64 72//64
f 74//65 72//65 71//65 73//65
f 76//66 74//66 73//66 75//66
f 78//67 76//67 75//67 77//67
f 80//68 78//68 77//68 79//68
f 63//69 80//69 79//69 64//69
f 43//70 42//70 63//70 62//70
f 25//71 28//71 27//71 24//71
f 5//72 6//72 71//72 69//72
