# Blender v2.79 (sub 0) OBJ File: 'Sushi_Nigiri1.blend'
# www.blender.org
mtllib Sushi_Nigiri1.mtl
o Sushi_Nigiri1_Cube.014
v -0.210947 0.000795 0.118801
v -0.200416 0.120249 0.119804
v -0.210947 0.000795 -0.118801
v -0.200416 0.120249 -0.119781
v 0.029876 0.000795 0.123462
v 0.032509 0.133850 0.110712
v 0.023608 0.000795 -0.110577
v 0.026240 0.133850 -0.096162
v 0.159284 0.118810 -0.076993
v 0.188244 0.000795 -0.083468
v 0.200351 0.000795 0.079803
v 0.171390 0.118810 0.073847
v 0.254548 0.055435 -0.055473
v 0.254548 0.000795 -0.055473
v 0.261475 0.000795 0.037942
v 0.261475 0.055435 0.037942
v -0.330519 0.000795 -0.071715
v -0.330519 0.000795 0.071715
v -0.316038 0.058324 0.071715
v -0.316038 0.058324 -0.071715
v -0.201998 0.107847 0.126676
v -0.201998 0.107847 -0.126650
v 0.033863 0.121648 0.133519
v 0.027515 0.121648 -0.116854
v 0.163679 0.106418 -0.105578
v 0.176549 0.106418 0.101998
v 0.259337 0.056568 -0.070140
v 0.266351 0.056568 0.048110
v -0.331250 0.045142 0.078065
v -0.331250 0.045142 -0.078065
v -0.201998 0.176931 0.111367
v -0.201998 0.176931 -0.111356
v 0.027515 0.190731 -0.102964
v 0.033863 0.190731 0.118020
v 0.130087 0.177025 -0.088880
v 0.142958 0.177025 0.086672
v 0.236285 0.122241 -0.061040
v 0.242885 0.124614 0.041801
v -0.319645 0.114225 0.067892
v -0.319645 0.114225 -0.067892
v -0.198694 0.213074 0.062081
v -0.198694 0.213074 -0.062142
v 0.012789 0.234748 -0.056242
v 0.018799 0.234748 0.066161
v 0.096133 0.212999 -0.048185
v 0.108319 0.212999 0.047104
v 0.202593 0.163511 -0.033726
v 0.208842 0.165758 0.022867
v -0.301529 0.164303 0.037361
v -0.301529 0.164303 -0.037361
v -0.230340 0.097647 -0.118235
v -0.230340 0.097647 0.118242
v -0.228452 0.166730 -0.103401
v -0.228452 0.166730 0.103413
v -0.226010 0.205141 -0.057391
v -0.226010 0.205141 0.057364
v -0.007277 0.119223 -0.121206
v -0.001891 0.119223 0.135492
v -0.007277 0.188307 -0.107401
v -0.001891 0.188307 0.120279
v -0.018635 0.235147 -0.058584
v -0.013535 0.235147 0.067242
v 0.132148 0.109919 0.117982
v 0.120777 0.109919 -0.115124
v 0.106278 0.180176 0.098109
v 0.094907 0.180176 -0.094816
v 0.076718 0.220704 0.053006
v 0.065952 0.220704 -0.050670
v -0.082165 0.115974 0.139597
v -0.082165 0.185057 0.124480
v -0.085342 0.233107 0.069796
v -0.085390 0.115974 -0.131810
v -0.085390 0.185057 -0.117452
v -0.088395 0.233107 -0.065179
v -0.110590 0.114046 0.137588
v -0.110590 0.183129 0.122875
v -0.111704 0.231608 0.068835
v -0.113050 0.114046 -0.131977
v -0.113050 0.183129 -0.117555
v -0.114033 0.231608 -0.065530
v -0.201998 0.107847 -0.000025
v 0.030689 0.121648 0.008623
v 0.170114 0.106418 -0.001790
v 0.262844 0.056568 -0.011015
v -0.331250 0.045142 0.000000
v 0.239585 0.123428 -0.009619
v -0.319645 0.114225 0.000000
v -0.233843 0.213074 -0.000019
v -0.013528 0.234748 0.005027
v 0.081623 0.212999 -0.000540
v 0.205717 0.164634 -0.005429
v -0.301529 0.164303 0.000000
v -0.258890 0.205141 -0.000005
v -0.230340 0.097647 -0.000006
v -0.046925 0.235147 0.004298
v -0.004584 0.119223 0.007582
v 0.048149 0.220704 0.001168
v 0.126462 0.109919 0.001429
v -0.121908 0.233107 0.002236
v -0.083778 0.115974 0.004477
v -0.148459 0.231608 0.001594
v -0.111820 0.114046 0.003289
vn -0.4721 0.8815 0.0000
vn 0.0673 0.0495 -0.9965
vn 0.1096 0.9940 -0.0056
vn 0.0080 0.0461 0.9989
vn -0.0000 -1.0000 0.0000
vn -0.0591 0.9983 0.0008
vn 0.4912 0.1122 0.8638
vn 0.1577 0.0983 -0.9826
vn 0.2552 0.0984 0.9619
vn 0.9973 0.0000 -0.0739
vn 0.5616 0.8262 -0.0438
vn 0.3238 0.0896 -0.9419
vn -0.9698 0.2441 0.0000
vn -0.3857 0.0494 -0.9213
vn -0.3858 0.0493 0.9213
vn -0.0783 -0.9969 0.0043
vn 0.0095 0.7570 0.6533
vn 0.0430 0.2168 0.9753
vn 0.3255 0.3562 0.8759
vn -0.3495 0.2042 0.9144
vn 0.2155 0.9691 -0.1197
vn 0.2627 0.8066 0.5296
vn -0.3803 0.7395 0.5554
vn -0.2999 0.9386 -0.1707
vn -0.3492 0.2042 -0.9145
vn -0.3806 0.7391 -0.5557
vn 0.3386 -0.9409 0.0000
vn 0.0474 0.7303 -0.6815
vn 0.0121 0.9999 -0.0064
vn 0.1095 0.1954 -0.9746
vn 0.0681 -0.9977 -0.0016
vn 0.2055 0.7977 -0.5669
vn 0.2106 0.3306 -0.9200
vn -0.0776 0.7440 0.6636
vn -0.0762 0.2104 0.9746
vn -0.0413 0.7325 -0.6795
vn -0.0575 0.9979 0.0313
vn -0.0094 0.2039 -0.9789
vn 0.0682 -0.9977 -0.0007
vn 0.0691 -0.9976 -0.0007
vn -0.0568 0.9980 -0.0287
vn 0.0692 -0.9976 -0.0016
vn 0.0121 0.9999 0.0053
vn -0.2997 0.9386 0.1707
vn 0.2337 0.9693 0.0759
vn -0.0810 -0.9967 0.0045
vn 0.4616 -0.8871 0.0000
vn 0.0681 -0.9977 -0.0003
vn -0.4715 -0.8814 0.0288
vn -0.5375 0.6196 -0.5720
vn 0.7560 0.6497 -0.0798
vn -0.9404 0.3402 0.0000
vn 0.0944 0.2538 -0.9626
vn -0.9862 0.1657 0.0000
vn 0.9407 0.3336 -0.0615
vn -0.4524 0.2014 -0.8688
vn -0.0778 0.2096 -0.9747
vn 0.5743 0.3517 0.7392
vn 0.4370 0.3393 -0.8330
vn -0.5798 0.7895 -0.2012
vn -0.2143 0.9695 0.1191
vn 0.3692 0.9157 -0.1585
vn -0.1433 0.7610 -0.6328
vn 0.5147 0.7598 0.3973
vn 0.4655 0.7784 -0.4212
vn 0.2248 0.7649 -0.6036
vn -0.5375 0.6198 0.5719
vn -0.4524 0.2014 0.8688
vn 0.0418 0.2142 0.9759
vn 0.0032 0.7506 0.6607
vn 0.2876 0.7835 0.5508
vn 0.2117 0.9706 -0.1141
vn 0.2301 0.2794 0.9322
vn -0.1195 -0.9928 0.0044
vn 0.0503 0.7317 -0.6797
vn -0.0277 0.9995 0.0149
vn 0.1204 0.1983 -0.9727
vn 0.0407 -0.9992 -0.0007
vn -0.1331 0.2104 0.9685
vn -0.1696 0.7642 0.6223
vn 0.0413 -0.9991 -0.0007
vn -0.0274 0.9995 -0.0130
vn -0.1230 -0.9924 0.0045
vn 0.2353 0.9676 0.0918
vn 0.3887 0.9203 0.0447
vn -0.2127 0.9704 -0.1145
vn -0.5798 0.7895 0.2012
vn 0.9438 0.3246 -0.0616
vn 0.7760 0.6255 -0.0807
vn -0.4707 -0.8818 0.0287
vn 0.0690 -0.9976 -0.0003
usemtl White
s off
f 2//1 4//1 20//1 19//1
f 3//2 4//2 8//2 7//2
f 8//3 6//3 12//3 9//3
f 5//4 6//4 2//4 1//4
f 3//5 7//5 5//5 1//5
f 8//6 4//6 2//6 6//6
f 12//7 11//7 15//7 16//7
f 7//8 8//8 9//8 10//8
f 6//9 5//9 11//9 12//9
f 5//5 7//5 10//5 11//5
f 14//10 13//10 16//10 15//10
f 11//5 10//5 14//5 15//5
f 9//11 12//11 16//11 13//11
f 10//12 9//12 13//12 14//12
f 18//13 19//13 20//13 17//13
f 3//5 1//5 18//5 17//5
f 4//14 3//14 17//14 20//14
f 1//15 2//15 19//15 18//15
f 98//16 83//16 26//16 63//16
f 60//17 34//17 44//17 62//17
f 58//18 23//18 34//18 60//18
f 63//19 26//19 36//19 65//19
f 52//20 21//20 31//20 54//20
f 97//21 67//21 46//21 90//21
f 65//22 36//22 46//22 67//22
f 54//23 31//23 41//23 56//23
f 88//24 42//24 55//24 93//24
f 22//25 51//25 53//25 32//25
f 32//26 53//26 55//26 42//26
f 81//27 94//27 51//27 22//27
f 33//28 59//28 61//28 43//28
f 89//29 95//29 62//29 44//29
f 24//30 57//30 59//30 33//30
f 82//31 23//31 58//31 96//31
f 35//32 66//32 68//32 45//32
f 25//33 64//33 66//33 35//33
f 76//34 70//34 71//34 77//34
f 75//35 69//35 70//35 76//35
f 73//36 79//36 80//36 74//36
f 99//37 101//37 77//37 71//37
f 72//38 78//38 79//38 73//38
f 100//39 69//39 75//39 102//39
f 72//40 100//40 102//40 78//40
f 74//41 80//41 101//41 99//41
f 24//42 82//42 96//42 57//42
f 43//43 61//43 95//43 89//43
f 21//27 52//27 94//27 81//27
f 41//44 88//44 93//44 56//44
f 68//45 97//45 90//45 45//45
f 64//46 25//46 83//46 98//46
usemtl Orange
f 94//47 85//47 30//47 51//47
f 102//48 75//48 21//48 81//48
f 83//49 84//49 28//49 26//49
f 53//50 40//50 50//50 55//50
f 86//51 37//51 47//51 91//51
f 87//52 39//52 49//52 92//52
f 64//53 24//53 33//53 66//53
f 85//54 29//54 39//54 87//54
f 84//55 27//55 37//55 86//55
f 51//56 30//56 40//56 53//56
f 78//57 22//57 32//57 79//57
f 26//58 28//58 38//58 36//58
f 27//59 25//59 35//59 37//59
f 93//60 55//60 50//60 92//60
f 101//61 88//61 41//61 77//61
f 90//62 46//62 48//62 91//62
f 79//63 32//63 42//63 80//63
f 36//64 38//64 48//64 46//64
f 37//65 35//65 45//65 47//65
f 66//66 33//66 43//66 68//66
f 39//67 54//67 56//67 49//67
f 29//68 52//68 54//68 39//68
f 69//69 58//69 60//69 70//69
f 70//70 60//70 62//70 71//70
f 34//71 65//71 67//71 44//71
f 89//72 44//72 67//72 97//72
f 23//73 63//73 65//73 34//73
f 82//74 98//74 63//74 23//74
f 59//75 73//75 74//75 61//75
f 95//76 99//76 71//76 62//76
f 57//77 72//77 73//77 59//77
f 96//78 58//78 69//78 100//78
f 21//79 75//79 76//79 31//79
f 31//80 76//80 77//80 41//80
f 57//81 96//81 100//81 72//81
f 61//82 74//82 99//82 95//82
f 24//83 64//83 98//83 82//83
f 43//84 89//84 97//84 68//84
f 45//85 90//85 91//85 47//85
f 80//86 42//86 88//86 101//86
f 56//87 93//87 92//87 49//87
f 28//88 84//88 86//88 38//88
f 30//54 85//54 87//54 40//54
f 40//52 87//52 92//52 50//52
f 38//89 86//89 91//89 48//89
f 25//90 27//90 84//90 83//90
f 78//91 102//91 81//91 22//91
f 52//47 29//47 85//47 94//47
