# Blender v2.79 (sub 0) OBJ File: 'Bathroom_Towel.blend'
# www.blender.org
mtllib Bathroom_Towel.mtl
o Bathroom_Towel_Cylinder.002
v 0.530919 0.000000 -0.033877
v 0.530919 -0.029338 -0.016938
v 0.530919 -0.029338 0.016938
v 0.530919 0.000000 0.033877
v 0.530919 0.029338 0.016938
v 0.530919 0.029338 -0.016938
v 0.561784 -0.029338 -0.028035
v 0.549795 0.000000 -0.040000
v 0.585763 -0.029338 -0.004106
v 0.597753 0.000000 0.007859
v 0.585763 0.029338 -0.004106
v 0.561784 0.029338 -0.028035
v 0.572934 -0.029338 -0.052675
v 0.556023 0.000000 -0.051704
v 0.606755 -0.029338 -0.054617
v 0.623665 0.000000 -0.055588
v 0.606755 0.029338 -0.054617
v 0.572934 0.029338 -0.052675
v 0.572315 -0.029338 -0.126615
v 0.555405 0.000000 -0.126615
v 0.606136 -0.029338 -0.126615
v 0.623047 0.000000 -0.126615
v 0.606136 0.029338 -0.126615
v 0.572315 0.029338 -0.126615
v -0.468135 -0.000000 -0.033877
v -0.468135 -0.029338 -0.016938
v -0.468135 -0.029338 0.016938
v -0.468135 -0.000000 0.033877
v -0.468135 0.029338 0.016938
v -0.468135 0.029338 -0.016938
v -0.499000 -0.029338 -0.028035
v -0.487010 -0.000000 -0.040000
v -0.522979 -0.029338 -0.004106
v -0.534969 -0.000000 0.007859
v -0.522979 0.029338 -0.004106
v -0.499000 0.029338 -0.028035
v -0.510149 -0.029338 -0.052675
v -0.493239 -0.000000 -0.051704
v -0.543970 -0.029338 -0.054617
v -0.560881 -0.000000 -0.055588
v -0.543970 0.029338 -0.054617
v -0.510149 0.029338 -0.052675
v -0.509531 -0.029338 -0.126615
v -0.492620 -0.000000 -0.126615
v -0.543352 -0.029338 -0.126615
v -0.560262 -0.000000 -0.126615
v -0.543352 0.029338 -0.126615
v -0.509531 0.029338 -0.126615
v 0.404851 0.002545 -0.034501
v 0.404851 0.002545 0.034501
v 0.404851 0.032424 0.017250
v 0.404851 0.032424 -0.017251
v -0.180793 0.002545 -0.034501
v -0.180793 0.002545 0.034501
v -0.180793 0.032423 0.017251
v -0.180793 0.032423 -0.017250
v 0.404851 -0.621397 -0.034501
v 0.404851 -0.621397 0.034501
v -0.180793 -0.621397 -0.034501
v -0.180793 -0.621397 0.034501
v -0.180793 -0.508580 -0.034501
v 0.404851 -0.508580 -0.034501
v 0.404851 -0.508580 0.034501
v -0.180793 -0.508580 0.034501
v -0.180793 -0.549604 0.034501
v 0.404851 -0.549604 0.034501
v -0.180793 -0.535930 0.034501
v -0.180793 -0.522255 0.034501
v 0.404851 -0.522255 0.034501
v 0.404851 -0.535930 0.034501
v 0.404851 -0.549604 -0.034501
v -0.180793 -0.549604 -0.034501
v -0.180793 -0.535930 -0.034501
v -0.180793 -0.522255 -0.034501
v 0.404851 -0.522255 -0.034501
v 0.404851 -0.535930 -0.034501
v 0.404851 0.001686 -0.031294
v 0.404851 0.001686 0.031294
v 0.404851 0.029548 0.015591
v 0.404851 0.029548 -0.015591
v -0.180793 0.001685 -0.031294
v -0.180793 0.001685 0.031294
v -0.180793 0.029548 0.015591
v -0.180793 0.029548 -0.015591
v 0.404851 -0.621397 -0.031181
v 0.404851 -0.621397 0.031181
v -0.180793 -0.621397 -0.031181
v -0.180793 -0.621397 0.031181
v -0.180793 -0.508580 -0.031181
v 0.404851 -0.508580 -0.031181
v 0.404851 -0.508580 0.031181
v -0.180793 -0.508580 0.031181
v -0.180793 -0.549604 0.031181
v 0.404851 -0.549604 0.031181
v -0.180793 -0.535930 0.031181
v -0.180793 -0.522255 0.031181
v 0.404851 -0.522255 0.031181
v 0.404851 -0.535930 0.031181
v 0.404851 -0.549604 -0.031181
v -0.180793 -0.549604 -0.031181
v -0.180793 -0.535930 -0.031181
v -0.180793 -0.522255 -0.031181
v 0.404851 -0.522255 -0.031181
v 0.404851 -0.535930 -0.031181
vn -0.1376 -0.4911 -0.8602
vn 0.1376 -0.4911 -0.8602
vn 0.1752 0.0000 -0.9845
vn -0.1752 0.0000 -0.9845
vn 0.0000 -1.0000 0.0000
vn 0.1739 0.0000 0.9848
vn -0.1739 0.0000 0.9848
vn -0.1700 -0.4908 0.8545
vn 0.1700 -0.4908 0.8545
vn -0.0000 1.0000 0.0000
vn 0.1700 0.4908 0.8545
vn -0.1700 0.4908 0.8545
vn -0.5822 -0.4971 -0.6434
vn -0.6592 0.0000 -0.7520
vn -0.9711 -0.0000 -0.2387
vn -0.8523 -0.4934 -0.1736
vn 0.6052 -0.4996 0.6197
vn 0.7009 -0.0000 0.7133
vn -0.1376 0.4911 -0.8602
vn -0.5822 0.4971 -0.6434
vn 0.6052 0.4996 0.6197
vn -0.8523 0.4934 -0.1736
vn 0.9845 0.0000 0.1756
vn 0.8535 0.4890 0.1800
vn 0.8535 -0.4890 0.1800
vn 0.8663 -0.4995 -0.0075
vn -0.8663 -0.4995 0.0072
vn -0.8663 0.4995 0.0072
vn 0.8663 0.4995 -0.0075
vn 0.5822 -0.4971 -0.6434
vn 0.8523 -0.4934 -0.1736
vn 0.9711 0.0000 -0.2387
vn 0.6592 0.0000 -0.7520
vn -0.7009 0.0000 0.7133
vn -0.6052 -0.4996 0.6197
vn 0.5822 0.4971 -0.6434
vn 0.1376 0.4911 -0.8602
vn -0.6052 0.4996 0.6197
vn 0.8523 0.4934 -0.1736
vn -0.8535 0.4890 0.1800
vn -0.9845 0.0000 0.1756
vn -0.8535 -0.4890 0.1800
vn -0.8663 -0.4995 -0.0075
vn 0.8663 -0.4995 0.0072
vn 0.8663 0.4995 0.0072
vn -0.8663 0.4995 -0.0075
vn -0.0000 0.5000 0.8660
vn 0.0000 0.2588 0.9659
vn -0.0000 0.2588 -0.9659
vn -0.0000 0.5000 -0.8660
vn 0.0000 0.0000 1.0000
vn -0.0000 0.0000 -1.0000
vn 0.0000 -0.4910 -0.8712
vn -0.0000 -0.2537 -0.9673
vn 0.0000 -0.2537 0.9673
vn 0.0000 -0.4910 0.8712
vn 0.0000 0.0001 1.0000
vn -0.0000 0.0001 -1.0000
vn 1.0000 0.0000 0.0000
vn -1.0000 -0.0000 0.0000
usemtl LightMetal
s 1
f 2//1 26//2 25//3 1//4
f 3//5 27//5 26//5 2//5
f 4//6 28//7 27//8 3//9
f 6//10 5//10 11//10 12//10
f 5//11 29//12 28//7 4//6
f 6//10 30//10 29//10 5//10
f 7//13 8//14 14//15 13//16
f 4//6 3//9 9//17 10//18
f 1//4 6//19 12//20 8//14
f 5//11 4//6 10//18 11//21
f 3//5 2//5 7//5 9//5
f 2//1 1//4 8//14 7//13
f 18//10 17//10 23//10 24//10
f 8//14 12//20 18//22 14//15
f 11//21 10//18 16//23 17//24
f 9//5 7//5 13//5 15//5
f 12//10 11//10 17//10 18//10
f 10//18 9//17 15//25 16//23
f 16//23 15//25 21//26 22//26
f 13//16 14//15 20//27 19//27
f 14//15 18//22 24//28 20//28
f 17//24 16//23 22//29 23//29
f 15//5 13//5 19//5 21//5
f 30//10 36//10 35//10 29//10
f 31//30 37//31 38//32 32//33
f 28//7 34//34 33//35 27//8
f 25//3 32//33 36//36 30//37
f 29//12 35//38 34//34 28//7
f 27//5 33//5 31//5 26//5
f 26//2 31//30 32//33 25//3
f 42//10 48//10 47//10 41//10
f 32//33 38//32 42//39 36//36
f 35//38 41//40 40//41 34//34
f 33//5 39//5 37//5 31//5
f 36//10 42//10 41//10 35//10
f 34//34 40//41 39//42 33//35
f 40//41 46//43 45//43 39//42
f 37//31 43//44 44//44 38//32
f 38//32 44//45 48//45 42//39
f 41//40 47//46 46//46 40//41
f 39//5 45//5 43//5 37//5
f 1//4 25//3 30//37 6//19
usemtl White
f 51//47 55//47 54//48 50//48
f 52//10 56//10 55//10 51//10
f 49//49 53//49 56//50 52//50
f 66//51 65//51 60//51 58//51
f 72//52 71//52 57//52 59//52
f 53//49 49//49 62//52 61//52
f 50//48 54//48 64//51 63//51
f 69//51 68//51 67//51 70//51
f 74//52 75//52 76//52 73//52
f 79//53 78//54 82//54 83//53
f 80//5 79//5 83//5 84//5
f 77//55 80//56 84//56 81//55
f 94//52 86//52 88//52 93//52
f 100//51 87//51 85//51 99//51
f 81//55 89//57 90//57 77//55
f 78//54 91//58 92//58 82//54
f 97//52 98//52 95//52 96//52
f 102//51 101//51 104//51 103//51
f 51//59 50//59 78//59 79//59
f 52//59 51//59 79//59 80//59
f 49//59 52//59 80//59 77//59
f 54//60 55//60 83//60 82//60
f 55//60 56//60 84//60 83//60
f 56//60 53//60 81//60 84//60
f 59//5 57//5 85//5 87//5
f 58//5 60//5 88//5 86//5
f 50//59 63//59 91//59 78//59
f 60//60 65//60 93//60 88//60
f 53//60 61//60 89//60 81//60
f 57//59 71//59 99//59 85//59
f 62//59 49//59 77//59 90//59
f 64//60 54//60 82//60 92//60
f 66//59 58//59 86//59 94//59
f 67//60 68//60 96//60 95//60
f 69//59 70//59 98//59 97//59
f 72//60 59//60 87//60 100//60
f 74//60 73//60 101//60 102//60
f 76//59 75//59 103//59 104//59
usemtl Red
f 63//51 64//51 68//51 69//51
f 61//52 62//52 75//52 74//52
f 70//51 67//51 65//51 66//51
f 73//52 76//52 71//52 72//52
f 91//58 97//52 96//52 92//58
f 89//57 102//51 103//51 90//57
f 98//52 94//52 93//52 95//52
f 101//51 100//51 99//51 104//51
f 61//60 74//60 102//60 89//60
f 68//60 64//60 92//60 96//60
f 70//59 66//59 94//59 98//59
f 63//59 69//59 97//59 91//59
f 65//60 67//60 95//60 93//60
f 71//59 76//59 104//59 99//59
f 73//60 72//60 100//60 101//60
f 75//59 62//59 90//59 103//59
