# Blender v2.79 (sub 0) OBJ File: 'Bathroom_Toilet.blend'
# www.blender.org
mtllib Bathroom_Toilet.mtl
o Bathroom_Toilet_Cube.007
v 0.469548 0.918646 0.446707
v -0.469548 0.918646 0.446707
v 0.372638 0.918646 0.661250
v -0.372638 0.918646 0.661250
v 0.543455 0.918646 0.206128
v -0.543455 0.918646 0.206128
v 0.127838 0.918646 0.791879
v -0.134887 0.918646 0.791879
v -0.469548 0.845530 0.446707
v 0.469548 0.845530 0.446707
v 0.543455 0.845530 0.206128
v -0.543455 0.845530 0.206128
v -0.372638 0.845530 0.661250
v 0.372638 0.845530 0.661250
v -0.134887 0.845530 0.791879
v 0.127838 0.845530 0.791879
v -0.419098 0.831277 0.431710
v 0.419098 0.831277 0.431710
v 0.485063 0.831277 0.218720
v -0.485063 0.831277 0.218720
v -0.332600 0.831277 0.630383
v 0.332600 0.831277 0.630383
v -0.120564 0.831277 0.751697
v 0.113933 0.831277 0.751697
v -0.361723 0.605779 0.401133
v 0.361723 0.605779 0.401133
v 0.418658 0.605779 0.204038
v -0.418658 0.605779 0.204038
v -0.287067 0.605779 0.584980
v 0.287067 0.605779 0.584980
v -0.104059 0.605779 0.697241
v 0.098336 0.605779 0.697241
v -0.259907 0.388592 0.327367
v 0.259907 0.388592 0.327367
v 0.300816 0.347785 0.167490
v -0.300816 0.347785 0.167490
v -0.206265 0.421835 0.482432
v 0.206265 0.421835 0.482432
v -0.074863 0.444173 0.577344
v 0.070563 0.444173 0.577344
v 0.469548 0.918646 -0.513554
v -0.469548 0.918646 -0.513554
v 0.555570 0.918646 0.000000
v -0.555570 0.918646 0.000000
v 0.372638 0.918646 -0.661250
v -0.372638 0.918646 -0.661250
v 0.543455 0.918646 -0.256777
v -0.543455 0.918646 -0.256777
v 0.234503 0.918646 -0.747942
v -0.241552 0.918646 -0.747942
v -0.469548 0.845530 -0.513554
v 0.469548 0.845530 -0.513554
v 0.543455 0.845530 -0.256777
v 0.555570 0.845530 0.000000
v -0.543455 0.845530 -0.256777
v -0.555570 0.845530 0.000000
v -0.372638 0.845530 -0.661250
v 0.372638 0.845530 -0.661250
v -0.241552 0.845530 -0.747942
v 0.234503 0.845530 -0.747942
v -0.419098 0.831277 -0.498556
v 0.419098 0.831277 -0.498556
v 0.485063 0.831277 -0.269369
v 0.495877 0.831277 0.000000
v -0.485063 0.831277 -0.269369
v -0.495877 0.831277 0.000000
v -0.332600 0.831277 -0.630383
v 0.332600 0.831277 -0.630383
v -0.215598 0.831277 -0.707760
v 0.209307 0.831277 -0.707760
v -0.361723 0.605779 -0.459712
v 0.361723 0.605779 -0.459712
v 0.418658 0.605779 -0.247628
v 0.427991 0.605779 0.001639
v -0.418658 0.605779 -0.247628
v -0.427991 0.605779 0.001639
v -0.287067 0.605779 -0.581702
v 0.287067 0.605779 -0.581702
v -0.186083 0.605779 -0.653304
v 0.180653 0.605779 -0.653304
v -0.259907 0.388592 -0.418522
v 0.259907 0.388592 -0.418522
v 0.300816 0.347785 -0.224604
v 0.307522 0.339060 0.003766
v -0.300816 0.347785 -0.224604
v -0.307522 0.339060 0.003766
v -0.206265 0.418398 -0.540883
v 0.206265 0.418398 -0.540883
v -0.133705 0.444173 -0.599390
v 0.129803 0.444173 -0.599390
v 0.429783 0.893309 0.410782
v -0.424543 0.893309 0.410782
v 0.341620 0.893309 0.605958
v -0.336381 0.893309 0.605958
v 0.497018 0.893309 0.191920
v -0.491778 0.893309 0.191920
v 0.118918 0.893309 0.724795
v -0.120092 0.893309 0.724795
v 0.429783 0.893309 -0.462798
v -0.424543 0.893309 -0.462798
v 0.508039 0.893309 0.004398
v -0.502800 0.893309 0.004398
v 0.341620 0.893309 -0.597162
v -0.336381 0.893309 -0.597162
v 0.497018 0.893309 -0.229200
v -0.491778 0.893309 -0.229200
v 0.215954 0.893309 -0.676028
v -0.217128 0.893309 -0.676028
v -0.387428 0.994658 0.377209
v 0.392667 0.994658 0.377209
v 0.454061 0.994658 0.177363
v 0.464125 0.994658 0.006135
v -0.448821 0.994658 0.177363
v -0.458885 0.994658 0.006135
v -0.306926 0.994658 0.555427
v 0.312165 0.994658 0.555427
v -0.109430 0.994658 0.663938
v 0.108813 0.994658 0.663938
v -0.387428 0.994658 -0.420468
v 0.392667 0.994658 -0.420468
v 0.454061 0.994658 -0.207167
v -0.448821 0.994658 -0.207167
v -0.306926 0.994658 -0.543157
v 0.312165 0.994658 -0.543157
v -0.198034 0.994658 -0.615171
v 0.197418 0.994658 -0.615171
v -0.242108 0.419685 0.244693
v 0.242108 0.419685 0.244693
v 0.280216 0.419685 -0.067226
v -0.280216 0.419685 -0.067226
v -0.192139 0.419685 0.403285
v 0.192139 0.419685 0.403285
v -0.069736 0.419685 0.500355
v 0.065730 0.419685 0.500355
v -0.242108 -0.013109 0.244693
v 0.242108 -0.013109 0.244693
v -0.192139 -0.013109 0.459949
v 0.192139 -0.013109 0.459949
v 0.280216 -0.010672 0.105466
v -0.280216 -0.010672 0.105466
v -0.069736 -0.013109 0.557019
v 0.065730 -0.013109 0.557019
v -0.192139 0.203288 0.438363
v -0.069736 0.203288 0.535433
v 0.280216 0.193540 0.087927
v -0.280216 0.193540 0.087927
v 0.242108 0.203288 0.244693
v -0.242108 0.203288 0.244693
v 0.065730 0.203288 0.535433
v 0.192139 0.203288 0.438363
v 0.186419 0.419685 -0.219008
v -0.186419 0.419685 -0.219008
v 0.147944 0.419685 -0.377600
v -0.147944 0.419685 -0.377600
v 0.053695 0.419685 -0.474670
v -0.050611 0.419685 -0.474670
v 0.186419 -0.013109 -0.219008
v -0.186419 -0.013109 -0.219008
v 0.147944 -0.013109 -0.434264
v -0.147944 -0.013109 -0.434264
v 0.053695 -0.013109 -0.531334
v -0.050611 -0.013109 -0.531334
v 0.147944 0.203288 -0.353315
v 0.053695 0.203288 -0.450385
v -0.186419 0.203288 -0.219008
v 0.186419 0.203288 -0.219008
v -0.050611 0.203288 -0.450385
v -0.147944 0.203288 -0.353315
v 0.114644 0.419685 -0.245540
v -0.114644 0.419685 -0.245540
v 0.114644 -0.013109 -0.245540
v -0.114644 -0.013109 -0.245540
v -0.114644 0.203288 -0.245540
v 0.114644 0.203288 -0.245540
v 0.114644 -0.013109 0.178677
v -0.114644 -0.013109 0.178677
v -0.114644 0.203288 0.178677
v 0.114644 0.203288 0.178677
v -0.114644 0.419685 0.178677
v 0.114644 0.419685 0.178677
v -0.557962 1.184653 -0.879281
v -0.557962 1.656668 -0.879281
v 0.557962 1.184653 -0.879281
v 0.557962 1.656668 -0.879281
v -0.506506 1.055529 -0.879280
v 0.506506 1.055529 -0.879280
v -0.557962 1.184653 -0.510452
v -0.411309 1.184653 -0.393117
v -0.557962 1.656668 -0.510452
v -0.411309 1.656668 -0.393117
v 0.411309 1.184653 -0.393117
v 0.557962 1.184653 -0.510452
v 0.411309 1.656668 -0.393117
v 0.557962 1.656668 -0.510452
v -0.360775 1.055529 -0.393117
v -0.506506 1.055529 -0.510452
v 0.506506 1.055529 -0.510452
v 0.360775 1.055529 -0.393117
v 0.395767 0.918646 -0.879280
v -0.395767 0.918646 -0.879280
v -0.395767 0.918646 -0.510452
v -0.268305 0.940916 -0.442604
v 0.268305 0.940916 -0.442604
v 0.395767 0.918646 -0.510452
v -0.598334 1.686987 -0.899523
v 0.598334 1.686987 -0.899523
v -0.441070 1.686987 -0.372874
v -0.598334 1.686987 -0.498699
v 0.598334 1.686987 -0.498699
v 0.441070 1.686987 -0.372874
v -0.598334 1.887563 -0.899523
v 0.598334 1.887563 -0.899523
v -0.441070 1.887563 -0.372874
v -0.598334 1.887563 -0.498699
v 0.598334 1.887563 -0.498699
v 0.441070 1.887563 -0.372874
vn 0.0000 1.0000 0.0000
vn 0.2358 -0.9718 0.0012
vn 0.2416 -0.9697 0.0367
vn 0.2453 -0.9680 0.0523
vn 0.2358 -0.9718 0.0013
vn -0.0800 -0.9507 0.2997
vn -0.2028 -0.9618 0.1840
vn -0.1976 -0.9612 0.1924
vn -0.0719 -0.9502 0.3033
vn 0.2494 -0.9639 0.0929
vn 0.2492 -0.9638 0.0943
vn 0.0783 -0.9503 0.3012
vn 0.0706 -0.9499 0.3046
vn 0.9355 0.0000 0.3534
vn 0.7300 0.0000 0.6834
vn 0.2426 0.0000 0.9701
vn -0.2486 0.0000 0.9686
vn 0.9841 0.0000 0.1774
vn -0.7342 0.0000 0.6789
vn 1.0000 0.0000 0.0058
vn -0.9355 0.0000 0.3534
vn -0.9841 0.0000 0.1774
vn -1.0000 0.0000 0.0058
vn -0.7226 -0.2717 0.6357
vn -0.9049 -0.2731 0.3266
vn -0.8659 -0.3812 0.3237
vn -0.6813 -0.4138 0.6038
vn -0.9446 -0.2851 0.1627
vn -0.9172 -0.3617 0.1669
vn 0.9580 -0.2869 0.0041
vn 0.9446 -0.2851 0.1627
vn 0.9172 -0.3617 0.1669
vn 0.9362 -0.3515 0.0050
vn -0.2561 -0.2519 0.9332
vn -0.2386 -0.4231 0.8741
vn -0.2494 -0.9639 0.0929
vn -0.2416 -0.9697 0.0367
vn -0.2453 -0.9680 0.0523
vn -0.2492 -0.9638 0.0943
vn 0.2018 -0.9618 0.1850
vn 0.1960 -0.9612 0.1942
vn -0.2358 -0.9718 0.0012
vn -0.2358 -0.9718 0.0013
vn 0.2329 -0.4224 0.8760
vn -0.2258 -0.6027 0.7653
vn 0.2208 -0.6016 0.7676
vn 0.8659 -0.3812 0.3237
vn 0.6773 -0.4137 0.6084
vn 0.6496 -0.5594 0.5148
vn 0.8224 -0.4778 0.3088
vn -0.9362 -0.3515 0.0050
vn -0.9095 -0.4156 0.0059
vn -0.8867 -0.4364 0.1524
vn 0.7185 -0.2717 0.6403
vn 0.2496 -0.2510 0.9353
vn -0.9580 -0.2869 0.0041
vn 0.9049 -0.2731 0.3266
vn 0.0000 -0.9899 0.1416
vn 0.0000 -0.9727 0.2320
vn 0.0000 -0.9767 0.2144
vn 0.0000 -0.9767 0.2145
vn 0.0000 -1.0000 0.0074
vn 0.0000 -0.9734 0.2291
vn 0.8867 -0.4364 0.1524
vn -0.6533 -0.5588 0.5108
vn 0.9095 -0.4156 0.0059
vn -0.8224 -0.4778 0.3088
vn 0.2452 -0.9683 -0.0480
vn 0.2416 -0.9698 -0.0335
vn -0.0955 -0.9560 -0.2774
vn -0.0676 -0.9533 -0.2944
vn -0.1904 -0.9617 -0.1971
vn -0.1959 -0.9620 -0.1901
vn 0.2386 -0.9644 -0.1139
vn 0.2407 -0.9647 -0.1072
vn 0.0925 -0.9553 -0.2808
vn 0.0656 -0.9527 -0.2968
vn 0.9088 0.0000 -0.4173
vn 0.6999 0.0000 -0.7142
vn 0.2766 0.0000 -0.9610
vn -0.2880 0.0000 -0.9576
vn 0.9866 0.0000 -0.1630
vn -0.7084 0.0000 -0.7058
vn -0.9088 0.0000 -0.4173
vn -0.9866 0.0000 -0.1630
vn -0.6883 -0.2835 -0.6677
vn -0.6806 -0.3553 -0.6408
vn -0.8538 -0.3634 -0.3727
vn -0.8728 -0.2889 -0.3933
vn -0.9225 -0.3573 -0.1463
vn -0.9453 -0.2891 -0.1513
vn 0.9225 -0.3573 -0.1463
vn 0.9453 -0.2891 -0.1513
vn -0.2931 -0.2651 -0.9186
vn -0.2867 -0.3184 -0.9036
vn -0.2407 -0.9647 -0.1072
vn -0.2386 -0.9644 -0.1139
vn -0.2452 -0.9683 -0.0480
vn -0.2416 -0.9698 -0.0335
vn 0.1942 -0.9619 -0.1922
vn 0.1878 -0.9615 -0.2004
vn 0.2760 -0.3158 -0.9078
vn 0.2497 -0.3686 -0.8954
vn -0.2588 -0.3722 -0.8914
vn 0.8538 -0.3634 -0.3727
vn 0.8298 -0.4398 -0.3434
vn 0.6589 -0.4303 -0.6170
vn 0.6735 -0.3546 -0.6486
vn -0.8944 -0.4260 -0.1361
vn 0.6804 -0.2836 -0.6757
vn 0.2817 -0.2636 -0.9226
vn 0.8728 -0.2889 -0.3933
vn 0.0000 -0.9933 -0.1159
vn 0.0000 -0.9759 -0.2182
vn 0.0000 -0.9594 -0.2821
vn 0.0000 -0.9597 -0.2809
vn 0.0000 -0.9151 -0.4032
vn 0.8944 -0.4260 -0.1361
vn -0.6657 -0.4316 -0.6087
vn -0.8298 -0.4398 -0.3434
vn 0.0000 -1.0000 -0.0000
vn 0.8024 0.4551 -0.3860
vn 0.5928 0.5061 -0.6265
vn 0.6184 0.5019 -0.6046
vn 0.8194 0.4489 -0.3563
vn -0.6261 0.4860 0.6098
vn -0.2077 0.5195 0.8288
vn -0.2185 0.5191 0.8263
vn -0.6646 0.4791 0.5734
vn 0.8966 0.4141 -0.1567
vn 0.9005 0.4120 -0.1393
vn 0.2026 0.5189 0.8305
vn 0.6222 0.4866 0.6133
vn 0.6608 0.4798 0.5772
vn 0.2136 0.5185 0.8280
vn -0.8476 0.4185 0.3263
vn -0.8525 0.4167 0.3155
vn -0.8024 0.4551 -0.3860
vn -0.8966 0.4141 -0.1567
vn -0.9005 0.4120 -0.1393
vn -0.8194 0.4489 -0.3563
vn 0.8476 0.4185 0.3263
vn 0.8525 0.4167 0.3155
vn 0.9176 0.3975 0.0048
vn 0.9176 0.3975 0.0059
vn 0.8991 0.4050 0.1662
vn 0.9008 0.4045 0.1579
vn 0.2353 0.5316 -0.8137
vn -0.2446 0.5326 -0.8103
vn -0.2427 0.5326 -0.8108
vn 0.2329 0.5316 -0.8144
vn -0.9176 0.3975 0.0048
vn -0.9176 0.3975 0.0059
vn -0.8991 0.4050 0.1662
vn -0.9008 0.4045 0.1579
vn -0.6008 0.5049 -0.6198
vn -0.6259 0.5006 -0.5980
vn 0.3282 0.1511 0.9324
vn -0.3360 0.1507 0.9297
vn -0.3251 0.1220 0.9378
vn 0.3178 0.1223 0.9402
vn -0.9755 0.0390 0.2164
vn -0.9857 0.0558 0.1591
vn -0.9796 0.0365 0.1976
vn -0.9731 0.0255 0.2290
vn 0.9755 0.0390 0.2164
vn 0.8401 0.0745 0.5372
vn 0.8289 0.0647 0.5557
vn 0.9731 0.0255 0.2290
vn 0.0000 -0.9998 -0.0175
vn 0.0000 -0.9999 -0.0101
vn -0.8333 0.0639 0.5492
vn -0.8316 0.0492 0.5532
vn -0.3213 0.0940 0.9423
vn 0.0000 -0.3368 -0.9416
vn 0.0000 -0.0856 -0.9963
vn 0.9796 0.0365 0.1976
vn 0.9699 0.0111 0.2432
vn 0.9684 0.0104 0.2491
vn -0.9699 0.0111 0.2432
vn 0.3142 0.0942 0.9447
vn 0.8271 0.0499 0.5599
vn -0.9684 0.0104 0.2491
vn -0.8441 0.0735 0.5311
vn 0.9857 0.0558 0.1591
vn 0.0000 -0.5657 -0.8246
vn 0.0000 -0.1115 -0.9938
vn 0.0000 0.1228 -0.9924
vn -0.9671 -0.0143 -0.2541
vn -0.8578 -0.0505 -0.5116
vn -0.8887 0.0446 -0.4563
vn -0.9720 0.0130 -0.2346
vn 0.7141 0.0967 -0.6933
vn 0.8919 0.0438 -0.4500
vn 0.8416 0.1744 -0.5112
vn 0.6943 0.2522 -0.6741
vn 0.9720 0.0130 -0.2346
vn 0.9758 0.0402 -0.2148
vn -0.7027 0.0981 -0.7046
vn -0.6826 0.2560 -0.6845
vn -0.8364 0.1772 -0.5186
vn 0.0000 0.3504 -0.9366
vn -0.9758 0.0402 -0.2148
vn -0.7039 -0.0792 -0.7058
vn 0.8621 -0.0497 -0.5043
vn 0.9671 -0.0143 -0.2541
vn 0.0000 0.0000 1.0000
vn 0.7153 -0.0779 -0.6945
vn -0.0000 0.0000 -1.0000
vn -1.0000 -0.0000 0.0000
vn 1.0000 -0.0000 0.0000
vn 0.3629 -0.0767 0.9287
vn 0.2551 -0.3753 0.8911
vn -0.2551 -0.3753 0.8911
vn -0.3629 -0.0767 0.9287
vn 0.0000 -0.3504 -0.9366
vn 0.2880 -0.2885 0.9131
vn -0.2880 -0.2885 0.9131
vn -0.1741 -0.4524 0.8747
vn 0.1741 -0.4524 0.8747
vn 0.9821 -0.1885 0.0000
vn 0.8630 -0.5053 0.0000
vn -0.9821 -0.1885 0.0000
vn 0.0000 -0.1838 -0.9830
vn -0.6247 0.0000 0.7808
vn -0.6216 -0.1084 0.7758
vn 0.6216 -0.1084 0.7758
vn 0.6247 0.0000 0.7808
vn -0.5582 -0.3418 0.7561
vn 0.5582 -0.3418 0.7561
vn -0.8630 -0.5053 0.0000
vn 0.0000 -0.9970 0.0772
vn -0.4536 -0.5103 0.7306
vn -0.7774 -0.6290 0.0000
vn 0.7774 -0.6290 0.0000
vn 0.4536 -0.5103 0.7306
vn -0.3363 -0.3591 0.8706
vn 0.3363 -0.3591 0.8706
vn 0.3310 0.0000 0.9436
vn -0.3310 0.0000 0.9436
vn 0.5207 -0.8043 0.2864
vn 0.5373 -0.8085 0.2401
vn -0.5207 -0.8043 0.2864
vn -0.5373 -0.8085 0.2401
vn 0.6005 -0.7996 0.0000
vn -0.6005 -0.7996 0.0000
vn 0.0000 -0.9501 0.3119
usemtl White
s 1
f 5//1 6//1 2//1 1//1
f 2//1 4//1 3//1 1//1
f 43//1 44//1 6//1 5//1
f 4//1 8//1 7//1 3//1
f 54//2 11//3 19//4 64//5
f 15//6 13//7 21//8 23//9
f 11//3 10//10 18//11 19//4
f 16//12 15//6 23//9 24//13
f 1//14 3//15 14//15 10//14
f 7//16 8//17 15//17 16//16
f 5//18 1//14 10//14 11//18
f 8//17 4//19 13//19 15//17
f 43//20 5//18 11//18 54//20
f 2//21 6//22 12//22 9//21
f 4//19 2//21 9//21 13//19
f 3//15 7//16 16//16 14//15
f 6//22 44//23 56//23 12//22
f 21//24 17//25 25//26 29//27
f 17//25 20//28 28//29 25//26
f 64//30 19//31 27//32 74//33
f 23//34 21//24 29//27 31//35
f 9//36 12//37 20//38 17//39
f 13//7 9//36 17//39 21//8
f 14//40 16//12 24//13 22//41
f 12//37 56//42 66//43 20//38
f 10//10 14//40 22//41 18//11
f 32//44 31//35 39//45 40//46
f 26//47 30//48 38//49 34//50
f 28//29 76//51 86//52 36//53
f 30//48 32//44 40//46 38//49
f 22//54 24//55 32//44 30//48
f 20//28 66//56 76//51 28//29
f 18//57 22//54 30//48 26//47
f 24//55 23//34 31//35 32//44
f 19//31 18//57 26//47 27//32
f 35//58 34//59 33//59 36//58
f 33//59 34//59 38//60 37//61
f 84//62 35//58 36//58 86//62
f 37//61 38//60 40//63 39//63
f 27//32 26//47 34//50 35//64
f 31//35 29//27 37//65 39//45
f 74//33 27//32 35//64 84//66
f 25//26 28//29 36//53 33//67
f 29//27 25//26 33//67 37//65
f 47//1 41//1 42//1 48//1
f 42//1 41//1 45//1 46//1
f 43//1 47//1 48//1 44//1
f 46//1 45//1 49//1 50//1
f 54//2 64//5 63//68 53//69
f 59//70 69//71 67//72 57//73
f 53//69 63//68 62//74 52//75
f 60//76 70//77 69//71 59//70
f 41//78 52//78 58//79 45//79
f 49//80 60//80 59//81 50//81
f 47//82 53//82 52//78 41//78
f 50//81 59//81 57//83 46//83
f 43//20 54//20 53//82 47//82
f 42//84 51//84 55//85 48//85
f 46//83 57//83 51//84 42//84
f 45//79 58//79 60//80 49//80
f 48//85 55//85 56//23 44//23
f 67//86 77//87 71//88 61//89
f 61//89 71//88 75//90 65//91
f 64//30 74//33 73//92 63//93
f 69//94 79//95 77//87 67//86
f 51//96 61//97 65//98 55//99
f 57//73 67//72 61//97 51//96
f 58//100 68//101 70//77 60//76
f 55//99 65//98 66//43 56//42
f 52//75 62//74 68//101 58//100
f 80//102 90//103 89//104 79//95
f 72//105 82//106 88//107 78//108
f 75//90 85//109 86//52 76//51
f 78//108 88//107 90//103 80//102
f 68//110 78//108 80//102 70//111
f 65//91 75//90 76//51 66//56
f 62//112 72//105 78//108 68//110
f 70//111 80//102 79//95 69//94
f 63//93 73//92 72//105 62//112
f 83//113 85//113 81//114 82//114
f 81//114 87//115 88//116 82//114
f 84//62 86//62 85//113 83//113
f 87//115 89//117 90//117 88//116
f 73//92 83//118 82//106 72//105
f 79//95 89//104 87//119 77//87
f 74//33 84//66 83//118 73//92
f 71//88 81//120 85//109 75//90
f 77//87 87//119 81//120 71//88
f 95//121 91//121 92//121 96//121
f 92//121 91//121 93//121 94//121
f 101//121 95//121 96//121 102//121
f 94//121 93//121 97//121 98//121
f 105//121 106//121 100//121 99//121
f 100//121 104//121 103//121 99//121
f 101//121 102//121 106//121 105//121
f 104//121 108//121 107//121 103//121
f 111//1 113//1 109//1 110//1
f 109//1 115//1 116//1 110//1
f 112//1 114//1 113//1 111//1
f 115//1 117//1 118//1 116//1
f 121//1 120//1 119//1 122//1
f 119//1 120//1 124//1 123//1
f 112//1 121//1 122//1 114//1
f 123//1 124//1 126//1 125//1
f 99//122 103//123 124//124 120//125
f 94//126 98//127 117//128 115//129
f 105//130 99//122 120//125 121//131
f 97//132 93//133 116//134 118//135
f 92//136 94//126 115//129 109//137
f 100//138 106//139 122//140 119//141
f 93//133 91//142 110//143 116//134
f 101//144 105//130 121//131 112//145
f 91//142 95//146 111//147 110//143
f 107//148 108//149 125//150 126//151
f 106//139 102//152 114//153 122//140
f 96//154 92//136 109//137 113//155
f 108//149 104//156 123//157 125//150
f 95//146 101//144 112//145 111//147
f 103//123 107//148 126//151 124//124
f 102//152 96//154 113//155 114//153
f 104//156 100//138 119//141 123//157
f 98//127 97//132 118//135 117//128
f 134//158 133//159 144//160 149//161
f 127//162 130//163 146//164 148//165
f 128//166 132//167 150//168 147//169
f 139//170 136//171 135//171 140//170
f 135//171 136//171 138//121 137//121
f 137//121 138//121 142//121 141//121
f 144//160 143//172 137//173 141//174
f 146//175 145//175 139//176 140//176
f 145//177 147//169 136//178 139//179
f 143//172 148//165 135//180 137//173
f 150//168 149//161 142//181 138//182
f 149//161 144//160 141//174 142//181
f 148//165 146//164 140//183 135//180
f 147//169 150//168 138//182 136//178
f 132//167 134//158 149//161 150//168
f 131//184 127//162 148//165 143//172
f 129//185 128//166 147//169 145//177
f 130//186 129//186 145//175 146//175
f 133//159 131//184 143//172 144//160
f 156//187 155//187 164//188 167//188
f 152//189 154//190 168//191 165//192
f 157//121 158//121 160//121 159//121
f 159//121 160//121 162//121 161//121
f 164//193 163//194 159//195 161//196
f 163//194 166//197 157//198 159//195
f 168//191 167//199 162//200 160//201
f 167//188 164//188 161//202 162//202
f 153//1 155//1 156//1 154//1 152//1 151//1
f 165//192 168//191 160//201 158//203
f 154//190 156//204 167//199 168//191
f 153//205 151//206 166//197 163//194
f 165//207 166//207 151//207 152//207
f 157//207 166//207 165//207 158//207
f 155//208 153//205 163//194 164//193
f 173//209 170//209 169//209 174//209
f 171//209 172//209 173//209 174//209
f 177//207 178//207 180//207 179//207
f 175//207 178//207 177//207 176//207
f 173//210 172//210 176//210 177//210
f 174//211 169//211 180//211 178//211
f 171//211 174//211 178//211 175//211
f 172//121 171//121 175//121 176//121
f 169//1 170//1 179//1 180//1
f 170//210 173//210 177//210 179//210
f 191//212 193//213 190//214 188//215
f 181//209 182//216 184//216 183//209
f 198//217 195//218 202//219 203//220
f 191//212 188//215 195//218 198//217
f 181//209 183//209 186//209 185//209
f 183//221 192//221 197//222 186//222
f 187//223 189//210 182//210 181//223
f 183//221 184//211 194//211 192//221
f 184//216 182//216 205//224 206//224
f 188//215 190//214 189//225 187//226
f 193//213 191//212 192//227 194//228
f 195//218 188//215 187//226 196//229
f 191//212 198//217 197//230 192//227
f 187//223 181//223 185//231 196//231
f 200//121 199//121 204//232 201//232
f 185//209 186//209 199//209 200//209
f 195//218 196//229 201//233 202//219
f 196//231 185//231 200//234 201//234
f 186//222 197//222 204//235 199//235
f 197//230 198//217 203//220 204//236
f 207//237 210//238 216//239 213//240
f 193//213 194//241 209//242 210//238
f 189//243 190//214 207//237 208//244
f 194//241 184//245 206//245 209//242
f 190//214 193//213 210//238 207//237
f 182//246 189//243 208//244 205//246
f 212//1 211//1 214//1 213//1 216//1 215//1
f 210//238 209//228 215//228 216//239
f 206//224 205//224 211//209 212//209
f 209//211 206//211 212//211 215//211
f 205//210 208//210 214//210 211//210
f 208//225 207//237 213//240 214//225
f 201//232 204//232 203//247 202//247
