# Blender v2.79 (sub 0) OBJ File: 'Bathroom_WashingMachine.blend'
# www.blender.org
mtllib Bathroom_WashingMachine.mtl
o Bathroom_WashingMachine_Cube.019
v -0.500119 1.390465 0.532170
v -0.500119 1.418777 0.574902
v -0.547304 1.367512 0.546843
v -0.547304 1.395824 0.589576
v -0.547304 1.321606 0.576190
v -0.547304 1.349918 0.618923
v -0.500119 1.298653 0.590863
v -0.500119 1.326965 0.633596
v -0.452934 1.321606 0.576190
v -0.452934 1.349918 0.618923
v -0.452934 1.367512 0.546843
v -0.452934 1.395824 0.589576
v -0.377438 1.390465 0.532170
v -0.377438 1.418777 0.574902
v -0.424623 1.367512 0.546843
v -0.424623 1.395824 0.589576
v -0.424623 1.321606 0.576190
v -0.424623 1.349918 0.618923
v -0.377438 1.298653 0.590863
v -0.377438 1.326965 0.633596
v -0.330253 1.321606 0.576190
v -0.330253 1.349918 0.618923
v -0.330253 1.367512 0.546843
v -0.330253 1.395824 0.589576
v -0.254757 1.390465 0.532170
v -0.254757 1.418777 0.574902
v -0.301942 1.367512 0.546843
v -0.301942 1.395824 0.589576
v -0.301942 1.321606 0.576190
v -0.301942 1.349918 0.618923
v -0.254757 1.298653 0.590863
v -0.254757 1.326965 0.633596
v -0.207572 1.321606 0.576190
v -0.207572 1.349918 0.618923
v -0.207572 1.367512 0.546843
v -0.207572 1.395824 0.589576
v -0.132076 1.390465 0.532170
v -0.132076 1.418777 0.574902
v -0.179261 1.367512 0.546843
v -0.179261 1.395824 0.589576
v -0.179261 1.321606 0.576190
v -0.179261 1.349918 0.618923
v -0.132076 1.298653 0.590863
v -0.132076 1.326965 0.633596
v -0.084891 1.321606 0.576190
v -0.084891 1.349918 0.618923
v -0.084891 1.367512 0.546843
v -0.084891 1.395824 0.589576
v 0.558626 1.412446 0.546554
v 0.558626 1.327043 0.608049
v 0.558626 1.327043 0.626828
v 0.558626 1.412446 0.565333
v 0.521218 1.327043 0.608049
v 0.521218 1.412446 0.546554
v 0.521218 1.327043 0.626828
v 0.521218 1.412446 0.565333
v 0.498773 1.412446 0.546554
v 0.498773 1.327043 0.608049
v 0.498773 1.327043 0.626828
v 0.498773 1.412446 0.565333
v 0.461365 1.327043 0.608049
v 0.461365 1.412446 0.546554
v 0.461365 1.327043 0.626828
v 0.461365 1.412446 0.565333
v 0.438920 1.412446 0.546554
v 0.438920 1.327043 0.608049
v 0.438920 1.327043 0.626828
v 0.438920 1.412446 0.565333
v 0.401512 1.327043 0.608049
v 0.401512 1.412446 0.546554
v 0.401512 1.327043 0.626828
v 0.401512 1.412446 0.565333
v 0.379067 1.412446 0.546554
v 0.379067 1.327043 0.608049
v 0.379067 1.327043 0.626828
v 0.379067 1.412446 0.565333
v 0.341659 1.327043 0.608049
v 0.341659 1.412446 0.546554
v 0.341659 1.327043 0.626828
v 0.341659 1.412446 0.565333
v -0.645957 0.000000 0.617655
v -0.645957 0.000000 -0.617655
v -0.645957 1.470195 -0.617655
v 0.645957 0.000000 0.617655
v 0.645957 0.000000 -0.617655
v 0.645957 1.470195 -0.617655
v -0.645957 0.068336 0.617655
v -0.645957 1.218538 0.617655
v -0.645957 1.218538 -0.617655
v -0.645957 0.068336 -0.617655
v 0.645957 1.218538 -0.617655
v 0.645957 0.068336 -0.617655
v 0.645957 1.218538 0.617655
v 0.645957 0.068336 0.617655
v 0.176982 0.451357 0.657776
v 0.000000 0.393852 0.657776
v 0.000000 0.317014 0.657640
v 0.000000 0.336443 0.516252
v 0.222146 0.389194 0.657640
v 0.210726 0.404912 0.516252
v 0.359441 0.578163 0.657640
v 0.340963 0.584167 0.516252
v 0.359441 0.811742 0.657640
v 0.340963 0.805738 0.516252
v 0.222146 1.000711 0.657640
v 0.210726 0.984993 0.516252
v 0.000000 1.072891 0.657640
v 0.000000 1.053462 0.516252
v -0.222146 1.000711 0.657640
v -0.210726 0.984993 0.516252
v -0.359440 0.811742 0.657640
v -0.340962 0.805738 0.516252
v -0.359440 0.578163 0.657640
v -0.340962 0.584167 0.516252
v -0.222146 0.389194 0.657640
v -0.210726 0.404912 0.516252
v 0.286363 0.601908 0.657776
v 0.286363 0.787998 0.657776
v 0.176982 0.938548 0.657776
v 0.000000 0.996053 0.657776
v -0.176982 0.938548 0.657776
v -0.286363 0.787998 0.657776
v -0.286363 0.601907 0.657776
v -0.176982 0.451357 0.657776
v -0.167223 0.464789 0.647515
v 0.000000 0.410455 0.647515
v -0.270573 0.607038 0.647515
v -0.270573 0.782867 0.647515
v -0.167223 0.925116 0.647515
v 0.000000 0.979450 0.647515
v 0.167223 0.925116 0.647515
v 0.270573 0.782867 0.647515
v 0.270573 0.607038 0.647515
v 0.167223 0.464789 0.647515
v -0.120098 0.529652 0.680534
v 0.000000 0.490630 0.680534
v -0.194322 0.631813 0.680534
v -0.194322 0.758092 0.680534
v -0.120098 0.860253 0.680534
v 0.000000 0.899275 0.680534
v 0.120098 0.860253 0.680534
v 0.194323 0.758092 0.680534
v 0.194323 0.631813 0.680534
v 0.120098 0.529652 0.680534
v -0.066113 0.603956 0.706057
v 0.000000 0.582474 0.706057
v -0.106973 0.660195 0.706057
v -0.106973 0.729710 0.706057
v -0.066113 0.785949 0.706057
v 0.000000 0.807431 0.706057
v 0.066113 0.785949 0.706057
v 0.106973 0.729710 0.706057
v 0.106973 0.660195 0.706057
v 0.066113 0.603956 0.706057
v -0.645957 1.274552 0.617655
v -0.645957 1.470195 0.476780
v 0.645957 1.470195 0.476780
v 0.645957 1.274552 0.617655
v 0.645957 1.218538 0.660675
v -0.645957 1.218538 0.660675
v 0.645957 1.274552 0.660675
v 0.645957 1.470195 0.519800
v -0.645957 1.470195 0.519800
v -0.645957 1.274552 0.660675
v 0.152946 1.313260 0.632803
v 0.152946 1.431487 0.547672
v -0.032922 1.431487 0.547672
v -0.032922 1.313260 0.632803
v 0.152946 1.305199 0.621609
v 0.152946 1.423427 0.536478
v -0.032922 1.423427 0.536478
v -0.032922 1.305199 0.621609
v -0.645957 0.054966 -0.617655
v 0.645957 0.054966 -0.617655
v 0.645957 0.054966 0.617655
v -0.645957 0.054966 0.617655
vn 0.0000 1.0000 0.0000
vn 0.0000 0.0000 -1.0000
vn -1.0000 0.0000 0.0000
vn 1.0000 0.0000 0.0000
vn 0.0000 0.0000 1.0000
vn 0.3090 0.4253 0.8506
vn 0.0000 0.5258 0.8506
vn 0.3064 -0.9430 -0.1296
vn 0.5000 -0.1625 0.8506
vn 0.5000 0.1625 0.8506
vn 0.0010 0.0014 1.0000
vn -0.0000 0.0018 1.0000
vn 0.8022 -0.5828 -0.1296
vn -0.5000 -0.1625 0.8506
vn -0.3090 -0.4253 0.8506
vn -0.0010 0.0014 1.0000
vn -0.0017 0.0005 1.0000
vn 0.9916 0.0000 -0.1296
vn -0.3090 0.4253 0.8506
vn -0.5000 0.1625 0.8506
vn -0.0017 -0.0005 1.0000
vn -0.0010 -0.0014 1.0000
vn 0.8022 0.5828 -0.1296
vn 0.3090 -0.4253 0.8506
vn 0.0010 -0.0014 1.0000
vn 0.0017 -0.0005 1.0000
vn 0.3064 0.9430 -0.1296
vn -0.0000 -0.5258 0.8506
vn 0.0017 0.0005 1.0000
vn -0.3064 0.9430 -0.1296
vn -0.0000 -0.0018 1.0000
vn -0.8022 0.5828 -0.1296
vn -0.9916 0.0000 -0.1296
vn -0.8022 -0.5828 -0.1296
vn -0.3064 -0.9430 -0.1296
vn 0.0000 -1.0000 0.0000
vn 0.0000 0.5843 0.8115
vn 0.0000 -0.8115 0.5843
vn 0.0000 0.8115 -0.5843
vn -0.5000 0.7220 -0.4783
vn -0.5000 -0.7220 0.4783
vn 0.5000 -0.7220 0.4783
vn -0.0000 0.5386 0.8425
vn 0.4999 0.7220 -0.4783
vn 0.0000 -0.5386 -0.8425
vn 0.5000 0.7220 -0.4783
vn 0.0000 -0.5843 -0.8115
vn -0.3622 0.1177 0.9247
vn -0.3622 -0.1177 0.9247
vn -0.3190 -0.1037 0.9421
vn -0.3190 0.1037 0.9421
vn 0.3190 0.1037 0.9421
vn 0.1972 0.2714 0.9421
vn 0.0949 0.1306 0.9869
vn 0.1535 0.0499 0.9869
vn -0.0000 -0.3808 0.9247
vn 0.2238 -0.3081 0.9247
vn 0.1972 -0.2714 0.9421
vn -0.0000 -0.3355 0.9421
vn 0.3622 0.1177 0.9247
vn 0.2238 0.3081 0.9247
vn -0.2238 0.3081 0.9247
vn -0.1972 0.2714 0.9421
vn -0.2238 -0.3081 0.9247
vn -0.1972 -0.2714 0.9421
vn 0.3622 -0.1177 0.9247
vn 0.3190 -0.1037 0.9421
vn -0.0000 0.3808 0.9247
vn -0.0000 0.3355 0.9421
vn 0.0000 -0.1614 0.9869
vn 0.0949 -0.1306 0.9869
vn 0.1535 -0.0499 0.9869
vn 0.0000 0.1614 0.9869
vn -0.0949 0.1306 0.9869
vn -0.1535 0.0499 0.9869
vn -0.1535 -0.0499 0.9869
vn -0.0949 -0.1306 0.9869
usemtl White
s 1
f 86//1 83//1 156//1 157//1
f 89//2 83//2 86//2 91//2
f 88//3 155//3 156//3 83//3 89//3
f 91//4 86//4 157//4 158//4 93//4
f 94//5 93//5 88//5 87//5
f 92//4 91//4 93//4 94//4
f 90//2 89//2 91//2 92//2
f 87//3 88//3 89//3 90//3
f 124//6 96//7 126//7 125//6
f 97//8 98//8 100//8 99//8
f 122//9 123//10 127//10 128//9
f 105//11 107//12 120//12 119//11
f 99//13 100//13 102//13 101//13
f 118//14 119//15 131//15 132//14
f 109//16 111//17 122//17 121//16
f 101//18 102//18 104//18 103//18
f 95//19 117//20 133//20 134//19
f 113//21 115//22 124//22 123//21
f 103//23 104//23 106//23 105//23
f 121//24 122//9 128//9 129//24
f 99//25 101//26 117//26 95//25
f 105//27 106//27 108//27 107//27
f 119//15 120//28 130//28 131//15
f 103//29 105//11 119//11 118//29
f 107//30 108//30 110//30 109//30
f 117//20 118//14 132//14 133//20
f 97//31 99//25 95//25 96//31
f 109//32 110//32 112//32 111//32
f 96//7 95//19 134//19 126//7
f 107//12 109//16 121//16 120//12
f 111//33 112//33 114//33 113//33
f 123//10 124//6 125//6 127//10
f 111//17 113//21 123//21 122//17
f 113//34 114//34 116//34 115//34
f 120//28 121//24 129//24 130//28
f 115//35 116//35 98//35 97//35
f 101//26 103//29 118//29 117//26
f 93//4 158//4 161//4 159//4
f 88//36 93//36 159//36 160//36
f 162//37 163//37 167//37 166//37
f 159//5 161//5 164//5 160//5
f 156//3 155//3 164//3 163//3
f 158//4 157//4 162//4 161//4
f 155//3 88//3 160//3 164//3
f 157//1 156//1 163//1 162//1
f 166//38 167//38 171//38 170//38
f 163//37 164//37 168//37 167//37
f 161//37 162//37 166//37 165//37
f 164//37 161//37 165//37 168//37
f 167//4 168//4 172//4 171//4
f 165//3 166//3 170//3 169//3
f 168//39 165//39 169//39 172//39
f 115//22 97//31 96//31 124//22
f 81//3 176//3 173//3 82//3
f 82//2 173//2 174//2 85//2
f 85//4 174//4 175//4 84//4
f 84//5 175//5 176//5 81//5
usemtl Black
f 170//37 171//37 172//37 169//37
usemtl Grey
f 1//40 3//40 4//40 2//40
f 3//3 5//3 6//3 4//3
f 5//41 7//41 8//41 6//41
f 7//42 9//42 10//42 8//42
f 4//43 6//43 8//43 10//43 12//43 2//43
f 9//4 11//4 12//4 10//4
f 11//44 1//44 2//44 12//44
f 1//45 11//45 9//45 7//45 5//45 3//45
f 13//40 15//40 16//40 14//40
f 15//3 17//3 18//3 16//3
f 17//41 19//41 20//41 18//41
f 19//42 21//42 22//42 20//42
f 16//43 18//43 20//43 22//43 24//43 14//43
f 21//4 23//4 24//4 22//4
f 23//46 13//46 14//46 24//46
f 13//45 23//45 21//45 19//45 17//45 15//45
f 25//40 27//40 28//40 26//40
f 27//3 29//3 30//3 28//3
f 29//41 31//41 32//41 30//41
f 31//42 33//42 34//42 32//42
f 28//43 30//43 32//43 34//43 36//43 26//43
f 33//4 35//4 36//4 34//4
f 35//46 25//46 26//46 36//46
f 25//45 35//45 33//45 31//45 29//45 27//45
f 37//40 39//40 40//40 38//40
f 39//3 41//3 42//3 40//3
f 41//41 43//41 44//41 42//41
f 43//42 45//42 46//42 44//42
f 40//43 42//43 44//43 46//43 48//43 38//43
f 45//4 47//4 48//4 46//4
f 47//46 37//46 38//46 48//46
f 37//45 47//45 45//45 43//45 41//45 39//45
f 50//4 49//4 52//4 51//4
f 53//3 55//3 56//3 54//3
f 49//1 54//1 56//1 52//1
f 52//37 56//37 55//37 51//37
f 51//36 55//36 53//36 50//36
f 50//47 53//47 54//47 49//47
f 58//4 57//4 60//4 59//4
f 61//3 63//3 64//3 62//3
f 57//1 62//1 64//1 60//1
f 60//37 64//37 63//37 59//37
f 59//36 63//36 61//36 58//36
f 58//47 61//47 62//47 57//47
f 66//4 65//4 68//4 67//4
f 69//3 71//3 72//3 70//3
f 65//1 70//1 72//1 68//1
f 68//37 72//37 71//37 67//37
f 67//36 71//36 69//36 66//36
f 66//47 69//47 70//47 65//47
f 74//4 73//4 76//4 75//4
f 77//3 79//3 80//3 78//3
f 73//1 78//1 80//1 76//1
f 76//37 80//37 79//37 75//37
f 75//36 79//36 77//36 74//36
f 74//47 77//47 78//47 73//47
f 82//36 85//36 84//36 81//36
f 175//5 94//5 87//5 176//5
f 174//4 92//4 94//4 175//4
f 173//2 90//2 92//2 174//2
f 176//3 87//3 90//3 173//3
f 128//48 127//49 137//50 138//51
f 142//52 141//53 151//54 152//55
f 126//56 134//57 144//58 136//59
f 132//60 131//61 141//53 142//52
f 129//62 128//48 138//51 139//63
f 125//64 126//56 136//59 135//65
f 133//66 132//60 142//52 143//67
f 130//68 129//62 139//63 140//69
f 127//49 125//64 135//65 137//50
f 134//57 133//66 143//67 144//58
f 131//61 130//68 140//69 141//53
f 146//70 154//71 153//72 152//55 151//54 150//73 149//74 148//75 147//76 145//77
f 139//63 138//51 148//75 149//74
f 135//65 136//59 146//70 145//77
f 143//67 142//52 152//55 153//72
f 140//69 139//63 149//74 150//73
f 137//50 135//65 145//77 147//76
f 144//58 143//67 153//72 154//71
f 141//53 140//69 150//73 151//54
f 138//51 137//50 147//76 148//75
f 136//59 144//58 154//71 146//70
