# Blender v2.79 (sub 0) OBJ File: 'Bed_Single.blend'
# www.blender.org
mtllib Bed_Single.mtl
o Bed_Single_Cube.044
v -0.282109 0.747484 -1.668786
v -0.282109 1.028280 -1.542163
v -0.264630 0.845783 -1.214023
v 0.642974 0.903833 -1.639833
v -0.533497 0.895858 -1.622654
v 0.371972 1.011884 -1.865364
v -0.282109 1.011884 -1.865364
v 0.371972 0.844770 -1.194628
v 0.371972 1.028280 -1.542163
v 0.371972 0.747484 -1.668786
v -0.282109 0.876046 -1.844648
v 0.561214 0.798535 -1.687317
v -0.451737 0.790559 -1.670138
v 0.371972 0.732238 -1.274052
v -0.282109 1.086643 -1.749680
v 0.561214 1.009132 -1.592349
v -0.451737 1.001156 -1.575170
v 0.371972 0.963062 -1.264543
v -0.552637 0.845016 -1.218871
v 0.670087 0.846434 -1.230356
v 0.658037 1.001790 -1.841203
v -0.572058 1.005061 -1.848249
v 0.371972 0.876046 -1.844648
v -0.264630 0.733251 -1.293447
v 0.371972 1.086643 -1.749680
v -0.264630 0.964075 -1.283938
v 0.013858 1.006977 -1.854794
v 0.044932 0.844770 -1.194628
v 0.044932 1.028280 -1.542163
v 0.044932 0.747484 -1.668786
v -0.508467 0.903309 -1.830378
v 0.594446 0.900038 -1.823332
v -0.489046 0.761766 -1.280469
v 0.604218 0.763184 -1.289513
v 0.594446 1.056036 -1.752986
v -0.508467 1.059307 -1.760032
v 0.604484 0.934165 -1.282474
v -0.489046 0.932746 -1.273425
v 0.013858 0.871139 -1.834079
v 0.044932 0.732238 -1.274052
v 0.013858 1.081736 -1.739111
v 0.044932 0.963062 -1.264543
v 0.044932 0.707164 -1.463672
v 0.044932 1.002660 -1.451499
v -0.439941 0.965688 -1.458030
v 0.557084 0.967297 -1.469082
v -0.439941 0.744407 -1.467146
v 0.556740 0.746016 -1.478191
v 0.371972 0.707164 -1.463672
v 0.371972 1.002660 -1.451499
v -0.535850 0.854196 -1.443870
v 0.636068 0.856299 -1.467355
v -0.279322 1.002822 -1.454591
v -0.279322 0.707326 -1.466764
v 0.895000 0.000000 1.970000
v 0.895031 0.040152 1.969286
v 0.895000 0.000000 1.870000
v 0.895031 0.040152 1.867968
v 0.946615 0.040152 1.867968
v 0.945000 0.000000 1.870000
v 0.945000 0.000000 1.970000
v 0.946615 0.040152 1.969286
v 0.895031 0.303338 1.969286
v 0.895031 0.460973 1.969286
v 0.895031 0.303338 1.867968
v 0.895031 0.460973 1.867968
v 0.946615 0.460973 1.867968
v 0.946615 0.303338 1.867968
v 0.946615 0.303338 1.969286
v 0.946615 0.460973 1.969286
v -0.895000 0.000000 1.970000
v -0.892083 0.040152 1.969286
v -0.895000 0.000000 1.870000
v -0.892083 0.040152 1.867968
v 0.745000 0.000000 1.870000
v 0.742081 0.040152 1.867968
v 0.745000 0.000000 1.970000
v 0.742081 0.040152 1.969286
v -0.943667 0.040152 1.867968
v -0.945000 0.000000 1.870000
v -0.945000 0.000000 1.970000
v -0.943667 0.040152 1.969286
v -0.892083 0.303338 1.969286
v -0.892083 0.460973 1.969286
v -0.892083 0.303338 1.867968
v -0.892083 0.460973 1.867968
v 0.742081 0.303338 1.867968
v 0.742081 0.460973 1.867968
v 0.742081 0.303338 1.969286
v 0.742081 0.460973 1.969286
v -0.943667 0.460973 1.867968
v -0.943667 0.303338 1.867968
v -0.943667 0.303338 1.969286
v -0.943667 0.460973 1.969286
v 0.895000 0.000000 -1.970000
v 0.895031 0.040152 -1.969286
v 0.895000 0.000000 -1.870000
v 0.895031 0.040152 -1.867968
v 0.946615 0.040152 -1.867968
v 0.945000 0.000000 -1.870000
v 0.945000 0.000000 -1.970000
v 0.946615 0.040152 -1.969286
v 0.895031 0.303338 -1.969286
v 0.895031 0.460973 -1.969286
v 0.895031 0.303338 -1.867968
v 0.895031 0.460973 -1.867968
v 0.946615 0.460973 -1.867968
v 0.946615 0.303338 -1.867968
v 0.946615 0.303338 -1.969286
v 0.946615 0.460973 -1.969286
v 0.895031 0.460973 0.234938
v 0.895031 0.303338 0.234938
v 0.946615 0.460973 0.234938
v 0.946615 0.303338 0.234938
v -0.895000 0.000000 -1.970000
v -0.892083 0.040152 -1.969286
v -0.895000 0.000000 -1.870000
v -0.892083 0.040152 -1.867968
v 0.745000 0.000000 -1.870000
v 0.742081 0.040152 -1.867968
v 0.745000 0.000000 -1.970000
v 0.742081 0.040152 -1.969286
v -0.943667 0.040152 -1.867968
v -0.945000 0.000000 -1.870000
v -0.945000 0.000000 -1.970000
v -0.943667 0.040152 -1.969286
v -0.892083 0.303338 -1.969286
v -0.892083 0.460973 -1.969286
v -0.892083 0.303338 -1.867968
v -0.892083 0.460973 -1.867968
v 0.742081 0.303338 -1.867968
v 0.742081 0.460973 -1.867968
v 0.742081 0.303338 -1.969286
v 0.742081 0.460973 -1.969286
v -0.943667 0.460973 -1.867968
v -0.943667 0.303338 -1.867968
v -0.943667 0.303338 -1.969286
v -0.943667 0.460973 -1.969286
v 0.742081 0.460973 0.234938
v -0.892083 0.460973 0.234938
v -0.892083 0.303338 0.234938
v 0.742081 0.303338 0.234938
v -0.943667 0.460973 0.234938
v -0.943667 0.303338 0.234938
v 0.895031 1.354575 -1.969286
v 0.895031 1.314423 -1.969286
v 0.895031 1.354575 -1.867968
v 0.895031 1.314423 -1.867968
v 0.946615 1.314423 -1.867968
v 0.946615 1.354575 -1.867968
v 0.946615 1.354575 -1.969286
v 0.946615 1.314423 -1.969286
v -0.892082 1.354575 -1.969286
v -0.892082 1.314423 -1.969286
v -0.892082 1.354575 -1.867968
v -0.892082 1.314423 -1.867968
v 0.742081 1.354575 -1.867968
v 0.742081 1.314423 -1.867968
v 0.742081 1.354575 -1.969286
v 0.742081 1.314423 -1.969286
v -0.943667 1.314423 -1.867968
v -0.943667 1.354575 -1.867968
v -0.943667 1.354575 -1.969286
v -0.943667 1.314423 -1.969286
v 0.951081 0.491001 1.866470
v 0.910073 0.491001 1.907477
v 0.910073 0.449994 1.866470
v 0.951081 0.739460 1.866470
v 0.910073 0.780468 1.866470
v 0.910073 0.739460 1.907477
v 0.910073 0.449994 -1.897114
v 0.910073 0.491001 -1.938122
v 0.951081 0.491001 -1.897114
v 0.910073 0.780468 -1.897114
v 0.951081 0.739460 -1.897114
v 0.910073 0.739460 -1.938122
v 0.910073 0.449994 0.234938
v 0.951081 0.491001 0.234938
v 0.951081 0.739460 0.234938
v 0.910073 0.804734 0.234938
v -0.908296 0.491001 1.866470
v -0.867289 0.491001 1.907477
v -0.867289 0.449994 1.866470
v -0.908296 0.739460 1.866470
v -0.867289 0.780468 1.866470
v -0.867289 0.739460 1.907477
v -0.867289 0.449994 -1.897114
v -0.867289 0.491001 -1.938122
v -0.908296 0.491001 -1.897114
v -0.867289 0.780468 -1.897114
v -0.908296 0.739460 -1.897114
v -0.867289 0.739460 -1.938122
v -0.867289 0.449994 0.234938
v -0.908296 0.491001 0.234938
v -0.908296 0.739460 0.234938
v -0.867289 0.804734 0.234938
v 0.910073 0.449994 -1.147517
v 0.951081 0.739460 -1.147517
v 0.951081 0.491001 -1.147517
v 0.910073 0.788999 -1.147517
v -0.867289 0.449994 -1.147517
v -0.908296 0.739460 -1.147517
v -0.908296 0.491001 -1.147517
v -0.867289 0.788999 -1.147517
v 0.982405 0.469910 -1.087638
v 0.940619 0.817486 -1.087638
v -0.939621 0.469910 -1.087638
v -0.897835 0.817486 -1.087638
v 0.940619 0.422189 -1.087638
v 0.982405 0.759043 -1.087638
v -0.897835 0.422189 -1.087638
v -0.939621 0.759043 -1.087638
v 0.975410 0.474619 -0.792300
v 0.933798 0.814638 -0.792300
v -0.932626 0.474619 -0.792300
v -0.891014 0.814638 -0.792300
v 0.933798 0.428398 -0.792300
v 0.975410 0.754670 -0.792300
v -0.891014 0.428398 -0.792300
v -0.932626 0.754670 -0.792300
v 0.934835 0.427453 -0.837232
v 0.976474 0.755336 -0.837232
v -0.892051 0.427453 -0.837232
v -0.933690 0.755336 -0.837232
v 0.976474 0.473903 -0.837232
v 0.934835 0.842160 -0.820344
v -0.933690 0.473903 -0.837232
v -0.892051 0.842160 -0.820344
v -0.071375 0.449994 1.866470
v -0.071375 0.739460 1.907477
v -0.071375 0.491001 -1.938122
v -0.071375 0.780468 -1.897114
v -0.071375 0.491001 1.907477
v -0.071375 0.780468 1.866470
v -0.071375 0.449994 -1.897114
v -0.071375 0.739460 -1.938122
v -0.071375 0.804734 0.234938
v -0.071375 0.449994 0.234938
v -0.071375 0.449994 -1.147517
v -0.071375 0.788999 -1.147517
v -0.086814 0.817486 -1.087638
v -0.086814 0.422189 -1.087638
v -0.111386 0.814638 -0.653432
v -0.083366 0.428398 -0.792300
v -0.083891 0.427453 -0.837232
v -0.174474 0.878381 -0.681476
v 0.967618 0.495595 0.230491
v 0.967618 0.742182 0.230491
v 0.926280 0.809396 0.230491
v -0.921612 0.537611 0.230491
v -0.921612 0.742182 0.230491
v -0.880273 0.809396 0.230491
v 0.542806 0.809396 0.245932
v -0.101434 0.809396 0.214633
v 0.967618 0.495595 1.341703
v 0.926280 0.796476 1.341703
v 0.967618 0.742182 1.341703
v 0.542806 0.796476 1.297885
v -0.921612 0.537611 1.341703
v -0.880273 0.796476 1.341703
v -0.921612 0.742182 1.341703
v -0.077938 0.796476 1.271957
v 0.967618 0.742182 0.740571
v 0.542806 0.803465 0.773466
v -0.921612 0.742182 0.740571
v 0.967618 0.495595 0.792786
v 0.926280 0.803465 0.740571
v -0.921612 0.537611 0.792786
v -0.880273 0.803465 0.740571
v -0.077938 0.803465 0.740571
v 1.009628 0.457523 0.230491
v -0.963621 0.499539 0.230491
v 1.009628 0.457523 1.341703
v -0.963621 0.499539 1.341703
v 1.009628 0.457523 0.792786
v -0.963621 0.499539 0.792786
v 1.012576 0.063158 0.239418
v -0.966569 0.105175 0.239418
v 1.012576 0.174098 1.341703
v -0.966569 0.216115 1.341703
v 1.012576 0.112730 0.799523
v -0.966569 0.154746 0.799523
vn -0.1022 -0.9940 -0.0380
vn -0.0016 -0.9996 -0.0290
vn -0.0033 -0.9908 0.1352
vn -0.0819 -0.9891 0.1221
vn -0.1000 -0.9154 -0.3899
vn -0.0525 -0.5321 -0.8451
vn 0.0018 -0.5227 -0.8525
vn 0.0001 -0.9149 -0.4038
vn -0.4990 -0.8116 -0.3038
vn -0.1095 -0.4406 -0.8910
vn -0.6131 -0.7889 -0.0415
vn -0.4858 -0.8705 -0.0790
vn -0.0995 0.9652 0.2420
vn -0.0839 0.9766 0.1982
vn -0.0028 0.9776 0.2107
vn -0.0017 0.9702 0.2423
vn -0.4975 0.8494 0.1761
vn -0.6144 0.7887 0.0222
vn -0.0961 0.9536 0.2855
vn -0.0812 0.9549 0.2856
vn -0.1623 0.9393 0.3024
vn -0.5133 0.8026 0.3038
vn -0.0003 0.9628 0.2701
vn 0.0004 0.9639 0.2664
vn -0.0363 -0.5821 0.8123
vn -0.0366 -0.5820 0.8124
vn -0.0268 -0.5764 0.8167
vn -0.0262 -0.5764 0.8167
vn -0.0190 -0.5884 0.8083
vn -0.0379 0.5151 0.8563
vn -0.0383 0.5150 0.8563
vn -0.0233 0.5222 0.8525
vn -0.0258 0.5086 0.8606
vn -0.0264 0.5086 0.8606
vn 0.8134 -0.5579 -0.1646
vn 0.5017 -0.7964 -0.3377
vn 0.8147 -0.5427 -0.2042
vn 0.8134 -0.5656 -0.1361
vn 0.8160 -0.5592 -0.1466
vn 0.5031 -0.8583 -0.1011
vn 0.8214 0.5693 0.0335
vn 0.5231 0.8349 0.1710
vn 0.8172 0.5676 -0.0995
vn 0.8145 0.5213 0.2547
vn 0.8187 0.4871 0.3041
vn 0.5142 0.8066 0.2916
vn -0.7874 -0.6052 -0.1173
vn -0.7900 -0.6024 -0.1145
vn -0.8026 -0.5844 -0.1198
vn -0.8206 -0.5590 -0.1189
vn -0.8061 0.5190 0.2844
vn -0.8216 0.4353 0.3682
vn -0.7890 0.6131 0.0412
vn -0.7897 0.6101 -0.0643
vn 0.0322 -0.1674 -0.9854
vn 0.0567 -0.5267 -0.8481
vn 0.0029 -0.1508 -0.9886
vn 0.0925 -0.1837 -0.9786
vn 0.1232 -0.4538 -0.8826
vn 0.0303 0.8483 -0.5287
vn 0.0290 0.8481 -0.5290
vn 0.0894 0.8540 -0.5125
vn 0.0029 0.8399 -0.5428
vn -0.0168 -0.1642 -0.9863
vn -0.0667 -0.1773 -0.9819
vn -0.0147 0.8468 -0.5317
vn -0.0130 0.8466 -0.5321
vn -0.0632 0.8522 -0.5194
vn 0.0556 -0.5887 0.8065
vn 0.0555 -0.5887 0.8065
vn 0.1133 -0.5991 0.7926
vn 0.0550 0.5213 0.8516
vn 0.1122 0.5326 0.8389
vn 0.0890 0.9675 0.2369
vn 0.0809 0.9787 0.1888
vn 0.1639 0.9720 0.1684
vn 0.0864 0.9555 0.2820
vn 0.0747 0.9581 0.2764
vn 0.1514 0.9467 0.2844
vn 0.0954 -0.9945 -0.0429
vn 0.1706 -0.9814 0.0882
vn 0.0843 -0.9903 0.1104
vn 0.0924 -0.9148 -0.3933
vn 0.3416 -0.8756 -0.3416
vn 0.3416 -0.3416 -0.8756
vn 0.8756 -0.3416 -0.3416
vn 0.3545 0.8681 -0.3474
vn 0.8809 0.3284 -0.3407
vn 0.3416 0.3416 -0.8756
vn 0.3423 -0.8963 -0.2818
vn 0.8912 -0.3431 -0.2968
vn 0.9040 0.3125 -0.2916
vn 0.3729 0.8795 -0.2956
vn 0.0000 -0.9239 -0.3827
vn 0.0000 -0.3827 -0.9239
vn 0.0000 0.3827 -0.9239
vn 0.0000 0.9217 -0.3879
vn 0.0000 0.9742 -0.2258
vn -0.3545 0.8681 -0.3474
vn -0.3729 0.8795 -0.2956
vn -0.3416 -0.8756 -0.3416
vn -0.8756 -0.3416 -0.3416
vn -0.3416 -0.3416 -0.8756
vn -0.3416 0.3416 -0.8756
vn -0.8809 0.3284 -0.3407
vn -0.3423 -0.8963 -0.2818
vn -0.8912 -0.3431 -0.2968
vn -0.9040 0.3125 -0.2916
vn 0.0000 -0.9765 -0.2157
vn 0.8756 -0.3416 0.3416
vn 0.3416 -0.3416 0.8756
vn 0.3416 -0.8756 0.3416
vn 0.8895 0.3072 0.3382
vn 0.3745 0.8577 0.3522
vn 0.3416 0.3416 0.8756
vn 0.9310 -0.3638 0.0287
vn 0.9617 0.2643 0.0724
vn 0.9525 0.3043 0.0143
vn 0.9266 -0.3757 0.0144
vn 0.8137 0.5810 0.0154
vn 0.3873 -0.9218 0.0138
vn 0.0007 0.9999 0.0103
vn -0.0001 0.9999 0.0104
vn -0.0000 0.9999 0.0126
vn 0.0004 0.9999 0.0126
vn 0.0000 0.9210 0.3895
vn 0.0000 0.3827 0.9239
vn 0.0000 -0.3827 0.9239
vn 0.0000 -0.9239 0.3827
vn 0.0000 -0.9999 0.0105
vn -0.8756 -0.3416 0.3416
vn -0.3416 -0.8756 0.3416
vn -0.3416 -0.3416 0.8756
vn -0.8895 0.3072 0.3382
vn -0.3416 0.3416 0.8756
vn -0.3745 0.8577 0.3522
vn -0.9310 -0.3638 0.0287
vn -0.9266 -0.3757 0.0144
vn -0.9525 0.3043 0.0143
vn -0.9617 0.2643 0.0724
vn -0.8137 0.5810 0.0154
vn -0.3873 -0.9218 0.0138
vn -0.0005 0.9999 0.0126
vn 0.0000 -0.9998 0.0210
vn -0.8542 0.5035 0.1300
vn -0.7347 -0.6777 0.0297
vn -0.0009 0.9999 0.0104
vn 0.8542 0.5035 0.1300
vn 0.7347 -0.6777 0.0297
vn 0.0000 -0.0505 -0.9987
vn 0.0000 0.0178 0.9998
vn 0.0000 -1.0000 0.0000
vn 0.0000 1.0000 0.0000
vn 0.9992 -0.0402 0.0000
vn 0.0000 0.0000 1.0000
vn 1.0000 0.0000 0.0000
vn -1.0000 0.0000 0.0000
vn 0.0000 0.0000 -1.0000
vn -0.9994 0.0332 0.0000
vn 0.0000 -0.0505 0.9987
vn 0.0000 0.0178 -0.9998
vn 0.4139 -0.8770 -0.2442
vn 0.0000 -0.9787 -0.2054
vn -0.9240 0.2846 -0.2553
vn -0.4850 0.8221 -0.2983
vn -0.4139 -0.8770 -0.2442
vn -0.8996 -0.3576 -0.2507
vn -0.0001 0.9596 -0.2813
vn 0.9240 0.2846 -0.2553
vn 0.4843 0.8227 -0.2977
vn 0.8996 -0.3576 -0.2507
vn 0.7459 -0.6654 0.0297
vn 0.9340 -0.3560 0.0286
vn 0.9663 0.2505 0.0593
vn 0.8692 0.4858 0.0919
vn -0.0029 0.9920 -0.1263
vn -0.0119 0.9918 -0.1275
vn -0.7459 -0.6654 0.0297
vn -0.9340 -0.3560 0.0286
vn -0.9663 0.2505 0.0593
vn -0.8692 0.4858 0.0919
vn 0.1141 0.5753 0.8099
vn -0.0979 0.4697 0.8774
vn 0.0402 0.5422 0.8393
vn 0.0087 0.9921 -0.1249
vn -0.1751 0.4232 0.8889
vn 0.9559 0.2937 0.0017
vn 0.9594 0.2820 0.0016
vn 0.8410 0.5411 0.0031
vn 0.8275 0.5615 0.0033
vn -0.0002 0.9999 0.0121
vn 0.0003 0.9999 0.0119
vn 0.0007 0.9999 0.0114
vn 0.0001 0.9999 0.0114
vn -0.9559 0.2937 0.0017
vn -0.8275 0.5615 0.0033
vn -0.8410 0.5411 0.0031
vn -0.9594 0.2820 0.0016
vn -0.0001 0.9999 0.0121
vn -0.0002 0.9999 0.0114
vn -0.9522 0.3055 0.0018
vn 0.9522 0.3055 0.0018
vn -0.0004 0.9999 0.0128
vn -0.0000 0.9999 0.0128
vn 0.0005 0.9999 0.0123
vn -0.8133 0.5818 0.0034
vn -0.0002 0.9999 0.0124
vn 0.8133 0.5818 0.0034
vn -0.6715 0.7410 0.0000
vn 0.6715 0.7410 0.0000
vn -1.0000 0.0087 -0.0004
vn -1.0000 0.0080 -0.0004
vn -1.0000 0.0086 -0.0004
vn -1.0000 0.0094 -0.0005
vn 1.0000 0.0080 -0.0004
vn 1.0000 0.0087 -0.0004
vn 1.0000 0.0086 -0.0004
vn 1.0000 0.0094 -0.0005
usemtl White
s 1
f 54//1 43//2 40//3 24//4
f 1//5 11//6 39//7 30//8
f 1//5 13//9 31//10 11//6
f 54//1 24//4 33//11 47//12
f 53//13 26//14 42//15 44//16
f 53//13 45//17 38//18 26//14
f 2//19 15//20 36//21 17//22
f 2//19 29//23 41//24 15//20
f 3//25 24//26 40//27 28//28
f 3//25 19//29 33//29 24//26
f 3//30 26//31 38//32 19//32
f 3//30 28//33 42//34 26//31
f 4//35 12//36 32//37 21//37
f 52//38 20//39 34//39 48//40
f 52//41 46//42 37//43 20//43
f 4//44 21//45 35//45 16//46
f 51//47 47//12 33//11 19//48
f 5//49 22//50 31//50 13//9
f 5//51 17//22 36//52 22//52
f 51//53 19//54 38//18 45//17
f 6//55 23//56 39//7 27//57
f 6//55 21//58 32//59 23//56
f 6//60 25//61 35//62 21//62
f 6//60 27//63 41//63 25//61
f 7//64 11//6 31//10 22//65
f 7//64 27//57 39//7 11//6
f 7//66 15//67 41//63 27//63
f 7//66 22//68 36//68 15//67
f 8//69 14//70 34//71 20//71
f 8//69 28//28 40//27 14//70
f 8//72 18//72 42//34 28//33
f 8//72 20//73 37//73 18//72
f 50//74 18//75 37//76 46//42
f 50//74 44//16 42//15 18//75
f 9//77 25//78 41//24 29//23
f 9//77 16//46 35//79 25//78
f 49//80 48//40 34//81 14//82
f 10//83 23//56 32//59 12//36
f 10//83 30//8 39//7 23//56
f 49//80 14//82 40//3 43//2
f 1//5 54//1 47//12 13//9
f 1//5 30//8 43//2 54//1
f 2//19 53//13 44//16 29//23
f 2//19 17//22 45//17 53//13
f 4//44 16//46 46//42 52//41
f 4//35 52//38 48//40 12//36
f 5//49 13//9 47//12 51//47
f 5//51 51//53 45//17 17//22
f 9//77 29//23 44//16 50//74
f 9//77 50//74 46//42 16//46
f 10//83 12//36 48//40 49//80
f 10//83 49//80 43//2 30//8
f 171//84 172//85 173//86
f 174//87 175//88 176//89
f 197//90 171//84 173//86 199//91
f 198//92 175//88 174//87 200//93
f 175//88 173//86 172//85 176//89
f 235//94 231//95 172//85 171//84
f 231//95 236//96 176//89 172//85
f 174//87 232//97 240//98 200//93
f 240//98 232//97 190//99 204//100
f 187//101 189//102 188//103
f 190//99 192//104 191//105
f 201//106 203//107 189//102 187//101
f 202//108 204//100 190//99 191//105
f 191//105 192//104 188//103 189//102
f 236//96 232//97 174//87 176//89
f 189//102 203//107 202//108 191//105
f 173//86 175//88 198//92 199//91
f 187//101 235//94 239//109 201//106
f 188//103 192//104 236//96 231//95
f 187//101 188//103 231//95 235//94
f 192//104 190//99 232//97 236//96
f 171//84 197//90 239//109 235//94
usemtl Red
f 165//110 166//111 167//112
f 168//113 169//114 170//115
f 170//115 166//111 165//110 168//113
f 213//116 218//117 179//118 178//119
f 178//119 179//118 168//113 165//110
f 168//113 179//118 180//120 169//114
f 167//112 177//121 178//119 165//110
f 214//122 243//123 237//124 180//125
f 234//126 230//127 170//115 169//114
f 233//128 229//129 167//112 166//111
f 230//127 233//128 166//111 170//115
f 238//130 177//121 167//112 229//129
f 181//131 183//132 182//133
f 184//134 186//135 185//136
f 186//135 184//134 181//131 182//133
f 215//137 194//138 195//139 220//140
f 194//138 181//131 184//134 195//139
f 184//134 185//136 196//141 195//139
f 183//132 181//131 194//138 193//142
f 234//126 237//124 196//143 185//136
f 244//144 217//144 177//121 238//130
f 195//139 196//141 216//145 220//140
f 193//142 194//138 215//137 219//146
f 237//124 243//123 216//147 196//143
f 179//118 218//117 214//148 180//120
f 177//121 217//149 213//116 178//119
f 180//125 237//124 234//126 169//114
f 186//135 182//133 233//128 230//127
f 182//133 183//132 229//129 233//128
f 185//136 186//135 230//127 234//126
f 219//144 244//144 238//130 193//142
f 193//142 238//130 229//129 183//132
usemtl Wood
s off
f 75//150 76//150 58//150 57//150
f 56//151 55//151 61//151 62//151
f 75//152 57//152 55//152 77//152
f 58//153 76//153 78//153 56//153
f 55//151 56//151 78//151 77//151
f 60//154 59//154 62//154 61//154
f 55//152 57//152 60//152 61//152
f 57//150 58//150 59//150 60//150
f 65//152 87//152 142//152 112//152
f 64//155 63//155 69//155 70//155
f 87//152 65//152 63//152 89//152
f 66//153 88//153 90//153 64//153
f 63//155 64//155 90//155 89//155
f 68//156 67//156 70//156 69//156
f 66//153 64//153 70//153 67//153
f 66//153 67//153 113//153 111//153
f 58//157 56//157 63//157 65//157
f 59//156 68//156 69//156 62//156
f 59//158 58//158 65//158 68//158
f 62//155 69//155 63//155 56//155
f 88//153 66//153 111//153 139//153
f 68//152 65//152 112//152 114//152
f 67//156 68//156 114//156 113//156
f 75//150 73//150 74//150 76//150
f 72//151 82//151 81//151 71//151
f 75//152 77//152 71//152 73//152
f 74//153 72//153 78//153 76//153
f 71//151 77//151 78//151 72//151
f 80//159 81//159 82//159 79//159
f 71//152 81//152 80//152 73//152
f 73//150 80//150 79//150 74//150
f 85//152 141//152 142//152 87//152
f 84//155 94//155 93//155 83//155
f 87//152 89//152 83//152 85//152
f 86//153 84//153 90//153 88//153
f 83//155 89//155 90//155 84//155
f 92//157 93//157 94//157 91//157
f 86//153 91//153 94//153 84//153
f 86//153 140//153 143//153 91//153
f 74//156 85//156 83//156 72//156
f 79//157 82//157 93//157 92//157
f 79//158 92//158 85//158 74//158
f 82//155 72//155 83//155 93//155
f 88//153 139//153 140//153 86//153
f 92//152 144//152 141//152 85//152
f 91//157 143//157 144//157 92//157
f 119//160 97//160 98//160 120//160
f 96//161 102//161 101//161 95//161
f 119//152 121//152 95//152 97//152
f 98//153 96//153 122//153 120//153
f 95//161 121//161 122//161 96//161
f 100//154 101//154 102//154 99//154
f 95//152 101//152 100//152 97//152
f 97//160 100//160 99//160 98//160
f 105//152 112//152 142//152 131//152
f 104//158 110//158 109//158 103//158
f 131//152 133//152 103//152 105//152
f 106//153 104//153 134//153 132//153
f 103//158 133//158 134//158 104//158
f 108//156 109//156 110//156 107//156
f 138//158 164//158 154//158 128//158
f 106//153 111//153 113//153 107//153
f 98//157 105//157 103//157 96//157
f 99//156 102//156 109//156 108//156
f 99//155 108//155 105//155 98//155
f 102//158 96//158 103//158 109//158
f 132//153 139//153 111//153 106//153
f 108//152 114//152 112//152 105//152
f 107//156 113//156 114//156 108//156
f 119//160 120//160 118//160 117//160
f 116//161 115//161 125//161 126//161
f 119//152 117//152 115//152 121//152
f 118//153 120//153 122//153 116//153
f 115//161 116//161 122//161 121//161
f 124//159 123//159 126//159 125//159
f 115//152 117//152 124//152 125//152
f 117//160 118//160 123//160 124//160
f 129//152 131//152 142//152 141//152
f 128//158 127//158 137//158 138//158
f 131//152 129//152 127//152 133//152
f 130//153 132//153 134//153 128//153
f 127//158 128//158 134//158 133//158
f 136//157 135//157 138//157 137//157
f 161//157 164//157 138//157 135//157
f 130//153 135//153 143//153 140//153
f 118//156 116//156 127//156 129//156
f 123//157 136//157 137//157 126//157
f 123//155 118//155 129//155 136//155
f 126//158 137//158 127//158 116//158
f 132//153 130//153 140//153 139//153
f 136//152 129//152 141//152 144//152
f 135//157 136//157 144//157 143//157
f 157//155 158//155 148//155 147//155
f 146//158 145//158 151//158 152//158
f 157//153 147//153 145//153 159//153
f 148//152 158//152 160//152 146//152
f 145//158 146//158 160//158 159//158
f 150//156 149//156 152//156 151//156
f 145//153 147//153 150//153 151//153
f 147//155 148//155 149//155 150//155
f 107//156 110//156 152//156 149//156
f 110//158 104//158 146//158 152//158
f 156//156 130//156 128//156 154//156
f 107//155 149//155 148//155 106//155
f 157//155 155//155 156//155 158//155
f 154//158 164//158 163//158 153//158
f 157//153 159//153 153//153 155//153
f 156//152 154//152 160//152 158//152
f 153//158 159//158 160//158 154//158
f 162//157 163//157 164//157 161//157
f 153//153 163//153 162//153 155//153
f 155//155 162//155 161//155 156//155
f 135//155 130//155 156//155 161//155
f 106//157 148//157 146//157 104//157
usemtl Grey
s 1
f 197//90 209//162 242//163 239//109
f 212//164 208//165 204//100 202//108
f 211//166 207//167 203//107 201//106
f 241//168 240//98 204//100 208//165
f 210//169 198//92 200//93 206//170
f 209//162 197//90 199//91 205//171
f 242//163 209//162 221//144 245//144
f 221//172 209//162 205//171 225//173
f 222//174 210//169 206//170 226//175
f 246//176 241//168 208//165 228//177
f 223//178 227//179 207//167 211//166
f 224//180 228//181 208//165 212//164
f 200//93 240//98 241//168 206//170
f 203//107 207//167 212//164 202//108
f 199//91 198//92 210//169 205//171
f 221//144 217//144 244//144 245//144
f 226//182 246//183 243//184 214//182
f 227//179 215//137 220//140 224//180
f 225//173 222//174 218//117 213//116
f 205//171 210//169 222//174 225//173
f 206//170 241//168 246//176 226//185
f 207//167 227//179 224//180 212//164
f 220//140 216//145 228//181 224//180
f 219//146 215//137 227//179 223//178
f 243//184 246//183 228//186 216//186
f 218//117 222//174 226//175 214//148
f 217//149 221//172 225//173 213//116
f 211//166 242//163 245//144 223//144
f 223//144 245//144 244//144 219//144
f 201//106 239//109 242//163 211//166
usemtl DarkRed
f 263//187 248//188 249//189 267//190
f 264//191 267//192 249//193 253//194
f 265//195 269//196 252//197 251//198
f 270//199 254//200 252//194 269//192
f 264//191 253//194 254//200 270//199
f 268//157 259//157 261//201 265//195
f 266//156 263//187 257//202 255//156
f 247//156 248//188 263//187 266//156
f 250//157 268//157 265//195 251//198
f 258//203 264//191 270//199 262//204
f 262//204 270//199 269//192 260//205
f 261//201 260//206 269//196 265//195
f 258//203 256//207 267//192 264//191
f 257//202 263//187 267//190 256//208
f 268//209 250//209 272//209 276//209
f 247//210 266//210 275//210 271//210
f 259//209 268//209 276//209 274//209
f 266//210 255//210 273//210 275//210
f 276//211 272//212 278//212 282//213
f 274//214 276//211 282//213 280//214
f 271//215 275//216 281//217 277//215
f 275//216 273//218 279//218 281//217
