# Blender v2.79 (sub 0) OBJ File: 'Carpet_Round.blend'
# www.blender.org
mtllib Carpet_Round.mtl
o Carpet_Round_Cylinder.038
v -0.400543 -0.000000 -1.100479
v -0.000001 -0.000000 -1.123413
v -0.752773 -0.000000 -0.897118
v 0.384229 -0.000000 -1.055663
v -1.014207 -0.000000 -0.585552
v 0.722115 -0.000000 -0.860584
v -1.153314 -0.000000 -0.203360
v 0.972903 -0.000000 -0.561706
v -1.153314 -0.000000 0.203361
v 1.106345 -0.000000 -0.195079
v -1.014207 -0.000000 0.585553
v 1.106345 -0.000000 0.195078
v -0.752772 -0.000000 0.897118
v 0.972903 -0.000000 0.561706
v -0.400542 -0.000000 1.100479
v 0.722115 -0.000000 0.860584
v -0.000000 -0.000000 1.171105
v 0.384229 -0.000000 1.055662
v 0.400541 -0.000000 1.100478
v -0.000000 -0.000000 1.123412
v 0.752771 -0.000000 0.897118
v -0.384230 -0.000000 1.055662
v 1.014206 -0.000000 0.585552
v -0.722116 -0.000000 0.860584
v 1.153313 -0.000000 0.203360
v -0.972904 -0.000000 0.561706
v 1.153313 -0.000000 -0.203360
v -1.106346 -0.000000 0.195079
v 1.014206 -0.000000 -0.585553
v -1.106346 -0.000000 -0.195078
v 0.752771 -0.000000 -0.897119
v -0.972905 -0.000000 -0.561706
v -0.000001 -0.000000 -1.171105
v -0.722117 -0.000000 -0.860584
v 0.400541 -0.000000 -1.100479
v -0.384231 -0.000000 -1.055662
v -0.000001 -0.000000 -1.265594
v -0.432860 -0.000000 -1.189269
v -0.813509 -0.000000 -0.969501
v -1.096037 -0.000000 -0.632796
v -1.246367 -0.000000 -0.219768
v -1.246367 -0.000000 0.219768
v -1.096037 -0.000000 0.632797
v -0.813508 -0.000000 0.969501
v -0.432859 -0.000000 1.189269
v -0.000000 -0.000000 1.265593
v 0.432858 -0.000000 1.189269
v 0.813507 -0.000000 0.969501
v 1.096036 -0.000000 0.632797
v 1.246366 -0.000000 0.219768
v 1.246366 -0.000000 -0.219768
v 1.096036 -0.000000 -0.632797
v 0.813507 -0.000000 -0.969501
v 0.432858 -0.000000 -1.189269
v -0.350307 0.015736 -1.109336
v -0.336040 0.015736 1.064159
v -0.350306 0.015736 1.109336
v -0.336041 0.015736 -1.064160
v -0.378571 0.015736 -1.198841
v -0.378570 0.015736 1.198842
v -0.243084 -0.000000 1.080550
v -0.253403 -0.000000 1.126423
v -0.273849 -0.000000 1.217307
v -0.253404 -0.000000 -1.126423
v -0.243084 -0.000000 -1.080550
v -0.273849 -0.000000 -1.217307
v 0.920631 0.005966 -0.624002
v 0.920631 0.005966 0.624001
v 0.959715 -0.000000 0.650492
v 0.959715 -0.000000 -0.650493
v 1.037148 -0.000000 0.702976
v 1.037148 -0.000000 -0.702977
v 0.869032 -0.000000 -0.685495
v 0.905926 -0.000000 -0.714596
v 0.979019 -0.000000 -0.772252
v 0.869032 -0.000000 0.685494
v 0.905926 -0.000000 0.714596
v 0.979019 -0.000000 0.772252
vn 0.0000 1.0000 -0.0000
vn 0.0762 0.9969 0.0206
vn 0.0760 0.9969 0.0205
vn 0.0151 0.9999 -0.0022
vn 0.0069 0.9998 -0.0179
vn -0.0663 0.9974 0.0279
vn -0.0815 0.9961 0.0325
vn -0.1378 0.9893 0.0468
vn -0.1411 0.9888 0.0479
vn 0.0244 0.9995 0.0191
vn 0.0151 0.9999 0.0022
vn -0.1378 0.9893 -0.0468
vn -0.1411 0.9888 -0.0479
vn 0.0753 0.9971 -0.0103
vn -0.0483 0.9988 0.0114
vn -0.0483 0.9988 -0.0114
vn 0.0753 0.9971 0.0103
vn -0.1678 0.9854 0.0274
vn -0.1678 0.9854 -0.0274
vn 0.0762 0.9969 -0.0206
vn 0.0760 0.9969 -0.0205
vn -0.0815 0.9961 -0.0325
vn -0.0663 0.9974 -0.0279
vn -0.0062 0.9998 0.0172
vn -0.0091 0.9997 0.0210
vn -0.0091 0.9997 -0.0210
vn -0.0062 0.9998 -0.0172
vn 0.0630 0.9980 0.0028
vn 0.0630 0.9980 -0.0028
vn 0.0069 0.9998 0.0179
vn 0.0244 0.9995 -0.0191
usemtl DarkRed
s 1
f 4//1 2//1 20//1 18//1 16//1 6//1
f 5//1 40//1 41//1 7//1
f 25//1 50//1 51//1 27//1
f 62//2 63//3 46//1 17//1
f 17//1 46//1 47//1 19//1
f 7//1 41//1 42//1 9//1
f 27//1 51//1 52//1 29//4
f 9//1 42//1 43//1 11//1
f 74//5 75//1 53//1 31//1
f 55//6 59//7 38//8 1//9
f 19//1 47//1 48//1 21//1
f 1//9 38//8 39//1 3//1
f 69//10 71//1 49//1 23//11
f 11//1 43//1 44//1 13//1
f 31//1 53//1 54//1 35//1
f 13//1 44//1 45//12 15//13
f 35//1 54//1 37//1 33//1
f 3//1 39//1 40//1 5//1
f 23//11 49//1 50//1 25//1
f 65//14 58//15 56//16 61//17
f 36//18 34//1 32//1 30//1 28//1 26//1 24//1 22//19
f 58//15 36//18 22//19 56//16
f 64//20 66//21 59//7 55//6
f 15//13 45//12 60//22 57//23
f 33//1 37//1 66//21 64//20
f 2//1 65//14 61//17 20//1
f 57//23 60//22 63//3 62//2
f 76//24 68//25 67//26 73//27
f 68//25 14//28 8//29 67//26
f 14//28 12//1 10//1 8//29
f 77//30 78//1 71//1 69//10
f 29//4 52//1 72//1 70//31
f 21//1 48//1 78//1 77//30
f 16//1 76//24 73//27 6//1
f 70//31 72//1 75//1 74//5
usemtl LightOrange
f 28//1 9//1 11//1 26//1
f 4//1 35//1 33//1 2//1
f 18//1 19//1 21//1 16//1
f 73//27 74//5 31//1 6//1
f 32//1 5//1 7//1 30//1
f 61//17 62//2 17//1 20//1
f 12//1 25//1 27//1 10//1
f 36//18 1//9 3//1 34//1
f 26//1 11//1 13//1 24//1
f 68//25 69//10 23//11 14//28
f 6//1 31//1 35//1 4//1
f 30//1 7//1 9//1 28//1
f 20//1 17//1 19//1 18//1
f 10//1 27//1 29//4 8//29
f 34//1 3//1 5//1 32//1
f 24//1 13//1 15//13 22//19
f 14//28 23//11 25//1 12//1
f 58//15 55//6 1//9 36//18
f 65//14 64//20 55//6 58//15
f 22//19 15//13 57//23 56//16
f 2//1 33//1 64//20 65//14
f 56//16 57//23 62//2 61//17
f 76//24 77//30 69//10 68//25
f 8//29 29//4 70//31 67//26
f 16//1 21//1 77//30 76//24
f 67//26 70//31 74//5 73//27
