# Blender v2.79 (sub 0) OBJ File: 'Chair_3.blend'
# www.blender.org
mtllib Chair_3.mtl
o Chair_3_Cube.013
v 0.274842 1.003304 -0.306872
v 0.274842 1.003304 -0.362741
v 0.324343 1.003304 -0.306872
v 0.324343 1.003304 -0.362741
v 0.283908 -0.006554 -0.402379
v 0.283908 -0.006554 -0.437783
v 0.315277 -0.006554 -0.437783
v 0.315277 -0.006554 -0.402379
v 0.270011 0.548800 -0.301419
v 0.270011 0.548800 -0.368194
v 0.329174 0.548800 -0.301419
v 0.329174 0.548800 -0.368194
v 0.302171 0.713915 0.299310
v 0.302171 0.713915 0.370304
v 0.373165 0.713915 0.299310
v 0.373165 0.713915 0.370304
v 0.319966 -0.003317 0.301118
v 0.319966 -0.003317 0.336522
v 0.355370 -0.003317 0.336522
v 0.355370 -0.003317 0.301118
v 0.304281 0.489822 0.301419
v 0.304281 0.489822 0.368194
v 0.371056 0.489822 0.301419
v 0.371056 0.489822 0.368194
v -0.302171 0.713915 0.299310
v -0.302171 0.713915 0.370304
v -0.373165 0.713915 0.299310
v -0.373165 0.713915 0.370304
v -0.319966 -0.003317 0.301118
v -0.319966 -0.003317 0.336522
v -0.355370 -0.003317 0.336522
v -0.355370 -0.003317 0.301118
v -0.304281 0.489822 0.301419
v -0.304281 0.489822 0.368194
v -0.371056 0.489822 0.301419
v -0.371056 0.489822 0.368194
v 0.312123 0.243252 0.302247
v 0.363213 0.243252 0.302247
v 0.312123 0.243252 0.353336
v 0.363213 0.243252 0.353336
v -0.312123 0.243252 0.302247
v -0.363213 0.243252 0.302247
v -0.312123 0.243252 0.353336
v -0.363213 0.243252 0.353336
v 0.268802 0.750839 -0.369559
v 0.330383 0.750839 -0.369559
v 0.268802 0.750839 -0.300054
v 0.330383 0.750839 -0.300054
v 0.264049 1.687484 -0.377124
v 0.264049 1.677977 -0.456647
v 0.335136 1.677977 -0.456647
v 0.335136 1.687484 -0.377124
v -0.380861 0.707450 0.380861
v -0.380861 0.736961 0.380861
v -0.337031 0.704674 -0.380861
v -0.337031 0.731003 -0.380861
v 0.380861 0.707450 0.380861
v 0.380861 0.736961 0.380861
v 0.337861 0.704674 -0.380861
v 0.337861 0.731003 -0.380861
v -0.348752 0.707450 0.348752
v -0.308582 0.704674 -0.348752
v 0.348752 0.707450 0.348752
v 0.309412 0.704674 -0.348752
v -0.308582 0.633461 -0.348752
v -0.348752 0.627634 0.348752
v 0.309412 0.633461 -0.348752
v 0.348752 0.627634 0.348752
v 0.274842 1.341362 -0.390991
v 0.324343 1.341362 -0.390991
v 0.324343 1.344672 -0.335369
v 0.274842 1.344672 -0.335369
v -0.304395 1.674357 -0.393004
v -0.304395 1.669701 -0.438520
v -0.304395 1.556466 -0.423969
v -0.304395 1.561121 -0.378453
v 0.322518 1.674357 -0.393004
v 0.322518 1.669701 -0.438520
v 0.322518 1.556466 -0.423969
v 0.322518 1.561121 -0.378453
v 0.362964 0.540339 0.326848
v 0.362964 0.574245 0.324320
v 0.322005 0.548068 -0.324456
v 0.322005 0.578320 -0.326712
v 0.300445 0.578320 -0.326712
v 0.300445 0.548068 -0.324456
v 0.338630 0.540339 0.326848
v 0.338630 0.574245 0.324320
v -0.329239 0.540339 0.326848
v -0.329239 0.574245 0.324320
v -0.291293 0.548068 -0.324456
v -0.291293 0.578320 -0.326712
v -0.312853 0.578320 -0.326712
v -0.312853 0.548068 -0.324456
v -0.353572 0.540339 0.326848
v -0.353572 0.574245 0.324320
v -0.261137 1.137608 -0.325200
v -0.261137 1.134968 -0.364550
v -0.261137 1.099309 -0.360819
v -0.261137 1.101950 -0.321469
v 0.279260 1.137608 -0.325200
v 0.279260 1.134968 -0.364550
v 0.279260 1.099309 -0.360819
v 0.279260 1.101950 -0.321469
v 0.278271 0.201143 -0.338856
v 0.320913 0.201143 -0.338856
v 0.278271 0.201143 -0.386985
v 0.320913 0.201143 -0.386985
v -0.324170 1.003304 -0.306872
v -0.324170 1.003304 -0.362741
v -0.274669 1.003304 -0.306872
v -0.274669 1.003304 -0.362741
v -0.315103 -0.006554 -0.402379
v -0.315103 -0.006554 -0.437783
v -0.283735 -0.006554 -0.437783
v -0.283735 -0.006554 -0.402379
v -0.329001 0.548800 -0.301419
v -0.329001 0.548800 -0.368194
v -0.269838 0.548800 -0.301419
v -0.269838 0.548800 -0.368194
v -0.330210 0.750839 -0.369559
v -0.268628 0.750839 -0.369559
v -0.330210 0.750839 -0.300054
v -0.268628 0.750839 -0.300054
v -0.334963 1.687484 -0.377124
v -0.334963 1.677977 -0.456647
v -0.263875 1.677977 -0.456647
v -0.263875 1.687484 -0.377124
v -0.324170 1.341362 -0.390991
v -0.274669 1.341362 -0.390991
v -0.274669 1.344672 -0.335369
v -0.324170 1.344672 -0.335369
v -0.320740 0.201143 -0.338856
v -0.278098 0.201143 -0.338856
v -0.320740 0.201143 -0.386985
v -0.278098 0.201143 -0.386985
v -0.140022 0.749532 -0.313150
v -0.140022 0.749223 -0.334698
v -0.140022 1.577575 -0.386481
v -0.140022 1.574556 -0.407818
v -0.205638 1.574556 -0.407818
v -0.205638 1.577575 -0.386481
v -0.205638 0.749223 -0.334698
v -0.205638 0.749532 -0.313150
v -0.205638 1.015861 -0.341279
v -0.205638 1.017046 -0.319800
v -0.140022 1.017046 -0.319800
v -0.140022 1.015861 -0.341279
v -0.205638 1.297311 -0.342483
v -0.140022 1.297311 -0.342483
v -0.205638 1.295209 -0.363891
v -0.140022 1.295209 -0.363891
v 0.037142 0.749532 -0.313150
v 0.037142 0.749223 -0.334698
v 0.037142 1.577575 -0.386481
v 0.037142 1.574556 -0.407818
v -0.028475 1.574556 -0.407818
v -0.028475 1.577575 -0.386481
v -0.028475 0.749223 -0.334698
v -0.028475 0.749532 -0.313150
v -0.028475 1.015861 -0.341279
v -0.028475 1.017046 -0.319800
v 0.037142 1.017046 -0.319800
v 0.037142 1.015861 -0.341279
v -0.028475 1.297311 -0.342483
v 0.037142 1.297311 -0.342483
v -0.028475 1.295209 -0.363891
v 0.037142 1.295209 -0.363891
v 0.214305 0.749532 -0.313150
v 0.214305 0.749223 -0.334698
v 0.214305 1.577575 -0.386481
v 0.214305 1.574556 -0.407818
v 0.148689 1.574556 -0.407818
v 0.148689 1.577575 -0.386481
v 0.148689 0.749223 -0.334698
v 0.148689 0.749532 -0.313150
v 0.148689 1.015861 -0.341279
v 0.148689 1.017046 -0.319800
v 0.214305 1.017046 -0.319800
v 0.214305 1.015861 -0.341279
v 0.148689 1.297311 -0.342483
v 0.214305 1.297311 -0.342483
v 0.148689 1.295209 -0.363891
v 0.214305 1.295209 -0.363891
v -0.000000 0.861677 0.168336
v -0.000000 0.813220 0.335191
v 0.000000 0.832767 -0.331280
v 0.281380 0.827432 -0.149372
v -0.321127 0.817658 0.183863
v -0.281380 0.827432 -0.149372
v 0.321127 0.817658 0.183863
v 0.000000 0.870494 -0.132289
v -0.308916 0.757381 -0.167247
v -0.000000 0.741778 0.364736
v -0.352553 0.746651 0.198599
v 0.000000 0.763238 -0.366956
v 0.308916 0.757381 -0.167247
v 0.352553 0.746651 0.198599
v -0.302032 0.788388 -0.162383
v 0.000000 0.794115 -0.357641
v 0.344696 0.777897 0.195311
v -0.000000 0.773133 0.357746
v -0.197267 0.859729 -0.136560
v 0.000000 0.863469 -0.264090
v 0.225133 0.850672 0.172218
v -0.000000 0.847561 0.278309
v 0.246971 0.814330 0.297359
v -0.246971 0.814330 0.297359
v -0.197287 0.831433 -0.285803
v 0.197287 0.831433 -0.285803
v -0.344696 0.777897 0.195311
v 0.302032 0.788388 -0.162383
v -0.225133 0.850672 0.172218
v 0.197267 0.859729 -0.136560
v -0.305065 0.822321 0.024890
v 0.305065 0.822321 0.024890
v -0.000000 0.865883 0.024920
v -0.308916 0.730392 -0.168038
v 0.000000 0.736249 -0.367748
v 0.352553 0.719662 0.197808
v -0.000000 0.714789 0.363944
v -0.352553 0.719662 0.197808
v 0.308916 0.730392 -0.168038
v -0.334918 0.751770 0.024069
v -0.216594 0.761774 -0.317029
v 0.271140 0.742996 0.323202
v -0.271140 0.742996 0.323202
v 0.216594 0.761774 -0.317029
v 0.334918 0.751770 0.024069
v -0.265098 0.774324 0.317137
v -0.211767 0.792683 -0.308827
v 0.265098 0.774324 0.317137
v 0.211767 0.792683 -0.308827
v -0.174143 0.839744 0.256017
v -0.144093 0.854203 -0.236986
v 0.144093 0.854203 -0.236986
v 0.174143 0.839744 0.256017
v -0.327455 0.782902 0.024670
v 0.327455 0.782902 0.024670
v -0.213872 0.854993 0.024913
v 0.213872 0.854993 0.024913
v -0.271140 0.716007 0.322410
v -0.216594 0.734785 -0.317820
v 0.271140 0.716007 0.322410
v 0.216594 0.734785 -0.317820
v -0.334918 0.724781 0.023278
v 0.334918 0.724781 0.023278
vn 0.0000 -0.1914 -0.9815
vn 0.0000 -1.0000 0.0000
vn -0.9996 -0.0271 0.0000
vn 0.0000 -0.2925 0.9563
vn 0.0000 0.2376 -0.9714
vn 0.9996 -0.0271 0.0000
vn 1.0000 -0.0060 0.0000
vn 0.0000 -0.0068 -1.0000
vn 0.0000 -0.0068 1.0000
vn -1.0000 -0.0060 0.0000
vn 0.0000 1.0000 0.0000
vn -0.9995 -0.0318 0.0000
vn 0.0000 0.0046 -1.0000
vn 0.0000 -0.0680 0.9977
vn 0.9995 -0.0318 0.0000
vn 1.0000 -0.0094 0.0000
vn 0.0000 -0.0094 1.0000
vn 0.0000 -0.0094 -1.0000
vn -1.0000 -0.0094 0.0000
vn 0.0000 -0.0601 0.9982
vn 0.0000 -0.0034 -1.0000
vn -0.9997 0.0239 0.0000
vn 0.0000 0.0270 0.9996
vn 0.0000 0.0270 -0.9996
vn 0.9997 0.0239 0.0000
vn 0.0000 0.9929 -0.1187
vn 0.9995 -0.0313 0.0030
vn -0.9995 -0.0313 0.0030
vn 0.0000 0.1209 0.9927
vn -0.9983 0.0000 -0.0574
vn 0.0000 0.0000 -1.0000
vn 0.9984 0.0000 -0.0564
vn 0.0000 0.0000 1.0000
vn 0.0000 -1.0000 0.0036
vn 0.0000 1.0000 -0.0078
vn 0.0000 1.0000 -0.0040
vn 0.0000 -1.0000 -0.0084
vn -0.9983 0.0000 -0.0575
vn 0.9984 0.0000 -0.0563
vn 0.0000 0.0832 0.9965
vn -1.0000 0.0000 0.0000
vn 1.0000 0.0000 0.0000
vn 0.0000 -0.0833 -0.9965
vn 0.0000 0.1275 0.9918
vn 0.0000 -0.1275 -0.9918
vn 0.0000 -0.9948 0.1018
vn 0.0000 0.9948 -0.1018
vn 0.9980 -0.0047 -0.0628
vn -0.9983 0.0044 0.0586
vn 0.0000 0.0744 0.9972
vn 0.0000 -0.9999 -0.0119
vn 0.0000 1.0000 0.0063
vn 0.0000 -0.0744 -0.9972
vn 0.9983 0.0043 0.0582
vn -0.9980 -0.0047 -0.0625
vn 0.0000 0.1041 0.9946
vn 0.0000 -0.1041 -0.9946
vn 0.0000 -0.9978 0.0669
vn 0.0000 0.9978 -0.0669
vn 0.9997 -0.0238 0.0000
vn 0.0000 0.0540 -0.9985
vn 0.0000 -0.1071 0.9943
vn -0.9997 -0.0238 0.0000
vn 0.0000 -0.1553 -0.9879
vn 0.0000 0.0248 0.9997
vn 0.0000 0.9901 -0.1401
vn 0.0000 -0.9999 0.0144
vn 0.0000 0.0807 0.9967
vn 0.0000 -0.0247 -0.9997
vn 0.0000 0.1551 0.9879
vn 0.0000 -0.0807 -0.9967
vn 0.0000 0.9965 0.0840
vn 0.1958 0.9753 0.1021
vn 0.1986 0.9800 0.0093
vn 0.0000 0.9996 0.0270
vn -0.1986 0.9800 0.0093
vn -0.1958 0.9753 0.1021
vn -0.1164 0.9473 0.2984
vn 0.0000 0.9460 0.3242
vn 0.1164 0.9473 0.2984
vn 0.0000 0.6999 0.7142
vn -0.3511 0.7369 0.5777
vn -0.4923 0.3941 0.7761
vn 0.0000 0.3528 0.9357
vn 0.4923 0.3941 0.7760
vn 0.3511 0.7369 0.5777
vn 0.0000 0.7587 -0.6514
vn 0.3963 0.7587 -0.5171
vn 0.5335 0.4249 -0.7313
vn 0.0000 0.4234 -0.9059
vn -0.5335 0.4249 -0.7313
vn -0.3963 0.7587 -0.5171
vn -0.1491 0.9661 -0.2108
vn -0.0000 0.9704 -0.2415
vn 0.1491 0.9661 -0.2108
vn 0.6282 0.7535 -0.1937
vn 0.6446 0.7628 -0.0518
vn 0.9253 0.3661 -0.0987
vn 0.8724 0.3840 -0.3025
vn 0.2058 0.9766 -0.0628
vn -0.6346 0.7561 0.1599
vn -0.6446 0.7628 -0.0518
vn -0.9253 0.3661 -0.0987
vn -0.8894 0.3952 0.2298
vn -0.6282 0.7535 -0.1937
vn -0.8724 0.3840 -0.3025
vn -0.2058 0.9766 -0.0628
vn 0.6346 0.7561 0.1599
vn 0.8894 0.3952 0.2298
vn 0.0000 0.9998 -0.0202
vn -0.9338 0.1306 -0.3332
vn -0.9864 0.1193 -0.1131
vn -0.8453 0.1350 -0.5170
vn -0.8514 0.0154 -0.5243
vn -0.9415 0.0099 -0.3367
vn -0.9931 0.0034 -0.1175
vn 0.0000 0.0934 0.9956
vn 0.1505 0.0876 0.9847
vn -0.1505 0.0876 0.9847
vn -0.1515 -0.0290 0.9880
vn 0.0000 -0.0293 0.9996
vn 0.1515 -0.0290 0.9880
vn -0.9616 0.1244 0.2446
vn -0.8296 0.1189 0.5455
vn -0.9716 -0.0069 0.2366
vn -0.8373 -0.0160 0.5466
vn -0.0000 0.1581 -0.9874
vn -0.2230 0.1526 -0.9628
vn 0.2230 0.1526 -0.9628
vn 0.2247 0.0286 -0.9740
vn -0.0000 0.0293 -0.9996
vn -0.2247 0.0286 -0.9740
vn 0.9338 0.1306 -0.3332
vn 0.8453 0.1350 -0.5170
vn 0.9864 0.1193 -0.1131
vn 0.9931 0.0034 -0.1175
vn 0.9415 0.0099 -0.3367
vn 0.8514 0.0154 -0.5243
vn 0.9616 0.1244 0.2446
vn 0.8296 0.1189 0.5455
vn 0.8373 -0.0160 0.5466
vn 0.9716 -0.0069 0.2366
usemtl Wood_Dark
s off
f 70//1 69//1 50//1 51//1
f 7//2 8//2 5//2 6//2
f 107//3 6//3 5//3 105//3
f 105//4 5//4 8//4 106//4
f 108//5 7//5 6//5 107//5
f 106//6 8//6 7//6 108//6
f 48//7 11//7 12//7 46//7
f 46//8 12//8 10//8 45//8
f 47//9 9//9 11//9 48//9
f 45//10 10//10 9//10 47//10
f 16//11 15//11 13//11 14//11
f 19//2 18//2 17//2 20//2
f 39//12 37//12 17//12 18//12
f 37//13 38//13 20//13 17//13
f 40//14 39//14 18//14 19//14
f 38//15 40//15 19//15 20//15
f 15//16 16//16 24//16 23//16
f 16//17 14//17 22//17 24//17
f 13//18 15//18 23//18 21//18
f 14//19 13//19 21//19 22//19
f 28//11 26//11 25//11 27//11
f 31//2 32//2 29//2 30//2
f 43//15 30//15 29//15 41//15
f 41//13 29//13 32//13 42//13
f 44//14 31//14 30//14 43//14
f 42//12 32//12 31//12 44//12
f 27//19 35//19 36//19 28//19
f 28//17 36//17 34//17 26//17
f 25//18 33//18 35//18 27//18
f 26//16 34//16 33//16 25//16
f 23//15 24//15 40//15 38//15
f 24//20 22//20 39//20 40//20
f 21//21 23//21 38//21 37//21
f 22//12 21//12 37//12 39//12
f 35//12 42//12 44//12 36//12
f 36//20 44//20 43//20 34//20
f 33//21 41//21 42//21 35//21
f 34//15 43//15 41//15 33//15
f 2//22 45//22 47//22 1//22
f 1//23 47//23 48//23 3//23
f 4//24 46//24 45//24 2//24
f 3//25 48//25 46//25 4//25
f 51//26 50//26 49//26 52//26
f 71//27 70//27 51//27 52//27
f 69//28 72//28 49//28 50//28
f 72//29 71//29 52//29 49//29
f 53//30 54//30 56//30 55//30
f 55//31 56//31 60//31 59//31
f 59//32 60//32 58//32 57//32
f 57//33 58//33 54//33 53//33
f 55//34 59//34 57//34 53//34
f 60//35 56//35 54//35 58//35
f 62//36 61//36 63//36 64//36
f 65//37 67//37 68//37 66//37
f 61//38 62//38 65//38 66//38
f 63//33 61//33 66//33 68//33
f 62//31 64//31 67//31 65//31
f 64//39 63//39 68//39 67//39
f 1//40 3//40 71//40 72//40
f 2//41 1//41 72//41 69//41
f 3//42 4//42 70//42 71//42
f 4//43 2//43 69//43 70//43
f 75//41 76//41 73//41 74//41
f 79//42 78//42 77//42 80//42
f 73//44 76//44 80//44 77//44
f 75//45 74//45 78//45 79//45
f 76//46 75//46 79//46 80//46
f 74//47 73//47 77//47 78//47
f 83//48 84//48 82//48 81//48
f 86//49 87//49 88//49 85//49
f 82//50 88//50 87//50 81//50
f 81//51 87//51 86//51 83//51
f 84//52 85//52 88//52 82//52
f 83//53 86//53 85//53 84//53
f 91//54 92//54 90//54 89//54
f 94//55 95//55 96//55 93//55
f 90//50 96//50 95//50 89//50
f 89//51 95//51 94//51 91//51
f 92//52 93//52 96//52 90//52
f 91//53 94//53 93//53 92//53
f 99//41 100//41 97//41 98//41
f 103//42 102//42 101//42 104//42
f 97//56 100//56 104//56 101//56
f 99//57 98//57 102//57 103//57
f 100//58 99//58 103//58 104//58
f 98//59 97//59 101//59 102//59
f 11//60 106//60 108//60 12//60
f 12//61 108//61 107//61 10//61
f 9//62 105//62 106//62 11//62
f 10//63 107//63 105//63 9//63
f 130//1 129//1 126//1 127//1
f 115//2 116//2 113//2 114//2
f 135//3 114//3 113//3 133//3
f 133//4 113//4 116//4 134//4
f 136//5 115//5 114//5 135//5
f 134//6 116//6 115//6 136//6
f 124//7 119//7 120//7 122//7
f 122//8 120//8 118//8 121//8
f 123//9 117//9 119//9 124//9
f 121//10 118//10 117//10 123//10
f 110//22 121//22 123//22 109//22
f 109//23 123//23 124//23 111//23
f 112//24 122//24 121//24 110//24
f 111//25 124//25 122//25 112//25
f 127//26 126//26 125//26 128//26
f 131//27 130//27 127//27 128//27
f 129//28 132//28 125//28 126//28
f 132//29 131//29 128//29 125//29
f 109//40 111//40 131//40 132//40
f 110//41 109//41 132//41 129//41
f 111//42 112//42 130//42 131//42
f 112//43 110//43 129//43 130//43
f 119//60 134//60 136//60 120//60
f 120//61 136//61 135//61 118//61
f 117//62 133//62 134//62 119//62
f 118//63 135//63 133//63 117//63
f 151//64 141//64 140//64 152//64
f 149//41 142//41 141//41 151//41
f 146//65 144//65 137//65 147//65
f 141//66 142//66 139//66 140//66
f 150//42 152//42 140//42 139//42
f 144//67 143//67 138//67 137//67
f 137//42 138//42 148//42 147//42
f 149//68 146//68 147//68 150//68
f 144//41 146//41 145//41 143//41
f 143//69 145//69 148//69 138//69
f 142//70 149//70 150//70 139//70
f 147//42 148//42 152//42 150//42
f 146//41 149//41 151//41 145//41
f 145//71 151//71 152//71 148//71
f 167//64 157//64 156//64 168//64
f 165//41 158//41 157//41 167//41
f 162//65 160//65 153//65 163//65
f 157//66 158//66 155//66 156//66
f 166//42 168//42 156//42 155//42
f 160//67 159//67 154//67 153//67
f 153//42 154//42 164//42 163//42
f 165//68 162//68 163//68 166//68
f 160//41 162//41 161//41 159//41
f 159//69 161//69 164//69 154//69
f 158//70 165//70 166//70 155//70
f 163//42 164//42 168//42 166//42
f 162//41 165//41 167//41 161//41
f 161//71 167//71 168//71 164//71
f 183//64 173//64 172//64 184//64
f 181//41 174//41 173//41 183//41
f 178//65 176//65 169//65 179//65
f 173//66 174//66 171//66 172//66
f 182//42 184//42 172//42 171//42
f 176//67 175//67 170//67 169//67
f 169//42 170//42 180//42 179//42
f 181//68 178//68 179//68 182//68
f 176//41 178//41 177//41 175//41
f 175//69 177//69 180//69 170//69
f 174//70 181//70 182//70 171//70
f 179//42 180//42 184//42 182//42
f 178//41 181//41 183//41 177//41
f 177//71 183//71 184//71 180//71
usemtl Cushin
s 1
f 185//72 205//73 241//74 217//75
f 185//72 217//75 240//76 213//77
f 185//72 213//77 234//78 206//79
f 185//72 206//79 237//80 205//73
f 186//81 208//82 230//83 202//84
f 186//81 202//84 232//85 207//86
f 186//81 207//86 237//80 206//79
f 186//81 206//79 234//78 208//82
f 187//87 210//88 233//89 200//90
f 187//87 200//90 231//91 209//92
f 187//87 209//92 235//93 204//94
f 187//87 204//94 236//95 210//88
f 188//96 216//97 239//98 212//99
f 188//96 212//99 233//89 210//88
f 188//96 210//88 236//95 214//100
f 188//96 214//100 241//74 216//97
f 189//101 215//102 238//103 211//104
f 189//101 211//104 230//83 208//82
f 189//101 208//82 234//78 213//77
f 189//101 213//77 240//76 215//102
f 190//105 209//92 231//91 199//106
f 190//105 199//106 238//103 215//102
f 190//105 215//102 240//76 203//107
f 190//105 203//107 235//93 209//92
f 191//108 207//86 232//85 201//109
f 191//108 201//109 239//98 216//97
f 191//108 216//97 241//74 205//73
f 191//108 205//73 237//80 207//86
f 192//110 214//100 236//95 204//94
f 192//110 204//94 235//93 203//107
f 192//110 203//107 240//76 217//75
f 192//110 217//75 241//74 214//100
f 193//111 224//112 238//103 199//106
f 193//111 199//106 231//91 225//113
f 193//111 225//113 243//114 218//115
f 193//111 218//115 246//116 224//112
f 194//117 226//118 232//85 202//84
f 194//117 202//84 230//83 227//119
f 194//117 227//119 242//120 221//121
f 194//117 221//121 244//122 226//118
f 195//123 227//124 230//83 211//104
f 195//123 211//104 238//103 224//112
f 195//123 224//112 246//116 222//125
f 195//123 222//125 242//126 227//124
f 196//127 225//128 231//91 200//90
f 196//127 200//90 233//89 228//129
f 196//127 228//129 245//130 219//131
f 196//127 219//131 243//132 225//128
f 197//133 228//134 233//89 212//99
f 197//133 212//99 239//98 229//135
f 197//133 229//135 247//136 223//137
f 197//133 223//137 245//138 228//134
f 198//139 229//135 239//98 201//109
f 198//139 201//109 232//85 226//140
f 198//139 226//140 244//141 220//142
f 198//139 220//142 247//136 229//135
