# Blender v2.79 (sub 0) OBJ File: 'Chair_1.blend'
# www.blender.org
mtllib Chair_1.mtl
o Chair_1_Cube.004
v 0.309734 0.999236 -0.306872
v 0.309734 0.999236 -0.362741
v 0.365603 0.999236 -0.306872
v 0.365603 0.999236 -0.362741
v 0.319966 -0.003317 -0.317105
v 0.319966 -0.003317 -0.352509
v 0.355370 -0.003317 -0.352509
v 0.355370 -0.003317 -0.317105
v 0.304281 0.489822 -0.301419
v 0.304281 0.489822 -0.368194
v 0.371056 0.489822 -0.301419
v 0.371056 0.489822 -0.368194
v -0.309734 0.999236 -0.306872
v -0.309734 0.999236 -0.362741
v -0.365603 0.999236 -0.306872
v -0.365603 0.999236 -0.362741
v -0.319966 -0.003317 -0.317105
v -0.319966 -0.003317 -0.352509
v -0.355370 -0.003317 -0.352509
v -0.355370 -0.003317 -0.317105
v -0.304281 0.489822 -0.301419
v -0.304281 0.489822 -0.368194
v -0.371056 0.489822 -0.301419
v -0.371056 0.489822 -0.368194
v 0.302171 0.713915 0.299310
v 0.302171 0.713915 0.370304
v 0.373165 0.713915 0.299310
v 0.373165 0.713915 0.370304
v 0.319966 -0.003317 0.301118
v 0.319966 -0.003317 0.336522
v 0.355370 -0.003317 0.336522
v 0.355370 -0.003317 0.301118
v 0.304281 0.489822 0.301419
v 0.304281 0.489822 0.368194
v 0.371056 0.489822 0.301419
v 0.371056 0.489822 0.368194
v -0.302171 0.713915 0.299310
v -0.302171 0.713915 0.370304
v -0.373165 0.713915 0.299310
v -0.373165 0.713915 0.370304
v -0.319966 -0.003317 0.301118
v -0.319966 -0.003317 0.336522
v -0.355370 -0.003317 0.336522
v -0.355370 -0.003317 0.301118
v -0.304281 0.489822 0.301419
v -0.304281 0.489822 0.368194
v -0.371056 0.489822 0.301419
v -0.371056 0.489822 0.368194
v 0.312123 0.243252 0.302247
v 0.363213 0.243252 0.302247
v 0.312123 0.243252 0.353336
v 0.363213 0.243252 0.353336
v -0.312123 0.243252 0.302247
v -0.363213 0.243252 0.302247
v -0.312123 0.243252 0.353336
v -0.363213 0.243252 0.353336
v 0.302916 0.759193 -0.369559
v 0.372421 0.759193 -0.369559
v 0.302916 0.759193 -0.300054
v 0.372421 0.759193 -0.300054
v -0.303014 0.759193 -0.369461
v -0.372322 0.759193 -0.369461
v -0.303014 0.759193 -0.300153
v -0.372322 0.759193 -0.300153
v 0.309734 1.764456 -0.389198
v 0.309734 1.757036 -0.444573
v 0.365603 1.757036 -0.444573
v 0.365603 1.764456 -0.389198
v -0.309734 1.764456 -0.389198
v -0.309734 1.757036 -0.444573
v -0.365603 1.757036 -0.444573
v -0.365603 1.764456 -0.389198
v -0.380861 0.707450 0.380861
v -0.380861 0.776541 0.380861
v -0.380861 0.707450 -0.380861
v -0.380861 0.776541 -0.380861
v 0.380861 0.707450 0.380861
v 0.380861 0.776541 0.380861
v 0.380861 0.707450 -0.380861
v 0.380861 0.776541 -0.380861
v -0.348752 0.707450 0.348752
v -0.348752 0.707450 -0.348752
v 0.348752 0.707450 0.348752
v 0.348752 0.707450 -0.348752
v -0.348752 0.627634 -0.348752
v -0.348752 0.627634 0.348752
v 0.348752 0.627634 -0.348752
v 0.348752 0.627634 0.348752
v 0.309734 1.378136 -0.390991
v 0.365603 1.378136 -0.390991
v 0.365603 1.381846 -0.335369
v 0.309734 1.381846 -0.335369
v -0.309734 1.381846 -0.335369
v -0.365603 1.381846 -0.335369
v -0.365603 1.378136 -0.390991
v -0.309734 1.378136 -0.390991
v -0.318284 1.736927 -0.399201
v -0.318284 1.733797 -0.426500
v -0.318284 1.657676 -0.417772
v -0.318284 1.660806 -0.390473
v 0.337801 1.736927 -0.399201
v 0.337801 1.733797 -0.426500
v 0.337801 1.657676 -0.417772
v 0.337801 1.660806 -0.390473
v -0.318284 1.577073 -0.380873
v -0.318284 1.573943 -0.408172
v -0.318284 1.497823 -0.399445
v -0.318284 1.500952 -0.372146
v 0.337801 1.577073 -0.380873
v 0.337801 1.573943 -0.408172
v 0.337801 1.497823 -0.399445
v 0.337801 1.500952 -0.372146
v -0.318284 1.417220 -0.362546
v -0.318284 1.414090 -0.389844
v -0.318284 1.337969 -0.381117
v -0.318284 1.341099 -0.353818
v 0.337801 1.417220 -0.362546
v 0.337801 1.414090 -0.389844
v 0.337801 1.337969 -0.381117
v 0.337801 1.341099 -0.353818
v -0.318284 1.257366 -0.344218
v -0.318284 1.254236 -0.371517
v -0.318284 1.178116 -0.362789
v -0.318284 1.181245 -0.335491
v 0.337801 1.257366 -0.344218
v 0.337801 1.254236 -0.371517
v 0.337801 1.178116 -0.362789
v 0.337801 1.181245 -0.335491
vn 0.0000 -0.1400 -0.9901
vn 0.0000 -1.0000 0.0000
vn -0.9995 -0.0318 0.0000
vn 0.0000 -0.0318 0.9995
vn 0.0000 -0.0318 -0.9995
vn 0.9995 -0.0318 0.0000
vn 1.0000 -0.0051 0.0000
vn 0.0000 -0.0051 -1.0000
vn 0.0000 -0.0051 1.0000
vn -1.0000 -0.0051 0.0000
vn 0.0000 0.1393 0.9902
vn -1.0000 -0.0047 0.0000
vn 0.0000 -0.0047 -1.0000
vn 0.0000 -0.0047 1.0000
vn 1.0000 -0.0047 0.0000
vn 0.0000 1.0000 0.0000
vn 0.0000 0.0046 -1.0000
vn 0.0000 -0.0680 0.9977
vn 1.0000 -0.0094 0.0000
vn 0.0000 -0.0094 1.0000
vn 0.0000 -0.0094 -1.0000
vn -1.0000 -0.0094 0.0000
vn 0.0000 -0.0601 0.9982
vn 0.0000 -0.0034 -1.0000
vn -0.9996 0.0284 0.0000
vn 0.0000 0.0284 0.9996
vn 0.0000 0.0284 -0.9996
vn 0.9996 0.0284 0.0000
vn 0.9996 0.0280 0.0000
vn 0.0000 0.0280 0.9996
vn 0.0000 0.0280 -0.9996
vn -0.9996 0.0280 0.0000
vn 0.0000 0.9911 -0.1328
vn 1.0000 0.0000 0.0000
vn -1.0000 0.0000 0.0000
vn 0.0000 0.0000 -1.0000
vn 0.0000 0.0000 1.0000
vn 0.0000 0.0743 0.9972
vn 0.0000 -0.0743 -0.9972
vn 0.0000 0.1139 0.9935
vn 0.0000 -0.1139 -0.9935
vn 0.0000 -0.9935 0.1139
vn 0.0000 0.9935 -0.1139
usemtl Wood
s off
f 90//1 89//1 66//1 67//1
f 7//2 8//2 5//2 6//2
f 10//3 6//3 5//3 9//3
f 9//4 5//4 8//4 11//4
f 12//5 7//5 6//5 10//5
f 11//6 8//6 7//6 12//6
f 60//7 11//7 12//7 58//7
f 58//8 12//8 10//8 57//8
f 59//9 9//9 11//9 60//9
f 57//10 10//10 9//10 59//10
f 94//11 93//11 69//11 72//11
f 19//2 18//2 17//2 20//2
f 22//6 21//6 17//6 18//6
f 21//4 23//4 20//4 17//4
f 24//5 22//5 18//5 19//5
f 23//3 24//3 19//3 20//3
f 64//12 62//12 24//12 23//12
f 62//13 61//13 22//13 24//13
f 63//14 64//14 23//14 21//14
f 61//15 63//15 21//15 22//15
f 28//16 27//16 25//16 26//16
f 31//2 30//2 29//2 32//2
f 51//3 49//3 29//3 30//3
f 49//17 50//17 32//17 29//17
f 52//18 51//18 30//18 31//18
f 50//6 52//6 31//6 32//6
f 27//19 28//19 36//19 35//19
f 28//20 26//20 34//20 36//20
f 25//21 27//21 35//21 33//21
f 26//22 25//22 33//22 34//22
f 40//16 38//16 37//16 39//16
f 43//2 44//2 41//2 42//2
f 55//6 42//6 41//6 53//6
f 53//17 41//17 44//17 54//17
f 56//18 43//18 42//18 55//18
f 54//3 44//3 43//3 56//3
f 39//22 47//22 48//22 40//22
f 40//20 48//20 46//20 38//20
f 37//21 45//21 47//21 39//21
f 38//19 46//19 45//19 37//19
f 35//6 36//6 52//6 50//6
f 36//23 34//23 51//23 52//23
f 33//24 35//24 50//24 49//24
f 34//3 33//3 49//3 51//3
f 47//3 54//3 56//3 48//3
f 48//23 56//23 55//23 46//23
f 45//24 53//24 54//24 47//24
f 46//6 55//6 53//6 45//6
f 2//25 57//25 59//25 1//25
f 1//26 59//26 60//26 3//26
f 4//27 58//27 57//27 2//27
f 3//28 60//28 58//28 4//28
f 14//29 13//29 63//29 61//29
f 13//30 15//30 64//30 63//30
f 16//31 14//31 61//31 62//31
f 15//32 16//32 62//32 64//32
f 67//33 66//33 65//33 68//33
f 71//33 72//33 69//33 70//33
f 96//1 95//1 71//1 70//1
f 91//34 90//34 67//34 68//34
f 95//35 94//35 72//35 71//35
f 89//35 92//35 65//35 66//35
f 93//34 96//34 70//34 69//34
f 92//11 91//11 68//11 65//11
f 73//35 74//35 76//35 75//35
f 75//36 76//36 80//36 79//36
f 79//34 80//34 78//34 77//34
f 77//37 78//37 74//37 73//37
f 75//2 79//2 77//2 73//2
f 80//16 76//16 74//16 78//16
f 82//16 81//16 83//16 84//16
f 85//2 87//2 88//2 86//2
f 81//35 82//35 85//35 86//35
f 83//37 81//37 86//37 88//37
f 82//36 84//36 87//36 85//36
f 84//34 83//34 88//34 87//34
f 1//38 3//38 91//38 92//38
f 2//35 1//35 92//35 89//35
f 3//34 4//34 90//34 91//34
f 4//39 2//39 89//39 90//39
f 13//34 14//34 96//34 93//34
f 16//35 15//35 94//35 95//35
f 14//39 16//39 95//39 96//39
f 15//38 13//38 93//38 94//38
f 99//35 100//35 97//35 98//35
f 103//34 102//34 101//34 104//34
f 97//40 100//40 104//40 101//40
f 99//41 98//41 102//41 103//41
f 100//42 99//42 103//42 104//42
f 98//43 97//43 101//43 102//43
f 107//35 108//35 105//35 106//35
f 111//34 110//34 109//34 112//34
f 105//40 108//40 112//40 109//40
f 107//41 106//41 110//41 111//41
f 108//42 107//42 111//42 112//42
f 106//43 105//43 109//43 110//43
f 115//35 116//35 113//35 114//35
f 119//34 118//34 117//34 120//34
f 113//40 116//40 120//40 117//40
f 115//41 114//41 118//41 119//41
f 116//42 115//42 119//42 120//42
f 114//43 113//43 117//43 118//43
f 123//35 124//35 121//35 122//35
f 127//34 126//34 125//34 128//34
f 121//40 124//40 128//40 125//40
f 123//41 122//41 126//41 127//41
f 124//42 123//42 127//42 128//42
f 122//43 121//43 125//43 126//43
