# Blender v2.79 (sub 0) OBJ File: 'Door_1.blend'
# www.blender.org
mtllib Door_1.mtl
o Door_1_Cube
v -1.735772 -0.000000 0.090110
v -1.735772 4.187836 0.090110
v 0.000000 -0.000000 0.090110
v 0.000000 4.187836 0.090110
v -1.684877 0.050114 0.090110
v -1.684877 4.137722 0.090110
v -0.050895 4.137722 0.090110
v -0.050895 0.050114 0.090110
v -1.684877 0.050114 0.123436
v -1.684877 4.137722 0.123436
v -0.050895 4.137722 0.123436
v -0.050895 0.050114 0.123436
v -0.867886 -0.000000 0.090110
v -0.867886 4.187836 0.090110
v -0.867886 0.050114 0.090110
v -0.867886 4.137722 0.090110
v -0.867886 0.050114 0.123436
v -0.867886 4.137722 0.123436
v -1.735772 3.114703 0.090110
v 0.000000 3.114703 0.090110
v -1.684877 3.114703 0.090110
v -0.050895 3.114703 0.090110
v -1.684877 3.114703 0.123436
v -0.050895 3.114703 0.123436
v -0.867886 3.114703 0.123436
v 0.000000 1.734560 0.090110
v -0.050895 1.734560 0.090110
v -0.050895 1.734560 0.123436
v -0.867886 1.734560 0.123436
v -1.735772 1.734560 0.090110
v -1.684877 1.734560 0.090110
v -1.684877 1.734560 0.123436
v -1.480629 3.213597 0.123436
v -1.480629 3.813993 0.123436
v -1.072134 3.813993 0.123436
v -1.072134 3.213597 0.123436
v -0.255142 3.813993 0.123436
v -0.663638 3.813993 0.123436
v -0.255142 3.213597 0.123436
v -0.663638 3.213597 0.123436
v -1.480629 1.972819 0.123436
v -1.480629 2.970562 0.123436
v -1.072134 2.970562 0.123436
v -1.072134 1.972819 0.123436
v -0.255142 2.970562 0.123436
v -0.663638 2.970562 0.123436
v -0.255142 1.972819 0.123436
v -0.663638 1.972819 0.123436
v -1.480629 0.417202 0.123436
v -1.072134 0.417202 0.123436
v -1.072134 1.576620 0.123436
v -1.480629 1.576620 0.123436
v -0.255142 1.576620 0.123436
v -0.255142 0.417202 0.123436
v -0.663638 0.417202 0.123436
v -0.663638 1.576620 0.123436
v -1.480629 3.213597 0.099159
v -1.480629 3.813993 0.099159
v -1.072134 3.813993 0.099159
v -1.072134 3.213597 0.099159
v -0.255142 3.813993 0.099159
v -0.663638 3.813993 0.099159
v -0.255142 3.213597 0.099159
v -0.663638 3.213597 0.099159
v -1.480629 1.972819 0.099159
v -1.480629 2.970562 0.099159
v -1.072134 2.970562 0.099159
v -1.072134 1.972819 0.099159
v -0.255142 2.970562 0.099159
v -0.663638 2.970562 0.099159
v -0.255142 1.972819 0.099159
v -0.663638 1.972819 0.099159
v -1.480629 0.417202 0.099159
v -1.072134 0.417202 0.099159
v -1.072134 1.576620 0.099159
v -1.480629 1.576620 0.099159
v -0.255142 1.576620 0.099159
v -0.255142 0.417202 0.099159
v -0.663638 0.417202 0.099159
v -0.663638 1.576620 0.099159
v -1.529753 1.786291 0.153171
v -1.529753 1.737990 0.105807
v -1.503062 1.797347 0.153171
v -1.468907 1.763193 0.105807
v -1.492006 1.824038 0.153171
v -1.443705 1.824038 0.105807
v -1.503062 1.850729 0.153171
v -1.468907 1.884883 0.105807
v -1.529753 1.861785 0.153171
v -1.529753 1.910086 0.105807
v -1.556444 1.850729 0.153171
v -1.590598 1.884883 0.105807
v -1.567500 1.824038 0.153171
v -1.615801 1.824038 0.105807
v -1.556444 1.797347 0.153171
v -1.590598 1.763193 0.105807
v -1.529753 1.769953 0.172449
v -1.491509 1.785794 0.172449
v -1.475668 1.824038 0.172449
v -1.491509 1.862282 0.172449
v -1.529753 1.878123 0.172449
v -1.567997 1.862282 0.172449
v -1.583838 1.824038 0.172449
v -1.567997 1.785794 0.172449
v -1.529753 1.791875 0.210066
v -1.507010 1.801295 0.210066
v -1.497590 1.824038 0.210066
v -1.507010 1.846781 0.210066
v -1.529753 1.856201 0.210066
v -1.552495 1.846781 0.210066
v -1.561916 1.824038 0.210066
v -1.552495 1.801295 0.210066
v -1.735772 -0.000000 -0.090109
v -1.735772 4.187836 -0.090109
v 0.000000 -0.000000 -0.090109
v 0.000000 4.187836 -0.090109
v -1.735772 -0.000000 0.000000
v -1.735772 4.187836 0.000000
v 0.000000 -0.000000 0.000000
v 0.000000 4.187836 0.000000
v -1.684877 0.050114 -0.090109
v -1.684877 4.137722 -0.090109
v -0.050895 4.137722 -0.090109
v -0.050895 0.050114 -0.090109
v -1.684877 0.050114 -0.123435
v -1.684877 4.137722 -0.123435
v -0.050895 4.137722 -0.123435
v -0.050895 0.050114 -0.123435
v -0.867886 -0.000000 -0.090109
v -0.867886 4.187836 -0.090109
v -0.867886 4.187836 0.000000
v -0.867886 -0.000000 0.000000
v -0.867886 0.050114 -0.090109
v -0.867886 4.137722 -0.090109
v -0.867886 0.050114 -0.123435
v -0.867886 4.137722 -0.123435
v -1.735772 3.114703 -0.090109
v 0.000000 3.114703 -0.090109
v 0.000000 3.114703 0.000000
v -1.735772 3.114703 0.000000
v -1.684877 3.114703 -0.090109
v -0.050895 3.114703 -0.090109
v -1.684877 3.114703 -0.123435
v -0.050895 3.114703 -0.123435
v -0.867886 3.114703 -0.123435
v 0.000000 1.734560 -0.090109
v 0.000000 1.734560 0.000000
v -1.735772 1.734560 0.000000
v -0.050895 1.734560 -0.090109
v -0.050895 1.734560 -0.123435
v -0.867886 1.734560 -0.123435
v -1.735772 1.734560 -0.090109
v -1.684877 1.734560 -0.090109
v -1.684877 1.734560 -0.123435
v -1.480629 3.213597 -0.123435
v -1.480629 3.813993 -0.123435
v -1.072134 3.813993 -0.123435
v -1.072134 3.213597 -0.123435
v -0.255142 3.813993 -0.123435
v -0.663638 3.813993 -0.123435
v -0.255142 3.213597 -0.123435
v -0.663638 3.213597 -0.123435
v -1.480629 1.972819 -0.123435
v -1.480629 2.970562 -0.123435
v -1.072134 2.970562 -0.123435
v -1.072134 1.972819 -0.123435
v -0.255142 2.970562 -0.123435
v -0.663638 2.970562 -0.123435
v -0.255142 1.972819 -0.123435
v -0.663638 1.972819 -0.123435
v -1.480629 0.417202 -0.123435
v -1.072134 0.417202 -0.123435
v -1.072134 1.576620 -0.123435
v -1.480629 1.576620 -0.123435
v -0.255142 1.576620 -0.123435
v -0.255142 0.417202 -0.123435
v -0.663638 0.417202 -0.123435
v -0.663638 1.576620 -0.123435
v -1.480629 3.213597 -0.099159
v -1.480629 3.813993 -0.099159
v -1.072134 3.813993 -0.099159
v -1.072134 3.213597 -0.099159
v -0.255142 3.813993 -0.099159
v -0.663638 3.813993 -0.099159
v -0.255142 3.213597 -0.099159
v -0.663638 3.213597 -0.099159
v -1.480629 1.972819 -0.099159
v -1.480629 2.970562 -0.099159
v -1.072134 2.970562 -0.099159
v -1.072134 1.972819 -0.099159
v -0.255142 2.970562 -0.099159
v -0.663638 2.970562 -0.099159
v -0.255142 1.972819 -0.099159
v -0.663638 1.972819 -0.099159
v -1.480629 0.417202 -0.099159
v -1.072134 0.417202 -0.099159
v -1.072134 1.576620 -0.099159
v -1.480629 1.576620 -0.099159
v -0.255142 1.576620 -0.099159
v -0.255142 0.417202 -0.099159
v -0.663638 0.417202 -0.099159
v -0.663638 1.576620 -0.099159
v -1.529753 1.786291 -0.153171
v -1.529753 1.737990 -0.105807
v -1.503062 1.797347 -0.153171
v -1.468907 1.763193 -0.105807
v -1.492006 1.824038 -0.153171
v -1.443705 1.824038 -0.105807
v -1.503062 1.850729 -0.153171
v -1.468907 1.884883 -0.105807
v -1.529753 1.861785 -0.153171
v -1.529753 1.910086 -0.105807
v -1.556444 1.850729 -0.153171
v -1.590598 1.884883 -0.105807
v -1.567500 1.824038 -0.153171
v -1.615801 1.824038 -0.105807
v -1.556444 1.797347 -0.153171
v -1.590598 1.763193 -0.105807
v -1.529753 1.769953 -0.172449
v -1.491509 1.785794 -0.172449
v -1.475668 1.824038 -0.172449
v -1.491509 1.862282 -0.172449
v -1.529753 1.878123 -0.172449
v -1.567997 1.862282 -0.172449
v -1.583838 1.824038 -0.172449
v -1.567997 1.785794 -0.172449
v -1.529753 1.791875 -0.210065
v -1.507010 1.801295 -0.210065
v -1.497590 1.824038 -0.210065
v -1.507010 1.846781 -0.210065
v -1.529753 1.856201 -0.210065
v -1.552495 1.846781 -0.210065
v -1.561916 1.824038 -0.210065
v -1.552495 1.801295 -0.210065
vn 1.0000 0.0000 0.0000
vn 0.0000 0.0000 1.0000
vn 0.0000 -1.0000 0.0000
vn 0.0000 1.0000 0.0000
vn -1.0000 0.0000 0.0000
vn 0.0000 0.0000 -1.0000
vn 0.2785 -0.6724 0.6857
vn 0.6724 -0.2785 0.6857
vn 0.6724 0.2785 0.6857
vn 0.2785 0.6724 0.6857
vn -0.2785 0.6724 0.6857
vn -0.6724 0.2785 0.6857
vn -0.6724 -0.2785 0.6857
vn -0.2785 -0.6724 0.6857
vn -0.7274 0.3013 -0.6165
vn 0.3369 0.8135 0.4741
vn 0.3013 0.7274 -0.6165
vn -0.7274 -0.3013 -0.6165
vn 0.7274 -0.3013 -0.6165
vn -0.3013 0.7274 -0.6165
vn -0.3013 -0.7274 -0.6165
vn 0.3013 -0.7274 -0.6165
vn 0.7274 0.3013 -0.6165
vn 0.8135 -0.3370 0.4741
vn -0.8135 -0.3370 0.4741
vn -0.3369 0.8135 0.4741
vn 0.8135 0.3369 0.4741
vn 0.3370 -0.8135 0.4741
vn -0.3370 -0.8135 0.4741
vn -0.8135 0.3369 0.4741
vn 0.2785 -0.6724 -0.6857
vn 0.6724 -0.2785 -0.6857
vn 0.6724 0.2785 -0.6857
vn 0.2785 0.6724 -0.6857
vn -0.2785 0.6724 -0.6857
vn -0.6724 0.2785 -0.6857
vn -0.6724 -0.2785 -0.6857
vn -0.2785 -0.6724 -0.6857
vn -0.7274 0.3013 0.6165
vn 0.3369 0.8135 -0.4741
vn 0.3013 0.7274 0.6165
vn -0.7274 -0.3013 0.6165
vn 0.7274 -0.3013 0.6165
vn -0.3013 0.7274 0.6165
vn -0.3013 -0.7274 0.6165
vn 0.3013 -0.7274 0.6165
vn 0.7274 0.3013 0.6165
vn 0.8135 -0.3370 -0.4741
vn -0.8135 -0.3370 -0.4741
vn -0.3369 0.8135 -0.4741
vn 0.8135 0.3369 -0.4741
vn 0.3370 -0.8135 -0.4741
vn -0.3370 -0.8135 -0.4741
vn -0.8135 0.3369 -0.4741
usemtl White
s off
f 139//1 120//1 4//1 20//1
f 14//2 2//2 6//2 16//2
f 132//3 119//3 3//3 13//3
f 131//4 118//4 2//4 14//4
f 19//5 2//5 118//5 140//5
f 15//3 8//3 12//3 17//3
f 20//2 4//2 7//2 22//2
f 30//2 1//2 5//2 31//2
f 13//2 3//2 8//2 15//2
f 18//2 10//2 34//2 35//2
f 31//5 5//5 9//5 32//5
f 16//4 6//4 10//4 18//4
f 22//1 7//1 11//1 24//1
f 7//4 16//4 18//4 11//4
f 25//2 24//2 39//2 40//2
f 1//2 13//2 15//2 5//2
f 5//3 15//3 17//3 9//3
f 120//4 131//4 14//4 4//4
f 117//3 132//3 13//3 1//3
f 4//2 14//2 16//2 7//2
f 25//2 29//2 48//2 46//2
f 27//1 22//1 24//1 28//1
f 6//5 21//5 23//5 10//5
f 23//2 32//2 41//2 42//2
f 2//2 19//2 21//2 6//2
f 26//2 20//2 22//2 27//2
f 30//5 19//5 140//5 148//5
f 147//1 139//1 20//1 26//1
f 119//1 147//1 26//1 3//1
f 1//5 30//5 148//5 117//5
f 3//2 26//2 27//2 8//2
f 9//2 17//2 50//2 49//2
f 8//1 27//1 28//1 12//1
f 12//2 28//2 53//2 54//2
f 21//5 31//5 32//5 23//5
f 19//2 30//2 31//2 21//2
f 39//5 37//5 61//5 63//5
f 23//2 25//2 36//2 33//2
f 10//2 23//2 33//2 34//2
f 25//2 18//2 35//2 36//2
f 42//1 41//1 65//1 66//1
f 24//2 11//2 37//2 39//2
f 11//2 18//2 38//2 37//2
f 18//2 25//2 40//2 38//2
f 35//3 34//3 58//3 59//3
f 29//2 25//2 43//2 44//2
f 32//2 29//2 44//2 41//2
f 25//2 23//2 42//2 43//2
f 37//3 38//3 62//3 61//3
f 24//2 25//2 46//2 45//2
f 29//2 28//2 47//2 48//2
f 28//2 24//2 45//2 47//2
f 34//1 33//1 57//1 58//1
f 29//2 32//2 52//2 51//2
f 17//2 29//2 51//2 50//2
f 32//2 9//2 49//2 52//2
f 53//3 56//3 80//3 77//3
f 28//2 29//2 56//2 53//2
f 29//2 17//2 55//2 56//2
f 17//2 12//2 54//2 55//2
f 60//2 59//2 58//2 57//2
f 63//2 61//2 62//2 64//2
f 68//2 67//2 66//2 65//2
f 71//2 69//2 70//2 72//2
f 74//2 75//2 76//2 73//2
f 78//2 77//2 80//2 79//2
f 45//3 46//3 70//3 69//3
f 36//5 35//5 59//5 60//5
f 43//3 42//3 66//3 67//3
f 49//4 50//4 74//4 73//4
f 38//1 40//1 64//1 62//1
f 47//5 45//5 69//5 71//5
f 54//5 53//5 77//5 78//5
f 33//4 36//4 60//4 57//4
f 44//5 43//5 67//5 68//5
f 50//5 51//5 75//5 74//5
f 40//4 39//4 63//4 64//4
f 46//1 48//1 72//1 70//1
f 55//4 54//4 78//4 79//4
f 41//4 44//4 68//4 65//4
f 52//1 49//1 73//1 76//1
f 48//4 47//4 71//4 72//4
f 56//1 55//1 79//1 80//1
f 51//3 52//3 76//3 75//3
f 139//1 138//1 116//1 120//1
f 130//6 134//6 122//6 114//6
f 132//3 129//3 115//3 119//3
f 131//4 130//4 114//4 118//4
f 137//5 140//5 118//5 114//5
f 133//3 135//3 128//3 124//3
f 138//6 142//6 123//6 116//6
f 152//6 153//6 121//6 113//6
f 129//6 133//6 124//6 115//6
f 136//6 157//6 156//6 126//6
f 153//5 154//5 125//5 121//5
f 134//4 136//4 126//4 122//4
f 142//1 144//1 127//1 123//1
f 123//4 127//4 136//4 134//4
f 145//6 162//6 161//6 144//6
f 113//6 121//6 133//6 129//6
f 121//3 125//3 135//3 133//3
f 120//4 116//4 130//4 131//4
f 117//3 113//3 129//3 132//3
f 116//6 123//6 134//6 130//6
f 145//6 168//6 170//6 151//6
f 149//1 150//1 144//1 142//1
f 122//5 126//5 143//5 141//5
f 143//6 164//6 163//6 154//6
f 114//6 122//6 141//6 137//6
f 146//6 149//6 142//6 138//6
f 152//5 148//5 140//5 137//5
f 147//1 146//1 138//1 139//1
f 119//1 115//1 146//1 147//1
f 113//5 117//5 148//5 152//5
f 115//6 124//6 149//6 146//6
f 125//6 171//6 172//6 135//6
f 124//1 128//1 150//1 149//1
f 128//6 176//6 175//6 150//6
f 141//5 143//5 154//5 153//5
f 137//6 141//6 153//6 152//6
f 161//5 185//5 183//5 159//5
f 143//6 155//6 158//6 145//6
f 126//6 156//6 155//6 143//6
f 145//6 158//6 157//6 136//6
f 164//1 188//1 187//1 163//1
f 144//6 161//6 159//6 127//6
f 127//6 159//6 160//6 136//6
f 136//6 160//6 162//6 145//6
f 157//3 181//3 180//3 156//3
f 151//6 166//6 165//6 145//6
f 154//6 163//6 166//6 151//6
f 145//6 165//6 164//6 143//6
f 159//3 183//3 184//3 160//3
f 144//6 167//6 168//6 145//6
f 151//6 170//6 169//6 150//6
f 150//6 169//6 167//6 144//6
f 156//1 180//1 179//1 155//1
f 151//6 173//6 174//6 154//6
f 135//6 172//6 173//6 151//6
f 154//6 174//6 171//6 125//6
f 175//3 199//3 202//3 178//3
f 150//6 175//6 178//6 151//6
f 151//6 178//6 177//6 135//6
f 135//6 177//6 176//6 128//6
f 182//6 179//6 180//6 181//6
f 185//6 186//6 184//6 183//6
f 190//6 187//6 188//6 189//6
f 193//6 194//6 192//6 191//6
f 196//6 195//6 198//6 197//6
f 200//6 201//6 202//6 199//6
f 167//3 191//3 192//3 168//3
f 158//5 182//5 181//5 157//5
f 165//3 189//3 188//3 164//3
f 171//4 195//4 196//4 172//4
f 160//1 184//1 186//1 162//1
f 169//5 193//5 191//5 167//5
f 176//5 200//5 199//5 175//5
f 155//4 179//4 182//4 158//4
f 166//5 190//5 189//5 165//5
f 172//5 196//5 197//5 173//5
f 162//4 186//4 185//4 161//4
f 168//1 192//1 194//1 170//1
f 177//4 201//4 200//4 176//4
f 163//4 187//4 190//4 166//4
f 174//1 198//1 195//1 171//1
f 170//4 194//4 193//4 169//4
f 178//1 202//1 201//1 177//1
f 173//3 197//3 198//3 174//3
usemtl Metal
f 81//7 82//7 84//7 83//7
f 83//8 84//8 86//8 85//8
f 85//9 86//9 88//9 87//9
f 87//10 88//10 90//10 89//10
f 89//11 90//11 92//11 91//11
f 91//12 92//12 94//12 93//12
f 84//6 82//6 96//6 94//6 92//6 90//6 88//6 86//6
f 93//13 94//13 96//13 95//13
f 95//14 96//14 82//14 81//14
f 91//15 93//15 103//15 102//15
f 100//16 101//16 109//16 108//16
f 87//17 89//17 101//17 100//17
f 93//18 95//18 104//18 103//18
f 83//19 85//19 99//19 98//19
f 89//20 91//20 102//20 101//20
f 95//21 81//21 97//21 104//21
f 81//22 83//22 98//22 97//22
f 85//23 87//23 100//23 99//23
f 105//2 106//2 107//2 108//2 109//2 110//2 111//2 112//2
f 98//24 99//24 107//24 106//24
f 103//25 104//25 112//25 111//25
f 101//26 102//26 110//26 109//26
f 99//27 100//27 108//27 107//27
f 97//28 98//28 106//28 105//28
f 104//29 97//29 105//29 112//29
f 102//30 103//30 111//30 110//30
f 203//31 205//31 206//31 204//31
f 205//32 207//32 208//32 206//32
f 207//33 209//33 210//33 208//33
f 209//34 211//34 212//34 210//34
f 211//35 213//35 214//35 212//35
f 213//36 215//36 216//36 214//36
f 206//2 208//2 210//2 212//2 214//2 216//2 218//2 204//2
f 215//37 217//37 218//37 216//37
f 217//38 203//38 204//38 218//38
f 213//39 224//39 225//39 215//39
f 222//40 230//40 231//40 223//40
f 209//41 222//41 223//41 211//41
f 215//42 225//42 226//42 217//42
f 205//43 220//43 221//43 207//43
f 211//44 223//44 224//44 213//44
f 217//45 226//45 219//45 203//45
f 203//46 219//46 220//46 205//46
f 207//47 221//47 222//47 209//47
f 227//6 234//6 233//6 232//6 231//6 230//6 229//6 228//6
f 220//48 228//48 229//48 221//48
f 225//49 233//49 234//49 226//49
f 223//50 231//50 232//50 224//50
f 221//51 229//51 230//51 222//51
f 219//52 227//52 228//52 220//52
f 226//53 234//53 227//53 219//53
f 224//54 232//54 233//54 225//54
