# Blender v2.79 (sub 0) OBJ File: 'Drawer_2.blend'
# www.blender.org
mtllib Drawer_2.mtl
o Drawer_2_Cube.053
v 2.017599 0.561303 0.560019
v 2.017599 1.295521 0.560019
v 2.017599 0.561303 -0.550871
v 2.017599 1.295521 -0.550871
v 0.638824 0.561303 -0.550871
v 0.638824 1.295521 -0.550871
v 0.638824 0.561303 0.560019
v 0.638824 1.295521 0.560019
v 1.961175 1.247295 0.560019
v 1.961175 0.609529 0.560019
v 0.695248 0.609529 0.560019
v 0.695248 1.247295 0.560019
v 1.943358 1.234622 0.531311
v 1.943358 0.622202 0.531311
v 0.713065 0.622202 0.531311
v 0.713065 1.234622 0.531311
v 0.612054 0.603076 0.560019
v 0.612054 1.253748 0.560019
v 0.612054 0.603076 -0.514989
v 0.612054 1.253748 -0.514989
v 1.937244 0.570743 0.515776
v 1.937244 0.570743 -0.506628
v 0.668294 0.570743 -0.506628
v 0.668294 0.570743 0.515776
v 1.937244 0.432692 0.515776
v 1.937244 0.432692 -0.506628
v 0.668294 0.432692 0.515776
v 0.668294 0.432692 -0.506628
v 1.498993 1.146249 0.556388
v 1.498993 1.078178 0.556388
v 1.157430 1.078178 0.556388
v 1.157430 1.146249 0.556388
v 1.498993 1.146249 0.504370
v 1.498993 1.078178 0.504370
v 1.157430 1.078178 0.504370
v 1.157430 1.146249 0.504370
v -2.017600 0.561303 0.560019
v -2.017600 1.295521 0.560019
v -2.017600 0.561303 -0.550871
v -2.017600 1.295521 -0.550871
v -0.638825 0.561303 -0.550871
v -0.638825 1.295521 -0.550871
v -0.638825 0.561303 0.560019
v -0.638825 1.295521 0.560019
v -0.000001 0.561303 -0.550871
v -0.000001 1.295521 -0.550871
v -0.000001 0.561303 0.560019
v -0.000001 1.295521 0.560019
v -1.961176 1.247295 0.560019
v -1.961176 0.609529 0.560019
v -0.695249 0.609529 0.560019
v -0.695249 1.247295 0.560019
v -1.943360 1.234622 0.531311
v -1.943360 0.622202 0.531311
v -0.713066 0.622202 0.531311
v -0.713066 1.234622 0.531311
v -0.000001 0.603076 0.560019
v -0.612055 0.603076 0.560019
v -0.612055 1.253748 0.560019
v -0.000001 1.253748 0.560019
v -0.000001 0.603076 -0.514989
v -0.612055 0.603076 -0.514989
v -0.612055 1.253748 -0.514989
v -0.000001 1.253748 -0.514989
v -1.937246 0.570743 0.515776
v -1.937246 0.570743 -0.506628
v -0.668295 0.570743 -0.506628
v -0.668295 0.570743 0.515776
v -0.000001 0.570743 -0.506628
v -0.000001 0.570743 0.515776
v -1.937246 0.432692 0.515776
v -1.937246 0.432692 -0.506628
v -0.668295 0.432692 0.515776
v -0.668295 0.432692 -0.506628
v -0.000001 0.432692 0.515776
v -0.000001 0.432692 -0.506628
v -1.498994 1.146249 0.556388
v -1.498994 1.078178 0.556388
v -1.157432 1.078178 0.556388
v -1.157432 1.146249 0.556388
v -1.498994 1.146249 0.504370
v -1.498994 1.078178 0.504370
v -1.157432 1.078178 0.504370
v -1.157432 1.146249 0.504370
v 1.838420 0.227591 0.438862
v 1.908191 0.237942 0.429230
v 1.916314 0.248294 0.499193
v 1.945232 -0.009416 0.521590
v 1.913116 0.001511 0.496716
v 1.965352 0.005436 0.489504
v 1.971434 0.009361 0.541884
v 1.919198 0.005436 0.549095
v 1.846543 0.237942 0.508825
v 1.922813 -0.006684 0.504226
v 1.767059 0.442745 0.383591
v 1.937714 0.002492 0.480015
v 1.961651 -0.005703 0.498864
v 1.853687 0.455597 0.371632
v 1.981452 0.008380 0.513891
v 1.966172 -0.004722 0.537809
v 1.863772 0.468449 0.458498
v 1.946836 0.008380 0.558585
v 1.927335 -0.005703 0.543171
v 1.777145 0.455597 0.470457
v 1.825039 0.230179 0.476251
v 1.871275 0.230179 0.416555
v 1.929695 0.245706 0.461803
v 1.883459 0.245706 0.521499
v 1.903098 0.002492 0.524708
v 1.892774 0.063494 0.480961
v 1.949734 0.070989 0.473097
v 1.956365 0.078483 0.530213
v 1.899406 0.070989 0.538076
v 1.915049 -0.004124 0.524558
v 1.750445 0.445958 0.430014
v 1.940557 -0.004124 0.491624
v 1.807852 0.445958 0.355895
v 1.947279 -0.001507 0.549521
v 1.822980 0.465236 0.486194
v 1.972787 -0.001507 0.516587
v 1.880386 0.465236 0.412075
v 1.919596 0.065368 0.462750
v 1.967289 0.076609 0.499689
v 1.929543 0.076609 0.548423
v 1.881850 0.065368 0.511484
v -1.838421 0.227591 0.438862
v -1.908193 0.237942 0.429230
v -1.916316 0.248294 0.499193
v -1.945233 -0.009416 0.521590
v -1.913118 0.001511 0.496716
v -1.965354 0.005436 0.489504
v -1.971435 0.009361 0.541884
v -1.919199 0.005436 0.549095
v -1.846545 0.237942 0.508825
v -1.922814 -0.006684 0.504226
v -1.767061 0.442745 0.383591
v -1.937716 0.002492 0.480015
v -1.961652 -0.005703 0.498864
v -1.853688 0.455597 0.371632
v -1.981454 0.008380 0.513891
v -1.966174 -0.004722 0.537809
v -1.863773 0.468449 0.458498
v -1.946838 0.008380 0.558585
v -1.927336 -0.005703 0.543171
v -1.777146 0.455597 0.470457
v -1.825040 0.230179 0.476251
v -1.871276 0.230179 0.416555
v -1.929697 0.245706 0.461803
v -1.883461 0.245706 0.521499
v -1.903099 0.002492 0.524708
v -1.892776 0.063494 0.480961
v -1.949735 0.070989 0.473097
v -1.956366 0.078483 0.530213
v -1.899407 0.070989 0.538076
v -1.915050 -0.004124 0.524558
v -1.750447 0.445958 0.430014
v -1.940558 -0.004124 0.491624
v -1.807853 0.445958 0.355895
v -1.947280 -0.001507 0.549521
v -1.822981 0.465236 0.486194
v -1.972788 -0.001507 0.516587
v -1.880388 0.465236 0.412075
v -1.919598 0.065368 0.462750
v -1.967291 0.076609 0.499689
v -1.929545 0.076609 0.548423
v -1.881852 0.065368 0.511484
v 1.838420 0.227591 -0.438865
v 1.908191 0.237942 -0.429233
v 1.916314 0.248294 -0.499196
v 1.945232 -0.009416 -0.521593
v 1.913116 0.001511 -0.496719
v 1.965352 0.005436 -0.489508
v 1.971434 0.009361 -0.541887
v 1.919198 0.005436 -0.549099
v 1.846543 0.237942 -0.508828
v 1.922813 -0.006684 -0.504229
v 1.767059 0.442745 -0.383595
v 1.937714 0.002492 -0.480019
v 1.961651 -0.005703 -0.498868
v 1.853687 0.455597 -0.371636
v 1.981452 0.008380 -0.513895
v 1.966172 -0.004722 -0.537812
v 1.863772 0.468449 -0.458501
v 1.946836 0.008380 -0.558588
v 1.927335 -0.005703 -0.543174
v 1.777145 0.455597 -0.470460
v 1.825039 0.230179 -0.476255
v 1.871275 0.230179 -0.416559
v 1.929695 0.245706 -0.461807
v 1.883459 0.245706 -0.521503
v 1.903098 0.002492 -0.524712
v 1.892774 0.063494 -0.480964
v 1.949734 0.070989 -0.473101
v 1.956365 0.078483 -0.530216
v 1.899406 0.070989 -0.538080
v 1.915049 -0.004124 -0.524561
v 1.750445 0.445958 -0.430017
v 1.940557 -0.004124 -0.491627
v 1.807852 0.445958 -0.355899
v 1.947279 -0.001507 -0.549524
v 1.822980 0.465236 -0.486197
v 1.972787 -0.001507 -0.516590
v 1.880386 0.465236 -0.412078
v 1.919596 0.065368 -0.462753
v 1.967289 0.076609 -0.499693
v 1.929543 0.076609 -0.548427
v 1.881850 0.065368 -0.511488
v -1.838421 0.227591 -0.438865
v -1.908193 0.237942 -0.429233
v -1.916316 0.248294 -0.499196
v -1.945233 -0.009416 -0.521593
v -1.913118 0.001511 -0.496719
v -1.965354 0.005436 -0.489508
v -1.971435 0.009361 -0.541887
v -1.919199 0.005436 -0.549099
v -1.846545 0.237942 -0.508828
v -1.922814 -0.006684 -0.504229
v -1.767061 0.442745 -0.383595
v -1.937716 0.002492 -0.480019
v -1.961652 -0.005703 -0.498868
v -1.853688 0.455597 -0.371636
v -1.981454 0.008380 -0.513895
v -1.966174 -0.004722 -0.537812
v -1.863773 0.468449 -0.458501
v -1.946838 0.008380 -0.558588
v -1.927336 -0.005703 -0.543174
v -1.777146 0.455597 -0.470460
v -1.825040 0.230179 -0.476255
v -1.871276 0.230179 -0.416559
v -1.929697 0.245706 -0.461807
v -1.883461 0.245706 -0.521503
v -1.903099 0.002492 -0.524712
v -1.892776 0.063494 -0.480964
v -1.949735 0.070989 -0.473101
v -1.956366 0.078483 -0.530216
v -1.899407 0.070989 -0.538080
v -1.915050 -0.004124 -0.524561
v -1.750447 0.445958 -0.430017
v -1.940558 -0.004124 -0.491627
v -1.807853 0.445958 -0.355899
v -1.947280 -0.001507 -0.549524
v -1.822981 0.465236 -0.486197
v -1.972788 -0.001507 -0.516590
v -1.880388 0.465236 -0.412078
v -1.919598 0.065368 -0.462753
v -1.967291 0.076609 -0.499693
v -1.929545 0.076609 -0.548427
v -1.881852 0.065368 -0.511488
vn 0.0000 0.0000 -1.0000
vn 1.0000 0.0000 0.0000
vn 0.0000 -1.0000 0.0000
vn 0.0000 1.0000 0.0000
vn 0.0000 0.0000 1.0000
vn 0.0000 -0.9148 0.4038
vn -0.8497 0.0000 0.5273
vn 0.8497 0.0000 0.5273
vn 0.0000 0.9148 0.4038
vn -1.0000 0.0000 0.0000
vn -0.7291 -0.3865 -0.5647
vn -0.7300 -0.3839 -0.5654
vn -0.9448 -0.2903 0.1516
vn -0.9436 -0.2925 0.1552
vn -0.9455 -0.2994 0.1280
vn -0.7290 -0.3869 -0.5647
vn -0.1125 -0.2994 -0.9474
vn -0.0857 -0.2925 -0.9524
vn -0.0895 -0.2903 -0.9527
vn 0.6206 -0.0515 -0.7824
vn 0.6201 -0.0507 -0.7828
vn 0.5992 -0.0612 -0.7982
vn 0.9693 0.1796 -0.1680
vn 0.9725 0.1857 -0.1404
vn 0.9742 0.1801 -0.1356
vn 0.7572 0.2875 0.5865
vn 0.7598 0.2765 0.5885
vn 0.7569 0.2890 0.5862
vn 0.0797 0.1796 0.9805
vn 0.1072 0.1857 0.9767
vn 0.1123 0.1801 0.9772
vn 0.0455 -0.9983 0.0352
vn -0.2734 -0.9383 -0.2118
vn -0.0027 -0.8979 -0.4400
vn 0.3641 -0.8680 -0.3375
vn 0.6458 -0.7630 -0.0258
vn 0.4872 -0.7876 0.3773
vn 0.1365 -0.7630 0.6318
vn -0.2357 -0.8680 0.4370
vn -0.4267 -0.8979 0.1075
vn -0.6149 -0.6286 -0.4762
vn -0.8209 -0.5459 0.1675
vn -0.0432 -0.5459 -0.8367
vn 0.6108 -0.3787 -0.6953
vn 0.9778 -0.1903 -0.0871
vn 0.7846 -0.1224 0.6077
vn 0.1602 -0.1903 0.9686
vn -0.5205 -0.3787 0.7653
vn -0.6028 -0.0507 0.7962
vn -0.6024 -0.0515 0.7965
vn -0.6230 -0.0612 0.7798
vn 0.7291 -0.3865 -0.5647
vn 0.9436 -0.2925 0.1552
vn 0.9448 -0.2903 0.1516
vn 0.7300 -0.3839 -0.5654
vn 0.7290 -0.3869 -0.5647
vn 0.9455 -0.2994 0.1280
vn 0.0857 -0.2925 -0.9524
vn 0.1125 -0.2994 -0.9474
vn 0.0895 -0.2903 -0.9527
vn -0.6206 -0.0515 -0.7824
vn -0.6201 -0.0507 -0.7828
vn -0.5992 -0.0612 -0.7982
vn -0.9725 0.1857 -0.1404
vn -0.9693 0.1796 -0.1680
vn -0.9742 0.1801 -0.1356
vn -0.7572 0.2875 0.5865
vn -0.7598 0.2765 0.5885
vn -0.7569 0.2890 0.5862
vn -0.1072 0.1857 0.9767
vn -0.0797 0.1796 0.9805
vn -0.1123 0.1801 0.9772
vn -0.0455 -0.9983 0.0352
vn -0.3641 -0.8680 -0.3375
vn 0.0027 -0.8979 -0.4400
vn 0.2734 -0.9383 -0.2118
vn -0.4872 -0.7876 0.3773
vn -0.6459 -0.7630 -0.0258
vn 0.2357 -0.8680 0.4370
vn -0.1365 -0.7630 0.6318
vn 0.4267 -0.8979 0.1075
vn 0.6149 -0.6286 -0.4762
vn 0.8209 -0.5459 0.1675
vn 0.0432 -0.5459 -0.8367
vn -0.6108 -0.3787 -0.6953
vn -0.9778 -0.1903 -0.0871
vn -0.7846 -0.1224 0.6077
vn -0.1602 -0.1903 0.9686
vn 0.5205 -0.3787 0.7653
vn 0.6028 -0.0507 0.7962
vn 0.6024 -0.0515 0.7965
vn 0.6230 -0.0612 0.7798
vn -0.7291 -0.3865 0.5647
vn -0.9436 -0.2925 -0.1552
vn -0.9448 -0.2903 -0.1516
vn -0.7300 -0.3839 0.5654
vn -0.7290 -0.3869 0.5647
vn -0.9455 -0.2994 -0.1280
vn -0.0857 -0.2925 0.9524
vn -0.1125 -0.2994 0.9474
vn -0.0895 -0.2903 0.9527
vn 0.6206 -0.0515 0.7824
vn 0.6201 -0.0507 0.7828
vn 0.5992 -0.0612 0.7982
vn 0.9725 0.1857 0.1404
vn 0.9693 0.1796 0.1680
vn 0.9742 0.1801 0.1356
vn 0.7572 0.2875 -0.5865
vn 0.7598 0.2765 -0.5885
vn 0.7569 0.2890 -0.5862
vn 0.1072 0.1857 -0.9767
vn 0.0797 0.1796 -0.9805
vn 0.1123 0.1801 -0.9772
vn 0.0455 -0.9983 -0.0352
vn 0.3641 -0.8680 0.3375
vn -0.0027 -0.8979 0.4400
vn -0.2734 -0.9383 0.2118
vn 0.4872 -0.7876 -0.3773
vn 0.6459 -0.7630 0.0258
vn -0.2357 -0.8680 -0.4370
vn 0.1365 -0.7630 -0.6318
vn -0.4267 -0.8979 -0.1075
vn -0.6149 -0.6286 0.4762
vn -0.8209 -0.5459 -0.1675
vn -0.0432 -0.5459 0.8367
vn 0.6108 -0.3787 0.6953
vn 0.9778 -0.1903 0.0871
vn 0.7846 -0.1224 -0.6077
vn 0.1602 -0.1903 -0.9686
vn -0.5205 -0.3787 -0.7653
vn -0.6028 -0.0507 -0.7962
vn -0.6024 -0.0515 -0.7965
vn -0.6230 -0.0612 -0.7798
vn 0.7291 -0.3865 0.5647
vn 0.7300 -0.3839 0.5654
vn 0.9448 -0.2903 -0.1516
vn 0.9436 -0.2925 -0.1552
vn 0.9455 -0.2994 -0.1280
vn 0.7290 -0.3869 0.5647
vn 0.1125 -0.2994 0.9474
vn 0.0857 -0.2925 0.9524
vn 0.0895 -0.2903 0.9527
vn -0.6206 -0.0515 0.7824
vn -0.6201 -0.0507 0.7828
vn -0.5992 -0.0612 0.7982
vn -0.9693 0.1796 0.1680
vn -0.9725 0.1857 0.1404
vn -0.9742 0.1801 0.1356
vn -0.7572 0.2875 -0.5865
vn -0.7598 0.2765 -0.5885
vn -0.7569 0.2890 -0.5862
vn -0.0797 0.1796 -0.9805
vn -0.1072 0.1857 -0.9767
vn -0.1123 0.1801 -0.9772
vn -0.0455 -0.9983 -0.0352
vn 0.2734 -0.9383 0.2118
vn 0.0027 -0.8979 0.4400
vn -0.3641 -0.8680 0.3375
vn -0.6459 -0.7630 0.0258
vn -0.4872 -0.7876 -0.3773
vn -0.1365 -0.7630 -0.6318
vn 0.2357 -0.8680 -0.4370
vn 0.4267 -0.8979 -0.1075
vn 0.6149 -0.6286 0.4762
vn 0.8209 -0.5459 -0.1675
vn 0.0432 -0.5459 0.8367
vn -0.6108 -0.3787 0.6953
vn -0.9778 -0.1903 0.0871
vn -0.7846 -0.1224 -0.6077
vn -0.1602 -0.1903 -0.9686
vn 0.5205 -0.3787 -0.7653
vn 0.6028 -0.0507 -0.7962
vn 0.6024 -0.0515 -0.7965
vn 0.6230 -0.0612 -0.7798
usemtl Wood
s off
f 5//1 6//1 4//1 3//1
f 3//2 4//2 2//2 1//2
f 5//3 3//3 1//3 7//3
f 4//4 6//4 8//4 2//4
f 45//3 5//3 7//3 47//3
f 2//5 8//5 12//5 9//5
f 45//1 46//1 6//1 5//1
f 7//5 8//5 18//5 17//5
f 6//4 46//4 48//4 8//4
f 9//6 12//6 16//6 13//6
f 7//5 1//5 10//5 11//5
f 8//5 7//5 11//5 12//5
f 1//5 2//5 9//5 10//5
f 10//7 9//7 13//7 14//7
f 12//8 11//8 15//8 16//8
f 11//9 10//9 14//9 15//9
f 18//3 60//3 64//3 20//3
f 47//5 7//5 17//5 57//5
f 8//5 48//5 60//5 18//5
f 19//5 20//5 64//5 61//5
f 57//4 17//4 19//4 61//4
f 17//10 18//10 20//10 19//10
f 23//4 24//4 21//4 22//4
f 69//4 70//4 24//4 23//4
f 28//3 26//3 25//3 27//3
f 76//3 28//3 27//3 75//3
f 69//1 23//1 28//1 76//1
f 24//5 70//5 75//5 27//5
f 21//5 24//5 27//5 25//5
f 23//1 22//1 26//1 28//1
f 22//2 21//2 25//2 26//2
f 41//1 39//1 40//1 42//1
f 39//10 37//10 38//10 40//10
f 41//3 43//3 37//3 39//3
f 40//4 38//4 44//4 42//4
f 45//3 47//3 43//3 41//3
f 38//5 49//5 52//5 44//5
f 45//1 41//1 42//1 46//1
f 43//5 58//5 59//5 44//5
f 42//4 44//4 48//4 46//4
f 49//6 53//6 56//6 52//6
f 43//5 51//5 50//5 37//5
f 44//5 52//5 51//5 43//5
f 37//5 50//5 49//5 38//5
f 50//8 54//8 53//8 49//8
f 52//7 56//7 55//7 51//7
f 51//9 55//9 54//9 50//9
f 59//3 63//3 64//3 60//3
f 47//5 57//5 58//5 43//5
f 44//5 59//5 60//5 48//5
f 62//5 61//5 64//5 63//5
f 57//4 61//4 62//4 58//4
f 58//2 62//2 63//2 59//2
f 67//4 66//4 65//4 68//4
f 69//4 67//4 68//4 70//4
f 74//3 73//3 71//3 72//3
f 76//3 75//3 73//3 74//3
f 69//1 76//1 74//1 67//1
f 68//5 73//5 75//5 70//5
f 65//5 71//5 73//5 68//5
f 67//1 74//1 72//1 66//1
f 66//10 72//10 71//10 65//10
usemtl Wood_Dark
f 30//5 29//5 32//5 31//5
f 32//10 36//10 35//10 31//10
f 31//3 35//3 34//3 30//3
f 29//4 33//4 36//4 32//4
f 30//2 34//2 33//2 29//2
f 78//5 79//5 80//5 77//5
f 80//2 79//2 83//2 84//2
f 79//3 78//3 82//3 83//3
f 77//4 80//4 84//4 81//4
f 78//10 77//10 81//10 82//10
usemtl Wood_Light
f 14//5 13//5 16//5 15//5
f 54//5 55//5 56//5 53//5
s 1
f 85//11 110//12 125//13 105//14
f 85//11 105//14 115//15 95//16
f 85//11 95//16 117//17 106//18
f 85//11 106//18 122//19 110//12
f 86//20 111//21 122//19 106//18
f 86//20 106//18 117//17 98//22
f 86//20 98//22 121//23 107//24
f 86//20 107//24 123//25 111//21
f 87//26 112//27 123//25 107//24
f 87//26 107//24 121//23 101//28
f 87//26 101//28 119//29 108//30
f 87//26 108//30 124//31 112//27
f 88//32 94//33 116//34 97//35
f 88//32 97//35 120//36 100//37
f 88//32 100//37 118//38 103//39
f 88//32 103//39 114//40 94//33
f 89//41 94//33 114//40 109//42
f 89//41 109//42 125//13 110//12
f 89//41 110//12 122//19 96//43
f 89//41 96//43 116//34 94//33
f 90//44 97//35 116//34 96//43
f 90//44 96//43 122//19 111//21
f 90//44 111//21 123//25 99//45
f 90//44 99//45 120//36 97//35
f 91//46 100//37 120//36 99//45
f 91//46 99//45 123//25 112//27
f 91//46 112//27 124//31 102//47
f 91//46 102//47 118//38 100//37
f 92//48 103//39 118//38 102//47
f 92//48 102//47 124//31 113//49
f 92//48 113//49 125//13 109//42
f 92//48 109//42 114//40 103//39
f 93//50 113//49 124//31 108//30
f 93//50 108//30 119//29 104//51
f 93//50 104//51 115//15 105//14
f 93//50 105//14 125//13 113//49
f 126//52 146//53 166//54 151//55
f 126//52 136//56 156//57 146//53
f 126//52 147//58 158//59 136//56
f 126//52 151//55 163//60 147//58
f 127//61 147//58 163//60 152//62
f 127//61 139//63 158//59 147//58
f 127//61 148//64 162//65 139//63
f 127//61 152//62 164//66 148//64
f 128//67 148//64 164//66 153//68
f 128//67 142//69 162//65 148//64
f 128//67 149//70 160//71 142//69
f 128//67 153//68 165//72 149//70
f 129//73 138//74 157//75 135//76
f 129//73 141//77 161//78 138//74
f 129//73 144//79 159//80 141//77
f 129//73 135//76 155//81 144//79
f 130//82 150//83 155//81 135//76
f 130//82 151//55 166//54 150//83
f 130//82 137//84 163//60 151//55
f 130//82 135//76 157//75 137//84
f 131//85 137//84 157//75 138//74
f 131//85 152//62 163//60 137//84
f 131//85 140//86 164//66 152//62
f 131//85 138//74 161//78 140//86
f 132//87 140//86 161//78 141//77
f 132//87 153//68 164//66 140//86
f 132//87 143//88 165//72 153//68
f 132//87 141//77 159//80 143//88
f 133//89 143//88 159//80 144//79
f 133//89 154//90 165//72 143//88
f 133//89 150//83 166//54 154//90
f 133//89 144//79 155//81 150//83
f 134//91 149//70 165//72 154//90
f 134//91 145//92 160//71 149//70
f 134//91 146//53 156//57 145//92
f 134//91 154//90 166//54 146//53
f 167//93 187//94 207//95 192//96
f 167//93 177//97 197//98 187//94
f 167//93 188//99 199//100 177//97
f 167//93 192//96 204//101 188//99
f 168//102 188//99 204//101 193//103
f 168//102 180//104 199//100 188//99
f 168//102 189//105 203//106 180//104
f 168//102 193//103 205//107 189//105
f 169//108 189//105 205//107 194//109
f 169//108 183//110 203//106 189//105
f 169//108 190//111 201//112 183//110
f 169//108 194//109 206//113 190//111
f 170//114 179//115 198//116 176//117
f 170//114 182//118 202//119 179//115
f 170//114 185//120 200//121 182//118
f 170//114 176//117 196//122 185//120
f 171//123 191//124 196//122 176//117
f 171//123 192//96 207//95 191//124
f 171//123 178//125 204//101 192//96
f 171//123 176//117 198//116 178//125
f 172//126 178//125 198//116 179//115
f 172//126 193//103 204//101 178//125
f 172//126 181//127 205//107 193//103
f 172//126 179//115 202//119 181//127
f 173//128 181//127 202//119 182//118
f 173//128 194//109 205//107 181//127
f 173//128 184//129 206//113 194//109
f 173//128 182//118 200//121 184//129
f 174//130 184//129 200//121 185//120
f 174//130 195//131 206//113 184//129
f 174//130 191//124 207//95 195//131
f 174//130 185//120 196//122 191//124
f 175//132 190//111 206//113 195//131
f 175//132 186//133 201//112 190//111
f 175//132 187//94 197//98 186//133
f 175//132 195//131 207//95 187//94
f 208//134 233//135 248//136 228//137
f 208//134 228//137 238//138 218//139
f 208//134 218//139 240//140 229//141
f 208//134 229//141 245//142 233//135
f 209//143 234//144 245//142 229//141
f 209//143 229//141 240//140 221//145
f 209//143 221//145 244//146 230//147
f 209//143 230//147 246//148 234//144
f 210//149 235//150 246//148 230//147
f 210//149 230//147 244//146 224//151
f 210//149 224//151 242//152 231//153
f 210//149 231//153 247//154 235//150
f 211//155 217//156 239//157 220//158
f 211//155 220//158 243//159 223//160
f 211//155 223//160 241//161 226//162
f 211//155 226//162 237//163 217//156
f 212//164 217//156 237//163 232//165
f 212//164 232//165 248//136 233//135
f 212//164 233//135 245//142 219//166
f 212//164 219//166 239//157 217//156
f 213//167 220//158 239//157 219//166
f 213//167 219//166 245//142 234//144
f 213//167 234//144 246//148 222//168
f 213//167 222//168 243//159 220//158
f 214//169 223//160 243//159 222//168
f 214//169 222//168 246//148 235//150
f 214//169 235//150 247//154 225//170
f 214//169 225//170 241//161 223//160
f 215//171 226//162 241//161 225//170
f 215//171 225//170 247//154 236//172
f 215//171 236//172 248//136 232//165
f 215//171 232//165 237//163 226//162
f 216//173 236//172 247//154 231//153
f 216//173 231//153 242//152 227//174
f 216//173 227//174 238//138 228//137
f 216//173 228//137 248//136 236//172
