# Blender v2.79 (sub 0) OBJ File: 'Drawer_3.blend'
# www.blender.org
mtllib Drawer_3.mtl
o Drawer_3_Cube.098
v -1.034567 0.083833 0.668246
v -1.034567 0.441893 0.668246
v -1.013132 0.099079 0.633707
v -1.013132 0.426647 0.633707
v -0.253857 0.306824 0.663877
v -0.253857 0.251935 0.663877
v -0.664784 0.251935 0.663877
v -0.664784 0.306824 0.663877
v -0.253857 0.306824 0.601295
v -0.253857 0.251935 0.601295
v -0.664784 0.251935 0.601295
v -0.664784 0.306824 0.601295
v -2.076534 0.025813 0.668246
v -2.076534 0.499914 0.668246
v -2.076534 0.025813 -0.668245
v -2.076534 0.499914 -0.668245
v -1.124412 0.025813 -0.668245
v -1.124412 0.499914 -0.668245
v -1.124412 0.025813 0.668246
v -1.124412 0.499914 0.668246
v -2.008651 0.441893 0.668246
v -2.008651 0.083833 0.668246
v -1.214257 0.083833 0.668246
v -1.214257 0.441893 0.668246
v -1.987217 0.426647 0.633707
v -1.987217 0.099079 0.633707
v -1.235691 0.099079 0.633707
v -1.235691 0.426647 0.633707
v -1.811927 0.306824 0.663877
v -1.811927 0.251935 0.663877
v -1.401000 0.251935 0.663877
v -1.401000 0.306824 0.663877
v -1.811927 0.306824 0.601295
v -1.811927 0.251935 0.601295
v -1.401000 0.251935 0.601295
v -1.401000 0.306824 0.601295
v -1.124412 0.499914 -0.611060
v -1.124412 0.025813 0.611060
v -1.124412 0.025813 -0.611060
v -1.124412 0.499914 0.611060
v -1.992553 0.499914 -0.611060
v -1.992553 0.025813 0.611060
v -1.992553 0.025813 -0.611060
v -1.992553 0.499914 0.611060
v -1.124412 0.525726 -0.611060
v -1.124412 0.000000 0.611060
v -1.124412 0.000000 -0.611060
v -1.124412 0.525726 0.611060
v -1.992553 0.525726 -0.611060
v -1.992553 0.000000 0.611060
v -1.992553 0.000000 -0.611060
v -1.992553 0.525726 0.611060
v -1.034567 0.609560 0.668246
v -1.034567 0.967619 0.668246
v -1.013132 0.624805 0.633707
v -1.013132 0.952373 0.633707
v -0.253857 0.832550 0.663877
v -0.253857 0.777661 0.663877
v -0.664784 0.777661 0.663877
v -0.664784 0.832550 0.663877
v -0.253857 0.832550 0.601295
v -0.253857 0.777661 0.601295
v -0.664784 0.777661 0.601295
v -0.664784 0.832550 0.601295
v -2.076534 0.551539 0.668246
v -2.076534 1.025640 0.668246
v -2.076534 0.551539 -0.668245
v -2.076534 1.025640 -0.668245
v -1.124412 0.551539 -0.668245
v -1.124412 1.025640 -0.668245
v -1.124412 0.551539 0.668246
v -1.124412 1.025640 0.668246
v -2.008651 0.967619 0.668246
v -2.008651 0.609560 0.668246
v -1.214257 0.609560 0.668246
v -1.214257 0.967619 0.668246
v -1.987217 0.952373 0.633707
v -1.987217 0.624805 0.633707
v -1.235691 0.624805 0.633707
v -1.235691 0.952373 0.633707
v -1.811927 0.832550 0.663877
v -1.811927 0.777661 0.663877
v -1.401000 0.777661 0.663877
v -1.401000 0.832550 0.663877
v -1.811927 0.832550 0.601295
v -1.811927 0.777661 0.601295
v -1.401000 0.777661 0.601295
v -1.401000 0.832550 0.601295
v -1.124412 1.025640 -0.611060
v -1.124412 0.551539 0.611060
v -1.124412 0.551539 -0.611060
v -1.124412 1.025640 0.611060
v -1.992553 1.025640 -0.611060
v -1.992553 0.551539 0.611060
v -1.992553 0.551539 -0.611060
v -1.992553 1.025640 0.611060
v -1.124412 1.051453 -0.611060
v -1.124412 1.051453 0.611060
v -1.992553 1.051453 -0.611060
v -1.992553 1.051453 0.611060
v -1.034567 1.135286 0.668246
v -1.034567 1.493345 0.668246
v -1.013132 1.150532 0.633707
v -1.013132 1.478099 0.633707
v -0.253857 1.358277 0.663877
v -0.253857 1.303387 0.663877
v -0.664784 1.303387 0.663877
v -0.664784 1.358277 0.663877
v -0.253857 1.358277 0.601295
v -0.253857 1.303387 0.601295
v -0.664784 1.303387 0.601295
v -0.664784 1.358277 0.601295
v -2.076534 1.077265 0.668246
v -2.076534 1.551366 0.668246
v -2.076534 1.077265 -0.668245
v -2.076534 1.551366 -0.668245
v -1.124412 1.077265 -0.668245
v -1.124412 1.551366 -0.668245
v -1.124412 1.077265 0.668246
v -1.124412 1.551366 0.668246
v -2.008651 1.493345 0.668246
v -2.008651 1.135286 0.668246
v -1.214257 1.135286 0.668246
v -1.214257 1.493345 0.668246
v -1.987217 1.478099 0.633707
v -1.987217 1.150532 0.633707
v -1.235691 1.150532 0.633707
v -1.235691 1.478099 0.633707
v -1.811927 1.358277 0.663877
v -1.811927 1.303387 0.663877
v -1.401000 1.303387 0.663877
v -1.401000 1.358277 0.663877
v -1.811927 1.358277 0.601295
v -1.811927 1.303387 0.601295
v -1.401000 1.303387 0.601295
v -1.401000 1.358277 0.601295
v -1.124412 1.551366 -0.611060
v -1.124412 1.077265 0.611060
v -1.124412 1.077265 -0.611060
v -1.124412 1.551366 0.611060
v -1.992553 1.551366 -0.611060
v -1.992553 1.077265 0.611060
v -1.992553 1.077265 -0.611060
v -1.992553 1.551366 0.611060
v -1.124412 1.577179 -0.611060
v -1.124412 1.577179 0.611060
v -1.992553 1.577179 -0.611060
v -1.992553 1.577179 0.611060
v -0.000000 0.025813 0.668246
v -0.000000 0.499914 0.668246
v -0.000000 0.025813 -0.668246
v -0.000000 0.499914 -0.668246
v -0.000000 0.441893 0.668246
v -0.000000 0.083833 0.668246
v 1.034567 0.083833 0.668246
v 1.034567 0.441893 0.668246
v -0.000000 0.426647 0.633707
v -0.000000 0.099079 0.633707
v 1.013132 0.099079 0.633707
v 1.013132 0.426647 0.633707
v 0.253857 0.306824 0.663877
v 0.253857 0.251935 0.663877
v 0.664784 0.251935 0.663877
v 0.664784 0.306824 0.663877
v 0.253857 0.306824 0.601295
v 0.253857 0.251935 0.601295
v 0.664784 0.251935 0.601295
v 0.664784 0.306824 0.601295
v 2.076534 0.025813 0.668246
v 2.076534 0.499914 0.668246
v 2.076534 0.025813 -0.668245
v 2.076534 0.499914 -0.668245
v 1.124412 0.025813 -0.668245
v 1.124412 0.499914 -0.668245
v 1.124412 0.025813 0.668246
v 1.124412 0.499914 0.668246
v 2.008651 0.441893 0.668246
v 2.008651 0.083833 0.668246
v 1.214257 0.083833 0.668246
v 1.214257 0.441893 0.668246
v 1.987217 0.426647 0.633707
v 1.987217 0.099079 0.633707
v 1.235691 0.099079 0.633707
v 1.235691 0.426647 0.633707
v 1.811927 0.306824 0.663877
v 1.811927 0.251935 0.663877
v 1.401000 0.251935 0.663877
v 1.401000 0.306824 0.663877
v 1.811927 0.306824 0.601295
v 1.811927 0.251935 0.601295
v 1.401000 0.251935 0.601295
v 1.401000 0.306824 0.601295
v 1.124412 0.499914 -0.611060
v -0.000000 0.499914 -0.611060
v -0.000000 0.025813 0.611060
v -0.000000 0.025813 -0.611060
v -0.000000 0.499914 0.611060
v 1.124412 0.025813 0.611060
v 1.124412 0.025813 -0.611060
v 1.124412 0.499914 0.611060
v 1.992553 0.499914 -0.611060
v 1.992553 0.025813 0.611060
v 1.992553 0.025813 -0.611060
v 1.992553 0.499914 0.611060
v 1.124412 0.525726 -0.611060
v -0.000000 0.525726 -0.611060
v -0.000000 -0.000000 0.611060
v -0.000000 -0.000000 -0.611060
v -0.000000 0.525726 0.611060
v 1.124412 0.000000 0.611060
v 1.124412 0.000000 -0.611060
v 1.124412 0.525726 0.611060
v 1.992553 0.525726 -0.611060
v 1.992553 0.000000 0.611060
v 1.992553 0.000000 -0.611060
v 1.992553 0.525726 0.611060
v -0.000000 0.551539 0.668246
v -0.000000 1.025640 0.668246
v -0.000000 0.551539 -0.668246
v -0.000000 1.025640 -0.668246
v -0.000000 0.967619 0.668246
v -0.000000 0.609560 0.668246
v 1.034567 0.609560 0.668246
v 1.034567 0.967619 0.668246
v -0.000000 0.952373 0.633707
v -0.000000 0.624805 0.633707
v 1.013132 0.624805 0.633707
v 1.013132 0.952373 0.633707
v 0.253857 0.832550 0.663877
v 0.253857 0.777661 0.663877
v 0.664784 0.777661 0.663877
v 0.664784 0.832550 0.663877
v 0.253857 0.832550 0.601295
v 0.253857 0.777661 0.601295
v 0.664784 0.777661 0.601295
v 0.664784 0.832550 0.601295
v 2.076534 0.551539 0.668246
v 2.076534 1.025640 0.668246
v 2.076534 0.551539 -0.668245
v 2.076534 1.025640 -0.668245
v 1.124412 0.551539 -0.668245
v 1.124412 1.025640 -0.668245
v 1.124412 0.551539 0.668246
v 1.124412 1.025640 0.668246
v 2.008651 0.967619 0.668246
v 2.008651 0.609560 0.668246
v 1.214257 0.609560 0.668246
v 1.214257 0.967619 0.668246
v 1.987217 0.952373 0.633707
v 1.987217 0.624805 0.633707
v 1.235691 0.624805 0.633707
v 1.235691 0.952373 0.633707
v 1.811927 0.832550 0.663877
v 1.811927 0.777661 0.663877
v 1.401000 0.777661 0.663877
v 1.401000 0.832550 0.663877
v 1.811927 0.832550 0.601295
v 1.811927 0.777661 0.601295
v 1.401000 0.777661 0.601295
v 1.401000 0.832550 0.601295
v 1.124412 1.025640 -0.611060
v -0.000000 1.025640 -0.611060
v -0.000000 0.551539 0.611060
v -0.000000 0.551539 -0.611060
v -0.000000 1.025640 0.611060
v 1.124412 0.551539 0.611060
v 1.124412 0.551539 -0.611060
v 1.124412 1.025640 0.611060
v 1.992553 1.025640 -0.611060
v 1.992553 0.551539 0.611060
v 1.992553 0.551539 -0.611060
v 1.992553 1.025640 0.611060
v 1.124412 1.051453 -0.611060
v -0.000000 1.051453 -0.611060
v -0.000000 1.051453 0.611060
v 1.124412 1.051453 0.611060
v 1.992553 1.051453 -0.611060
v 1.992553 1.051453 0.611060
v -0.000000 1.077265 0.668246
v -0.000000 1.551366 0.668246
v -0.000000 1.077265 -0.668246
v -0.000000 1.551366 -0.668246
v -0.000000 1.493345 0.668246
v -0.000000 1.135286 0.668246
v 1.034567 1.135286 0.668246
v 1.034567 1.493345 0.668246
v -0.000000 1.478099 0.633707
v -0.000000 1.150532 0.633707
v 1.013132 1.150532 0.633707
v 1.013132 1.478099 0.633707
v 0.253857 1.358277 0.663877
v 0.253857 1.303387 0.663877
v 0.664784 1.303387 0.663877
v 0.664784 1.358277 0.663877
v 0.253857 1.358277 0.601295
v 0.253857 1.303387 0.601295
v 0.664784 1.303387 0.601295
v 0.664784 1.358277 0.601295
v 2.076534 1.077265 0.668246
v 2.076534 1.551366 0.668246
v 2.076534 1.077265 -0.668245
v 2.076534 1.551366 -0.668245
v 1.124412 1.077265 -0.668245
v 1.124412 1.551366 -0.668245
v 1.124412 1.077265 0.668246
v 1.124412 1.551366 0.668246
v 2.008651 1.493345 0.668246
v 2.008651 1.135286 0.668246
v 1.214257 1.135286 0.668246
v 1.214257 1.493345 0.668246
v 1.987217 1.478099 0.633707
v 1.987217 1.150532 0.633707
v 1.235691 1.150532 0.633707
v 1.235691 1.478099 0.633707
v 1.811927 1.358277 0.663877
v 1.811927 1.303387 0.663877
v 1.401000 1.303387 0.663877
v 1.401000 1.358277 0.663877
v 1.811927 1.358277 0.601295
v 1.811927 1.303387 0.601295
v 1.401000 1.303387 0.601295
v 1.401000 1.358277 0.601295
v 1.124412 1.551366 -0.611060
v -0.000000 1.551366 -0.611060
v -0.000000 1.077265 0.611060
v -0.000000 1.077265 -0.611060
v -0.000000 1.551366 0.611060
v 1.124412 1.077265 0.611060
v 1.124412 1.077265 -0.611060
v 1.124412 1.551366 0.611060
v 1.992553 1.551366 -0.611060
v 1.992553 1.077265 0.611060
v 1.992553 1.077265 -0.611060
v 1.992553 1.551366 0.611060
v 1.124412 1.577179 -0.611060
v -0.000000 1.577179 -0.611060
v -0.000000 1.577179 0.611060
v 1.124412 1.577179 0.611060
v 1.992553 1.577179 -0.611060
v 1.992553 1.577179 0.611060
vn 0.0000 0.0000 -1.0000
vn 0.0000 0.0000 1.0000
vn -0.0000 -0.9148 0.4038
vn 0.8497 0.0000 0.5273
vn 0.0000 0.9148 0.4038
vn -1.0000 0.0000 0.0000
vn -0.8497 0.0000 0.5273
vn -0.0000 -1.0000 0.0000
vn 0.0000 1.0000 0.0000
vn 1.0000 0.0000 0.0000
usemtl Wood
s off
f 17//1 18//1 152//1 151//1
f 150//2 20//2 2//2 153//2
f 153//3 2//3 4//3 157//3
f 19//2 149//2 154//2 1//2
f 20//2 19//2 1//2 2//2
f 2//4 1//4 3//4 4//4
f 1//5 154//5 158//5 3//5
f 17//1 15//1 16//1 18//1
f 15//6 13//6 14//6 16//6
f 14//2 21//2 24//2 20//2
f 21//3 25//3 28//3 24//3
f 19//2 23//2 22//2 13//2
f 20//2 24//2 23//2 19//2
f 13//2 22//2 21//2 14//2
f 22//4 26//4 25//4 21//4
f 24//7 28//7 27//7 23//7
f 23//5 27//5 26//5 22//5
f 149//8 19//8 38//8 195//8
f 38//2 42//2 50//2 46//2
f 19//8 13//8 42//8 38//8
f 17//8 151//8 196//8 39//8
f 13//8 15//8 43//8 42//8
f 15//8 17//8 39//8 43//8
f 152//9 18//9 37//9 194//9
f 16//9 14//9 44//9 41//9
f 20//9 150//9 197//9 40//9
f 18//9 16//9 41//9 37//9
f 14//9 20//9 40//9 44//9
f 208//8 207//8 46//8 50//8 51//8 47//8
f 37//1 41//1 49//1 45//1
f 195//2 38//2 46//2 207//2
f 43//1 39//1 47//1 51//1
f 194//1 37//1 45//1 206//1
f 42//6 43//6 51//6 50//6
f 39//1 196//1 208//1 47//1
f 44//2 40//2 48//2 52//2
f 41//6 44//6 52//6 49//6
f 40//2 197//2 209//2 48//2
f 69//1 70//1 220//1 219//1
f 218//2 72//2 54//2 221//2
f 221//3 54//3 56//3 225//3
f 71//2 217//2 222//2 53//2
f 72//2 71//2 53//2 54//2
f 54//4 53//4 55//4 56//4
f 53//5 222//5 226//5 55//5
f 69//1 67//1 68//1 70//1
f 67//6 65//6 66//6 68//6
f 66//2 73//2 76//2 72//2
f 73//3 77//3 80//3 76//3
f 71//2 75//2 74//2 65//2
f 72//2 76//2 75//2 71//2
f 65//2 74//2 73//2 66//2
f 74//4 78//4 77//4 73//4
f 76//7 80//7 79//7 75//7
f 75//5 79//5 78//5 74//5
f 217//8 71//8 90//8 263//8
f 90//2 94//2 52//2 48//2
f 71//8 65//8 94//8 90//8
f 69//8 219//8 264//8 91//8
f 65//8 67//8 95//8 94//8
f 67//8 69//8 91//8 95//8
f 220//9 70//9 89//9 262//9
f 68//9 66//9 96//9 93//9
f 72//9 218//9 265//9 92//9
f 70//9 68//9 93//9 89//9
f 66//9 72//9 92//9 96//9
f 89//1 93//1 99//1 97//1
f 263//2 90//2 48//2 209//2
f 95//1 91//1 45//1 49//1
f 262//1 89//1 97//1 274//1
f 94//6 95//6 49//6 52//6
f 91//1 264//1 206//1 45//1
f 96//2 92//2 98//2 100//2
f 93//6 96//6 100//6 99//6
f 92//2 265//2 275//2 98//2
f 117//1 118//1 282//1 281//1
f 280//2 120//2 102//2 283//2
f 283//3 102//3 104//3 287//3
f 119//2 279//2 284//2 101//2
f 120//2 119//2 101//2 102//2
f 102//4 101//4 103//4 104//4
f 101//5 284//5 288//5 103//5
f 117//1 115//1 116//1 118//1
f 115//6 113//6 114//6 116//6
f 114//2 121//2 124//2 120//2
f 121//3 125//3 128//3 124//3
f 119//2 123//2 122//2 113//2
f 120//2 124//2 123//2 119//2
f 113//2 122//2 121//2 114//2
f 122//4 126//4 125//4 121//4
f 124//7 128//7 127//7 123//7
f 123//5 127//5 126//5 122//5
f 279//8 119//8 138//8 325//8
f 138//2 142//2 100//2 98//2
f 119//8 113//8 142//8 138//8
f 117//8 281//8 326//8 139//8
f 113//8 115//8 143//8 142//8
f 115//8 117//8 139//8 143//8
f 282//9 118//9 137//9 324//9
f 116//9 114//9 144//9 141//9
f 120//9 280//9 327//9 140//9
f 118//9 116//9 141//9 137//9
f 114//9 120//9 140//9 144//9
f 325//2 138//2 98//2 275//2
f 143//1 139//1 97//1 99//1
f 142//6 143//6 99//6 100//6
f 139//1 326//1 274//1 97//1
f 173//1 151//1 152//1 174//1
f 150//2 153//2 156//2 176//2
f 153//3 157//3 160//3 156//3
f 175//2 155//2 154//2 149//2
f 176//2 156//2 155//2 175//2
f 156//7 160//7 159//7 155//7
f 155//5 159//5 158//5 154//5
f 173//1 174//1 172//1 171//1
f 171//10 172//10 170//10 169//10
f 170//2 176//2 180//2 177//2
f 177//3 180//3 184//3 181//3
f 175//2 169//2 178//2 179//2
f 176//2 175//2 179//2 180//2
f 169//2 170//2 177//2 178//2
f 178//7 177//7 181//7 182//7
f 180//4 179//4 183//4 184//4
f 179//5 178//5 182//5 183//5
f 149//8 195//8 198//8 175//8
f 198//2 210//2 214//2 202//2
f 175//8 198//8 202//8 169//8
f 173//8 199//8 196//8 151//8
f 169//8 202//8 203//8 171//8
f 171//8 203//8 199//8 173//8
f 152//9 194//9 193//9 174//9
f 172//9 201//9 204//9 170//9
f 176//9 200//9 197//9 150//9
f 174//9 193//9 201//9 172//9
f 170//9 204//9 200//9 176//9
f 208//8 211//8 215//8 214//8 210//8 207//8
f 193//1 205//1 213//1 201//1
f 195//2 207//2 210//2 198//2
f 203//1 215//1 211//1 199//1
f 194//1 206//1 205//1 193//1
f 202//10 214//10 215//10 203//10
f 199//1 211//1 208//1 196//1
f 204//2 216//2 212//2 200//2
f 201//10 213//10 216//10 204//10
f 200//2 212//2 209//2 197//2
f 241//1 219//1 220//1 242//1
f 218//2 221//2 224//2 244//2
f 221//3 225//3 228//3 224//3
f 243//2 223//2 222//2 217//2
f 244//2 224//2 223//2 243//2
f 224//7 228//7 227//7 223//7
f 223//5 227//5 226//5 222//5
f 241//1 242//1 240//1 239//1
f 239//10 240//10 238//10 237//10
f 238//2 244//2 248//2 245//2
f 245//3 248//3 252//3 249//3
f 243//2 237//2 246//2 247//2
f 244//2 243//2 247//2 248//2
f 237//2 238//2 245//2 246//2
f 246//7 245//7 249//7 250//7
f 248//4 247//4 251//4 252//4
f 247//5 246//5 250//5 251//5
f 217//8 263//8 266//8 243//8
f 266//2 212//2 216//2 270//2
f 243//8 266//8 270//8 237//8
f 241//8 267//8 264//8 219//8
f 237//8 270//8 271//8 239//8
f 239//8 271//8 267//8 241//8
f 220//9 262//9 261//9 242//9
f 240//9 269//9 272//9 238//9
f 244//9 268//9 265//9 218//9
f 242//9 261//9 269//9 240//9
f 238//9 272//9 268//9 244//9
f 261//1 273//1 277//1 269//1
f 263//2 209//2 212//2 266//2
f 271//1 213//1 205//1 267//1
f 262//1 274//1 273//1 261//1
f 270//10 216//10 213//10 271//10
f 267//1 205//1 206//1 264//1
f 272//2 278//2 276//2 268//2
f 269//10 277//10 278//10 272//10
f 268//2 276//2 275//2 265//2
f 303//1 281//1 282//1 304//1
f 280//2 283//2 286//2 306//2
f 283//3 287//3 290//3 286//3
f 305//2 285//2 284//2 279//2
f 306//2 286//2 285//2 305//2
f 286//7 290//7 289//7 285//7
f 285//5 289//5 288//5 284//5
f 303//1 304//1 302//1 301//1
f 301//10 302//10 300//10 299//10
f 300//2 306//2 310//2 307//2
f 307//3 310//3 314//3 311//3
f 305//2 299//2 308//2 309//2
f 306//2 305//2 309//2 310//2
f 299//2 300//2 307//2 308//2
f 308//7 307//7 311//7 312//7
f 310//4 309//4 313//4 314//4
f 309//5 308//5 312//5 313//5
f 279//8 325//8 328//8 305//8
f 328//2 276//2 278//2 332//2
f 305//8 328//8 332//8 299//8
f 303//8 329//8 326//8 281//8
f 299//8 332//8 333//8 301//8
f 301//8 333//8 329//8 303//8
f 282//9 324//9 323//9 304//9
f 302//9 331//9 334//9 300//9
f 306//9 330//9 327//9 280//9
f 304//9 323//9 331//9 302//9
f 300//9 334//9 330//9 306//9
f 325//2 275//2 276//2 328//2
f 333//1 277//1 273//1 329//1
f 332//10 278//10 277//10 333//10
f 329//1 273//1 274//1 326//1
usemtl Wood_Dark
f 6//2 5//2 8//2 7//2
f 8//6 12//6 11//6 7//6
f 7//8 11//8 10//8 6//8
f 5//9 9//9 12//9 8//9
f 6//10 10//10 9//10 5//10
f 30//2 31//2 32//2 29//2
f 32//10 31//10 35//10 36//10
f 31//8 30//8 34//8 35//8
f 29//9 32//9 36//9 33//9
f 30//6 29//6 33//6 34//6
f 58//2 57//2 60//2 59//2
f 60//6 64//6 63//6 59//6
f 59//8 63//8 62//8 58//8
f 57//9 61//9 64//9 60//9
f 58//10 62//10 61//10 57//10
f 82//2 83//2 84//2 81//2
f 84//10 83//10 87//10 88//10
f 83//8 82//8 86//8 87//8
f 81//9 84//9 88//9 85//9
f 82//6 81//6 85//6 86//6
f 106//2 105//2 108//2 107//2
f 108//6 112//6 111//6 107//6
f 107//8 111//8 110//8 106//8
f 105//9 109//9 112//9 108//9
f 106//10 110//10 109//10 105//10
f 130//2 131//2 132//2 129//2
f 132//10 131//10 135//10 136//10
f 131//8 130//8 134//8 135//8
f 129//9 132//9 136//9 133//9
f 130//6 129//6 133//6 134//6
f 162//2 163//2 164//2 161//2
f 164//10 163//10 167//10 168//10
f 163//8 162//8 166//8 167//8
f 161//9 164//9 168//9 165//9
f 162//6 161//6 165//6 166//6
f 186//2 185//2 188//2 187//2
f 188//6 192//6 191//6 187//6
f 187//8 191//8 190//8 186//8
f 185//9 189//9 192//9 188//9
f 186//10 190//10 189//10 185//10
f 230//2 231//2 232//2 229//2
f 232//10 231//10 235//10 236//10
f 231//8 230//8 234//8 235//8
f 229//9 232//9 236//9 233//9
f 230//6 229//6 233//6 234//6
f 254//2 253//2 256//2 255//2
f 256//6 260//6 259//6 255//6
f 255//8 259//8 258//8 254//8
f 253//9 257//9 260//9 256//9
f 254//10 258//10 257//10 253//10
f 292//2 293//2 294//2 291//2
f 294//10 293//10 297//10 298//10
f 293//8 292//8 296//8 297//8
f 291//9 294//9 298//9 295//9
f 292//6 291//6 295//6 296//6
f 316//2 315//2 318//2 317//2
f 318//6 322//6 321//6 317//6
f 317//8 321//8 320//8 316//8
f 315//9 319//9 322//9 318//9
f 316//10 320//10 319//10 315//10
usemtl Wood_Light
f 158//2 157//2 4//2 3//2
f 26//2 27//2 28//2 25//2
f 226//2 225//2 56//2 55//2
f 78//2 79//2 80//2 77//2
f 288//2 287//2 104//2 103//2
f 126//2 127//2 128//2 125//2
f 336//9 145//9 147//9 148//9 146//9 337//9
f 137//1 141//1 147//1 145//1
f 324//1 137//1 145//1 336//1
f 144//2 140//2 146//2 148//2
f 141//6 144//6 148//6 147//6
f 140//2 327//2 337//2 146//2
f 158//2 159//2 160//2 157//2
f 182//2 181//2 184//2 183//2
f 226//2 227//2 228//2 225//2
f 250//2 249//2 252//2 251//2
f 288//2 289//2 290//2 287//2
f 312//2 311//2 314//2 313//2
f 336//9 337//9 338//9 340//9 339//9 335//9
f 323//1 335//1 339//1 331//1
f 324//1 336//1 335//1 323//1
f 334//2 340//2 338//2 330//2
f 331//10 339//10 340//10 334//10
f 330//2 338//2 337//2 327//2
