# Blender v2.79 (sub 0) OBJ File: 'Fireplace.blend'
# www.blender.org
mtllib Fireplace.mtl
o Fireplace_Cube.089
v -0.935841 0.401025 -0.492432
v -0.924478 0.247309 -0.492432
v -0.935841 0.401025 0.417670
v -0.924478 0.247309 0.429410
v -1.571167 0.401025 -0.492432
v -1.582530 0.247309 -0.492432
v -1.571167 0.401025 0.417670
v -1.582530 0.247309 0.429410
v -0.946422 0.406840 0.406738
v -0.946422 0.406840 -0.492432
v -1.560586 0.406840 0.406738
v -1.560586 0.406840 -0.492432
v -0.958186 0.439788 0.394583
v -0.958186 0.439788 -0.492432
v -1.548822 0.439788 0.394583
v -1.548822 0.439788 -0.492432
v -0.933711 0.439788 0.419871
v -0.933710 0.439788 -0.492432
v -1.573298 0.439788 0.419871
v -1.573298 0.439788 -0.492432
v -0.946612 0.482427 0.406541
v -0.946612 0.482427 -0.492432
v -1.560396 0.482427 0.406541
v -1.560396 0.482427 -0.492432
v -1.016358 0.515375 0.334481
v -1.016357 0.515375 -0.492432
v -1.490651 0.515375 0.334481
v -1.490651 0.515375 -0.492432
v -1.039201 1.969604 0.300323
v -1.039201 1.969604 -0.492432
v -1.467808 1.969604 0.300323
v -1.467808 1.969604 -0.492432
v -1.010373 1.969604 0.329150
v -1.010373 1.969604 -0.492432
v -1.496636 1.969604 0.329150
v -1.496635 1.969604 -0.492432
v -1.010373 2.037122 0.329150
v -1.010373 2.037122 -0.492432
v -1.496636 2.037122 0.329150
v -1.496635 2.037122 -0.492432
v -1.600399 2.389392 -0.492432
v -1.600399 2.389392 0.432914
v -0.906609 2.389392 -0.492432
v -0.906610 2.389392 0.432914
v -0.947322 2.107106 0.392202
v -0.947322 2.107106 -0.492432
v -1.559687 2.107106 0.392202
v -1.559687 2.107106 -0.492432
v -0.947322 2.350597 0.392202
v -0.947322 2.350597 -0.492432
v -1.559687 2.350597 0.392202
v -1.559687 2.350597 -0.492432
v -1.621041 2.496079 -0.492432
v -1.621041 2.496079 0.453556
v -0.885967 2.496079 0.453556
v -0.885967 2.496079 -0.492432
v -1.598277 2.442735 0.430792
v -0.908732 2.442735 0.430792
v -1.598277 2.442735 -0.492432
v -0.908732 2.442735 -0.492432
v -1.133369 0.515375 0.246837
v -1.133369 0.515375 -0.492432
v -1.133369 2.477507 -0.492432
v -1.133369 2.477507 0.246837
v -1.133369 0.615869 0.308153
v -1.133369 0.615869 -0.492432
v -1.133369 0.249362 0.308153
v -1.133369 0.249362 -0.492432
v -0.897553 1.879492 0.246837
v -0.897553 0.722368 0.246837
v -0.897552 1.879492 -0.356429
v -0.897552 0.722368 -0.356429
v -1.622962 2.399267 -0.492432
v -1.622962 2.399267 0.582802
v -1.622962 2.461126 0.582802
v -1.622962 2.461126 -0.492432
v -1.622962 2.561197 0.582802
v -1.622962 2.561196 -0.492432
v -1.622962 2.461126 0.665414
v -1.622962 2.561197 0.665414
v -1.624901 0.298018 0.492432
v -1.624901 0.298018 -0.492432
v -1.624901 -0.000000 0.492432
v -1.624901 0.000000 -0.492432
v 0.935846 0.401025 -0.492432
v 0.924483 0.247309 -0.492432
v 0.935846 0.401025 0.417670
v 0.924483 0.247309 0.429410
v 1.571172 0.401025 -0.492432
v 1.582535 0.247309 -0.492432
v 1.571172 0.401025 0.417670
v 1.582535 0.247309 0.429410
v 0.946427 0.406840 0.406738
v 0.946427 0.406840 -0.492432
v 1.560591 0.406840 0.406738
v 1.560591 0.406840 -0.492432
v 0.958191 0.439788 0.394583
v 0.958191 0.439788 -0.492432
v 1.548827 0.439788 0.394583
v 1.548827 0.439788 -0.492432
v 0.933715 0.439788 0.419871
v 0.933715 0.439788 -0.492432
v 1.573303 0.439788 0.419871
v 1.573302 0.439788 -0.492432
v 0.946617 0.482427 0.406541
v 0.946617 0.482427 -0.492432
v 1.560401 0.482427 0.406541
v 1.560400 0.482427 -0.492432
v 1.016362 0.515375 0.334481
v 1.016362 0.515375 -0.492432
v 1.490656 0.515375 0.334481
v 1.490655 0.515375 -0.492432
v 1.039205 1.969604 0.300323
v 1.039205 1.969604 -0.492432
v 1.467813 1.969604 0.300323
v 1.467812 1.969604 -0.492432
v 1.010378 1.969604 0.329150
v 1.010377 1.969604 -0.492432
v 1.496640 1.969604 0.329150
v 1.496640 1.969604 -0.492432
v 1.010378 2.037122 0.329150
v 1.010377 2.037122 -0.492432
v 1.496640 2.037122 0.329150
v 1.496640 2.037122 -0.492432
v 1.600403 2.389392 -0.492432
v 1.600404 2.389392 0.432914
v 0.906614 2.389392 -0.492432
v 0.906614 2.389392 0.432914
v 0.947326 2.107106 0.392202
v 0.947326 2.107106 -0.492432
v 1.559691 2.107106 0.392202
v 1.559691 2.107106 -0.492432
v 0.947326 2.350597 0.392202
v 0.947326 2.350597 -0.492432
v 1.559691 2.350597 0.392202
v 1.559691 2.350597 -0.492432
v 1.621046 2.496079 -0.492432
v 1.621046 2.496079 0.453556
v 0.885972 2.496079 0.453556
v 0.885972 2.496079 -0.492432
v 1.598282 2.442735 0.430792
v 0.908736 2.442735 0.430792
v 1.598281 2.442735 -0.492432
v 0.908736 2.442735 -0.492432
v 1.133374 0.515375 0.246837
v 1.133374 0.515375 -0.492432
v 1.133374 2.477507 -0.492432
v 1.133374 2.477507 0.246837
v 0.000002 0.515375 0.246837
v 0.000002 0.515375 -0.492432
v 0.000002 2.477507 0.246837
v 0.000002 2.477507 -0.492432
v 1.133374 0.615869 0.308153
v 1.133374 0.615869 -0.492432
v 0.000002 0.615869 0.308153
v 0.000002 0.615869 -0.492432
v 1.133374 0.249362 0.308153
v 1.133374 0.249362 -0.492432
v 0.000002 0.249362 0.308153
v 0.000002 0.249362 -0.492432
v 0.897557 1.879492 0.246837
v 0.897557 0.722368 0.246837
v 0.000002 1.879492 0.246837
v 0.000002 0.722368 0.246837
v 0.897557 1.879492 -0.356429
v 0.897557 0.722368 -0.356429
v 0.000002 1.879492 -0.356429
v 0.000002 0.722368 -0.356429
v 1.622966 2.399267 -0.492432
v 1.622967 2.399267 0.582802
v 0.000002 2.399267 0.582802
v 0.000002 2.399267 -0.492432
v 1.622967 2.461126 0.582802
v 1.622966 2.461126 -0.492432
v 0.000002 2.461126 0.582802
v 0.000002 2.461126 -0.492432
v 1.622967 2.561197 0.582802
v 1.622966 2.561196 -0.492432
v 0.000002 2.561197 0.582802
v 0.000002 2.561196 -0.492432
v 0.000002 2.461126 0.665414
v 1.622967 2.461126 0.665414
v 0.000002 2.561197 0.665414
v 1.622967 2.561197 0.665414
v 1.624906 0.298018 0.492432
v 1.624906 0.298018 -0.492432
v 0.000002 0.298018 0.492432
v 0.000002 0.298018 -0.492432
v 1.624906 -0.000000 0.492432
v 1.624906 0.000000 -0.492432
v 0.000002 -0.000000 0.492432
v 0.000002 0.000000 -0.492432
vn 0.9973 0.0737 0.0000
vn 0.0000 0.0762 0.9971
vn -0.9973 0.0737 -0.0000
vn 0.0000 0.0000 -1.0000
vn 0.0000 -1.0000 -0.0000
vn -0.9418 0.3363 -0.0000
vn 0.0000 0.8829 0.4696
vn 0.4816 0.8764 0.0000
vn -0.4816 0.8764 -0.0000
vn 0.0000 0.0000 1.0000
vn 0.9418 0.3363 0.0000
vn 0.0000 0.3461 0.9382
vn -0.9571 0.2896 -0.0000
vn -0.4271 0.9042 0.0000
vn 0.9571 0.2896 0.0000
vn 0.0000 0.2984 0.9544
vn 0.4271 0.9042 0.0000
vn 0.0000 0.9094 0.4158
vn 0.0000 0.0235 0.9997
vn -0.9999 0.0157 -0.0000
vn 1.0000 0.0000 0.0000
vn 0.0000 -0.2016 0.9795
vn 0.0000 -0.3925 0.9197
vn -1.0000 0.0000 -0.0000
vn -0.7429 -0.6694 -0.0000
vn 0.6899 -0.7239 0.0000
vn 0.0000 -0.6694 0.7429
vn 0.0000 1.0000 -0.0000
vn -0.6899 -0.7239 -0.0000
vn 0.0000 -0.7239 0.6899
vn 0.7429 -0.6693 0.0000
vn -0.9795 -0.2016 -0.0000
vn -0.9197 -0.3925 -0.0000
vn -0.9835 -0.1808 -0.0000
vn 0.9835 -0.1808 0.0000
vn 0.9197 -0.3925 0.0000
vn 0.9795 -0.2016 0.0000
vn 0.9992 0.0398 0.0000
vn -0.9992 0.0397 -0.0000
vn 0.0000 0.0398 0.9992
vn 0.9999 0.0157 0.0000
vn 0.7429 -0.6694 -0.0000
vn -0.7429 -0.6693 0.0000
vn -0.9992 0.0398 0.0000
vn 0.9992 0.0397 -0.0000
usemtl Marble
s 1
f 1//1 3//1 4//1 2//1
f 3//2 7//2 8//2 4//2
f 7//3 5//3 6//3 8//3
f 5//4 1//4 2//4 6//4
f 5//4 12//4 10//4 1//4
f 8//5 6//5 2//5 4//5
f 11//6 15//6 16//6 12//6
f 3//7 9//7 11//7 7//7
f 1//8 10//8 9//8 3//8
f 7//9 11//9 12//9 5//9
f 16//10 20//10 18//10 14//10
f 10//11 14//11 13//11 9//11
f 12//4 16//4 14//4 10//4
f 9//12 13//12 15//12 11//12
f 19//13 23//13 24//13 20//13
f 13//5 17//5 19//5 15//5
f 15//5 19//5 20//5 16//5
f 14//5 18//5 17//5 13//5
f 23//14 27//14 28//14 24//14
f 18//15 22//15 21//15 17//15
f 20//4 24//4 22//4 18//4
f 17//16 21//16 23//16 19//16
f 22//17 26//17 25//17 21//17
f 24//4 28//4 26//4 22//4
f 21//18 25//18 27//18 23//18
f 31//5 35//5 36//5 32//5
f 32//4 30//4 26//4 28//4
f 29//19 31//19 27//19 25//19
f 28//20 27//20 31//20 32//20
f 34//21 38//21 37//21 33//21
f 30//5 34//5 33//5 29//5
f 32//4 36//4 34//4 30//4
f 29//5 33//5 35//5 31//5
f 58//22 55//23 54//23 57//22
f 36//4 40//4 38//4 34//4
f 33//10 37//10 39//10 35//10
f 35//24 39//24 40//24 36//24
f 38//4 40//4 48//4 46//4
f 39//25 47//25 48//25 40//25
f 50//26 43//26 44//26 49//26
f 39//27 37//27 45//27 47//27
f 48//4 52//4 50//4 46//4
f 55//28 56//28 53//28 54//28
f 51//29 42//29 41//29 52//29
f 52//4 41//4 43//4 50//4
f 49//30 44//30 42//30 51//30
f 45//10 49//10 51//10 47//10
f 47//24 51//24 52//24 48//24
f 46//21 50//21 49//21 45//21
f 37//31 38//31 46//31 45//31
f 57//32 54//33 53//33 59//34
f 59//4 53//4 56//4 60//4
f 60//35 56//36 55//36 58//37
f 43//38 60//35 58//37 44//38
f 41//4 59//4 60//4 43//4
f 42//39 57//32 59//34 41//39
f 44//40 58//22 57//22 42//40
f 25//41 26//41 30//41 29//41
f 62//24 61//24 64//24 63//24
f 66//28 65//28 155//28 156//28
f 64//28 151//28 152//28 63//28
f 61//10 70//10 69//10 64//10
f 63//4 152//4 150//4 62//4
f 62//5 150//5 149//5 61//5
f 68//5 160//5 159//5 67//5
f 65//10 67//10 159//10 155//10
f 66//24 68//24 67//24 65//24
f 156//4 160//4 68//4 66//4
f 69//5 71//5 167//5 163//5
f 149//10 164//10 70//10 61//10
f 64//10 69//10 163//10 151//10
f 72//10 168//10 167//10 71//10
f 70//21 72//21 71//21 69//21
f 164//28 168//28 72//28 70//28
f 74//5 73//5 172//5 171//5
f 175//5 181//5 79//5 75//5
f 74//24 75//24 76//24 73//24
f 171//10 175//10 75//10 74//10
f 73//4 76//4 176//4 172//4
f 77//28 179//28 180//28 78//28
f 76//4 78//4 180//4 176//4
f 75//24 77//24 78//24 76//24
f 181//10 183//10 80//10 79//10
f 75//24 79//24 80//24 77//24
f 77//28 80//28 183//28 179//28
f 82//28 81//28 187//28 188//28
f 84//5 192//5 191//5 83//5
f 82//24 84//24 83//24 81//24
f 188//4 192//4 84//4 82//4
f 81//10 83//10 191//10 187//10
f 85//3 86//3 88//3 87//3
f 87//2 88//2 92//2 91//2
f 91//1 92//1 90//1 89//1
f 89//4 90//4 86//4 85//4
f 89//4 85//4 94//4 96//4
f 92//5 88//5 86//5 90//5
f 95//11 96//11 100//11 99//11
f 87//7 91//7 95//7 93//7
f 85//9 87//9 93//9 94//9
f 91//8 89//8 96//8 95//8
f 100//10 98//10 102//10 104//10
f 94//6 93//6 97//6 98//6
f 96//4 94//4 98//4 100//4
f 93//12 95//12 99//12 97//12
f 103//15 104//15 108//15 107//15
f 97//5 99//5 103//5 101//5
f 99//5 100//5 104//5 103//5
f 98//5 97//5 101//5 102//5
f 107//17 108//17 112//17 111//17
f 102//13 101//13 105//13 106//13
f 104//4 102//4 106//4 108//4
f 101//16 103//16 107//16 105//16
f 106//14 105//14 109//14 110//14
f 108//4 106//4 110//4 112//4
f 105//18 107//18 111//18 109//18
f 115//5 116//5 120//5 119//5
f 116//4 112//4 110//4 114//4
f 113//19 109//19 111//19 115//19
f 112//41 116//41 115//41 111//41
f 118//24 117//24 121//24 122//24
f 114//5 113//5 117//5 118//5
f 116//4 114//4 118//4 120//4
f 113//5 115//5 119//5 117//5
f 142//22 141//22 138//23 139//23
f 120//4 118//4 122//4 124//4
f 117//10 119//10 123//10 121//10
f 119//21 120//21 124//21 123//21
f 122//4 130//4 132//4 124//4
f 123//42 124//42 132//42 131//42
f 134//29 133//29 128//29 127//29
f 123//27 131//27 129//27 121//27
f 132//4 130//4 134//4 136//4
f 139//28 138//28 137//28 140//28
f 135//26 136//26 125//26 126//26
f 136//4 134//4 127//4 125//4
f 133//30 135//30 126//30 128//30
f 129//10 131//10 135//10 133//10
f 131//21 132//21 136//21 135//21
f 130//24 129//24 133//24 134//24
f 121//43 129//43 130//43 122//43
f 141//37 143//35 137//36 138//36
f 143//4 144//4 140//4 137//4
f 144//34 142//32 139//33 140//33
f 127//44 128//44 142//32 144//34
f 125//4 127//4 144//4 143//4
f 126//45 125//45 143//35 141//37
f 128//40 126//40 141//22 142//22
f 109//20 113//20 114//20 110//20
f 146//21 147//21 148//21 145//21
f 154//28 156//28 155//28 153//28
f 148//28 147//28 152//28 151//28
f 145//10 148//10 161//10 162//10
f 147//4 146//4 150//4 152//4
f 146//5 145//5 149//5 150//5
f 158//5 157//5 159//5 160//5
f 153//10 155//10 159//10 157//10
f 154//21 153//21 157//21 158//21
f 156//4 154//4 158//4 160//4
f 161//5 163//5 167//5 165//5
f 149//10 145//10 162//10 164//10
f 148//10 151//10 163//10 161//10
f 166//10 165//10 167//10 168//10
f 162//24 161//24 165//24 166//24
f 164//28 162//28 166//28 168//28
f 170//5 171//5 172//5 169//5
f 175//5 173//5 182//5 181//5
f 170//21 169//21 174//21 173//21
f 171//10 170//10 173//10 175//10
f 169//4 172//4 176//4 174//4
f 177//28 178//28 180//28 179//28
f 174//4 176//4 180//4 178//4
f 173//21 174//21 178//21 177//21
f 181//10 182//10 184//10 183//10
f 173//21 177//21 184//21 182//21
f 177//28 179//28 183//28 184//28
f 186//28 188//28 187//28 185//28
f 190//5 189//5 191//5 192//5
f 186//21 185//21 189//21 190//21
f 188//4 186//4 190//4 192//4
f 185//10 187//10 191//10 189//10
