# Blender v2.79 (sub 0) OBJ File: 'Kitchen_Sink.blend'
# www.blender.org
mtllib Kitchen_Sink.mtl
o Kitchen_Sink_Cube.067
v -0.505406 0.000000 0.505406
v -0.505406 0.000000 -0.505406
v 0.505406 0.000000 0.505406
v 0.505406 0.000000 -0.505406
v -0.505406 1.564269 0.505406
v -0.505406 1.564269 -0.505406
v 0.505406 1.564269 -0.505406
v 0.505406 1.564269 0.505406
v 0.480136 0.028578 0.505406
v -0.480135 0.028578 0.505406
v 0.480136 1.538544 0.505406
v -0.480135 1.538544 0.505406
v 0.447859 0.065081 0.525899
v -0.447858 0.065081 0.525899
v 0.447859 1.502041 0.525899
v -0.447858 1.502041 0.525899
v -0.113954 1.395412 0.512596
v -0.113954 1.431563 0.512596
v -0.099014 1.431563 0.512596
v -0.099014 1.395412 0.512596
v -0.113954 1.395412 0.556154
v -0.113954 1.431563 0.556154
v -0.099014 1.431563 0.556154
v -0.099014 1.395412 0.556154
v -0.107920 1.395412 0.566059
v -0.107920 1.431563 0.566059
v -0.099014 1.431563 0.566059
v -0.099014 1.395412 0.566059
v 0.113955 1.395412 0.512596
v 0.113955 1.431563 0.512596
v 0.099014 1.431563 0.512596
v 0.099014 1.395412 0.512596
v 0.113955 1.395412 0.556154
v 0.113955 1.431563 0.556154
v 0.099014 1.431563 0.556154
v 0.099014 1.395412 0.556154
v 0.107920 1.395412 0.566059
v 0.107920 1.431563 0.566059
v 0.099014 1.431563 0.566059
v 0.099014 1.395412 0.566059
v -0.351531 1.564269 0.303961
v -0.351531 1.564269 -0.303961
v 0.351532 1.564269 -0.303961
v 0.351532 1.564269 0.303961
v -0.318212 1.163413 0.275151
v -0.318212 1.163413 -0.275151
v 0.318213 1.163413 -0.275151
v 0.318213 1.163413 0.275151
v -0.505406 1.613631 0.505406
v -0.505406 1.613631 -0.505406
v 0.505406 1.613631 -0.505406
v 0.505406 1.613631 0.505406
v -0.351531 1.613631 0.303961
v -0.351531 1.613631 -0.303961
v 0.351532 1.613631 -0.303961
v 0.351532 1.613631 0.303961
v 0.505406 1.564269 0.615021
v -0.505406 1.564269 0.615021
v 0.505406 1.613631 0.615021
v -0.505406 1.613631 0.615021
v -0.332033 1.215691 0.292096
v -0.357690 1.633841 0.314667
v -0.332033 1.215691 -0.292096
v -0.357690 1.633841 -0.314667
v 0.332034 1.215691 0.292096
v 0.357692 1.633841 0.314667
v 0.332034 1.215691 -0.292096
v 0.357692 1.633841 -0.314667
v -0.331855 1.633841 0.291939
v -0.331855 1.633841 -0.291939
v 0.331856 1.633841 -0.291939
v 0.331856 1.633841 0.291939
v -0.295866 1.234317 0.260279
v -0.295866 1.234317 -0.260279
v 0.295867 1.234317 -0.260279
v 0.295867 1.234317 0.260279
v 0.045671 1.620847 -0.377785
v 0.045671 1.643169 -0.377785
v 0.062621 1.620847 -0.370764
v 0.062621 1.643169 -0.370764
v 0.069642 1.620847 -0.353814
v 0.069642 1.643169 -0.353814
v 0.062621 1.620847 -0.336864
v 0.062621 1.643169 -0.336864
v 0.045671 1.620847 -0.329844
v 0.045671 1.643169 -0.329844
v 0.028721 1.620847 -0.336864
v 0.028721 1.643169 -0.336864
v 0.021700 1.620847 -0.353814
v 0.021700 1.643169 -0.353814
v 0.028721 1.620847 -0.370764
v 0.028721 1.643169 -0.370764
v 0.063908 1.643169 -0.372052
v 0.045671 1.643169 -0.379606
v 0.071463 1.643169 -0.353814
v 0.063908 1.643169 -0.335577
v 0.045671 1.643169 -0.328022
v 0.027433 1.643169 -0.335577
v 0.019879 1.643169 -0.353814
v 0.027433 1.643169 -0.372052
v 0.063908 1.671991 -0.372052
v 0.045671 1.671991 -0.379606
v 0.071463 1.671991 -0.353814
v 0.063908 1.671991 -0.335577
v 0.045671 1.671991 -0.328022
v 0.027433 1.671991 -0.335577
v 0.019879 1.671991 -0.353814
v 0.027433 1.671991 -0.372052
v -0.045670 1.620847 -0.377785
v -0.045670 1.643169 -0.377785
v -0.062619 1.620847 -0.370764
v -0.062619 1.643169 -0.370764
v -0.069640 1.620847 -0.353814
v -0.069640 1.643169 -0.353814
v -0.062619 1.620847 -0.336864
v -0.062619 1.643169 -0.336864
v -0.045670 1.620847 -0.329844
v -0.045670 1.643169 -0.329844
v -0.028720 1.620847 -0.336864
v -0.028720 1.643169 -0.336864
v -0.021699 1.620847 -0.353814
v -0.021699 1.643169 -0.353814
v -0.028720 1.620847 -0.370764
v -0.028720 1.643169 -0.370764
v -0.063907 1.643169 -0.372052
v -0.045670 1.643169 -0.379606
v -0.071462 1.643169 -0.353814
v -0.063907 1.643169 -0.335577
v -0.045670 1.643169 -0.328022
v -0.027432 1.643169 -0.335577
v -0.019878 1.643169 -0.353814
v -0.027432 1.643169 -0.372052
v -0.063907 1.671991 -0.372052
v -0.045670 1.671991 -0.379606
v -0.071462 1.671991 -0.353814
v -0.063907 1.671991 -0.335577
v -0.045670 1.671991 -0.328022
v -0.027432 1.671991 -0.335577
v -0.019878 1.671991 -0.353814
v -0.027432 1.671991 -0.372052
v 0.000001 1.870902 -0.373275
v 0.000001 1.625209 -0.373275
v -0.010124 1.870902 -0.377469
v -0.010124 1.625209 -0.377469
v -0.014318 1.870902 -0.387593
v -0.014318 1.625209 -0.387593
v -0.010124 1.870902 -0.397718
v -0.010124 1.625209 -0.397718
v 0.000001 1.870902 -0.401912
v 0.000001 1.625209 -0.401912
v 0.010125 1.870902 -0.397718
v 0.010125 1.625209 -0.397718
v 0.014319 1.870902 -0.387593
v 0.014319 1.625209 -0.387593
v 0.010125 1.870902 -0.377469
v 0.010125 1.625209 -0.377469
v 0.000001 1.889715 -0.366426
v -0.010124 1.891665 -0.370139
v -0.014318 1.896371 -0.379103
v -0.010124 1.901078 -0.388067
v 0.000001 1.903028 -0.391781
v 0.010125 1.901078 -0.388067
v 0.014319 1.896371 -0.379103
v 0.010125 1.891665 -0.370139
v 0.000001 1.895774 -0.354011
v -0.010124 1.899966 -0.353873
v -0.014318 1.910085 -0.353539
v -0.010124 1.920204 -0.353205
v 0.000001 1.924396 -0.353067
v 0.010125 1.920204 -0.353205
v 0.014319 1.910085 -0.353539
v 0.010125 1.899966 -0.353873
v 0.000001 1.895761 -0.234291
v -0.010124 1.899953 -0.234153
v -0.014318 1.910072 -0.233819
v -0.010124 1.920191 -0.233485
v 0.000001 1.924383 -0.233347
v 0.010125 1.920191 -0.233485
v 0.014319 1.910072 -0.233819
v 0.010125 1.899953 -0.234153
v 0.000001 1.892259 -0.227384
v -0.010124 1.895093 -0.224292
v -0.014318 1.901934 -0.216829
v -0.010124 1.908775 -0.209365
v 0.000001 1.911609 -0.206274
v 0.010125 1.908775 -0.209365
v 0.014319 1.901934 -0.216829
v 0.010125 1.895093 -0.224292
v 0.000001 1.885386 -0.224252
v -0.010124 1.885386 -0.220283
v -0.014318 1.885386 -0.210700
v -0.010124 1.885386 -0.201117
v 0.000001 1.885386 -0.197147
v 0.010125 1.885386 -0.201117
v 0.014319 1.885386 -0.210700
v 0.010125 1.885386 -0.220283
v 0.000001 1.796720 -0.224252
v -0.010124 1.796720 -0.220283
v -0.014318 1.796720 -0.210700
v -0.010124 1.796720 -0.201117
v 0.000001 1.796720 -0.197147
v 0.010125 1.796720 -0.201117
v 0.014319 1.796720 -0.210700
v 0.010125 1.796720 -0.220283
v 0.000001 1.796720 -0.227607
v -0.012631 1.796720 -0.222655
v -0.017863 1.796720 -0.210700
v -0.012631 1.796720 -0.198744
v 0.000001 1.796720 -0.193792
v 0.012632 1.796720 -0.198744
v 0.017864 1.796720 -0.210700
v 0.012632 1.796720 -0.222655
v 0.000001 1.765592 -0.227607
v -0.012631 1.765592 -0.222655
v -0.017863 1.765592 -0.210700
v -0.012631 1.765592 -0.198744
v 0.000001 1.765592 -0.193792
v 0.012632 1.765592 -0.198744
v 0.017864 1.765592 -0.210700
v 0.012632 1.765592 -0.222655
v 0.000001 1.765592 -0.225036
v -0.010709 1.765592 -0.220837
v -0.015146 1.765592 -0.210700
v -0.010709 1.765592 -0.200563
v 0.000001 1.765592 -0.196364
v 0.010711 1.765592 -0.200563
v 0.015147 1.765592 -0.210700
v 0.010711 1.765592 -0.220837
v 0.000001 1.776621 -0.225036
v -0.010709 1.776621 -0.220837
v -0.015146 1.776621 -0.210700
v -0.010709 1.776621 -0.200563
v 0.000001 1.776621 -0.196364
v 0.010711 1.776621 -0.200563
v 0.015147 1.776621 -0.210700
v 0.010711 1.776621 -0.220837
vn 0.0000 0.0000 1.0000
vn 0.0000 0.0000 -1.0000
vn 1.0000 0.0000 0.0000
vn -1.0000 0.0000 0.0000
vn -0.5360 0.0000 0.8442
vn 0.0000 0.4895 0.8720
vn 0.5360 0.0000 0.8442
vn 0.0000 -0.4895 0.8720
vn 0.0000 -1.0000 0.0000
vn -0.9966 0.0828 0.0000
vn 0.0000 1.0000 0.0000
vn 0.9966 0.0828 0.0000
vn 0.0000 0.0717 -0.9974
vn 0.0000 0.0717 0.9974
vn -0.8540 0.0000 0.5203
vn 0.8540 0.0000 0.5203
vn -0.9981 -0.0612 0.0000
vn 0.0000 -0.0539 -0.9985
vn 0.9981 -0.0612 0.0000
vn 0.0000 -0.0539 0.9985
vn -0.9960 0.0897 0.0000
vn 0.9960 0.0897 0.0000
vn 0.0000 0.0790 -0.9969
vn 0.0000 0.0790 0.9969
vn 0.3827 0.0000 -0.9239
vn 0.9239 0.0000 -0.3827
vn 0.9239 0.0000 0.3827
vn 0.3827 0.0000 0.9239
vn -0.3827 0.0000 0.9239
vn -0.9239 0.0000 0.3827
vn 0.0000 -1.0000 -0.0001
vn -0.9239 0.0000 -0.3827
vn -0.3827 0.0000 -0.9239
vn -0.3724 0.2809 -0.8845
vn 0.8982 -0.3890 0.2047
vn 0.9192 -0.1275 0.3725
vn -0.9192 -0.1275 0.3725
vn 0.3724 0.2809 -0.8845
vn 0.3714 -0.3131 0.8741
vn -0.3714 -0.3131 0.8741
vn -0.9194 0.1219 -0.3739
vn 0.9194 0.1219 -0.3739
vn 0.9238 0.3829 0.0000
vn 0.3310 0.8267 -0.4550
vn -0.8983 0.3861 -0.2098
vn -0.3305 -0.8439 0.4225
vn 0.3305 -0.8439 0.4225
vn 0.8983 0.3861 -0.2098
vn -0.3310 0.8267 -0.4550
vn -0.8982 -0.3890 0.2047
vn -0.3566 -0.8361 -0.4170
vn -0.3825 0.9240 0.0001
vn -0.9238 -0.3829 -0.0000
vn 0.9238 -0.3829 -0.0000
vn 0.3825 0.9240 0.0001
vn -0.9238 0.3829 0.0000
vn -0.3825 -0.9239 -0.0001
vn 0.3825 -0.9239 -0.0001
vn 0.9096 -0.1496 -0.3875
vn 0.3566 -0.8361 -0.4170
vn 0.9121 0.3701 0.1761
vn -0.3567 0.8447 0.3991
vn -0.9121 -0.3690 -0.1786
vn 0.9121 -0.3690 -0.1786
vn 0.3567 0.8447 0.3991
vn -0.9121 0.3701 0.1761
vn -0.9161 0.0000 -0.4009
vn 0.3514 0.3095 0.8836
vn -0.9095 0.1408 0.3910
vn -0.3516 -0.3703 -0.8598
vn 0.3516 -0.3703 -0.8598
vn 0.9095 0.1408 0.3910
vn -0.3514 0.3095 0.8836
vn -0.9096 -0.1496 -0.3875
vn 0.9161 0.0000 -0.4009
vn 0.3650 0.0000 0.9310
vn -0.9161 0.0000 0.4009
vn -0.3650 0.0000 -0.9310
vn 0.3650 0.0000 -0.9310
vn 0.9161 0.0000 0.4009
vn -0.3650 0.0000 0.9310
usemtl Kitchen
s off
f 1//1 3//1 9//1 10//1
f 4//2 2//2 6//2 7//2
f 3//3 4//3 7//3 8//3
f 2//4 1//4 5//4 6//4
f 12//5 10//5 14//5 16//5
f 3//1 8//1 11//1 9//1
f 5//1 1//1 10//1 12//1
f 8//1 5//1 12//1 11//1
f 14//1 13//1 15//1 16//1
f 11//6 12//6 16//6 15//6
f 9//7 11//7 15//7 13//7
f 10//8 9//8 13//8 14//8
f 1//9 2//9 4//9 3//9
f 44//10 43//10 47//10 48//10
f 41//3 42//3 54//3 53//3
f 47//11 46//11 45//11 48//11
f 42//12 41//12 45//12 46//12
f 41//13 44//13 48//13 45//13
f 43//14 42//14 46//14 47//14
f 42//1 43//1 55//1 54//1
f 43//4 44//4 56//4 55//4
f 44//2 41//2 53//2 56//2
f 5//9 8//9 57//9 58//9
usemtl White
f 28//1 27//1 26//1 25//1
f 21//9 24//9 28//9 25//9
f 19//11 18//11 22//11 23//11
f 20//3 19//3 23//3 24//3
f 17//9 20//9 24//9 21//9
f 18//4 17//4 21//4 22//4
f 22//15 21//15 25//15 26//15
f 23//11 22//11 26//11 27//11
f 40//9 28//9 24//9 36//9
f 39//1 27//1 28//1 40//1
f 35//11 23//11 27//11 39//11
f 40//1 37//1 38//1 39//1
f 33//9 37//9 40//9 36//9
f 31//11 35//11 34//11 30//11
f 32//4 36//4 35//4 31//4
f 29//9 33//9 36//9 32//9
f 30//3 34//3 33//3 29//3
f 34//16 38//16 37//16 33//16
f 35//11 39//11 38//11 34//11
f 36//2 24//2 23//2 35//2
f 61//17 62//17 64//17 63//17
f 63//18 64//18 68//18 67//18
f 67//19 68//19 66//19 65//19
f 65//20 66//20 62//20 61//20
f 63//9 67//9 65//9 61//9
f 68//11 64//11 70//11 71//11
f 72//21 71//21 75//21 76//21
f 66//11 68//11 71//11 72//11
f 64//11 62//11 69//11 70//11
f 62//11 66//11 72//11 69//11
f 75//11 74//11 73//11 76//11
f 70//22 69//22 73//22 74//22
f 69//23 72//23 76//23 73//23
f 71//24 70//24 74//24 75//24
usemtl LightMetal
f 77//25 78//25 80//25 79//25
f 79//26 80//26 82//26 81//26
f 81//27 82//27 84//27 83//27
f 83//28 84//28 86//28 85//28
f 85//29 86//29 88//29 87//29
f 87//30 88//30 90//30 89//30
f 78//31 92//31 100//31 94//31
f 89//32 90//32 92//32 91//32
f 91//33 92//33 78//33 77//33
f 77//9 79//9 81//9 83//9 85//9 87//9 89//9 91//9
f 100//32 99//32 107//32 108//32
f 80//9 78//9 94//9 93//9
f 84//9 82//9 95//9 96//9
f 90//9 88//9 98//9 99//9
f 86//9 84//9 96//9 97//9
f 92//9 90//9 99//9 100//9
f 82//9 80//9 93//9 95//9
f 88//9 86//9 97//9 98//9
f 101//11 102//11 108//11 107//11 106//11 105//11 104//11 103//11
f 98//29 97//29 105//29 106//29
f 96//27 95//27 103//27 104//27
f 93//25 94//25 102//25 101//25
f 94//33 100//33 108//33 102//33
f 99//30 98//30 106//30 107//30
f 97//28 96//28 104//28 105//28
f 95//26 93//26 101//26 103//26
f 109//33 111//33 112//33 110//33
f 111//32 113//32 114//32 112//32
f 113//30 115//30 116//30 114//30
f 115//29 117//29 118//29 116//29
f 117//28 119//28 120//28 118//28
f 119//27 121//27 122//27 120//27
f 110//9 126//9 132//9 124//9
f 121//26 123//26 124//26 122//26
f 123//25 109//25 110//25 124//25
f 109//9 123//9 121//9 119//9 117//9 115//9 113//9 111//9
f 132//26 140//26 139//26 131//26
f 112//9 125//9 126//9 110//9
f 116//9 128//9 127//9 114//9
f 122//9 131//9 130//9 120//9
f 118//9 129//9 128//9 116//9
f 124//9 132//9 131//9 122//9
f 114//9 127//9 125//9 112//9
f 120//9 130//9 129//9 118//9
f 133//11 135//11 136//11 137//11 138//11 139//11 140//11 134//11
f 130//28 138//28 137//28 129//28
f 128//30 136//30 135//30 127//30
f 125//33 133//33 134//33 126//33
f 126//25 134//25 140//25 132//25
f 131//27 139//27 138//27 130//27
f 129//29 137//29 136//29 128//29
f 127//32 135//32 133//32 125//32
f 141//29 143//29 144//29 142//29
f 143//30 145//30 146//30 144//30
f 145//32 147//32 148//32 146//32
f 147//33 149//33 150//33 148//33
f 149//25 151//25 152//25 150//25
f 151//26 153//26 154//26 152//26
f 144//9 146//9 148//9 150//9 152//9 154//9 156//9 142//9
f 153//27 155//27 156//27 154//27
f 155//28 141//28 142//28 156//28
f 147//34 160//34 161//34 149//34
f 163//35 171//35 172//35 164//35
f 153//36 163//36 164//36 155//36
f 143//37 158//37 159//37 145//37
f 149//38 161//38 162//38 151//38
f 155//39 164//39 157//39 141//39
f 141//40 157//40 158//40 143//40
f 145//41 159//41 160//41 147//41
f 151//42 162//42 163//42 153//42
f 170//43 178//43 179//43 171//43
f 161//44 169//44 170//44 162//44
f 159//45 167//45 168//45 160//45
f 157//46 165//46 166//46 158//46
f 164//47 172//47 165//47 157//47
f 162//48 170//48 171//48 163//48
f 160//49 168//49 169//49 161//49
f 158//50 166//50 167//50 159//50
f 173//51 181//51 182//51 174//51
f 168//52 176//52 177//52 169//52
f 166//53 174//53 175//53 167//53
f 171//54 179//54 180//54 172//54
f 169//55 177//55 178//55 170//55
f 167//56 175//56 176//56 168//56
f 165//57 173//57 174//57 166//57
f 172//58 180//58 173//58 165//58
f 187//59 195//59 196//59 188//59
f 180//60 188//60 181//60 173//60
f 178//61 186//61 187//61 179//61
f 176//62 184//62 185//62 177//62
f 174//63 182//63 183//63 175//63
f 179//64 187//64 188//64 180//64
f 177//65 185//65 186//65 178//65
f 175//66 183//66 184//66 176//66
f 190//67 198//67 199//67 191//67
f 185//68 193//68 194//68 186//68
f 183//69 191//69 192//69 184//69
f 181//70 189//70 190//70 182//70
f 188//71 196//71 189//71 181//71
f 186//72 194//72 195//72 187//72
f 184//73 192//73 193//73 185//73
f 182//74 190//74 191//74 183//74
f 204//11 212//11 205//11 197//11
f 195//75 203//75 204//75 196//75
f 193//76 201//76 202//76 194//76
f 191//77 199//77 200//77 192//77
f 189//78 197//78 198//78 190//78
f 196//79 204//79 197//79 189//79
f 194//80 202//80 203//80 195//80
f 192//81 200//81 201//81 193//81
f 207//77 215//77 216//77 208//77
f 202//11 210//11 211//11 203//11
f 200//11 208//11 209//11 201//11
f 198//11 206//11 207//11 199//11
f 203//11 211//11 212//11 204//11
f 201//11 209//11 210//11 202//11
f 199//11 207//11 208//11 200//11
f 197//11 205//11 206//11 198//11
f 219//9 227//9 228//9 220//9
f 205//78 213//78 214//78 206//78
f 212//79 220//79 213//79 205//79
f 210//80 218//80 219//80 211//80
f 208//81 216//81 217//81 209//81
f 206//67 214//67 215//67 207//67
f 211//75 219//75 220//75 212//75
f 209//76 217//76 218//76 210//76
f 224//79 232//79 233//79 225//79
f 217//9 225//9 226//9 218//9
f 215//9 223//9 224//9 216//9
f 213//9 221//9 222//9 214//9
f 220//9 228//9 221//9 213//9
f 218//9 226//9 227//9 219//9
f 216//9 224//9 225//9 217//9
f 214//9 222//9 223//9 215//9
f 229//9 236//9 235//9 234//9 233//9 232//9 231//9 230//9
f 222//80 230//80 231//80 223//80
f 227//77 235//77 236//77 228//77
f 225//78 233//78 234//78 226//78
f 223//75 231//75 232//75 224//75
f 221//76 229//76 230//76 222//76
f 228//81 236//81 229//81 221//81
f 226//67 234//67 235//67 227//67
usemtl KitchenTop
f 8//3 7//3 51//3 52//3
f 7//2 6//2 50//2 51//2
f 51//11 50//11 54//11 55//11
f 52//11 51//11 55//11 56//11
f 50//11 49//11 53//11 54//11
f 49//11 52//11 56//11 53//11
f 6//4 5//4 49//4 50//4
f 58//1 57//1 59//1 60//1
f 8//3 52//3 59//3 57//3
f 52//11 49//11 60//11 59//11
f 49//4 5//4 58//4 60//4
