# Blender v2.79 (sub 0) OBJ File: 'Kitchen_Cabinet2.blend'
# www.blender.org
mtllib Kitchen_Cabinet2.mtl
o Kitchen_Cabinet2_Cube.073
v 0.505406 0.006807 0.505406
v 0.505406 0.006807 -0.505406
v -0.505406 0.006807 0.505406
v -0.505406 0.006807 -0.505406
v 0.505406 1.573929 0.505406
v 0.505406 1.573929 -0.505406
v -0.505406 1.573929 -0.505406
v -0.505406 1.573929 0.505406
v -0.480136 0.035385 0.505406
v 0.480136 0.035385 0.505406
v -0.480136 1.545351 0.505406
v 0.480136 1.545351 0.505406
v -0.447859 0.071887 0.525899
v 0.447859 0.071887 0.525899
v -0.447859 1.508848 0.525899
v 0.447859 1.508848 0.525899
v -0.355869 0.581582 0.512596
v -0.392019 0.581582 0.512596
v -0.392019 0.566641 0.512596
v -0.355869 0.566641 0.512596
v -0.355869 0.581582 0.556154
v -0.392019 0.581582 0.556154
v -0.392019 0.566641 0.556154
v -0.355869 0.566641 0.556154
v -0.355869 0.575547 0.566059
v -0.392019 0.575547 0.566059
v -0.392019 0.566641 0.566059
v -0.355869 0.566641 0.566059
v -0.355869 0.148894 0.512596
v -0.392019 0.148894 0.512596
v -0.392019 0.163834 0.512596
v -0.355869 0.163834 0.512596
v -0.355869 0.148894 0.556154
v -0.392019 0.148894 0.556154
v -0.392019 0.163834 0.556154
v -0.355869 0.163834 0.556154
v -0.355869 0.154928 0.566059
v -0.392019 0.154928 0.566059
v -0.392019 0.163834 0.566059
v -0.355869 0.163834 0.566059
vn 0.0000 0.0000 1.0000
vn 0.0000 1.0000 0.0000
vn 0.0000 0.0000 -1.0000
vn -1.0000 0.0000 0.0000
vn 1.0000 0.0000 0.0000
vn 0.5360 0.0000 0.8442
vn 0.0000 0.4895 0.8720
vn -0.5360 0.0000 0.8442
vn 0.0000 -0.4895 0.8720
vn 0.0000 -1.0000 0.0000
vn 0.0000 0.8540 0.5203
vn 0.0000 -0.8540 0.5203
usemtl Kitchen
s off
f 1//1 10//1 9//1 3//1
f 7//2 8//2 5//2 6//2
f 4//3 7//3 6//3 2//3
f 3//4 8//4 7//4 4//4
f 2//5 6//5 5//5 1//5
f 12//6 16//6 14//6 10//6
f 3//1 9//1 11//1 8//1
f 5//1 12//1 10//1 1//1
f 8//1 11//1 12//1 5//1
f 14//1 16//1 15//1 13//1
f 11//7 15//7 16//7 12//7
f 9//8 13//8 15//8 11//8
f 10//9 14//9 13//9 9//9
f 1//10 3//10 4//10 2//10
usemtl White
f 28//1 25//1 26//1 27//1
f 21//5 25//5 28//5 24//5
f 19//4 23//4 22//4 18//4
f 20//10 24//10 23//10 19//10
f 17//5 21//5 24//5 20//5
f 18//2 22//2 21//2 17//2
f 22//11 26//11 25//11 21//11
f 23//4 27//4 26//4 22//4
f 40//5 36//5 24//5 28//5
f 39//1 40//1 28//1 27//1
f 35//4 39//4 27//4 23//4
f 40//1 39//1 38//1 37//1
f 33//5 36//5 40//5 37//5
f 31//4 30//4 34//4 35//4
f 32//2 31//2 35//2 36//2
f 29//5 32//5 36//5 33//5
f 30//10 29//10 33//10 34//10
f 34//12 33//12 37//12 38//12
f 35//4 34//4 38//4 39//4
f 36//3 35//3 23//3 24//3
