# Blender v2.79 (sub 0) OBJ File: 'Knife.blend'
# www.blender.org
mtllib Knife.mtl
o Knife_Plane.011
v -0.011855 0.000000 0.139581
v 0.012968 0.000000 0.139581
v -0.020441 0.002821 -0.134979
v 0.006321 0.002821 -0.134012
v -0.008665 0.000000 0.154983
v 0.009778 0.000000 0.154983
v 0.000943 0.000000 0.159239
v 0.000556 0.002821 -0.134012
v 0.000556 0.000000 0.139581
v -0.020441 -0.001462 -0.135037
v -0.011855 -0.004282 0.139523
v 0.012968 -0.004282 0.139523
v 0.006321 -0.001462 -0.134070
v 0.009778 -0.004282 0.154926
v -0.008665 -0.004282 0.154926
v 0.000556 -0.004282 0.139523
v 0.000556 -0.001462 -0.134070
v 0.000943 -0.004282 0.159181
v -0.021855 -0.001720 -0.108518
v -0.021855 0.002562 -0.108461
v 0.000556 -0.001720 -0.107873
v 0.006929 -0.001720 -0.107873
v 0.000556 0.002562 -0.107816
v 0.006929 0.002562 -0.107816
v 0.000556 -0.001462 -0.259893
v 0.006321 -0.001462 -0.259893
v -0.010223 -0.001462 -0.248762
v 0.000556 0.002821 -0.259836
v 0.006321 0.002821 -0.259836
v -0.010223 0.002821 -0.248704
v -0.019078 0.002304 -0.081619
v -0.019078 -0.001978 -0.081677
v 0.000556 -0.001978 -0.081677
v 0.007537 -0.001978 -0.081677
v 0.000556 0.002304 -0.081619
v 0.007537 0.002304 -0.081619
v 0.000556 -0.002127 -0.066619
v 0.007887 -0.002127 -0.066619
v -0.006774 -0.002127 -0.066619
v 0.000556 0.002156 -0.066561
v 0.007887 0.002156 -0.066561
v -0.006774 0.002156 -0.066561
v 0.000556 -0.001462 -0.228437
v 0.000556 -0.001462 -0.196982
v 0.000556 -0.001462 -0.165526
v -0.012535 -0.001462 -0.223232
v -0.014526 -0.001462 -0.194156
v -0.017483 -0.001462 -0.163146
v 0.000556 0.002821 -0.165468
v 0.000556 0.002821 -0.196924
v 0.000556 0.002821 -0.228380
v -0.012535 0.002821 -0.223175
v -0.014526 0.002821 -0.194099
v -0.017483 0.002821 -0.163088
v 0.006321 -0.001462 -0.165526
v 0.006321 -0.001462 -0.196982
v 0.006321 -0.001462 -0.228437
v 0.006321 0.002821 -0.228380
v 0.006321 0.002821 -0.196924
v 0.006321 0.002821 -0.165468
vn 0.0000 1.0000 0.0052
vn -0.0000 1.0000 0.0056
vn 0.0000 1.0000 0.0000
vn -0.0001 1.0000 0.0098
vn 0.0000 1.0000 0.0099
vn 0.0000 1.0000 0.0050
vn -0.0001 1.0000 0.0050
vn -0.0003 1.0000 0.0098
vn -0.0002 1.0000 0.0050
vn 0.0000 -1.0000 -0.0052
vn 0.0000 -1.0000 -0.0000
vn 0.0000 -1.0000 -0.0056
vn 0.0001 -1.0000 -0.0098
vn 0.0001 -1.0000 -0.0050
vn 0.0000 -1.0000 -0.0050
vn 0.0000 -1.0000 -0.0099
vn 0.0003 -1.0000 -0.0098
vn 0.0002 -1.0000 -0.0050
vn -0.9959 -0.0012 0.0902
vn -0.9960 -0.0012 0.0891
vn -0.9792 -0.0027 0.2028
vn 0.4339 -0.0121 0.9009
vn -0.0000 1.0000 0.0098
vn 0.0000 -1.0000 -0.0098
vn -0.9969 0.0011 -0.0788
vn -0.9969 0.0011 -0.0791
vn -0.9997 -0.0003 0.0247
vn -0.9997 -0.0003 0.0251
vn 0.9997 0.0003 -0.0232
vn -0.9968 0.0011 -0.0794
vn -0.9969 0.0011 -0.0792
vn -0.9959 0.0012 -0.0902
vn 1.0000 0.0000 0.0000
vn 0.0000 0.9999 0.0102
vn -0.0000 0.9999 0.0101
vn 0.0000 -0.9999 -0.0102
vn 0.0000 -0.9999 -0.0101
vn 0.9997 0.0003 -0.0239
vn -0.9997 0.0003 -0.0246
vn -0.4049 -0.0123 0.9143
vn -0.9236 -0.0052 0.3833
vn -0.9231 -0.0052 0.3845
vn 0.9999 0.0002 -0.0115
vn 0.9999 0.0002 -0.0117
vn 0.9792 -0.0027 0.2028
vn 0.9960 -0.0012 0.0891
vn 0.9959 -0.0012 0.0902
vn -0.7744 -0.0085 0.6327
vn -0.9950 0.0013 -0.0998
vn -0.9967 0.0011 -0.0817
vn -0.9967 0.0011 -0.0815
usemtl LightMetal
s 1
f 9//1 1//2 5//3 7//3
f 23//4 24//5 4//6 8//7
f 2//2 9//1 7//3 6//3
f 20//8 23//4 8//7 3//9
f 16//10 18//11 15//11 11//12
f 21//13 17//14 13//15 22//16
f 12//12 14//11 18//11 16//10
f 19//17 10//18 17//14 21//13
f 1//19 11//20 15//21 5//21
f 7//22 18//22 14//22 6//22
f 35//23 36//5 24//5 23//4
f 31//4 35//23 23//4 20//8
f 33//24 21//13 22//16 34//16
f 32//13 19//17 21//13 33//24
f 3//25 10//26 19//27 20//28
f 36//29 34//29 22//29 24//29
f 57//11 43//11 25//11 26//11
f 43//11 46//11 27//11 25//11
f 46//30 52//31 30//32 27//32
f 51//3 58//3 29//3 28//3
f 52//3 51//3 28//3 30//3
f 58//33 57//33 26//33 29//33
f 40//34 41//34 36//5 35//23
f 42//35 40//34 35//23 31//4
f 37//36 33//24 34//16 38//36
f 39//37 32//13 33//24 37//36
f 41//38 38//38 34//29 36//29
f 42//39 39//39 11//20 1//19
f 5//40 15//40 18//40 7//40
f 20//28 19//27 32//41 31//42
f 9//1 2//2 41//34 40//34
f 1//2 9//1 40//34 42//35
f 24//29 22//29 13//43 4//44
f 16//10 37//36 38//36 12//12
f 11//12 39//37 37//36 16//10
f 6//45 14//45 12//46 2//47
f 31//42 32//41 39//48 42//48
f 2//47 12//46 38//38 41//38
f 4//44 13//43 55//33 60//33
f 60//33 55//33 56//33 59//33
f 59//33 56//33 57//33 58//33
f 3//9 8//7 49//3 54//3
f 54//3 49//3 50//3 53//3
f 53//3 50//3 51//3 52//3
f 8//7 4//6 60//3 49//3
f 49//3 60//3 59//3 50//3
f 50//3 59//3 58//3 51//3
f 10//26 3//25 54//49 48//49
f 48//49 54//49 53//50 47//51
f 47//51 53//50 52//31 46//30
f 17//14 10//18 48//11 45//11
f 45//11 48//11 47//11 44//11
f 44//11 47//11 46//11 43//11
f 13//15 17//14 45//11 55//11
f 55//11 45//11 44//11 56//11
f 56//11 44//11 43//11 57//11
