# Blender v2.79 (sub 0) OBJ File: 'Light_CeilingSingle.blend'
# www.blender.org
mtllib Light_CeilingSingle.mtl
o Light_CeilingSingle_Cylinder.040
v 0.000000 -0.014759 -0.138915
v 0.000000 0.001923 -0.138915
v 0.081652 -0.014759 -0.112385
v 0.081652 0.001923 -0.112385
v 0.132116 -0.014759 -0.042927
v 0.132116 0.001923 -0.042927
v 0.132116 -0.014759 0.042927
v 0.132116 0.001923 0.042927
v 0.081652 -0.014759 0.112385
v 0.081652 0.001923 0.112385
v -0.000000 -0.014759 0.138915
v -0.000000 0.001923 0.138915
v -0.081652 -0.014759 0.112385
v -0.081652 0.001923 0.112385
v -0.132116 -0.014759 0.042927
v -0.132116 0.001923 0.042927
v -0.132116 -0.014759 -0.042927
v -0.132116 0.001923 -0.042927
v -0.081652 -0.014759 -0.112385
v -0.081652 0.001923 -0.112385
v -0.000000 -0.245662 -0.029539
v -0.000000 -0.229609 -0.029539
v 0.020887 -0.245662 -0.020887
v 0.020887 -0.229609 -0.020887
v 0.029539 -0.245662 0.000000
v 0.029539 -0.229609 0.000000
v 0.020887 -0.245662 0.020887
v 0.020887 -0.229609 0.020887
v -0.000000 -0.245662 0.029539
v -0.000000 -0.229609 0.029539
v -0.020887 -0.245662 0.020887
v -0.020887 -0.229609 0.020887
v -0.029539 -0.245662 -0.000000
v -0.029539 -0.229609 -0.000000
v -0.020887 -0.245662 -0.020887
v -0.020887 -0.229609 -0.020887
v 0.000000 -0.245662 -0.075560
v 0.053429 -0.245662 -0.053429
v 0.075560 -0.245662 0.000000
v 0.053429 -0.245662 0.053429
v -0.000000 -0.245662 0.075560
v -0.053429 -0.245662 0.053429
v -0.075559 -0.245662 -0.000000
v -0.053429 -0.245662 -0.053429
v 0.000000 -0.346603 -0.085885
v 0.060730 -0.346603 -0.060730
v 0.085885 -0.346603 0.000000
v 0.060730 -0.346603 0.060730
v -0.000000 -0.346603 0.085885
v -0.060730 -0.346603 0.060730
v -0.085885 -0.346603 -0.000000
v -0.060730 -0.346603 -0.060730
v 0.000000 -0.449199 -0.104073
v 0.073591 -0.449199 -0.073591
v 0.104073 -0.449199 0.000000
v 0.073591 -0.449199 0.073591
v -0.000000 -0.449199 0.104073
v -0.073591 -0.449199 0.073591
v -0.104073 -0.449199 -0.000000
v -0.073591 -0.449199 -0.073591
v -0.005190 -0.014229 0.005190
v -0.007340 -0.014229 -0.000000
v -0.005190 -0.014229 -0.005190
v -0.000000 -0.014229 -0.007340
v -0.005190 -0.236484 -0.005190
v -0.007340 -0.236484 -0.000000
v -0.005190 -0.236484 0.005190
v -0.000000 -0.236484 0.007340
v 0.005190 -0.236484 0.005190
v 0.007340 -0.236484 -0.000000
v 0.005190 -0.236484 -0.005190
v -0.000000 -0.236484 -0.007340
v 0.000000 -0.449199 -0.099221
v 0.070160 -0.449199 -0.070160
v 0.099221 -0.449199 0.000000
v 0.070160 -0.449199 0.070160
v -0.000000 -0.449199 0.099221
v -0.070160 -0.449199 0.070160
v -0.099221 -0.449199 -0.000000
v -0.070160 -0.449199 -0.070160
v 0.000000 -0.404773 -0.078033
v 0.055177 -0.404773 -0.055177
v 0.078033 -0.404773 0.000000
v 0.055177 -0.404773 0.055177
v -0.000000 -0.404773 0.078033
v -0.055177 -0.404773 0.055177
v -0.078033 -0.404773 -0.000000
v -0.055177 -0.404773 -0.055177
v 0.000000 -0.391358 -0.054596
v 0.038605 -0.391358 -0.038605
v 0.054596 -0.391358 0.000000
v 0.038605 -0.391358 0.038605
v -0.000000 -0.391358 0.054596
v -0.038605 -0.391358 0.038605
v -0.054596 -0.391358 -0.000000
v -0.038605 -0.391358 -0.038605
v 0.000000 -0.441665 -0.054596
v 0.038605 -0.441665 -0.038605
v 0.054596 -0.441665 0.000000
v 0.038605 -0.441665 0.038605
v -0.000000 -0.441665 0.054596
v -0.038605 -0.441665 0.038605
v -0.054596 -0.441665 -0.000000
v -0.038605 -0.441665 -0.038605
v -0.000000 -0.462626 -0.047955
v 0.033910 -0.462626 -0.033910
v 0.047955 -0.462626 0.000000
v 0.033910 -0.462626 0.033910
v -0.000000 -0.462626 0.047955
v -0.033910 -0.462626 0.033910
v -0.047955 -0.462626 -0.000000
v -0.033910 -0.462626 -0.033910
v -0.000000 -0.476461 -0.030749
v 0.021743 -0.476461 -0.021743
v 0.030749 -0.476461 0.000000
v 0.021743 -0.476461 0.021743
v -0.000000 -0.476461 0.030749
v -0.021743 -0.476461 0.021743
v -0.030749 -0.476461 -0.000000
v -0.021743 -0.476461 -0.021743
v -0.000000 -0.014229 0.007340
v 0.005190 -0.014229 0.005190
v 0.007340 -0.014229 -0.000000
v 0.005190 -0.014229 -0.005190
vn 0.0000 0.0000 -1.0000
vn 0.5878 0.0000 -0.8090
vn 0.9511 0.0000 -0.3090
vn 0.9511 0.0000 0.3090
vn 0.5878 0.0000 0.8090
vn -0.0000 0.0000 1.0000
vn -0.5878 0.0000 0.8090
vn -0.9511 0.0000 0.3090
vn -0.9511 0.0000 -0.3090
vn 0.0000 1.0000 -0.0000
vn -0.5878 0.0000 -0.8090
vn 0.0000 -1.0000 0.0000
vn 0.6994 -0.1475 0.6994
vn 0.0000 -0.1475 0.9891
vn 0.0000 -0.5340 0.8455
vn 0.5978 -0.5340 0.5978
vn 0.7071 0.0000 -0.7071
vn 0.6994 -0.1475 -0.6994
vn 0.0000 -0.1475 -0.9891
vn -0.7071 0.0000 -0.7071
vn -0.6994 -0.1475 -0.6994
vn -0.7071 0.0000 0.7071
vn -1.0000 0.0000 0.0000
vn -0.9891 -0.1475 0.0000
vn -0.6994 -0.1475 0.6994
vn 0.7071 0.0000 0.7071
vn 1.0000 0.0000 0.0000
vn 0.9891 -0.1475 0.0000
vn -0.5978 -0.5340 -0.5978
vn 0.0000 -0.5340 -0.8455
vn 0.0000 -0.9158 -0.4016
vn -0.2840 -0.9158 -0.2840
vn 0.8455 -0.5340 0.0000
vn 0.5978 -0.5340 -0.5978
vn -0.8455 -0.5340 0.0000
vn -0.5978 -0.5340 0.5978
vn 0.2840 -0.9158 -0.2840
vn 0.4016 -0.9158 0.0000
vn 0.2840 -0.9158 0.2840
vn -0.0000 -0.9158 0.4016
vn -0.2840 -0.9158 0.2840
vn -0.4016 -0.9158 -0.0000
vn -0.9948 0.1018 0.0000
vn -0.7034 0.1018 -0.7034
vn -0.7002 0.1395 -0.7002
vn -0.9902 0.1395 0.0000
vn -0.7002 0.1395 0.7002
vn -0.9846 0.1746 0.0000
vn -0.6962 0.1746 0.6962
vn -0.0000 0.1018 0.9948
vn -0.7034 0.1018 0.7034
vn 0.0000 0.1395 0.9902
vn 0.9948 0.1018 0.0000
vn 0.7034 0.1018 0.7034
vn 0.7002 0.1395 0.7002
vn 0.9902 0.1395 0.0000
vn 0.0000 0.1018 -0.9948
vn 0.7034 0.1018 -0.7034
vn 0.7002 0.1395 -0.7002
vn 0.0000 0.1395 -0.9902
vn 0.0000 0.1746 0.9846
vn 0.6962 0.1746 0.6962
vn 0.9846 0.1746 0.0000
vn 0.6962 0.1746 -0.6962
vn -0.6963 0.1746 -0.6962
vn 0.0000 0.1746 -0.9846
vn 0.9026 -0.4305 0.0000
vn 0.6382 -0.4305 0.6382
vn 0.0000 -0.4305 -0.9026
vn 0.6382 -0.4305 -0.6382
vn -0.9026 -0.4305 0.0000
vn -0.6382 -0.4305 -0.6382
vn -0.0000 -0.4305 0.9026
vn -0.6382 -0.4305 0.6382
usemtl Grey
s 1
f 1//1 2//1 4//2 3//2
f 3//2 4//2 6//3 5//3
f 5//3 6//3 8//4 7//4
f 7//4 8//4 10//5 9//5
f 9//5 10//5 12//6 11//6
f 11//6 12//6 14//7 13//7
f 13//7 14//7 16//8 15//8
f 15//8 16//8 18//9 17//9
f 4//10 2//10 20//10 18//10 16//10 14//10 12//10 10//10 8//10 6//10
f 17//9 18//9 20//11 19//11
f 19//11 20//11 2//1 1//1
f 1//12 3//12 5//12 7//12 9//12 11//12 13//12 15//12 17//12 19//12
usemtl Light
f 89//10 96//10 95//10 94//10 93//10 92//10 91//10 90//10
f 100//13 101//14 109//15 108//16
f 89//1 90//17 98//18 97//19
f 96//20 89//1 97//19 104//21
f 94//22 95//23 103//24 102//25
f 92//26 93//6 101//14 100//13
f 90//17 91//27 99//28 98//18
f 95//23 96//20 104//21 103//24
f 93//6 94//22 102//25 101//14
f 91//27 92//26 100//13 99//28
f 112//29 105//30 113//31 120//32
f 98//18 99//28 107//33 106//34
f 103//24 104//21 112//29 111//35
f 101//14 102//25 110//36 109//15
f 99//28 100//13 108//16 107//33
f 97//19 98//18 106//34 105//30
f 104//21 97//19 105//30 112//29
f 102//25 103//24 111//35 110//36
f 113//31 114//37 115//38 116//39 117//40 118//41 119//42 120//32
f 110//36 111//35 119//42 118//41
f 108//16 109//15 117//40 116//39
f 106//34 107//33 115//38 114//37
f 111//35 112//29 120//32 119//42
f 109//15 110//36 118//41 117//40
f 107//33 108//16 116//39 115//38
f 105//30 106//34 114//37 113//31
usemtl LightMetal
f 21//1 22//1 24//17 23//17
f 23//17 24//17 26//27 25//27
f 25//27 26//27 28//26 27//26
f 27//26 28//26 30//6 29//6
f 29//6 30//6 32//22 31//22
f 31//22 32//22 34//23 33//23
f 24//10 22//10 36//10 34//10 32//10 30//10 28//10 26//10
f 33//23 34//23 36//20 35//20
f 35//20 36//20 22//1 21//1
f 27//10 29//10 41//10 40//10
f 43//43 44//44 52//45 51//46
f 33//10 35//10 44//10 43//10
f 23//10 25//10 39//10 38//10
f 29//10 31//10 42//10 41//10
f 35//10 21//10 37//10 44//10
f 21//10 23//10 38//10 37//10
f 25//10 27//10 40//10 39//10
f 31//10 33//10 43//10 42//10
f 50//47 51//46 59//48 58//49
f 41//50 42//51 50//47 49//52
f 39//53 40//54 48//55 47//56
f 37//57 38//58 46//59 45//60
f 44//44 37//57 45//60 52//45
f 42//51 43//43 51//46 50//47
f 40//54 41//50 49//52 48//55
f 38//58 39//53 47//56 46//59
f 53//12 54//12 74//12 73//12
f 48//55 49//52 57//61 56//62
f 46//59 47//56 55//63 54//64
f 51//46 52//45 60//65 59//48
f 49//52 50//47 58//49 57//61
f 47//56 48//55 56//62 55//63
f 45//60 46//59 54//64 53//66
f 52//45 45//60 53//66 60//65
f 69//26 70//27 123//27 122//26
f 66//23 67//22 61//22 62//23
f 68//6 69//26 122//26 121//6
f 124//10 64//10 63//10 62//10 61//10 121//10 122//10 123//10
f 72//1 65//20 63//20 64//1
f 71//12 70//12 69//12 68//12 67//12 66//12 65//12 72//12
f 71//17 72//1 64//1 124//17
f 67//22 68//6 121//6 61//22
f 79//67 80//68 88//68 87//67
f 60//12 53//12 73//12 80//12
f 58//12 59//12 79//12 78//12
f 56//12 57//12 77//12 76//12
f 54//12 55//12 75//12 74//12
f 59//12 60//12 80//12 79//12
f 57//12 58//12 78//12 77//12
f 55//12 56//12 76//12 75//12
f 81//12 82//12 83//12 84//12 85//12 86//12 87//12 88//12
f 77//69 78//70 86//70 85//69
f 75//71 76//72 84//72 83//71
f 73//73 74//74 82//74 81//73
f 80//68 73//73 81//73 88//68
f 78//70 79//67 87//67 86//70
f 76//72 77//69 85//69 84//72
f 74//74 75//71 83//71 82//74
f 65//20 66//23 62//23 63//20
f 70//27 71//17 124//17 123//27
