# Blender v2.79 (sub 0) OBJ File: 'Light_Floor4.blend'
# www.blender.org
mtllib Light_Floor4.mtl
o Light_Floor4_Cylinder.006
v 0.000002 0.434945 -0.164705
v 0.000002 0.753163 -0.154592
v 0.096814 0.434945 -0.133249
v 0.090869 0.753163 -0.125067
v 0.156646 0.434945 -0.050897
v 0.147028 0.753163 -0.047771
v 0.156646 0.434945 0.050897
v 0.147028 0.753163 0.047771
v 0.096814 0.434945 0.133249
v 0.090869 0.753163 0.125067
v 0.000002 0.434945 0.164705
v 0.000002 0.753163 0.154592
v -0.096809 0.434945 0.133249
v -0.090864 0.753163 0.125067
v -0.156642 0.434945 0.050897
v -0.147023 0.753163 0.047771
v -0.156642 0.434945 -0.050897
v -0.147023 0.753163 -0.047771
v -0.096809 0.434945 -0.133250
v -0.090864 0.753163 -0.125067
v 0.000002 0.434242 -0.149296
v 0.087756 0.434242 -0.120783
v 0.082368 0.754061 -0.113366
v 0.000002 0.754061 -0.140128
v 0.141991 0.434242 -0.046135
v 0.133272 0.754061 -0.043302
v 0.141991 0.434242 0.046135
v 0.133272 0.754061 0.043302
v 0.087756 0.434242 0.120783
v 0.082368 0.754061 0.113366
v 0.000002 0.434242 0.149296
v 0.000002 0.754061 0.140128
v -0.087752 0.434242 0.120783
v -0.082363 0.754061 0.113366
v -0.141986 0.434242 0.046135
v -0.133268 0.754061 0.043302
v -0.141986 0.434242 -0.046135
v -0.133268 0.754061 -0.043302
v -0.087751 0.434242 -0.120783
v -0.082363 0.754061 -0.113366
v 0.000002 -0.000000 -0.175367
v 0.000002 0.023783 -0.175367
v 0.124005 -0.000000 -0.124003
v 0.124005 0.023783 -0.124003
v 0.175369 -0.000000 0.000000
v 0.175369 0.023783 0.000000
v 0.124005 -0.000000 0.124003
v 0.124005 0.023783 0.124003
v 0.000002 -0.000000 0.175367
v 0.000002 0.023783 0.175367
v -0.124001 -0.000000 0.124003
v -0.124001 0.023783 0.124003
v -0.175364 -0.000000 -0.000000
v -0.175364 0.023783 -0.000000
v -0.124001 -0.000000 -0.124003
v -0.124001 0.023783 -0.124003
v 0.106948 0.043278 -0.106946
v 0.000002 0.043278 -0.151245
v 0.151247 0.043278 0.000000
v 0.106948 0.043278 0.106946
v 0.000002 0.043278 0.151245
v -0.106944 0.043278 0.106946
v -0.151242 0.043278 -0.000000
v -0.106944 0.043278 -0.106946
v 0.073941 0.062773 -0.073939
v 0.000002 0.062773 -0.104565
v 0.104567 0.062773 0.000000
v 0.073941 0.062773 0.073939
v 0.000002 0.062773 0.104565
v -0.073936 0.062773 0.073939
v -0.104563 0.062773 -0.000000
v -0.073936 0.062773 -0.073939
v 0.080960 0.074020 -0.080958
v 0.000002 0.074020 -0.114491
v 0.114494 0.074020 0.000000
v 0.080960 0.074020 0.080958
v 0.000002 0.074020 0.114491
v -0.080955 0.074020 0.080958
v -0.114489 0.074020 -0.000000
v -0.080955 0.074020 -0.080958
v 0.069225 0.091266 -0.069223
v 0.000002 0.091266 -0.097896
v 0.097898 0.091266 0.000000
v 0.069225 0.091266 0.069223
v 0.000002 0.091266 0.097896
v -0.069220 0.091266 0.069223
v -0.097893 0.091266 -0.000000
v -0.069220 0.091266 -0.069223
v 0.032518 0.105513 -0.032516
v 0.000002 0.105513 -0.045984
v 0.045987 0.105513 0.000000
v 0.032518 0.105513 0.032516
v 0.000002 0.105513 0.045984
v -0.032513 0.105513 0.032516
v -0.045982 0.105513 -0.000000
v -0.032513 0.105513 -0.032516
v 0.013318 0.122759 -0.013316
v 0.000002 0.122759 -0.018832
v 0.018834 0.122759 0.000000
v 0.013318 0.122759 0.013316
v 0.000002 0.122759 0.018832
v -0.013314 0.122759 0.013316
v -0.018829 0.122759 -0.000000
v -0.013314 0.122759 -0.013316
v 0.013318 0.763150 -0.013316
v 0.000002 0.763150 -0.018832
v 0.018834 0.763150 0.000000
v 0.013318 0.763150 0.013316
v 0.000002 0.763150 0.018832
v -0.013314 0.763150 0.013316
v -0.018829 0.763150 -0.000000
v -0.013314 0.763150 -0.013316
v -0.003499 0.743815 -0.144046
v -0.003499 0.750819 -0.144046
v 0.003504 0.743815 -0.144046
v 0.003504 0.750819 -0.144046
v -0.003499 0.743815 0.144046
v -0.003499 0.750819 0.144046
v 0.003504 0.743815 0.144046
v 0.003504 0.750819 0.144046
v -0.144043 0.743815 0.003502
v -0.144043 0.750819 0.003502
v -0.144043 0.743815 -0.003502
v -0.144043 0.750819 -0.003502
v 0.144048 0.743815 0.003502
v 0.144048 0.750819 0.003502
v 0.144048 0.743815 -0.003502
v 0.144048 0.750819 -0.003502
vn 0.0000 0.0318 -0.9995
vn 0.5875 0.0318 -0.8086
vn 0.9506 0.0318 -0.3089
vn 0.9506 0.0318 0.3089
vn 0.5875 0.0318 0.8086
vn 0.0000 0.0318 0.9995
vn -0.5875 0.0318 0.8086
vn -0.9506 0.0318 0.3089
vn -0.9506 0.0318 -0.3089
vn -0.5875 -0.0287 0.8087
vn -0.9507 -0.0287 0.3089
vn -0.5875 0.0318 -0.8086
vn -0.0000 -0.0287 0.9996
vn -0.9507 -0.0287 -0.3089
vn -0.5875 -0.0287 -0.8087
vn 0.0000 -0.0287 -0.9996
vn 0.5875 -0.0287 -0.8087
vn 0.9507 -0.0287 -0.3089
vn 0.9507 -0.0287 0.3089
vn 0.5875 -0.0287 0.8087
vn -0.0590 0.9981 0.0192
vn -0.0590 0.9981 -0.0192
vn 0.0000 0.9981 -0.0620
vn 0.0364 0.9981 -0.0501
vn -0.0268 -0.9990 0.0369
vn -0.0000 -0.9990 0.0456
vn -0.0000 0.9981 0.0620
vn -0.0364 0.9981 0.0501
vn 0.0268 -0.9990 0.0369
vn 0.0433 -0.9990 0.0141
vn -0.0268 -0.9990 -0.0369
vn -0.0433 -0.9990 -0.0141
vn 0.0590 0.9981 0.0192
vn 0.0364 0.9981 0.0501
vn -0.0364 0.9981 -0.0501
vn 0.0433 -0.9990 -0.0141
vn 0.0268 -0.9990 -0.0369
vn -0.0433 -0.9990 0.0141
vn 0.0590 0.9981 -0.0192
vn 0.0000 -0.9990 -0.0456
vn 0.0000 0.0000 -1.0000
vn 0.7071 0.0000 -0.7071
vn 1.0000 0.0000 0.0000
vn 0.7071 0.0000 0.7071
vn -0.0000 0.0000 1.0000
vn -0.7071 0.0000 0.7071
vn -1.0000 0.0000 0.0000
vn -0.0000 0.7777 0.6286
vn 0.4445 0.7777 0.4445
vn 0.3798 0.8435 0.3798
vn -0.0000 0.8435 0.5371
vn -0.7071 0.0000 -0.7071
vn 0.0000 -1.0000 0.0000
vn 0.5371 0.8435 0.0000
vn 0.3854 0.9228 0.0000
vn 0.2725 0.9228 0.2725
vn -0.4445 0.7777 -0.4445
vn -0.6286 0.7777 0.0000
vn -0.5371 0.8435 0.0000
vn -0.3798 0.8435 -0.3798
vn 0.6286 0.7777 0.0000
vn 0.4445 0.7777 -0.4445
vn 0.3798 0.8435 -0.3798
vn -0.4445 0.7777 0.4445
vn -0.3798 0.8435 0.3798
vn -0.0000 0.7777 -0.6286
vn -0.0000 0.8435 -0.5371
vn -0.5302 -0.6617 -0.5302
vn -0.7498 -0.6617 0.0000
vn 0.0000 0.9228 -0.3854
vn 0.2725 0.9228 -0.2725
vn -0.2725 0.9228 -0.2725
vn -0.2725 0.9228 0.2725
vn -0.3854 0.9228 0.0000
vn -0.0000 0.9228 0.3854
vn -0.0000 0.6934 0.7206
vn 0.5095 0.6934 0.5095
vn 0.3934 0.8310 0.3934
vn -0.0000 0.8310 0.5563
vn -0.5302 -0.6617 0.5302
vn -0.0000 -0.6617 0.7498
vn 0.5302 -0.6617 0.5302
vn 0.7498 -0.6617 0.0000
vn 0.5302 -0.6617 -0.5302
vn 0.0000 -0.6617 -0.7498
vn 0.0000 0.8310 -0.5563
vn -0.3934 0.8310 -0.3934
vn -0.2638 0.9278 -0.2638
vn 0.0000 0.9278 -0.3731
vn 0.7206 0.6934 0.0000
vn 0.5095 0.6934 -0.5095
vn 0.3934 0.8310 -0.3934
vn 0.5563 0.8310 0.0000
vn -0.5095 0.6934 -0.5095
vn -0.7206 0.6934 0.0000
vn -0.5563 0.8310 0.0000
vn -0.5095 0.6934 0.5095
vn -0.3934 0.8310 0.3934
vn 0.0000 0.6934 -0.7206
vn -0.2638 0.9278 0.2638
vn -0.0000 0.9278 0.3731
vn -0.0000 0.8441 0.5361
vn -0.3791 0.8441 0.3791
vn -0.3731 0.9278 -0.0000
vn 0.2638 0.9278 0.2638
vn 0.2638 0.9278 -0.2638
vn 0.3731 0.9278 -0.0000
vn 0.5361 0.8441 0.0000
vn 0.3791 0.8441 0.3791
vn 0.0000 0.8441 -0.5361
vn 0.3791 0.8441 -0.3791
vn -0.3791 0.8441 -0.3791
vn -0.5361 0.8441 -0.0000
vn 0.0000 1.0000 0.0000
usemtl White
s 1
f 1//1 2//1 4//2 3//2
f 3//2 4//2 6//3 5//3
f 5//3 6//3 8//4 7//4
f 7//4 8//4 10//5 9//5
f 9//5 10//5 12//6 11//6
f 11//6 12//6 14//7 13//7
f 13//7 14//7 16//8 15//8
f 15//8 16//8 18//9 17//9
f 22//10 25//11 26//11 23//10
f 17//9 18//9 20//12 19//12
f 19//12 20//12 2//1 1//1
f 21//13 22//10 23//10 24//13
f 25//11 27//14 28//14 26//11
f 27//14 29//15 30//15 28//14
f 29//15 31//16 32//16 30//15
f 31//16 33//17 34//17 32//16
f 33//17 35//18 36//18 34//17
f 35//18 37//19 38//19 36//18
f 37//19 39//20 40//20 38//19
f 39//20 21//13 24//13 40//20
f 16//21 36//21 38//22 18//22
f 2//23 24//23 23//24 4//24
f 13//25 33//25 31//26 11//26
f 12//27 32//27 34//28 14//28
f 9//29 29//29 27//30 7//30
f 19//31 39//31 37//32 17//32
f 8//33 28//33 30//34 10//34
f 18//22 38//22 40//35 20//35
f 5//36 25//36 22//37 3//37
f 15//38 35//38 33//25 13//25
f 4//24 23//24 26//39 6//39
f 14//28 34//28 36//21 16//21
f 11//26 31//26 29//29 9//29
f 1//40 21//40 39//31 19//31
f 10//34 30//34 32//27 12//27
f 20//35 40//35 24//23 2//23
f 7//30 27//30 25//36 5//36
f 17//32 37//32 35//38 15//38
f 3//37 22//37 21//40 1//40
f 6//39 26//39 28//33 8//33
usemtl LightMetal
f 41//41 42//41 44//42 43//42
f 43//42 44//42 46//43 45//43
f 45//43 46//43 48//44 47//44
f 47//44 48//44 50//45 49//45
f 49//45 50//45 52//46 51//46
f 51//46 52//46 54//47 53//47
f 50//48 48//49 60//50 61//51
f 53//47 54//47 56//52 55//52
f 55//52 56//52 42//41 41//41
f 41//53 43//53 45//53 47//53 49//53 51//53 53//53 55//53
f 60//50 59//54 67//55 68//56
f 56//57 54//58 63//59 64//60
f 46//61 44//62 57//63 59//54
f 52//64 50//48 61//51 62//65
f 42//66 56//57 64//60 58//67
f 44//62 42//66 58//67 57//63
f 48//49 46//61 59//54 60//50
f 54//58 52//64 62//65 63//59
f 72//68 71//69 79//69 80//68
f 57//63 58//67 66//70 65//71
f 58//67 64//60 72//72 66//70
f 63//59 62//65 70//73 71//74
f 61//51 60//50 68//56 69//75
f 59//54 57//63 65//71 67//55
f 64//60 63//59 71//74 72//72
f 62//65 61//51 69//75 70//73
f 77//76 76//77 84//78 85//79
f 70//80 69//81 77//81 78//80
f 68//82 67//83 75//83 76//82
f 65//84 66//85 74//85 73//84
f 66//85 72//68 80//68 74//85
f 71//69 70//80 78//80 79//69
f 69//81 68//82 76//82 77//81
f 67//83 65//84 73//84 75//83
f 82//86 88//87 96//88 90//89
f 75//90 73//91 81//92 83//93
f 80//94 79//95 87//96 88//87
f 78//97 77//76 85//79 86//98
f 76//77 75//90 83//93 84//78
f 73//91 74//99 82//86 81//92
f 74//99 80//94 88//87 82//86
f 79//95 78//97 86//98 87//96
f 94//100 93//101 101//102 102//103
f 87//96 86//98 94//100 95//104
f 85//79 84//78 92//105 93//101
f 83//93 81//92 89//106 91//107
f 88//87 87//96 95//104 96//88
f 86//98 85//79 93//101 94//100
f 84//78 83//93 91//107 92//105
f 81//92 82//86 90//89 89//106
f 104//52 103//47 111//47 112//52
f 92//105 91//107 99//108 100//109
f 89//106 90//89 98//110 97//111
f 90//89 96//88 104//112 98//110
f 95//104 94//100 102//103 103//113
f 93//101 92//105 100//109 101//102
f 91//107 89//106 97//111 99//108
f 96//88 95//104 103//113 104//112
f 105//114 106//114 112//114 111//114 110//114 109//114 108//114 107//114
f 102//46 101//45 109//45 110//46
f 100//44 99//43 107//43 108//44
f 97//42 98//41 106//41 105//42
f 98//41 104//52 112//52 106//41
f 103//47 102//46 110//46 111//47
f 101//45 100//44 108//44 109//45
f 99//43 97//42 105//42 107//43
f 113//41 114//41 116//41 115//41
f 115//43 116//43 120//43 119//43
f 119//45 120//45 118//45 117//45
f 117//47 118//47 114//47 113//47
f 115//53 119//53 117//53 113//53
f 120//114 116//114 114//114 118//114
f 121//47 122//47 124//47 123//47
f 123//41 124//41 128//41 127//41
f 127//43 128//43 126//43 125//43
f 125//45 126//45 122//45 121//45
f 123//53 127//53 125//53 121//53
f 128//114 124//114 122//114 126//114
