# Blender v2.79 (sub 0) OBJ File: 'Light_Stand1.blend'
# www.blender.org
mtllib Light_Stand1.mtl
o Light_Stand1_Cylinder.018
v 0.000003 0.000000 -0.338850
v 0.000003 0.045954 -0.338850
v 0.239605 0.000000 -0.239603
v 0.239605 0.045954 -0.239603
v 0.338851 0.000000 -0.000001
v 0.338851 0.045954 -0.000001
v 0.239605 0.000000 0.239601
v 0.239605 0.045954 0.239601
v 0.000003 0.000000 0.338847
v 0.000003 0.045954 0.338847
v -0.239599 0.000000 0.239601
v -0.239599 0.045954 0.239601
v -0.338846 0.000000 -0.000001
v -0.338846 0.045954 -0.000001
v -0.239599 0.000000 -0.239603
v -0.239599 0.045954 -0.239603
v 0.206647 0.083623 -0.206646
v 0.000003 0.083623 -0.292241
v 0.292242 0.083623 -0.000001
v 0.206647 0.083623 0.206643
v 0.000003 0.083623 0.292238
v -0.206642 0.083623 0.206643
v -0.292237 0.083623 -0.000001
v -0.206642 0.083623 -0.206646
v 0.142869 0.121292 -0.142867
v 0.000003 0.121292 -0.202045
v 0.202046 0.121292 -0.000001
v 0.142869 0.121292 0.142865
v 0.000003 0.121292 0.202042
v -0.142864 0.121292 0.142865
v -0.202041 0.121292 -0.000001
v -0.142864 0.121292 -0.142867
v 0.156431 0.143024 -0.156430
v 0.000003 0.143024 -0.221225
v 0.221226 0.143024 -0.000001
v 0.156431 0.143024 0.156427
v 0.000003 0.143024 0.221222
v -0.156426 0.143024 0.156427
v -0.221221 0.143024 -0.000001
v -0.156426 0.143024 -0.156430
v 0.133757 0.176347 -0.133755
v 0.000003 0.176347 -0.189158
v 0.189159 0.176347 -0.000001
v 0.133757 0.176347 0.133753
v 0.000003 0.176347 0.189155
v -0.133751 0.176347 0.133753
v -0.189154 0.176347 -0.000001
v -0.133751 0.176347 -0.133755
v 0.062830 0.203875 -0.062829
v 0.000003 0.203875 -0.088853
v 0.088855 0.203875 -0.000001
v 0.062830 0.203875 0.062827
v 0.000003 0.203875 0.088851
v -0.062825 0.203875 0.062826
v -0.088849 0.203875 -0.000001
v -0.062825 0.203875 -0.062829
v 0.025732 0.237198 -0.025731
v 0.000003 0.237198 -0.036388
v 0.036390 0.237198 -0.000001
v 0.025732 0.237198 0.025728
v 0.000003 0.237198 0.036386
v -0.025727 0.237198 0.025728
v -0.036385 0.237198 -0.000001
v -0.025727 0.237198 -0.025731
v 0.025732 2.957820 -0.025731
v 0.000003 2.957820 -0.036388
v 0.036390 2.957820 -0.000001
v 0.025732 2.957820 0.025728
v 0.000003 2.957820 0.036386
v -0.025727 2.957820 0.025728
v -0.036385 2.957820 -0.000001
v -0.025727 2.957820 -0.025731
v -0.006764 2.920460 -0.278331
v -0.006764 2.933993 -0.278331
v 0.006769 2.920460 -0.278331
v 0.006769 2.933993 -0.278331
v -0.006764 2.920460 0.278328
v -0.006764 2.933993 0.278328
v 0.006769 2.920460 0.278328
v 0.006769 2.933993 0.278328
v -0.278327 2.920460 0.006765
v -0.278327 2.933993 0.006765
v -0.278327 2.920460 -0.006768
v -0.278327 2.933993 -0.006768
v 0.278332 2.920460 0.006765
v 0.278332 2.933993 0.006765
v 0.278332 2.920460 -0.006768
v 0.278332 2.933993 -0.006768
v 0.000003 2.241979 -0.406585
v 0.000003 2.992048 -0.298708
v 0.238986 2.241979 -0.328934
v 0.175578 2.992048 -0.241660
v 0.386687 2.241979 -0.125643
v 0.284089 2.992048 -0.092307
v 0.386687 2.241979 0.125640
v 0.284089 2.992048 0.092304
v 0.238986 2.241979 0.328932
v 0.175578 2.992048 0.241657
v 0.000003 2.241979 0.406582
v 0.000003 2.992048 0.298705
v -0.238981 2.241979 0.328932
v -0.175573 2.992048 0.241657
v -0.386681 2.241979 0.125640
v -0.284084 2.992048 0.092304
v -0.386681 2.241979 -0.125643
v -0.284084 2.992048 -0.092307
v -0.238981 2.241979 -0.328934
v -0.175573 2.992048 -0.241660
v 0.000003 2.240243 -0.368546
v 0.216628 2.240243 -0.298160
v 0.159151 2.993783 -0.219051
v 0.000003 2.993783 -0.270761
v 0.350509 2.240243 -0.113888
v 0.257511 2.993783 -0.083671
v 0.350509 2.240243 0.113885
v 0.257511 2.993783 0.083668
v 0.216627 2.240243 0.298157
v 0.159151 2.993783 0.219048
v 0.000003 2.240243 0.368543
v 0.000003 2.993783 0.270759
v -0.216622 2.240243 0.298157
v -0.159146 2.993783 0.219048
v -0.350504 2.240243 0.113885
v -0.257505 2.993783 0.083668
v -0.350504 2.240243 -0.113888
v -0.257505 2.993783 -0.083671
v -0.216622 2.240243 -0.298160
v -0.159146 2.993783 -0.219051
vn 0.3827 0.0000 -0.9239
vn 0.9239 0.0000 -0.3827
vn 0.9239 0.0000 0.3827
vn 0.3827 0.0000 0.9239
vn -0.3827 0.0000 0.9239
vn -0.9239 0.0000 0.3827
vn -0.0000 0.7777 0.6286
vn 0.4445 0.7777 0.4445
vn 0.3798 0.8435 0.3798
vn -0.0000 0.8435 0.5371
vn -0.9239 0.0000 -0.3827
vn -0.3827 0.0000 -0.9239
vn 0.0000 -1.0000 0.0000
vn 0.5371 0.8435 0.0000
vn 0.3854 0.9228 0.0000
vn 0.2725 0.9228 0.2725
vn -0.4445 0.7777 -0.4445
vn -0.6286 0.7777 -0.0000
vn -0.5371 0.8435 -0.0000
vn -0.3798 0.8435 -0.3798
vn 0.6286 0.7777 0.0000
vn 0.4445 0.7777 -0.4445
vn 0.3798 0.8435 -0.3798
vn -0.4445 0.7777 0.4445
vn -0.3798 0.8435 0.3798
vn -0.0000 0.7777 -0.6286
vn -0.0000 0.8435 -0.5371
vn -0.5302 -0.6617 -0.5302
vn -0.7498 -0.6617 -0.0000
vn 0.0000 0.9228 -0.3854
vn 0.2725 0.9228 -0.2725
vn -0.2725 0.9228 -0.2725
vn -0.2725 0.9228 0.2725
vn -0.3854 0.9228 0.0000
vn 0.0000 0.9228 0.3854
vn -0.0000 0.6934 0.7206
vn 0.5095 0.6934 0.5095
vn 0.3934 0.8310 0.3934
vn -0.0000 0.8310 0.5563
vn -0.5302 -0.6617 0.5302
vn -0.0000 -0.6617 0.7498
vn 0.5302 -0.6617 0.5302
vn 0.7498 -0.6617 0.0000
vn 0.5302 -0.6617 -0.5302
vn -0.0000 -0.6617 -0.7498
vn 0.0000 0.8310 -0.5563
vn -0.3934 0.8310 -0.3934
vn -0.2638 0.9278 -0.2638
vn 0.0000 0.9278 -0.3731
vn 0.7206 0.6934 0.0000
vn 0.5095 0.6934 -0.5095
vn 0.3934 0.8310 -0.3934
vn 0.5563 0.8310 -0.0000
vn -0.5095 0.6934 -0.5095
vn -0.7206 0.6934 0.0000
vn -0.5563 0.8310 -0.0000
vn -0.5095 0.6934 0.5095
vn -0.3934 0.8310 0.3934
vn 0.0000 0.6934 -0.7206
vn -0.2638 0.9278 0.2638
vn -0.0000 0.9278 0.3731
vn -0.0000 0.8441 0.5361
vn -0.3791 0.8441 0.3791
vn -0.3731 0.9278 -0.0000
vn 0.2638 0.9278 0.2638
vn 0.2638 0.9278 -0.2638
vn 0.3731 0.9278 0.0000
vn 0.5361 0.8441 0.0000
vn 0.3791 0.8441 0.3791
vn 0.0000 0.8441 -0.5361
vn 0.3791 0.8441 -0.3791
vn -0.3791 0.8441 -0.3791
vn -0.5361 0.8441 0.0000
vn 0.0000 1.0000 0.0000
vn 0.0000 0.0000 -1.0000
vn 1.0000 0.0000 0.0000
vn 0.0000 0.0000 1.0000
vn -1.0000 0.0000 -0.0000
vn 0.0000 0.1424 -0.9898
vn 0.5818 0.1424 -0.8008
vn 0.9414 0.1424 -0.3059
vn 0.9414 0.1424 0.3059
vn 0.5818 0.1424 0.8008
vn -0.0000 0.1424 0.9898
vn -0.5818 0.1424 0.8008
vn -0.9414 0.1424 0.3059
vn -0.9414 0.1424 -0.3059
vn -0.5829 -0.1287 0.8023
vn -0.9431 -0.1287 0.3064
vn -0.5818 0.1424 -0.8008
vn -0.0000 -0.1287 0.9917
vn -0.9431 -0.1287 -0.3064
vn -0.5829 -0.1287 -0.8023
vn 0.0000 -0.1287 -0.9917
vn 0.5829 -0.1287 -0.8023
vn 0.9431 -0.1287 -0.3064
vn 0.9431 -0.1287 0.3064
vn 0.5829 -0.1287 0.8023
vn -0.0589 0.9981 0.0192
vn -0.0589 0.9981 -0.0192
vn 0.0000 0.9981 -0.0620
vn 0.0364 0.9981 -0.0501
vn -0.0268 -0.9990 0.0369
vn -0.0000 -0.9990 0.0456
vn -0.0000 0.9981 0.0620
vn -0.0364 0.9981 0.0501
vn 0.0268 -0.9990 0.0369
vn 0.0433 -0.9990 0.0141
vn -0.0268 -0.9990 -0.0369
vn -0.0433 -0.9990 -0.0141
vn 0.0589 0.9981 0.0192
vn 0.0364 0.9981 0.0501
vn -0.0364 0.9981 -0.0501
vn 0.0433 -0.9990 -0.0141
vn 0.0268 -0.9990 -0.0369
vn -0.0433 -0.9990 0.0141
vn 0.0589 0.9981 -0.0192
vn 0.0000 -0.9990 -0.0456
usemtl LightMetal
s 1
f 1//1 2//1 4//1 3//1
f 3//2 4//2 6//2 5//2
f 5//3 6//3 8//3 7//3
f 7//4 8//4 10//4 9//4
f 9//5 10//5 12//5 11//5
f 11//6 12//6 14//6 13//6
f 10//7 8//8 20//9 21//10
f 13//11 14//11 16//11 15//11
f 15//12 16//12 2//12 1//12
f 1//13 3//13 5//13 7//13 9//13 11//13 13//13 15//13
f 20//9 19//14 27//15 28//16
f 16//17 14//18 23//19 24//20
f 6//21 4//22 17//23 19//14
f 12//24 10//7 21//10 22//25
f 2//26 16//17 24//20 18//27
f 4//22 2//26 18//27 17//23
f 8//8 6//21 19//14 20//9
f 14//18 12//24 22//25 23//19
f 32//28 31//29 39//29 40//28
f 17//23 18//27 26//30 25//31
f 18//27 24//20 32//32 26//30
f 23//19 22//25 30//33 31//34
f 21//10 20//9 28//16 29//35
f 19//14 17//23 25//31 27//15
f 24//20 23//19 31//34 32//32
f 22//25 21//10 29//35 30//33
f 37//36 36//37 44//38 45//39
f 30//40 29//41 37//41 38//40
f 28//42 27//43 35//43 36//42
f 25//44 26//45 34//45 33//44
f 26//45 32//28 40//28 34//45
f 31//29 30//40 38//40 39//29
f 29//41 28//42 36//42 37//41
f 27//43 25//44 33//44 35//43
f 42//46 48//47 56//48 50//49
f 35//50 33//51 41//52 43//53
f 40//54 39//55 47//56 48//47
f 38//57 37//36 45//39 46//58
f 36//37 35//50 43//53 44//38
f 33//51 34//59 42//46 41//52
f 34//59 40//54 48//47 42//46
f 39//55 38//57 46//58 47//56
f 54//60 53//61 61//62 62//63
f 47//56 46//58 54//60 55//64
f 45//39 44//38 52//65 53//61
f 43//53 41//52 49//66 51//67
f 48//47 47//56 55//64 56//48
f 46//58 45//39 53//61 54//60
f 44//38 43//53 51//67 52//65
f 41//52 42//46 50//49 49//66
f 64//11 63//11 71//11 72//11
f 52//65 51//67 59//68 60//69
f 49//66 50//49 58//70 57//71
f 50//49 56//48 64//72 58//70
f 55//64 54//60 62//63 63//73
f 53//61 52//65 60//69 61//62
f 51//67 49//66 57//71 59//68
f 56//48 55//64 63//73 64//72
f 65//74 66//74 72//74 71//74 70//74 69//74 68//74 67//74
f 62//5 61//5 69//5 70//5
f 60//3 59//3 67//3 68//3
f 57//1 58//1 66//1 65//1
f 58//12 64//12 72//12 66//12
f 63//6 62//6 70//6 71//6
f 61//4 60//4 68//4 69//4
f 59//2 57//2 65//2 67//2
f 73//75 74//75 76//75 75//75
f 75//76 76//76 80//76 79//76
f 79//77 80//77 78//77 77//77
f 77//78 78//78 74//78 73//78
f 75//13 79//13 77//13 73//13
f 80//74 76//74 74//74 78//74
f 81//78 82//78 84//78 83//78
f 83//75 84//75 88//75 87//75
f 87//76 88//76 86//76 85//76
f 85//77 86//77 82//77 81//77
f 83//13 87//13 85//13 81//13
f 88//74 84//74 82//74 86//74
usemtl White
f 89//79 90//79 92//80 91//80
f 91//80 92//80 94//81 93//81
f 93//81 94//81 96//82 95//82
f 95//82 96//82 98//83 97//83
f 97//83 98//83 100//84 99//84
f 99//84 100//84 102//85 101//85
f 101//85 102//85 104//86 103//86
f 103//86 104//86 106//87 105//87
f 110//88 113//89 114//89 111//88
f 105//87 106//87 108//90 107//90
f 107//90 108//90 90//79 89//79
f 109//91 110//88 111//88 112//91
f 113//89 115//92 116//92 114//89
f 115//92 117//93 118//93 116//92
f 117//93 119//94 120//94 118//93
f 119//94 121//95 122//95 120//94
f 121//95 123//96 124//96 122//95
f 123//96 125//97 126//97 124//96
f 125//97 127//98 128//98 126//97
f 127//98 109//91 112//91 128//98
f 104//99 124//99 126//100 106//100
f 90//101 112//101 111//102 92//102
f 101//103 121//103 119//104 99//104
f 100//105 120//105 122//106 102//106
f 97//107 117//107 115//108 95//108
f 107//109 127//109 125//110 105//110
f 96//111 116//111 118//112 98//112
f 106//100 126//100 128//113 108//113
f 93//114 113//114 110//115 91//115
f 103//116 123//116 121//103 101//103
f 92//102 111//102 114//117 94//117
f 102//106 122//106 124//99 104//99
f 99//104 119//104 117//107 97//107
f 89//118 109//118 127//109 107//109
f 98//112 118//112 120//105 100//105
f 108//113 128//113 112//101 90//101
f 95//108 115//108 113//114 93//114
f 105//110 125//110 123//116 103//116
f 91//115 110//115 109//118 89//118
f 94//117 114//117 116//111 96//111
