# Blender v2.79 (sub 0) OBJ File: 'Light_Cube2.blend'
# www.blender.org
mtllib Light_Cube2.mtl
o Light_Cube2_Cylinder.050
v 0.000000 -0.011649 -0.109642
v 0.000000 0.001518 -0.109642
v 0.064446 -0.011649 -0.088702
v 0.064446 0.001518 -0.088702
v 0.104276 -0.011649 -0.033881
v 0.104276 0.001518 -0.033881
v 0.104276 -0.011649 0.033881
v 0.104276 0.001518 0.033881
v 0.064446 -0.011649 0.088702
v 0.064446 0.001518 0.088702
v -0.000000 -0.011649 0.109642
v -0.000000 0.001518 0.109642
v -0.064446 -0.011649 0.088702
v -0.064446 0.001518 0.088702
v -0.104276 -0.011649 0.033881
v -0.104276 0.001518 0.033881
v -0.104276 -0.011649 -0.033881
v -0.104276 0.001518 -0.033881
v -0.064446 -0.011649 -0.088702
v -0.064446 0.001518 -0.088702
v 0.008818 -0.504356 0.008818
v -0.008818 -0.504356 -0.008818
v -0.012471 -0.504356 -0.000000
v -0.008818 -0.504356 0.008818
v -0.000000 -0.504356 0.012471
v 0.000000 -0.504356 -0.012471
v 0.012471 -0.504356 0.000000
v 0.008818 -0.504356 -0.008818
v 0.028719 -0.522753 -0.028719
v 0.000000 -0.522753 -0.040614
v -0.028719 -0.522753 0.028719
v -0.000000 -0.522753 0.040614
v 0.028719 -0.522753 0.028719
v 0.040614 -0.522753 0.000000
v -0.028719 -0.522753 -0.028719
v -0.040614 -0.522753 -0.000000
v -0.004096 -0.011230 0.004096
v -0.005793 -0.011230 -0.000000
v -0.004096 -0.011230 -0.004096
v -0.000000 -0.011230 -0.005793
v -0.004096 -0.523160 -0.004096
v -0.005793 -0.523160 -0.000000
v -0.004096 -0.523160 0.004096
v -0.000000 -0.523160 0.005793
v 0.004096 -0.523160 0.004096
v 0.005793 -0.523160 -0.000000
v 0.004096 -0.523160 -0.004096
v -0.000000 -0.523160 -0.005793
v 0.040909 -0.551370 -0.040909
v 0.057854 -0.551370 0.000000
v 0.040909 -0.551370 0.040909
v -0.000000 -0.551370 0.057854
v -0.057854 -0.551370 -0.000000
v -0.040909 -0.551370 0.040909
v 0.000000 -0.551370 -0.057854
v -0.040909 -0.551370 -0.040909
v -0.040909 -0.609626 -0.040909
v -0.057854 -0.609626 -0.000000
v -0.040909 -0.609626 0.040909
v -0.000000 -0.609626 0.057854
v 0.040909 -0.609626 0.040909
v 0.057854 -0.609626 0.000000
v 0.040909 -0.609626 -0.040909
v 0.000000 -0.609626 -0.057854
v 0.000000 -0.609626 -0.043091
v 0.030470 -0.609626 -0.030470
v 0.043091 -0.609626 0.000000
v 0.030470 -0.609626 0.030470
v -0.000000 -0.609626 0.043091
v -0.030470 -0.609626 0.030470
v -0.043091 -0.609626 -0.000000
v -0.030470 -0.609626 -0.030470
v 0.000000 -0.685103 -0.043091
v 0.030470 -0.685103 -0.030470
v 0.043091 -0.685103 0.000000
v 0.030470 -0.685103 0.030470
v -0.000000 -0.685103 0.043091
v -0.030470 -0.685103 0.030470
v -0.043091 -0.685103 -0.000000
v -0.030470 -0.685103 -0.030470
v -0.000000 -0.701647 -0.037850
v 0.026764 -0.701647 -0.026764
v 0.037850 -0.701647 0.000000
v 0.026764 -0.701647 0.026764
v -0.000000 -0.701647 0.037850
v -0.026764 -0.701647 0.026764
v -0.037850 -0.701647 -0.000000
v -0.026764 -0.701647 -0.026764
v -0.000000 -0.712567 -0.024269
v 0.017161 -0.712567 -0.017161
v 0.024269 -0.712567 0.000000
v 0.017161 -0.712567 0.017161
v -0.000000 -0.712567 0.024269
v -0.017161 -0.712567 0.017161
v -0.024269 -0.712567 -0.000000
v -0.017161 -0.712567 -0.017161
v -0.000000 -0.011230 0.005793
v 0.004096 -0.011230 0.004096
v 0.005793 -0.011230 -0.000000
v 0.004096 -0.011230 -0.004096
v -0.249905 -0.476386 0.143925
v -0.249905 -0.480362 0.146756
v -0.252345 -0.480376 0.142529
v -0.277113 -0.467708 0.158159
v -0.277113 -0.469746 0.159611
v -0.275862 -0.467700 0.160326
v 0.000000 -0.274834 -0.003864
v 0.002441 -0.274819 0.000364
v -0.002440 -0.274819 0.000364
v 0.000000 -0.243004 0.000291
v 0.001251 -0.243011 -0.001876
v -0.001251 -0.243011 -0.001876
v -0.252345 -0.683402 -0.142528
v -0.249905 -0.687392 -0.143924
v -0.249905 -0.683416 -0.146756
v -0.275862 -0.696077 -0.160325
v -0.277113 -0.696070 -0.158159
v -0.277113 -0.694032 -0.159610
v -0.002440 -0.481850 -0.290317
v 0.002441 -0.481850 -0.290317
v 0.000000 -0.477860 -0.288921
v 0.001251 -0.469335 -0.319645
v 0.000000 -0.471381 -0.320361
v -0.001251 -0.469335 -0.319645
v 0.000000 -0.685918 0.288922
v -0.002440 -0.681928 0.290317
v 0.002441 -0.681928 0.290317
v 0.000000 -0.692397 0.320361
v -0.001251 -0.694443 0.319646
v 0.001251 -0.694443 0.319646
v 0.249905 -0.480361 0.146756
v 0.249905 -0.476386 0.143924
v 0.252346 -0.480376 0.142529
v 0.277113 -0.467708 0.158159
v 0.275862 -0.467700 0.160326
v 0.277113 -0.469746 0.159610
v -0.002440 -0.888958 -0.000363
v 0.000000 -0.888944 0.003864
v 0.002441 -0.888958 -0.000363
v 0.001251 -0.920766 0.001877
v -0.001251 -0.920767 0.001877
v 0.000000 -0.920774 -0.000290
v 0.249905 -0.687392 -0.143924
v 0.252346 -0.683402 -0.142529
v 0.249905 -0.683416 -0.146756
v 0.277113 -0.694032 -0.159610
v 0.277113 -0.696070 -0.158159
v 0.275862 -0.696077 -0.160325
v -0.253731 -0.476187 0.132974
v -0.256881 -0.472211 0.135651
v -0.251290 -0.472197 0.134370
v -0.010640 -0.271642 -0.007200
v -0.008955 -0.276811 -0.009027
v -0.011395 -0.276796 -0.004800
v -0.010640 -0.473663 -0.290847
v -0.011395 -0.477617 -0.286761
v -0.008955 -0.473626 -0.285365
v -0.256881 -0.674232 -0.147996
v -0.253731 -0.673003 -0.143364
v -0.251290 -0.673017 -0.147591
v -0.242335 -0.691634 -0.149880
v -0.246240 -0.691630 -0.154081
v -0.242335 -0.687658 -0.152711
v 0.000000 -0.491061 -0.296932
v 0.002441 -0.492258 -0.291881
v -0.002440 -0.492257 -0.291881
v 0.246241 -0.691630 -0.154081
v 0.242336 -0.691634 -0.149880
v 0.242336 -0.687658 -0.152711
v 0.000000 -0.892199 -0.011230
v -0.002440 -0.887034 -0.010710
v 0.002441 -0.887034 -0.010710
v 0.008955 -0.886967 0.009028
v 0.010641 -0.892136 0.007200
v 0.011396 -0.886981 0.004800
v 0.256881 -0.691567 -0.135650
v 0.253731 -0.687591 -0.132974
v 0.251291 -0.691581 -0.134369
v 0.256881 -0.489545 0.147997
v 0.251291 -0.490761 0.147591
v 0.253731 -0.490775 0.143364
v 0.010641 -0.690114 0.290848
v 0.008955 -0.690151 0.285366
v 0.011396 -0.686161 0.286761
v -0.002440 -0.671520 0.291881
v 0.000000 -0.672717 0.296932
v 0.002441 -0.671520 0.291881
v 0.246241 -0.472148 0.154081
v 0.242336 -0.472144 0.149880
v 0.242336 -0.476120 0.152712
v 0.000000 -0.271579 0.011230
v -0.002440 -0.276743 0.010710
v 0.002441 -0.276743 0.010710
v -0.246240 -0.472148 0.154081
v -0.242335 -0.476120 0.152712
v -0.242335 -0.472144 0.149880
v -0.253731 -0.687591 -0.132974
v -0.256881 -0.691567 -0.135650
v -0.251290 -0.691581 -0.134369
v -0.010640 -0.892136 0.007200
v -0.008955 -0.886967 0.009028
v -0.011395 -0.886981 0.004800
v -0.010640 -0.690114 0.290848
v -0.011395 -0.686161 0.286761
v -0.008955 -0.690151 0.285366
v -0.256881 -0.489545 0.147997
v -0.253731 -0.490775 0.143364
v -0.251290 -0.490761 0.147592
v 0.253731 -0.673003 -0.143364
v 0.256881 -0.674232 -0.147997
v 0.251291 -0.673017 -0.147591
v 0.010641 -0.473663 -0.290847
v 0.008955 -0.473626 -0.285365
v 0.011396 -0.477617 -0.286761
v 0.010641 -0.271642 -0.007200
v 0.011396 -0.276796 -0.004800
v 0.008955 -0.276811 -0.009027
v 0.256881 -0.472211 0.135651
v 0.253731 -0.476187 0.132974
v 0.251291 -0.472197 0.134370
vn 0.0000 0.0000 -1.0000
vn 0.5878 0.0000 -0.8090
vn 0.9511 0.0000 -0.3090
vn 0.9511 0.0000 0.3090
vn 0.5878 0.0000 0.8090
vn -0.0000 0.0000 1.0000
vn -0.5878 0.0000 0.8090
vn -0.9511 0.0000 0.3090
vn -0.9511 0.0000 -0.3090
vn 0.0000 1.0000 -0.0000
vn -0.5878 0.0000 -0.8090
vn 0.0000 -1.0000 0.0000
vn -0.0000 0.6676 0.7445
vn 0.5264 0.6676 0.5264
vn 0.2461 0.9375 0.2461
vn -0.0000 0.9375 0.3480
vn -0.6842 0.2523 -0.6842
vn -0.9676 0.2523 -0.0000
vn -0.7445 0.6676 0.0000
vn -0.5264 0.6676 -0.5264
vn -0.3480 0.9375 -0.0000
vn -0.2461 0.9375 -0.2461
vn -0.5264 0.6676 0.5264
vn -0.2461 0.9375 0.2461
vn 0.7445 0.6676 -0.0000
vn 0.5264 0.6676 -0.5264
vn 0.2461 0.9375 -0.2461
vn 0.3480 0.9375 -0.0000
vn 0.0000 0.6676 -0.7445
vn 0.0000 0.9375 -0.3480
vn -0.6842 0.2523 0.6842
vn 0.0000 0.2523 -0.9676
vn -0.0000 0.2523 0.9676
vn 0.9676 0.2523 -0.0000
vn 0.6842 0.2523 -0.6842
vn 0.6842 0.2523 0.6842
vn 1.0000 0.0000 0.0000
vn 0.7071 0.0000 -0.7071
vn -0.7071 0.0000 0.7071
vn -0.7071 0.0000 -0.7071
vn -1.0000 0.0000 0.0000
vn 0.7071 0.0000 0.7071
vn 0.6994 -0.1475 0.6994
vn -0.0000 -0.1475 0.9891
vn -0.0000 -0.5340 0.8455
vn 0.5978 -0.5340 0.5978
vn 0.6994 -0.1475 -0.6994
vn 0.0000 -0.1475 -0.9891
vn -0.6994 -0.1475 -0.6994
vn -0.9891 -0.1475 0.0000
vn -0.6994 -0.1475 0.6994
vn 0.9891 -0.1475 0.0000
vn -0.5978 -0.5340 -0.5978
vn 0.0000 -0.5340 -0.8455
vn 0.0000 -0.9158 -0.4016
vn -0.2840 -0.9158 -0.2840
vn 0.8455 -0.5340 0.0000
vn 0.5978 -0.5340 -0.5978
vn -0.8455 -0.5340 0.0000
vn -0.5978 -0.5340 0.5978
vn 0.2840 -0.9158 -0.2840
vn 0.4016 -0.9158 0.0000
vn 0.2840 -0.9158 0.2840
vn -0.0000 -0.9158 0.4016
vn -0.2840 -0.9158 0.2840
vn -0.4016 -0.9158 0.0000
vn 0.5706 -0.8074 -0.1501
vn -0.4210 -0.7388 0.5262
vn 0.1529 -0.8050 0.5733
vn -0.2430 0.3468 0.9059
vn 0.5706 -0.1221 0.8121
vn 0.2430 -0.7428 -0.6239
vn 0.5706 0.1221 -0.8121
vn -0.6640 0.3415 -0.6652
vn 0.5706 0.8074 0.1501
vn 0.2430 -0.3468 -0.9059
vn -0.4177 0.1279 0.8995
vn 0.6640 0.7403 -0.1052
vn -0.4177 0.8083 0.4149
vn 0.6640 -0.3415 0.6652
vn 0.4177 0.8083 0.4149
vn -0.6640 -0.3415 0.6652
vn -0.2430 -0.3468 -0.9059
vn -0.9882 0.1245 -0.0887
vn 0.4210 0.7388 -0.5262
vn -0.1529 0.8050 -0.5733
vn -0.2430 0.7428 0.6239
vn -0.4177 -0.1279 -0.8995
vn -0.9071 -0.3429 0.2442
vn 0.9071 -0.3429 0.2442
vn -0.9882 -0.1245 0.0887
vn -0.4177 -0.8083 -0.4149
vn 0.6640 0.3415 -0.6652
vn -0.4210 0.7388 -0.5262
vn 0.2430 0.7428 0.6239
vn 0.4177 -0.1279 -0.8995
vn -0.6640 -0.7403 0.1052
vn -0.6640 0.7403 -0.1052
vn -0.5706 -0.1221 0.8121
vn -0.5706 0.1221 -0.8121
vn 0.6640 -0.7403 0.1053
vn 0.9882 -0.1245 0.0887
vn -0.1529 -0.8050 0.5733
vn 0.4177 -0.8083 -0.4149
vn 0.2430 0.3468 0.9059
vn -0.2430 -0.7427 -0.6239
vn 0.1529 0.8050 -0.5733
vn -0.5706 -0.8074 -0.1501
vn 0.4177 0.1279 0.8995
vn -0.9071 0.3429 -0.2442
vn 0.9071 0.3429 -0.2442
vn 0.4210 -0.7388 0.5262
vn -0.5706 0.8074 0.1501
vn 0.8165 -0.3349 -0.4703
vn -0.8165 0.3350 0.4703
vn 0.0000 -1.0000 0.0034
vn -0.0000 1.0000 -0.0034
vn 0.8165 0.3349 0.4703
vn -0.8165 -0.3349 -0.4703
vn 0.0000 -0.3301 0.9439
vn -0.0000 0.3301 -0.9439
vn 0.0000 -1.0000 0.0033
vn -0.8165 0.3349 0.4703
vn -0.2026 0.4314 -0.8791
vn -0.8614 -0.1053 -0.4970
vn -0.8614 0.4352 0.2619
vn -0.2026 0.9719 -0.1203
vn 0.6588 -0.4364 -0.6128
vn -0.0000 -0.9731 -0.2306
vn -0.6588 -0.4364 -0.6128
vn 0.0000 0.1002 -0.9950
vn 0.8614 0.1053 0.4969
vn 0.2026 -0.4314 0.8791
vn 0.2026 -0.9719 0.1203
vn 0.8614 -0.4352 -0.2619
vn 0.0000 0.9731 0.2306
vn -0.6588 0.4364 0.6128
vn -0.0000 -0.1002 0.9950
vn 0.6588 0.4364 0.6128
vn -0.2026 -0.4314 0.8791
vn -0.8614 0.1053 0.4970
vn -0.8614 -0.4352 -0.2619
vn -0.2026 -0.9719 0.1203
vn 0.2026 0.9719 -0.1203
vn 0.8614 0.4352 0.2619
vn 0.8614 -0.1053 -0.4970
vn 0.2026 0.4314 -0.8791
vn 0.8560 -0.4163 -0.3066
vn -0.2049 -0.3883 -0.8984
vn 0.1612 -0.9822 0.0964
vn -0.5000 0.8175 0.2859
vn -0.8817 -0.3843 0.2737
vn 0.1612 -0.4122 0.8967
vn -0.0000 0.8145 -0.5801
vn -0.2049 0.7221 0.6607
vn 0.8560 0.1537 0.4937
vn -0.5000 -0.0029 -0.8660
vn 0.4719 0.7181 -0.5115
vn 0.6947 0.4173 0.5858
vn 0.6768 -0.7194 0.1566
vn 0.0000 -0.1486 0.9889
vn -0.6768 -0.7194 0.1566
vn -0.6947 0.4173 0.5859
vn 0.5000 -0.0029 -0.8660
vn -0.6768 0.3831 -0.6286
vn -0.0000 0.9831 0.1828
vn 0.5000 -0.8175 -0.2859
vn 0.6768 0.3831 -0.6286
vn -0.5000 -0.8175 -0.2859
vn -0.1612 0.9822 -0.0964
vn 0.2049 0.3883 0.8985
vn -0.8560 0.4163 0.3066
vn -0.4719 -0.7181 0.5115
vn -0.8560 -0.1537 -0.4937
vn 0.2049 -0.7221 -0.6607
vn -0.1612 0.4122 -0.8967
vn 0.5000 0.0029 0.8660
vn 0.8817 0.3843 -0.2737
vn 0.0000 -0.8145 0.5801
vn 0.0000 0.1486 -0.9889
vn -0.6768 0.7194 -0.1566
vn -0.6947 -0.4173 -0.5858
vn -0.6768 -0.3831 0.6286
vn 0.0000 -0.9831 -0.1828
vn 0.5000 0.8175 0.2859
vn 0.6768 -0.3831 0.6286
vn 0.6947 -0.4173 -0.5859
vn 0.6768 0.7194 -0.1566
vn -0.5000 0.0030 0.8660
vn 0.8560 0.4163 0.3066
vn -0.2049 0.3883 0.8985
vn 0.1612 0.9822 -0.0964
vn -0.8817 0.3843 -0.2737
vn 0.1612 0.4122 -0.8967
vn -0.2049 -0.7221 -0.6607
vn 0.8560 -0.1537 -0.4937
vn 0.4719 -0.7181 0.5115
vn -0.8560 0.1537 0.4937
vn 0.2049 0.7221 0.6607
vn -0.1612 -0.4122 0.8967
vn 0.8817 -0.3843 0.2737
vn -0.1612 -0.9822 0.0964
vn 0.2049 -0.3883 -0.8984
vn -0.8560 -0.4163 -0.3066
vn -0.4719 0.7181 -0.5115
vn 0.9882 0.1245 -0.0887
usemtl Grey
s 1
f 1//1 2//1 4//2 3//2
f 3//2 4//2 6//3 5//3
f 5//3 6//3 8//4 7//4
f 7//4 8//4 10//5 9//5
f 9//5 10//5 12//6 11//6
f 11//6 12//6 14//7 13//7
f 13//7 14//7 16//8 15//8
f 15//8 16//8 18//9 17//9
f 4//10 2//10 20//10 18//10 16//10 14//10 12//10 10//10 8//10 6//10
f 17//9 18//9 20//11 19//11
f 19//11 20//11 2//1 1//1
f 1//12 3//12 5//12 7//12 9//12 11//12 13//12 15//12 17//12 19//12
f 32//13 33//14 21//15 25//16
f 56//17 53//18 36//19 35//20
f 35//20 36//19 23//21 22//22
f 36//19 31//23 24//24 23//21
f 34//25 29//26 28//27 27//28
f 33//14 34//25 27//28 21//15
f 29//26 30//29 26//30 28//27
f 31//23 32//13 25//16 24//24
f 30//29 35//20 22//22 26//30
f 53//18 54//31 31//23 36//19
f 55//32 56//17 35//20 30//29
f 54//31 52//33 32//13 31//23
f 50//34 49//35 29//26 34//25
f 49//35 55//32 30//29 29//26
f 26//30 22//22 23//21 24//24 25//16 21//15 27//28 28//27
f 51//36 50//34 34//25 33//14
f 47//12 46//12 45//12 44//12 43//12 42//12 41//12 48//12
f 71//12 70//12 59//12 58//12
f 62//37 63//38 49//35 50//34
f 63//38 64//1 55//32 49//35
f 59//39 60//6 52//33 54//31
f 57//40 58//41 53//18 56//17
f 58//41 59//39 54//31 53//18
f 61//42 62//37 50//34 51//36
f 64//1 57//40 56//17 55//32
f 60//6 61//42 51//36 52//33
f 67//12 66//12 63//12 62//12
f 70//12 69//12 60//12 59//12
f 52//33 51//36 33//14 32//13
f 66//12 65//12 64//12 63//12
f 69//12 68//12 61//12 60//12
f 72//12 71//12 58//12 57//12
f 68//12 67//12 62//12 61//12
f 65//12 72//12 57//12 64//12
usemtl Light
f 76//43 77//44 85//45 84//46
f 65//1 66//38 74//47 73//48
f 72//40 65//1 73//48 80//49
f 70//39 71//41 79//50 78//51
f 68//42 69//6 77//44 76//43
f 66//38 67//37 75//52 74//47
f 71//41 72//40 80//49 79//50
f 69//6 70//39 78//51 77//44
f 67//37 68//42 76//43 75//52
f 88//53 81//54 89//55 96//56
f 74//47 75//52 83//57 82//58
f 79//50 80//49 88//53 87//59
f 77//44 78//51 86//60 85//45
f 75//52 76//43 84//46 83//57
f 73//48 74//47 82//58 81//54
f 80//49 73//48 81//54 88//53
f 78//51 79//50 87//59 86//60
f 89//55 90//61 91//62 92//63 93//64 94//65 95//66 96//56
f 86//60 87//59 95//66 94//65
f 84//46 85//45 93//64 92//63
f 82//58 83//57 91//62 90//61
f 87//59 88//53 96//56 95//66
f 85//45 86//60 94//65 93//64
f 83//57 84//46 92//63 91//62
f 81//54 82//58 90//61 89//55
usemtl LightMetal
f 45//42 46//37 99//37 98//42
f 42//41 43//39 37//39 38//41
f 44//6 45//42 98//42 97//6
f 100//10 40//10 39//10 38//10 37//10 97//10 98//10 99//10
f 48//1 41//40 39//40 40//1
f 47//38 48//1 40//1 100//38
f 43//39 44//6 97//6 37//39
f 41//40 42//41 38//41 39//40
f 46//37 47//38 100//38 99//37
usemtl White
s off
f 192//67 196//67 101//67 109//67
f 198//68 206//68 105//68 117//68
f 213//69 217//69 107//69 121//69
f 191//70 188//70 135//70 110//70
f 163//71 166//71 119//71 115//71
f 164//72 162//72 116//72 123//72
f 195//73 185//73 126//73 102//73
f 152//74 150//74 104//74 112//74
f 171//75 161//75 114//75 137//75
f 162//76 170//76 142//76 116//76
f 211//77 214//77 120//77 145//77
f 212//78 210//78 146//78 122//78
f 175//79 178//79 143//79 139//79
f 176//80 174//80 140//80 147//80
f 199//81 202//81 137//81 114//81
f 200//82 198//82 117//82 141//82
f 170//83 167//83 148//83 142//83
f 219//84 209//84 144//84 133//84
f 210//85 218//85 134//85 146//85
f 201//86 205//86 125//86 138//86
f 188//87 186//87 128//87 135//87
f 180//88 184//88 127//88 131//88
f 203//89 200//89 141//89 129//89
f 174//90 182//90 130//90 140//90
f 177//91 181//91 133//91 144//91
f 216//92 220//92 132//92 108//92
f 218//93 215//93 111//93 134//93
f 150//94 158//94 118//94 104//94
f 186//95 194//95 106//95 128//95
f 204//96 208//96 102//96 126//96
f 206//97 203//97 129//97 105//97
f 158//98 155//98 124//98 118//98
f 165//99 169//99 145//99 120//99
f 187//100 190//100 131//100 127//100
f 182//101 179//101 136//101 130//101
f 207//102 197//102 113//102 103//102
f 153//103 157//103 121//103 107//103
f 151//104 154//104 109//104 101//104
f 194//105 191//105 110//105 106//105
f 167//106 164//106 123//106 148//106
f 183//107 173//107 138//107 125//107
f 189//108 193//108 108//108 132//108
f 156//109 160//109 115//109 119//109
f 155//110 152//110 112//110 124//110
f 215//111 212//111 122//111 111//111
f 179//112 176//112 147//112 136//112
f 168//113 172//113 139//113 143//113
f 101//114 102//114 103//114
f 104//115 105//115 106//115
f 107//116 108//116 109//116
f 110//117 111//117 112//117
f 113//118 114//118 115//118
f 116//119 117//119 118//119
f 119//120 120//120 121//120
f 122//121 123//121 124//121
f 125//121 126//121 127//121
f 128//120 129//120 130//120
f 131//119 132//119 133//119
f 134//118 135//118 136//118
f 137//117 138//117 139//117
f 140//122 141//122 142//122
f 143//123 144//123 145//123
f 146//114 147//114 148//114
f 149//124 150//124 151//124
f 152//125 153//125 154//125
f 155//126 156//126 157//126
f 158//127 159//127 160//127
f 161//128 162//128 163//128
f 164//129 165//129 166//129
f 167//130 168//130 169//130
f 170//131 171//131 172//131
f 173//132 174//132 175//132
f 176//133 177//133 178//133
f 179//134 180//134 181//134
f 182//135 183//135 184//135
f 185//136 186//136 187//136
f 188//137 189//137 190//137
f 191//138 192//138 193//138
f 194//139 195//139 196//139
f 197//140 198//140 199//140
f 200//141 201//141 202//141
f 203//142 204//142 205//142
f 206//143 207//143 208//143
f 209//144 210//144 211//144
f 212//145 213//145 214//145
f 215//146 216//146 217//146
f 218//147 219//147 220//147
f 103//148 149//148 151//148 101//148
f 150//149 152//149 154//149 151//149
f 153//150 107//150 109//150 154//150
f 106//151 110//151 112//151 104//151
f 152//152 155//152 157//152 153//152
f 156//153 119//153 121//153 157//153
f 111//154 122//154 124//154 112//154
f 155//155 158//155 160//155 156//155
f 159//156 113//156 115//156 160//156
f 123//157 116//157 118//157 124//157
f 158//158 150//158 149//158 159//158
f 117//41 105//41 104//41 118//41
f 114//159 161//159 163//159 115//159
f 162//160 164//160 166//160 163//160
f 165//161 120//161 119//161 166//161
f 164//162 167//162 169//162 165//162
f 168//163 143//163 145//163 169//163
f 122//164 146//164 148//164 123//164
f 167//165 170//165 172//165 168//165
f 171//166 137//166 139//166 172//166
f 147//167 140//167 142//167 148//167
f 170//168 162//168 161//168 171//168
f 141//169 117//169 116//169 142//169
f 138//170 173//170 175//170 139//170
f 174//171 176//171 178//171 175//171
f 177//172 144//172 143//172 178//172
f 176//173 179//173 181//173 177//173
f 180//174 131//174 133//174 181//174
f 146//37 134//37 136//37 147//37
f 179//175 182//175 184//175 180//175
f 183//176 125//176 127//176 184//176
f 135//177 128//177 130//177 136//177
f 182//178 174//178 173//178 183//178
f 129//179 141//179 140//179 130//179
f 126//180 185//180 187//180 127//180
f 186//181 188//181 190//181 187//181
f 189//182 132//182 131//182 190//182
f 188//183 191//183 193//183 189//183
f 192//184 109//184 108//184 193//184
f 134//185 111//185 110//185 135//185
f 191//186 194//186 196//186 192//186
f 195//187 102//187 101//187 196//187
f 194//188 186//188 185//188 195//188
f 105//189 129//189 128//189 106//189
f 113//190 197//190 199//190 114//190
f 198//191 200//191 202//191 199//191
f 201//192 138//192 137//192 202//192
f 200//193 203//193 205//193 201//193
f 204//194 126//194 125//194 205//194
f 203//195 206//195 208//195 204//195
f 207//196 103//196 102//196 208//196
f 206//197 198//197 197//197 207//197
f 144//198 209//198 211//198 145//198
f 210//199 212//199 214//199 211//199
f 213//200 121//200 120//200 214//200
f 212//201 215//201 217//201 213//201
f 216//202 108//202 107//202 217//202
f 215//203 218//203 220//203 216//203
f 219//204 133//204 132//204 220//204
f 218//205 210//205 209//205 219//205
f 159//206 149//206 103//206 113//206
