# Blender v2.79 (sub 0) OBJ File: 'Light_Desk.blend'
# www.blender.org
mtllib Light_Desk.mtl
o Light_Desk_Cylinder.001
v 0.000000 0.000155 -0.125765
v 0.000000 0.015604 -0.125765
v 0.088929 0.000155 -0.088929
v 0.088929 0.015604 -0.088929
v 0.125765 0.000155 0.000000
v 0.125765 0.015604 0.000000
v 0.088929 0.000155 0.088929
v 0.088929 0.015604 0.088929
v -0.000000 0.000155 0.125765
v -0.000000 0.015604 0.125765
v -0.088929 0.000155 0.088929
v -0.088929 0.015604 0.088929
v -0.125765 0.000155 -0.000000
v -0.125765 0.015604 -0.000000
v -0.088929 0.000155 -0.088929
v -0.088929 0.015604 -0.088929
v 0.078373 0.015977 -0.078373
v 0.000000 0.015977 -0.110836
v 0.110836 0.015977 0.000000
v 0.078373 0.015977 0.078373
v -0.000000 0.015977 0.110836
v -0.078373 0.015977 0.078373
v -0.110836 0.015977 -0.000000
v -0.078373 0.015977 -0.078373
v 0.070102 0.037636 -0.070102
v 0.000000 0.037636 -0.099140
v 0.099140 0.037636 0.000000
v 0.070102 0.037636 0.070102
v -0.000000 0.037636 0.099140
v -0.070102 0.037636 0.070102
v -0.099140 0.037636 -0.000000
v -0.070102 0.037636 -0.070102
v 0.041777 0.051079 -0.041777
v 0.000000 0.051079 -0.059082
v 0.059082 0.051079 0.000000
v 0.041777 0.051079 0.041777
v -0.000000 0.051079 0.059082
v -0.041777 0.051079 0.041777
v -0.059082 0.051079 -0.000000
v -0.041777 0.051079 -0.041777
v 0.008961 0.033256 -0.060589
v -0.000000 0.033256 -0.064301
v 0.012673 0.033256 -0.051628
v 0.008961 0.033256 -0.042667
v -0.000000 0.033256 -0.038955
v -0.008961 0.033256 -0.042667
v -0.012673 0.033256 -0.051628
v -0.008961 0.033256 -0.060589
v 0.008961 0.464645 0.057416
v 0.000000 0.467438 0.054970
v 0.012673 0.457903 0.063319
v 0.008961 0.451161 0.069222
v 0.000000 0.448368 0.071668
v -0.008961 0.451161 0.069222
v -0.012673 0.457903 0.063319
v -0.008961 0.464645 0.057416
v 0.008961 0.497423 0.087734
v 0.000000 0.499287 0.084524
v 0.012673 0.492924 0.095483
v 0.008961 0.488424 0.103233
v 0.000000 0.486560 0.106443
v -0.008961 0.488424 0.103233
v -0.012673 0.492924 0.095483
v -0.008961 0.497423 0.087734
v 0.024597 0.562669 0.078549
v 0.000000 0.570810 0.084675
v 0.034785 0.543016 0.063759
v 0.024597 0.523362 0.048969
v 0.000000 0.515221 0.042842
v -0.024597 0.523362 0.048969
v -0.034785 0.543016 0.063759
v -0.024597 0.562669 0.078549
v 0.029854 0.512633 0.153780
v 0.000000 0.522514 0.161215
v 0.042219 0.488780 0.135829
v 0.029854 0.464926 0.117878
v 0.000000 0.455045 0.110442
v -0.029853 0.464926 0.117878
v -0.042219 0.488780 0.135829
v -0.029853 0.512633 0.153780
v 0.045578 0.504518 0.190714
v 0.000000 0.519602 0.202066
v 0.064456 0.468100 0.163308
v 0.045578 0.431683 0.135903
v 0.000000 0.416598 0.124551
v -0.045577 0.431683 0.135903
v -0.064456 0.468100 0.163308
v -0.045577 0.504518 0.190714
v 0.059029 0.489856 0.232568
v 0.000000 0.509392 0.247271
v 0.083480 0.442690 0.197074
v 0.059029 0.395525 0.161580
v 0.000000 0.375987 0.146878
v -0.059029 0.395525 0.161580
v -0.083479 0.442690 0.197074
v -0.059029 0.489856 0.232568
v 0.069797 0.445042 0.310025
v 0.000000 0.468142 0.327410
v 0.098707 0.389273 0.268056
v 0.069797 0.333504 0.226088
v 0.000000 0.310403 0.208704
v -0.069797 0.333504 0.226088
v -0.098707 0.389273 0.268056
v -0.069797 0.445042 0.310025
v 0.060013 0.436923 0.304543
v 0.000000 0.456785 0.319491
v 0.084871 0.388971 0.268458
v 0.060013 0.341019 0.232372
v 0.000000 0.321156 0.217424
v -0.060013 0.341019 0.232372
v -0.084871 0.388971 0.268458
v -0.060013 0.436923 0.304543
v 0.050862 0.489314 0.219706
v 0.000000 0.506147 0.232374
v 0.071929 0.448674 0.189122
v 0.050862 0.408034 0.158539
v 0.000000 0.391200 0.145871
v -0.050862 0.408034 0.158539
v -0.071929 0.448674 0.189122
v -0.050862 0.489314 0.219706
v 0.015837 0.568117 0.056742
v 0.000000 0.573358 0.060687
v 0.022397 0.555462 0.047219
v 0.015837 0.542808 0.037696
v 0.000000 0.537566 0.033752
v -0.015837 0.542808 0.037696
v -0.022397 0.555462 0.047219
v -0.015837 0.568117 0.056742
v 0.008961 0.430574 -0.006597
v 0.008961 0.261547 -0.086422
v 0.008961 0.360492 -0.068636
v -0.000000 0.264034 -0.089590
v 0.000000 0.433135 -0.009376
v -0.000000 0.363006 -0.071514
v 0.012673 0.424411 0.000150
v 0.012673 0.254772 -0.078653
v 0.012673 0.354201 -0.061641
v 0.008961 0.418246 0.006898
v 0.008961 0.247967 -0.070829
v 0.008961 0.347902 -0.054630
v 0.000000 0.415684 0.009678
v -0.000000 0.245491 -0.067619
v -0.000000 0.345390 -0.051739
v -0.008961 0.418246 0.006898
v -0.008961 0.247967 -0.070829
v -0.008961 0.347902 -0.054630
v -0.012673 0.424411 0.000150
v -0.012673 0.254772 -0.078653
v -0.012673 0.354201 -0.061641
v -0.008961 0.430574 -0.006597
v -0.008961 0.261547 -0.086422
v -0.008961 0.360492 -0.068636
v -0.028557 0.524971 0.135229
v 0.000000 0.534423 0.142342
v -0.028557 0.479335 0.100886
v -0.040386 0.502153 0.118057
v 0.028557 0.479335 0.100886
v 0.000000 0.469884 0.093773
v 0.028557 0.524971 0.135229
v 0.040386 0.502153 0.118057
v 0.000000 0.550887 0.116250
v -0.037852 0.520642 0.093489
v 0.000000 0.490397 0.070729
v 0.037852 0.520642 0.093489
v -0.026765 0.542028 0.109583
v -0.026765 0.499256 0.077395
v 0.026765 0.499256 0.077395
v 0.026765 0.542028 0.109583
v -0.032093 0.545098 0.113249
v -0.034242 0.530594 0.138051
v -0.032093 0.493812 0.074654
v -0.034242 0.475874 0.096872
v 0.032093 0.493812 0.074654
v 0.034242 0.475874 0.096872
v 0.032093 0.545098 0.113249
v 0.034242 0.530594 0.138051
v 0.000000 0.541927 0.146580
v 0.048425 0.503234 0.117462
v 0.000000 0.464541 0.088344
v -0.048425 0.503234 0.117462
v 0.000000 0.555719 0.121242
v -0.045386 0.519455 0.093951
v 0.000000 0.483190 0.066661
v 0.045386 0.519455 0.093951
vn 0.0000 0.0000 -1.0000
vn 0.7071 0.0000 -0.7071
vn 1.0000 0.0000 0.0000
vn 0.7071 0.0000 0.7071
vn -0.0000 0.0000 1.0000
vn -0.7071 0.0000 0.7071
vn -1.0000 0.0000 0.0000
vn 0.0177 0.9997 0.0177
vn 0.0250 0.9997 0.0000
vn -0.7071 0.0000 -0.7071
vn 0.0000 -1.0000 0.0000
vn -0.6222 0.4752 -0.6222
vn -0.8799 0.4752 0.0000
vn -0.6914 0.7225 0.0000
vn -0.4889 0.7225 -0.4889
vn -0.0250 0.9997 0.0000
vn -0.0177 0.9997 0.0177
vn -0.0000 0.9997 0.0250
vn -0.0177 0.9997 -0.0177
vn 0.0177 0.9997 -0.0177
vn -0.0000 0.9997 -0.0250
vn 0.6914 0.7225 0.0000
vn 0.4889 0.7225 -0.4889
vn 0.1413 0.9798 -0.1413
vn 0.1998 0.9798 0.0000
vn -0.6222 0.4752 0.6222
vn -0.0000 0.4752 0.8799
vn -0.0000 0.7225 0.6914
vn -0.4889 0.7225 0.4889
vn 0.6222 0.4752 0.6222
vn 0.8799 0.4752 0.0000
vn 0.4889 0.7225 0.4889
vn 0.6222 0.4752 -0.6222
vn 0.0000 0.4752 -0.8799
vn -0.0000 0.7225 -0.6914
vn -0.0000 0.9798 -0.1998
vn -0.1413 0.9798 -0.1413
vn -0.1998 0.9798 0.0000
vn -0.1413 0.9798 0.1413
vn -0.0000 0.9798 0.1998
vn 0.1413 0.9798 0.1413
vn -0.6765 0.7154 0.1745
vn 0.0000 0.9394 0.3430
vn 0.0000 0.9944 0.1056
vn -0.6068 0.7936 -0.0455
vn -0.6645 0.7366 0.1263
vn -0.9397 0.2056 -0.2732
vn -0.8824 0.2829 -0.3759
vn -0.6240 0.7815 -0.0008
vn 0.0000 0.8457 0.5336
vn -0.7047 0.6125 0.3581
vn 0.0000 0.9565 0.2918
vn -0.9966 0.0494 -0.0656
vn -0.7047 -0.5137 -0.4894
vn -0.6645 -0.3253 -0.6728
vn 0.0000 -0.7469 -0.6649
vn 0.7047 -0.5137 -0.4894
vn 0.6645 -0.3253 -0.6728
vn 0.0000 -0.5452 -0.8383
vn 0.9966 0.0494 -0.0656
vn 0.7047 0.6125 0.3581
vn 0.6645 0.7366 0.1263
vn 0.9397 0.2056 -0.2732
vn -0.6240 -0.2156 -0.7511
vn -0.6780 -0.3711 -0.6345
vn -0.9589 0.1706 -0.2268
vn -0.0000 -0.4222 -0.9065
vn 0.8824 0.2829 -0.3759
vn 0.6240 -0.2156 -0.7511
vn 0.0000 0.9880 0.1547
vn 0.6240 0.7815 -0.0008
vn 0.6780 0.7124 0.1809
vn 0.0000 0.9368 0.3498
vn 0.0000 0.8891 0.4577
vn 0.6969 0.6585 0.2841
vn 0.6780 -0.3711 -0.6345
vn -0.0000 -0.5955 -0.8033
vn 0.9589 0.1706 -0.2268
vn -0.6780 0.7124 0.1809
vn -0.0256 -0.5804 0.8139
vn -0.0363 -0.6009 0.7985
vn -0.6969 0.6585 0.2841
vn -0.6969 -0.4553 -0.5541
vn -0.9856 0.1016 -0.1350
vn 0.6969 -0.4553 -0.5541
vn -0.0000 -0.6859 -0.7277
vn 0.9856 0.1016 -0.1350
vn -0.0256 -0.6214 0.7831
vn -0.0000 -0.6299 0.7767
vn 0.0256 -0.6214 0.7831
vn 0.0363 -0.6009 0.7985
vn 0.0256 -0.5804 0.8139
vn -0.0000 -0.5719 0.8203
vn 0.0000 0.6013 -0.7990
vn -0.6766 -0.3657 -0.6392
vn -0.9568 0.1749 -0.2324
vn -0.8581 0.3088 -0.4103
vn -0.6068 -0.1760 -0.7752
vn 0.6766 -0.3657 -0.6392
vn 0.0000 -0.5896 -0.8077
vn 0.0000 -0.3768 -0.9263
vn 0.6068 -0.1760 -0.7752
vn 0.6765 0.7154 0.1745
vn 0.9568 0.1749 -0.2324
vn 0.8581 0.3088 -0.4103
vn 0.6068 0.7936 -0.0455
vn 0.7334 -0.5343 0.4203
vn 0.6844 -0.5769 0.4458
vn 0.0000 -0.7894 0.6139
vn 0.0000 -0.7891 0.6142
vn 0.6897 0.5693 -0.4474
vn 0.7256 0.5453 -0.4198
vn 0.9991 -0.0346 0.0236
vn 0.9990 0.0396 -0.0218
vn -0.6893 -0.0816 -0.7199
vn -0.9994 0.0062 0.0333
vn -0.9988 -0.0241 -0.0427
vn -0.6692 0.0251 -0.7427
vn -0.6844 -0.5769 0.4458
vn -0.7334 -0.5343 0.4203
vn 0.6893 -0.0816 -0.7199
vn 0.0000 -0.1107 -0.9939
vn 0.0000 0.0570 -0.9984
vn 0.6692 0.0251 -0.7427
vn -0.9990 0.0396 -0.0218
vn -0.9991 -0.0346 0.0236
vn -0.7256 0.5453 -0.4198
vn -0.6897 0.5693 -0.4474
vn 0.0000 0.7938 -0.6082
vn 0.0000 0.7812 -0.6243
vn -0.6577 0.0980 0.7469
vn 0.0000 0.1319 0.9913
vn 0.0000 0.0094 1.0000
vn -0.7008 -0.0081 0.7134
vn 0.6577 0.0980 0.7469
vn 0.9994 0.0062 0.0333
vn 0.9988 -0.0241 -0.0427
vn 0.7008 -0.0081 0.7134
vn -0.9986 -0.0356 0.0398
vn -0.7288 0.4649 -0.5027
vn 0.0000 0.8648 0.5021
vn 0.0000 -0.6737 0.7390
vn -0.6759 -0.4968 0.5444
vn 0.9986 -0.0356 0.0398
vn 0.6759 -0.4968 0.5444
vn 0.0000 0.6796 -0.7336
vn 0.7288 0.4649 -0.5027
vn 0.0000 0.4520 -0.8920
vn 0.6801 0.3174 -0.6609
vn 0.9975 0.0126 -0.0700
vn 0.7459 -0.2797 0.6045
vn 0.0000 -0.4066 0.9136
vn -0.7459 -0.2797 0.6045
vn -0.9975 0.0126 -0.0700
vn -0.6801 0.3174 -0.6609
vn 0.1008 -0.6784 0.7278
vn 0.0000 -0.7128 0.7014
vn 0.1033 -0.6762 0.7295
vn 0.1427 0.5989 -0.7880
vn 0.1047 0.6823 -0.7235
vn 0.1084 0.6790 -0.7261
vn 0.1421 0.5934 -0.7923
vn 0.0955 -0.5220 0.8476
vn 0.1389 -0.5981 0.7893
vn 0.1386 -0.5943 0.7922
vn 0.0932 -0.5203 0.8489
vn -0.0000 0.4915 -0.8709
vn 0.0970 0.5217 -0.8476
vn 0.0937 0.5194 -0.8494
vn -0.1389 -0.5981 0.7893
vn -0.0955 -0.5220 0.8476
vn -0.0932 -0.5203 0.8489
vn -0.1386 -0.5943 0.7922
vn -0.1427 0.5989 -0.7880
vn -0.0970 0.5217 -0.8476
vn -0.0937 0.5194 -0.8494
vn -0.1421 0.5934 -0.7923
vn -0.1008 -0.6784 0.7278
vn -0.1033 -0.6762 0.7295
vn 0.0000 0.7185 -0.6955
vn -0.1047 0.6823 -0.7235
vn -0.1084 0.6790 -0.7261
vn 0.7059 0.6364 0.3110
vn 0.0000 0.8783 0.4781
vn 0.6960 0.6445 0.3166
vn 0.6999 -0.5212 -0.4884
vn 0.9944 0.0552 -0.0905
vn 0.9943 0.0715 -0.0792
vn 0.7098 -0.5129 -0.4827
vn -0.6999 -0.5212 -0.4884
vn 0.0000 -0.7582 -0.6521
vn -0.7098 -0.5129 -0.4827
vn -0.7059 0.6364 0.3110
vn -0.9944 0.0552 -0.0905
vn -0.9943 0.0715 -0.0792
vn -0.6960 0.6445 0.3166
vn 0.0000 -0.4918 0.8707
vn -0.9916 -0.0777 0.1033
vn -0.7012 -0.6380 -0.3183
vn 0.0000 -0.6013 0.7990
vn 0.7012 -0.6380 -0.3183
vn 0.9916 -0.0777 0.1033
vn 0.7012 0.4825 0.5249
vn -0.0000 0.7146 0.6995
vn -0.7012 0.4825 0.5249
vn -0.0000 -0.8700 -0.4930
usemtl Black
s 1
f 1//1 2//1 4//2 3//2
f 3//2 4//2 6//3 5//3
f 5//3 6//3 8//4 7//4
f 7//4 8//4 10//5 9//5
f 9//5 10//5 12//6 11//6
f 11//6 12//6 14//7 13//7
f 8//8 6//9 19//9 20//8
f 13//7 14//7 16//10 15//10
f 15//10 16//10 2//1 1//1
f 1//11 3//11 5//11 7//11 9//11 11//11 13//11 15//11
f 24//12 23//13 31//14 32//15
f 14//16 12//17 22//17 23//16
f 10//18 8//8 20//8 21//18
f 16//19 14//16 23//16 24//19
f 6//9 4//20 17//20 19//9
f 12//17 10//18 21//18 22//17
f 2//21 16//19 24//19 18//21
f 4//20 2//21 18//21 17//20
f 27//22 25//23 33//24 35//25
f 22//26 21//27 29//28 30//29
f 20//30 19//31 27//22 28//32
f 17//33 18//34 26//35 25//23
f 18//34 24//12 32//15 26//35
f 23//13 22//26 30//29 31//14
f 21//27 20//30 28//32 29//28
f 19//31 17//33 25//23 27//22
f 33//24 34//36 40//37 39//38 38//39 37//40 36//41 35//25
f 32//15 31//14 39//38 40//37
f 30//29 29//28 37//40 38//39
f 28//32 27//22 35//25 36//41
f 25//23 26//35 34//36 33//24
f 26//35 32//15 40//37 34//36
f 31//14 30//29 38//39 39//38
f 29//28 28//32 36//41 37//40
f 72//42 66//43 122//44 128//45
f 80//46 79//47 87//48 88//49
f 154//50 153//51 80//46 74//52
f 156//53 155//54 78//55 79//47
f 158//56 157//57 76//58 77//59
f 160//60 159//61 73//62 75//63
f 153//51 156//53 79//47 80//46
f 155//54 158//56 77//59 78//55
f 157//57 160//60 75//63 76//58
f 159//61 154//50 74//52 73//62
f 87//48 86//64 94//65 95//66
f 78//55 77//59 85//67 86//64
f 76//58 75//63 83//68 84//69
f 73//62 74//52 82//70 81//71
f 74//52 80//46 88//49 82//70
f 79//47 78//55 86//64 87//48
f 77//59 76//58 84//69 85//67
f 75//63 73//62 81//71 83//68
f 89//72 90//73 98//74 97//75
f 85//67 84//69 92//76 93//77
f 83//68 81//71 89//72 91//78
f 88//49 87//48 95//66 96//79
f 86//64 85//67 93//77 94//65
f 84//69 83//68 91//78 92//76
f 81//71 82//70 90//73 89//72
f 82//70 88//49 96//79 90//73
f 104//80 103//81 111//81 112//80
f 90//73 96//79 104//82 98//74
f 95//66 94//65 102//83 103//84
f 93//77 92//76 100//85 101//86
f 91//78 89//72 97//75 99//87
f 96//79 95//66 103//84 104//82
f 94//65 93//77 101//86 102//83
f 92//76 91//78 99//87 100//85
f 102//88 101//89 109//89 110//88
f 100//90 99//91 107//91 108//90
f 97//92 98//93 106//93 105//92
f 98//93 104//80 112//80 106//93
f 103//81 102//88 110//88 111//81
f 101//89 100//90 108//90 109//89
f 99//91 97//92 105//92 107//91
f 121//94 123//94 124//94 125//94 126//94 127//94 128//94 122//94
f 70//95 71//96 127//97 126//98
f 68//99 69//100 125//101 124//102
f 65//103 67//104 123//105 121//106
f 71//96 72//42 128//45 127//97
f 69//100 70//95 126//98 125//101
f 67//104 68//99 124//102 123//105
f 66//43 65//103 121//106 122//44
f 66//43 72//42 165//51 161//50
f 71//96 70//95 166//54 162//53
f 69//100 68//99 167//57 163//56
f 67//104 65//103 168//61 164//60
f 72//42 71//96 162//53 165//51
f 70//95 69//100 163//56 166//54
f 68//99 67//104 164//60 167//57
f 65//103 66//43 161//50 168//61
usemtl LightMetal
f 41//11 43//11 44//11 45//11 46//11 47//11 48//11 42//11
f 138//107 52//108 53//109 141//110
f 129//111 49//112 51//113 135//114
f 135//114 51//113 52//108 138//107
f 48//115 47//116 148//117 151//118
f 141//110 53//109 54//119 144//120
f 41//121 42//122 132//123 130//124
f 147//125 55//126 56//127 150//128
f 144//120 54//119 55//126 147//125
f 150//128 56//127 50//129 133//130
f 46//131 45//132 142//133 145//134
f 44//135 43//136 136//137 139//138
f 42//122 48//115 151//118 132//123
f 47//116 46//131 145//134 148//117
f 45//132 44//135 139//138 142//133
f 56//127 55//126 63//139 64//140
f 57//141 58//141 64//141 63//141 62//141 61//141 60//141 59//141
f 54//119 53//109 61//142 62//143
f 52//108 51//113 59//144 60//145
f 49//112 50//129 58//146 57//147
f 50//129 56//127 64//140 58//146
f 55//126 54//119 62//143 63//139
f 53//109 52//108 60//145 61//142
f 51//113 49//112 57//147 59//144
f 43//136 41//121 130//124 136//137
f 130//124 132//123 134//148 131//149
f 131//149 134//148 133//130 129//111
f 136//137 130//124 131//149 137//150
f 137//150 131//149 129//111 135//114
f 139//138 136//137 137//150 140//151
f 140//151 137//150 135//114 138//107
f 142//133 139//138 140//151 143//152
f 143//152 140//151 138//107 141//110
f 145//134 142//133 143//152 146//153
f 146//153 143//152 141//110 144//120
f 148//117 145//134 146//153 149//154
f 149//154 146//153 144//120 147//125
f 151//118 148//117 149//154 152//155
f 152//155 149//154 147//125 150//128
f 132//123 151//118 152//155 134//148
f 134//148 152//155 150//128 133//130
f 129//111 133//130 50//129 49//112
f 157//156 158//157 179//157 174//158
f 164//159 168//160 175//161 184//162
f 159//163 160//164 178//165 176//166
f 163//167 167//168 173//169 183//167
f 156//170 153//171 170//172 180//173
f 162//174 166//175 171//176 182//177
f 158//157 155//178 172//179 179//157
f 161//180 165//181 169//182 181//180
f 175//183 181//184 177//184 176//185
f 173//186 184//187 178//188 174//189
f 171//190 183//191 179//191 172//192
f 169//193 182//194 180//195 170//196
f 184//187 175//183 176//185 178//188
f 183//191 173//186 174//189 179//191
f 182//194 171//190 172//192 180//195
f 181//184 169//193 170//196 177//184
f 165//181 162//174 182//177 169//182
f 155//178 156//170 180//173 172//179
f 166//175 163//167 183//167 171//176
f 153//171 154//197 177//197 170//172
f 167//168 164//159 184//162 173//169
f 154//197 159//163 176//166 177//197
f 168//160 161//180 181//180 175//161
f 160//164 157//156 174//158 178//165
usemtl White
f 107//198 105//199 113//199 115//198
f 113//200 114//200 120//200 119//200 118//200 117//200 116//200 115//200
f 112//201 111//202 119//202 120//201
f 110//203 109//204 117//204 118//203
f 108//205 107//198 115//198 116//205
f 105//199 106//206 114//206 113//199
f 106//206 112//201 120//201 114//206
f 111//202 110//203 118//203 119//202
f 109//204 108//205 116//205 117//204
