# Blender v2.79 (sub 0) OBJ File: 'NightStand_2.blend'
# www.blender.org
mtllib NightStand_2.mtl
o NightStand_2_Cube.005
v -0.420824 0.891587 0.420824
v -0.473368 0.949046 0.473368
v -0.420824 0.891587 -0.420824
v -0.473368 0.949046 -0.473368
v 0.420824 0.891587 0.420824
v 0.473368 0.949046 0.473368
v 0.420824 0.891587 -0.420824
v 0.473368 0.949046 -0.473368
v -0.476115 0.918985 0.476115
v -0.476115 0.918985 -0.476115
v 0.476115 0.918985 -0.476115
v 0.476115 0.918985 0.476115
v -0.407949 0.906321 0.407949
v -0.407949 0.906321 -0.407949
v 0.407949 0.906321 0.407949
v 0.407949 0.906321 -0.407949
v -0.407949 0.656329 -0.407949
v -0.407949 0.656329 0.407949
v 0.407949 0.656329 -0.407949
v 0.407949 0.656329 0.407949
v -0.390559 0.879277 0.407949
v 0.390559 0.879277 0.407949
v -0.390559 0.671260 0.407949
v 0.390559 0.671260 0.407949
v -0.369891 0.873773 0.400708
v 0.369891 0.873773 0.400708
v -0.369891 0.676764 0.400708
v 0.369891 0.676764 0.400708
v -0.385311 0.321955 0.385311
v -0.385311 0.321955 -0.385311
v 0.385311 0.321955 0.385311
v 0.385311 0.321955 -0.385311
v -0.385311 0.293635 0.385311
v -0.385311 0.293635 -0.385311
v 0.385311 0.293635 -0.385311
v 0.385311 0.293635 0.385311
v 0.356029 0.895000 0.356029
v 0.356029 0.895000 0.416781
v 0.416782 0.895000 0.356029
v 0.416782 0.895000 0.416781
v 0.349508 0.003794 0.369518
v 0.349508 0.003794 0.403292
v 0.383282 0.003794 0.369518
v 0.383282 0.003794 0.403292
v -0.356029 0.895000 0.356029
v -0.356029 0.895000 0.416781
v -0.416782 0.895000 0.356029
v -0.416782 0.895000 0.416781
v -0.349508 0.003794 0.369518
v -0.349508 0.003794 0.403292
v -0.383282 0.003794 0.369518
v -0.383282 0.003794 0.403292
v 0.356029 0.895000 -0.356029
v 0.356029 0.895000 -0.416781
v 0.416782 0.895000 -0.356029
v 0.416782 0.895000 -0.416781
v 0.349508 0.003794 -0.369518
v 0.349508 0.003794 -0.403292
v 0.383282 0.003794 -0.369518
v 0.383282 0.003794 -0.403292
v -0.356029 0.895000 -0.356029
v -0.356029 0.895000 -0.416781
v -0.416782 0.895000 -0.356029
v -0.416782 0.895000 -0.416781
v -0.349508 0.003794 -0.369518
v -0.349508 0.003794 -0.403292
v -0.383282 0.003794 -0.369518
v -0.383282 0.003794 -0.403292
v 0.000000 0.759078 0.418009
v 0.000000 0.757946 0.378262
v 0.015731 0.765594 0.418009
v 0.016531 0.764794 0.378262
v 0.022247 0.781325 0.418009
v 0.023379 0.781325 0.378262
v 0.015731 0.797056 0.418009
v 0.016531 0.797856 0.378262
v -0.000000 0.803572 0.418009
v -0.000000 0.804704 0.378262
v -0.015731 0.797056 0.418009
v -0.016531 0.797856 0.378262
v -0.022247 0.781325 0.418009
v -0.023379 0.781325 0.378262
v -0.015731 0.765594 0.418009
v -0.016531 0.764794 0.378262
v 0.000000 0.737486 0.433431
v 0.030999 0.750326 0.433431
v 0.043839 0.781325 0.433431
v 0.030999 0.812324 0.433431
v -0.000000 0.825164 0.433431
v -0.030999 0.812324 0.433431
v -0.043839 0.781325 0.433431
v -0.030999 0.750326 0.433431
v 0.000000 0.737486 0.452358
v 0.030999 0.750326 0.452358
v 0.043839 0.781325 0.452358
v 0.030999 0.812324 0.452358
v -0.000000 0.825164 0.452358
v -0.030999 0.812324 0.452358
v -0.043839 0.781325 0.452358
v -0.030999 0.750326 0.452358
v 0.000000 0.753189 0.461470
v 0.019895 0.761430 0.461470
v 0.028136 0.781325 0.461470
v 0.019895 0.801220 0.461470
v -0.000000 0.809461 0.461470
v -0.019895 0.801220 0.461470
v -0.028136 0.781325 0.461470
v -0.019895 0.761430 0.461470
vn -0.9959 0.0910 0.0000
vn 0.0000 0.0910 -0.9959
vn 0.9959 0.0910 0.0000
vn 0.0000 0.0910 0.9959
vn -0.1739 -0.9693 -0.1739
vn 0.1739 -0.9693 -0.1739
vn 0.1739 -0.9693 0.1739
vn -0.1739 -0.9693 0.1739
vn 0.0000 1.0000 0.0000
vn 0.0000 -0.8960 0.4440
vn 0.4440 -0.8960 0.0000
vn 0.0000 -0.8960 -0.4440
vn -0.4440 -0.8960 0.0000
vn 0.0000 -1.0000 0.0000
vn 0.0000 0.0000 1.0000
vn 0.0733 0.0000 0.9973
vn 0.0000 0.0000 -1.0000
vn 1.0000 0.0000 0.0000
vn -1.0000 0.0000 0.0000
vn 0.0000 -0.7961 0.6051
vn -0.0733 0.0000 0.9973
vn -0.1799 0.0000 0.9837
vn 0.1799 0.0000 0.9837
vn 0.0000 0.7961 0.6051
vn 0.0000 -0.0151 0.9999
vn 0.0000 -0.0151 -0.9999
vn 0.9993 -0.0376 0.0000
vn -1.0000 0.0073 0.0000
vn -0.9993 -0.0376 0.0000
vn 1.0000 0.0073 0.0000
vn 0.3826 -0.9236 0.0263
vn 0.9236 -0.3826 0.0263
vn 0.9236 0.3826 0.0263
vn 0.3826 0.9236 0.0263
vn -0.3826 0.9236 0.0263
vn -0.9236 0.3826 0.0263
vn -0.9236 -0.3826 0.0263
vn -0.3826 -0.9236 0.0263
vn -0.4110 0.4110 -0.8138
vn -0.0000 0.5812 -0.8138
vn -0.0000 -0.5812 -0.8138
vn -0.4110 -0.4110 -0.8138
vn 0.4110 0.4110 -0.8138
vn 0.5812 -0.0000 -0.8138
vn -0.5812 0.0000 -0.8138
vn 0.4110 -0.4110 -0.8138
vn 0.3827 0.9239 0.0000
vn -0.3549 -0.3549 0.8649
vn -0.0000 -0.5019 0.8649
vn 0.9239 -0.3827 0.0000
vn -0.9239 -0.3827 0.0000
vn -0.3827 0.9239 0.0000
vn 0.9239 0.3827 0.0000
vn 0.3827 -0.9239 0.0000
vn -0.3827 -0.9239 0.0000
vn -0.9239 0.3827 0.0000
vn -0.3549 0.3549 0.8649
vn -0.5019 -0.0000 0.8649
vn 0.3549 0.3549 0.8649
vn -0.0000 0.5019 0.8649
vn 0.3549 -0.3549 0.8649
vn 0.5019 -0.0000 0.8649
usemtl Wood
s 1
f 9//1 2//1 4//1 10//1
f 10//2 4//2 8//2 11//2
f 11//3 8//3 6//3 12//3
f 12//4 6//4 2//4 9//4
f 3//5 7//6 5//7 1//8
f 8//9 4//9 2//9 6//9
f 5//7 12//10 9//10 1//8
f 7//6 11//11 12//11 5//7
f 3//5 10//12 11//12 7//6
f 1//8 9//13 10//13 3//5
f 14//9 13//9 15//9 16//9
f 17//14 19//14 20//14 18//14
f 13//15 18//15 23//16 21//16
f 14//17 16//17 19//17 17//17
f 16//18 15//18 20//18 19//18
f 13//19 14//19 17//19 18//19
f 22//20 21//20 25//20 26//20
f 20//15 15//15 22//21 24//21
f 18//15 20//15 24//21 23//16
f 15//15 13//15 21//16 22//21
f 26//22 25//23 27//23 28//22
f 24//21 22//21 26//22 28//22
f 23//24 24//24 28//24 27//24
f 21//16 23//16 27//23 25//23
f 32//9 30//9 29//9 31//9
f 35//14 36//14 33//14 34//14
f 31//18 36//18 35//18 32//18
f 30//19 34//19 33//19 29//19
f 29//15 33//15 36//15 31//15
f 32//17 35//17 34//17 30//17
f 37//9 38//9 40//9 39//9
f 41//14 43//14 44//14 42//14
f 40//25 38//25 42//25 44//25
f 37//26 39//26 43//26 41//26
f 39//27 40//27 44//27 43//27
f 38//28 37//28 41//28 42//28
f 45//9 47//9 48//9 46//9
f 49//14 50//14 52//14 51//14
f 48//25 52//25 50//25 46//25
f 45//26 49//26 51//26 47//26
f 47//29 51//29 52//29 48//29
f 46//30 50//30 49//30 45//30
f 53//9 55//9 56//9 54//9
f 57//14 58//14 60//14 59//14
f 56//26 60//26 58//26 54//26
f 53//25 57//25 59//25 55//25
f 55//27 59//27 60//27 56//27
f 54//28 58//28 57//28 53//28
f 61//9 62//9 64//9 63//9
f 65//14 67//14 68//14 66//14
f 64//26 62//26 66//26 68//26
f 61//25 63//25 67//25 65//25
f 63//29 64//29 68//29 67//29
f 62//30 61//30 65//30 66//30
usemtl Metal
f 69//31 70//31 72//31 71//31
f 71//32 72//32 74//32 73//32
f 73//33 74//33 76//33 75//33
f 75//34 76//34 78//34 77//34
f 77//35 78//35 80//35 79//35
f 79//36 80//36 82//36 81//36
f 72//17 70//17 84//17 82//17 80//17 78//17 76//17 74//17
f 81//37 82//37 84//37 83//37
f 83//38 84//38 70//38 69//38
f 79//39 90//39 89//40 77//40
f 69//41 85//41 92//42 83//42
f 75//43 88//43 87//44 73//44
f 81//45 91//45 90//39 79//39
f 73//44 87//44 86//46 71//46
f 77//40 89//40 88//43 75//43
f 83//42 92//42 91//45 81//45
f 88//47 89//47 97//47 96//47
f 100//48 93//49 101//49 108//48
f 86//50 87//50 95//50 94//50
f 91//51 92//51 100//51 99//51
f 89//52 90//52 98//52 97//52
f 87//53 88//53 96//53 95//53
f 85//54 86//54 94//54 93//54
f 92//55 85//55 93//55 100//55
f 90//56 91//56 99//56 98//56
f 101//15 102//15 103//15 104//15 105//15 106//15 107//15 108//15
f 98//57 99//58 107//58 106//57
f 96//59 97//60 105//60 104//59
f 94//61 95//62 103//62 102//61
f 99//58 100//48 108//48 107//58
f 97//60 98//57 106//57 105//60
f 95//62 96//59 104//59 103//62
f 93//49 94//61 102//61 101//49
f 71//46 86//46 85//41 69//41
