# Blender v2.79 (sub 0) OBJ File: 'NightStand_3.blend'
# www.blender.org
mtllib NightStand_3.mtl
o NightStand_3_Cube.006
v -0.420824 0.771255 0.420824
v -0.473368 0.828713 0.473368
v -0.420824 0.771255 -0.420824
v -0.473368 0.828713 -0.473368
v 0.420824 0.771255 0.420824
v 0.473368 0.828713 0.473368
v 0.420824 0.771255 -0.420824
v 0.473368 0.828713 -0.473368
v -0.476115 0.798653 0.476115
v -0.476115 0.798653 -0.476115
v 0.476115 0.798653 -0.476115
v 0.476115 0.798653 0.476115
v 0.355245 0.781598 0.409851
v 0.355245 0.781598 0.350156
v 0.414940 0.781598 0.409851
v 0.414940 0.781598 0.350156
v 0.355245 0.001661 0.350156
v 0.355245 0.001661 0.409851
v 0.414940 0.001661 0.350156
v 0.414940 0.001661 0.409851
v -0.355245 0.781598 0.409851
v -0.355245 0.781598 0.350156
v -0.414940 0.781598 0.409851
v -0.414940 0.781598 0.350156
v -0.355245 0.001661 0.350156
v -0.355245 0.001661 0.409851
v -0.414940 0.001661 0.350156
v -0.414940 0.001661 0.409851
v 0.355245 0.781598 -0.409851
v 0.355245 0.781598 -0.350156
v 0.414940 0.781598 -0.409851
v 0.414940 0.781598 -0.350156
v 0.355245 0.001661 -0.350156
v 0.355245 0.001661 -0.409851
v 0.414940 0.001661 -0.350156
v 0.414940 0.001661 -0.409851
v -0.355245 0.781598 -0.409851
v -0.355245 0.781598 -0.350156
v -0.414940 0.781598 -0.409851
v -0.414940 0.781598 -0.350156
v -0.355245 0.001661 -0.350156
v -0.355245 0.001661 -0.409851
v -0.414940 0.001661 -0.350156
v -0.414940 0.001661 -0.409851
v -0.400633 0.777406 0.400633
v -0.400633 0.777406 -0.400633
v 0.400633 0.777406 0.400633
v 0.400633 0.777406 -0.400633
v -0.376528 0.759513 0.400633
v 0.376528 0.759513 0.400633
v -0.376528 0.459060 0.400633
v 0.376528 0.459060 0.400633
v -0.347311 0.747856 0.384952
v 0.347311 0.747856 0.384952
v -0.347311 0.470717 0.384952
v 0.347311 0.470717 0.384952
v 0.000000 0.581771 0.418009
v 0.000000 0.580639 0.378262
v 0.015731 0.588287 0.418009
v 0.016531 0.587487 0.378262
v 0.022247 0.604018 0.418009
v 0.023379 0.604018 0.378262
v 0.015731 0.619749 0.418009
v 0.016531 0.620549 0.378262
v -0.000000 0.626265 0.418009
v -0.000000 0.627397 0.378262
v -0.015731 0.619749 0.418009
v -0.016531 0.620549 0.378262
v -0.022247 0.604018 0.418009
v -0.023379 0.604018 0.378262
v -0.015731 0.588287 0.418009
v -0.016531 0.587487 0.378262
v 0.000000 0.560179 0.433431
v 0.030999 0.573019 0.433431
v 0.043839 0.604018 0.433431
v 0.030999 0.635017 0.433431
v -0.000000 0.647857 0.433431
v -0.030999 0.635017 0.433431
v -0.043839 0.604018 0.433431
v -0.030999 0.573019 0.433431
v 0.000000 0.560179 0.452358
v 0.030999 0.573019 0.452358
v 0.043839 0.604018 0.452358
v 0.030999 0.635017 0.452358
v -0.000000 0.647857 0.452358
v -0.030999 0.635017 0.452358
v -0.043839 0.604018 0.452358
v -0.030999 0.573019 0.452358
v 0.000000 0.575882 0.461470
v 0.019895 0.584123 0.461470
v 0.028136 0.604018 0.461470
v 0.019895 0.623913 0.461470
v -0.000000 0.632154 0.461470
v -0.019895 0.623913 0.461470
v -0.028136 0.604018 0.461470
v -0.019895 0.584123 0.461470
v -0.400633 0.104930 0.400633
v -0.400633 0.104930 -0.400633
v 0.400633 0.104930 0.400633
v 0.400633 0.104930 -0.400633
v -0.400633 0.441168 -0.400633
v -0.400633 0.441168 0.400633
v 0.400633 0.441168 -0.400633
v 0.400633 0.441168 0.400633
v -0.376528 0.122822 0.400633
v 0.376528 0.122822 0.400633
v -0.376528 0.423275 0.400633
v 0.376528 0.423275 0.400633
v -0.347311 0.134479 0.384952
v 0.347311 0.134479 0.384952
v -0.347311 0.411618 0.384952
v 0.347311 0.411618 0.384952
v 0.000000 0.300565 0.418009
v 0.000000 0.301696 0.378262
v 0.015731 0.294049 0.418009
v 0.016531 0.294849 0.378262
v 0.022247 0.278318 0.418009
v 0.023379 0.278318 0.378262
v 0.015731 0.262586 0.418009
v 0.016531 0.261786 0.378262
v -0.000000 0.256070 0.418009
v -0.000000 0.254939 0.378262
v -0.015731 0.262586 0.418009
v -0.016531 0.261786 0.378262
v -0.022247 0.278318 0.418009
v -0.023379 0.278318 0.378262
v -0.015731 0.294049 0.418009
v -0.016531 0.294849 0.378262
v 0.000000 0.322157 0.433431
v 0.030999 0.309316 0.433431
v 0.043839 0.278318 0.433431
v 0.030999 0.247319 0.433431
v -0.000000 0.234478 0.433431
v -0.030999 0.247319 0.433431
v -0.043839 0.278318 0.433431
v -0.030999 0.309316 0.433431
v 0.000000 0.322157 0.452358
v 0.030999 0.309316 0.452358
v 0.043839 0.278318 0.452358
v 0.030999 0.247319 0.452358
v -0.000000 0.234478 0.452358
v -0.030999 0.247319 0.452358
v -0.043839 0.278318 0.452358
v -0.030999 0.309316 0.452358
v 0.000000 0.306453 0.461470
v 0.019895 0.298212 0.461470
v 0.028136 0.278318 0.461470
v 0.019895 0.258423 0.461470
v -0.000000 0.250182 0.461470
v -0.019895 0.258423 0.461470
v -0.028136 0.278318 0.461470
v -0.019895 0.298212 0.461470
vn -0.9959 0.0910 0.0000
vn 0.0000 0.0910 -0.9959
vn 0.9959 0.0910 0.0000
vn 0.0000 0.0910 0.9959
vn -0.1739 -0.9693 -0.1739
vn 0.1739 -0.9693 -0.1739
vn 0.1739 -0.9693 0.1739
vn -0.1739 -0.9693 0.1739
vn 0.0000 1.0000 0.0000
vn 0.0000 -0.8960 0.4440
vn 0.4440 -0.8960 0.0000
vn 0.0000 -0.8960 -0.4440
vn -0.4440 -0.8960 0.0000
vn 0.0000 -1.0000 0.0000
vn 1.0000 0.0000 0.0000
vn -1.0000 0.0000 0.0000
vn 0.0000 0.0000 1.0000
vn 0.0000 0.0000 -1.0000
vn 0.1000 0.0000 0.9950
vn -0.1000 0.0000 0.9950
vn -0.2674 0.0000 0.9636
vn 0.2674 0.0000 0.9636
vn 0.0000 0.8025 0.5966
vn 0.0000 -0.8025 0.5966
vn 0.3826 -0.9236 0.0263
vn 0.9236 -0.3826 0.0263
vn 0.9236 0.3826 0.0263
vn 0.3826 0.9236 0.0263
vn -0.3826 0.9236 0.0263
vn -0.9236 0.3826 0.0263
vn -0.9236 -0.3826 0.0263
vn -0.3826 -0.9236 0.0263
vn -0.4110 0.4110 -0.8138
vn -0.0000 0.5812 -0.8138
vn -0.0000 -0.5812 -0.8138
vn -0.4110 -0.4110 -0.8138
vn 0.4110 0.4110 -0.8138
vn 0.5812 -0.0000 -0.8138
vn -0.5812 0.0000 -0.8138
vn 0.4110 -0.4110 -0.8138
vn 0.3827 0.9239 0.0000
vn -0.3549 -0.3549 0.8649
vn -0.0000 -0.5019 0.8649
vn 0.9239 -0.3827 0.0000
vn -0.9239 -0.3827 0.0000
vn -0.3827 0.9239 0.0000
vn 0.9239 0.3827 0.0000
vn 0.3827 -0.9239 0.0000
vn -0.3827 -0.9239 0.0000
vn -0.9239 0.3827 0.0000
vn -0.3549 0.3549 0.8649
vn -0.5019 0.0000 0.8649
vn 0.3549 0.3549 0.8649
vn -0.0000 0.5019 0.8649
vn 0.3549 -0.3549 0.8649
vn 0.5019 0.0000 0.8649
usemtl Wood
s 1
f 9//1 2//1 4//1 10//1
f 10//2 4//2 8//2 11//2
f 11//3 8//3 6//3 12//3
f 12//4 6//4 2//4 9//4
f 3//5 7//6 5//7 1//8
f 8//9 4//9 2//9 6//9
f 5//7 12//10 9//10 1//8
f 7//6 11//11 12//11 5//7
f 3//5 10//12 11//12 7//6
f 1//8 9//13 10//13 3//5
f 14//9 13//9 15//9 16//9
f 17//14 19//14 20//14 18//14
f 15//15 20//15 19//15 16//15
f 14//16 17//16 18//16 13//16
f 13//17 18//17 20//17 15//17
f 16//18 19//18 17//18 14//18
f 22//9 24//9 23//9 21//9
f 25//14 26//14 28//14 27//14
f 23//16 24//16 27//16 28//16
f 22//15 21//15 26//15 25//15
f 21//17 23//17 28//17 26//17
f 24//18 22//18 25//18 27//18
f 30//9 32//9 31//9 29//9
f 33//14 34//14 36//14 35//14
f 31//15 32//15 35//15 36//15
f 30//16 29//16 34//16 33//16
f 29//18 31//18 36//18 34//18
f 32//17 30//17 33//17 35//17
f 38//9 37//9 39//9 40//9
f 41//14 43//14 44//14 42//14
f 39//16 44//16 43//16 40//16
f 38//15 41//15 42//15 37//15
f 37//18 42//18 44//18 39//18
f 40//17 43//17 41//17 38//17
f 46//9 45//9 47//9 48//9
f 45//16 46//16 101//16 102//16
f 45//17 102//17 51//19 49//19
f 46//18 48//18 103//18 101//18
f 48//15 47//15 104//15 103//15
f 52//20 50//20 54//21 56//21
f 102//17 104//17 52//20 51//19
f 47//17 45//17 49//19 50//20
f 104//17 47//17 50//20 52//20
f 54//21 53//22 55//22 56//21
f 51//23 52//23 56//23 55//23
f 49//19 51//19 55//22 53//22
f 50//24 49//24 53//24 54//24
f 98//14 100//14 99//14 97//14
f 97//16 102//16 101//16 98//16
f 97//17 105//19 107//19 102//17
f 98//18 101//18 103//18 100//18
f 100//15 103//15 104//15 99//15
f 108//20 112//21 110//21 106//20
f 102//17 107//19 108//20 104//17
f 99//17 106//20 105//19 97//17
f 104//17 108//20 106//20 99//17
f 110//21 112//21 111//22 109//22
f 107//24 111//24 112//24 108//24
f 105//19 109//22 111//22 107//19
f 106//23 110//23 109//23 105//23
usemtl Metal
f 57//25 58//25 60//25 59//25
f 59//26 60//26 62//26 61//26
f 61//27 62//27 64//27 63//27
f 63//28 64//28 66//28 65//28
f 65//29 66//29 68//29 67//29
f 67//30 68//30 70//30 69//30
f 60//18 58//18 72//18 70//18 68//18 66//18 64//18 62//18
f 69//31 70//31 72//31 71//31
f 71//32 72//32 58//32 57//32
f 67//33 78//33 77//34 65//34
f 57//35 73//35 80//36 71//36
f 63//37 76//37 75//38 61//38
f 69//39 79//39 78//33 67//33
f 61//38 75//38 74//40 59//40
f 65//34 77//34 76//37 63//37
f 71//36 80//36 79//39 69//39
f 76//41 77//41 85//41 84//41
f 88//42 81//43 89//43 96//42
f 74//44 75//44 83//44 82//44
f 79//45 80//45 88//45 87//45
f 77//46 78//46 86//46 85//46
f 75//47 76//47 84//47 83//47
f 73//48 74//48 82//48 81//48
f 80//49 73//49 81//49 88//49
f 78//50 79//50 87//50 86//50
f 89//17 90//17 91//17 92//17 93//17 94//17 95//17 96//17
f 86//51 87//52 95//52 94//51
f 84//53 85//54 93//54 92//53
f 82//55 83//56 91//56 90//55
f 87//52 88//42 96//42 95//52
f 85//54 86//51 94//51 93//54
f 83//56 84//53 92//53 91//56
f 81//43 82//55 90//55 89//43
f 59//40 74//40 73//35 57//35
f 113//28 115//28 116//28 114//28
f 115//27 117//27 118//27 116//27
f 117//26 119//26 120//26 118//26
f 119//25 121//25 122//25 120//25
f 121//32 123//32 124//32 122//32
f 123//31 125//31 126//31 124//31
f 116//18 118//18 120//18 122//18 124//18 126//18 128//18 114//18
f 125//30 127//30 128//30 126//30
f 127//29 113//29 114//29 128//29
f 123//36 121//35 133//35 134//36
f 113//34 127//33 136//33 129//34
f 119//40 117//38 131//38 132//40
f 125//39 123//36 134//36 135//39
f 117//38 115//37 130//37 131//38
f 121//35 119//40 132//40 133//35
f 127//33 125//39 135//39 136//33
f 132//48 140//48 141//48 133//48
f 144//51 152//51 145//54 137//54
f 130//47 138//47 139//47 131//47
f 135//50 143//50 144//50 136//50
f 133//49 141//49 142//49 134//49
f 131//44 139//44 140//44 132//44
f 129//41 137//41 138//41 130//41
f 136//46 144//46 137//46 129//46
f 134//45 142//45 143//45 135//45
f 145//17 152//17 151//17 150//17 149//17 148//17 147//17 146//17
f 142//42 150//42 151//52 143//52
f 140//55 148//55 149//43 141//43
f 138//53 146//53 147//56 139//56
f 143//52 151//52 152//51 144//51
f 141//43 149//43 150//42 142//42
f 139//56 147//56 148//55 140//55
f 137//54 145//54 146//53 138//53
f 115//37 113//34 129//34 130//37
