# Blender v2.79 (sub 0) OBJ File: 'Shelf_1.blend'
# www.blender.org
mtllib Shelf_1.mtl
o Shelf_1_Cube.094
v -0.353672 0.000000 0.326092
v -0.353672 0.047033 0.326092
v -0.353672 -0.000000 -0.326092
v -0.353672 0.047033 -0.326092
v 0.353672 0.000000 0.326092
v 0.353672 0.047033 0.326092
v 0.353672 -0.000000 -0.326092
v 0.353672 0.047033 -0.326092
v -0.353672 3.119656 0.326092
v -0.353672 3.166689 0.326092
v -0.353672 3.119656 -0.326092
v -0.353672 3.166689 -0.326092
v 0.353672 3.119656 0.326092
v 0.353672 3.166689 0.326092
v 0.353672 3.119656 -0.326092
v 0.353672 3.166689 -0.326092
v 0.323669 2.547967 -0.306341
v 0.323669 2.519586 -0.306341
v 0.323669 2.547967 0.249683
v 0.323669 2.519586 0.249683
v -0.323669 2.547967 -0.306341
v -0.323669 2.519586 -0.306341
v -0.323669 2.547967 0.249683
v -0.323669 2.519586 0.249683
v 0.323669 1.920749 -0.306341
v 0.323669 1.892368 -0.306341
v 0.323669 1.920749 0.249683
v 0.323669 1.892368 0.249683
v -0.323669 1.920749 -0.306341
v -0.323669 1.892368 -0.306341
v -0.323669 1.920749 0.249683
v -0.323669 1.892368 0.249683
v 0.323669 1.293531 -0.306341
v 0.323669 1.265150 -0.306341
v 0.323669 1.293531 0.249683
v 0.323669 1.265150 0.249683
v -0.323669 1.293531 -0.306341
v -0.323669 1.265150 -0.306341
v -0.323669 1.293531 0.249683
v -0.323669 1.265150 0.249683
v 0.323669 0.666313 -0.306341
v 0.323669 0.637932 -0.306341
v 0.323669 0.666313 0.249683
v 0.323669 0.637932 0.249683
v -0.323669 0.666313 -0.306341
v -0.323669 0.637932 -0.306341
v -0.323669 0.666313 0.249683
v -0.323669 0.637932 0.249683
v 0.297965 3.126288 0.289130
v 0.344998 3.126288 0.289130
v 0.297965 3.126289 -0.316538
v 0.344998 3.126289 -0.316538
v 0.297965 0.020812 0.289130
v 0.344999 0.020812 0.289130
v 0.297965 0.020812 -0.316538
v 0.344998 0.020812 -0.316538
v -0.297965 3.126288 0.289130
v -0.344998 3.126288 0.289130
v -0.297965 3.126289 -0.316538
v -0.344998 3.126289 -0.316538
v -0.297966 0.020812 0.289130
v -0.344999 0.020812 0.289130
v -0.297965 0.020812 -0.316538
v -0.344998 0.020812 -0.316538
vn -1.0000 0.0000 0.0000
vn 0.0000 0.0000 -1.0000
vn 1.0000 0.0000 0.0000
vn 0.0000 0.0000 1.0000
vn 0.0000 -1.0000 0.0000
vn 0.0000 1.0000 -0.0000
usemtl White
s off
f 1//1 2//1 4//1 3//1
f 3//2 4//2 8//2 7//2
f 7//3 8//3 6//3 5//3
f 5//4 6//4 2//4 1//4
f 3//5 7//5 5//5 1//5
f 8//6 4//6 2//6 6//6
f 9//1 10//1 12//1 11//1
f 11//2 12//2 16//2 15//2
f 15//3 16//3 14//3 13//3
f 13//4 14//4 10//4 9//4
f 11//5 15//5 13//5 9//5
f 16//6 12//6 10//6 14//6
f 22//5 18//5 20//5 24//5
f 22//2 21//2 17//2 18//2
f 24//1 23//1 21//1 22//1
f 20//4 19//4 23//4 24//4
f 17//6 21//6 23//6 19//6
f 18//3 17//3 19//3 20//3
f 30//5 26//5 28//5 32//5
f 30//2 29//2 25//2 26//2
f 32//1 31//1 29//1 30//1
f 28//4 27//4 31//4 32//4
f 25//6 29//6 31//6 27//6
f 26//3 25//3 27//3 28//3
f 38//5 34//5 36//5 40//5
f 38//2 37//2 33//2 34//2
f 40//1 39//1 37//1 38//1
f 36//4 35//4 39//4 40//4
f 33//6 37//6 39//6 35//6
f 34//3 33//3 35//3 36//3
f 46//5 42//5 44//5 48//5
f 46//2 45//2 41//2 42//2
f 48//1 47//1 45//1 46//1
f 44//4 43//4 47//4 48//4
f 41//6 45//6 47//6 43//6
f 42//3 41//3 43//3 44//3
f 49//6 50//6 52//6 51//6
f 51//2 52//2 56//2 55//2
f 55//5 56//5 54//5 53//5
f 53//4 54//4 50//4 49//4
f 51//1 55//1 53//1 49//1
f 56//3 52//3 50//3 54//3
f 57//6 59//6 60//6 58//6
f 59//2 63//2 64//2 60//2
f 63//5 61//5 62//5 64//5
f 61//4 57//4 58//4 62//4
f 59//3 57//3 61//3 63//3
f 64//1 62//1 58//1 60//1
