# Blender v2.79 (sub 0) OBJ File: 'Stool.blend'
# www.blender.org
mtllib Stool.mtl
o Stool_Cylinder.028
v 0.000043 1.253373 -0.349968
v 0.000043 1.288920 -0.355049
v 0.205749 1.253373 -0.283130
v 0.208736 1.288920 -0.287241
v 0.332882 1.253373 -0.108146
v 0.337715 1.288920 -0.109716
v 0.332882 1.253373 0.108146
v 0.337715 1.288920 0.109716
v 0.205749 1.253373 0.283130
v 0.208736 1.288920 0.287241
v 0.000043 1.253373 0.349968
v 0.000043 1.288920 0.355049
v -0.205663 1.253373 0.283130
v -0.208650 1.288920 0.287241
v -0.332796 1.253373 0.108146
v -0.337629 1.288920 0.109716
v -0.332796 1.253373 -0.108146
v -0.337629 1.288920 -0.109716
v -0.205663 1.253373 -0.283130
v -0.208650 1.288920 -0.287241
v 0.194647 1.307238 -0.267850
v 0.000043 1.307238 -0.331081
v 0.314919 1.307238 -0.102310
v 0.314919 1.307238 0.102310
v 0.194647 1.307238 0.267850
v 0.000043 1.307238 0.331081
v -0.194562 1.307238 0.267850
v -0.314834 1.307238 0.102310
v -0.314834 1.307238 -0.102310
v -0.194562 1.307238 -0.267850
v 0.182158 1.307238 -0.250660
v 0.000043 1.307238 -0.309833
v 0.294711 1.307238 -0.095744
v 0.294711 1.307238 0.095744
v 0.182158 1.307238 0.250660
v 0.000043 1.307238 0.309833
v -0.182072 1.307238 0.250660
v -0.294626 1.307238 0.095744
v -0.294626 1.307238 -0.095744
v -0.182072 1.307238 -0.250660
v 0.175103 1.337402 -0.240949
v 0.000043 1.337402 -0.297829
v 0.283295 1.337402 -0.092034
v 0.283295 1.337402 0.092034
v 0.175102 1.337402 0.240949
v 0.000043 1.337402 0.297829
v -0.175017 1.337402 0.240949
v -0.283210 1.337402 0.092034
v -0.283210 1.337402 -0.092034
v -0.175017 1.337402 -0.240949
v 0.141470 1.363424 -0.194657
v 0.000043 1.363424 -0.240610
v 0.228876 1.363424 -0.074352
v 0.228876 1.363424 0.074352
v 0.141470 1.363424 0.194657
v 0.000043 1.363424 0.240610
v -0.141384 1.363424 0.194657
v -0.228790 1.363424 0.074352
v -0.228790 1.363424 -0.074352
v -0.141384 1.363424 -0.194657
v 0.000043 1.152459 -0.331174
v 0.194702 1.152459 -0.267925
v 0.315008 1.152459 -0.102338
v 0.315008 1.152459 0.102338
v 0.194702 1.152459 0.267925
v 0.000043 1.152459 0.331174
v -0.194616 1.152459 0.267925
v -0.314922 1.152459 0.102338
v -0.314922 1.152459 -0.102338
v -0.194616 1.152459 -0.267925
v 0.000043 1.115802 -0.331174
v 0.194702 1.115802 -0.267925
v 0.315008 1.115802 -0.102338
v 0.315008 1.115802 0.102338
v 0.194702 1.115802 0.267925
v 0.000043 1.115802 0.331174
v -0.194616 1.115802 0.267925
v -0.314922 1.115802 0.102338
v -0.314922 1.115802 -0.102338
v -0.194616 1.115802 -0.267925
v -0.201687 0.600174 -0.277657
v -0.326363 0.600174 -0.106056
v -0.326363 0.600174 0.106056
v -0.201687 0.600174 0.277657
v 0.000043 0.600174 0.343203
v 0.201773 0.600174 0.277657
v 0.326448 0.600174 0.106056
v 0.326448 0.600174 -0.106056
v 0.201773 0.600174 -0.277657
v 0.000043 0.600174 -0.343203
v 0.000043 1.152459 -0.316803
v 0.186255 1.152459 -0.256299
v 0.301340 1.152459 -0.097897
v 0.301340 1.152459 0.097897
v 0.186255 1.152459 0.256299
v 0.000043 1.152459 0.316803
v -0.186169 1.152459 0.256299
v -0.301254 1.152459 0.097897
v -0.301254 1.152459 -0.097897
v -0.186169 1.152459 -0.256299
v 0.000043 1.115802 -0.316803
v 0.186255 1.115802 -0.256299
v 0.301340 1.115802 -0.097897
v 0.301340 1.115802 0.097897
v 0.186255 1.115802 0.256299
v 0.000043 1.115802 0.316803
v -0.186169 1.115802 0.256299
v -0.301254 1.115802 0.097897
v -0.301254 1.115802 -0.097897
v -0.186169 1.115802 -0.256299
v -0.201687 0.638162 -0.277657
v -0.326363 0.638162 -0.106056
v -0.326363 0.638162 0.106056
v -0.201687 0.638162 0.277657
v 0.000043 0.638162 0.343203
v 0.201773 0.638162 0.277657
v 0.326448 0.638162 0.106056
v 0.326448 0.638162 -0.106056
v 0.201773 0.638162 -0.277657
v 0.000043 0.638162 -0.343203
v -0.216276 1.262752 0.234274
v -0.189005 1.263516 0.251599
v -0.223397 1.196335 0.233688
v -0.240917 1.201951 0.257968
v -0.198687 1.196396 0.251505
v -0.216208 1.202012 0.275785
v -0.225748 1.134056 0.237554
v -0.242043 1.116622 0.260620
v -0.198757 1.134374 0.256863
v -0.215051 1.116940 0.279928
v -0.260793 0.278538 0.279447
v -0.232113 0.278654 0.299931
v -0.213325 0.290382 0.273482
v -0.242005 0.290266 0.252998
v -0.251673 0.002919 0.271079
v -0.270040 0.010492 0.296801
v -0.224474 0.002468 0.290711
v -0.242841 0.010040 0.316434
v -0.251972 -0.008878 0.272142
v -0.270339 -0.008878 0.297864
v -0.224773 -0.008878 0.291774
v -0.243140 -0.008878 0.317497
v -0.236906 1.279714 0.263417
v -0.227786 1.272255 0.250629
v -0.209649 1.280491 0.280764
v -0.200515 1.273020 0.267954
v 0.213920 1.258948 0.231395
v 0.187746 1.257233 0.250274
v 0.223483 1.196335 0.233688
v 0.241003 1.201951 0.257968
v 0.198773 1.196396 0.251505
v 0.216293 1.202012 0.275785
v 0.225834 1.134056 0.237554
v 0.242129 1.116622 0.260620
v 0.198842 1.134374 0.256863
v 0.215137 1.116940 0.279928
v 0.260793 0.278538 0.279447
v 0.232113 0.278654 0.299931
v 0.213325 0.290382 0.273482
v 0.242005 0.290266 0.252998
v 0.251673 0.002919 0.271079
v 0.270040 0.010492 0.296801
v 0.224474 0.002468 0.290711
v 0.242841 0.010040 0.316434
v 0.251972 -0.008878 0.272142
v 0.270339 -0.008878 0.297864
v 0.224773 -0.008878 0.291774
v 0.243140 -0.008878 0.317497
v 0.235687 1.274312 0.260598
v 0.226069 1.267551 0.247786
v 0.209528 1.272608 0.279499
v 0.199895 1.265837 0.266666
v -0.195028 1.269079 0.199416
v -0.167111 1.269982 0.215671
v -0.210726 1.297432 0.222052
v -0.203774 1.284963 0.212124
v -0.182819 1.298355 0.238323
v -0.175857 1.285866 0.228379
v 0.205794 1.271735 0.222728
v 0.179683 1.269486 0.241637
v 0.223033 1.292864 0.245972
v 0.216098 1.284858 0.237285
v 0.198168 1.292936 0.267586
v 0.189986 1.282609 0.256195
v -0.216276 1.262752 -0.234274
v -0.189005 1.263516 -0.251599
v -0.223397 1.196335 -0.233688
v -0.240917 1.201951 -0.257968
v -0.198687 1.196396 -0.251505
v -0.216208 1.202012 -0.275785
v -0.225748 1.134056 -0.237554
v -0.242043 1.116622 -0.260620
v -0.198757 1.134374 -0.256863
v -0.215051 1.116940 -0.279928
v -0.260793 0.278538 -0.279447
v -0.232113 0.278654 -0.299931
v -0.213325 0.290382 -0.273482
v -0.242005 0.290266 -0.252998
v -0.251673 0.002919 -0.271079
v -0.270040 0.010492 -0.296801
v -0.224474 0.002468 -0.290711
v -0.242841 0.010040 -0.316434
v -0.251972 -0.008878 -0.272142
v -0.270339 -0.008878 -0.297864
v -0.224773 -0.008878 -0.291774
v -0.243140 -0.008878 -0.317497
v -0.236906 1.279714 -0.263417
v -0.227786 1.272255 -0.250629
v -0.209649 1.280491 -0.280764
v -0.200515 1.273020 -0.267954
v 0.213920 1.258948 -0.231395
v 0.187746 1.257233 -0.250274
v 0.223483 1.196335 -0.233688
v 0.241003 1.201951 -0.257968
v 0.198773 1.196396 -0.251505
v 0.216293 1.202012 -0.275785
v 0.225834 1.134056 -0.237554
v 0.242129 1.116622 -0.260620
v 0.198842 1.134374 -0.256863
v 0.215137 1.116940 -0.279928
v 0.260793 0.278538 -0.279447
v 0.232113 0.278654 -0.299931
v 0.213325 0.290382 -0.273482
v 0.242005 0.290266 -0.252998
v 0.251673 0.002919 -0.271079
v 0.270040 0.010492 -0.296801
v 0.224474 0.002468 -0.290711
v 0.242841 0.010040 -0.316434
v 0.251972 -0.008878 -0.272142
v 0.270339 -0.008878 -0.297864
v 0.224773 -0.008878 -0.291774
v 0.243140 -0.008878 -0.317497
v 0.235687 1.274312 -0.260598
v 0.226069 1.267551 -0.247786
v 0.209528 1.272608 -0.279499
v 0.199895 1.265837 -0.266666
v -0.195028 1.269079 -0.199416
v -0.167111 1.269982 -0.215671
v -0.210726 1.297432 -0.222052
v -0.203774 1.284963 -0.212124
v -0.182819 1.298355 -0.238323
v -0.175857 1.285866 -0.228379
v 0.205794 1.271735 -0.222728
v 0.179683 1.269486 -0.241637
v 0.223033 1.292864 -0.245972
v 0.216098 1.284858 -0.237285
v 0.198168 1.292936 -0.267586
v 0.189986 1.282609 -0.256195
v 0.000043 0.638162 -0.328310
v 0.193019 0.638162 -0.265609
v 0.312284 0.638162 -0.101453
v 0.312284 0.638162 0.101453
v 0.193019 0.638162 0.265609
v 0.000043 0.638162 0.328310
v -0.192933 0.638162 0.265609
v -0.312199 0.638162 0.101453
v -0.312199 0.638162 -0.101453
v -0.192933 0.638162 -0.265609
v 0.000043 0.600174 -0.328310
v 0.193019 0.600174 -0.265609
v 0.312284 0.600174 -0.101453
v 0.312284 0.600174 0.101453
v 0.193019 0.600174 0.265609
v 0.000043 0.600174 0.328310
v -0.192933 0.600174 0.265609
v -0.312199 0.600174 0.101453
v -0.312199 0.600174 -0.101453
v -0.192933 0.600174 -0.265609
vn 0.0000 -0.1415 -0.9899
vn 0.5819 -0.1415 -0.8009
vn 0.9415 -0.1415 -0.3059
vn 0.9415 -0.1415 0.3059
vn 0.5819 -0.1415 0.8009
vn 0.0000 -0.1415 0.9899
vn -0.5819 -0.1415 0.8009
vn -0.9415 -0.1415 0.3059
vn -0.9415 -0.1415 -0.3059
vn -0.0000 0.7945 0.6072
vn 0.3569 0.7945 0.4913
vn 0.2207 0.9268 0.3038
vn -0.0000 0.9268 0.3755
vn -0.5819 -0.1415 -0.8009
vn 0.0000 -1.0000 0.0000
vn 0.3571 0.9268 -0.1160
vn 0.2207 0.9268 -0.3038
vn 0.0000 1.0000 0.0000
vn 0.5775 0.7945 0.1876
vn 0.3571 0.9268 0.1160
vn 0.3569 0.7945 -0.4913
vn 0.0000 0.7945 -0.6072
vn 0.0000 0.9268 -0.3755
vn 0.5775 0.7945 -0.1876
vn -0.3569 0.7945 -0.4913
vn -0.2207 0.9268 -0.3038
vn -0.5775 0.7945 -0.1876
vn -0.3571 0.9268 -0.1160
vn -0.5775 0.7945 0.1876
vn -0.3571 0.9268 0.1160
vn -0.3569 0.7945 0.4913
vn -0.2207 0.9268 0.3038
vn -0.0000 0.0000 1.0000
vn -0.5878 0.0000 0.8090
vn 0.9511 0.0000 0.3090
vn 0.9511 0.0000 -0.3090
vn 0.5878 0.0000 0.8090
vn -0.9511 0.0000 0.3090
vn 0.0000 0.0000 -1.0000
vn 0.5878 0.0000 -0.8090
vn -0.9511 0.0000 -0.3090
vn -0.5878 0.0000 -0.8090
vn -0.5601 -0.0174 0.8282
vn -0.5722 0.0081 0.8201
vn -0.5716 0.0069 0.8205
vn 0.8222 -0.0131 0.5690
vn 0.8157 -0.0273 0.5778
vn 0.8103 -0.0426 0.5844
vn 0.7984 -0.0410 0.6008
vn 0.8003 -0.0275 0.5990
vn 0.8141 0.0119 0.5806
vn 0.8107 0.0294 0.5847
vn 0.5596 -0.0662 -0.8261
vn 0.5707 -0.0688 -0.8183
vn 0.5712 -0.0689 -0.8179
vn 0.8154 -0.0039 -0.5789
vn 0.8147 -0.0158 -0.5797
vn 0.8148 -0.0173 -0.5795
vn 0.8162 -0.0002 -0.5778
vn -0.8028 0.0455 -0.5945
vn -0.8047 0.0366 -0.5926
vn -0.8144 -0.0029 -0.5804
vn -0.8160 0.0016 -0.5780
vn -0.5822 0.0318 0.8124
vn 0.5819 -0.0486 -0.8118
vn 0.8153 0.0009 0.5791
vn 0.8149 0.0127 0.5795
vn 0.8149 0.0149 0.5793
vn 0.8159 -0.0006 0.5782
vn -0.5815 0.0520 0.8119
vn -0.5827 0.0636 0.8102
vn -0.5828 0.0633 0.8102
vn 0.5816 -0.0484 -0.8120
vn 0.5820 -0.0802 -0.8092
vn 0.5820 -0.0798 -0.8093
vn 0.5816 -0.0485 -0.8120
vn -0.5816 -0.0484 -0.8120
vn -0.5820 -0.0798 -0.8093
vn -0.5820 -0.0802 -0.8092
vn -0.8162 -0.0002 -0.5778
vn -0.8154 -0.0038 -0.5789
vn 0.8153 0.0245 0.5785
vn -0.8147 -0.0158 -0.5797
vn -0.8148 -0.0173 -0.5795
vn -0.8153 -0.0238 -0.5786
vn -0.5841 0.0541 0.8099
vn 0.5824 -0.0893 -0.8080
vn -0.8136 0.0286 -0.5808
vn -0.8180 0.0163 -0.5750
vn -0.8239 0.0042 -0.5668
vn 0.5487 0.3801 0.7446
vn 0.5841 0.0226 0.8114
vn 0.5840 0.0231 0.8114
vn 0.5524 0.3627 0.7505
vn -0.7797 -0.0960 0.6188
vn -0.7964 -0.0324 0.6039
vn -0.7940 -0.0452 0.6063
vn -0.7787 -0.0931 0.6205
vn -0.7791 -0.0951 0.6197
vn -0.8107 0.0294 0.5847
vn -0.8141 0.0119 0.5806
vn -0.5144 -0.4120 -0.7521
vn -0.5804 -0.0947 -0.8088
vn -0.5803 -0.0961 -0.8087
vn -0.5074 -0.4334 -0.7448
vn -0.8154 -0.0038 0.5789
vn -0.8147 -0.0158 0.5797
vn -0.8148 -0.0173 0.5795
vn -0.8162 -0.0002 0.5778
vn 0.7991 0.0460 -0.5995
vn 0.8160 0.0015 -0.5780
vn 0.8144 -0.0029 -0.5804
vn 0.8012 0.0384 -0.5971
vn 0.5822 0.0317 0.8124
vn -0.5819 -0.0486 -0.8118
vn -0.5819 -0.0485 -0.8118
vn -0.8159 -0.0005 0.5783
vn -0.8149 0.0149 0.5793
vn -0.8149 0.0127 0.5795
vn -0.8153 0.0010 0.5791
vn 0.5815 0.0519 0.8119
vn 0.5828 0.0633 0.8102
vn 0.5827 0.0636 0.8102
vn 0.5815 0.0520 0.8119
vn 0.5816 -0.0485 0.8120
vn 0.5820 -0.0798 0.8093
vn 0.5820 -0.0802 0.8092
vn 0.5816 -0.0484 0.8120
vn -0.8153 0.0245 0.5785
vn 0.8153 -0.0238 -0.5786
vn 0.5841 0.0541 0.8099
vn -0.5824 -0.0893 -0.8080
vn 0.7808 0.0684 -0.6210
vn 0.7836 0.0818 -0.6159
vn 0.7819 0.0738 -0.6190
vn 0.8407 0.0577 0.5384
vn 0.8366 0.0532 0.5452
vn 0.8427 0.0600 0.5350
vn -0.8405 -0.0572 -0.5388
vn -0.8426 -0.0595 -0.5353
vn -0.1967 0.9411 0.2752
vn 0.1010 -0.9880 -0.1170
vn -0.8364 -0.0526 -0.5456
vn -0.7791 -0.0708 0.6229
vn -0.7802 -0.0733 0.6213
vn -0.7811 -0.0756 0.6198
vn 0.7813 0.0752 -0.6196
vn 0.7785 0.0621 -0.6246
vn 0.4449 0.6759 0.5876
vn -0.3942 -0.6812 -0.6169
vn 0.7753 0.0478 -0.6298
vn -0.5601 -0.0174 -0.8282
vn -0.5716 0.0069 -0.8205
vn -0.5722 0.0081 -0.8201
vn 0.8222 -0.0131 -0.5690
vn 0.8003 -0.0275 -0.5990
vn 0.7984 -0.0410 -0.6008
vn 0.8103 -0.0426 -0.5844
vn 0.8157 -0.0273 -0.5778
vn 0.8107 0.0294 -0.5847
vn 0.8141 0.0119 -0.5806
vn 0.5596 -0.0662 0.8261
vn 0.5712 -0.0689 0.8179
vn 0.5707 -0.0688 0.8183
vn 0.8154 -0.0039 0.5789
vn 0.8162 -0.0002 0.5778
vn 0.8148 -0.0173 0.5795
vn 0.8147 -0.0158 0.5797
vn -0.8028 0.0455 0.5945
vn -0.8160 0.0016 0.5780
vn -0.8144 -0.0029 0.5804
vn -0.8047 0.0366 0.5926
vn -0.5822 0.0318 -0.8124
vn 0.5819 -0.0486 0.8118
vn 0.8159 -0.0006 -0.5782
vn 0.8149 0.0149 -0.5793
vn 0.8149 0.0127 -0.5795
vn 0.8153 0.0009 -0.5791
vn -0.5815 0.0520 -0.8119
vn -0.5828 0.0633 -0.8102
vn -0.5827 0.0636 -0.8102
vn -0.5816 -0.0484 0.8120
vn -0.5820 -0.0802 0.8092
vn -0.5820 -0.0798 0.8093
vn 0.8153 0.0245 -0.5785
vn -0.8153 -0.0238 0.5786
vn -0.5841 0.0541 -0.8099
vn 0.5824 -0.0893 0.8080
vn -0.8136 0.0286 0.5808
vn -0.8239 0.0042 0.5668
vn -0.8180 0.0163 0.5750
vn 0.5487 0.3801 -0.7446
vn 0.5524 0.3627 -0.7505
vn 0.5840 0.0231 -0.8114
vn 0.5841 0.0226 -0.8114
vn -0.7797 -0.0960 -0.6188
vn -0.7791 -0.0951 -0.6197
vn -0.7787 -0.0931 -0.6205
vn -0.7940 -0.0452 -0.6063
vn -0.7964 -0.0324 -0.6039
vn -0.8141 0.0119 -0.5806
vn -0.8107 0.0294 -0.5847
vn -0.5144 -0.4120 0.7521
vn -0.5074 -0.4334 0.7448
vn -0.5803 -0.0961 0.8087
vn -0.5804 -0.0947 0.8088
vn 0.7991 0.0460 0.5995
vn 0.8012 0.0384 0.5971
vn 0.8144 -0.0029 0.5804
vn 0.8160 0.0015 0.5780
vn 0.5822 0.0317 -0.8124
vn -0.5819 -0.0485 0.8118
vn -0.5819 -0.0486 0.8118
vn -0.8153 0.0010 -0.5791
vn -0.8149 0.0127 -0.5795
vn -0.8149 0.0149 -0.5793
vn -0.8159 -0.0005 -0.5783
vn 0.5815 0.0520 -0.8119
vn 0.5827 0.0636 -0.8102
vn 0.5828 0.0633 -0.8102
vn 0.5815 0.0519 -0.8119
vn -0.8153 0.0245 -0.5785
vn 0.8153 -0.0238 0.5786
vn 0.5841 0.0541 -0.8099
vn -0.5824 -0.0893 0.8080
vn 0.7808 0.0684 0.6210
vn 0.7819 0.0738 0.6190
vn 0.7836 0.0818 0.6159
vn 0.8366 0.0532 -0.5452
vn 0.8407 0.0577 -0.5384
vn 0.8427 0.0600 -0.5350
vn -0.8426 -0.0595 0.5353
vn -0.8405 -0.0572 0.5388
vn -0.1967 0.9411 -0.2752
vn 0.1010 -0.9880 0.1170
vn -0.8364 -0.0526 0.5456
vn -0.7802 -0.0733 -0.6213
vn -0.7791 -0.0708 -0.6229
vn -0.7811 -0.0756 -0.6198
vn 0.7785 0.0621 0.6246
vn 0.7813 0.0752 0.6196
vn 0.4449 0.6759 -0.5876
vn -0.3942 -0.6812 0.6169
vn 0.7753 0.0478 0.6298
vn -0.5461 0.3697 -0.7517
vn -0.8837 0.3697 -0.2871
vn -0.7187 0.6549 -0.2335
vn -0.4442 0.6549 -0.6114
vn -0.4442 0.6549 0.6114
vn -0.0000 0.6549 0.7557
vn 0.0000 0.9679 0.2514
vn -0.1478 0.9679 0.2034
vn -0.5461 0.3697 0.7517
vn -0.0000 0.3697 0.9291
vn 0.8837 0.3697 0.2871
vn 0.8837 0.3697 -0.2871
vn 0.7187 0.6549 -0.2335
vn 0.7187 0.6549 0.2335
vn -0.0000 0.3697 -0.9291
vn -0.0000 0.6549 -0.7557
vn -0.8837 0.3697 0.2871
vn -0.7187 0.6549 0.2335
vn 0.5461 0.3697 0.7517
vn 0.4442 0.6549 0.6114
vn 0.5461 0.3697 -0.7517
vn 0.4442 0.6549 -0.6114
vn 0.1478 0.9679 -0.2034
vn 0.0000 0.9679 -0.2514
vn -0.1478 0.9679 -0.2034
vn -0.2391 0.9679 -0.0777
vn -0.2391 0.9679 0.0777
vn 0.1478 0.9679 0.2034
vn 0.2391 0.9679 0.0777
vn 0.2391 0.9679 -0.0777
usemtl Wood
s 1
f 1//1 2//1 4//2 3//2
f 3//2 4//2 6//3 5//3
f 5//3 6//3 8//4 7//4
f 7//4 8//4 10//5 9//5
f 9//5 10//5 12//6 11//6
f 11//6 12//6 14//7 13//7
f 13//7 14//7 16//8 15//8
f 15//8 16//8 18//9 17//9
f 12//10 10//11 25//12 26//13
f 17//9 18//9 20//14 19//14
f 19//14 20//14 2//1 1//1
f 1//15 3//15 5//15 7//15 9//15 11//15 13//15 15//15 17//15 19//15
f 23//16 21//17 31//18 33//18
f 10//11 8//19 24//20 25//12
f 4//21 2//22 22//23 21//17
f 8//19 6//24 23//16 24//20
f 6//24 4//21 21//17 23//16
f 2//22 20//25 30//26 22//23
f 20//25 18//27 29//28 30//26
f 18//27 16//29 28//30 29//28
f 16//29 14//31 27//32 28//30
f 14//31 12//10 26//13 27//32
f 30//26 29//28 39//18 40//18
f 27//32 26//13 36//18 37//18
f 24//20 23//16 33//18 34//18
f 22//23 30//26 40//18 32//18
f 28//30 27//32 37//18 38//18
f 25//12 24//20 34//18 35//18
f 21//17 22//23 32//18 31//18
f 29//28 28//30 38//18 39//18
f 26//13 25//12 35//18 36//18
f 66//33 67//34 77//34 76//33
f 64//35 74//35 73//36 63//36
f 110//37 101//33 91//33 100//37
f 67//34 68//38 78//38 77//34
f 64//35 65//37 75//37 74//35
f 61//39 62//40 72//40 71//39
f 68//38 69//41 79//41 78//38
f 65//37 66//33 76//33 75//37
f 62//40 63//36 73//36 72//40
f 69//41 70//42 80//42 79//41
f 116//18 253//18 254//18 115//18
f 90//15 259//15 268//15 81//15
f 257//35 267//35 268//37 258//37
f 250//34 260//34 261//38 251//38
f 253//42 263//42 264//39 254//39
f 256//36 266//36 267//35 257//35
f 249//33 259//33 260//34 250//34
f 252//41 262//41 263//42 253//42
f 255//40 265//40 266//36 256//36
f 261//38 262//41 252//41 251//38
f 96//39 106//39 107//40 97//40
f 103//38 104//41 94//41 93//38
f 115//33 114//34 84//34 85//33
f 97//40 107//40 108//36 98//36
f 94//41 104//41 105//42 95//42
f 91//33 101//33 102//34 92//34
f 98//36 108//36 109//35 99//35
f 95//42 105//42 106//39 96//39
f 92//34 102//34 103//38 93//38
f 99//35 109//35 110//37 100//37
f 112//41 111//42 81//42 82//41
f 254//39 264//39 265//40 255//40
f 119//40 118//36 88//36 89//40
f 116//37 115//33 85//33 86//37
f 113//38 112//41 82//41 83//38
f 120//39 119//40 89//40 90//39
f 117//35 116//37 86//37 87//35
f 114//34 113//38 83//38 84//34
f 268//37 259//33 249//33 258//37
f 117//35 87//35 88//36 118//36
f 65//18 95//18 96//18 66//18
f 71//15 101//15 110//15 80//15
f 74//15 104//15 103//15 73//15
f 66//18 96//18 97//18 67//18
f 75//15 105//15 104//15 74//15
f 67//18 97//18 98//18 68//18
f 76//15 106//15 105//15 75//15
f 68//18 98//18 99//18 69//18
f 61//18 91//18 92//18 62//18
f 77//15 107//15 106//15 76//15
f 69//18 99//18 100//18 70//18
f 62//18 92//18 93//18 63//18
f 78//15 108//15 107//15 77//15
f 70//18 100//18 91//18 61//18
f 63//18 93//18 94//18 64//18
f 79//15 109//15 108//15 78//15
f 72//15 102//15 101//15 71//15
f 64//18 94//18 95//18 65//18
f 80//15 110//15 109//15 79//15
f 73//15 103//15 102//15 72//15
f 145//43 143//43 124//44 126//45
f 122//46 146//47 145//48 126//49 125//50
f 125//50 126//49 130//51 129//52
f 121//53 122//53 125//54 123//55
f 157//56 162//57 161//58 160//59
f 124//60 123//61 127//62 128//63
f 126//45 124//44 128//64 130//64
f 123//55 125//54 129//65 127//65
f 132//66 138//67 137//68 133//69
f 131//70 136//71 138//72 132//70
f 133//73 137//74 135//75 134//76
f 160//77 161//78 163//79 159//77
f 128//63 127//62 134//80 131//81
f 129//52 130//51 132//66 133//69
f 127//65 129//65 133//73 134//76
f 130//64 128//64 131//70 132//70
f 137//68 138//67 142//82 141//82
f 139//15 141//15 142//15 140//15
f 136//83 135//84 139//85 140//85
f 138//72 136//71 140//86 142//86
f 135//75 137//74 141//87 139//87
f 143//88 144//89 121//90 123//61 124//60
f 171//91 152//92 150//93 169//94
f 148//95 151//96 152//97 171//98 172//99
f 151//96 155//100 156//101 152//97
f 147//102 149//103 151//104 148//105
f 195//106 200//107 199//108 198//109
f 150//110 154//111 153//112 149//113
f 152//92 156//114 154//114 150//93
f 149//103 153//115 155//116 151//104
f 159//117 163//118 164//119 158//120
f 158//121 164//122 162//123 157//124
f 198//125 199//126 201//127 197//128
f 154//111 157//56 160//59 153//112
f 155//100 159//117 158//120 156//101
f 153//115 160//77 159//77 155//116
f 156//114 158//121 157//124 154//114
f 163//118 167//129 168//129 164//119
f 165//15 166//15 168//15 167//15
f 162//57 166//130 165//130 161//58
f 164//122 168//131 166//131 162//123
f 161//78 165//132 167//132 163//79
f 169//133 150//110 149//113 147//134 170//135
f 145//48 146//47 178//136 177//137
f 146//47 122//46 174//138 178//136
f 121//90 144//89 176//139 173//140
f 143//141 145//141 177//141 175//141
f 122//142 121//142 173//142 174//142
f 144//89 143//88 175//143 176//139
f 172//99 171//98 183//144 184//145
f 148//95 172//99 184//145 180//146
f 170//135 147//134 179//147 182//148
f 171//91 169//94 181//149 183//149
f 147//102 148//105 180//150 179//150
f 169//133 170//135 182//148 181//151
f 209//152 190//153 188//154 207//152
f 186//155 189//156 190//157 209//158 210//159
f 189//156 193//160 194//161 190//157
f 185//162 187//163 189//164 186//162
f 221//165 224//166 225//167 226//168
f 188//169 192//170 191//171 187//172
f 190//153 194//173 192//173 188//154
f 187//163 191//174 193//174 189//164
f 197//175 201//176 202//177 196//178
f 196//179 202//180 200//181 195//179
f 223//182 227//183 225//184 224//182
f 192//170 195//106 198//109 191//171
f 193//160 197//175 196//178 194//161
f 191//174 198//125 197//128 193//174
f 194//173 196//179 195//179 192//173
f 201//176 205//185 206//185 202//177
f 203//15 204//15 206//15 205//15
f 200//107 204//186 203//186 199//108
f 202//180 206//187 204//187 200//181
f 199//126 203//188 205//188 201//127
f 207//189 188//169 187//172 185//190 208//191
f 235//192 233//193 214//194 216//195
f 212//196 236//197 235//198 216//199 215//200
f 215//200 216//199 220//201 219//202
f 211//203 212//204 215//205 213//206
f 214//207 213//208 217//209 218//210
f 216//195 214//194 218//211 220//211
f 213//206 215//205 219//212 217//213
f 222//214 228//215 227//216 223//217
f 221//218 226//219 228//220 222//221
f 218//210 217//209 224//166 221//165
f 219//202 220//201 222//214 223//217
f 217//213 219//212 223//182 224//182
f 220//211 218//211 221//218 222//221
f 227//216 228//215 232//222 231//222
f 229//15 231//15 232//15 230//15
f 226//168 225//167 229//223 230//223
f 228//220 226//219 230//224 232//224
f 225//184 227//183 231//225 229//225
f 233//226 234//227 211//228 213//208 214//207
f 209//158 241//229 242//230 210//159
f 210//159 242//230 238//231 186//155
f 185//190 237//232 240//233 208//191
f 207//234 239//234 241//234 209//234
f 186//235 238//235 237//235 185//235
f 208//191 240//233 239//236 207//189
f 236//197 248//237 247//238 235//198
f 212//196 244//239 248//237 236//197
f 234//227 246//240 243//241 211//228
f 235//192 247//242 245//242 233//193
f 211//203 243//243 244//243 212//204
f 233//226 245//244 246//240 234//227
f 134//80 135//84 136//83 131//81
f 61//39 71//39 80//42 70//42
f 87//15 262//15 261//15 88//15
f 115//18 254//18 255//18 114//18
f 86//15 263//15 262//15 87//15
f 114//18 255//18 256//18 113//18
f 85//15 264//15 263//15 86//15
f 113//18 256//18 257//18 112//18
f 120//18 249//18 250//18 119//18
f 84//15 265//15 264//15 85//15
f 112//18 257//18 258//18 111//18
f 119//18 250//18 251//18 118//18
f 83//15 266//15 265//15 84//15
f 111//18 258//18 249//18 120//18
f 118//18 251//18 252//18 117//18
f 82//15 267//15 266//15 83//15
f 89//15 260//15 259//15 90//15
f 117//18 252//18 253//18 116//18
f 81//15 268//15 267//15 82//15
f 88//15 261//15 260//15 89//15
f 120//39 90//39 81//42 111//42
usemtl Cushin
f 40//245 39//246 49//247 50//248
f 47//249 46//250 56//251 57//252
f 37//253 36//254 46//250 47//249
f 34//255 33//256 43//257 44//258
f 32//259 40//245 50//248 42//260
f 38//261 37//253 47//249 48//262
f 35//263 34//255 44//258 45//264
f 31//265 32//259 42//260 41//266
f 39//246 38//261 48//262 49//247
f 36//254 35//263 45//264 46//250
f 33//256 31//265 41//266 43//257
f 51//267 52//268 60//269 59//270 58//271 57//252 56//251 55//272 54//273 53//274
f 44//258 43//257 53//274 54//273
f 42//260 50//248 60//269 52//268
f 48//262 47//249 57//252 58//271
f 45//264 44//258 54//273 55//272
f 41//266 42//260 52//268 51//267
f 49//247 48//262 58//271 59//270
f 46//250 45//264 55//272 56//251
f 43//257 41//266 51//267 53//274
f 50//248 49//247 59//270 60//269
