# Blender v2.79 (sub 0) OBJ File: 'Trashcan_Small1.blend'
# www.blender.org
mtllib Trashcan_Small1.mtl
o Trashcan_Small1_Cube.061
v -0.096671 0.021535 -0.108917
v 0.096671 0.021535 -0.108917
v 0.111715 0.607816 -0.126968
v -0.111715 0.607816 -0.126968
v 0.096671 0.021535 0.140137
v -0.096671 0.021535 0.140137
v -0.111715 0.607816 0.160844
v 0.111715 0.607816 0.160844
v -0.179205 0.021535 0.129531
v -0.213277 0.021535 0.090799
v -0.246467 0.607816 0.103828
v -0.207093 0.607816 0.148587
v -0.213277 0.021535 -0.089550
v -0.179205 0.021535 -0.119524
v -0.207093 0.607816 -0.139226
v -0.246467 0.607816 -0.104587
v 0.213277 0.021535 0.090799
v 0.179205 0.021535 0.129531
v 0.207093 0.607816 0.148587
v 0.246467 0.607816 0.103828
v 0.179205 0.021535 -0.119524
v 0.213277 0.021535 -0.089550
v 0.246467 0.607816 -0.104587
v 0.207093 0.607816 -0.139226
v -0.100041 0.021535 -0.112961
v 0.100041 0.021535 -0.112961
v 0.100041 0.021535 0.144775
v -0.100041 0.021535 0.144775
v -0.220712 0.021535 0.093718
v -0.185452 0.021535 0.133799
v -0.185452 0.021535 -0.123937
v -0.220712 0.021535 -0.092918
v 0.220712 0.021535 -0.092918
v 0.185452 0.021535 -0.123937
v 0.185452 0.021535 0.133799
v 0.220712 0.021535 0.093718
v -0.100041 -0.006860 -0.112961
v 0.100041 -0.006860 -0.112961
v 0.100041 -0.006860 0.144775
v -0.100041 -0.006860 0.144775
v -0.220712 -0.006860 0.093718
v -0.185452 -0.006860 0.133799
v -0.185452 -0.006860 -0.123937
v -0.220712 -0.006860 -0.092918
v 0.220712 -0.006860 -0.092918
v 0.185452 -0.006860 -0.123937
v 0.185452 -0.006860 0.133799
v 0.220712 -0.006860 0.093718
v 0.114003 0.608032 -0.129714
v -0.114003 0.608032 -0.129714
v -0.114003 0.608032 0.163992
v 0.114003 0.608032 0.163992
v -0.211333 0.608032 0.151484
v -0.251514 0.608032 0.105809
v -0.251514 0.608032 -0.106874
v -0.211333 0.608032 -0.142222
v 0.211333 0.608032 -0.142222
v 0.251514 0.608032 -0.106874
v 0.251514 0.608032 0.105809
v 0.211333 0.608032 0.151484
v 0.114003 0.631756 -0.129714
v -0.114003 0.631756 -0.129714
v -0.114003 0.631756 0.163992
v 0.114003 0.631756 0.163992
v -0.211333 0.631756 0.151484
v -0.251514 0.631756 0.105809
v -0.251514 0.631756 -0.106874
v -0.211333 0.631756 -0.142222
v 0.211333 0.631756 -0.142222
v 0.251514 0.631756 -0.106874
v 0.251514 0.631756 0.105809
v 0.211333 0.631756 0.151484
v 0.110469 0.631756 -0.125473
v -0.110469 0.631756 -0.125473
v -0.110469 0.631756 0.159128
v 0.110469 0.631756 0.159128
v -0.204782 0.631756 0.147008
v -0.243718 0.631756 0.102749
v -0.243718 0.631756 -0.103341
v -0.204782 0.631756 -0.137593
v 0.204782 0.631756 -0.137593
v 0.243718 0.631756 -0.103341
v 0.243718 0.631756 0.102749
v 0.204782 0.631756 0.147008
v 0.110469 0.703315 -0.125414
v -0.110469 0.703315 -0.125414
v -0.110469 0.661442 0.159128
v 0.110469 0.661442 0.159128
v -0.204782 0.661442 0.147008
v -0.243718 0.667955 0.102749
v -0.243718 0.699173 -0.103674
v -0.204782 0.705583 -0.137320
v 0.204782 0.705583 -0.137320
v 0.243718 0.699173 -0.103674
v 0.243718 0.667955 0.102749
v 0.204782 0.661442 0.147008
v 0.105628 0.702431 -0.119608
v -0.105628 0.702431 -0.119608
v -0.105628 0.662393 0.152466
v 0.105628 0.662393 0.152466
v -0.195809 0.662393 0.140876
v -0.233039 0.668621 0.098557
v -0.233039 0.698471 -0.098821
v -0.195809 0.704600 -0.130993
v 0.195809 0.704600 -0.130993
v 0.233039 0.698471 -0.098821
v 0.233039 0.668621 0.098557
v 0.195809 0.662393 0.140876
v 0.088251 0.075952 -0.098767
v -0.088251 0.075952 -0.098767
v -0.088251 0.075952 0.128548
v 0.088251 0.075952 0.128548
v -0.163596 0.075952 0.118865
v -0.194701 0.075952 0.083507
v -0.194701 0.075952 -0.081399
v -0.163596 0.075952 -0.108278
v 0.163596 0.075952 -0.108278
v 0.194701 0.075952 -0.081399
v 0.194701 0.075952 0.083507
v 0.163596 0.075952 0.118865
v -0.193601 0.608384 -0.129436
v -0.230410 0.608384 -0.097626
v 0.193601 0.608384 0.139367
v 0.104437 0.608384 0.150826
v -0.104437 0.608384 0.150826
v -0.193601 0.608384 0.139367
v 0.193601 0.608384 -0.129436
v 0.230410 0.608384 -0.097626
v 0.104437 0.608384 -0.118180
v -0.104437 0.608384 -0.118180
v 0.230410 0.608384 0.097525
v -0.230410 0.608384 0.097525
vn -0.0629 -0.0368 0.9973
vn -0.0648 -0.0369 0.9972
vn -0.4739 -0.0511 0.8791
vn -0.4634 -0.0508 0.8847
vn 0.4634 -0.0508 0.8847
vn 0.4739 -0.0511 0.8791
vn 0.0648 -0.0369 0.9972
vn 0.0629 -0.0368 0.9973
vn -0.9340 -0.0607 0.3521
vn -0.9338 -0.0607 0.3525
vn -0.9984 -0.0565 0.0000
vn 0.1274 -0.0273 -0.9915
vn 0.0650 -0.0290 -0.9975
vn 0.0627 -0.0291 -0.9976
vn -0.0627 -0.0291 -0.9976
vn -0.0650 -0.0290 -0.9975
vn -0.1274 -0.0273 -0.9915
vn 0.9984 -0.0565 0.0000
vn 0.9338 -0.0607 0.3525
vn 0.9340 -0.0607 0.3521
vn -0.6594 -0.0566 -0.7496
vn 0.6594 -0.0566 -0.7496
vn 0.0640 0.0377 -0.9972
vn -0.0640 0.0377 -0.9972
vn -0.0627 0.0436 -0.9971
vn 0.0627 0.0436 -0.9971
vn -0.4700 0.0513 -0.8812
vn -0.4621 0.0601 -0.8848
vn 0.6524 0.0476 0.7563
vn 0.6524 0.0472 0.7564
vn 0.6524 0.0668 0.7549
vn 0.0000 1.0000 0.0000
vn 0.4700 0.0513 -0.8812
vn 0.4621 0.0601 -0.8848
vn -0.6524 0.0472 0.7564
vn -0.6524 0.0476 0.7563
vn -0.6524 0.0668 0.7549
vn 0.1251 0.0226 0.9919
vn 0.0631 0.0244 0.9977
vn 0.0614 0.0345 0.9975
vn 0.1252 0.0323 0.9916
vn -0.0631 0.0244 0.9977
vn -0.1251 0.0226 0.9919
vn -0.1252 0.0323 0.9916
vn -0.0614 0.0345 0.9975
vn -0.9346 0.0575 -0.3511
vn -0.9333 0.0719 -0.3519
vn 0.9346 0.0575 -0.3511
vn 0.9333 0.0719 -0.3519
vn -0.9987 0.0507 0.0013
vn -0.9978 0.0669 0.0000
vn 0.9987 0.0507 0.0013
vn 0.9978 0.0669 0.0000
vn 0.0028 -0.9967 -0.0810
vn -0.0020 -0.9976 -0.0694
vn -0.0199 -0.9988 -0.0441
vn 0.0083 -0.9963 -0.0856
vn -0.0356 -0.9992 -0.0161
vn -0.0026 -0.9978 0.0668
vn 0.0026 -0.9978 0.0668
vn 0.0055 -0.9979 0.0647
vn -0.0055 -0.9979 0.0647
vn -0.0639 0.0000 0.9980
vn -0.4694 0.0000 0.8830
vn 0.4694 0.0000 0.8830
vn 0.0639 0.0000 0.9980
vn 0.6605 0.0000 -0.7508
vn 0.0000 -1.0000 0.0000
vn 0.0639 0.0000 -0.9980
vn -0.0639 0.0000 -0.9980
vn 0.9356 0.0000 0.3530
vn -0.9356 0.0000 0.3530
vn -0.1275 0.0000 -0.9918
vn -1.0000 0.0000 0.0000
vn -0.6605 0.0000 -0.7508
vn 1.0000 0.0000 0.0000
vn 0.1275 0.0000 -0.9918
vn 0.0374 -0.9992 0.0139
vn 0.0356 -0.9992 -0.0161
vn 0.0373 -0.9992 0.0142
vn 0.0020 -0.9976 -0.0694
vn 0.0199 -0.9988 -0.0441
vn -0.0028 -0.9967 -0.0810
vn -0.0083 -0.9963 -0.0856
vn 0.0170 -0.9986 0.0498
vn 0.0247 -0.9990 0.0385
vn -0.0374 -0.9992 0.0139
vn -0.0170 -0.9986 0.0498
vn -0.0247 -0.9990 0.0385
vn -0.0373 -0.9992 0.0142
vn -0.4806 0.0000 0.8769
vn 0.4806 0.0000 0.8769
vn -0.0114 0.9910 0.1332
vn 0.0114 0.9910 0.1332
vn 0.0055 0.9905 0.1374
vn -0.0055 0.9905 0.1374
vn 0.0074 0.9897 0.1427
vn 0.0116 0.9906 0.1366
vn -0.0094 0.9860 0.1665
vn -0.0082 0.9869 0.1609
vn -0.0082 0.9870 0.1608
vn -0.0010 0.9879 0.1548
vn 0.6572 -0.0003 -0.7537
vn -0.1264 0.0023 -0.9920
vn -0.0633 0.0015 -0.9980
vn -0.0638 0.0016 -0.9980
vn 0.0633 0.0015 -0.9980
vn 0.1264 0.0023 -0.9920
vn 0.0638 0.0016 -0.9980
vn 0.9461 -0.0000 0.3240
vn -0.9461 -0.0000 0.3240
vn -0.6572 -0.0003 -0.7537
vn -0.0074 0.9897 0.1427
vn -0.0116 0.9906 0.1367
vn 0.0082 0.9869 0.1609
vn 0.0094 0.9860 0.1665
vn 0.0010 0.9879 0.1548
vn 0.0082 0.9870 0.1608
vn -0.0039 0.9891 0.1473
vn -0.0013 0.9888 0.1494
vn 0.0039 0.9891 0.1473
vn 0.0013 0.9888 0.1494
vn 0.0032 0.9888 0.1490
vn -0.0032 0.9888 0.1490
vn 0.9994 0.0350 0.0027
vn 0.9461 0.0430 -0.3209
vn -0.9461 0.0430 -0.3209
vn -0.9994 0.0350 0.0027
vn 0.4857 0.0428 -0.8731
vn -0.4857 0.0428 -0.8731
vn 0.0637 0.0143 0.9979
vn -0.0637 0.0143 0.9979
vn -0.1251 0.0133 0.9921
vn 0.1251 0.0133 0.9921
vn -0.6523 0.0281 0.7575
vn 0.0646 0.0317 -0.9974
vn 0.6523 0.0281 0.7575
vn -0.0646 0.0317 -0.9974
usemtl LightMetal
s 1
f 6//1 7//2 12//3 9//4
f 18//5 19//6 8//7 5//8
f 10//9 11//10 16//11 13//11
f 14//12 15//12 4//13 1//14
f 2//15 3//16 24//17 21//17
f 22//18 23//18 20//19 17//20
f 7//2 6//1 5//8 8//7
f 3//16 2//15 1//14 4//13
f 9//4 12//3 11//10 10//9
f 15//21 14//21 13//21 16//21
f 23//22 22//22 21//22 24//22
f 19//6 18//5 17//20 20//19
f 125//23 124//24 112//25 111//26
f 124//24 123//27 120//28 112//25
f 121//29 122//30 115//31 116//31
f 118//32 117//32 109//32 112//32 120//32 119//32
f 110//32 116//32 115//32 114//32 113//32 111//32
f 110//32 111//32 112//32 109//32
f 126//33 125//23 111//26 113//34
f 128//35 127//36 117//37 118//37
f 127//38 129//39 109//40 117//41
f 130//42 121//43 116//44 110//45
f 129//39 130//42 110//45 109//40
f 123//27 131//46 119//47 120//28
f 132//48 126//33 113//34 114//49
f 131//46 128//50 118//51 119//47
f 122//52 132//48 114//49 115//53
usemtl Black
f 18//32 5//32 27//32 35//32
f 4//54 15//55 56//56 50//57
f 15//55 16//58 55//58 56//56
f 7//59 8//60 52//61 51//62
f 14//32 1//32 25//32 31//32
f 9//32 10//32 29//32 30//32
f 28//63 30//64 42//64 40//63
f 35//65 27//66 39//66 47//65
f 34//67 33//67 45//67 46//67
f 17//32 18//32 35//32 36//32
f 5//32 6//32 28//32 27//32
f 6//32 9//32 30//32 28//32
f 2//32 21//32 34//32 26//32
f 1//32 2//32 26//32 25//32
f 10//32 13//32 32//32 29//32
f 22//32 17//32 36//32 33//32
f 13//32 14//32 31//32 32//32
f 21//32 22//32 33//32 34//32
f 38//68 46//68 45//68 48//68 47//68 39//68
f 38//68 39//68 40//68 37//68
f 44//68 43//68 37//68 40//68 42//68 41//68
f 25//69 26//70 38//70 37//69
f 36//71 35//65 47//65 48//71
f 30//64 29//72 41//72 42//64
f 26//70 34//73 46//73 38//70
f 29//72 32//74 44//74 41//72
f 32//75 31//75 43//75 44//75
f 33//76 36//71 48//71 45//76
f 27//66 28//63 40//63 39//66
f 31//77 25//69 37//69 43//77
f 57//73 49//70 61//70 69//73
f 58//67 57//67 69//67 70//67
f 53//64 51//63 63//63 65//64
f 20//78 23//79 58//79 59//80
f 23//79 24//81 57//82 58//79
f 3//83 4//54 50//57 49//84
f 19//85 20//78 59//80 60//86
f 11//87 12//88 53//89 54//90
f 16//58 11//87 54//90 55//58
f 8//60 19//85 60//86 52//61
f 12//88 7//59 51//62 53//89
f 24//81 3//83 49//84 57//82
f 70//32 69//32 81//32 82//32
f 65//32 63//32 75//32 77//32
f 63//32 64//32 76//32 75//32
f 50//69 56//77 68//77 62//69
f 49//70 50//69 62//69 61//70
f 60//65 59//71 71//71 72//65
f 54//72 53//64 65//64 66//72
f 59//71 58//76 70//76 71//71
f 55//74 54//72 66//72 67//74
f 56//75 55//75 67//75 68//75
f 52//66 60//65 72//65 64//66
f 51//63 52//66 64//66 63//63
f 77//64 75//63 87//63 89//91
f 75//63 76//66 88//66 87//63
f 76//66 84//65 96//92 88//66
f 69//32 61//32 73//32 81//32
f 62//32 68//32 80//32 74//32
f 61//32 62//32 74//32 73//32
f 72//32 71//32 83//32 84//32
f 66//32 65//32 77//32 78//32
f 71//32 70//32 82//32 83//32
f 67//32 66//32 78//32 79//32
f 68//32 67//32 79//32 80//32
f 64//32 72//32 84//32 76//32
f 87//93 88//94 100//95 99//96
f 88//94 96//97 108//98 100//95
f 92//99 91//100 103//101 104//102
f 82//103 81//103 93//103 94//103
f 81//104 73//105 85//106 93//104
f 74//107 80//108 92//108 86//109
f 73//105 74//107 86//109 85//106
f 84//65 83//71 95//110 96//92
f 78//72 77//64 89//91 90//111
f 83//71 82//76 94//76 95//110
f 79//74 78//72 90//111 91//74
f 80//112 79//112 91//112 92//112
f 89//113 87//93 99//96 101//114
f 94//115 93//116 105//117 106//118
f 93//116 85//119 97//120 105//117
f 86//121 92//99 104//102 98//122
f 85//119 86//121 98//122 97//120
f 96//97 95//123 107//123 108//98
f 90//124 89//113 101//114 102//124
f 95//123 94//115 106//118 107//123
f 91//100 90//124 102//124 103//101
f 103//125 102//126 132//48 122//52
f 107//127 106//128 128//50 131//46
f 102//126 101//129 126//33 132//48
f 108//130 107//127 131//46 123//27
f 97//131 98//132 130//42 129//39
f 98//132 104//133 121//43 130//42
f 105//134 97//131 129//39 127//38
f 106//135 105//135 127//36 128//35
f 101//129 99//136 125//23 126//33
f 104//137 103//137 122//30 121//29
f 100//138 108//130 123//27 124//24
f 99//136 100//138 124//24 125//23
