# Blender v2.79 (sub 0) OBJ File: 'Window_Round1.blend'
# www.blender.org
mtllib Window_Round1.mtl
o Window_Round1_Cylinder.039
v 0.453196 1.096604 0.056279
v 0.407408 0.045853 0.056279
v 0.392479 1.323203 0.056279
v -0.407408 0.045853 0.056279
v 0.226598 1.489084 0.056279
v -0.407408 1.090753 0.056279
v 0.000000 1.549801 0.056279
v -0.352825 1.294457 0.056279
v -0.226598 1.489084 0.056279
v -0.203704 1.443578 0.056279
v -0.392479 1.323203 0.056279
v 0.000000 1.498161 0.056279
v -0.453196 1.096605 0.056279
v 0.203704 1.443578 0.056279
v 0.453196 -0.000000 0.056279
v 0.352825 1.294457 0.056279
v -0.453196 -0.000000 0.056279
v 0.407408 1.090753 0.056279
v 0.453196 1.096604 -0.056279
v 0.407408 0.045853 -0.056278
v 0.392479 1.323203 -0.056279
v -0.407408 0.045853 -0.056278
v 0.226598 1.489084 -0.056279
v -0.407408 1.090753 -0.056279
v 0.000000 1.549801 -0.056279
v -0.352825 1.294457 -0.056279
v -0.226598 1.489084 -0.056279
v -0.203704 1.443578 -0.056279
v -0.392479 1.323203 -0.056279
v 0.000000 1.498161 -0.056279
v -0.453196 1.096605 -0.056279
v 0.203704 1.443578 -0.056279
v 0.453196 -0.000000 -0.056278
v 0.352825 1.294457 -0.056279
v -0.453196 -0.000000 -0.056278
v 0.407408 1.090753 -0.056279
v 0.453196 1.096604 -0.000000
v 0.392479 1.323203 -0.000000
v 0.226598 1.489084 -0.000000
v 0.000000 1.549801 -0.000000
v -0.226598 1.489084 -0.000000
v -0.392479 1.323203 -0.000000
v -0.453196 1.096605 -0.000000
v 0.453196 -0.000000 0.000000
v -0.453196 -0.000000 0.000000
v 0.407408 0.045853 0.000000
v -0.407408 0.045853 0.000000
v 0.407408 1.090753 0.000000
v -0.407408 1.090753 0.000000
v -0.352825 1.294457 -0.000000
v -0.203704 1.443578 -0.000000
v 0.000000 1.498161 -0.000000
v 0.203704 1.443578 -0.000000
v 0.352825 1.294457 -0.000000
v 0.417411 0.021751 0.036876
v -0.417411 0.021752 0.036876
v -0.417411 1.092306 0.036876
v -0.361488 1.301011 0.036876
v -0.208705 1.453794 0.036876
v 0.000000 1.509717 0.036876
v 0.208705 1.453794 0.036876
v 0.361488 1.301011 0.036876
v 0.417411 1.092306 0.036876
v 0.417411 0.021751 -0.036876
v -0.417411 0.021752 -0.036876
v -0.417411 1.092306 -0.036876
v -0.361488 1.301011 -0.036876
v -0.208705 1.453794 -0.036876
v 0.000000 1.509717 -0.036876
v 0.208705 1.453794 -0.036876
v 0.361488 1.301011 -0.036876
v 0.417411 1.092306 -0.036876
vn 0.0000 0.0000 1.0000
vn 0.9914 0.1305 0.0000
vn 1.0000 0.0000 0.0000
vn -0.0000 -1.0000 0.0000
vn -0.5000 -0.8660 0.0000
vn -0.2588 -0.9659 0.0000
vn -0.9914 0.1305 0.0000
vn -1.0000 0.0000 0.0000
vn -0.8660 0.5000 0.0000
vn -0.5000 0.8660 0.0000
vn -0.2588 0.9659 0.0000
vn 0.5000 0.8660 0.0000
vn 0.2588 0.9659 0.0000
vn 0.8660 0.5000 0.0000
vn 0.8660 -0.5000 0.0000
vn 0.9914 -0.1305 0.0000
vn 0.0000 1.0000 0.0000
vn -0.7071 -0.7071 0.0000
vn 0.7071 -0.7071 0.0000
vn -0.9914 -0.1305 0.0000
vn -0.9659 -0.2588 0.0000
vn 0.2588 -0.9659 0.0000
vn -0.0000 -0.0000 -1.0000
usemtl White
s 1
f 1//1 3//1 16//1 18//1
f 13//1 17//1 4//1 6//1
f 3//1 5//1 14//1 16//1
f 15//1 1//1 18//1 2//1
f 5//1 7//1 12//1 14//1
f 7//1 9//1 10//1 12//1
f 37//2 1//2 15//3 44//3
f 9//1 11//1 8//1 10//1
f 11//1 13//1 6//1 8//1
f 17//1 15//1 2//1 4//1
f 15//4 17//4 45//4 44//4
f 14//5 12//6 52//6 53//5
f 13//7 43//7 45//8 17//8
f 11//9 42//9 43//7 13//7
f 9//10 41//10 42//9 11//9
f 7//11 40//11 41//10 9//10
f 5//12 39//12 40//13 7//13
f 3//14 38//14 39//12 5//12
f 1//2 37//2 38//14 3//14
f 8//15 6//16 49//16 50//15
f 4//17 2//17 46//17 47//17
f 16//18 14//5 53//5 54//18
f 10//19 8//15 50//15 51//19
f 2//8 18//20 48//20 46//8
f 18//20 16//21 54//21 48//20
f 12//22 10//22 51//22 52//22
f 6//16 4//3 47//3 49//16
f 19//23 36//23 34//23 21//23
f 31//23 24//23 22//23 35//23
f 21//23 34//23 32//23 23//23
f 33//23 20//23 36//23 19//23
f 23//23 32//23 30//23 25//23
f 25//23 30//23 28//23 27//23
f 37//2 44//3 33//3 19//2
f 27//23 28//23 26//23 29//23
f 29//23 26//23 24//23 31//23
f 35//23 22//23 20//23 33//23
f 33//4 44//4 45//4 35//4
f 32//5 53//5 52//6 30//6
f 31//7 35//8 45//8 43//7
f 29//9 31//7 43//7 42//9
f 27//10 29//9 42//9 41//10
f 25//11 27//10 41//10 40//11
f 23//12 25//13 40//13 39//12
f 21//14 23//12 39//12 38//14
f 19//2 21//14 38//14 37//2
f 26//15 50//15 49//16 24//16
f 22//17 47//17 46//17 20//17
f 34//18 54//18 53//5 32//5
f 28//19 51//19 50//15 26//15
f 20//8 46//8 48//20 36//20
f 36//20 48//20 54//21 34//21
f 30//22 52//22 51//22 28//22
f 24//16 49//16 47//3 22//3
usemtl Glass
s off
f 55//1 63//1 62//1 61//1 60//1 59//1 58//1 57//1 56//1
f 64//23 65//23 66//23 67//23 68//23 69//23 70//23 71//23 72//23
